<svg xmlns="http://www.w3.org/2000/svg" width="534" height="315.855" viewBox="0 0 534 315.855">
  <g id="Grupo_53622" data-name="Grupo 53622" transform="translate(-53.129 -57.942)">
    <g id="Grupo_53376" data-name="Grupo 53376" transform="translate(53.129 57.942)">
      <g id="Grupo_53374" data-name="Grupo 53374">
        <path id="Trazado_100000" data-name="Trazado 100000" d="M79.335,350.454a1,1,0,0,1-1.742.969A193.952,193.952,0,0,1,53.507,244.982c3.4-54.945,29.407-103.311,68.7-137.092A209.77,209.77,0,0,1,378.68,96.1a201.523,201.523,0,0,1,70.537,88.7l.071.146.022.05c.027.06.058.123.094.208,4.586,10.545,9.64,18.873,15.937,24.794a38.428,38.428,0,0,0,23.268,10.385,1,1,0,0,1-.2,1.984,40.373,40.373,0,0,1-24.432-10.918c-6.511-6.123-11.707-14.666-16.4-25.449l-.06-.13-.035-.064-.07-.147,0,0-.027-.058a199.522,199.522,0,0,0-69.859-87.869A207.786,207.786,0,0,0,123.5,109.407c-38.893,33.436-64.633,81.308-68,135.691A191.945,191.945,0,0,0,79.335,350.454Z" transform="translate(-53.129 -57.942)" fill="#ffeaa7" fill-rule="evenodd"/>
      </g>
      <g id="Grupo_53375" data-name="Grupo 53375" transform="translate(3.525 5.497)">
        <path id="Trazado_100001" data-name="Trazado 100001" d="M445.405,147a265.351,265.351,0,0,1,16.637,29.052c8.939,17.878,15.645,28.059,41.963,29.052s61.084-42.461,50.159-74.741S486.626,81.2,446.4,81.2s-17.878,40.225-.994,65.8ZM260.425,64.559A203.053,203.053,0,0,1,444.717,182.3c.065.126.133.242.2.371,10.523,21.229,22.428,33.218,41.935,34.1,55.057,2.486,101,27.772,101,90.511a90.458,90.458,0,0,1-29.653,67.074H436.135c-.633-.578-1.262-1.164-1.877-1.759-.357.59-.722,1.174-1.083,1.759H87.683a202.058,202.058,0,0,1-30.31-106.75C57.373,155.468,148.283,64.559,260.425,64.559Z" transform="translate(-57.373 -64.559)" fill="#ffeaa7" fill-rule="evenodd"/>
      </g>
    </g>
    <g id="Grupo_53382" data-name="Grupo 53382" transform="translate(86.2 87.74)">
      <g id="Grupo_53377" data-name="Grupo 53377" transform="translate(394.188 77.276)">
        <path id="Trazado_100002" data-name="Trazado 100002" d="M575.647,198.327a.412.412,0,0,1-.412-.412v-3.973h-3.393a.412.412,0,0,1,0-.824h8.983v-5.462h-6.609a.412.412,0,1,1,0-.824h24.26a.412.412,0,0,1,0,.824H581.649v5.462h24.062v-5.462h-2.666a.412.412,0,0,1,0-.824h9.591a.412.412,0,0,1,0,.824h-6.1v5.462H610a.412.412,0,0,1,0,.824H576.059v3.973A.412.412,0,0,1,575.647,198.327Zm-6.537-4.385h-1.259a.412.412,0,0,1,0-.824h1.259a.412.412,0,0,1,0,.824Z" transform="translate(-567.439 -186.831)" fill="#ffd54f"/>
      </g>
      <g id="Grupo_53378" data-name="Grupo 53378" transform="translate(0 117.751)">
        <path id="Trazado_100003" data-name="Trazado 100003" d="M101.147,247.049a.413.413,0,0,1-.412-.412v-3.974H97.34a.412.412,0,0,1,0-.824h8.984v-5.461H99.715a.412.412,0,0,1,0-.824h24.259a.412.412,0,0,1,0,.824H107.148v5.461h24.062v-5.461h-2.665a.412.412,0,0,1,0-.824h9.591a.412.412,0,0,1,0,.824h-6.1v5.461H135.5a.412.412,0,1,1,0,.824H101.559v3.974A.413.413,0,0,1,101.147,247.049Zm-6.537-4.386H93.35a.412.412,0,0,1,0-.824h1.259a.412.412,0,1,1,0,.824Z" transform="translate(-92.938 -235.553)" fill="#ffd54f"/>
      </g>
      <g id="Grupo_53379" data-name="Grupo 53379" transform="translate(123.245)">
        <path id="Trazado_100004" data-name="Trazado 100004" d="M249.5,105.307a.412.412,0,0,1-.412-.412v-3.973H245.7a.412.412,0,0,1,0-.824h8.984V94.636h-6.609a.412.412,0,0,1,0-.825H272.33a.412.412,0,0,1,0,.825H255.5V100.1h24.062V94.636H276.9a.412.412,0,0,1,0-.825h9.591a.412.412,0,0,1,0,.825h-6.1V100.1h3.468a.412.412,0,0,1,0,.824H249.914v3.973A.412.412,0,0,1,249.5,105.307Zm-6.537-4.385h-1.259a.412.412,0,1,1,0-.824h1.259a.412.412,0,0,1,0,.824Z" transform="translate(-241.293 -93.811)" fill="#ffd54f"/>
      </g>
      <g id="Grupo_53380" data-name="Grupo 53380" transform="translate(195.466 226.081)">
        <path id="Trazado_100005" data-name="Trazado 100005" d="M336.438,377.45a.412.412,0,0,1-.412-.412v-3.973h-3.394a.412.412,0,0,1,0-.824h8.982v-5.463h-6.607a.412.412,0,1,1,0-.824h24.259a.412.412,0,1,1,0,.824H342.438v5.463H366.5v-5.463h-2.666a.412.412,0,1,1,0-.824h9.593a.412.412,0,1,1,0,.824h-6.1v5.463h3.467a.412.412,0,0,1,0,.824H336.85v3.973A.412.412,0,0,1,336.438,377.45Zm-6.538-4.385h-1.259a.412.412,0,0,1,0-.824H329.9a.412.412,0,0,1,0,.824Z" transform="translate(-328.229 -365.954)" fill="#ffd54f"/>
      </g>
      <g id="Grupo_53381" data-name="Grupo 53381" transform="translate(349.232 138.324)">
        <path id="Trazado_100006" data-name="Trazado 100006" d="M521.532,271.814a.412.412,0,0,1-.412-.412v-3.973h-3.394a.412.412,0,0,1,0-.824h8.983v-5.463H520.1a.412.412,0,0,1,0-.824h24.259a.412.412,0,0,1,0,.824H527.533v5.463h24.061v-5.463h-2.666a.412.412,0,1,1,0-.824h9.591a.412.412,0,1,1,0,.824h-6.1v5.463h3.469a.412.412,0,0,1,0,.824H521.944V271.4A.412.412,0,0,1,521.532,271.814Zm-6.539-4.385h-1.258a.412.412,0,1,1,0-.824h1.258a.412.412,0,1,1,0,.824Z" transform="translate(-513.323 -260.318)" fill="#ffd54f"/>
      </g>
    </g>
    <g id="Grupo_53383" data-name="Grupo 53383" transform="translate(81.743 111.247)" opacity="0.5">
      <path id="Trazado_100007" data-name="Trazado 100007" d="M95.674,137.767a39.686,39.686,0,0,1,67.061,41.817l3.8,11.124a1.873,1.873,0,0,1-1.881,2.474l-12.2-.715a39.687,39.687,0,0,1-56.771-54.7Z" transform="translate(-87.573 -122.107)" fill="#ffd54f" fill-rule="evenodd"/>
    </g>
    <g id="Grupo_53384" data-name="Grupo 53384" transform="translate(80.387 107.256)">
      <path id="Trazado_100008" data-name="Trazado 100008" d="M94.042,132.964a39.686,39.686,0,0,1,67.06,41.817l3.8,11.124a1.872,1.872,0,0,1-1.882,2.473l-12.2-.714a39.688,39.688,0,0,1-56.772-54.7Z" transform="translate(-85.941 -117.304)" fill="#fff" fill-rule="evenodd"/>
    </g>
    <g id="Grupo_53385" data-name="Grupo 53385" transform="translate(82.475 106.995)">
      <path id="Trazado_100009" data-name="Trazado 100009" d="M128.57,197.226A40.3,40.3,0,0,1,95.027,179.1a.412.412,0,1,1,.689-.452,39.3,39.3,0,0,0,57.757,8.793.415.415,0,0,1,.285-.093l12.2.715a1.383,1.383,0,0,0,1.248-.573,1.4,1.4,0,0,0,.219-1.356l-3.795-11.125a.411.411,0,0,1,.022-.318,39.474,39.474,0,0,0-8.044-46.066.412.412,0,1,1,.567-.6,40.306,40.306,0,0,1,8.29,46.88l3.74,10.962a2.284,2.284,0,0,1-2.3,3.018l-12.043-.706A39.936,39.936,0,0,1,128.57,197.226ZM90.482,168.714a.411.411,0,0,1-.4-.3c-.331-1.126-.613-2.27-.839-3.4a.412.412,0,0,1,.807-.163c.222,1.106.5,2.226.822,3.33a.413.413,0,0,1-.279.512A.406.406,0,0,1,90.482,168.714Zm-1.616-11.5h0a.412.412,0,0,1-.41-.415,39.743,39.743,0,0,1,8.18-23.989v0a40.272,40.272,0,0,1,36.81-15.523.412.412,0,1,1-.1.817A39.447,39.447,0,0,0,97.29,133.307v0A38.93,38.93,0,0,0,89.278,156.8.413.413,0,0,1,88.866,157.211Zm54.554-36.516a.406.406,0,0,1-.155-.03,39.355,39.355,0,0,0-3.777-1.308.412.412,0,1,1,.229-.791,40.017,40.017,0,0,1,3.857,1.336.412.412,0,0,1-.155.793Z" transform="translate(-88.454 -116.989)" fill="#fff4d3"/>
    </g>
    <g id="Grupo_53386" data-name="Grupo 53386" transform="translate(271.442 98.064)">
      <path id="Trazado_100010" data-name="Trazado 100010" d="M345.35,165.192a29.371,29.371,0,0,1-16.711-5.229l-8.706,1.2a1.756,1.756,0,0,1-1.573-.577,1.732,1.732,0,0,1-.4-1.629l2.084-8.17a29.62,29.62,0,0,1,3.38-34.78.412.412,0,1,1,.612.552,28.787,28.787,0,0,0-3.2,33.95.412.412,0,0,1,.047.316l-2.127,8.337a.959.959,0,0,0,1.06,1.186l8.865-1.227a.419.419,0,0,1,.292.071,28.66,28.66,0,0,0,41.479-9.714.412.412,0,1,1,.722.4,29.59,29.59,0,0,1-25.829,15.314Zm28.425-23.1a.432.432,0,0,1-.086-.008.412.412,0,0,1-.318-.488c.171-.82.308-1.65.405-2.466a.412.412,0,1,1,.817.1c-.1.841-.24,1.695-.417,2.538A.411.411,0,0,1,373.776,142.1Zm.515-8.487a.412.412,0,0,1-.41-.377,28.391,28.391,0,0,0-7.176-16.617l0,0a28.757,28.757,0,0,0-27.082-8.979.412.412,0,1,1-.164-.807,29.581,29.581,0,0,1,27.861,9.239h0a29.2,29.2,0,0,1,7.383,17.1.412.412,0,0,1-.375.445Zm-41.917-23.5a.412.412,0,0,1-.185-.78,29.622,29.622,0,0,1,2.747-1.2.412.412,0,1,1,.291.77,28.709,28.709,0,0,0-2.669,1.169A.416.416,0,0,1,332.374,110.111Z" transform="translate(-315.921 -106.239)" fill="#ffd54f"/>
    </g>
    <g id="Grupo_53387" data-name="Grupo 53387" transform="translate(284.4 115.312)">
      <path id="Trazado_100011" data-name="Trazado 100011" d="M333.94,129.42h0a8.316,8.316,0,0,1,11.728,0l2.27,2.269,2.268-2.269a8.318,8.318,0,0,1,11.729,0h0a8.317,8.317,0,0,1,0,11.728l-2.27,2.269-11.728,11.728-11.729-11.728-2.268-2.269A8.315,8.315,0,0,1,333.94,129.42Z" transform="translate(-331.52 -127.001)" fill="#ffd54f" fill-rule="evenodd"/>
    </g>
    <g id="Grupo_53400" data-name="Grupo 53400" transform="translate(68.043 74.22)">
      <g id="Grupo_53388" data-name="Grupo 53388" transform="translate(333.474 76.69)">
        <path id="Trazado_100012" data-name="Trazado 100012" d="M475.892,170.347a.5.5,0,0,0-.992,0v1.011a.5.5,0,1,0,.992,0v-1.011Zm-2.9,1.907a.5.5,0,0,0,0,.992H474a.5.5,0,1,0,0-.992Zm3.8,0a.5.5,0,0,0,0,.992H477.8a.5.5,0,1,0,0-.992Zm-.9,1.887a.5.5,0,1,0-.992,0v1.011a.5.5,0,0,0,.992,0Z" transform="translate(-472.498 -169.852)" fill="#fff" fill-rule="evenodd"/>
      </g>
      <g id="Grupo_53389" data-name="Grupo 53389" transform="translate(374.233 27.067)">
        <path id="Trazado_100013" data-name="Trazado 100013" d="M524.954,110.614a.495.495,0,1,0-.989,0v1.013a.495.495,0,0,0,.989,0v-1.013Zm-2.9,1.908a.5.5,0,1,0,0,.99h1.013a.5.5,0,0,0,0-.99Zm3.795,0a.5.5,0,1,0,0,.99h1.011a.5.5,0,1,0,0-.99Zm-.9,1.887a.495.495,0,1,0-.989,0v1.011a.495.495,0,1,0,.989,0Z" transform="translate(-521.561 -110.119)" fill="#fff" fill-rule="evenodd"/>
      </g>
      <g id="Grupo_53390" data-name="Grupo 53390" transform="translate(209.595 102.051)">
        <path id="Trazado_100014" data-name="Trazado 100014" d="M326.772,200.875a.5.5,0,0,0-.991,0v1.012a.5.5,0,1,0,.991,0v-1.012Zm-2.9,1.908a.5.5,0,0,0,0,.99h1.012a.5.5,0,1,0,0-.99Zm3.795,0a.5.5,0,1,0,0,.99h1.011a.5.5,0,1,0,0-.99Zm-.9,1.887a.5.5,0,1,0-.991,0v1.011a.5.5,0,0,0,.991,0Z" transform="translate(-323.379 -200.38)" fill="#fff" fill-rule="evenodd"/>
      </g>
      <g id="Grupo_53391" data-name="Grupo 53391" transform="translate(211.949 0)">
        <path id="Trazado_100015" data-name="Trazado 100015" d="M329.607,78.033a.5.5,0,1,0-.991,0v1.012a.5.5,0,0,0,.991,0V78.033Zm-2.9,1.908a.5.5,0,0,0,0,.99h1.013a.5.5,0,0,0,0-.99Zm3.795,0a.5.5,0,0,0,0,.99h1.011a.5.5,0,1,0,0-.99Zm-.9,1.886a.5.5,0,0,0-.991,0v1.012a.5.5,0,1,0,.991,0Z" transform="translate(-326.213 -77.537)" fill="#fff" fill-rule="evenodd"/>
      </g>
      <g id="Grupo_53392" data-name="Grupo 53392" transform="translate(105.974 29.83)">
        <path id="Trazado_100016" data-name="Trazado 100016" d="M202.041,113.94a.5.5,0,0,0-.991,0v1.013a.5.5,0,0,0,.991,0V113.94Zm-2.9,1.908a.5.5,0,0,0,0,.991h1.012a.5.5,0,0,0,0-.991Zm3.794,0a.5.5,0,0,0,0,.991h1.012a.5.5,0,0,0,0-.991Zm-.9,1.887a.5.5,0,0,0-.991,0v1.012a.5.5,0,1,0,.991,0Z" transform="translate(-198.647 -113.445)" fill="#fff" fill-rule="evenodd"/>
      </g>
      <g id="Grupo_53393" data-name="Grupo 53393" transform="translate(64.369 158.57)">
        <path id="Trazado_100017" data-name="Trazado 100017" d="M151.959,268.911a.5.5,0,0,0-.993,0v1.011a.5.5,0,0,0,.993,0v-1.011Zm-2.9,1.907a.5.5,0,0,0,0,.991h1.012a.5.5,0,0,0,0-.991Zm3.794,0a.5.5,0,0,0,0,.991h1.012a.5.5,0,1,0,0-.991Zm-.895,1.887a.5.5,0,0,0-.993,0v1.013a.5.5,0,0,0,.993,0Z" transform="translate(-148.565 -268.415)" fill="#fff" fill-rule="evenodd"/>
      </g>
      <g id="Grupo_53394" data-name="Grupo 53394" transform="translate(0 204.101)">
        <path id="Trazado_100018" data-name="Trazado 100018" d="M74.474,323.717a.5.5,0,0,0-.992,0v1.012a.5.5,0,0,0,.992,0v-1.012Zm-2.9,1.907a.5.5,0,0,0,0,.992h1.012a.5.5,0,0,0,0-.992Zm3.794,0a.5.5,0,0,0,0,.992h1.012a.5.5,0,0,0,0-.992Zm-.9,1.887a.5.5,0,0,0-.992,0v1.011a.5.5,0,0,0,.992,0Z" transform="translate(-71.081 -323.222)" fill="#fff" fill-rule="evenodd"/>
      </g>
      <g id="Grupo_53395" data-name="Grupo 53395" transform="translate(240.21 215.091)">
        <path id="Trazado_100019" data-name="Trazado 100019" d="M363.626,336.947a.5.5,0,1,0-.992,0v1.012a.5.5,0,0,0,.992,0v-1.012Zm-2.9,1.907a.5.5,0,0,0,0,.99h1.012a.5.5,0,1,0,0-.99Zm3.795,0a.5.5,0,0,0,0,.99h1.012a.5.5,0,1,0,0-.99Zm-.9,1.887a.5.5,0,0,0-.992,0v1.012a.5.5,0,0,0,.992,0Z" transform="translate(-360.232 -336.451)" fill="#fff" fill-rule="evenodd"/>
      </g>
      <g id="Grupo_53396" data-name="Grupo 53396" transform="translate(497.69 212.736)">
        <path id="Trazado_100020" data-name="Trazado 100020" d="M673.565,334.111a.495.495,0,1,0-.989,0v1.013a.495.495,0,0,0,.989,0v-1.013Zm-2.9,1.908a.5.5,0,0,0,0,.991h1.011a.5.5,0,1,0,0-.991Zm3.795,0a.5.5,0,1,0,0,.991h1.011a.5.5,0,1,0,0-.991Zm-.9,1.887a.495.495,0,1,0-.989,0v1.012a.495.495,0,1,0,.989,0Z" transform="translate(-670.172 -333.616)" fill="#fff" fill-rule="evenodd"/>
      </g>
      <g id="Grupo_53397" data-name="Grupo 53397" transform="translate(420.76 266.901)">
        <path id="Trazado_100021" data-name="Trazado 100021" d="M580.962,399.313a.5.5,0,1,0-.991,0v1.011a.5.5,0,1,0,.991,0v-1.011Zm-2.9,1.907a.5.5,0,1,0,0,.99h1.011a.5.5,0,1,0,0-.99Zm3.795,0a.5.5,0,1,0,0,.99h1.011a.5.5,0,1,0,0-.99Zm-.9,1.887a.5.5,0,1,0-.991,0v1.012a.5.5,0,0,0,.991,0Z" transform="translate(-577.568 -398.817)" fill="#fff" fill-rule="evenodd"/>
      </g>
      <g id="Grupo_53398" data-name="Grupo 53398" transform="translate(288.337 40.372)">
        <path id="Trazado_100022" data-name="Trazado 100022" d="M421.559,126.63a.5.5,0,0,0-.992,0v1.012a.5.5,0,0,0,.992,0V126.63Zm-2.9,1.907a.5.5,0,0,0,0,.992h1.012a.5.5,0,0,0,0-.992Zm3.795,0a.5.5,0,0,0,0,.992h1.012a.5.5,0,0,0,0-.992Zm-.9,1.887a.5.5,0,1,0-.992,0v1.012a.5.5,0,0,0,.992,0Z" transform="translate(-418.165 -126.135)" fill="#fff" fill-rule="evenodd"/>
      </g>
      <g id="Grupo_53399" data-name="Grupo 53399" transform="translate(432.422 154.727)">
        <path id="Trazado_100023" data-name="Trazado 100023" d="M595,264.284a.5.5,0,0,0-.992,0V265.3a.5.5,0,0,0,.992,0v-1.012Zm-2.9,1.908a.5.5,0,0,0,0,.991h1.012a.5.5,0,1,0,0-.991Zm3.795,0a.5.5,0,0,0,0,.991h1.011a.5.5,0,1,0,0-.991Zm-.9,1.887a.5.5,0,1,0-.992,0v1.012a.5.5,0,1,0,.992,0Z" transform="translate(-591.606 -263.789)" fill="#fff" fill-rule="evenodd"/>
      </g>
    </g>
    <g id="Grupo_53415" data-name="Grupo 53415" transform="translate(96.731 126.32)">
      <g id="Grupo_53401" data-name="Grupo 53401" transform="translate(40.331 3.157)">
        <path id="Trazado_100024" data-name="Trazado 100024" d="M159.83,150.131a.414.414,0,0,1-.292-.12l-2.336-2.337-2.337,2.337a.412.412,0,0,1-.582-.583l2.337-2.336-2.337-2.337a.412.412,0,0,1,.582-.582l2.337,2.337,2.336-2.337a.412.412,0,0,1,.582.582l-2.336,2.337,2.336,2.336a.412.412,0,0,1-.291.7Z" transform="translate(-154.163 -144.052)" fill="#ffa2a4"/>
      </g>
      <g id="Grupo_53402" data-name="Grupo 53402" transform="translate(40.331 11.584)">
        <path id="Trazado_100025" data-name="Trazado 100025" d="M159.83,160.276a.412.412,0,0,1-.292-.121l-2.336-2.337-2.337,2.337a.412.412,0,0,1-.582-.582l2.337-2.337-2.337-2.337a.412.412,0,0,1,.582-.582l2.337,2.337,2.336-2.337a.412.412,0,0,1,.582.582l-2.336,2.337,2.336,2.337a.412.412,0,0,1-.291.7Z" transform="translate(-154.163 -154.196)" fill="#ffa2a4"/>
      </g>
      <g id="Grupo_53403" data-name="Grupo 53403" transform="translate(40.331 20.011)">
        <path id="Trazado_100026" data-name="Trazado 100026" d="M159.83,170.419a.414.414,0,0,1-.292-.12l-2.336-2.337-2.337,2.337a.412.412,0,0,1-.582-.583l2.337-2.336-2.337-2.337a.412.412,0,0,1,.582-.582L157.2,166.8l2.336-2.337a.412.412,0,0,1,.582.582l-2.336,2.337,2.336,2.336a.412.412,0,0,1-.291.7Z" transform="translate(-154.163 -164.34)" fill="#ffa2a4"/>
      </g>
      <g id="Grupo_53404" data-name="Grupo 53404" transform="translate(34.488 27.219)">
        <path id="Trazado_100027" data-name="Trazado 100027" d="M148.369,187.556h-.828a.412.412,0,0,1,0-.825h.828a7.239,7.239,0,0,0,7.23-7.231v-6.071a.412.412,0,0,1,.824,0V179.5A8.064,8.064,0,0,1,148.369,187.556Z" transform="translate(-147.129 -173.017)" fill="#ffa2a4"/>
      </g>
      <g id="Grupo_53405" data-name="Grupo 53405" transform="translate(25.676)">
        <path id="Trazado_100028" data-name="Trazado 100028" d="M141.458,185.675h-.049a4.918,4.918,0,0,1-3.379-1.415,6.212,6.212,0,0,1-1.506-4.655c.123-5.754,4.317-37.638,4.5-38.993a.412.412,0,0,1,.817,0c.179,1.355,4.372,33.24,4.5,38.993a6.212,6.212,0,0,1-1.505,4.655A4.919,4.919,0,0,1,141.458,185.675Zm-.032-41.821c-1.087,8.406-3.979,31.114-4.079,35.768a5.434,5.434,0,0,0,1.27,4.061,4.128,4.128,0,0,0,2.777,1.168l.063.412v-.412a4.131,4.131,0,0,0,2.779-1.168,5.437,5.437,0,0,0,1.271-4.061C145.407,174.967,142.515,152.26,141.427,143.853Z" transform="translate(-136.521 -140.252)" fill="#84d2cd"/>
      </g>
      <g id="Grupo_53406" data-name="Grupo 53406" transform="translate(11.69 26.138)">
        <path id="Trazado_100029" data-name="Trazado 100029" d="M138.923,187.335H127.738a8.064,8.064,0,0,1-8.052-8.056v-7.153a.412.412,0,0,1,.824,0v7.153a7.237,7.237,0,0,0,7.228,7.231h11.184a.412.412,0,0,1,0,.825Z" transform="translate(-119.686 -171.715)" fill="#ffa2a4"/>
      </g>
      <g id="Grupo_53413" data-name="Grupo 53413" transform="translate(3.652 8.849)">
        <g id="Grupo_53409" data-name="Grupo 53409" transform="translate(3.06)">
          <g id="Grupo_53407" data-name="Grupo 53407" transform="translate(6.271 6.299)">
            <path id="Trazado_100030" data-name="Trazado 100030" d="M124.326,164.627a3.085,3.085,0,0,1-2.182-5.266,3.158,3.158,0,0,1,4.362,0,3.085,3.085,0,0,1-2.181,5.266Zm0-5.346a2.261,2.261,0,0,0-1.6,3.86,2.315,2.315,0,0,0,3.2,0,2.261,2.261,0,0,0-1.6-3.86Z" transform="translate(-121.242 -158.487)" fill="#ffa2a4"/>
          </g>
          <g id="Grupo_53408" data-name="Grupo 53408">
            <path id="Trazado_100031" data-name="Trazado 100031" d="M121.157,158.781a.408.408,0,0,1-.291-.121l-7.052-7.052a.412.412,0,0,1,.582-.582l7.052,7.052a.412.412,0,0,1-.292.7Z" transform="translate(-113.693 -150.905)" fill="#ffa2a4"/>
          </g>
        </g>
        <g id="Grupo_53412" data-name="Grupo 53412">
          <g id="Grupo_53410" data-name="Grupo 53410" transform="translate(0 6.299)">
            <path id="Trazado_100032" data-name="Trazado 100032" d="M113.1,164.627a3.084,3.084,0,0,1-2.181-5.266,3.157,3.157,0,0,1,4.362,0,3.085,3.085,0,0,1-2.182,5.266Zm0-5.346a2.26,2.26,0,0,0-1.6,3.859,2.314,2.314,0,0,0,3.2,0,2.261,2.261,0,0,0-1.6-3.86Z" transform="translate(-110.01 -158.486)" fill="#ffa2a4"/>
          </g>
          <g id="Grupo_53411" data-name="Grupo 53411" transform="translate(4.564)">
            <path id="Trazado_100033" data-name="Trazado 100033" d="M115.915,158.781a.412.412,0,0,1-.291-.7l7.051-7.052a.412.412,0,0,1,.582.582l-7.051,7.052A.412.412,0,0,1,115.915,158.781Z" transform="translate(-115.504 -150.905)" fill="#ffa2a4"/>
          </g>
        </g>
      </g>
      <g id="Grupo_53414" data-name="Grupo 53414" transform="translate(0 3.176)">
        <path id="Trazado_100034" data-name="Trazado 100034" d="M125.945,167.861H108.086a2.475,2.475,0,0,1-2.472-2.473v-18.84a2.476,2.476,0,0,1,2.472-2.473h17.858a2.476,2.476,0,0,1,2.473,2.473v18.84A2.476,2.476,0,0,1,125.945,167.861ZM108.086,144.9a1.651,1.651,0,0,0-1.648,1.649v18.84a1.65,1.65,0,0,0,1.648,1.649h17.858a1.65,1.65,0,0,0,1.649-1.649v-18.84a1.651,1.651,0,0,0-1.649-1.649Z" transform="translate(-105.614 -144.075)" fill="#84d2cd"/>
      </g>
    </g>
    <g id="Grupo_53421" data-name="Grupo 53421" transform="translate(459.469 97.723)">
      <g id="Grupo_53416" data-name="Grupo 53416" transform="translate(3.484 0)">
        <path id="Trazado_100035" data-name="Trazado 100035" d="M556.516,105.828a11.232,11.232,0,0,1,10.065,6.241H546.452A11.23,11.23,0,0,1,556.516,105.828Z" transform="translate(-546.452 -105.828)" fill="#ffc7c1" fill-rule="evenodd"/>
      </g>
      <g id="Grupo_53417" data-name="Grupo 53417" transform="translate(0 7.653)">
        <path id="Trazado_100036" data-name="Trazado 100036" d="M569.353,140.225v7.8a4.211,4.211,0,0,1-4.2,4.2h-18.7a4.212,4.212,0,0,1-4.2-4.2V134.567c0-3.331,3.515-10.174,3.515-14.235V115.04h20.066v5.293c0,4.061,3.514,10.9,3.514,14.235Z" transform="translate(-542.258 -115.04)" fill="#fff" fill-rule="evenodd"/>
      </g>
      <g id="Grupo_53418" data-name="Grupo 53418" transform="translate(3.515 7.653)">
        <path id="Trazado_100037" data-name="Trazado 100037" d="M546.489,119.321V115.04h20.068v5.293a9.313,9.313,0,0,0,.075,1.117Z" transform="translate(-546.489 -115.04)" fill="#ffc7c1" fill-rule="evenodd"/>
      </g>
      <g id="Grupo_53419" data-name="Grupo 53419" transform="translate(2.187 19.89)">
        <path id="Trazado_100038" data-name="Trazado 100038" d="M546.913,129.77l-.151.46c-.557,1.687-1.871,5.127-1.871,6.83v13.462a2.024,2.024,0,0,0,2.012,2.01h18.7a2.023,2.023,0,0,0,2.01-2.01V137.061c0-1.7-1.314-5.143-1.87-6.83l-.152-.46Z" transform="translate(-544.891 -129.77)" fill="#ffc7c1" fill-rule="evenodd"/>
      </g>
      <g id="Grupo_53420" data-name="Grupo 53420" transform="translate(2.374 5.508)">
        <path id="Rectángulo_5074" data-name="Rectángulo 5074" d="M1.372,0h19.6a1.373,1.373,0,0,1,1.373,1.373V3.1a1.372,1.372,0,0,1-1.372,1.372H1.373A1.373,1.373,0,0,1,0,3.1V1.372A1.372,1.372,0,0,1,1.372,0Z" fill="#fff"/>
      </g>
    </g>
    <g id="Grupo_53422" data-name="Grupo 53422" transform="translate(456.949 142.563)">
      <path id="Rectángulo_5075" data-name="Rectángulo 5075" d="M.826,0H89.254a.825.825,0,0,1,.825.825V3.4a.826.826,0,0,1-.826.826H.827A.827.827,0,0,1,0,3.4V.826A.826.826,0,0,1,.826,0Z" fill="#895cd8"/>
    </g>
    <g id="Grupo_53428" data-name="Grupo 53428" transform="translate(478.639 111.785)">
      <g id="Grupo_53423" data-name="Grupo 53423" transform="translate(2.391 0)">
        <path id="Trazado_100039" data-name="Trazado 100039" d="M575.119,122.755a7.709,7.709,0,0,1,6.908,4.284H568.211A7.711,7.711,0,0,1,575.119,122.755Z" transform="translate(-568.211 -122.755)" fill="#b1e1da" fill-rule="evenodd"/>
      </g>
      <g id="Grupo_53424" data-name="Grupo 53424" transform="translate(0 5.253)">
        <path id="Trazado_100040" data-name="Trazado 100040" d="M583.93,146.365v5.357a2.89,2.89,0,0,1-2.88,2.882H568.216a2.891,2.891,0,0,1-2.883-2.882v-9.24c0-2.286,2.412-6.984,2.412-9.771v-3.633h13.774v3.633c0,2.787,2.411,7.485,2.411,9.771Z" transform="translate(-565.333 -129.078)" fill="#fff" fill-rule="evenodd"/>
      </g>
      <g id="Grupo_53425" data-name="Grupo 53425" transform="translate(2.412 5.253)">
        <path id="Trazado_100041" data-name="Trazado 100041" d="M568.237,132.016v-2.938h13.774v3.633a6.269,6.269,0,0,0,.052.767Z" transform="translate(-568.237 -129.078)" fill="#ffc7c1" fill-rule="evenodd"/>
      </g>
      <g id="Grupo_53426" data-name="Grupo 53426" transform="translate(1.502 13.652)">
        <path id="Trazado_100042" data-name="Trazado 100042" d="M568.528,139.189l-.1.316a21.3,21.3,0,0,0-1.284,4.689v9.24a1.388,1.388,0,0,0,1.381,1.38h12.834a1.388,1.388,0,0,0,1.38-1.38v-9.24a21.3,21.3,0,0,0-1.284-4.689l-.1-.316Z" transform="translate(-567.141 -139.189)" fill="#b1e1da" fill-rule="evenodd"/>
      </g>
      <g id="Grupo_53427" data-name="Grupo 53427" transform="translate(1.629 3.781)">
        <path id="Rectángulo_5076" data-name="Rectángulo 5076" d="M.941,0H14.4a.943.943,0,0,1,.943.943V2.127a.941.941,0,0,1-.941.941H.943A.943.943,0,0,1,0,2.125V.941A.941.941,0,0,1,.941,0Z" fill="#fff"/>
      </g>
    </g>
    <g id="Grupo_53445" data-name="Grupo 53445" transform="translate(503.888 122.387)">
      <g id="Grupo_53429" data-name="Grupo 53429" transform="translate(0 16.854)">
        <path id="Trazado_100043" data-name="Trazado 100043" d="M597.388,159.127h15.176a1.666,1.666,0,0,0,1.661-1.661h0a1.665,1.665,0,0,0-1.661-1.661H597.388a1.666,1.666,0,0,0-1.661,1.661h0A1.666,1.666,0,0,0,597.388,159.127Z" transform="translate(-595.727 -155.805)" fill="#fff" fill-rule="evenodd"/>
      </g>
      <g id="Grupo_53430" data-name="Grupo 53430" transform="translate(1.832 1.66)">
        <path id="Rectángulo_5077" data-name="Rectángulo 5077" d="M1.008,0H13.827a1.007,1.007,0,0,1,1.007,1.007v14.84a1.007,1.007,0,0,1-1.007,1.007H1.008A1.008,1.008,0,0,1,0,15.846V1.008A1.008,1.008,0,0,1,1.008,0Z" fill="#ffc7c1"/>
      </g>
      <g id="Grupo_53431" data-name="Grupo 53431" transform="translate(0 0)">
        <path id="Trazado_100044" data-name="Trazado 100044" d="M597.388,138.839h15.176a1.666,1.666,0,0,0,1.661-1.661h0a1.665,1.665,0,0,0-1.661-1.661H597.388a1.666,1.666,0,0,0-1.661,1.661h0A1.666,1.666,0,0,0,597.388,138.839Z" transform="translate(-595.727 -135.517)" fill="#fff" fill-rule="evenodd"/>
      </g>
      <g id="Grupo_53432" data-name="Grupo 53432" transform="translate(6.575 1.18)">
        <path id="Trazado_100045" data-name="Trazado 100045" d="M604.121,137.9h4.389a.483.483,0,0,0,.48-.481h0a.481.481,0,0,0-.48-.48h-4.389a.48.48,0,0,0-.479.48h0A.481.481,0,0,0,604.121,137.9Z" transform="translate(-603.642 -136.938)" fill="#ffc7c1" fill-rule="evenodd"/>
      </g>
      <g id="Grupo_53444" data-name="Grupo 53444" transform="translate(1.596 4.14)">
        <g id="Grupo_53433" data-name="Grupo 53433">
          <path id="Trazado_100046" data-name="Trazado 100046" d="M612.718,140.972H597.884a.236.236,0,1,1,0-.471h14.835a.236.236,0,0,1,0,.471Z" transform="translate(-597.648 -140.501)" fill="#fff"/>
        </g>
        <g id="Grupo_53434" data-name="Grupo 53434" transform="translate(0 1.21)">
          <path id="Trazado_100047" data-name="Trazado 100047" d="M612.718,142.429H597.884a.236.236,0,1,1,0-.471h14.835a.236.236,0,0,1,0,.471Z" transform="translate(-597.648 -141.958)" fill="#fff"/>
        </g>
        <g id="Grupo_53435" data-name="Grupo 53435" transform="translate(0 2.421)">
          <path id="Trazado_100048" data-name="Trazado 100048" d="M612.718,143.886H597.884a.236.236,0,1,1,0-.471h14.835a.236.236,0,0,1,0,.471Z" transform="translate(-597.648 -143.415)" fill="#fff"/>
        </g>
        <g id="Grupo_53436" data-name="Grupo 53436" transform="translate(0 3.631)">
          <path id="Trazado_100049" data-name="Trazado 100049" d="M612.718,145.343H597.884a.236.236,0,1,1,0-.471h14.835a.236.236,0,0,1,0,.471Z" transform="translate(-597.648 -144.872)" fill="#fff"/>
        </g>
        <g id="Grupo_53437" data-name="Grupo 53437" transform="translate(0 4.841)">
          <path id="Trazado_100050" data-name="Trazado 100050" d="M612.718,146.8H597.884a.236.236,0,1,1,0-.471h14.835a.236.236,0,0,1,0,.471Z" transform="translate(-597.648 -146.328)" fill="#fff"/>
        </g>
        <g id="Grupo_53438" data-name="Grupo 53438" transform="translate(0 6.052)">
          <path id="Trazado_100051" data-name="Trazado 100051" d="M612.718,148.257H597.884a.236.236,0,1,1,0-.471h14.835a.236.236,0,0,1,0,.471Z" transform="translate(-597.648 -147.786)" fill="#fff"/>
        </g>
        <g id="Grupo_53439" data-name="Grupo 53439" transform="translate(0 7.262)">
          <path id="Trazado_100052" data-name="Trazado 100052" d="M612.718,149.713H597.884a.236.236,0,1,1,0-.471h14.835a.236.236,0,0,1,0,.471Z" transform="translate(-597.648 -149.242)" fill="#fff"/>
        </g>
        <g id="Grupo_53440" data-name="Grupo 53440" transform="translate(0 8.472)">
          <path id="Trazado_100053" data-name="Trazado 100053" d="M612.718,151.17H597.884a.236.236,0,1,1,0-.471h14.835a.236.236,0,0,1,0,.471Z" transform="translate(-597.648 -150.699)" fill="#fff"/>
        </g>
        <g id="Grupo_53441" data-name="Grupo 53441" transform="translate(0 9.683)">
          <path id="Trazado_100054" data-name="Trazado 100054" d="M612.718,152.628H597.884a.236.236,0,1,1,0-.471h14.835a.236.236,0,0,1,0,.471Z" transform="translate(-597.648 -152.157)" fill="#fff"/>
        </g>
        <g id="Grupo_53442" data-name="Grupo 53442" transform="translate(0 10.893)">
          <path id="Trazado_100055" data-name="Trazado 100055" d="M612.718,154.084H597.884a.236.236,0,1,1,0-.471h14.835a.236.236,0,0,1,0,.471Z" transform="translate(-597.648 -153.613)" fill="#fff"/>
        </g>
        <g id="Grupo_53443" data-name="Grupo 53443" transform="translate(0 12.103)">
          <path id="Trazado_100056" data-name="Trazado 100056" d="M612.718,155.541H597.884a.236.236,0,1,1,0-.471h14.835a.236.236,0,0,1,0,.471Z" transform="translate(-597.648 -155.07)" fill="#fff"/>
        </g>
      </g>
    </g>
    <g id="Grupo_53516" data-name="Grupo 53516" transform="translate(152.843 115.971)">
      <g id="Grupo_53446" data-name="Grupo 53446" transform="translate(54.754 35.685)">
        <path id="Trazado_100057" data-name="Trazado 100057" d="M239.068,178.838c.487,11.471,3.185,24.567,10.744,32.064,5.539,5.493,18.265,6.33,21.773-.032,2.55-4.626-2.713-13.85-2.713-13.85-1.186-1.858-18.632-32.431-22.716-25.152C246.156,171.868,242.971,178.6,239.068,178.838Z" transform="translate(-239.068 -170.75)" fill="#575549" fill-rule="evenodd"/>
      </g>
      <g id="Grupo_53447" data-name="Grupo 53447" transform="translate(30.078 166.259)">
        <path id="Trazado_100058" data-name="Trazado 100058" d="M309.8,417.1H209.385c-.52-30.644,9.252-58.553,9.431-62.162s.361-8.408.22-11.543a5.314,5.314,0,0,1,1.613-4.474s12.112-9.458,28.366-10.9c11.513-1.02,25.4,7.065,37.226,2.805.39,1.42.817,2.791,1.284,4.069C291.254,345.1,302.387,356.231,309.8,417.1Z" transform="translate(-209.365 -327.927)" fill="#6c6657" fill-rule="evenodd"/>
      </g>
      <g id="Grupo_53448" data-name="Grupo 53448" transform="translate(50.185 181.383)">
        <path id="Trazado_100059" data-name="Trazado 100059" d="M295.42,346.132a128.888,128.888,0,0,1,8.29,21.031,4.134,4.134,0,0,0-3.2,1.737s-24.14,26.592-27.182,29.339-5.1,0-5.1,0-17.074-16.631-17.663-16.877-.834.54-.834.54a3.817,3.817,0,0,1-1.374,2.158l-7.164,4.317-7.626-1.266S246,371.6,246.69,371.206a97.906,97.906,0,0,1,11.186-2.552Z" transform="translate(-233.568 -346.132)" fill="#575549" fill-rule="evenodd"/>
      </g>
      <g id="Grupo_53449" data-name="Grupo 53449" transform="translate(34.956 183.856)">
        <path id="Trazado_100060" data-name="Trazado 100060" d="M216.8,421.093a.412.412,0,0,1-.41-.379c-1.568-19.424,3.548-41.991,4.685-46.686a34.969,34.969,0,0,1-5.3,2.135.412.412,0,1,1-.245-.787,34.471,34.471,0,0,0,21.4-19.575,165.722,165.722,0,0,1-17-1.156.412.412,0,1,1,.115-.816,218.468,218.468,0,0,0,73.566-4.71.412.412,0,1,1,.2.8,221.032,221.032,0,0,1-56.005,5.9,35.55,35.55,0,0,1-15.753,17.7c-.561,2.227-6.5,26.481-4.837,47.128a.412.412,0,0,1-.377.444Z" transform="translate(-215.237 -349.109)" fill="#575549"/>
      </g>
      <g id="Grupo_53450" data-name="Grupo 53450" transform="translate(117.02 108.52)">
        <path id="Trazado_100061" data-name="Trazado 100061" d="M322.874,259.133l6.739-.709,14.113,8.264s.443,11.433.15,12.315-3.338,5.4-4.121,5.691-7.164.2-7.164.2l-1.791.686s-14.572-7.924-16.535-9.592S322.874,259.133,322.874,259.133Z" transform="translate(-314.021 -258.424)" fill="#ffc4b2" fill-rule="evenodd"/>
      </g>
      <g id="Grupo_53451" data-name="Grupo 53451" transform="translate(117.02 108.52)">
        <path id="Trazado_100062" data-name="Trazado 100062" d="M322.874,259.133l6.739-.709,7.113,4.165L326.9,275.8s-2.65,3.126-1.956,6.55c-4.291-2.4-9.557-5.407-10.682-6.363C312.3,274.318,322.874,259.133,322.874,259.133Z" transform="translate(-314.021 -258.424)" fill="#f2a19b" fill-rule="evenodd"/>
      </g>
      <g id="Grupo_53452" data-name="Grupo 53452" transform="translate(100.528 85.157)">
        <path id="Trazado_100063" data-name="Trazado 100063" d="M294.813,230.3a46.2,46.2,0,0,1,8.02,4.251c4.121,2.748,22.374,16.779,23.256,17.27,0,0,.417.235.441,1.128s-9.419,16.682-15.9,20.411a2.139,2.139,0,0,1-1.962.1c-.834-.539-8.044-5.043-8.044-5.043S291.745,247.5,294.813,230.3Z" transform="translate(-294.168 -230.301)" fill="#fff" fill-rule="evenodd"/>
      </g>
      <g id="Grupo_53453" data-name="Grupo 53453" transform="translate(100.989 98.263)">
        <path id="Trazado_100064" data-name="Trazado 100064" d="M314.851,272.581a19.89,19.89,0,0,1-4.123,3.45,2.139,2.139,0,0,1-1.962.1c-.834-.539-8.044-5.043-8.044-5.043a95.134,95.134,0,0,1-6-22.994l1.146-2.015L309.6,270A5.46,5.46,0,0,0,314.851,272.581Z" transform="translate(-294.723 -246.077)" fill="#f5ebf1" fill-rule="evenodd"/>
      </g>
      <g id="Grupo_53454" data-name="Grupo 53454" transform="translate(21.262 83.639)">
        <path id="Trazado_100065" data-name="Trazado 100065" d="M218.853,322.084a4.6,4.6,0,0,1-1.178-1.766c-.343-1.03-2.061-13.2-5.1-19.182s-8.316-22.1-8.316-22.1l-5.5-44.107c.1-.037.194-.072.289-.105,5.4-1.913,14.756-4.189,14.756-4.189L260.627,229a34.067,34.067,0,0,1,5.669-.518c3.728-.1,12.367,1.514,12.367,1.514s.49,6.82,1.081,14.67,5.593,25.316,6.182,31.007-.492,12.266-5.1,16.092a137.246,137.246,0,0,0,3.623,22.228C255.92,324.262,218.853,322.084,218.853,322.084Z" transform="translate(-198.752 -228.474)" fill="#b1e1da" fill-rule="evenodd"/>
      </g>
      <g id="Grupo_53455" data-name="Grupo 53455" transform="translate(26.201 124.343)">
        <path id="Trazado_100066" data-name="Trazado 100066" d="M219.859,330.377a4.6,4.6,0,0,1-1.178-1.766c-.343-1.03-2.061-13.2-5.1-19.182s-8.316-22.1-8.316-22.1L204.7,282.8l5.81-5.325,8.3,9.42s5.4,5.691,12.953,5.2,41.016-2.845,47.494-3.827,7.252-3.244,7.306-6.723c.174.943.3,1.762.37,2.421.588,5.692-.492,12.266-5.1,16.092l-43.885,13.331s-4.395,1.784-5.593,6.182-.8,10.019,1.269,10.947C225.3,330.7,219.859,330.377,219.859,330.377Z" transform="translate(-204.698 -277.471)" fill="#84d2cd" fill-rule="evenodd"/>
      </g>
      <g id="Grupo_53456" data-name="Grupo 53456" transform="translate(31.586 82.886)">
        <path id="Trazado_100067" data-name="Trazado 100067" d="M211.18,231.684c2.7-.717,4.72-1.207,4.72-1.207l46.83-2.91a39.759,39.759,0,0,0,5.669.758c3.915,10.074,2.1,23.4-5.107,24.43s-12.052-9.98-12.052-9.98.474,14-8.847,14.1-14.131-6.771-20.313-15.308C217.7,235.522,213.348,232.774,211.18,231.684Z" transform="translate(-211.18 -227.567)" fill="#fff" fill-rule="evenodd"/>
      </g>
      <g id="Grupo_53457" data-name="Grupo 53457" transform="translate(62.311 80.158)">
        <path id="Trazado_100068" data-name="Trazado 100068" d="M345.24,224.838a1.476,1.476,0,1,1,2.305,1.843L250.8,347.767a1.477,1.477,0,0,1-2.308-1.843Z" transform="translate(-248.165 -224.284)" fill="#fff" fill-rule="evenodd"/>
      </g>
      <g id="Grupo_53458" data-name="Grupo 53458" transform="translate(40.232 211.442)">
        <path id="Trazado_100069" data-name="Trazado 100069" d="M232.777,382.752a1.479,1.479,0,0,1,2.1,2.086c-.053.052-16.12,15.9-8.076,41.463h-3.093C215.76,399.55,232.721,382.807,232.777,382.752Z" transform="translate(-221.587 -382.316)" fill="#fff" fill-rule="evenodd"/>
      </g>
      <g id="Grupo_53459" data-name="Grupo 53459" transform="translate(27.769 35.195)">
        <path id="Trazado_100070" data-name="Trazado 100070" d="M206.585,178.248c.487,11.471,3.185,24.567,10.744,32.064,5.539,5.493,18.265,6.329,21.774-.032,2.55-4.626-2.714-13.851-2.714-13.851-1.185-1.858-18.631-32.43-22.715-25.151C213.674,171.278,210.489,178.009,206.585,178.248Z" transform="translate(-206.585 -170.16)" fill="#575549" fill-rule="evenodd"/>
      </g>
      <g id="Grupo_53460" data-name="Grupo 53460" transform="translate(36.306 60.213)">
        <path id="Trazado_100071" data-name="Trazado 100071" d="M232.564,200.275l-2.383,1.665s1.01,8.441,1.2,11.876-5.79,8.312-14.523,12.042c13.876,12.695,48.081,19.684,46.83-2.91,0,0-6.084-1.767-6.967-6.672s-1.668-12.168-1.668-12.168Z" transform="translate(-216.862 -200.275)" fill="#ffc4b2" fill-rule="evenodd"/>
      </g>
      <g id="Grupo_53461" data-name="Grupo 53461" transform="translate(49.625 60.213)">
        <path id="Trazado_100072" data-name="Trazado 100072" d="M235.277,200.275l-2.383,1.665s.5,4.2.866,7.883a36,36,0,0,0,11.648,8.255,13.678,13.678,0,0,0,12.014-1.1,17.861,17.861,0,0,0,1.869-1.542c-.822-4.852-1.522-11.326-1.522-11.326Z" transform="translate(-232.894 -200.275)" fill="#ed8c82" fill-rule="evenodd"/>
      </g>
      <g id="Grupo_53462" data-name="Grupo 53462" transform="translate(36.126 41.377)">
        <path id="Trazado_100073" data-name="Trazado 100073" d="M222.627,179.129s-2.564-1.892-3.954-1.465-2.506,3.944-1.82,6.29,5.068,10.084,9.088,5.979S222.627,179.129,222.627,179.129Z" transform="translate(-216.645 -177.601)" fill="#ffc4b2" fill-rule="evenodd"/>
      </g>
      <g id="Grupo_53463" data-name="Grupo 53463" transform="translate(37.255 43.396)">
        <path id="Trazado_100074" data-name="Trazado 100074" d="M225.182,181.852a.564.564,0,0,1,.232.6.285.285,0,0,1-.416.164h0s.243,7.6-1.039,6.672a9.124,9.124,0,0,1-3.431-3.579c-.822-1.772.421-3.809-.253-4.177-.645-.351-1.085.493-1.125.573l0,0v0h0a5.037,5.037,0,0,0-.4,1.514.288.288,0,0,1-.409.266.574.574,0,0,1-.336-.558c0-.008.237-2.962,2.225-3.274C222.131,179.764,225.172,181.846,225.182,181.852Z" transform="translate(-218.004 -180.032)" fill="#ed8c82" fill-rule="evenodd"/>
      </g>
      <g id="Grupo_53464" data-name="Grupo 53464" transform="translate(83.168 35.611)">
        <path id="Trazado_100075" data-name="Trazado 100075" d="M275.636,173.162s1.94-2.527,3.393-2.5,3.5,3.1,3.492,5.539-2.074,11.093-7.075,8.262S275.636,173.162,275.636,173.162Z" transform="translate(-273.271 -170.661)" fill="#ffc4b2" fill-rule="evenodd"/>
      </g>
      <g id="Grupo_53465" data-name="Grupo 53465" transform="translate(83.807 37.871)">
        <path id="Trazado_100076" data-name="Trazado 100076" d="M274.173,176.487a.564.564,0,0,0-.056.644.284.284,0,0,0,.444.043h0s1.874,7.373,2.849,6.123a9.124,9.124,0,0,0,2.305-4.39c.3-1.93-1.462-3.542-.915-4.083.522-.516,1.179.174,1.239.24l0,0v0h0a5.129,5.129,0,0,1,.8,1.344.287.287,0,0,0,.465.141.574.574,0,0,0,.168-.629c0-.007-1.048-2.78-3.045-2.53C276.527,173.638,274.18,176.479,274.173,176.487Z" transform="translate(-274.041 -173.381)" fill="#ed8c82" fill-rule="evenodd"/>
      </g>
      <g id="Grupo_53466" data-name="Grupo 53466" transform="translate(38.708 6.909)">
        <path id="Trazado_100077" data-name="Trazado 100077" d="M241.2,136.259c-29.65,3.173-21.324,25.911-16.937,45.038,2.152,9.387,10.268,16.782,18.329,20.328a13.674,13.674,0,0,0,12.015-1.1c2.746-1.866,9.043-9.043,9.043-9.043a25.983,25.983,0,0,0,4.256-13.465C268.759,158.406,270.934,133.984,241.2,136.259Z" transform="translate(-219.753 -136.111)" fill="#ffc4b2" fill-rule="evenodd"/>
      </g>
      <g id="Grupo_53467" data-name="Grupo 53467" transform="translate(38.708 6.909)">
        <path id="Trazado_100078" data-name="Trazado 100078" d="M241.2,136.259c-25.006,2.677-23,19.269-19.126,35.876a8.355,8.355,0,0,0,1.077-.028c12.391-1.121,13.408-21.294,13.408-21.294l.989-6.336s7.36.2,11.187,2.453,9.558,15.377,9.558,15.377l1.726-4.926a102.879,102.879,0,0,0,5.447-9.819C262.154,140.058,255.231,135.186,241.2,136.259Z" transform="translate(-219.754 -136.111)" fill="#f2a19b" fill-rule="evenodd"/>
      </g>
      <g id="Grupo_53468" data-name="Grupo 53468" transform="translate(52.797 13.962)">
        <path id="Trazado_100079" data-name="Trazado 100079" d="M236.713,150.635c.15.018,2.719,1.614,2.719,1.614a8.639,8.639,0,0,1,5.2-1.045s5.666-2.891,10.958-1.628,2.7-3.6,2.7-3.6l-8.954-1.379-7.78.663Z" transform="translate(-236.713 -144.6)" fill="#575549" fill-rule="evenodd"/>
      </g>
      <g id="Grupo_53477" data-name="Grupo 53477" transform="translate(49.171 33.655)">
        <g id="Grupo_53469" data-name="Grupo 53469" transform="translate(17.104 24.578)">
          <path id="Trazado_100080" data-name="Trazado 100080" d="M253.43,199.3a.544.544,0,0,1,.1-1.082,13.337,13.337,0,0,0,3.561-.308.544.544,0,0,1,.232,1.063A14.661,14.661,0,0,1,253.43,199.3Z" transform="translate(-252.937 -197.892)" fill="#ed8c82" fill-rule="evenodd"/>
        </g>
        <g id="Grupo_53470" data-name="Grupo 53470" transform="translate(13.599 21.408)">
          <path id="Trazado_100081" data-name="Trazado 100081" d="M249.134,196.1a.6.6,0,0,1-.4-.711.536.536,0,0,1,.659-.42,16.7,16.7,0,0,0,9.923-.856.544.544,0,0,1,.7.346.591.591,0,0,1-.315.748A17.8,17.8,0,0,1,249.134,196.1Z" transform="translate(-248.718 -194.076)" fill="#ed8c82" fill-rule="evenodd"/>
        </g>
        <g id="Grupo_53471" data-name="Grupo 53471" transform="translate(18.274 12.711)">
          <path id="Trazado_100082" data-name="Trazado 100082" d="M256.471,186.838c.3-.317-.078-1.539-.4-2.356-.247-.616-.432-.91-.614-.868-.182-.053-.366.232-.609.835-.321.8-.687,2-.386,2.334A1.736,1.736,0,0,0,256.471,186.838Z" transform="translate(-254.345 -183.607)" fill="#f9d4c8" fill-rule="evenodd"/>
        </g>
        <g id="Grupo_53472" data-name="Grupo 53472" transform="translate(18.419 8.476)">
          <path id="Trazado_100083" data-name="Trazado 100083" d="M256.263,178.863a.534.534,0,0,0-1.005.361,64.551,64.551,0,0,1,2.142,6.658c-.071.321-.648.794-.9.972a3.405,3.405,0,0,1-1.505.6.535.535,0,1,0,.128,1.062,4.488,4.488,0,0,0,1.988-.787,3.374,3.374,0,0,0,1.337-1.62C258.6,185.431,256.667,179.88,256.263,178.863Z" transform="translate(-254.52 -178.509)" fill="#ed8c82" fill-rule="evenodd"/>
        </g>
        <g id="Grupo_53473" data-name="Grupo 53473" transform="translate(24.006)">
          <path id="Trazado_100084" data-name="Trazado 100084" d="M263.8,171.02a2.524,2.524,0,0,1-1.391-.1,2.326,2.326,0,0,1-1.16-1.522c.037-.233.392.138,1.674-.388,1.259-.517,5.907-1.768,9.048,1.227.541.516.115.917-.572.705A9.756,9.756,0,0,0,263.8,171.02Z" transform="translate(-261.245 -168.306)" fill="#575549" fill-rule="evenodd"/>
        </g>
        <g id="Grupo_53474" data-name="Grupo 53474" transform="translate(25.119 6.398)">
          <path id="Trazado_100085" data-name="Trazado 100085" d="M265.174,179.727a2.265,2.265,0,0,1-1.361-.047,2.539,2.539,0,0,1-1.227-1.573c.022-.251.392.13,1.607-.485a8.793,8.793,0,0,1,7.222-.232,1.431,1.431,0,0,0,.709-.985.484.484,0,0,1,.953.171,2.293,2.293,0,0,1-.758,1.347l.07.049a.743.743,0,0,0,.474-.3.486.486,0,1,1,.775.585,1.883,1.883,0,0,1-.431.421c.363.464-.013.82-.638.64A8.771,8.771,0,0,0,265.174,179.727Z" transform="translate(-262.585 -176.007)" fill="#575549" fill-rule="evenodd"/>
        </g>
        <g id="Grupo_53475" data-name="Grupo 53475" transform="translate(0 2.268)">
          <path id="Trazado_100086" data-name="Trazado 100086" d="M241.306,173.582a2.709,2.709,0,0,0,1.458-.311,2.51,2.51,0,0,0,1.015-1.781c-.072-.243-.4.2-1.826-.165-1.4-.362-6.5-1-9.4,2.627-.5.627,0,.989.705.663A10.43,10.43,0,0,1,241.306,173.582Z" transform="translate(-232.348 -171.037)" fill="#575549" fill-rule="evenodd"/>
        </g>
        <g id="Grupo_53476" data-name="Grupo 53476" transform="translate(0.743 9.083)">
          <path id="Trazado_100087" data-name="Trazado 100087" d="M241.987,181.829a2.26,2.26,0,0,0,1.333-.278,2.525,2.525,0,0,0,.942-1.756c-.064-.243-.363.194-1.665-.206a8.793,8.793,0,0,0-7.158.994,1.433,1.433,0,0,1-.866-.851.484.484,0,1,0-.91.331,2.3,2.3,0,0,0,.975,1.2l-.06.061a.745.745,0,0,1-.518-.214.485.485,0,1,0-.664.708,1.906,1.906,0,0,0,.5.342c-.279.519.153.806.738.523A8.765,8.765,0,0,1,241.987,181.829Z" transform="translate(-233.243 -179.239)" fill="#575549" fill-rule="evenodd"/>
        </g>
      </g>
      <g id="Grupo_53478" data-name="Grupo 53478" transform="translate(27.663)">
        <path id="Trazado_100088" data-name="Trazado 100088" d="M220.644,173.918s3.188-2.695,1.362-9.58c0,0,11.046.189,12.3-14.933,0,0,1.151-3.98,5.2-1.045,2.691-6.936,7.908-7.085,11.126-.44,7.6,15.7,12.336,32.609,7.64,49.837,0,0-1.3,3.517,2.7,4.155-3.49,12.589,32.347,19.145,16.44-31.072-8.211-31.237-15.88-38.955-30.9-42.335-16.415-3.693-22.995,8.214-22.995,8.214-15.9,2.674-17.58,19.674-16.958,34.359a90.028,90.028,0,0,0,9.3-1.279C217.9,166.169,220.644,173.918,220.644,173.918Z" transform="translate(-206.457 -127.794)" fill="#6c6657" fill-rule="evenodd"/>
      </g>
      <g id="Grupo_53479" data-name="Grupo 53479" transform="translate(44.727 2.909)">
        <path id="Trazado_100089" data-name="Trazado 100089" d="M233.15,131.3A18.164,18.164,0,0,0,227,137.311s4.56-1.3,7.925.859C234.923,138.17,233.067,134.1,233.15,131.3Z" transform="translate(-226.998 -131.296)" fill="#575549" fill-rule="evenodd"/>
      </g>
      <g id="Grupo_53480" data-name="Grupo 53480" transform="translate(32.785 193.528)">
        <path id="Trazado_100090" data-name="Trazado 100090" d="M215.91,368.777a12.144,12.144,0,0,0,4.925-.062c3.36-.539,7.7-1.693,9.077-1.742s8.585-1.324,9.934-2.257,4.367-3.531,4.833-3.875,1.522.27.786,2.649.709,12.51.709,12.51l-.734.3-1.571,4.415a6.538,6.538,0,0,1-2.355,2.944c-1.521.834-7.213,4.269-7.213,4.269s-3.188,2.206-6.182,1.618-14.761-7.657-15.429-8.182a20.673,20.673,0,0,1,3.219-12.582Zm21.585,1.265s-2.9,1.567-3.659,2.082l3.042,1.988S237.933,370.53,237.495,370.042Z" transform="translate(-212.624 -360.752)" fill="#ffc4b2" fill-rule="evenodd"/>
      </g>
      <g id="Grupo_53481" data-name="Grupo 53481" transform="translate(27.663 24.63)">
        <path id="Trazado_100091" data-name="Trazado 100091" d="M220.915,180.292s2.883-1.544,1.769-7.817c0,0,8.332-2.54,11.19-15.032-.17.268-10.764,14.787-27.093,6.764a85.867,85.867,0,0,0-.217,11.89,90.032,90.032,0,0,0,9.3-1.279C217.9,171.187,220.915,180.292,220.915,180.292Z" transform="translate(-206.458 -157.442)" fill="#575549" fill-rule="evenodd"/>
      </g>
      <g id="Grupo_53482" data-name="Grupo 53482" transform="translate(0.41 124.747)">
        <path id="Trazado_100092" data-name="Trazado 100092" d="M198.492,277.957l3.5,10.99L194.809,325.2a4.884,4.884,0,0,0,.079,2.825c.533,1.244,3.583,9.615,6.184,14.815s6.231,11.139,8.241,11.923l-3.219,12.582s-5.307-4.122-11.663-9.578-18.4-20.6-20.253-28.141,1.6-22.345,4.238-44.233c0,0,1.655-6.776,3.127-6.972S198.492,277.957,198.492,277.957Z" transform="translate(-173.652 -277.957)" fill="#ffc4b2" fill-rule="evenodd"/>
      </g>
      <g id="Grupo_53483" data-name="Grupo 53483" transform="translate(4.968 124.747)">
        <path id="Trazado_100093" data-name="Trazado 100093" d="M199.421,277.957l3.5,10.99-1.124,5.681c-7.86-9.919-18.855-8.441-22.654-7.554.068-.556.138-1.114.206-1.679,0,0,.1-.407.271-1.024,1.1-1.858,2.492-4.206,3.533-6C186.5,278.182,199.421,277.957,199.421,277.957Z" transform="translate(-179.139 -277.957)" fill="#f2a19b" fill-rule="evenodd"/>
      </g>
      <g id="Grupo_53484" data-name="Grupo 53484" transform="translate(4.346 89.514)">
        <path id="Trazado_100094" data-name="Trazado 100094" d="M196.975,235.546a14.705,14.705,0,0,1,5.335,6.386c2.55,5.691,5.495,28.947,2.453,40.82a1.048,1.048,0,0,1-.589.37,23.094,23.094,0,0,0-12.584-6.748c-8.145-1.521-12.372,1.843-12.372,1.843a1.962,1.962,0,0,1-.826-1.5c.049-.882.785-6.966.785-12.854,0-1.171.044-2.954.231-5.072,1.626-14.825,10.791-20.862,16.186-22.775C196.031,235.862,196.494,235.7,196.975,235.546Z" transform="translate(-178.391 -235.546)" fill="#fff" fill-rule="evenodd"/>
      </g>
      <g id="Grupo_53485" data-name="Grupo 53485" transform="translate(57.409 72.27)">
        <path id="Trazado_100095" data-name="Trazado 100095" d="M350.785,214.788s-6.074,3.231-8.135,6.273-14.915,43.076-17.859,48.179-74.135,67.8-76.49,70.405-5.594,5.348-5.79,5.691-.392,1.079-.1,1.374,9.126,6.329,13.493,10.107,10.255,11.677,10.844,12.118a1.842,1.842,0,0,0,2.011.049c.835-.343,39.475-33.578,48.488-41.712s35.214-41.744,35.729-42.21,1.715-1.544,2.329-1.544S350.785,214.788,350.785,214.788Z" transform="translate(-242.264 -214.788)" fill="#fff" fill-rule="evenodd"/>
      </g>
      <g id="Grupo_53486" data-name="Grupo 53486" transform="translate(116.912 126.722)">
        <path id="Trazado_100096" data-name="Trazado 100096" d="M336.915,280.334c-1.052,1.822-10.808,10.992-23.025,22.144,7.4,20.326,9.431,29.259,10.437,29.349,1.079.1,1.569-1.668,1.569-1.668Z" transform="translate(-313.89 -280.334)" fill="#f5ebf1" fill-rule="evenodd"/>
      </g>
      <g id="Grupo_53487" data-name="Grupo 53487" transform="translate(195.661 219.306)">
        <rect id="Rectángulo_5078" data-name="Rectángulo 5078" width="23.158" height="36.122" fill="#575549"/>
      </g>
      <g id="Grupo_53488" data-name="Grupo 53488" transform="translate(159.621 38.497)">
        <path id="Trazado_100097" data-name="Trazado 100097" d="M398.351,174.134s1.078,16.258,1.128,18.418-4.221,5.495-9.274,7.752-17.713,7.015-18.6,7.6-1.373,10.107-1.57,14.719-3.73,22.765-4.611,28.161,2.845,19.625,10.108,25.709a88.814,88.814,0,0,1,.107,27.326c-2.268,15.259-10.958,44.294-9.066,71.971,0,0,49.582,10.4,97.663,0,0,0,5.1-27.863-2.552-52s-10.4-30.224-10.4-41.606,7.065-23.942,9.028-30.615,9.813-37.288,6.673-45.531a7.694,7.694,0,0,0-3.778-3.974c-2.8-1.275-24.924-6.624-27.868-8.193s-3.432-5.575-3.825-19.738Z" transform="translate(-365.301 -174.134)" fill="#6c6657" fill-rule="evenodd"/>
      </g>
      <g id="Grupo_53489" data-name="Grupo 53489" transform="translate(171.805 102.459)">
        <path id="Trazado_100098" data-name="Trazado 100098" d="M429.915,251.128l-13.633,4.3s-4.913,9.441-12.174,9.441h-24.14L391.073,295s30.6-.4,30.6-4.125S429.915,251.128,429.915,251.128Z" transform="translate(-379.968 -251.128)" fill="#575549" fill-rule="evenodd"/>
      </g>
      <g id="Grupo_53490" data-name="Grupo 53490" transform="translate(184.507 56.79)">
        <path id="Trazado_100099" data-name="Trazado 100099" d="M473.08,354.944a100.018,100.018,0,0,0-4.183-27.527c-7.654-24.139-12.54-30.123-12.54-41.5s7.065-23.942,9.028-30.615,9.813-37.288,6.673-45.53a7.694,7.694,0,0,0-3.778-3.974c-2.8-1.275-24.924-6.624-27.868-8.193a4.268,4.268,0,0,1-1.593-1.445h0s-18.378,46.041-19.949,49.966-22.176,28.653-22.764,32.185c-.207,1.242-.753,16.484-.847,36.052,7.357,10.331,15.6,22.827,15.6,22.827s8.224,22.071,9.205,24.132,3.534,3.826,8.341,3.434,41-7.265,42.567-7.854A3.8,3.8,0,0,0,473.08,354.944Z" transform="translate(-395.258 -196.154)" fill="#fff" fill-rule="evenodd"/>
      </g>
      <g id="Grupo_53491" data-name="Grupo 53491" transform="translate(206.535 112.076)">
        <path id="Trazado_100100" data-name="Trazado 100100" d="M473.666,339.581c-.092-.3-.184-.6-.28-.9-7.654-24.139-12.54-30.123-12.54-41.5,0-10.4,5.9-21.789,8.415-28.766C466.94,265.29,465,262.7,465,262.7l-14.523,25.565s-1.178,4.71-11.382,7.458S423,298.475,423,298.475s-1.227-.2-1.227.882,1.177,1.129,2.992,1.619,35.292,5.607,43.484,28.462C470.392,335.415,472.18,338.436,473.666,339.581Z" transform="translate(-421.774 -262.704)" fill="#f5ebf1" fill-rule="evenodd"/>
      </g>
      <g id="Grupo_53492" data-name="Grupo 53492" transform="translate(192.671 36.711)">
        <path id="Trazado_100101" data-name="Trazado 100101" d="M421.667,175.555c9.134,0,16.583-.8,16.583-1.784s-7.449-1.786-16.583-1.786-16.582.8-16.582,1.786S412.533,175.555,421.667,175.555Z" transform="translate(-405.085 -171.984)" fill="#575549" fill-rule="evenodd"/>
      </g>
      <g id="Grupo_53493" data-name="Grupo 53493" transform="translate(159.621 57.618)">
        <path id="Trazado_100102" data-name="Trazado 100102" d="M399.358,197.151c-.722,2.133-4.621,5.023-9.152,7.048-5.054,2.257-17.713,7.015-18.6,7.6s-1.373,10.107-1.57,14.719-3.73,22.765-4.611,28.161,2.845,19.625,10.108,25.709c0,0,2.043,14.3.107,27.326s-8.184,28.053-10.2,47.261a3.138,3.138,0,0,0,1.564,2.473c1.449.773,24.338,7.173,27.773,7.369s4.43-.2,5.5-2.453,5.082-15,5.534-24.032c-.567-24.026-2.034-48.578-4.376-54.66-4.906-12.757-14.717-23.158-14.325-30.027s6.673-36.013,9.029-43.47A107.827,107.827,0,0,0,399.358,197.151Z" transform="translate(-365.301 -197.151)" fill="#fff" fill-rule="evenodd"/>
      </g>
      <g id="Grupo_53494" data-name="Grupo 53494" transform="translate(169.856 140.859)">
        <path id="Trazado_100103" data-name="Trazado 100103" d="M377.622,297.352a116.9,116.9,0,0,1,.935,13.783c7.246-4.253,12.558-6.267,12.66-7.114.121-1.005-.541-1.2-.541-1.2Z" transform="translate(-377.622 -297.352)" fill="#f5ebf1" fill-rule="evenodd"/>
      </g>
      <g id="Grupo_53495" data-name="Grupo 53495" transform="translate(247.013 66.428)">
        <path id="Trazado_100104" data-name="Trazado 100104" d="M481.015,207.756s7.024,2.767,10.85,12.579,7.252,71.282,9.316,94.271.694,73.622.694,73.622-.123.737-.492.737a56.054,56.054,0,0,1-12.584-2.013c-5.593-1.717-14.473-6.722-17.27-7.409,0,0-1.049-.7-1.031-1.325s2.719-44.6,2.943-55.735,1.276-29.437.2-44.352-.686-21.392-.393-24.728,5.446-30.91,6.427-36.8S481.015,207.756,481.015,207.756Z" transform="translate(-470.499 -207.756)" fill="#fff" fill-rule="evenodd"/>
      </g>
      <g id="Grupo_53496" data-name="Grupo 53496" transform="translate(254.947 181.211)">
        <path id="Trazado_100105" data-name="Trazado 100105" d="M503.335,345.925c.966,19.172.543,47.589.292,59.781l-23.578-8.933Z" transform="translate(-480.049 -345.925)" fill="#f5ebf1" fill-rule="evenodd"/>
      </g>
      <g id="Grupo_53497" data-name="Grupo 53497" transform="translate(159.211 57.206)">
        <path id="Trazado_100106" data-name="Trazado 100106" d="M400.193,362.7a.416.416,0,0,1-.175-.039.412.412,0,0,1-.2-.548c1.161-2.459,5.062-15.2,5.5-23.877-.524-22.2-1.939-48.167-4.338-54.464-3.006-5.342-8.253-12.032-12.886-17.934-4.3-5.48-7.7-9.81-8.047-11.5-.687-3.337-1.072-34.284-1.088-35.6a.411.411,0,0,1,.179-.344l4.027-2.769-3.736-5.187a.411.411,0,0,1,.1-.581l6.568-4.475a.412.412,0,1,1,.464.68l-6.219,4.237,3.5,4.859,12.907-8.871c1.176-4.277,1.848-7.767,2.118-9.285a.412.412,0,1,1,.812.144,108.355,108.355,0,0,1-3.232,13.078c-2.252,7.13-8.611,36.366-9.011,43.371-.213,3.725,2.78,8.693,6.245,14.446a99.576,99.576,0,0,1,8.052,15.4l0,.011c3.073,8,4.145,43.96,4.4,54.792-.469,9.419-4.607,22.17-5.573,24.218A.414.414,0,0,1,400.193,362.7ZM379.784,218.942c.037,2.847.427,32.107,1.069,35.223.309,1.5,3.821,5.976,7.888,11.159,3.34,4.258,7,8.923,9.924,13.215-1.785-3.6-3.821-6.98-5.688-10.079-3.536-5.87-6.589-10.939-6.362-14.918.4-7.045,6.787-36.414,9.048-43.571.263-.834.509-1.653.739-2.45Zm73.979,138.118h-.024a.412.412,0,0,1-.388-.434c1.088-18.971,1.691-31.093,1.79-36.028.051-2.537.145-5.446.247-8.6.348-10.789.783-24.216-.05-35.714-1.041-14.39-.722-21.042-.392-24.793.2-2.214,2.483-14.854,4.321-25.01.953-5.262,1.775-9.807,2.11-11.819a.412.412,0,1,1,.813.135c-.336,2.018-1.16,6.565-2.113,11.831-1.835,10.14-4.119,22.759-4.311,24.936-.327,3.723-.644,10.33.393,24.661.835,11.541.4,24.992.052,35.8-.1,3.152-.2,6.057-.247,8.59-.1,4.946-.7,17.078-1.791,36.059A.412.412,0,0,1,453.763,357.061Zm-78.311-76.34a.41.41,0,0,1-.264-.1c-7.5-6.286-11.134-20.684-10.25-26.091.247-1.507.7-4.016,1.227-6.921,1.367-7.551,3.24-17.893,3.38-21.191a.427.427,0,0,1,.429-.395.412.412,0,0,1,.395.43c-.143,3.355-2.021,13.729-3.393,21.3-.526,2.9-.979,5.407-1.225,6.908-.837,5.111,2.8,19.321,9.966,25.327a.412.412,0,0,1-.265.728Z" transform="translate(-364.808 -196.656)" fill="#e6dde0"/>
      </g>
      <g id="Grupo_53498" data-name="Grupo 53498" transform="translate(191.683 61.74)">
        <path id="Trazado_100107" data-name="Trazado 100107" d="M404.308,277.1a.412.412,0,0,1-.238-.749c.265-.185,26.5-18.57,28.981-21.819,2.368-3.1,18.773-29.746,20.777-33l-18.091-13.258a.412.412,0,1,1,.487-.665l12.607,9.24,9.048-7.975-3.444-6.142a.412.412,0,1,1,.719-.4l3.607,6.432a.413.413,0,0,1-.086.511l-9.162,8.076,5.11,3.745a.412.412,0,0,1,.107.547c-.754,1.227-18.487,30.083-21.023,33.4-2.56,3.348-28.078,21.233-29.162,21.992A.409.409,0,0,1,404.308,277.1Z" transform="translate(-403.895 -202.113)" fill="#e6dde0"/>
      </g>
      <g id="Grupo_53499" data-name="Grupo 53499" transform="translate(47.963 204.606)">
        <path id="Trazado_100108" data-name="Trazado 100108" d="M234.818,387.383a.295.295,0,0,1-.091-.575c.259-.084,6.364-2.069,8.029-2.412a3.626,3.626,0,0,0,2.257-1.575L246.332,378a.295.295,0,0,1,.568.157l-1.347,4.888a4.137,4.137,0,0,1-2.678,1.927c-1.632.336-7.9,2.374-7.966,2.395A.287.287,0,0,1,234.818,387.383Zm-3.631-2.944a.295.295,0,0,1-.046-.586c.083-.012,8.357-1.327,10.148-1.666,1.593-.3,1.967-2.531,1.971-2.554l.469-3.465a.294.294,0,0,1,.583.079l-.47,3.472c-.018.115-.448,2.668-2.443,3.046-1.8.341-10.083,1.656-10.166,1.669A.292.292,0,0,1,231.187,384.439Zm3.728-4.955a.3.3,0,0,1-.283-.216c0-.008-.347-1.1-2.312-2.078l-.552.3a.294.294,0,0,1-.278-.518l5.3-2.845a.294.294,0,1,1,.278.518l-4.12,2.213a4.976,4.976,0,0,1,2.155,2.014l4.135-.556.446-2.006a.294.294,0,0,1,.575.128l-.49,2.206a.294.294,0,0,1-.248.228l-4.563.614Z" transform="translate(-230.893 -374.087)" fill="#ed8c82"/>
      </g>
      <g id="Grupo_53510" data-name="Grupo 53510" transform="translate(159.308 62.993)">
        <g id="Grupo_53500" data-name="Grupo 53500" transform="translate(19.662 1.442)">
          <path id="Trazado_100109" data-name="Trazado 100109" d="M388.592,205.357s4.912.174,5.612.334.448,2.232-.876,2.609a19.645,19.645,0,0,1-4.423.2Z" transform="translate(-388.592 -205.357)" fill="#ffc4b2" fill-rule="evenodd"/>
        </g>
        <g id="Grupo_53501" data-name="Grupo 53501" transform="translate(15.202 1.174)">
          <path id="Trazado_100110" data-name="Trazado 100110" d="M383.223,205.413s3.867-.343,4.838-.378,1.875,2.049,2.643,3.594a32.477,32.477,0,0,0,1.908,3,1.323,1.323,0,0,1-.727,1.788c-1.047.617-2.455-.934-3.325-2.211s-1.955-2.753-1.955-2.753l-.853.518Z" transform="translate(-383.223 -205.035)" fill="#ffc4b2" fill-rule="evenodd"/>
        </g>
        <g id="Grupo_53502" data-name="Grupo 53502" transform="translate(8.888)">
          <path id="Trazado_100111" data-name="Trazado 100111" d="M375.623,206.554s3.025-2.35,3.259-2.505a1.763,1.763,0,0,1,2.211-.069c1.161.768,2.7,1.743,3.129,3.189s2.049,6.577,2.049,6.577,1.426.67,1.749,1.72-1.709,2.916-3.53,1.519-3.547-6.281-3.547-6.281l-1.136.577Z" transform="translate(-375.623 -203.621)" fill="#ffc4b2" fill-rule="evenodd"/>
        </g>
        <g id="Grupo_53503" data-name="Grupo 53503" transform="translate(3.287 2.18)">
          <path id="Trazado_100112" data-name="Trazado 100112" d="M368.881,212.63s1.824-3.032,2.664-4.223,1.491-2.731,3.757-1.948,2.233.724,3.046,3.265,1.827,5.973,1.827,5.973a6.332,6.332,0,0,1,1.676,1.491,1.7,1.7,0,0,1-1.313,2.178c-1.185.3-3.4-1.533-3.966-2.576S375,213.4,375,213.4l-2.285.94Z" transform="translate(-368.881 -206.245)" fill="#ffc4b2" fill-rule="evenodd"/>
        </g>
        <g id="Grupo_53504" data-name="Grupo 53504" transform="translate(0 7.595)">
          <path id="Trazado_100113" data-name="Trazado 100113" d="M364.924,219.012s.557-3.953,1.215-5.023a2.2,2.2,0,0,1,2.7-1.087,22.763,22.763,0,0,1,4.149,2.688,2.731,2.731,0,0,1-1.22,3.816c-1.8.665-3.974-1.068-5.171-1.87Z" transform="translate(-364.924 -212.763)" fill="#ffc4b2" fill-rule="evenodd"/>
        </g>
        <g id="Grupo_53505" data-name="Grupo 53505" transform="translate(0.966 3.102)">
          <path id="Trazado_100114" data-name="Trazado 100114" d="M367.125,216.458a.369.369,0,1,1-.664.322,3.12,3.12,0,0,1-.272-2.145.37.37,0,0,1,.7.237,2.41,2.41,0,0,0,.235,1.586Zm16.927-7.743a.369.369,0,0,1-.694.25l-.272-.761a.37.37,0,0,1,.7-.249l.271.76Zm-4.525,6.844a.37.37,0,1,1,.349.652l-.766.407a.37.37,0,0,1-.351-.652l.768-.407Zm4.964-1.511a.37.37,0,1,1,.332.66l-1.222.617a.371.371,0,1,1-.333-.662l1.223-.616Zm-4.821-2.85a.369.369,0,0,1-.684.28l-1.47-3.613a.369.369,0,1,1,.683-.28l1.47,3.613Zm-5.2,1.39a.232.232,0,0,1,.017.042c.208.468.37.8.372.8a.37.37,0,0,1-.667.32s-.126-.256-.3-.637l-.9-.052a.37.37,0,1,1,.042-.739l.528.031a11.439,11.439,0,0,1-.6-1.784.37.37,0,1,1,.723-.159A13.065,13.065,0,0,0,374.467,212.587Z" transform="translate(-366.087 -207.355)" fill="#f2a19b" fill-rule="evenodd"/>
        </g>
        <g id="Grupo_53506" data-name="Grupo 53506" transform="translate(3.815 6.415)">
          <path id="Trazado_100115" data-name="Trazado 100115" d="M370.308,211.343c1.2.327,2.921.793,3.988,1.064.084.222.172.441.26.646.055.134.11.26.16.378.218.488.387.832.387.832l-1.773.73c-.327-.249-.76-.559-1.224-.874a16.133,16.133,0,0,0-2.489-1.459c-.033-.013-.067-.025-.1-.036C369.742,212.256,370.019,211.8,370.308,211.343Z" transform="translate(-369.516 -211.343)" fill="#f2a19b" fill-rule="evenodd"/>
        </g>
        <g id="Grupo_53507" data-name="Grupo 53507" transform="translate(9.622 1.764)">
          <path id="Trazado_100116" data-name="Trazado 100116" d="M377.281,205.745l2.342,1.706,1.023,2.518.444,1.095-.865.44c-.124-.4-.249-.8-.371-1.19l-.214-.676c-.813-2.54-.782-2.482-3.046-3.265l-.087-.029C376.74,206.165,377.008,205.957,377.281,205.745Z" transform="translate(-376.506 -205.745)" fill="#f2a19b" fill-rule="evenodd"/>
        </g>
        <g id="Grupo_53508" data-name="Grupo 53508" transform="translate(15.949 1.414)">
          <path id="Trazado_100117" data-name="Trazado 100117" d="M384.989,205.323l.963,1.551.534.861.056.156.216.606-.347.211-.312.188c-.077-.257-.152-.5-.22-.715-.088-.291-.164-.538-.218-.723a4.417,4.417,0,0,0-1.538-2.061Z" transform="translate(-384.123 -205.323)" fill="#f2a19b" fill-rule="evenodd"/>
        </g>
        <g id="Grupo_53509" data-name="Grupo 53509" transform="translate(20.732 1.483)">
          <path id="Trazado_100118" data-name="Trazado 100118" d="M391.278,206.267l2.231,2.049a8.614,8.614,0,0,1-1.76.211c-.322-.658-.67-1.395-1.036-2.015a4.716,4.716,0,0,0-.834-1.107l.482.021Z" transform="translate(-389.88 -205.406)" fill="#f2a19b" fill-rule="evenodd"/>
        </g>
      </g>
      <g id="Grupo_53511" data-name="Grupo 53511" transform="translate(54.558 213.115)">
        <path id="Trazado_100119" data-name="Trazado 100119" d="M242,384.329c-.407,2.711-.983,10.992,5.879,16.512l.627.505c7.54,6.053,14.78,11.868,15.941,25.3h-3c-1.212-12.083-7.865-17.429-14.791-22.99l-.627-.505c-7.337-5.9-7.461-14.424-7.065-18.306Z" transform="translate(-238.833 -384.329)" fill="#fff" fill-rule="evenodd"/>
      </g>
      <g id="Grupo_53512" data-name="Grupo 53512" transform="translate(191.092 148.533)">
        <path id="Trazado_100120" data-name="Trazado 100120" d="M404.914,310.515a1.978,1.978,0,1,0-1.73-1.963A1.861,1.861,0,0,0,404.914,310.515Z" transform="translate(-403.184 -306.59)" fill="#e6dde0" fill-rule="evenodd"/>
      </g>
      <g id="Grupo_53513" data-name="Grupo 53513" transform="translate(191.584 178.266)">
        <path id="Trazado_100121" data-name="Trazado 100121" d="M405.5,346.3a1.978,1.978,0,1,0-1.729-1.962A1.861,1.861,0,0,0,405.5,346.3Z" transform="translate(-403.776 -342.38)" fill="#e6dde0" fill-rule="evenodd"/>
      </g>
      <g id="Grupo_53514" data-name="Grupo 53514" transform="translate(30.604 28.699)">
        <path id="Trazado_100122" data-name="Trazado 100122" d="M226.8,216.5a.486.486,0,0,1-.06,0C210.008,214.079,210,191.773,210,191.549a.412.412,0,0,1,.825.007c0,.218.017,21.81,16.033,24.12a.412.412,0,0,1-.058.82Zm-4.516-40.771a.412.412,0,0,1-.08-.816c7.537-1.5,9.566-12.123,9.585-12.23a.412.412,0,1,1,.811.148c-.084.46-2.155,11.284-10.236,12.89A.38.38,0,0,1,222.282,175.724Z" transform="translate(-209.998 -162.34)" fill="#575549"/>
      </g>
      <g id="Grupo_53515" data-name="Grupo 53515" transform="translate(0 51.683)">
        <path id="Trazado_100123" data-name="Trazado 100123" d="M206.01,352.872a.409.409,0,0,1-.253-.087c-.053-.042-5.387-4.19-11.678-9.589-6.555-5.627-18.545-20.888-20.385-28.355-1.313-5.326-.02-14.167,1.77-26.4.778-5.311,1.658-11.331,2.459-17.978a.407.407,0,0,1,.459-.36.412.412,0,0,1,.359.459c-.8,6.657-1.684,12.682-2.461,18-1.776,12.143-3.06,20.916-1.785,26.086,1.805,7.328,13.643,22.365,20.121,27.926,6.275,5.385,11.594,9.523,11.647,9.564a.412.412,0,0,1-.253.738Zm33.477-140.808a12.48,12.48,0,0,1-4.945-.939c-7.1-3.124-16.224-10.4-18.565-20.613a.412.412,0,0,1,.8-.184c2.274,9.92,11.168,17,18.094,20.043a13.365,13.365,0,0,0,8.991.19.412.412,0,1,1,.255.783A15.093,15.093,0,0,1,239.487,212.063Z" transform="translate(-173.159 -190.007)" fill="#fff"/>
      </g>
    </g>
    <g id="Grupo_53517" data-name="Grupo 53517" transform="translate(456.628 250.996)">
      <path id="Trazado_100124" data-name="Trazado 100124" d="M631.53,316.142h-90.8a1.9,1.9,0,0,1-1.895-1.893V292.223a1.9,1.9,0,0,1,1.895-1.893h90.8a1.9,1.9,0,0,1,1.895,1.893v22.026A1.9,1.9,0,0,1,631.53,316.142Zm-90.8-24.988a1.07,1.07,0,0,0-1.07,1.069v22.026a1.07,1.07,0,0,0,1.07,1.069h90.8a1.071,1.071,0,0,0,1.071-1.069V292.223a1.071,1.071,0,0,0-1.071-1.069ZM599.758,308.8H567.224a.412.412,0,0,1,0-.824h32.534a.412.412,0,1,1,0,.824Zm26.286-5.149h-58.82a.412.412,0,0,1,0-.824h58.82a.412.412,0,0,1,0,.824Zm0-5.15h-58.82a.412.412,0,0,1,0-.824h58.82a.412.412,0,0,1,0,.824Z" transform="translate(-538.838 -290.33)" fill="#ffd54f"/>
    </g>
    <g id="Grupo_53533" data-name="Grupo 53533" transform="translate(446.398 295.935)">
      <g id="Grupo_53518" data-name="Grupo 53518" transform="translate(15.211 51.105)">
        <path id="Trazado_100125" data-name="Trazado 100125" d="M546.061,405.942h0a1.23,1.23,0,0,1,1.227,1.227v11a1.23,1.23,0,0,1-1.227,1.227h0a1.23,1.23,0,0,1-1.227-1.227v-11A1.23,1.23,0,0,1,546.061,405.942Z" transform="translate(-544.834 -405.942)" fill="#575549" fill-rule="evenodd"/>
      </g>
      <g id="Grupo_53519" data-name="Grupo 53519" transform="translate(11.656 22.841)">
        <path id="Rectángulo_5079" data-name="Rectángulo 5079" d="M1.947,0H7.614A1.949,1.949,0,0,1,9.563,1.949v29.72a1.948,1.948,0,0,1-1.948,1.948H1.947A1.947,1.947,0,0,1,0,31.67V1.947A1.947,1.947,0,0,1,1.947,0Z" fill="#895cd8"/>
      </g>
      <g id="Grupo_53520" data-name="Grupo 53520" transform="translate(109.621 26.791)">
        <path id="Rectángulo_5080" data-name="Rectángulo 5080" d="M.911,0H13.587A.912.912,0,0,1,14.5.912V3.567a.912.912,0,0,1-.912.912H.912A.912.912,0,0,1,0,3.567V.911A.911.911,0,0,1,.911,0Z" fill="#fff"/>
      </g>
      <g id="Grupo_53521" data-name="Grupo 53521" transform="translate(120.042 10.118)">
        <path id="Rectángulo_5081" data-name="Rectángulo 5081" d="M1.134,0h3.3A1.136,1.136,0,0,1,5.572,1.136V36.693a1.134,1.134,0,0,1-1.134,1.134h-3.3A1.136,1.136,0,0,1,0,36.691V1.134A1.134,1.134,0,0,1,1.134,0Z" fill="#895cd8"/>
      </g>
      <g id="Grupo_53522" data-name="Grupo 53522" transform="translate(104.632 22.184)">
        <path id="Trazado_100126" data-name="Trazado 100126" d="M659.321,384.822a6.847,6.847,0,1,0-6.847-6.846A6.861,6.861,0,0,0,659.321,384.822Z" transform="translate(-652.474 -371.129)" fill="#895cd8" fill-rule="evenodd"/>
      </g>
      <g id="Grupo_53523" data-name="Grupo 53523" transform="translate(96.98 15.728)">
        <path id="Rectángulo_5082" data-name="Rectángulo 5082" d="M2.953,0h8.593A2.953,2.953,0,0,1,14.5,2.953v20.7a2.953,2.953,0,0,1-2.953,2.953H2.954A2.954,2.954,0,0,1,0,23.652V2.953A2.953,2.953,0,0,1,2.953,0Z" fill="#575549"/>
      </g>
      <g id="Grupo_53524" data-name="Grupo 53524" transform="translate(0 15.571)">
        <path id="Trazado_100127" data-name="Trazado 100127" d="M533.37,376.861a6.847,6.847,0,1,0-6.846-6.846A6.859,6.859,0,0,0,533.37,376.861Z" transform="translate(-526.524 -363.168)" fill="#895cd8" fill-rule="evenodd"/>
      </g>
      <g id="Grupo_53525" data-name="Grupo 53525" transform="translate(6.846 9.115)">
        <path id="Rectángulo_5083" data-name="Rectángulo 5083" d="M2.954,0h8.591A2.954,2.954,0,0,1,14.5,2.954v20.7a2.954,2.954,0,0,1-2.954,2.954H2.952A2.952,2.952,0,0,1,0,23.654V2.954A2.954,2.954,0,0,1,2.954,0Z" fill="#575549"/>
      </g>
      <g id="Grupo_53526" data-name="Grupo 53526" transform="translate(26.353 0)">
        <path id="Trazado_100128" data-name="Trazado 100128" d="M598.058,377.709a9.291,9.291,0,0,1,9.263,9.264v28.72h33.695V362a17.622,17.622,0,0,0-17.572-17.571H603.506a5.793,5.793,0,0,0-5.776,5.776,5.793,5.793,0,0,1-5.775,5.775H558.246l3.358,21.732h36.454Z" transform="translate(-558.246 -344.425)" fill="#6c6657" fill-rule="evenodd"/>
      </g>
      <g id="Grupo_53527" data-name="Grupo 53527" transform="translate(17.665 4.461)">
        <path id="Rectángulo_5084" data-name="Rectángulo 5084" d="M2.953,0h8.593A2.954,2.954,0,0,1,14.5,2.954V32.96a2.953,2.953,0,0,1-2.953,2.953H2.954A2.954,2.954,0,0,1,0,32.959V2.953A2.953,2.953,0,0,1,2.953,0Z" fill="#575549"/>
      </g>
      <g id="Grupo_53528" data-name="Grupo 53528" transform="translate(9.188)">
        <path id="Rectángulo_5085" data-name="Rectángulo 5085" d="M2.954,0h8.592A2.953,2.953,0,0,1,14.5,2.953V48.017a2.953,2.953,0,0,1-2.953,2.953H2.953A2.953,2.953,0,0,1,0,48.018V2.954A2.954,2.954,0,0,1,2.954,0Z" fill="#6c6657"/>
      </g>
      <g id="Grupo_53529" data-name="Grupo 53529" transform="translate(7.379 67.137)">
        <path id="Trazado_100129" data-name="Trazado 100129" d="M537.779,425.24h13.372a2.379,2.379,0,0,1,2.373,2.373v1.568a.805.805,0,0,1-.8.8H536.21a.8.8,0,0,1-.8-.8v-1.568A2.379,2.379,0,0,1,537.779,425.24Z" transform="translate(-535.407 -425.24)" fill="#fff" fill-rule="evenodd"/>
      </g>
      <g id="Grupo_53530" data-name="Grupo 53530" transform="translate(0.409 69.281)">
        <path id="Trazado_100130" data-name="Trazado 100130" d="M530.107,427.821H639.382a3.1,3.1,0,0,1,3.09,3.09v2.045A1.049,1.049,0,0,1,641.423,434H528.064a1.05,1.05,0,0,1-1.048-1.047v-2.045A3.1,3.1,0,0,1,530.107,427.821Z" transform="translate(-527.016 -427.821)" fill="#6c6657" fill-rule="evenodd"/>
      </g>
      <g id="Grupo_53531" data-name="Grupo 53531" transform="translate(66.164 33.284)">
        <path id="Trazado_100131" data-name="Trazado 100131" d="M632.163,393.754a9.292,9.292,0,0,0-9.264-9.264H606.169a9.291,9.291,0,0,1,9.263,9.264v26.377h16.731Z" transform="translate(-606.169 -384.49)" fill="#575549" fill-rule="evenodd"/>
      </g>
      <g id="Grupo_53532" data-name="Grupo 53532" transform="translate(60.061 0)">
        <path id="Trazado_100132" data-name="Trazado 100132" d="M615.552,355.976a5.793,5.793,0,0,0,5.776-5.775,5.793,5.793,0,0,1,5.777-5.776H610.373A5.793,5.793,0,0,0,604.6,350.2a5.793,5.793,0,0,1-5.775,5.775Z" transform="translate(-598.822 -344.425)" fill="#575549" fill-rule="evenodd"/>
      </g>
    </g>
    <g id="Grupo_53534" data-name="Grupo 53534" transform="translate(302.779 366.388)">
      <path id="Rectángulo_5086" data-name="Rectángulo 5086" d="M2.505,0H25.39a2.505,2.505,0,0,1,2.505,2.505v0A2.505,2.505,0,0,1,25.39,5.01H2.5A2.5,2.5,0,0,1,0,2.506v0A2.505,2.505,0,0,1,2.505,0Z" fill="#fff"/>
    </g>
    <g id="Grupo_53535" data-name="Grupo 53535" transform="translate(305.54 343.476)">
      <rect id="Rectángulo_5087" data-name="Rectángulo 5087" width="22.372" height="25.417" rx="1.52" fill="#ffc7c1"/>
    </g>
    <g id="Grupo_53536" data-name="Grupo 53536" transform="translate(302.779 340.971)">
      <path id="Trazado_100133" data-name="Trazado 100133" d="M356.149,403.647h22.884a2.513,2.513,0,0,0,2.5-2.506h0a2.512,2.512,0,0,0-2.5-2.5H356.149a2.513,2.513,0,0,0-2.506,2.5h0A2.514,2.514,0,0,0,356.149,403.647Z" transform="translate(-353.643 -398.636)" fill="#fff" fill-rule="evenodd"/>
    </g>
    <g id="Grupo_53537" data-name="Grupo 53537" transform="translate(312.694 342.752)">
      <path id="Trazado_100134" data-name="Trazado 100134" d="M366.3,402.228h6.617a.727.727,0,0,0,.724-.724h0a.727.727,0,0,0-.724-.724H366.3a.726.726,0,0,0-.724.724h0A.726.726,0,0,0,366.3,402.228Z" transform="translate(-365.578 -400.78)" fill="#ffc7c1" fill-rule="evenodd"/>
    </g>
    <g id="Grupo_53549" data-name="Grupo 53549" transform="translate(305.246 347.277)">
      <g id="Grupo_53538" data-name="Grupo 53538">
        <path id="Trazado_100135" data-name="Trazado 100135" d="M379.279,406.815H356.907a.294.294,0,1,1,0-.588h22.372a.294.294,0,1,1,0,.588Z" transform="translate(-356.613 -406.227)" fill="#fff"/>
      </g>
      <g id="Grupo_53539" data-name="Grupo 53539" transform="translate(0 1.824)">
        <path id="Trazado_100136" data-name="Trazado 100136" d="M379.279,409.012H356.907a.294.294,0,0,1,0-.589h22.372a.294.294,0,1,1,0,.589Z" transform="translate(-356.613 -408.423)" fill="#fff"/>
      </g>
      <g id="Grupo_53540" data-name="Grupo 53540" transform="translate(0 3.65)">
        <path id="Trazado_100137" data-name="Trazado 100137" d="M379.279,411.21H356.907a.295.295,0,0,1,0-.589h22.372a.295.295,0,1,1,0,.589Z" transform="translate(-356.613 -410.621)" fill="#fff"/>
      </g>
      <g id="Grupo_53541" data-name="Grupo 53541" transform="translate(0 5.475)">
        <path id="Trazado_100138" data-name="Trazado 100138" d="M379.279,413.406H356.907a.294.294,0,0,1,0-.589h22.372a.294.294,0,1,1,0,.589Z" transform="translate(-356.613 -412.817)" fill="#fff"/>
      </g>
      <g id="Grupo_53542" data-name="Grupo 53542" transform="translate(0 7.301)">
        <path id="Trazado_100139" data-name="Trazado 100139" d="M379.279,415.6H356.907a.294.294,0,0,1,0-.589h22.372a.294.294,0,1,1,0,.589Z" transform="translate(-356.613 -415.015)" fill="#fff"/>
      </g>
      <g id="Grupo_53543" data-name="Grupo 53543" transform="translate(0 9.126)">
        <path id="Trazado_100140" data-name="Trazado 100140" d="M379.279,417.8H356.907a.294.294,0,0,1,0-.589h22.372a.294.294,0,1,1,0,.589Z" transform="translate(-356.613 -417.212)" fill="#fff"/>
      </g>
      <g id="Grupo_53544" data-name="Grupo 53544" transform="translate(0 10.951)">
        <path id="Trazado_100141" data-name="Trazado 100141" d="M379.279,420H356.907a.294.294,0,0,1,0-.589h22.372a.294.294,0,1,1,0,.589Z" transform="translate(-356.613 -419.409)" fill="#fff"/>
      </g>
      <g id="Grupo_53545" data-name="Grupo 53545" transform="translate(0 12.776)">
        <path id="Trazado_100142" data-name="Trazado 100142" d="M379.279,422.2H356.907a.295.295,0,0,1,0-.589h22.372a.295.295,0,1,1,0,.589Z" transform="translate(-356.613 -421.606)" fill="#fff"/>
      </g>
      <g id="Grupo_53546" data-name="Grupo 53546" transform="translate(0 14.601)">
        <path id="Trazado_100143" data-name="Trazado 100143" d="M379.279,424.392H356.907a.295.295,0,0,1,0-.589h22.372a.295.295,0,1,1,0,.589Z" transform="translate(-356.613 -423.803)" fill="#fff"/>
      </g>
      <g id="Grupo_53547" data-name="Grupo 53547" transform="translate(0 16.426)">
        <path id="Trazado_100144" data-name="Trazado 100144" d="M379.279,426.589H356.907a.295.295,0,0,1,0-.589h22.372a.295.295,0,1,1,0,.589Z" transform="translate(-356.613 -426)" fill="#fff"/>
      </g>
      <g id="Grupo_53548" data-name="Grupo 53548" transform="translate(0 18.251)">
        <path id="Trazado_100145" data-name="Trazado 100145" d="M379.279,428.786H356.907a.295.295,0,0,1,0-.589h22.372a.295.295,0,1,1,0,.589Z" transform="translate(-356.613 -428.197)" fill="#fff"/>
      </g>
    </g>
    <g id="Grupo_53550" data-name="Grupo 53550" transform="translate(248.831 359.524)">
      <path id="Rectángulo_5088" data-name="Rectángulo 5088" d="M1.063,0H46.236A1.063,1.063,0,0,1,47.3,1.063V10.81a1.064,1.064,0,0,1-1.064,1.064H1.064A1.064,1.064,0,0,1,0,10.81V1.063A1.063,1.063,0,0,1,1.063,0Z" fill="#fff"/>
    </g>
    <g id="Grupo_53551" data-name="Grupo 53551" transform="translate(242.185 358.102)">
      <path id="Trazado_100146" data-name="Trazado 100146" d="M281.419,419.258H289.6a.717.717,0,0,1,.716.714v11.865a.718.718,0,0,1-.716.716h-8.185a.718.718,0,0,1-.715-.716V419.972a.717.717,0,0,1,.715-.714Zm2.043,5.617a1.03,1.03,0,1,0,1.03,1.03A1.03,1.03,0,0,0,283.462,424.875Z" transform="translate(-280.704 -419.258)" fill="#fff" fill-rule="evenodd"/>
    </g>
    <g id="Grupo_53569" data-name="Grupo 53569" transform="translate(253.982 360.92)">
      <g id="Grupo_53552" data-name="Grupo 53552">
        <path id="Trazado_100147" data-name="Trazado 100147" d="M295.14,424.25a.236.236,0,0,1-.236-.236v-1.128a.236.236,0,1,1,.472,0v1.128A.236.236,0,0,1,295.14,424.25Z" transform="translate(-294.904 -422.65)" fill="#ffc7c1"/>
      </g>
      <g id="Grupo_53553" data-name="Grupo 53553" transform="translate(2.475)">
        <path id="Trazado_100148" data-name="Trazado 100148" d="M298.119,424.25a.236.236,0,0,1-.236-.236v-1.128a.236.236,0,1,1,.471,0v1.128A.236.236,0,0,1,298.119,424.25Z" transform="translate(-297.883 -422.65)" fill="#ffc7c1"/>
      </g>
      <g id="Grupo_53554" data-name="Grupo 53554" transform="translate(4.95)">
        <path id="Trazado_100149" data-name="Trazado 100149" d="M301.1,424.25a.236.236,0,0,1-.236-.236v-1.128a.236.236,0,1,1,.472,0v1.128A.236.236,0,0,1,301.1,424.25Z" transform="translate(-300.862 -422.65)" fill="#ffc7c1"/>
      </g>
      <g id="Grupo_53555" data-name="Grupo 53555" transform="translate(7.424)">
        <path id="Trazado_100150" data-name="Trazado 100150" d="M304.075,424.25a.236.236,0,0,1-.235-.236v-1.128a.236.236,0,1,1,.471,0v1.128A.236.236,0,0,1,304.075,424.25Z" transform="translate(-303.84 -422.65)" fill="#ffc7c1"/>
      </g>
      <g id="Grupo_53556" data-name="Grupo 53556" transform="translate(9.897)">
        <path id="Trazado_100151" data-name="Trazado 100151" d="M307.054,424.25a.236.236,0,0,1-.236-.236v-1.128a.236.236,0,1,1,.472,0v1.128A.236.236,0,0,1,307.054,424.25Z" transform="translate(-306.818 -422.65)" fill="#ffc7c1"/>
      </g>
      <g id="Grupo_53557" data-name="Grupo 53557" transform="translate(12.372)">
        <path id="Trazado_100152" data-name="Trazado 100152" d="M310.033,424.25a.236.236,0,0,1-.236-.236v-1.128a.236.236,0,1,1,.471,0v1.128A.236.236,0,0,1,310.033,424.25Z" transform="translate(-309.797 -422.65)" fill="#ffc7c1"/>
      </g>
      <g id="Grupo_53558" data-name="Grupo 53558" transform="translate(14.847)">
        <path id="Trazado_100153" data-name="Trazado 100153" d="M313.012,424.25a.236.236,0,0,1-.236-.236v-1.128a.236.236,0,1,1,.472,0v1.128A.236.236,0,0,1,313.012,424.25Z" transform="translate(-312.776 -422.65)" fill="#ffc7c1"/>
      </g>
      <g id="Grupo_53559" data-name="Grupo 53559" transform="translate(17.322)">
        <path id="Trazado_100154" data-name="Trazado 100154" d="M315.991,424.25a.236.236,0,0,1-.236-.236v-1.128a.236.236,0,1,1,.471,0v1.128A.236.236,0,0,1,315.991,424.25Z" transform="translate(-315.755 -422.65)" fill="#ffc7c1"/>
      </g>
      <g id="Grupo_53560" data-name="Grupo 53560" transform="translate(19.797)">
        <path id="Trazado_100155" data-name="Trazado 100155" d="M318.97,424.25a.236.236,0,0,1-.236-.236v-1.128a.236.236,0,1,1,.472,0v1.128A.236.236,0,0,1,318.97,424.25Z" transform="translate(-318.734 -422.65)" fill="#ffc7c1"/>
      </g>
      <g id="Grupo_53561" data-name="Grupo 53561" transform="translate(22.271)">
        <path id="Trazado_100156" data-name="Trazado 100156" d="M321.949,424.25a.236.236,0,0,1-.236-.236v-1.128a.236.236,0,1,1,.471,0v1.128A.236.236,0,0,1,321.949,424.25Z" transform="translate(-321.713 -422.65)" fill="#ffc7c1"/>
      </g>
      <g id="Grupo_53562" data-name="Grupo 53562" transform="translate(24.745)">
        <path id="Trazado_100157" data-name="Trazado 100157" d="M324.925,424.25a.235.235,0,0,1-.235-.236v-1.128a.236.236,0,1,1,.471,0v1.128A.236.236,0,0,1,324.925,424.25Z" transform="translate(-324.69 -422.65)" fill="#ffc7c1"/>
      </g>
      <g id="Grupo_53563" data-name="Grupo 53563" transform="translate(27.22)">
        <path id="Trazado_100158" data-name="Trazado 100158" d="M327.906,424.25a.236.236,0,0,1-.236-.236v-1.128a.236.236,0,1,1,.471,0v1.128A.236.236,0,0,1,327.906,424.25Z" transform="translate(-327.67 -422.65)" fill="#ffc7c1"/>
      </g>
      <g id="Grupo_53564" data-name="Grupo 53564" transform="translate(29.694)">
        <path id="Trazado_100159" data-name="Trazado 100159" d="M330.883,424.25a.235.235,0,0,1-.235-.236v-1.128a.236.236,0,1,1,.471,0v1.128A.236.236,0,0,1,330.883,424.25Z" transform="translate(-330.648 -422.65)" fill="#ffc7c1"/>
      </g>
      <g id="Grupo_53565" data-name="Grupo 53565" transform="translate(32.169)">
        <path id="Trazado_100160" data-name="Trazado 100160" d="M333.863,424.25a.236.236,0,0,1-.236-.236v-1.128a.236.236,0,1,1,.471,0v1.128A.236.236,0,0,1,333.863,424.25Z" transform="translate(-333.627 -422.65)" fill="#ffc7c1"/>
      </g>
      <g id="Grupo_53566" data-name="Grupo 53566" transform="translate(34.643)">
        <path id="Trazado_100161" data-name="Trazado 100161" d="M336.841,424.25a.236.236,0,0,1-.236-.236v-1.128a.236.236,0,1,1,.472,0v1.128A.236.236,0,0,1,336.841,424.25Z" transform="translate(-336.605 -422.65)" fill="#ffc7c1"/>
      </g>
      <g id="Grupo_53567" data-name="Grupo 53567" transform="translate(37.118)">
        <path id="Trazado_100162" data-name="Trazado 100162" d="M339.82,424.25a.236.236,0,0,1-.236-.236v-1.128a.236.236,0,1,1,.471,0v1.128A.236.236,0,0,1,339.82,424.25Z" transform="translate(-339.584 -422.65)" fill="#ffc7c1"/>
      </g>
      <g id="Grupo_53568" data-name="Grupo 53568" transform="translate(39.592)">
        <path id="Trazado_100163" data-name="Trazado 100163" d="M342.8,424.25a.236.236,0,0,1-.235-.236v-1.128a.236.236,0,1,1,.471,0v1.128A.236.236,0,0,1,342.8,424.25Z" transform="translate(-342.563 -422.65)" fill="#ffc7c1"/>
      </g>
    </g>
    <g id="Grupo_53573" data-name="Grupo 53573" transform="translate(358.828 334.278)">
      <g id="Grupo_53570" data-name="Grupo 53570" transform="translate(35.457)">
        <path id="Trazado_100164" data-name="Trazado 100164" d="M464.556,390.579h40.256a3.7,3.7,0,0,1,2.624,1.089,1.74,1.74,0,0,1,.135.15,3.7,3.7,0,0,1,.954,2.473h0a3.7,3.7,0,0,1-1.089,2.615l0,0,0,0v0A3.71,3.71,0,0,1,504.812,398H464.556C463.539,398,463.539,390.579,464.556,390.579Z" transform="translate(-463.793 -390.579)" fill="#84d2cd" fill-rule="evenodd"/>
      </g>
      <g id="Grupo_53571" data-name="Grupo 53571">
        <path id="Trazado_100165" data-name="Trazado 100165" d="M422.96,394.273a1.847,1.847,0,1,1,0-3.694h44.49a3.7,3.7,0,0,1,2.623,1.089c.047.048.093.1.135.15a3.7,3.7,0,0,1,.954,2.473h0a3.7,3.7,0,0,1-1.088,2.615l0,0,0,0,0,0A3.706,3.706,0,0,1,467.45,398H422.96a1.848,1.848,0,1,1,0-3.7Z" transform="translate(-421.112 -390.579)" fill="#b1e1da" fill-rule="evenodd"/>
      </g>
      <g id="Grupo_53572" data-name="Grupo 53572" transform="translate(1.436 3.317)">
        <path id="Trazado_100166" data-name="Trazado 100166" d="M465.651,395.4h-42.4a.412.412,0,0,1,0-.825h42.4a.412.412,0,1,1,0,.825Z" transform="translate(-422.84 -394.572)" fill="#84d2cd"/>
      </g>
    </g>
    <g id="Grupo_53577" data-name="Grupo 53577" transform="translate(69.037 229.31)">
      <g id="Grupo_53574" data-name="Grupo 53574" transform="translate(0.589 0.588)">
        <path id="Trazado_100167" data-name="Trazado 100167" d="M109.831,361.752c5.745-14.723,20.352-8.025,28.4-22.92,6.219-11.507,3.708-29.1,8.194-35.135,0,0-37.643,5.379-36.6,58.056ZM72.987,335.516c6.967,3.122,6.825,33.422,27.038,33.174,0,0-3.791-33.047-27.038-33.174ZM113.8,264.933c-5.063,14.392,21.659,46.569-12.509,77.7C101.295,342.636,79.85,290.87,113.8,264.933Z" transform="translate(-72.987 -264.933)" fill="#ffd54f" fill-rule="evenodd"/>
      </g>
      <g id="Grupo_53575" data-name="Grupo 53575">
        <path id="Trazado_100168" data-name="Trazado 100168" d="M105.665,384.315l-.05,0a.544.544,0,0,1-.133-.027.581.581,0,0,1-.19-.1.564.564,0,0,1-.117-.13.557.557,0,0,1-.056-.108.351.351,0,0,1-.018-.052c-.31-.97-14.878-46.084-32.294-47.911a.588.588,0,0,1,.122-1.171c14.457,1.516,26.5,29.922,31.2,42.684-3.121-21.993-11.462-93.689,9.154-113.11a.588.588,0,0,1,.807.857c-20.661,19.463-11.149,95.638-8.464,114.268a193.174,193.174,0,0,1,7.076-30.6c5.437-16.744,15.643-38.295,33.38-45.875a.589.589,0,1,1,.462,1.083c-33.093,14.143-40.161,78.447-40.289,79.656v.01a.562.562,0,0,1-.027.125.578.578,0,0,1-.106.194h0a.619.619,0,0,1-.119.109.6.6,0,0,1-.282.1Z" transform="translate(-72.278 -264.225)" fill="#d5ab27"/>
      </g>
      <g id="Grupo_53576" data-name="Grupo 53576" transform="translate(15.177 114.809)">
        <path id="Trazado_100169" data-name="Trazado 100169" d="M93.386,403.154a18.092,18.092,0,0,0,8.341,26.443,1.375,1.375,0,0,0,.523.1v.005h12.773a1.368,1.368,0,0,0,.638-.157,18.077,18.077,0,0,0,8.165-26.492,1.374,1.374,0,0,0-1.155-.627v0H94.6A1.38,1.38,0,0,0,93.386,403.154Z" transform="translate(-90.547 -402.425)" fill="#7b1fa2" fill-rule="evenodd"/>
      </g>
    </g>
    <g id="Grupo_53583" data-name="Grupo 53583" transform="translate(129.931 319.207)">
      <g id="Grupo_53578" data-name="Grupo 53578" transform="translate(4.052)">
        <path id="Trazado_100170" data-name="Trazado 100170" d="M162.171,372.438a13.077,13.077,0,0,1,11.716,7.265h-23.43A13.074,13.074,0,0,1,162.171,372.438Z" transform="translate(-150.457 -372.438)" fill="#b1e1da" fill-rule="evenodd"/>
      </g>
      <g id="Grupo_53579" data-name="Grupo 53579" transform="translate(0 8.907)">
        <path id="Trazado_100171" data-name="Trazado 100171" d="M177.113,412.474v9.084a4.9,4.9,0,0,1-4.885,4.886H150.464a4.9,4.9,0,0,1-4.885-4.886V405.889c0-3.877,4.088-11.842,4.088-16.568V383.16h23.357v6.161c0,4.726,4.089,12.691,4.089,16.568Z" transform="translate(-145.579 -383.16)" fill="#fff" fill-rule="evenodd"/>
      </g>
      <g id="Grupo_53580" data-name="Grupo 53580" transform="translate(4.088 8.907)">
        <path id="Trazado_100172" data-name="Trazado 100172" d="M150.5,388.143V383.16h23.357v6.161a10.94,10.94,0,0,0,.088,1.3Z" transform="translate(-150.5 -383.16)" fill="#ffc7c1" fill-rule="evenodd"/>
      </g>
      <g id="Grupo_53581" data-name="Grupo 53581" transform="translate(2.545 23.15)">
        <path id="Trazado_100173" data-name="Trazado 100173" d="M150.995,400.305l-.176.536c-.647,1.963-2.176,5.968-2.176,7.95V424.46a2.352,2.352,0,0,0,2.339,2.339h21.765a2.353,2.353,0,0,0,2.339-2.339V408.791c0-1.982-1.529-5.987-2.175-7.95l-.177-.536Z" transform="translate(-148.643 -400.305)" fill="#b1e1da" fill-rule="evenodd"/>
      </g>
      <g id="Grupo_53582" data-name="Grupo 53582" transform="translate(2.761 6.411)">
        <path id="Rectángulo_5089" data-name="Rectángulo 5089" d="M1.6,0H24.415a1.6,1.6,0,0,1,1.6,1.6V3.607a1.6,1.6,0,0,1-1.6,1.6H1.6A1.6,1.6,0,0,1,0,3.608V1.6A1.6,1.6,0,0,1,1.6,0Z" fill="#fff"/>
      </g>
    </g>
    <g id="Grupo_53584" data-name="Grupo 53584" transform="translate(156.985 367.827)">
      <path id="Trazado_100174" data-name="Trazado 100174" d="M179.93,434.535h16.312a1.792,1.792,0,0,0,1.786-1.786h0a1.792,1.792,0,0,0-1.786-1.785H179.93a1.79,1.79,0,0,0-1.785,1.785h0A1.791,1.791,0,0,0,179.93,434.535Z" transform="translate(-178.145 -430.964)" fill="#6c6657" fill-rule="evenodd"/>
    </g>
    <g id="Grupo_53585" data-name="Grupo 53585" transform="translate(158.953 351.496)">
      <path id="Rectángulo_5090" data-name="Rectángulo 5090" d="M1.083,0H14.862a1.084,1.084,0,0,1,1.084,1.084V17.033a1.083,1.083,0,0,1-1.083,1.083H1.084A1.084,1.084,0,0,1,0,17.033V1.083A1.083,1.083,0,0,1,1.083,0Z" fill="#575549"/>
    </g>
    <g id="Grupo_53586" data-name="Grupo 53586" transform="translate(156.985 349.71)">
      <path id="Trazado_100175" data-name="Trazado 100175" d="M179.93,412.727h16.312a1.792,1.792,0,0,0,1.786-1.785h0a1.792,1.792,0,0,0-1.786-1.786H179.93a1.791,1.791,0,0,0-1.785,1.786h0A1.79,1.79,0,0,0,179.93,412.727Z" transform="translate(-178.145 -409.156)" fill="#6c6657" fill-rule="evenodd"/>
    </g>
    <g id="Grupo_53587" data-name="Grupo 53587" transform="translate(164.051 350.98)">
      <path id="Trazado_100176" data-name="Trazado 100176" d="M187.169,411.718h4.715a.518.518,0,0,0,.516-.517h0a.517.517,0,0,0-.516-.516h-4.715a.518.518,0,0,0-.518.516h0A.519.519,0,0,0,187.169,411.718Z" transform="translate(-186.651 -410.685)" fill="#fff" fill-rule="evenodd"/>
    </g>
    <g id="Grupo_53599" data-name="Grupo 53599" transform="translate(158.717 354.18)">
      <g id="Grupo_53588" data-name="Grupo 53588">
        <path id="Trazado_100177" data-name="Trazado 100177" d="M196.412,415.007H180.466a.236.236,0,1,1,0-.471h15.946a.236.236,0,1,1,0,.471Z" transform="translate(-180.23 -414.536)" fill="#ffa2a4"/>
      </g>
      <g id="Grupo_53589" data-name="Grupo 53589" transform="translate(0 1.3)">
        <path id="Trazado_100178" data-name="Trazado 100178" d="M196.412,416.572H180.466a.236.236,0,1,1,0-.471h15.946a.236.236,0,1,1,0,.471Z" transform="translate(-180.23 -416.101)" fill="#ffa2a4"/>
      </g>
      <g id="Grupo_53590" data-name="Grupo 53590" transform="translate(0 2.601)">
        <path id="Trazado_100179" data-name="Trazado 100179" d="M196.412,418.139H180.466a.236.236,0,1,1,0-.472h15.946a.236.236,0,1,1,0,.472Z" transform="translate(-180.23 -417.667)" fill="#ffa2a4"/>
      </g>
      <g id="Grupo_53591" data-name="Grupo 53591" transform="translate(0 3.903)">
        <path id="Trazado_100180" data-name="Trazado 100180" d="M196.412,419.705H180.466a.236.236,0,1,1,0-.471h15.946a.236.236,0,1,1,0,.471Z" transform="translate(-180.23 -419.234)" fill="#ffa2a4"/>
      </g>
      <g id="Grupo_53592" data-name="Grupo 53592" transform="translate(0 5.203)">
        <path id="Trazado_100181" data-name="Trazado 100181" d="M196.412,421.271H180.466a.236.236,0,1,1,0-.472h15.946a.236.236,0,1,1,0,.472Z" transform="translate(-180.23 -420.799)" fill="#ffa2a4"/>
      </g>
      <g id="Grupo_53593" data-name="Grupo 53593" transform="translate(0 6.505)">
        <path id="Trazado_100182" data-name="Trazado 100182" d="M196.412,422.837H180.466a.236.236,0,1,1,0-.471h15.946a.236.236,0,1,1,0,.471Z" transform="translate(-180.23 -422.366)" fill="#ffa2a4"/>
      </g>
      <g id="Grupo_53594" data-name="Grupo 53594" transform="translate(0 7.806)">
        <path id="Trazado_100183" data-name="Trazado 100183" d="M196.412,424.4H180.466a.236.236,0,1,1,0-.471h15.946a.236.236,0,1,1,0,.471Z" transform="translate(-180.23 -423.932)" fill="#ffa2a4"/>
      </g>
      <g id="Grupo_53595" data-name="Grupo 53595" transform="translate(0 9.107)">
        <path id="Trazado_100184" data-name="Trazado 100184" d="M196.412,425.969H180.466a.236.236,0,1,1,0-.471h15.946a.236.236,0,1,1,0,.471Z" transform="translate(-180.23 -425.498)" fill="#ffa2a4"/>
      </g>
      <g id="Grupo_53596" data-name="Grupo 53596" transform="translate(0 10.408)">
        <path id="Trazado_100185" data-name="Trazado 100185" d="M196.412,427.535H180.466a.236.236,0,1,1,0-.471h15.946a.236.236,0,1,1,0,.471Z" transform="translate(-180.23 -427.064)" fill="#ffa2a4"/>
      </g>
      <g id="Grupo_53597" data-name="Grupo 53597" transform="translate(0 11.708)">
        <path id="Trazado_100186" data-name="Trazado 100186" d="M196.412,429.1H180.466a.236.236,0,0,1,0-.472h15.946a.236.236,0,0,1,0,.472Z" transform="translate(-180.23 -428.629)" fill="#ffa2a4"/>
      </g>
      <g id="Grupo_53598" data-name="Grupo 53598" transform="translate(0 13.009)">
        <path id="Trazado_100187" data-name="Trazado 100187" d="M196.412,430.667H180.466a.236.236,0,1,1,0-.471h15.946a.236.236,0,1,1,0,.471Z" transform="translate(-180.23 -430.196)" fill="#ffa2a4"/>
      </g>
    </g>
    <g id="Grupo_53603" data-name="Grupo 53603" transform="translate(62.906 371.309)">
      <g id="Grupo_53600" data-name="Grupo 53600" transform="translate(12.79)">
        <path id="Trazado_100188" data-name="Trazado 100188" d="M82.244,435.263H575.093c1.011,0,1.841.519,1.841,1.154s-.83,1.155-1.841,1.155H82.244c-1.012,0-1.842-.519-1.842-1.155S81.232,435.263,82.244,435.263Z" transform="translate(-80.312 -435.173)" fill="#fff" fill-rule="evenodd"/>
        <path id="Trazado_100189" data-name="Trazado 100189" d="M575.074,437.643H82.225c-1.065,0-1.931-.558-1.931-1.244s.866-1.244,1.931-1.244H575.074c1.065,0,1.931.558,1.931,1.244S576.139,437.643,575.074,437.643ZM82.225,435.334c-.95,0-1.752.488-1.752,1.064s.8,1.065,1.752,1.065H575.074c.95,0,1.751-.488,1.751-1.065s-.8-1.064-1.751-1.064Z" transform="translate(-80.294 -435.155)" fill="#fff"/>
      </g>
      <g id="Grupo_53601" data-name="Grupo 53601">
        <path id="Trazado_100190" data-name="Trazado 100190" d="M72.153,435.263H66.846c-1.011,0-1.84.519-1.84,1.154s.829,1.155,1.84,1.155h5.307c1.014,0,1.843-.519,1.843-1.155S73.166,435.263,72.153,435.263Z" transform="translate(-64.916 -435.173)" fill="#fff" fill-rule="evenodd"/>
        <path id="Trazado_100191" data-name="Trazado 100191" d="M72.135,437.643H66.828c-1.064,0-1.93-.558-1.93-1.244s.866-1.244,1.93-1.244h5.307c1.065,0,1.932.558,1.932,1.244S73.2,437.643,72.135,437.643Zm-5.307-2.309c-.949,0-1.75.488-1.75,1.064s.8,1.065,1.75,1.065h5.307c.95,0,1.753-.488,1.753-1.065s-.8-1.064-1.753-1.064Z" transform="translate(-64.898 -435.155)" fill="#fff"/>
      </g>
      <g id="Grupo_53602" data-name="Grupo 53602" transform="translate(513.074)">
        <path id="Trazado_100192" data-name="Trazado 100192" d="M689.763,435.263h-5.3c-1.014,0-1.843.519-1.843,1.154s.829,1.155,1.843,1.155h5.3c1.013,0,1.842-.519,1.842-1.155S690.775,435.263,689.763,435.263Z" transform="translate(-682.525 -435.173)" fill="#fff" fill-rule="evenodd"/>
        <path id="Trazado_100193" data-name="Trazado 100193" d="M689.744,437.643h-5.3c-1.067,0-1.933-.558-1.933-1.244s.866-1.244,1.933-1.244h5.3c1.065,0,1.931.558,1.931,1.244S690.809,437.643,689.744,437.643Zm-5.3-2.309c-.95,0-1.754.488-1.754,1.064s.8,1.065,1.754,1.065h5.3c.95,0,1.752-.488,1.752-1.065s-.8-1.064-1.752-1.064Z" transform="translate(-682.507 -435.155)" fill="#fff"/>
      </g>
    </g>
    <g id="Grupo_53607" data-name="Grupo 53607" transform="translate(358.828 341.702)">
      <g id="Grupo_53604" data-name="Grupo 53604" transform="translate(35.457)">
        <path id="Trazado_100194" data-name="Trazado 100194" d="M464.556,406.94h40.256a3.7,3.7,0,0,0,2.624-1.088,1.745,1.745,0,0,0,.135-.151,3.693,3.693,0,0,0,.954-2.472h0a3.7,3.7,0,0,0-1.089-2.615l0,0,0,0v0a3.713,3.713,0,0,0-2.615-1.087H464.556C463.539,399.516,463.539,406.94,464.556,406.94Z" transform="translate(-463.793 -399.516)" fill="#e6dde0" fill-rule="evenodd"/>
      </g>
      <g id="Grupo_53605" data-name="Grupo 53605">
        <path id="Trazado_100195" data-name="Trazado 100195" d="M422.96,403.245a1.847,1.847,0,1,0,0,3.694h44.49a3.7,3.7,0,0,0,2.623-1.088c.047-.049.093-.1.135-.151a3.7,3.7,0,0,0,.954-2.472h0a3.7,3.7,0,0,0-1.088-2.615l0,0,0,0,0,0a3.709,3.709,0,0,0-2.614-1.087H422.96a1.847,1.847,0,1,0,0,3.694Z" transform="translate(-421.112 -399.516)" fill="#fff" fill-rule="evenodd"/>
      </g>
      <g id="Grupo_53606" data-name="Grupo 53606" transform="translate(1.436 3.282)">
        <path id="Trazado_100196" data-name="Trazado 100196" d="M465.651,404.291h-42.4a.412.412,0,0,1,0-.824h42.4a.412.412,0,1,1,0,.824Z" transform="translate(-422.84 -403.467)" fill="#e6dde0"/>
      </g>
    </g>
    <g id="Grupo_53611" data-name="Grupo 53611" transform="translate(358.828 349.125)">
      <g id="Grupo_53608" data-name="Grupo 53608" transform="translate(35.457)">
        <path id="Trazado_100197" data-name="Trazado 100197" d="M464.556,408.452h40.256a3.7,3.7,0,0,1,2.624,1.09,1.628,1.628,0,0,1,.135.15,3.694,3.694,0,0,1,.954,2.472h0a3.7,3.7,0,0,1-1.089,2.615l0,0,0,0v0a3.709,3.709,0,0,1-2.615,1.087H464.556C463.539,415.876,463.539,408.452,464.556,408.452Z" transform="translate(-463.793 -408.452)" fill="#f4b1b0" fill-rule="evenodd"/>
      </g>
      <g id="Grupo_53609" data-name="Grupo 53609">
        <path id="Trazado_100198" data-name="Trazado 100198" d="M422.96,412.146a1.847,1.847,0,1,1,0-3.694h44.49a3.7,3.7,0,0,1,2.623,1.09,1.91,1.91,0,0,1,.135.15,3.7,3.7,0,0,1,.954,2.472h0a3.7,3.7,0,0,1-1.088,2.615l0,0,0,0,0,0a3.706,3.706,0,0,1-2.614,1.087H422.96a1.847,1.847,0,1,1,0-3.694Z" transform="translate(-421.112 -408.452)" fill="#ffc7c1" fill-rule="evenodd"/>
      </g>
      <g id="Grupo_53610" data-name="Grupo 53610" transform="translate(1.436 3.318)">
        <path id="Trazado_100199" data-name="Trazado 100199" d="M465.651,413.271h-42.4a.412.412,0,0,1,0-.825h42.4a.412.412,0,1,1,0,.825Z" transform="translate(-422.84 -412.446)" fill="#ffa2a4"/>
      </g>
    </g>
    <g id="Grupo_53615" data-name="Grupo 53615" transform="translate(358.828 356.55)">
      <g id="Grupo_53612" data-name="Grupo 53612" transform="translate(35.457)">
        <path id="Trazado_100200" data-name="Trazado 100200" d="M464.556,417.389h40.256a3.707,3.707,0,0,1,2.624,1.088,1.745,1.745,0,0,1,.135.151,3.694,3.694,0,0,1,.954,2.471v0a3.708,3.708,0,0,1-1.089,2.616l0,0,0,0v0a3.716,3.716,0,0,1-2.615,1.087H464.556C463.539,424.813,463.539,417.389,464.556,417.389Z" transform="translate(-463.793 -417.389)" fill="#84d2cd" fill-rule="evenodd"/>
      </g>
      <g id="Grupo_53613" data-name="Grupo 53613">
        <path id="Trazado_100201" data-name="Trazado 100201" d="M422.96,421.083a1.847,1.847,0,1,1,0-3.694h44.49a3.706,3.706,0,0,1,2.623,1.088c.047.049.093.1.135.151a3.7,3.7,0,0,1,.954,2.471v0a3.708,3.708,0,0,1-1.088,2.616l0,0,0,0,0,0a3.713,3.713,0,0,1-2.614,1.087H422.96a1.847,1.847,0,1,1,0-3.694Z" transform="translate(-421.112 -417.389)" fill="#b1e1da" fill-rule="evenodd"/>
      </g>
      <g id="Grupo_53614" data-name="Grupo 53614" transform="translate(1.436 3.318)">
        <path id="Trazado_100202" data-name="Trazado 100202" d="M465.651,422.207h-42.4a.412.412,0,1,1,0-.824h42.4a.412.412,0,1,1,0,.824Z" transform="translate(-422.84 -421.383)" fill="#84d2cd"/>
      </g>
    </g>
    <g id="Grupo_53619" data-name="Grupo 53619" transform="translate(358.828 363.974)">
      <g id="Grupo_53616" data-name="Grupo 53616" transform="translate(35.457)">
        <path id="Trazado_100203" data-name="Trazado 100203" d="M464.556,433.75h40.256a3.7,3.7,0,0,0,2.624-1.089,1.744,1.744,0,0,0,.135-.15,3.694,3.694,0,0,0,.954-2.472h0a3.7,3.7,0,0,0-1.089-2.615l0,0,0,0v0a3.71,3.71,0,0,0-2.615-1.087H464.556C463.539,426.326,463.539,433.75,464.556,433.75Z" transform="translate(-463.793 -426.326)" fill="#e6dde0" fill-rule="evenodd"/>
      </g>
      <g id="Grupo_53617" data-name="Grupo 53617">
        <path id="Trazado_100204" data-name="Trazado 100204" d="M422.96,430.055a1.848,1.848,0,1,0,0,3.7h44.49a3.7,3.7,0,0,0,2.623-1.089c.047-.048.093-.1.135-.15a3.7,3.7,0,0,0,.954-2.472h0a3.7,3.7,0,0,0-1.088-2.615l0,0,0,0,0,0a3.706,3.706,0,0,0-2.614-1.087H422.96a1.847,1.847,0,1,0,0,3.694Z" transform="translate(-421.112 -426.326)" fill="#fff" fill-rule="evenodd"/>
      </g>
      <g id="Grupo_53618" data-name="Grupo 53618" transform="translate(1.436 3.281)">
        <path id="Trazado_100205" data-name="Trazado 100205" d="M465.651,431.1h-42.4a.412.412,0,0,1,0-.825h42.4a.412.412,0,1,1,0,.825Z" transform="translate(-422.84 -430.276)" fill="#e6dde0"/>
      </g>
    </g>
    <g id="Grupo_53620" data-name="Grupo 53620" transform="translate(461.673 256.018)">
      <path id="Rectángulo_5091" data-name="Rectángulo 5091" d="M2.277,0H13.494A2.275,2.275,0,0,1,15.77,2.275V13.493a2.277,2.277,0,0,1-2.277,2.277H2.276A2.276,2.276,0,0,1,0,13.494V2.277A2.277,2.277,0,0,1,2.277,0Z" transform="translate(0 0)" fill="#ffd54f"/>
    </g>
    <g id="Grupo_53621" data-name="Grupo 53621" transform="translate(466.147 260.174)">
      <path id="Trazado_100206" data-name="Trazado 100206" d="M553.3,308.168h0a.591.591,0,0,1-.447-.2l-2.417-2.807a.589.589,0,1,1,.892-.768l1.972,2.289,4.391-5.1a.588.588,0,0,1,.891.768l-4.837,5.613A.587.587,0,0,1,553.3,308.168Z" transform="translate(-550.296 -301.377)" fill="#fff"/>
    </g>
  </g>
</svg>
