<svg xmlns="http://www.w3.org/2000/svg" width="1179.61" height="472.992" viewBox="0 0 1179.61 472.992">
  <g id="Grupo_53629" data-name="Grupo 53629" transform="translate(-73.315 -109.046)">
    <g id="Grupo_53623" data-name="Grupo 53623" transform="translate(705.315 169.542)">
      <path id="Trazado_100004" data-name="Trazado 100004" d="M249.5,105.307a.412.412,0,0,1-.412-.412v-3.973H245.7a.412.412,0,0,1,0-.824h8.984V94.636h-6.609a.412.412,0,0,1,0-.825H272.33a.412.412,0,0,1,0,.825H255.5V100.1h24.062V94.636H276.9a.412.412,0,0,1,0-.825h9.591a.412.412,0,0,1,0,.825h-6.1V100.1h3.468a.412.412,0,0,1,0,.824H249.914v3.973A.412.412,0,0,1,249.5,105.307Zm-6.537-4.385h-1.259a.412.412,0,1,1,0-.824h1.259a.412.412,0,0,1,0,.824Z" transform="translate(-241.293 -93.811)" fill="#fcf6ff"/>
    </g>
    <g id="Grupo_53625" data-name="Grupo 53625" transform="translate(568.315 570.542)">
      <path id="Trazado_100004-2" data-name="Trazado 100004" d="M249.5,105.307a.412.412,0,0,1-.412-.412v-3.973H245.7a.412.412,0,0,1,0-.824h8.984V94.636h-6.609a.412.412,0,0,1,0-.825H272.33a.412.412,0,0,1,0,.825H255.5V100.1h24.062V94.636H276.9a.412.412,0,0,1,0-.825h9.591a.412.412,0,0,1,0,.825h-6.1V100.1h3.468a.412.412,0,0,1,0,.824H249.914v3.973A.412.412,0,0,1,249.5,105.307Zm-6.537-4.385h-1.259a.412.412,0,1,1,0-.824h1.259a.412.412,0,0,1,0,.824Z" transform="translate(-241.293 -93.811)" fill="#fcf6ff"/>
    </g>
    <g id="Grupo_53627" data-name="Grupo 53627" transform="translate(1207.315 375.542)">
      <path id="Trazado_100004-3" data-name="Trazado 100004" d="M249.5,105.307a.412.412,0,0,1-.412-.412v-3.973H245.7a.412.412,0,0,1,0-.824h8.984V94.636h-6.609a.412.412,0,0,1,0-.825H272.33a.412.412,0,0,1,0,.825H255.5V100.1h24.062V94.636H276.9a.412.412,0,0,1,0-.825h9.591a.412.412,0,0,1,0,.825h-6.1V100.1h3.468a.412.412,0,0,1,0,.824H249.914v3.973A.412.412,0,0,1,249.5,105.307Zm-6.537-4.385h-1.259a.412.412,0,1,1,0-.824h1.259a.412.412,0,0,1,0,.824Z" transform="translate(-241.293 -93.811)" fill="#fcf6ff"/>
    </g>
    <g id="Grupo_53628" data-name="Grupo 53628" transform="translate(1187.315 112.542)">
      <path id="Trazado_100004-4" data-name="Trazado 100004" d="M249.5,105.307a.412.412,0,0,1-.412-.412v-3.973H245.7a.412.412,0,0,1,0-.824h8.984V94.636h-6.609a.412.412,0,0,1,0-.825H272.33a.412.412,0,0,1,0,.825H255.5V100.1h24.062V94.636H276.9a.412.412,0,0,1,0-.825h9.591a.412.412,0,0,1,0,.825h-6.1V100.1h3.468a.412.412,0,0,1,0,.824H249.914v3.973A.412.412,0,0,1,249.5,105.307Zm-6.537-4.385h-1.259a.412.412,0,1,1,0-.824h1.259a.412.412,0,0,1,0,.824Z" transform="translate(-241.293 -93.811)" fill="#fcf6ff"/>
    </g>
    <g id="Grupo_53626" data-name="Grupo 53626" transform="translate(73.315 505.542)">
      <path id="Trazado_100004-5" data-name="Trazado 100004" d="M249.5,105.307a.412.412,0,0,1-.412-.412v-3.973H245.7a.412.412,0,0,1,0-.824h8.984V94.636h-6.609a.412.412,0,0,1,0-.825H272.33a.412.412,0,0,1,0,.825H255.5V100.1h24.062V94.636H276.9a.412.412,0,0,1,0-.825h9.591a.412.412,0,0,1,0,.825h-6.1V100.1h3.468a.412.412,0,0,1,0,.824H249.914v3.973A.412.412,0,0,1,249.5,105.307Zm-6.537-4.385h-1.259a.412.412,0,1,1,0-.824h1.259a.412.412,0,0,1,0,.824Z" transform="translate(-241.293 -93.811)" fill="#fcf6ff"/>
    </g>
    <g id="Grupo_53624" data-name="Grupo 53624" transform="translate(136.195 109.046)">
      <path id="Trazado_100004-6" data-name="Trazado 100004" d="M249.5,105.307a.412.412,0,0,1-.412-.412v-3.973H245.7a.412.412,0,0,1,0-.824h8.984V94.636h-6.609a.412.412,0,0,1,0-.825H272.33a.412.412,0,0,1,0,.825H255.5V100.1h24.062V94.636H276.9a.412.412,0,0,1,0-.825h9.591a.412.412,0,0,1,0,.825h-6.1V100.1h3.468a.412.412,0,0,1,0,.824H249.914v3.973A.412.412,0,0,1,249.5,105.307Zm-6.537-4.385h-1.259a.412.412,0,1,1,0-.824h1.259a.412.412,0,0,1,0,.824Z" transform="translate(-241.293 -93.811)" fill="#fcf6ff"/>
    </g>
  </g>
</svg>
