<svg xmlns="http://www.w3.org/2000/svg" width="720" height="447.239" viewBox="0 0 720 447.239">
  <g id="Grupo_7402" data-name="Grupo 7402" transform="translate(-182 -1142.007)">
    <path id="Trazado_11142" data-name="Trazado 11142" d="M0,0H720V2.26H0Z" transform="translate(182 1586.987)" fill="#7b1fa2"/>
    <path id="Trazado_11109" data-name="Trazado 11109" d="M141.293,347.356c1.507-14.791,2.008-21.812-1.268-27.865v0c.048-6.3-2.917-25.117-4.643-32.574-1.263-5.459-1.474-9.339-2.5-11.874-2.52-6.166-8.032-6.276-13.044-6.952l-.276-.1-.2-.069-.469-.163-.4-.137-.354-.12c-.272-.09-.552-.184-.846-.279-.491-.16-1-.308-1.514-.45l-.112-.029c-.434-.119-.872-.234-1.308-.347l-.152-.04h0c-3.011-.781-5.913-1.52-7.143-3.348a8.548,8.548,0,0,1-1.494-3.169h0a16.26,16.26,0,0,1-.253-2.513,19.793,19.793,0,0,0,4.117-5.628,14.4,14.4,0,0,0,3.242-2.934,20.271,20.271,0,0,0,3.4-6.4c.656-1.937-.12-2.766.832-4.6a7.173,7.173,0,0,0,.863-4.323c-.226-1.456.534-2.606.668-3.947.134-1.359-.508-2.653-.744-3.959-.251-1.386.145-2.618-.326-3.968-.356-1.022-1.445-1.826-2.009-2.7-.7-1.093-.93-1.983-1.723-3.035-.873-1.16-2-1.353-3.19-2.029-1.652-.943-2.332-1.919-4.173-2.32a38.01,38.01,0,0,0-9.359-1.163,28.378,28.378,0,0,0-4.507.264l-.1.012c-1.579.215-3.131.533-4.758.884-1.842.4-2.521,1.376-4.174,2.32-1.186.676-2.316.869-3.189,2.029-.793,1.052-1.02,1.942-1.725,3.035-.562.875-1.65,1.679-2.007,2.7-.471,1.35-.076,2.582-.326,3.969-.236,1.3-.876,2.6-.743,3.959.131,1.341.893,2.491.667,3.947a7.173,7.173,0,0,0,.863,4.323c.951,1.834.177,2.664.831,4.6a20.3,20.3,0,0,0,3.4,6.4,14.623,14.623,0,0,0,2.427,2.358,19.946,19.946,0,0,0,4.907,6.681c-.015.269-.031.521-.052.756v.017a10.659,10.659,0,0,1-.17,1.228h0a8.506,8.506,0,0,1-1.5,3.2c-1.447,2.149-5.2,2.792-8.733,3.768h0c-.505.139-1,.286-1.492.444-.309.1-.6.2-.884.295l-.166.056c-.213.072-.422.142-.622.212l-.336.117-.334.117c-.227.08-.445.158-.656.234a1.144,1.144,0,0,1-.034-.164c-5.011.676-10.526.786-13.046,6.952-1.034,2.535-1.241,6.415-2.5,11.874-1.725,7.457-4.692,26.276-4.644,32.574v0c-3.277,6.052-2.776,13.074-1.268,27.865.152,1.48-.052,2.9.1,4.1-1.272,3.481-.458,7.3.868,10.492,3.2,7.714,9.34,11.132,10.611,9.963s-.622-2.653-2.063-5.37c-2.269-4.291-1.564-6.085-1.746-7.927.993,1.41,1.6.786,3.242,4.9.681,1.707,2.268,1.21,2.242,1.056-.23-1.6-.675-3.349-1.073-5.162-1.444-6.583-3.672-6.351-4.605-8.468a9.11,9.11,0,0,1,.138-2.177c1.191-6.843,4.956-15.491,5.244-26.074a28.19,28.19,0,0,0-.043-3.439c2.948-7.232,4.406-21.1,6.387-28.606.054.274.213,1.517.442,3.421.011.091.023.191.034.286.023.2.047.393.072.6.012.1.025.209.037.314l.088.751c.008.068.016.136.025.2.032.278.066.567.1.861.017.144.033.295.051.44.031.268.063.54.1.818.016.139.031.281.048.422q.052.442.1.9c.007.066.015.133.023.2.041.359.083.725.125,1.1.008.066.015.13.023.2.1.856.2,1.74.295,2.645l.038.343c.034.307.069.614.1.925.018.162.036.323.054.486.037.334.075.67.112,1.006.014.122.027.242.04.365.046.417.092.836.139,1.256l.071.646c.029.262.058.524.086.786l.053.491q.05.446.1.893c.021.189.04.378.061.567.1.874.188,1.744.28,2.6l.065.61c.024.228.048.456.072.688.022.2.042.393.064.6q.045.443.091.879c.015.136.028.272.042.407q.065.615.126,1.212c.015.136.028.266.041.4.028.273.056.545.084.814.018.17.034.336.051.5q.034.341.067.672c.018.173.034.345.051.514.026.254.05.5.075.751.01.105.021.213.03.315.033.346.067.681.1,1.007.011.121.023.236.033.354.021.218.041.433.06.64.011.116.021.228.031.34q.028.311.054.605c.009.1.019.2.027.295.025.276.047.544.068.794a4.016,4.016,0,0,1,.006.444c0,.055-.007.12-.011.18-.007.123-.014.248-.028.387-.007.077-.017.16-.025.241-.016.141-.032.283-.052.437-.011.087-.024.178-.036.27-.024.164-.048.333-.075.509-.014.088-.028.178-.043.27q-.047.295-.1.605c-.013.077-.026.152-.039.23-.045.259-.1.526-.142.8L74.7,331c-.319,1.735-.705,3.627-.983,5.159l-.014.079c-.038.215-.075.423-.108.622-.008.046-.015.089-.022.135-.03.184-.059.363-.084.528-.007.043-.011.082-.017.123-.024.162-.045.32-.061.461h0a1.161,1.161,0,0,1-.011.119c0,.041-.01.1-.014.145-.008.087-.015.174-.019.249h0v.01c-.338,2.08-.4,4.633-.631,8.171a.516.516,0,0,0,.008.139c-.084.865-.157,1.7-.226,2.52-.02.229-.038.458-.058.688-.062.771-.121,1.529-.171,2.267-.015.214-.028.421-.041.633q-.051.8-.1,1.572c-.017.3-.033.6-.048.9-.029.614-.055,1.222-.077,1.819-.011.33-.019.656-.028.983-.009.353-.017.705-.023,1.053s-.013.672-.016,1v.007h0c-.071,8.563.884,16.034,2.894,27.789.95,5.54,4.225,15.387,3.723,19.72s-1.556,9.01-1.449,15.819c.161,10.28,5.333,18.94,5.522,36.239.009.959-1.889,4.744-2.135,6.509-.443,3.176-2.539,4.974-2.939,6.841-.611,2.859,7.293,3.745,9.432,3.884,1.761.115,6.211,1.527,6.319-2.168.039-1.288-1.474-4.693-1.829-8.3-.367-3.711-.629-5.682-.74-7.516-.491-7.838,4.22-21.33,4.749-33.03.41-9.094-1.451-13.309-1.792-18.11-.28-3.948,1.4-6.768,1.1-13.479-.086-1.965-.5-4.068-.13-6.179,1.436-8.3,1.489-18.506,1.94-27.126h0c.059-1.128.125-2.232.2-3.3v-.022h.133v.022c.078,1.068.142,2.172.2,3.3h0c.451,8.62.5,18.826,1.941,27.126.366,2.111-.043,4.212-.131,6.179-.3,6.712,1.376,9.531,1.1,13.479-.341,4.8-2.2,9.016-1.791,18.11.528,11.7,5.234,25.192,4.748,33.03-.11,1.834-.372,3.805-.74,7.516-.359,3.606-1.867,7.01-1.828,8.3.107,3.7,4.557,2.283,6.318,2.168,2.139-.139,10.044-1.025,9.432-3.884-.4-1.867-2.495-3.666-2.938-6.841-.246-1.769-2.145-5.55-2.135-6.509.188-17.3,5.361-25.959,5.521-36.239.107-6.805-.953-11.482-1.449-15.819s2.774-14.18,3.723-19.72c2.1-12.241,3.039-19.841,2.877-28.864,0-.307-.012-.614-.021-.925-.009-.358-.018-.714-.03-1.081q-.029-.867-.074-1.756c-.015-.319-.033-.647-.051-.972q-.04-.724-.088-1.474c-.016-.24-.029-.475-.046-.717-.05-.728-.108-1.479-.17-2.239q-.028-.346-.058-.7c-.07-.818-.142-1.652-.225-2.515a.56.56,0,0,0,.008-.139c-.229-3.537-.295-6.092-.632-8.171v-.01h0c0-.076-.011-.162-.019-.251,0-.046-.008-.091-.013-.141s-.007-.078-.012-.122h0c-.016-.14-.037-.295-.061-.461a.782.782,0,0,0-.017-.123c-.025-.165-.053-.344-.084-.528-.007-.045-.014-.088-.022-.135-.033-.2-.07-.407-.108-.622l-.014-.08c-.276-1.532-.662-3.423-.983-5.158l-.013-.067c-.049-.271-.1-.537-.142-.8-.014-.078-.027-.153-.039-.23q-.053-.309-.1-.6c-.016-.1-.029-.186-.043-.276q-.04-.259-.074-.5c-.013-.1-.026-.185-.037-.274-.02-.153-.036-.295-.051-.436-.009-.081-.019-.164-.026-.241-.013-.139-.021-.264-.028-.387,0-.06-.009-.125-.011-.18a4.014,4.014,0,0,1,.006-.444c.022-.254.045-.527.07-.81.007-.085.016-.174.023-.26.019-.21.038-.425.059-.648l.027-.295c.023-.24.045-.491.07-.739.008-.087.016-.172.025-.26q.1-1.032.212-2.179c.011-.11.022-.222.033-.332.028-.282.057-.568.085-.859.014-.137.028-.273.042-.411.028-.273.056-.551.084-.831.014-.138.028-.272.042-.411q.062-.6.127-1.222c.017-.163.034-.329.051-.491.026-.241.051-.481.077-.724.028-.262.055-.528.084-.792l.047-.45c.031-.295.063-.59.1-.884.009-.087.019-.176.028-.263.791-7.391,1.716-15.53,2.244-19.908h0c.089-.743.168-1.384.233-1.888,1.829,7.717,3.284,20.5,6.075,27.345a28.238,28.238,0,0,0-.044,3.439c.288,10.583,4.053,19.23,5.244,26.074a9.171,9.171,0,0,1,.139,2.177c-.934,2.116-3.162,1.887-4.606,8.468-.393,1.813-.842,3.563-1.073,5.162-.026.153,1.561.65,2.243-1.056,1.647-4.118,2.252-3.491,3.242-4.9-.181,1.842.524,3.635-1.746,7.927-1.436,2.716-3.331,4.2-2.063,5.37s7.406-2.249,10.611-9.963c1.326-3.189,2.14-7.01.868-10.492C141.346,350.254,141.142,348.839,141.293,347.356Z" transform="translate(307.019 1111.156)" fill="#ffeaa7"/>
    <path id="Trazado_11111" data-name="Trazado 11111" d="M411.07,278.887c1.915-22.335,2.555-32.938-1.61-42.079V236.8c.061-9.513-3.706-37.926-5.9-49.192-1.6-8.243-.682-12.638-3.181-17.931-4.039-8.553-9.712-9.924-15.841-10.924-.4-.154-.828-.313-1.269-.476-.355-.131-.722-.265-1.106-.4-.205-.075-.416-.143-.624-.214h0c-1.434-.484-2.924-.9-4.38-1.319l-.355-.1h0c-3.7-1.072-7.106-2.222-8.633-4.724a12.746,12.746,0,0,1-2.269-6.491c1.362-.844,2.194-1.831,3.746-5.291a18.865,18.865,0,0,0,1.1-3.254c.126-.156.257-.31.377-.47a23.744,23.744,0,0,0,3.545-7.252c.688-2.2-.125-3.135.867-5.216a8.726,8.726,0,0,0,.9-4.9c-.236-1.652.558-2.956.7-4.476.14-1.541-.529-3.01-.775-4.488-.26-1.572.152-2.969-.339-4.5-.371-1.159-1.507-2.072-2.095-3.064-.734-1.239-.972-2.248-1.8-3.439-.912-1.315-2.089-1.534-3.327-2.3-1.722-1.069-2.432-2.175-4.352-2.63a36.8,36.8,0,0,0-19.517,0c-1.92.455-2.629,1.561-4.352,2.63-1.237.766-2.415.983-3.326,2.3-.826,1.195-1.063,2.2-1.8,3.439-.59.991-1.721,1.9-2.093,3.064-.491,1.53-.08,2.926-.34,4.5-.247,1.474-.916,2.948-.775,4.488.137,1.52.93,2.825.7,4.476a8.726,8.726,0,0,0,.9,4.9c.991,2.081.184,3.021.867,5.216A23.744,23.744,0,0,0,338.264,136c.121.161.253.314.379.472a18.925,18.925,0,0,0,1.1,3.252c1.552,3.46,2.385,4.447,3.746,5.291a12.746,12.746,0,0,1-2.269,6.491c-1.531,2.508-4.953,3.658-8.66,4.732l-.271.08c-1.474.423-2.981.843-4.431,1.333h0c-.212.071-.423.141-.633.216-.393.14-.764.276-1.124.409-.28.1-.543.2-.807.3l-.169.063h0l-.276.1c-6.128,1-11.8,2.371-15.84,10.924-2.5,5.293-1.578,9.689-3.182,17.931-2.191,11.263-5.958,39.679-5.9,49.192v.007c-4.163,9.138-3.526,19.749-1.611,42.079.2,2.236-.067,4.375.126,6.19-1.616,5.257-.584,11.027,1.1,15.843,4.069,11.648,11.864,16.81,13.478,15.046s-.786-4.01-2.614-8.109c-2.882-6.485-1.989-9.19-2.219-11.972,1.262,2.13,2.028,1.179,4.127,7.4.864,2.575,2.879,1.828,2.849,1.593-.295-2.414-.856-5.056-1.36-7.793-1.834-9.924-4.663-9.585-5.85-12.768a16.442,16.442,0,0,1,.174-3.31c1.513-10.331,6.3-23.39,6.661-39.374a51.129,51.129,0,0,0-.056-5.185c3.215-9.37,5.034-26.112,7.074-37.845.167.983.361,2.024.573,3.09,0,.027.011.054.017.082.169.848.351,1.709.545,2.575.013.055.026.11.037.166.2.852.393,1.7.612,2.543.012.048.026.1.038.143.22.855.451,1.7.694,2.507s.456,1.637.655,2.477c.048.2.088.414.135.62.148.665.295,1.335.415,2.015.032.179.062.361.1.54.131.749.252,1.5.358,2.26.013.1.026.2.039.295q.177,1.31.312,2.634a.206.206,0,0,0,.006.06,194.2,194.2,0,0,1,.476,21.228v1.387c0,.454,0,.893.014,1.3.135,6.4-.8,6.485-1.785,9.976-.133.471-.259.928-.381,1.376l-.035.131q-.167.613-.323,1.2l-.014.055c-.211.8-.407,1.583-.59,2.358h0v.008l-.01.043q-.151.652-.295,1.308l-.024.106h0c-.014.063-.026.128-.038.19-.077.37-.151.746-.223,1.123-.021.114-.043.228-.064.343q-.1.56-.2,1.139c-.016.092-.032.178-.047.27v.011l-.006.039c-.036.228-.071.466-.106.7v.026h0c-.042.286-.085.572-.126.869v.02l-.012.091v.014c-.01.071-.018.145-.028.217-.064.48-.125.983-.184,1.492-.023.2-.046.393-.069.6a.816.816,0,0,1-.011.1l-.007.068c-.029.278-.058.572-.087.862-.01.1-.021.2-.03.3-.008.066-.012.131-.019.2l-.012.132c-.025.261-.048.532-.072.8-.012.129-.024.252-.034.384,0,.038-.007.079-.011.119-.011.132-.022.273-.032.406-.016.2-.032.4-.048.609-.012.153-.025.295-.036.455v.008c-.014.182-.028.379-.04.566-.021.295-.042.59-.063.884,0,.032,0,.061-.007.1-.006.073-.009.147-.015.222-.016.228-.03.474-.045.709-.02.308-.039.611-.059.93,0,.066-.008.134-.012.2-.034.578-.069,1.169-.1,1.786a.958.958,0,0,0,.01.21c-.069.847-.134,1.67-.2,2.491-.022.277-.042.547-.064.82-.041.532-.082,1.061-.121,1.582-.024.32-.048.64-.072.956q-.055.74-.106,1.467-.032.442-.064.884c-.044.624-.086,1.238-.127,1.847l-.028.41c-.048.732-.1,1.451-.137,2.162-.013.211-.025.421-.037.631-.03.528-.061,1.053-.089,1.572-.012.22-.024.438-.034.657q-.041.786-.078,1.559c-.009.188-.019.378-.027.566q-.047,1.031-.085,2.046v.009h0c-.491,13.118.147,24.367,2.745,42.387,1.2,8.366,6.567,23.448,5.934,29.994s-1.977,13.6-1.84,23.876c.2,15.524,6.774,28.6,7.011,54.728.014,1.45-2.4,7.164-2.711,9.825-.563,4.8-3.226,7.513-3.734,10.331-.775,4.316,9.263,5.656,11.979,5.865,2.236.175,7.889,2.309,8.024-3.274.05-1.945-1.867-7.085-2.321-12.529-.467-5.607-.8-8.582-.941-11.353-.617-11.836,5.363-32.213,6.033-49.881.521-13.733-1.842-20.1-2.276-27.348-.357-5.961,1.769-10.218,1.393-20.355-.111-2.968-.632-6.143-.167-9.334,2.094-14.383,2.831-32.719,2.758-46.552l.018.007a6.321,6.321,0,0,0,1.776.533h.022a5.164,5.164,0,0,0,1.463,0h.022a5.93,5.93,0,0,0,.844-.186l.151-.048a6.7,6.7,0,0,0,.78-.295l.018-.007c-.073,13.834.664,32.168,2.759,46.552.464,3.187-.056,6.362-.167,9.334-.38,10.135,1.749,14.394,1.393,20.355-.433,7.25-2.8,13.615-2.276,27.348.669,17.668,6.649,38.045,6.031,49.881-.142,2.772-.474,5.746-.94,11.353-.456,5.444-2.372,10.584-2.321,12.529.136,5.583,5.789,3.449,8.024,3.274,2.717-.209,12.755-1.548,11.979-5.865-.506-2.819-3.168-5.536-3.734-10.331-.312-2.666-2.725-8.379-2.711-9.825.238-26.124,6.808-39.2,7.011-54.728.137-10.276-1.21-17.339-1.841-23.876s4.73-21.628,5.936-29.994c2.737-18.995,3.293-30.468,2.653-44.534l-.015-.3q-.041-.91-.09-1.833c-.009-.156-.017-.315-.026-.473-.031-.59-.067-1.194-.1-1.8-.009-.143-.017-.287-.026-.431-.045-.739-.091-1.485-.142-2.243-.006-.083-.012-.167-.017-.25q-.065-.976-.136-1.974c-.023-.318-.046-.643-.069-.966-.031-.435-.064-.873-.1-1.318q-.041-.56-.084-1.13-.048-.63-.1-1.269c-.029-.38-.059-.758-.088-1.144-.062-.786-.125-1.572-.19-2.385a.941.941,0,0,0,.01-.209c-.036-.674-.074-1.322-.111-1.948v-.015l-.009-.134c-.014-.22-.027-.427-.04-.642-.021-.322-.04-.652-.061-.961v0c-.006-.1-.013-.181-.02-.273-.019-.277-.037-.541-.057-.809-.014-.2-.028-.416-.043-.612h0c-.01-.134-.021-.259-.03-.393-.022-.271-.042-.536-.064-.8-.01-.122-.019-.246-.029-.362-.013-.157-.027-.3-.04-.457-.022-.248-.043-.491-.066-.734-.007-.078-.014-.162-.021-.239v-.01c-.02-.2-.038-.377-.058-.569-.024-.241-.048-.484-.073-.716,0-.031-.007-.066-.01-.1h0l-.013-.1c-.011-.107-.024-.207-.035-.312q-.09-.808-.188-1.559c-.015-.115-.029-.232-.044-.344v-.022c-.006-.046-.012-.1-.019-.139v-.014c-.04-.295-.083-.583-.126-.869h0V264.9c-.033-.225-.066-.452-.1-.67a.377.377,0,0,0-.01-.067v-.014c-.015-.092-.031-.178-.046-.27q-.1-.58-.2-1.139c-.021-.115-.043-.229-.064-.343q-.1-.543-.214-1.081c-.015-.071-.028-.143-.042-.213l0-.021-.024-.106q-.143-.672-.295-1.344v-.011h0c-.181-.774-.377-1.554-.59-2.358l-.014-.055q-.156-.59-.323-1.2l-.035-.131c-.122-.446-.249-.9-.381-1.376-.983-3.5-1.92-3.58-1.784-9.976.009-.435.013-.906.014-1.4v-.4q0-.616-.006-1.277v-.181c-.023-2.613-.087-5.733-.068-9.119v-.121c0-.462.009-.938.014-1.409.1-6.794.61-14.424,2.547-20.908a99.169,99.169,0,0,0,2.515-11.1c2.043,11.733,3.861,28.475,7.074,37.845a50.776,50.776,0,0,0-.055,5.185c.365,15.984,5.147,29.043,6.66,39.374a16.372,16.372,0,0,1,.174,3.31c-1.186,3.183-4.016,2.842-5.849,12.768-.505,2.736-1.07,5.378-1.361,7.793-.032.235,1.982.983,2.849-1.593,2.095-6.218,2.861-5.271,4.127-7.4-.231,2.783.662,5.492-2.22,11.972-1.824,4.1-4.23,6.339-2.614,8.109s9.409-3.4,13.478-15.046c1.684-4.814,2.717-10.587,1.1-15.843C411.141,283.257,410.883,281.118,411.07,278.887Z" transform="translate(302.725 1113.214)" fill="#ffeaa7"/>
    <path id="Trazado_11113" data-name="Trazado 11113" d="M757.534,241.453c2.5-26.344,3.331-38.849-2.1-49.63v-.007c.081-11.22.081-30.692-3.242-41.041-3.054-9.513-3.76-13.455-3.689-20.6a45.548,45.548,0,0,0-2.628-16.946c-3.614-11.377-16.682-13.292-23.778-13.579h0l-.06-.02h0l-.059-.021-.034-.012c-.814-.277-1.67-.562-2.6-.863-1.1-.357-2.24-.677-3.384-.983h-.008c-.14-.036-.277-.075-.417-.112h0c-.695-.184-1.39-.364-2.082-.542l-.143-.037-.982-.255c-4.819-1.263-9.263-2.619-11.254-5.569-2.435-3.609-2.861-5.288-3.083-9.334h0c0-.092-.01-.191-.015-.286-.009-.156-.017-.31-.025-.475-.006-.139-.013-.283-.019-.426,0-.092-.009-.189-.013-.283a10.74,10.74,0,0,0,1.446-3.3c.255-.937.491-1.892.712-2.854.295-.337.59-.682.862-1.039a24.7,24.7,0,0,0,3.764-7.581c.726-2.3-.133-3.279.921-5.454a9,9,0,0,0,.956-5.129c-.251-1.725.59-3.089.74-4.679.147-1.61-.563-3.144-.824-4.693-.277-1.644.161-3.1-.361-4.7-.393-1.211-1.6-2.162-2.224-3.2-.78-1.3-1.032-2.35-1.908-3.6-.969-1.376-2.22-1.6-3.537-2.405-1.829-1.117-2.582-2.275-4.618-2.751a39.683,39.683,0,0,0-20.732,0c-2.039.476-2.792,1.633-4.618,2.751-1.315.8-2.565,1.03-3.537,2.405-.878,1.249-1.128,2.3-1.909,3.6-.625,1.037-1.828,1.991-2.224,3.2-.522,1.6-.084,3.061-.361,4.7-.262,1.547-.972,3.082-.823,4.693.146,1.59.988,2.954.739,4.679a9.006,9.006,0,0,0,.956,5.129c1.053,2.175.2,3.158.921,5.454a24.694,24.694,0,0,0,3.763,7.581c.273.357.563.7.863,1.04.223.962.456,1.917.711,2.849a10.74,10.74,0,0,0,1.446,3.3v.061c-.021.471-.04.914-.064,1.331h0c-.22,4.1-.637,5.779-3.087,9.41-1.991,2.948-6.435,4.306-11.254,5.569l-.983.255-.141.037c-.688.179-1.387.359-2.082.542h0c-.14.037-.277.076-.417.112h-.008c-1.144.308-2.282.628-3.384.983-.929.3-1.783.59-2.6.863l-.034.012-.059.021h0l-.06.02h0c-7.1.287-20.166,2.2-23.778,13.579a45.529,45.529,0,0,0-2.628,16.946c.07,7.149-.636,11.091-3.689,20.6-3.322,10.349-3.322,29.821-3.242,41.041v.007c-5.432,10.781-4.6,23.286-2.1,49.63.251,2.636-.087,5.159.162,7.3-2.109,6.2-.76,13,1.437,18.686,5.312,13.738,15.486,19.83,17.6,17.746s-1.035-4.729-3.413-9.561c-3.763-7.645-2.6-10.84-2.9-14.125,1.649,2.515,2.653,1.4,5.382,8.731,1.127,3.04,3.757,2.155,3.715,1.881-.38-2.849-1.116-5.966-1.776-9.192-2.393-11.705-6.085-11.305-7.634-15.057a17.35,17.35,0,0,1,.227-3.906c1.974-12.184,8.216-27.587,8.694-46.437a54.5,54.5,0,0,0-.069-6.061c3.6-9.03,7.362-25.362,9.815-39.727h0c.166.711.342,1.429.531,2.144v.006h0c.176.67.364,1.339.561,2v.014c.014.044.026.088.039.133l.007.02c.2.652.4,1.3.625,1.925v.007c.012.033.025.067.036.1h0c.229.651.47,1.285.724,1.894,5.944,14.21,3.69,32.195,3.895,40.95.176,7.543-1.047,7.642-2.329,11.764-.517,1.659-.972,3.172-1.376,4.638l-.011.041-.024.084-.009.031q-.171.625-.332,1.242h0v.011c-.007.029-.015.056-.022.085l-.006.021-.023.089-.009.034q-.181.709-.349,1.421v.029l-.008.033v.036c-.1.419-.2.841-.283,1.267l-.009.04c-.007.034-.014.069-.022.1v.017c-.024.109-.045.218-.069.328h0q-.107.523-.207,1.058l-.007.031c0,.028-.011.058-.017.086v.006q-.059.316-.117.642v.006h0v.014q-.073.408-.141.826v.019a.279.279,0,0,1-.01.055h0c-.423,2.569-.765,5.473-1.068,9.118v.048c-.049.59-.1,1.2-.143,1.83,0,.072-.01.143-.017.216,0,.035,0,.075-.008.11q-.073.983-.141,2.038v.046c-.044.673-.088,1.362-.132,2.082a.966.966,0,0,0,.014.251c-.089.994-.174,1.965-.257,2.93-.027.32-.055.635-.082.951-.056.648-.11,1.29-.163,1.924-.029.35-.059.7-.086,1.043q-.08.958-.153,1.894c-.024.288-.046.581-.069.867q-.215,2.751-.393,5.348c-.012.174-.023.346-.033.519q-.068,1.034-.13,2.048l-.041.7q-.054.944-.1,1.877c-.011.222-.023.447-.034.668q-.054,1.088-.1,2.162c0,.086-.008.173-.012.258v.044c-.634,15.453.2,28.714,3.584,49.949,1.572,9.868,8.575,27.656,7.746,35.371s-2.58,16.045-2.4,28.166c.265,18.31,8.843,33.735,9.153,64.544.018,1.711-3.13,8.45-3.537,11.594-.734,5.657-4.209,8.863-4.87,12.184-1.012,5.091,12.092,6.669,15.638,6.918,2.918.2,10.3,2.721,10.475-3.863.065-2.3-2.436-8.352-3.03-14.778-.609-6.611-1.042-10.12-1.228-13.389-.806-13.959,7-37.989,7.874-58.828.679-16.2-2.4-23.7-2.971-32.253-.465-7.029,2.315-12.056,1.82-24.007-.146-3.5-.823-7.244-.218-11,2.732-16.963,3.694-38.585,3.6-54.9h.01a8.968,8.968,0,0,0,2.332.634h.028a7.9,7.9,0,0,0,1.91,0h.027a8.429,8.429,0,0,0,1.105-.221c.063-.017.126-.035.189-.054a9.318,9.318,0,0,0,1.03-.356l.019-.007q-.009,1.458,0,2.972,0,1.539.018,3.129h0c.149,15.351,1.179,33.877,3.586,48.8.605,3.761-.072,7.5-.218,11-.491,11.952,2.284,16.978,1.82,24.007-.567,8.548-3.65,16.057-2.971,32.253.874,20.839,8.68,44.869,7.874,58.828-.187,3.27-.619,6.78-1.228,13.389-.6,6.423-3.095,12.483-3.03,14.778.178,6.583,7.557,4.067,10.475,3.863,3.545-.25,16.65-1.828,15.638-6.918-.661-3.324-4.137-6.529-4.87-12.184-.409-3.144-3.557-9.88-3.537-11.594.271-30.787,8.848-46.213,9.114-64.524.178-12.121-1.58-20.449-2.4-28.166s6.172-25.506,7.745-35.372c3.57-22.387,4.3-35.914,3.468-52.487-.008-.153-.017-.309-.025-.463q-.053-1.026-.114-2.068c-.012-.2-.023-.4-.035-.6q-.063-1.064-.136-2.149c-.01-.144-.018-.289-.029-.435q-.176-2.62-.393-5.388c-.021-.264-.042-.535-.064-.8q-.077-.97-.158-1.96c-.028-.336-.056-.676-.084-1.016-.052-.628-.106-1.266-.161-1.907-.028-.333-.057-.662-.086-1-.082-.955-.168-1.922-.255-2.91a.98.98,0,0,0,.013-.246c-.044-.733-.089-1.435-.135-2.12,0-.079-.01-.16-.015-.24q-.066-.983-.135-1.907c0-.031,0-.066-.007-.1v-.009c0-.045-.007-.086-.01-.132q-.073-.96-.145-1.857v-.008q-.077-.924-.157-1.786v-.05c-.055-.579-.11-1.135-.167-1.676a.173.173,0,0,0,0-.05c-.058-.536-.115-1.057-.176-1.562v-.031c-.169-1.426-.353-2.732-.555-3.962h0a.341.341,0,0,0-.01-.055v-.019c-.046-.274-.091-.544-.138-.811v-.036q-.058-.324-.117-.642v-.008c-.006-.029-.012-.058-.017-.086L725,223.3q-.1-.535-.208-1.058h0v-.009c-.022-.107-.043-.213-.066-.319V221.9c-.008-.035-.015-.07-.022-.1l-.009-.04q-.138-.64-.283-1.267v-.036l-.008-.033v-.009l0-.02c-.112-.477-.228-.949-.349-1.423l-.008-.032-.023-.089,0-.017c-.008-.031-.016-.062-.025-.1v-.006h0q-.159-.617-.332-1.242l-.008-.031-.024-.085-.011-.041c-.407-1.466-.861-2.978-1.376-4.638-1.277-4.122-2.505-4.225-2.329-11.764.205-8.755-2.05-26.741,3.895-40.95.254-.609.491-1.243.724-1.894h0c.012-.032.025-.066.035-.1v-.007c.22-.629.428-1.277.625-1.925l.007-.02c.013-.044.026-.088.039-.133v-.014c.2-.66.384-1.329.561-2h0v-.006c.188-.715.365-1.433.531-2.144h0c2.456,14.365,6.211,30.7,9.815,39.727a54.481,54.481,0,0,0-.069,6.061c.477,18.85,6.72,34.252,8.694,46.437a17.375,17.375,0,0,1,.227,3.906c-1.549,3.752-5.241,3.352-7.634,15.057-.66,3.226-1.4,6.344-1.776,9.192-.042.274,2.588,1.159,3.715-1.881,2.734-7.333,3.734-6.216,5.382-8.731-.3,3.285.866,6.485-2.9,14.125-2.379,4.832-5.522,7.475-3.413,9.561s12.282-4.008,17.6-17.746c2.2-5.681,3.546-12.485,1.437-18.686C757.623,246.61,757.286,244.089,757.534,241.453Z" transform="translate(132.234 1114.345)" fill="#ffeaa7"/>
    <path id="Trazado_11114" data-name="Trazado 11114" d="M235.762,601a43.682,43.682,0,0,0,.612-14.964,37.837,37.837,0,0,0-4.506-13.587c-1.308-2.26-3.326-4.211-4.471-6.544-2.014-4.1-4.611-8.319-9.026-10.095-3.073-1.236-6.38-1.691-9.471-2.893a16.143,16.143,0,0,0,3.32-3.046,14.982,14.982,0,0,0,2.15-3.3,3.018,3.018,0,0,0,1.524-1.552,32.522,32.522,0,0,0,.953-3.439c.141-.442,1.466-1.94,1.738-2.742.333-.982.57-2.939-.147-3.508a1.965,1.965,0,0,0-1.683-.317c.319-5.224-.2-11.392-1.318-14.767-1.363-4.088-5.7-9.672-15.812-9.991v-.015h-.914v.015c-10.107.318-14.449,5.9-15.812,9.991-1.125,3.376-1.636,9.543-1.317,14.767a1.965,1.965,0,0,0-1.683.317c-.717.568-.481,2.521-.147,3.508.271.8,1.6,2.3,1.737,2.742a32.525,32.525,0,0,0,.953,3.439,3.02,3.02,0,0,0,1.524,1.552,14.981,14.981,0,0,0,2.15,3.3,15.994,15.994,0,0,0,3.546,3.191c-1.425.483-2.858.942-4.313,1.326a42.183,42.183,0,0,0-5.089,1.459c-4.481,1.8-7.117,6.082-9.162,10.247-1.163,2.367-3.212,4.346-4.538,6.642a38.416,38.416,0,0,0-4.574,13.791,44.331,44.331,0,0,0,.621,15.19c-3.074,2.906-2.041,8.548-1.706,9.13.672,1.165,4.648,2.751,6.445,2.3s2.9-1.1,2.547-1.947a2,2,0,0,0-2.538-.817.1.1,0,0,1-.1-.012c-.434-.359.018-1.812.147-2.29s.531-1.791.871-1.474a2.26,2.26,0,0,1,.575,1.7c.022.714.092,1.623,1.113,1.748.833.1,1.225-1.348,1.43-1.9a3.537,3.537,0,0,0,.253-1.6,14.266,14.266,0,0,0-1.547-5,34,34,0,0,0,3.032-10.513,31.253,31.253,0,0,1,.752-4.161,18.555,18.555,0,0,1,2.788-3.614,16.421,16.421,0,0,0,2.988-4.062c-.8,5.069-1.861,10.258-1.861,14.213,0,6.447,1.1,14.878,1.053,15.328s-5.146,10.2-5.746,16.045c-.393,3.807-2.283,10.793-1.236,17.981.561,3.851,2.3,7.762,3.982,11.265,4.822,10.047,6.936,12.546,7.682,13.477.732.914-.437,2.6-1.652,5.214a11.359,11.359,0,0,0-1.241,4.191s-1.24,1.794-.688,2.76c.412.717,2.113-.232,2.566-1.036.368-.653,1.572-.59,2.776-1.343s2.118-2.1,3.1-2.57c2.935-1.4,5.349-3.672,5.358-5.36a6.82,6.82,0,0,0-1.6-4.627c-.866-1.081-.462-8.661-2.843-16.961-.437-1.525-1.643-4.172-1.66-4.692-.016-.449,2.29-3.648,4.357-8.253,2.474-5.511,3.814-8.908,4.735-11.5a10.744,10.744,0,0,0,2.593.324h.463a10.738,10.738,0,0,0,2.593-.324c.92,2.584,2.26,5.982,4.735,11.5,2.063,4.6,4.371,7.8,4.357,8.253-.018.52-1.222,3.167-1.66,4.692-2.382,8.3-1.978,15.878-2.843,16.961a6.822,6.822,0,0,0-1.6,4.627c.009,1.688,2.423,3.962,5.358,5.36.983.469,1.905,1.821,3.1,2.57s2.407.688,2.776,1.343c.453.8,2.155,1.752,2.566,1.036.555-.966-.688-2.76-.688-2.76a11.359,11.359,0,0,0-1.241-4.191c-1.215-2.616-2.385-4.3-1.652-5.214.746-.931,2.859-3.43,7.682-13.477,1.683-3.506,3.421-7.414,3.982-11.265,1.047-7.184-.846-14.169-1.236-17.981-.6-5.848-5.7-15.595-5.746-16.045s1.054-8.879,1.054-15.328c0-4.112-1.474-9.559-2.489-14.819a16.392,16.392,0,0,0,3.059,4.222,18.291,18.291,0,0,1,2.751,3.56,31.279,31.279,0,0,1,.741,4.1c.67,4.357,1.4,7.554,2.986,10.357a14.05,14.05,0,0,0-1.522,4.928,3.475,3.475,0,0,0,.25,1.572c.2.541.59,1.965,1.408,1.867,1.006-.123,1.081-1.018,1.1-1.721a2.227,2.227,0,0,1,.567-1.67c.335-.311.73.983.858,1.453s.573,1.9.145,2.26a.1.1,0,0,1-.1.012,1.973,1.973,0,0,0-2.5.8c-.344.836.738,1.474,2.508,1.919s5.688-1.121,6.35-2.269C237.769,609.424,238.787,603.864,235.762,601Z" transform="translate(81.505 907.052)" fill="#ffeaa7"/>
    <g id="Rectángulo_1797" data-name="Rectángulo 1797" transform="translate(358 1322.051)" fill="none" stroke="#7b1fa2" stroke-width="2">
      <rect width="91" height="267" stroke="none"/>
      <rect x="1" y="1" width="89" height="265" fill="none"/>
    </g>
    <path id="Trazado_11115" data-name="Trazado 11115" d="M-74,288.367H16.66" transform="translate(431.875 1251.921)" fill="none" stroke="#7b1fa2" stroke-width="2"/>
    <path id="Trazado_11116" data-name="Trazado 11116" d="M-74,288.367H16.66" transform="translate(431.875 1208.689)" fill="none" stroke="#7b1fa2" stroke-width="2"/>
    <path id="Trazado_11117" data-name="Trazado 11117" d="M-74,288.367H16.66" transform="translate(431.875 1165.458)" fill="none" stroke="#7b1fa2" stroke-width="2"/>
    <path id="Trazado_11118" data-name="Trazado 11118" d="M-74,288.367H16.66" transform="translate(431.875 1122.226)" fill="none" stroke="#7b1fa2" stroke-width="2"/>
    <path id="Trazado_11119" data-name="Trazado 11119" d="M-74,288.367H16.66" transform="translate(431.875 1078.994)" fill="none" stroke="#7b1fa2" stroke-width="2"/>
    <path id="Trazado_11110" data-name="Trazado 11110" d="M269.668,313.364c1.727-18.538,2.3-27.337-1.454-34.925v0c.055-7.895-3.341-31.481-5.321-40.828-1.447-6.842-1.684-11.705-2.871-14.883-2.8-7.485-8.72-8.261-14.309-9.073-.654-.229-1.36-.47-2.128-.723-1.447-.477-2.98-.866-4.472-1.26H239.1l-.316-.085c-3.35-.892-6.446-1.846-7.83-3.93a10.219,10.219,0,0,1-2.1-6.018,14.5,14.5,0,0,0,4.43-4.95,19.347,19.347,0,0,0,.859-2.11,16,16,0,0,0,1.081-1.2,21.6,21.6,0,0,0,3.545-6.773c.688-2.052-.125-2.929.867-4.872a7.687,7.687,0,0,0,.9-4.581c-.236-1.543.558-2.761.7-4.181.14-1.439-.529-2.811-.775-4.193-.26-1.469.152-2.773-.339-4.2-.371-1.081-1.507-1.935-2.095-2.86-.734-1.158-.972-2.1-1.8-3.216-.912-1.228-2.089-1.433-3.327-2.149-1.722-1-2.432-2.032-4.352-2.456a39.292,39.292,0,0,0-19.517,0c-1.92.424-2.629,1.458-4.352,2.456-1.237.716-2.415.921-3.326,2.149-.826,1.116-1.063,2.057-1.8,3.216-.59.926-1.721,1.777-2.093,2.86-.491,1.43-.08,2.733-.34,4.2-.247,1.381-.916,2.751-.775,4.193.137,1.42.93,2.638.7,4.181a7.687,7.687,0,0,0,.9,4.581c.991,1.943.184,2.821.867,4.872a21.6,21.6,0,0,0,3.553,6.768,15.657,15.657,0,0,0,1.081,1.2,19.113,19.113,0,0,0,.858,2.109,14.486,14.486,0,0,0,4.429,4.95,10.218,10.218,0,0,1-2.1,6.018c-1.376,2.077-4.454,3.032-7.789,3.921h0l-.261.07c-1.331.353-2.7.7-4.007,1.108h0l-.071.023c-.167.052-.335.1-.5.156l-.244.083-.066.022c-.24.08-.48.159-.708.237h-.006q-.577.2-1.1.38c-5.589.812-11.513,1.588-14.308,9.073-1.187,3.178-1.425,8.04-2.872,14.883-1.978,9.347-5.376,32.933-5.321,40.828v0c-3.756,7.588-3.181,16.388-1.454,34.925.174,1.855-.059,3.635.114,5.141-1.458,4.364-.527,9.152.993,13.149,3.672,9.668,10.71,13.952,12.162,12.489s-.712-3.328-2.358-6.73c-2.6-5.378-1.794-7.627-2-9.938,1.139,1.769,1.83.983,3.72,6.145.78,2.138,2.6,1.516,2.568,1.323-.263-2-.772-4.2-1.228-6.469-1.657-8.253-4.21-7.959-5.279-10.611a12.551,12.551,0,0,1,.158-2.73c1.366-8.577,5.68-19.415,6.009-32.681a38.437,38.437,0,0,0-.049-4.3c2.9-7.776,4.542-21.67,6.387-31.406,1.069,14.257,3.129,28.69,3.489,35.944.013.273.026.547.034.8,0,.1,0,.2.008.295.01.379.015.743.012,1.068-.025,2.444.259,5.377-.628,8.279-.12.393-.234.771-.345,1.144l-.024.081c-.438,1.474-.806,2.812-1.121,4.18h0v.017c-.01.045-.021.09-.03.136q-.118.518-.226,1.045l-.04.2q-.116.58-.222,1.179l-.006.028h0v.006c-.176,1.01-.333,2.094-.475,3.292v.025l-.007.064-.008.058v.011c-.03.262-.06.536-.089.811v.035c-.014.131-.028.259-.041.393-.026.248-.05.506-.075.765-.019.2-.036.393-.055.59-.021.238-.042.48-.063.727s-.041.5-.061.761c-.018.229-.036.458-.054.7-.024.317-.046.651-.07.983-.013.2-.028.388-.04.59-.036.553-.073,1.125-.108,1.725a.752.752,0,0,0,.009.174c0,.02,0,.036,0,.056s0,.06-.008.091c-.06.688-.116,1.361-.17,2.026-.016.205-.032.408-.048.611q-.061.765-.115,1.511l-.044.6q-.062.87-.116,1.717c-.006.086-.013.175-.018.26-.043.688-.083,1.353-.119,2.015,0,.057,0,.113-.008.171q-.049.884-.085,1.757l-.015.347q-.035.837-.063,1.659c0,.071,0,.142-.007.213-.393,12.438.665,22.192,3.242,38.638,1.088,6.945,4.838,19.284,4.267,24.717s-1.784,11.291-1.661,19.82c.184,12.886,6.113,23.74,6.328,45.422.012,1.2-2.162,5.946-2.447,8.155-.508,3.98-2.909,6.235-3.367,8.577-.7,3.582,8.359,4.694,10.808,4.867,2.018.145,7.12,1.915,7.241-2.718.046-1.613-1.682-5.88-2.094-10.4-.422-4.653-.721-7.121-.849-9.422-.557-9.825,4.838-26.734,5.442-41.4.471-11.4-1.662-16.681-2.053-22.7-.322-4.947,1.6-8.482,1.257-16.893-.1-2.466-.569-5.1-.151-7.745,1.89-11.938,2.555-27.155,2.49-38.635h0a6.117,6.117,0,0,0,1.618.448h.02a5.175,5.175,0,0,0,1.32,0h.02a5.667,5.667,0,0,0,.766-.156l.124-.035a6.887,6.887,0,0,0,.728-.256h0c-.066,11.481.6,26.7,2.49,38.635.418,2.646-.05,5.279-.151,7.745-.342,8.411,1.579,11.946,1.258,16.893-.393,6.018-2.524,11.3-2.054,22.7.6,14.665,6,31.575,5.442,41.4-.128,2.3-.427,4.768-.848,9.422-.412,4.52-2.141,8.786-2.095,10.4.122,4.633,5.223,2.863,7.241,2.718,2.45-.173,11.51-1.284,10.808-4.867-.458-2.341-2.859-4.6-3.367-8.577-.282-2.211-2.456-6.954-2.447-8.155.215-21.682,6.144-32.536,6.328-45.422.123-8.528-1.092-14.389-1.661-19.82s3.179-17.772,4.268-24.717c2.58-16.469,3.635-26.226,3.242-38.691v-.086q-.029-.909-.069-1.838c0-.062-.006-.124-.008-.185-.058-1.314-.13-2.661-.218-4.053,0-.047-.007-.1-.01-.144q-.059-.906-.126-1.841c-.012-.177-.026-.356-.038-.535q-.059-.791-.123-1.605c-.014-.179-.028-.357-.042-.537-.058-.708-.117-1.427-.182-2.162a.75.75,0,0,0,.009-.174c-.035-.6-.072-1.172-.108-1.726-.013-.2-.027-.382-.039-.574-.024-.343-.047-.688-.071-1.011-.018-.232-.035-.455-.053-.68s-.035-.451-.053-.668l-.006-.068-.008-.092q-.029-.341-.058-.667c-.016-.168-.03-.334-.046-.5v-.051l0-.042c-.025-.259-.049-.518-.075-.765-.01-.1-.02-.2-.03-.295v-.033l-.018-.154c-.027-.249-.053-.5-.081-.739v-.038c-.006-.052-.013-.1-.019-.154q-.107-.9-.228-1.729v-.01q-.117-.8-.245-1.539l-.006-.035h0v-.012l0-.026c-.069-.393-.141-.77-.216-1.145-.012-.063-.025-.125-.038-.188v-.034c-.071-.344-.143-.688-.221-1.023-.009-.038-.017-.079-.026-.117v-.02l-.006-.025c-.4-1.734-.884-3.418-1.489-5.4-.884-2.9-.6-5.835-.628-8.279,0-.347,0-.732.014-1.14v-.15c.01-.326.027-.688.046-1.048.382-7.3,2.419-21.625,3.479-35.765,1.843,9.736,3.484,23.63,6.387,31.406a38.69,38.69,0,0,0-.049,4.3c.329,13.264,4.644,24.1,6.009,32.681a12.553,12.553,0,0,1,.158,2.73c-1.069,2.653-3.623,2.364-5.279,10.611-.456,2.272-.965,4.466-1.228,6.469-.029.2,1.788.816,2.568-1.322,1.889-5.162,2.581-4.375,3.72-6.145-.207,2.311.6,4.56-2,9.938-1.645,3.4-3.816,5.261-2.358,6.73s8.49-2.821,12.162-12.489c1.52-4,2.451-8.785.993-13.149C269.73,317,269.5,315.219,269.668,313.364Z" transform="translate(304.999 1112.163)" fill="#ffeaa7"/>
    <g id="Rectángulo_1798" data-name="Rectángulo 1798" transform="translate(478 1265.051)" fill="none" stroke="#7b1fa2" stroke-width="2">
      <rect width="91" height="324" stroke="none"/>
      <rect x="1" y="1" width="89" height="322" fill="none"/>
    </g>
    <path id="Trazado_11120" data-name="Trazado 11120" d="M-74,288.367H16.66" transform="translate(551.745 1247.139)" fill="none" stroke="#7b1fa2" stroke-width="2"/>
    <path id="Trazado_11121" data-name="Trazado 11121" d="M-74,288.367H16.66" transform="translate(551.745 1202.925)" fill="none" stroke="#7b1fa2" stroke-width="2"/>
    <path id="Trazado_11122" data-name="Trazado 11122" d="M-74,288.367H16.66" transform="translate(551.745 1115.479)" fill="none" stroke="#7b1fa2" stroke-width="2"/>
    <path id="Trazado_11123" data-name="Trazado 11123" d="M-74,288.367H16.66" transform="translate(551.745 1071.264)" fill="none" stroke="#7b1fa2" stroke-width="2"/>
    <path id="Trazado_11124" data-name="Trazado 11124" d="M-74,288.367H16.66" transform="translate(551.745 1028.032)" fill="none" stroke="#7b1fa2" stroke-width="2"/>
    <path id="Trazado_11125" data-name="Trazado 11125" d="M-74,288.367H16.66" transform="translate(551.745 1159.693)" fill="none" stroke="#7b1fa2" stroke-width="2"/>
    <g id="Rectángulo_1799" data-name="Rectángulo 1799" transform="translate(611 1206.051)" fill="none" stroke="#7b1fa2" stroke-width="2">
      <rect width="92" height="383" stroke="none"/>
      <rect x="1" y="1" width="90" height="381" fill="none"/>
    </g>
    <path id="Trazado_11126" data-name="Trazado 11126" d="M-74,288.367H16.66" transform="translate(685.371 976.94)" fill="none" stroke="#7b1fa2" stroke-width="2"/>
    <path id="Trazado_11127" data-name="Trazado 11127" d="M-74,288.367H16.66" transform="translate(685.371 1029.015)" fill="none" stroke="#7b1fa2" stroke-width="2"/>
    <path id="Trazado_11128" data-name="Trazado 11128" d="M-74,288.367H16.66" transform="translate(685.371 1081.09)" fill="none" stroke="#7b1fa2" stroke-width="2"/>
    <path id="Trazado_11129" data-name="Trazado 11129" d="M-74,288.367H16.66" transform="translate(685.371 1132.182)" fill="none" stroke="#7b1fa2" stroke-width="2"/>
    <path id="Trazado_11130" data-name="Trazado 11130" d="M-74,288.367H16.66" transform="translate(685.371 1184.257)" fill="none" stroke="#7b1fa2" stroke-width="2"/>
    <path id="Trazado_11131" data-name="Trazado 11131" d="M-74,288.367H16.66" transform="translate(685.371 1236.331)" fill="none" stroke="#7b1fa2" stroke-width="2"/>
    <g id="Rectángulo_1800" data-name="Rectángulo 1800" transform="translate(769 1142.051)" fill="none" stroke="#7b1fa2" stroke-width="2">
      <rect width="92" height="447" stroke="none"/>
      <rect x="1" y="1" width="90" height="445" fill="none"/>
    </g>
    <path id="Trazado_11132" data-name="Trazado 11132" d="M-74,288.367H16.66" transform="translate(843.56 910.127)" fill="none" stroke="#7b1fa2" stroke-width="2"/>
    <path id="Trazado_11133" data-name="Trazado 11133" d="M-74,288.367H16.66" transform="translate(843.56 964.167)" fill="none" stroke="#7b1fa2" stroke-width="2"/>
    <path id="Trazado_11134" data-name="Trazado 11134" d="M-74,288.367H16.66" transform="translate(843.56 1019.19)" fill="none" stroke="#7b1fa2" stroke-width="2"/>
    <path id="Trazado_11135" data-name="Trazado 11135" d="M-74,288.367H16.66" transform="translate(843.56 1073.229)" fill="none" stroke="#7b1fa2" stroke-width="2"/>
    <path id="Trazado_11136" data-name="Trazado 11136" d="M-74,288.367H16.66" transform="translate(843.56 1182.292)" fill="none" stroke="#7b1fa2" stroke-width="2"/>
    <path id="Trazado_11137" data-name="Trazado 11137" d="M-74,288.367H16.66" transform="translate(843.56 1236.331)" fill="none" stroke="#7b1fa2" stroke-width="2"/>
    <path id="Trazado_11138" data-name="Trazado 11138" d="M-74,288.367H16.66" transform="translate(843.56 1127.269)" fill="none" stroke="#7b1fa2" stroke-width="2"/>
    <g id="Rectángulo_1801" data-name="Rectángulo 1801" transform="translate(235 1415.051)" fill="none" stroke="#7b1fa2" stroke-width="2">
      <rect width="92" height="174" stroke="none"/>
      <rect x="1" y="1" width="90" height="172" fill="none"/>
    </g>
    <path id="Trazado_11139" data-name="Trazado 11139" d="M-74,288.367H16.66" transform="translate(309.057 1267.773)" fill="none" stroke="#7b1fa2" stroke-width="2"/>
    <path id="Trazado_11140" data-name="Trazado 11140" d="M-74,288.367H16.66" transform="translate(309.057 1220.611)" fill="none" stroke="#7b1fa2" stroke-width="2"/>
    <path id="Trazado_11141" data-name="Trazado 11141" d="M-74,288.367H16.66" transform="translate(309.057 1173.449)" fill="none" stroke="#7b1fa2" stroke-width="2"/>
  </g>
</svg>
