<svg xmlns="http://www.w3.org/2000/svg" width="1088" height="668.641" viewBox="0 0 1088 668.641">
  <g id="Grupo_8384" data-name="Grupo 8384" transform="translate(152 -2243.964)">
    <g id="Grupo_7561" data-name="Grupo 7561" transform="translate(-152 2323.735)">
      <rect id="Rect치ngulo_1837" data-name="Rect치ngulo 1837" width="1088" height="341.581" fill="#ffeaa7"/>
      <rect id="Rect치ngulo_1838" data-name="Rect치ngulo 1838" width="1088" height="3.323" transform="translate(0 338.258)" fill="#895cd8"/>
    </g>
    <g id="Grupo_7546" data-name="Grupo 7546" transform="translate(185.752 2243.964)">
      <path id="Trazado_11631" data-name="Trazado 11631" d="M577.886,594.375c1-.72,3.726-1.626,4.51-2.083a16.38,16.38,0,0,1,5.117-1.715s3.44-1.994,5.192-2.7,5.763-1.76,7.842-2.579a44.851,44.851,0,0,0,5.378-2.347c1.442-.819,14.21-6.8,15.527-7.388s5.487-2.347,8.559-3.635,5.161-2.408,6.785-4.288,1.788-5.449,1.788-5.449.431-6.6.27-10.212c-.17-3.775-.231-17.278-1.78-27.9-1.354-9.263-3.5-21.3-3.972-23.647s-2.565-14.5-2.905-20.136c-.1-1.631-1.06-10.841-1.667-22.528-.581-11.185-.992-16.949-2.033-20.773-1.742-6.391-3.776-8.628-6.4-13.936-2.61-5.279-3.046-11.9-4.258-16.547-.568-2.18-5.392-21.455-5.392-21.455s-6.493-19.331-8.307-23.61c-3.515-8.285-9.562-29.551-9.57-29.573-3.612-13.9-4.347-19.891-5.219-34.358-.347-5.762,3.882-17.755,3.044-23.483-2.609-17.829.385-43.267.87-53.922,1.267-27.794-1.329-35.328-2.53-59.743-.288-5.871-1.9-24.662-1.9-24.662s-8.991-3.222-12.294-8.593c-3.4-5.516-4.179-10.34-2.188-16.515,1.3-4.041,5.588-11.152,11.156-16.624S607.338,73.463,611.9,69.72c6.743-5.531,19.144-13.938,18.919-18.065-.785-14.435-3.995-16.946-6.084-20.784a10.959,10.959,0,0,0-4.627-4.652c-5.207-2.368-8.491-.253-8.491-.253l50.965-44.2s0,29.129.106,33.006,2.326,21.266,4.756,28.355,7.509,17.926,8.429,24.264c1.921,13.22-2.737,41.182-3.7,53.018-1.045,12.767-14.521,44.791-15.239,55.347-2.169,31.847,7.129,41.627,12.3,57.452,4.69,14.366,3.553,25.851-1.026,35.913-3.9,8.573-9.081,13.528-10.23,14.089a42.13,42.13,0,0,0,.34,4.4c.224,2.18.608,29.953,1.191,44.027.175,4.217,0,25.133-.754,35.627s-2.007,26.79,1.655,37.925c.008.023.016.047.023.07,16.135,49.068,12.91,87.694,4.267,135.192-1.173,6.446-2.91,20.672-1.038,29.613.964,4.6,3.154,13.652,3.869,17.461,1.13,6.016-1.682,10.015-5.311,11.558-5.156,2.193-8.819,1.5-12.436,1.5-1.714,0-8.008-.579-12.04-.771-2.26-.11-16.656,1.134-21.409,1.533a79.375,79.375,0,0,1-11.426.239,18.016,18.016,0,0,1-5.8-1.491c-.318,0-.93,2.218-3.766,2.218a3.335,3.335,0,0,1-2.218-1.067,3.1,3.1,0,0,1-1.92.892c-1.486-.059-1.511-.881-1.831-.881s-.886,1.063-2.678.647a3.075,3.075,0,0,1-1.415-1.01,6.865,6.865,0,0,1-1.291.486,3.253,3.253,0,0,1-1.927-.133,2.678,2.678,0,0,1-1.192-1.174,4.719,4.719,0,0,1-1.4-.133,3.477,3.477,0,0,1-2.245-1.772C576.7,597.153,576.89,595.1,577.886,594.375Z" transform="translate(-571.279 65.387)" fill="#fff" stroke="#3b1f10" stroke-linecap="round" stroke-linejoin="round" stroke-width="1.897"/>
      <path id="Trazado_11632" data-name="Trazado 11632" d="M.157,192.021c-.455,1.063.21,3.509.323,4.278a45.436,45.436,0,0,0,.686,5,80.077,80.077,0,0,0,2.8,8.295c.368.847,2.973,3.981,3.888,5.521s1.031,2.536,1.832,2.6a1.594,1.594,0,0,0,1.772-2.115c-.141-.694-1.2-2.63-1.429-3.4a30.609,30.609,0,0,0-2.287-4.232,34.259,34.259,0,0,1-2.289-7.054,9.438,9.438,0,0,0-1.029-2.565s.343.576.743,1.154a14.268,14.268,0,0,1,.8,3.078c.07.266.348,1.047.652,1.891.431,1.2.915,2.511.948,2.662A23.15,23.15,0,0,0,9,209.574c.228.32,1.544,3.078,1.773,3.589s1.759,2.845,1.987,3.294a10.269,10.269,0,0,0,1.616,2.734c.572.385,1.2.257,2.116-.128s.956-1.7.772-2.314a54.472,54.472,0,0,0-3.547-8.25c-.57-.9-1.749-6.81-2.531-9.3a1.825,1.825,0,0,0-.532-.955,1.921,1.921,0,0,1,.619,1c.843,2.248,1.787,7.775,2.818,9.2,1.011,1.4,4.386,5.869,4.729,6.83s1.219,2.251,2.535,2.188a1.687,1.687,0,0,0,1.742-1.566c.171-.705-.977-3.19-1.711-4.433a38.762,38.762,0,0,1-2.566-5.522c-.651-1.582-1.153-4.223-1.944-6.38-.461-1.253-.856-1.477-.856-1.477a2.636,2.636,0,0,1,.6.869c.408.748.743,2.459,1.207,3.508a23.423,23.423,0,0,0,1.783,3.393c.7,1.147,3.2,4.109,3.722,4.75s1.34,1.661,2.084,1.34a2.115,2.115,0,0,0,1.1-2.3c-.389-1.322-2.679-4.047-3.622-6.5A15.455,15.455,0,0,1,21.8,197c0-2.5,2.285-7.775,2.858-12.524s-.341-9.237-.28-13.787c.073-5.464.74-6.74,1.588-9.96,1.688-6.408,8.853-23.236,13.857-37.1s7.832-36.122,8.5-39.039,1.423-3.868,2.759-7.151S52.1,66.371,53.1,61.993s3.464-14.146,5.485-25.984C60.632,24.03,64.742,8.983,64.742,8.983S23.564-1.612,24.232.211s2.668,1.8.676,9.769C19.791,30.448,22.632,64.525,22.3,68.9s-2,11.673-4,21.156-5,32.1-5.338,39.761c-.266,6.022-2.983,31.055-3.93,38.013-.465,3.421-3.179,9.282-4.667,13.065S.856,190.387.157,192.021Z" transform="translate(25.117 181.741) rotate(-14.008)" fill="#fff" stroke="#3b1f10" stroke-linecap="round" stroke-linejoin="round" stroke-width="1.716"/>
      <path id="Trazado_11633" data-name="Trazado 11633" d="M612.853,494.911s-.234-.638-.021-.851a2.279,2.279,0,0,1,1.479-.442,3.108,3.108,0,0,1,1.355,1.567c.306.659.462,1.529-.133,1.8s-.911.358-1.38.027A6.414,6.414,0,0,1,612.853,494.911Z" transform="translate(-585.188 -106.31)" fill="#fff" stroke="#3b1f10" stroke-width="0.935"/>
      <path id="Trazado_11634" data-name="Trazado 11634" d="M620.077,495.7a1.507,1.507,0,0,1,1.566-1.009c.578-.014.975.557,1.274.982s.919,1.7,1.089,2.044.149,1.006-.106,1.168c-1.089.69-1.487.637-1.885.4a4.48,4.48,0,0,1-1.089-1.263C620.609,497.515,619.84,496.307,620.077,495.7Z" transform="translate(-587.633 -106.671)" fill="#fff" stroke="#3b1f10" stroke-width="0.935"/>
      <path id="Trazado_11635" data-name="Trazado 11635" d="M629.31,493.891a1.913,1.913,0,0,1,1.168-.849,1.274,1.274,0,0,1,1.329.159,8.571,8.571,0,0,1,1.38,2.6c.319.9.072,1.012-.212,1.2-1.407.9-1.846.3-2.044.053a12.692,12.692,0,0,1-.876-1.274C629.8,495.393,629.132,494.333,629.31,493.891Z" transform="translate(-590.735 -106.078)" fill="#fff" stroke="#3b1f10" stroke-width="0.935"/>
      <path id="Trazado_11636" data-name="Trazado 11636" d="M635.912,487a1.324,1.324,0,0,1,1.168-1.01c.724-.042,1.03.332,1.513.956a5.284,5.284,0,0,1,.77,1.487c.154.383-.465.822-.717.93s-.548.379-1.221-.266C637.02,488.706,635.793,487.384,635.912,487Z" transform="translate(-592.957 -103.751)" fill="#fff" stroke="#3b1f10" stroke-width="0.935"/>
      <path id="Trazado_11637" data-name="Trazado 11637" d="M586.4,206.281s2.69,2.563,8.278,2.938a15.77,15.77,0,0,0,10.143-2.862,34.325,34.325,0,0,0,4.8-4.209,12.684,12.684,0,0,1-6.793,6.841,17.186,17.186,0,0,1-10.424,1.277,21.659,21.659,0,0,1-5.263-2.171Z" transform="translate(-576.351 -8.539)" fill="#3b1f10"/>
      <path id="Trazado_11638" data-name="Trazado 11638" d="M605.767,263.619s2.3,4.89,6.016,11.073c2.166,3.609,4.766,5.79,7.435,5.121.832-.209-2.966-.715-4.837-3.389s-2.127-3.256-4.187-6.351S605.767,263.619,605.767,263.619Z" transform="translate(-582.848 -29.159)"/>
      <path id="Trazado_11639" data-name="Trazado 11639" d="M613.281,328.718a35.21,35.21,0,0,0-1.667,3.317,7.576,7.576,0,0,0-.356,4.344,24.042,24.042,0,0,0,1.157,2.732s-.356-2.663-.356-3.177a16.125,16.125,0,0,1,.71-4.51A8.18,8.18,0,0,0,613.281,328.718Z" transform="translate(-584.633 -50.997)"/>
      <path id="Trazado_11640" data-name="Trazado 11640" d="M641.319,367.51s6.4-14.687,8.228-20.064c2.309-6.784,3.609-10.249,4.619-14.867,1.854-8.476,3.176-15.59,3.176-15.59s-2.6,9.666-4.475,16.6c-1.6,5.938-4.3,13.583-4.764,15.012C646.516,353.508,641.319,367.51,641.319,367.51Z" transform="translate(-594.773 -47.062)" fill="#3b1f10" fill-rule="evenodd"/>
      <path id="Trazado_11641" data-name="Trazado 11641" d="M660.036,98.886a74.266,74.266,0,0,1,8.563-2.072c3.537-.532,5.813-.839,10.136.972s7.377,5.538,9.76,6.509c1.23.5,4.171,1.806,2.7.759-.89-.634-7.437-6.006-9.85-7.45a17.308,17.308,0,0,0-10.473-2.331,26.93,26.93,0,0,0-6.359,1.375,20,20,0,0,0-4.476,2.239Z" transform="translate(-601.052 27.338)"/>
      <path id="Trazado_11642" data-name="Trazado 11642" d="M598.389-37.541a111.829,111.829,0,0,1-2.96-12.2c-.647-4.514.35-11.873,2.579-14.546a14.71,14.71,0,0,1,8.169-5.232c3.44-.647,6.019-1.505,7.094.645s3.87,9.245,2.8,11.179S598.389-37.541,598.389-37.541Z" transform="translate(-579.315 82.835)" fill="#3b1f10"/>
      <path id="Trazado_11643" data-name="Trazado 11643" d="M588.366,909.573a12.171,12.171,0,0,0,1.9-.654c.318.066.345.266.127.384a4.984,4.984,0,0,1-1.867.782,2.5,2.5,0,0,1-2.881-1.323,2.178,2.178,0,0,1,.854-2.713c1.459-1.049,1.457-.925,2.343-1.634.181-.145.9-.971,1.206-1.256a25.959,25.959,0,0,1,2.459-1.548c.358-.2,1.119-.731,1.119-.731a.579.579,0,0,1-.139.731c-.372.383-2.909,1.607-3.389,2.424a6.086,6.086,0,0,1-1.68,1.478,7.514,7.514,0,0,0-2,1.3c-.326.507-.472.926.118,2.028A2.239,2.239,0,0,0,588.366,909.573Z" transform="translate(-576.037 -242.925)"/>
      <path id="Trazado_11644" data-name="Trazado 11644" d="M587.326,908.246s.665.176.851.237c.478.163.98.625,1.166.583a5.334,5.334,0,0,0,1.124-.974.769.769,0,0,0-.148-.983c-.076-.09-.183-.31-.7-.27-.136.01-.332.243-.954.606C588.455,907.57,587.326,908.246,587.326,908.246Z" transform="translate(-576.662 -244.923)" fill="#fff" stroke="#3b1f10" stroke-linecap="round" stroke-linejoin="round" stroke-width="0.5"/>
      <path id="Trazado_11645" data-name="Trazado 11645" d="M594.539,910.845c.864,0,1.583-.807,1.738-.783.287.048.322.231.133.352a4.9,4.9,0,0,1-1.95.884,2.337,2.337,0,0,1-2.34-1.124,2.845,2.845,0,0,1-.16-1.259,1.6,1.6,0,0,1,.471-1.053,13.188,13.188,0,0,0,2.382-2,14.4,14.4,0,0,1,.992-1.154,23.27,23.27,0,0,1,2.135-1.58c.312-.211.97-.744.97-.744a.557.557,0,0,1-.089.689c-.316.376-2.174,1.573-2.924,2.449a11.517,11.517,0,0,1-1.435,1.566,6.238,6.238,0,0,0-1.732,1.319c-.266.492-.019,1.024.453,1.5C593.859,910.579,593.849,910.845,594.539,910.845Z" transform="translate(-578.211 -243.429)"/>
      <path id="Trazado_11646" data-name="Trazado 11646" d="M593.455,909.76s.607.127.776.174c.437.124.91.527,1.076.479a4.963,4.963,0,0,0,.961-.97.731.731,0,0,0-.179-.908c-.072-.08-.18-.278-.639-.213-.123.017-.286.245-.829.619C594.437,909.066,593.455,909.76,593.455,909.76Z" transform="translate(-578.718 -245.417)" fill="#fff" stroke="#3b1f10" stroke-linecap="round" stroke-linejoin="round" stroke-width="0.5"/>
      <path id="Trazado_11647" data-name="Trazado 11647" d="M600.358,910.757c.591.021,1.212-.67,1.346-.656.248.028.283.179.123.286-.627.42-.941.8-1.429.819a7.685,7.685,0,0,1-1.453-.164,1.794,1.794,0,0,1-.8-.688,1.515,1.515,0,0,1-.049-1.039,2.947,2.947,0,0,1,1.358-1.756,6.9,6.9,0,0,0,.877-.891,12.254,12.254,0,0,1,.817-1,20.209,20.209,0,0,1,1.784-1.4c.261-.187.81-.655.81-.655a.452.452,0,0,1-.057.575c-.262.325-1.456,1.116-2.165,1.825a12.7,12.7,0,0,1-1.263,1.477,7.115,7.115,0,0,0-1.554,1.3,1.478,1.478,0,0,0,.569,1.639A1.609,1.609,0,0,0,600.358,910.757Z" transform="translate(-580.251 -243.845)"/>
      <path id="Trazado_11648" data-name="Trazado 11648" d="M599.173,910.056s.523.08.669.113c.378.088.8.4.936.355a4.364,4.364,0,0,0,.8-.841.592.592,0,0,0-.179-.747c-.066-.063-.163-.225-.554-.152-.106.019-.238.214-.693.546C599.994,909.442,599.173,910.056,599.173,910.056Z" transform="translate(-580.636 -245.571)" fill="#fff" stroke="#3b1f10" stroke-linecap="round" stroke-linejoin="round" stroke-width="0.5"/>
      <path id="Trazado_11649" data-name="Trazado 11649" d="M605.934,911.369a5.2,5.2,0,0,0,1.228-.039c.231,0,.5.165.363.272a2.152,2.152,0,0,1-1.623.378,2.948,2.948,0,0,1-1.263-.472,2.559,2.559,0,0,1-.864-.731.92.92,0,0,1-.2-.61,1.927,1.927,0,0,1,.3-.924,17.058,17.058,0,0,1,1.748-1.735,10.452,10.452,0,0,1,.678-.868,19.846,19.846,0,0,1,1.566-1.356c.23-.185.71-.635.71-.635a.512.512,0,0,1,0,.594c-.222.3-1.958,1.549-2.2,2.146-.149.36-1.965,1.754-2.139,2.131a1.207,1.207,0,0,0,.346,1.138A2.568,2.568,0,0,0,605.934,911.369Z" transform="translate(-582.112 -244.19)"/>
      <path id="Trazado_11650" data-name="Trazado 11650" d="M604.642,910.733s.488.016.626.029c.355.036.76.261.888.205a4.031,4.031,0,0,0,.686-.789.465.465,0,0,0-.213-.613c-.066-.047-.163-.173-.522-.072-.1.027-.207.205-.608.532C605.363,910.132,604.642,910.733,604.642,910.733Z" transform="translate(-582.47 -245.801)" fill="#fff" stroke="#3b1f10" stroke-linecap="round" stroke-linejoin="round" stroke-width="0.5"/>
      <path id="Trazado_11651" data-name="Trazado 11651" d="M581.97,902.276a13.44,13.44,0,0,0,1.79,1.181,1.889,1.889,0,0,0,1.413-.2c.593-.3,2.376-1.2,2.709-1.889.266-.541-.3-1.116-.964-1.181a2.909,2.909,0,0,0-.986.087s-1.607.621-2.161.822a6.669,6.669,0,0,0-1.681.845.8.8,0,0,0-.121.335Z" transform="translate(-574.865 -242.69)" fill="#fff" stroke="#3b1f10" stroke-width="0.5"/>
      <path id="Trazado_11652" data-name="Trazado 11652" d="M699.369,848.176a117.821,117.821,0,0,0,1.961,12.246c.177,1.709.034,3.589-1.528,4.918-1.373,1.168-6.065,1.208-5.011,1.456,3.667.859,6.742-.387,7.365-2.521s-.011-3.935-.707-8.125C701.1,854.048,698.86,841.054,699.369,848.176Z" transform="translate(-612.659 -224.537)" fill="#3b1f10"/>
      <path id="Trazado_11653" data-name="Trazado 11653" d="M670.114,863.309a14.437,14.437,0,0,1,3.159-1.029,4.894,4.894,0,0,0-4.335.645,42.191,42.191,0,0,0-3.818,3.375A31.733,31.733,0,0,1,670.114,863.309Z" transform="translate(-602.757 -229.896)" fill="#3b1f10" fill-rule="evenodd"/>
      <path id="Trazado_11654" data-name="Trazado 11654" d="M640.218,908.645s10.469-1.2,14.453-1.32c4.333-.129,11.219-.113,12.759,0,3.514.258,9.558.786,9.558.786a69.437,69.437,0,0,0-8.951-1.653,82.722,82.722,0,0,0-12.93-.26C649.281,906.7,640.218,908.645,640.218,908.645Z" transform="translate(-594.404 -244.662)" fill="#3b1f10" fill-rule="evenodd"/>
      <path id="Trazado_11655" data-name="Trazado 11655" d="M695.552,562.4s1.4-15.056,1.723-21.116c.4-7.567.625-15.057.572-17.4-.214-9.271-1.154-19.961-1.154-19.961s.175,11.534-.046,19.21c-.189,6.574-.513,16.825-.57,18.431S695.552,562.4,695.552,562.4Z" transform="translate(-612.966 -109.769)" fill-rule="evenodd"/>
      <path id="Trazado_11656" data-name="Trazado 11656" d="M693.743,432.369a11.711,11.711,0,0,1,2.484.373,12.939,12.939,0,0,1,2.484,1.085l.013,1.678a16.547,16.547,0,0,0-2.446-1.885C695.55,433.293,693.743,432.369,693.743,432.369Z" transform="translate(-612.359 -85.766)" fill-rule="evenodd"/>
      <path id="Trazado_11657" data-name="Trazado 11657" d="M694.917,436.837a10.585,10.585,0,0,1,2.326.545,12.227,12.227,0,0,1,2.284,1.257l-.079,1.675a16.33,16.33,0,0,0-2.2-2.053C696.572,437.885,694.917,436.837,694.917,436.837Z" transform="translate(-612.753 -87.265)" fill-rule="evenodd"/>
      <path id="Trazado_11658" data-name="Trazado 11658" d="M642.889,624.327a46.435,46.435,0,0,0-3.074-4.827c-1.635-1.841-2.317-2.592-2.317-2.592l-.614-2.113a21.359,21.359,0,0,1,3.681,4.362,20.629,20.629,0,0,1,2.324,5.17Z" transform="translate(-593.286 -146.96)"/>
      <path id="Trazado_11659" data-name="Trazado 11659" d="M653.808,647.823s1.295,8.93.34,12.746l1.022,5.383C657.011,658.456,653.808,647.823,653.808,647.823Z" transform="translate(-598.963 -158.039)"/>
      <path id="Trazado_11660" data-name="Trazado 11660" d="M598.95-4.66c1.023.423,1.462,1.642,1.462,2.971s-1.751,4.323-1.033,6.271c.9,2.433,2.133,2.419,3.47,2.592,2.477.316,6.424-.443,10.411-1.772A121,121,0,0,0,628.988-.8c4.652-2.437,10.536-5.354,13.956-7.31a64.761,64.761,0,0,0,20.58-17.722c6.535-8.2,7.775-20.269,8.882-28.354s-.886-19.937-6.2-24.367c-4.164-3.47-9.9-6.652-20.124-6.258-23.038.887-30.825,7.255-36.584,10.245s-10.19,13.51-11.076,16.168-1.424,11.7-1.108,14.62S598.9-37.7,598.9-36.992s-1.334,3.582-2.914,6.5S591.075-21.9,591-20.878s1.375,2.249,3.318,2.924c1.47.51,1.58,3.476,1.343,4.345a6.93,6.93,0,0,0-.237,3,23.239,23.239,0,0,0,1.9,1.955,2.965,2.965,0,0,0-.589,1.846C596.885-5.424,597.945-5.076,598.95-4.66Z" transform="translate(-577.892 87.731)" fill="#fff" stroke="#3b1f10" stroke-linecap="round" stroke-linejoin="round" stroke-width="1.942"/>
      <path id="Trazado_11661" data-name="Trazado 11661" d="M681.122-55.831c-.669-6.938-2.663-17.118-10.65-26.057-3.971-4.445-9.126-6.13-14.011-6.7a71.649,71.649,0,0,0-31.918,3.082c-9.3,3.123-14.4,5.179-19.5,8.944s-8.179,7.038-8.018,10.619c.1,2.256,2.883,9.542,15.131,15.9,4.4,2.282,12.33,1.816,15.611,7.1,6.757,10.885,8.659,27.047,11.824,48.369,2.145,14.445,5.929,26.61,13.49,28.752,4.936,1.4,7.123,2.9,10.216,4.585,3.228,1.759,6.574,4.208,8.466,6.973,3.885,5.678,6.144,18.57,7.45,33.906,1.281,15.048,1.017,16.644,1.716,18.988.079.266.2-1.247,1.2-1.247.849,0,.913,1.245.913,1.245s.186-1.35,1.032-1.295c.748.05.8,1.247.8,1.247s.3-1.681.9-1.645c.849.05,1.1,1.546,1.1,1.546s.848-1.994,1.595-1.895c.92.122,1.4,1.944,1.4,1.944s.447-2.444,1.047-2.493c1.2-.1.857,2.824,1.146,2.244.848-1.7.5-6.217,0-8.478-.789-3.551-2.052-6.814-1.642-9.216,1.551-9.082,3.493-16.381,3.608-20.424.325-11.379-1.4-25.1-3.766-33.144-2.9-9.835-2.762-12.052-5.021-19.836C679.818-11.462,682.172-44.947,681.122-55.831Z" transform="translate(-579.914 89.188)" fill="#3b1f10"/>
      <path id="Trazado_11662" data-name="Trazado 11662" d="M620.972-23.684a17.6,17.6,0,0,0-4.905-.968,16.122,16.122,0,0,0-7.371.465c-1.336.394-2.516,1.76-2.348,2.182s.708.386,1.212.05.7-1.483,3.784-2.06a31.485,31.485,0,0,1,4.813-.06,44.85,44.85,0,0,1,4.6.7C621.341-23.28,621.336-23.53,620.972-23.684Z" transform="translate(-583.037 67.614)" fill="#3b1f10"/>
      <path id="Trazado_11663" data-name="Trazado 11663" d="M599.665,14.49a2.776,2.776,0,0,0-.957-.786,6.608,6.608,0,0,0-1.538-.512c-1.093-.253-2.038-.381-1.954.124s.844.92,1.715.7a4.147,4.147,0,0,1,2.734.478Z" transform="translate(-579.306 54.92)" fill="#3b1f10"/>
      <path id="Trazado_11664" data-name="Trazado 11664" d="M605.463,11.591a2.752,2.752,0,0,1,.566,1.788c-.1,1.333-1.827,1.409-1.827,1.409a4.278,4.278,0,0,0,1.211-1.272,3.672,3.672,0,0,0,.05-1.925Z" transform="translate(-582.323 55.382)" fill="#3b1f10"/>
      <path id="Trazado_11665" data-name="Trazado 11665" d="M607.582,27.994a2.78,2.78,0,0,0-.585-.465,3.486,3.486,0,0,0-.842-.257c-.073,0-.084.074-.012.183s.488.317.488.4-.281.171-.647.1a18.739,18.739,0,0,1-2.367-1.22,17.43,17.43,0,0,0-2.821-1.312,4.95,4.95,0,0,0-2.158-.381c-.576.041-1.223.438-1.212.98.006.332.266.739.842,1.3.266.261.888.864.888.864-.092.219-.231.433-.427.97a2.744,2.744,0,0,0,.219,1.812,2.883,2.883,0,0,0,1.788,1.246,5.61,5.61,0,0,0,2.551-.15A5.427,5.427,0,0,0,605.769,30c.532-.785.888-1.373.888-1.373s.453-.2.623,0,.375.641.448.506a1.49,1.49,0,0,0-.147-1.136Z" transform="translate(-580.05 50.872)" fill="#3b1f10"/>
      <path id="Trazado_11666" data-name="Trazado 11666" d="M606.451,30.318a7.07,7.07,0,0,1-1.754-.162,7.515,7.515,0,0,0-3.474-.332,1.536,1.536,0,0,0-1.108,1.165,1.7,1.7,0,0,0,.52,1.778,3.589,3.589,0,0,0,2.688.577,4.134,4.134,0,0,0,2.49-1.462,16.862,16.862,0,0,0,1.134-1.644S606.576,30.312,606.451,30.318Z" transform="translate(-580.928 49.303)" fill="#fff"/>
      <path id="Trazado_11667" data-name="Trazado 11667" d="M605.175,28.27c-.65-.28-1.742-.944-2.447-1.293a12.082,12.082,0,0,0-3.381-1.063c-.512.012-.943.1-1,.381s.392.8.587,1,1.027.992,1.027.992a2.731,2.731,0,0,1,1.673-.462,11.484,11.484,0,0,1,2.689.542,7.488,7.488,0,0,0,1.823.219S605.409,28.371,605.175,28.27Z" transform="translate(-580.356 50.578)" fill="#fff"/>
      <g id="Grupo_7545" data-name="Grupo 7545" transform="translate(22.277 48.413)">
        <path id="Trazado_11668" data-name="Trazado 11668" d="M612.181-6.218a2.658,2.658,0,0,0-1.8.859,2.558,2.558,0,0,0-.412.98,3.8,3.8,0,0,1,.7-.807,3.576,3.576,0,0,1,.859-.327l-.395.737a2.192,2.192,0,0,0-.066.893s.447-.807.636-1.048a3.16,3.16,0,0,1,1.136-.884c.8-.215,1.877-.144,2.271-.3a1.391,1.391,0,0,0,.781-.594,2.731,2.731,0,0,1-1.077.269C613.745-6.306,613.212-6.407,612.181-6.218Z" transform="translate(-606.533 13.109)"/>
        <path id="Trazado_11669" data-name="Trazado 11669" d="M616.1-10.919a28.822,28.822,0,0,0-3.389-2.422,8.476,8.476,0,0,0-3.788-1.451,5.6,5.6,0,0,1-2.6-.82,7.038,7.038,0,0,1-1.01-.726,3.044,3.044,0,0,0,.568.91,6.584,6.584,0,0,0,1.77,1.2,2.042,2.042,0,0,1,.653.43,11.254,11.254,0,0,1-1.479-.326,7.177,7.177,0,0,1-1.855-.67c-.361-.292-.086.309.326.653a5.515,5.515,0,0,0,1.571.948,10.227,10.227,0,0,0,1.817.515,5.52,5.52,0,0,0,.306,1.252c.223.532.619,1.221,1.237,1.306a1.269,1.269,0,0,0,1.332-.864,2.36,2.36,0,0,0,.031-1.453,2.549,2.549,0,0,1,1.322.261,1.03,1.03,0,0,1-.332.13c-.31.052-.757.124-.757.124a2,2,0,0,0,1.007.1,1.981,1.981,0,0,0,.5-.169c.114.055.232.113.358.177a1.156,1.156,0,0,1-.3.194,4.835,4.835,0,0,1-.93.192,2.094,2.094,0,0,0,1.051.049,1.63,1.63,0,0,0,.546-.243c.14.075.278.152.42.23a1.239,1.239,0,0,1-.283.133,7.922,7.922,0,0,1-.976.218,2.392,2.392,0,0,0,.893.021c.3-.077.522-.149.669-.2l.375.211c-.074.021-.184.056-.358.113-.133.045-.864.2-.864.2a2.352,2.352,0,0,0,.7.052,4.667,4.667,0,0,0,.845-.18,9.9,9.9,0,0,0,.94.5C616.755-10.2,616.615-10.472,616.1-10.919Zm-5.856.423a.95.95,0,0,1-.756-.6c-.148-.285.07-.377.208-.137s.286.5.478.54c.334.07.451.178.072.2Zm.71-1.059c-.091.3-.308.573-.635.435s-.01-.316.042-.54a2.154,2.154,0,0,0-.072-.706s.288.008.384.021a1.51,1.51,0,0,1,.342.1,5.646,5.646,0,0,1-.059.686Z" transform="translate(-604.8 16.337)"/>
      </g>
      <path id="Trazado_11670" data-name="Trazado 11670" d="M612.965-14.634c1.3.514,5.056,3.633,5.056,3.633a18.377,18.377,0,0,0-3.149-3,6.146,6.146,0,0,0-2.937-1.4,4.835,4.835,0,0,0-2.489.142A6.808,6.808,0,0,1,612.965-14.634Z" transform="translate(-584.082 64.468)"/>
      <path id="Trazado_11671" data-name="Trazado 11671" d="M621.78-71.436s3.377,1.4,4.81,4.076c2.539,4.741,2.071,6.778,2.293,10.985a88.787,88.787,0,0,1-.078,8.883s-.3-13.564-2.788-18.149a34.391,34.391,0,0,0-4.237-5.795Z" transform="translate(-588.219 83.233)" fill="#fff"/>
      <path id="Trazado_11672" data-name="Trazado 11672" d="M702.47-74.935s6.687,9.743,7.547,27.224c.655,13.321-.7,30.853-.478,41.264a129.972,129.972,0,0,0,3.153,25.314c1.329,5.981,3.975,14.444,3.975,14.444a127.983,127.983,0,0,1-8.179-36.7c-.661-10.633.765-35.629.1-45.372C707.74-61.089,702.47-74.935,702.47-74.935Z" transform="translate(-615.286 84.407)" fill="#fff"/>
      <path id="Trazado_11673" data-name="Trazado 11673" d="M681.425-78.588c4.585,5.445,9.076,13.947,11.177,36.873.714,7.793,1.5,26.755,2.1,41.454a289.14,289.14,0,0,0,2.961,31.234,235.578,235.578,0,0,1-3.821-27.8c-1.352-16.056-1.529-35.436-2.2-42.028-.528-5.2-2.388-21.4-5.35-28.275-4.32-10.035-8.119-14.425-8.119-14.425a21.84,21.84,0,0,1,3.247,2.964Z" transform="translate(-607.138 86.626)" fill="#fff"/>
      <path id="Trazado_11674" data-name="Trazado 11674" d="M642.529-76.227s4.344-.44,9.744,19.487c4.012,14.806,5.92,35.542,7.356,43.175.745,3.961,7.737,38.018,7.737,38.018S665.2,17.246,662.78,6.589c-2.166-9.552-4.572-22.455-5.158-25.886-1.338-7.833-3.389-25.133-6.21-36.775C648.358-68.682,642.529-76.227,642.529-76.227Z" transform="translate(-595.179 84.841)" fill="#fff"/>
      <path id="Trazado_11675" data-name="Trazado 11675" d="M628.617,16.832a7.593,7.593,0,0,1,.217,3.439,16.835,16.835,0,0,1-.48,2.578,3.2,3.2,0,0,0,1.2-2.4,4.187,4.187,0,0,0-.934-3.619Z" transform="translate(-590.424 53.624)" fill="#3b1f10"/>
      <path id="Trazado_11676" data-name="Trazado 11676" d="M703.526,174.754a10.037,10.037,0,0,1-1.794,3.641,13.634,13.634,0,0,1-3.7,3.045l-1.552-.716a21.45,21.45,0,0,0,4.418-2.507,22.211,22.211,0,0,0,2.63-3.462Z" transform="translate(-613.276 0.65)" fill="#3b1f10"/>
      <path id="Trazado_11677" data-name="Trazado 11677" d="M34.948,18.305,7.164,5.471s-1.11-1.087-2.03-1.949a3.3,3.3,0,0,0-1.519-.648L0,0,44.769,7.673Z" transform="matrix(0.985, -0.174, 0.174, 0.985, 46.528, 174.126)" fill="#fff"/>
      <path id="Trazado_11678" data-name="Trazado 11678" d="M588.031,183.545a4.107,4.107,0,0,1-6.949,1.691,3.747,3.747,0,0,1-.674-2,6.561,6.561,0,0,0,2.1,1.538C584.944,185.919,588.031,183.545,588.031,183.545Z" transform="translate(-574.341 -2.196)" fill="#3b1f10"/>
      <path id="Trazado_11679" data-name="Trazado 11679" d="M585.957,180a2.133,2.133,0,0,0-1.485-.447,1.529,1.529,0,0,0-1,.634,1.16,1.16,0,0,1,.971-1.07,1.354,1.354,0,0,1,1.1.228,1.823,1.823,0,0,1,.415.655Z" transform="translate(-575.368 -0.804)" fill="#3b1f10"/>
      <path id="Trazado_11680" data-name="Trazado 11680" d="M583.915,180.852a1.91,1.91,0,0,0,.426.519.986.986,0,0,0,1.11.011,1.4,1.4,0,0,0,.437-.665s.145.768-.343,1.069a1.13,1.13,0,0,1-1.215-.021A1.425,1.425,0,0,1,583.915,180.852Z" transform="translate(-575.517 -1.35)" fill="#3b1f10"/>
    </g>
    <g id="Grupo_7547" data-name="Grupo 7547" transform="translate(237.595 2396.836)">
      <circle id="Elipse_496" data-name="Elipse 496" cx="9.968" cy="9.968" r="9.968" fill="#7b1fa2"/>
      <text id="_1" data-name="1" transform="translate(6.175 13.665)" fill="#fff" font-size="12" font-family="OpenSans-Bold, Open Sans" font-weight="700"><tspan x="0" y="0">1</tspan></text>
    </g>
    <g id="Grupo_7548" data-name="Grupo 7548" transform="translate(206.36 2507.816)">
      <circle id="Elipse_496-2" data-name="Elipse 496" cx="9.968" cy="9.968" r="9.968" transform="translate(0)" fill="#7b1fa2"/>
      <text id="_2" data-name="2" transform="translate(6.175 13.665)" fill="#fff" font-size="12" font-family="OpenSans-Bold, Open Sans" font-weight="700"><tspan x="0" y="0">2</tspan></text>
    </g>
    <g id="Grupo_7549" data-name="Grupo 7549" transform="translate(247.563 2570.284)">
      <circle id="Elipse_496-3" data-name="Elipse 496" cx="9.968" cy="9.968" r="9.968" transform="translate(0 0)" fill="#7b1fa2"/>
      <text id="_3" data-name="3" transform="translate(6.175 13.665)" fill="#fff" font-size="12" font-family="OpenSans-Bold, Open Sans" font-weight="700"><tspan x="0" y="0">3</tspan></text>
    </g>
    <g id="Grupo_7550" data-name="Grupo 7550" transform="translate(209.683 2727.784)">
      <circle id="Elipse_496-4" data-name="Elipse 496" cx="9.968" cy="9.968" r="9.968" transform="translate(0 0)" fill="#7b1fa2"/>
      <text id="_4" data-name="4" transform="translate(6.175 13.665)" fill="#fff" font-size="12" font-family="OpenSans-Bold, Open Sans" font-weight="700"><tspan x="0" y="0">4</tspan></text>
    </g>
    <g id="Grupo_7551" data-name="Grupo 7551" transform="translate(286.107 2696.55)">
      <circle id="Elipse_496-5" data-name="Elipse 496" cx="9.968" cy="9.968" r="9.968" fill="#7b1fa2"/>
      <text id="_5" data-name="5" transform="translate(6.175 13.665)" fill="#fff" font-size="12" font-family="OpenSans-Bold, Open Sans" font-weight="700"><tspan x="0" y="0">5</tspan></text>
    </g>
    <g id="Grupo_7552" data-name="Grupo 7552" transform="translate(207.025 2865.347)">
      <circle id="Elipse_496-6" data-name="Elipse 496" cx="9.968" cy="9.968" r="9.968" fill="#7b1fa2"/>
      <text id="_6" data-name="6" transform="translate(6.175 13.665)" fill="#fff" font-size="12" font-family="OpenSans-Bold, Open Sans" font-weight="700"><tspan x="0" y="0">6</tspan></text>
    </g>
    <g id="Grupo_7553" data-name="Grupo 7553" transform="translate(290.094 2886.613)">
      <circle id="Elipse_496-7" data-name="Elipse 496" cx="9.968" cy="9.968" r="9.968" transform="translate(0 0)" fill="#7b1fa2"/>
      <text id="_7" data-name="7" transform="translate(6.84 14.329)" fill="#fff" font-size="12" font-family="OpenSans-Bold, Open Sans" font-weight="700"><tspan x="0" y="0">7</tspan></text>
    </g>
    <g id="Grupo_7554" data-name="Grupo 7554" transform="translate(401.752 2388.196)">
      <circle id="Elipse_496-8" data-name="Elipse 496" cx="9.968" cy="9.968" r="9.968" transform="translate(0 0)" fill="#7b1fa2"/>
      <text id="_1-2" data-name="1" transform="translate(6.175 13.665)" fill="#fff" font-size="12" font-family="OpenSans-Bold, Open Sans" font-weight="700"><tspan x="0" y="0">1</tspan></text>
    </g>
    <path id="Trazado_13362" data-name="Trazado 13362" d="M4.712-5.654H3.5v-9.359H.193v-1.078H8.017v1.078H4.712Zm8,.143A3.6,3.6,0,0,1,9.977-6.568a4.09,4.09,0,0,1-1-2.934,4.536,4.536,0,0,1,.93-3.005,3.1,3.1,0,0,1,2.5-1.114,2.951,2.951,0,0,1,2.326.968,3.708,3.708,0,0,1,.857,2.552v.75H10.2a3.1,3.1,0,0,0,.7,2.091,2.407,2.407,0,0,0,1.861.714,6.3,6.3,0,0,0,2.5-.528v1.057a6.271,6.271,0,0,1-1.189.389,6.679,6.679,0,0,1-1.353.118Zm-.321-7.121a1.935,1.935,0,0,0-1.5.614,2.83,2.83,0,0,0-.659,1.7h4.09a2.606,2.606,0,0,0-.5-1.718A1.759,1.759,0,0,0,12.394-12.632Zm8.788-.992a4.637,4.637,0,0,1,.935.086l-.164,1.1a4.037,4.037,0,0,0-.857-.107,2.085,2.085,0,0,0-1.626.774A2.811,2.811,0,0,0,18.8-9.851v4.2H17.609v-7.824h.978l.133,1.449h.057a3.439,3.439,0,0,1,1.049-1.178,2.363,2.363,0,0,1,1.354-.415Zm12.371,7.97v-5.09a2.113,2.113,0,0,0-.4-1.4,1.546,1.546,0,0,0-1.242-.465,2.006,2.006,0,0,0-1.635.635,3.02,3.02,0,0,0-.528,1.956v4.367H28.563v-5.09a2.113,2.113,0,0,0-.4-1.4,1.556,1.556,0,0,0-1.249-.465,1.935,1.935,0,0,0-1.631.665,3.613,3.613,0,0,0-.518,2.188v4.106H23.58v-7.824h.964l.193,1.071h.057a2.326,2.326,0,0,1,.946-.889,2.889,2.889,0,0,1,1.367-.321,2.323,2.323,0,0,1,2.4,1.329h.057a2.5,2.5,0,0,1,1.013-.971,3.145,3.145,0,0,1,1.513-.357,2.65,2.65,0,0,1,1.988.682,3.05,3.05,0,0,1,.661,2.181v5.1Zm4.811,0H37.179v-7.824h1.185ZM37.08-15.6a.787.787,0,0,1,.2-.6.7.7,0,0,1,.5-.189.7.7,0,0,1,.492.193.773.773,0,0,1,.207.593.785.785,0,0,1-.207.6.691.691,0,0,1-.492.2.684.684,0,0,1-.5-.2A.8.8,0,0,1,37.08-15.6Zm9.151,9.944v-5.061a2.042,2.042,0,0,0-.435-1.427,1.774,1.774,0,0,0-1.364-.471,2.249,2.249,0,0,0-1.8.665,3.352,3.352,0,0,0-.571,2.193v4.1H40.877v-7.824h.964l.193,1.071h.057a2.42,2.42,0,0,1,1.021-.9,3.317,3.317,0,0,1,1.462-.318,2.972,2.972,0,0,1,2.127.682,2.9,2.9,0,0,1,.714,2.181v5.1Zm8.431,0-.237-1.114h-.057a3.292,3.292,0,0,1-1.167,1,3.557,3.557,0,0,1-1.453.261,2.613,2.613,0,0,1-1.824-.6,2.187,2.187,0,0,1-.661-1.706q0-2.37,3.788-2.484l1.329-.043v-.485a1.984,1.984,0,0,0-.4-1.36,1.629,1.629,0,0,0-1.267-.439,5.163,5.163,0,0,0-2.213.6l-.364-.906a5.568,5.568,0,0,1,1.267-.492,5.488,5.488,0,0,1,1.382-.179,2.981,2.981,0,0,1,2.074.621,2.592,2.592,0,0,1,.675,1.994v5.336Zm-2.677-.835A2.4,2.4,0,0,0,53.724-7.1a2.245,2.245,0,0,0,.632-1.7V-9.5l-1.185.05a4.31,4.31,0,0,0-2.038.439,1.324,1.324,0,0,0-.625,1.21,1.221,1.221,0,0,0,.389.978A1.615,1.615,0,0,0,51.985-6.489Zm9.123.978a3.339,3.339,0,0,1-2.629-1.046,4.3,4.3,0,0,1-.93-2.959,4.435,4.435,0,0,1,.946-3.034,3.406,3.406,0,0,1,2.695-1.071,5.348,5.348,0,0,1,1.13.122,3.716,3.716,0,0,1,.885.286l-.364,1.007a5.572,5.572,0,0,0-.857-.261,3.825,3.825,0,0,0-.821-.1q-2.384,0-2.384,3.041a3.621,3.621,0,0,0,.581,2.213,2.024,2.024,0,0,0,1.724.771,5.271,5.271,0,0,0,2.006-.421V-5.92a4.275,4.275,0,0,1-1.982.409Zm5.019-.143H64.942v-7.824h1.185ZM64.842-15.6a.787.787,0,0,1,.2-.6.7.7,0,0,1,.5-.189.7.7,0,0,1,.492.193.773.773,0,0,1,.207.593.785.785,0,0,1-.207.6.691.691,0,0,1-.492.2.684.684,0,0,1-.5-.2.8.8,0,0,1-.2-.6ZM75.393-9.575a4.32,4.32,0,0,1-.964,2.991,3.394,3.394,0,0,1-2.663,1.073A3.527,3.527,0,0,1,69.906-6a3.251,3.251,0,0,1-1.259-1.414A4.926,4.926,0,0,1,68.2-9.573a4.31,4.31,0,0,1,.956-2.981,3.383,3.383,0,0,1,2.658-1.067,3.31,3.31,0,0,1,2.609,1.093,4.3,4.3,0,0,1,.966,2.953Zm-5.961,0a3.714,3.714,0,0,0,.6,2.285,2.081,2.081,0,0,0,1.763.786,2.1,2.1,0,0,0,1.771-.781,3.7,3.7,0,0,0,.6-2.289,3.635,3.635,0,0,0-.6-2.267,2.119,2.119,0,0,0-1.781-.775,2.086,2.086,0,0,0-1.756.764,3.676,3.676,0,0,0-.589,2.278ZM70.8-14.692q.343-.443.739-1.071a12.257,12.257,0,0,0,.625-1.093h1.442v.15a10.553,10.553,0,0,1-.935,1.142A10.617,10.617,0,0,1,71.6-14.513H70.8ZM82.824-5.654v-5.061a2.042,2.042,0,0,0-.435-1.427,1.774,1.774,0,0,0-1.364-.471,2.249,2.249,0,0,0-1.8.665,3.352,3.352,0,0,0-.571,2.193v4.1H77.471v-7.824h.964l.193,1.071h.057a2.42,2.42,0,0,1,1.021-.9,3.317,3.317,0,0,1,1.462-.318,2.972,2.972,0,0,1,2.127.682,2.9,2.9,0,0,1,.714,2.181v5.1ZM95.567-6.7H95.5a2.784,2.784,0,0,1-2.459,1.192A2.9,2.9,0,0,1,90.654-6.56,4.619,4.619,0,0,1,89.8-9.544a4.7,4.7,0,0,1,.857-3.005,2.883,2.883,0,0,1,2.384-1.071,2.845,2.845,0,0,1,2.442,1.156h.093l-.05-.564-.029-.55v-3.184h1.193V-5.654h-.964Zm-2.37.2a2.158,2.158,0,0,0,1.76-.661A3.337,3.337,0,0,0,95.5-9.3v-.25a3.926,3.926,0,0,0-.554-2.374,2.1,2.1,0,0,0-1.767-.71,1.814,1.814,0,0,0-1.595.81,4.029,4.029,0,0,0-.554,2.288,3.862,3.862,0,0,0,.55,2.263A1.861,1.861,0,0,0,93.2-6.5Zm9.308.993a3.6,3.6,0,0,1-2.738-1.057,4.09,4.09,0,0,1-1-2.934,4.536,4.536,0,0,1,.93-3.005,3.1,3.1,0,0,1,2.5-1.114,2.951,2.951,0,0,1,2.326.968,3.708,3.708,0,0,1,.857,2.552v.75h-5.39a3.1,3.1,0,0,0,.7,2.091,2.407,2.407,0,0,0,1.861.714,6.3,6.3,0,0,0,2.5-.528v1.057a6.271,6.271,0,0,1-1.189.389A6.679,6.679,0,0,1,102.506-5.511Zm-.321-7.117a1.935,1.935,0,0,0-1.5.614,2.83,2.83,0,0,0-.661,1.7h4.09a2.606,2.606,0,0,0-.5-1.717,1.759,1.759,0,0,0-1.427-.6Zm10.2,6.975H111.2V-16.762h1.185Zm7.324,0-.235-1.114h-.056a3.292,3.292,0,0,1-1.167,1,3.557,3.557,0,0,1-1.453.261,2.613,2.613,0,0,1-1.824-.6,2.187,2.187,0,0,1-.661-1.706q0-2.37,3.788-2.484l1.329-.043v-.485a1.984,1.984,0,0,0-.4-1.36,1.629,1.629,0,0,0-1.267-.439,5.163,5.163,0,0,0-2.213.6l-.364-.906a5.568,5.568,0,0,1,1.267-.492,5.488,5.488,0,0,1,1.382-.179,2.981,2.981,0,0,1,2.074.621,2.592,2.592,0,0,1,.675,1.994v5.336Zm-2.677-.835a2.4,2.4,0,0,0,1.738-.607,2.245,2.245,0,0,0,.632-1.7V-9.5l-1.185.05a4.31,4.31,0,0,0-2.038.439,1.324,1.324,0,0,0-.625,1.21,1.221,1.221,0,0,0,.389.978A1.615,1.615,0,0,0,117.034-6.489ZM130.4-13.621a4.638,4.638,0,0,1,.935.086l-.164,1.1a4.036,4.036,0,0,0-.857-.107,2.085,2.085,0,0,0-1.624.771,2.811,2.811,0,0,0-.675,1.921v4.2h-1.185v-7.824h.978l.133,1.449H128a3.439,3.439,0,0,1,1.049-1.178,2.363,2.363,0,0,1,1.352-.415Zm5.7,8.11a3.6,3.6,0,0,1-2.738-1.057,4.09,4.09,0,0,1-1-2.934,4.536,4.536,0,0,1,.93-3.005,3.1,3.1,0,0,1,2.5-1.114,2.951,2.951,0,0,1,2.326.968,3.708,3.708,0,0,1,.857,2.552v.75h-5.39a3.1,3.1,0,0,0,.7,2.091,2.407,2.407,0,0,0,1.861.714,6.3,6.3,0,0,0,2.5-.528v1.057a6.27,6.27,0,0,1-1.189.389A6.679,6.679,0,0,1,136.1-5.511Zm-.319-7.121a1.935,1.935,0,0,0-1.5.614,2.83,2.83,0,0,0-.661,1.7h4.09a2.606,2.606,0,0,0-.5-1.717A1.759,1.759,0,0,0,135.78-12.632Zm4.269,10.487a2.852,2.852,0,0,1-1.1-.179v-.96a3.476,3.476,0,0,0,.971.143,1.021,1.021,0,0,0,.817-.3A1.392,1.392,0,0,0,141-4.369v-9.108h1.185v9.02q0,2.316-2.135,2.316ZM140.9-15.6a.787.787,0,0,1,.2-.6.7.7,0,0,1,.5-.189.7.7,0,0,1,.492.193.773.773,0,0,1,.207.593.785.785,0,0,1-.207.6.691.691,0,0,1-.492.2.684.684,0,0,1-.5-.2.8.8,0,0,1-.2-.593Zm8.609,9.948-.235-1.114h-.057a3.292,3.292,0,0,1-1.167,1,3.557,3.557,0,0,1-1.453.261,2.613,2.613,0,0,1-1.824-.6,2.187,2.187,0,0,1-.661-1.706q0-2.37,3.788-2.484l1.329-.043v-.485a1.984,1.984,0,0,0-.4-1.36,1.63,1.63,0,0,0-1.267-.439,5.163,5.163,0,0,0-2.213.6l-.364-.906a5.568,5.568,0,0,1,1.267-.492,5.488,5.488,0,0,1,1.382-.179,2.981,2.981,0,0,1,2.074.621,2.592,2.592,0,0,1,.675,1.994v5.336Zm-2.677-.835A2.4,2.4,0,0,0,148.57-7.1a2.245,2.245,0,0,0,.632-1.7V-9.5l-1.185.05a4.31,4.31,0,0,0-2.038.439,1.324,1.324,0,0,0-.625,1.21,1.221,1.221,0,0,0,.389.978,1.615,1.615,0,0,0,1.089.335Zm12.921.978a3.339,3.339,0,0,1-2.63-1.046,4.3,4.3,0,0,1-.93-2.959,4.434,4.434,0,0,1,.946-3.034,3.406,3.406,0,0,1,2.695-1.071,5.348,5.348,0,0,1,1.13.122,3.715,3.715,0,0,1,.885.286l-.364,1.007a5.572,5.572,0,0,0-.857-.261,3.825,3.825,0,0,0-.821-.1q-2.384,0-2.384,3.041A3.621,3.621,0,0,0,158-7.317a2.024,2.024,0,0,0,1.724.771,5.271,5.271,0,0,0,2.006-.421V-5.92a4.275,4.275,0,0,1-1.98.409Zm10.587-4.064a4.32,4.32,0,0,1-.964,2.991,3.394,3.394,0,0,1-2.663,1.073A3.527,3.527,0,0,1,164.852-6,3.251,3.251,0,0,1,163.6-7.417a4.927,4.927,0,0,1-.443-2.156,4.31,4.31,0,0,1,.956-2.981,3.383,3.383,0,0,1,2.658-1.067,3.31,3.31,0,0,1,2.609,1.093,4.3,4.3,0,0,1,.963,2.953Zm-5.961,0a3.714,3.714,0,0,0,.6,2.285,2.081,2.081,0,0,0,1.763.786,2.1,2.1,0,0,0,1.767-.782,3.7,3.7,0,0,0,.6-2.288,3.635,3.635,0,0,0-.6-2.267,2.119,2.119,0,0,0-1.781-.775,2.086,2.086,0,0,0-1.756.764,3.676,3.676,0,0,0-.591,2.277ZM177.463-7.79a1.96,1.96,0,0,1-.814,1.685,3.825,3.825,0,0,1-2.284.593A4.968,4.968,0,0,1,171.938-6V-7.1a5.869,5.869,0,0,0,1.21.45,5.051,5.051,0,0,0,1.246.164,2.825,2.825,0,0,0,1.427-.3.98.98,0,0,0,.5-.9.98.98,0,0,0-.4-.782,6.232,6.232,0,0,0-1.545-.768,8.381,8.381,0,0,1-1.552-.71,2.121,2.121,0,0,1-.684-.69,1.794,1.794,0,0,1-.225-.921,1.756,1.756,0,0,1,.778-1.51,3.626,3.626,0,0,1,2.135-.554,6.247,6.247,0,0,1,2.47.514l-.421.964a5.67,5.67,0,0,0-2.135-.485,2.459,2.459,0,0,0-1.271.266.817.817,0,0,0-.429.731.886.886,0,0,0,.161.536,1.585,1.585,0,0,0,.518.421,11.562,11.562,0,0,0,1.371.578,5.121,5.121,0,0,1,1.881,1.021,1.8,1.8,0,0,1,.488,1.289Zm4.453,1.3a3.871,3.871,0,0,0,.607-.047,3.928,3.928,0,0,0,.465-.1v.908a2.166,2.166,0,0,1-.568.154,4.262,4.262,0,0,1-.675.06q-2.27,0-2.27-2.392v-4.652h-1.121v-.571l1.121-.492.5-1.671h.685v1.814h2.27v.921h-2.27v4.6a1.584,1.584,0,0,0,.332,1.085,1.168,1.168,0,0,0,.925.375Zm7.448.837-.233-1.114h-.057a3.292,3.292,0,0,1-1.167,1,3.557,3.557,0,0,1-1.453.261,2.613,2.613,0,0,1-1.824-.6,2.187,2.187,0,0,1-.661-1.706q0-2.37,3.788-2.484l1.329-.043v-.485a1.984,1.984,0,0,0-.4-1.36,1.629,1.629,0,0,0-1.267-.439,5.163,5.163,0,0,0-2.213.6l-.364-.906a5.569,5.569,0,0,1,1.267-.492,5.488,5.488,0,0,1,1.382-.179,2.981,2.981,0,0,1,2.074.621,2.592,2.592,0,0,1,.675,1.994v5.336Zm-2.677-.835a2.4,2.4,0,0,0,1.738-.607,2.245,2.245,0,0,0,.632-1.7V-9.5l-1.185.05a4.31,4.31,0,0,0-2.038.439,1.324,1.324,0,0,0-.625,1.21,1.221,1.221,0,0,0,.389.978,1.615,1.615,0,0,0,1.088.335Zm7.181.835h-1.185V-16.762h1.185Z" transform="translate(441.561 2440.369)" fill="#00223d"/>
    <g id="Grupo_7555" data-name="Grupo 7555" transform="translate(401.752 2418.766)">
      <circle id="Elipse_496-9" data-name="Elipse 496" cx="9.968" cy="9.968" r="9.968" transform="translate(0 0)" fill="#7b1fa2"/>
      <text id="_2-2" data-name="2" transform="translate(6.175 13.665)" fill="#fff" font-size="12" font-family="OpenSans-Bold, Open Sans" font-weight="700"><tspan x="0" y="0">2</tspan></text>
    </g>
    <path id="Trazado_13363" data-name="Trazado 13363" d="M8-5.654,6.7-8.977H2.513L1.228-5.654H0l4.126-10.48H5.147l4.1,10.48ZM6.318-10.066,5.1-13.3q-.235-.614-.485-1.507A13.527,13.527,0,0,1,4.169-13.3l-1.227,3.23Zm7.831,4.555a3.389,3.389,0,0,1-1.4-.282A2.624,2.624,0,0,1,11.69-6.66H11.6a10.5,10.5,0,0,1,.092,1.3v3.22H10.509V-13.478h.964l.164,1.071h.06a2.752,2.752,0,0,1,1.063-.93,3.234,3.234,0,0,1,1.392-.286,2.891,2.891,0,0,1,2.4,1.063A4.683,4.683,0,0,1,17.4-9.575a4.656,4.656,0,0,1-.86,2.994,2.9,2.9,0,0,1-2.388,1.069Zm-.171-7.1a2.1,2.1,0,0,0-1.734.665,3.416,3.416,0,0,0-.55,2.113v.266a3.916,3.916,0,0,0,.55,2.359,2.091,2.091,0,0,0,1.763.71,1.834,1.834,0,0,0,1.588-.821,3.893,3.893,0,0,0,.575-2.263,3.747,3.747,0,0,0-.575-2.25,1.89,1.89,0,0,0-1.617-.78ZM26.221-9.575a4.32,4.32,0,0,1-.964,2.99,3.394,3.394,0,0,1-2.662,1.073A3.527,3.527,0,0,1,20.734-6a3.251,3.251,0,0,1-1.263-1.414,4.926,4.926,0,0,1-.439-2.158,4.31,4.31,0,0,1,.956-2.981,3.383,3.383,0,0,1,2.658-1.067,3.31,3.31,0,0,1,2.606,1.094,4.3,4.3,0,0,1,.968,2.954Zm-5.961,0a3.714,3.714,0,0,0,.6,2.285,2.081,2.081,0,0,0,1.763.786,2.1,2.1,0,0,0,1.768-.781,3.7,3.7,0,0,0,.6-2.289,3.635,3.635,0,0,0-.6-2.265,2.119,2.119,0,0,0-1.781-.775,2.086,2.086,0,0,0-1.756.764,3.676,3.676,0,0,0-.592,2.276Zm1.371-5.117q.343-.443.739-1.071a12.254,12.254,0,0,0,.625-1.093h1.442v.15a10.553,10.553,0,0,1-.935,1.142,10.618,10.618,0,0,1-1.078,1.049h-.793Zm10.194,2.135H29.831v6.9H28.648v-6.9h-1.4v-.536l1.4-.429v-.435q0-2.884,2.52-2.884a5.184,5.184,0,0,1,1.456.25l-.307.95a3.921,3.921,0,0,0-1.171-.221,1.14,1.14,0,0,0-.992.446,2.49,2.49,0,0,0-.321,1.431v.507h1.994Zm2.612,6.9H33.252v-7.824h1.185ZM33.153-15.6a.787.787,0,0,1,.2-.6.7.7,0,0,1,.5-.189.7.7,0,0,1,.492.193.773.773,0,0,1,.207.593.785.785,0,0,1-.207.6.691.691,0,0,1-.492.2.684.684,0,0,1-.5-.2A.8.8,0,0,1,33.153-15.6ZM42-7.788A1.96,1.96,0,0,1,41.184-6.1a3.825,3.825,0,0,1-2.284.593A4.968,4.968,0,0,1,36.473-6V-7.1a5.869,5.869,0,0,0,1.207.453,5.051,5.051,0,0,0,1.246.164,2.825,2.825,0,0,0,1.429-.3.98.98,0,0,0,.5-.9.98.98,0,0,0-.4-.782,6.232,6.232,0,0,0-1.546-.768,8.381,8.381,0,0,1-1.552-.71,2.121,2.121,0,0,1-.683-.692,1.794,1.794,0,0,1-.225-.921,1.756,1.756,0,0,1,.778-1.51,3.626,3.626,0,0,1,2.135-.554,6.247,6.247,0,0,1,2.47.514l-.421.964a5.67,5.67,0,0,0-2.137-.486A2.459,2.459,0,0,0,38-12.366a.817.817,0,0,0-.426.731.887.887,0,0,0,.161.536,1.585,1.585,0,0,0,.518.421,11.563,11.563,0,0,0,1.371.578,5.12,5.12,0,0,1,1.88,1.019A1.8,1.8,0,0,1,42-7.788Zm3.11,2.135H43.927v-7.824H45.11ZM43.825-15.6a.787.787,0,0,1,.2-.6.7.7,0,0,1,.5-.187.7.7,0,0,1,.492.193.773.773,0,0,1,.207.593.785.785,0,0,1-.207.6.691.691,0,0,1-.492.2.685.685,0,0,1-.5-.2.8.8,0,0,1-.2-.6Zm8.845,7.81A1.96,1.96,0,0,1,51.856-6.1a3.825,3.825,0,0,1-2.284.593A4.968,4.968,0,0,1,47.145-6V-7.1a5.87,5.87,0,0,0,1.21.45,5.051,5.051,0,0,0,1.246.164,2.825,2.825,0,0,0,1.427-.294.98.98,0,0,0,.5-.9.98.98,0,0,0-.4-.782,6.232,6.232,0,0,0-1.546-.768,8.381,8.381,0,0,1-1.552-.71,2.121,2.121,0,0,1-.683-.692,1.794,1.794,0,0,1-.225-.921,1.756,1.756,0,0,1,.778-1.51,3.626,3.626,0,0,1,2.135-.554,6.247,6.247,0,0,1,2.47.514l-.421.964a5.67,5.67,0,0,0-2.135-.485,2.459,2.459,0,0,0-1.271.266.817.817,0,0,0-.429.73.886.886,0,0,0,.161.536,1.585,1.585,0,0,0,.518.421A11.563,11.563,0,0,0,50.3-10.1,5.12,5.12,0,0,1,52.181-9.08a1.8,1.8,0,0,1,.489,1.292ZM61.7-5.511a3.6,3.6,0,0,1-2.738-1.057,4.09,4.09,0,0,1-1-2.934,4.536,4.536,0,0,1,.93-3.005,3.1,3.1,0,0,1,2.5-1.114,2.951,2.951,0,0,1,2.326.968,3.708,3.708,0,0,1,.857,2.552v.75h-5.39a3.1,3.1,0,0,0,.7,2.091,2.407,2.407,0,0,0,1.861.714,6.3,6.3,0,0,0,2.5-.528v1.057a6.271,6.271,0,0,1-1.188.389,6.679,6.679,0,0,1-1.352.118Zm-.322-7.121a1.935,1.935,0,0,0-1.5.614,2.83,2.83,0,0,0-.661,1.7h4.09a2.606,2.606,0,0,0-.5-1.715A1.759,1.759,0,0,0,61.379-12.632Zm10.265,4.84a1.96,1.96,0,0,1-.814,1.685,3.825,3.825,0,0,1-2.284.593,4.968,4.968,0,0,1-2.427-.492V-7.1a5.87,5.87,0,0,0,1.21.45,5.051,5.051,0,0,0,1.246.164A2.825,2.825,0,0,0,70-6.786a.98.98,0,0,0,.5-.9.98.98,0,0,0-.4-.782,6.232,6.232,0,0,0-1.546-.768,8.381,8.381,0,0,1-1.552-.71,2.121,2.121,0,0,1-.683-.69,1.794,1.794,0,0,1-.225-.921,1.756,1.756,0,0,1,.778-1.51,3.626,3.626,0,0,1,2.135-.554,6.247,6.247,0,0,1,2.47.514l-.421.964a5.67,5.67,0,0,0-2.135-.485,2.459,2.459,0,0,0-1.271.266.817.817,0,0,0-.429.731.887.887,0,0,0,.161.536,1.585,1.585,0,0,0,.518.421,11.563,11.563,0,0,0,1.371.578,5.12,5.12,0,0,1,1.881,1.021,1.8,1.8,0,0,1,.488,1.289Zm4.453,1.3a3.871,3.871,0,0,0,.607-.047,3.928,3.928,0,0,0,.465-.1v.91a2.166,2.166,0,0,1-.568.154,4.262,4.262,0,0,1-.675.06q-2.27,0-2.27-2.392v-4.652H72.536v-.571l1.121-.492.5-1.671h.685v1.814h2.27v.921h-2.27v4.6a1.584,1.584,0,0,0,.332,1.085,1.168,1.168,0,0,0,.926.375Zm3.822.839H78.734v-7.824h1.185ZM78.633-15.6a.787.787,0,0,1,.2-.6.7.7,0,0,1,.5-.189.7.7,0,0,1,.492.193.773.773,0,0,1,.207.593.785.785,0,0,1-.207.6.691.691,0,0,1-.492.2.684.684,0,0,1-.5-.2.8.8,0,0,1-.2-.6Zm4.983,9.944H82.431V-16.762h1.185Zm9.266-3.921a4.32,4.32,0,0,1-.964,2.99,3.394,3.394,0,0,1-2.662,1.073A3.527,3.527,0,0,1,87.4-6a3.251,3.251,0,0,1-1.257-1.414A4.926,4.926,0,0,1,85.7-9.573a4.31,4.31,0,0,1,.956-2.981,3.383,3.383,0,0,1,2.658-1.067,3.31,3.31,0,0,1,2.609,1.093,4.3,4.3,0,0,1,.963,2.953Zm-5.961,0a3.713,3.713,0,0,0,.6,2.285,2.081,2.081,0,0,0,1.763.786,2.1,2.1,0,0,0,1.767-.782,3.7,3.7,0,0,0,.6-2.288,3.635,3.635,0,0,0-.6-2.267,2.119,2.119,0,0,0-1.781-.775,2.086,2.086,0,0,0-1.756.764,3.676,3.676,0,0,0-.588,2.277Zm9.224,3.921H94.96v-7.824h1.185ZM94.86-15.6a.787.787,0,0,1,.2-.6.7.7,0,0,1,.5-.189.7.7,0,0,1,.492.193.773.773,0,0,1,.207.593.785.785,0,0,1-.207.6.691.691,0,0,1-.492.2.684.684,0,0,1-.5-.2.8.8,0,0,1-.2-.6Zm9.124,8.9h-.066a2.784,2.784,0,0,1-2.459,1.192A2.9,2.9,0,0,1,99.071-6.56a4.619,4.619,0,0,1-.853-2.984,4.7,4.7,0,0,1,.857-3.005,2.883,2.883,0,0,1,2.384-1.071,2.845,2.845,0,0,1,2.442,1.156h.093l-.05-.564-.029-.55v-3.184H105.1V-5.654h-.964Zm-2.37.2a2.158,2.158,0,0,0,1.76-.661A3.337,3.337,0,0,0,103.92-9.3v-.25a3.926,3.926,0,0,0-.554-2.374,2.1,2.1,0,0,0-1.767-.71,1.814,1.814,0,0,0-1.595.81,4.029,4.029,0,0,0-.554,2.288A3.862,3.862,0,0,0,100-7.269a1.861,1.861,0,0,0,1.61.766Zm9.308.993a3.6,3.6,0,0,1-2.738-1.057,4.09,4.09,0,0,1-1-2.934,4.536,4.536,0,0,1,.93-3.005,3.1,3.1,0,0,1,2.5-1.114,2.951,2.951,0,0,1,2.326.968A3.708,3.708,0,0,1,113.8-10.1v.75h-5.39a3.1,3.1,0,0,0,.7,2.091,2.407,2.407,0,0,0,1.861.714,6.3,6.3,0,0,0,2.5-.528v1.057a6.271,6.271,0,0,1-1.189.389,6.68,6.68,0,0,1-1.351.118Zm-.321-7.117a1.935,1.935,0,0,0-1.5.614,2.83,2.83,0,0,0-.661,1.7h4.09a2.606,2.606,0,0,0-.5-1.717,1.759,1.759,0,0,0-1.427-.6ZM124.943-6.7h-.066a2.784,2.784,0,0,1-2.459,1.192A2.9,2.9,0,0,1,120.03-6.56a4.619,4.619,0,0,1-.853-2.984,4.7,4.7,0,0,1,.857-3.005,2.883,2.883,0,0,1,2.384-1.071,2.845,2.845,0,0,1,2.442,1.156h.093l-.05-.564-.029-.55v-3.184h1.192V-5.654H125.1Zm-2.37.2a2.158,2.158,0,0,0,1.76-.661,3.337,3.337,0,0,0,.546-2.131v-.25a3.926,3.926,0,0,0-.554-2.374,2.1,2.1,0,0,0-1.767-.71,1.814,1.814,0,0,0-1.595.81,4.029,4.029,0,0,0-.554,2.288,3.862,3.862,0,0,0,.55,2.263,1.861,1.861,0,0,0,1.613.766Zm9.308.993a3.6,3.6,0,0,1-2.738-1.057,4.09,4.09,0,0,1-1-2.934,4.536,4.536,0,0,1,.93-3.005,3.1,3.1,0,0,1,2.5-1.114,2.951,2.951,0,0,1,2.326.968,3.708,3.708,0,0,1,.857,2.552v.75h-5.39a3.1,3.1,0,0,0,.7,2.091,2.407,2.407,0,0,0,1.861.714,6.3,6.3,0,0,0,2.5-.528v1.057a6.271,6.271,0,0,1-1.189.389,6.679,6.679,0,0,1-1.351.118Zm-.321-7.117a1.935,1.935,0,0,0-1.5.614,2.83,2.83,0,0,0-.661,1.7h4.09a2.606,2.606,0,0,0-.5-1.717,1.759,1.759,0,0,0-1.427-.6Zm6.4,6.975h-1.183V-16.762h1.183Zm9.88-7.967a4.637,4.637,0,0,1,.935.086l-.164,1.1a4.037,4.037,0,0,0-.857-.107,2.085,2.085,0,0,0-1.624.771,2.811,2.811,0,0,0-.675,1.921v4.2h-1.182v-7.824h.978l.133,1.449h.057a3.439,3.439,0,0,1,1.049-1.178,2.363,2.363,0,0,1,1.352-.415Zm7.212,7.967-.235-1.114h-.057a3.292,3.292,0,0,1-1.167,1,3.557,3.557,0,0,1-1.453.261,2.613,2.613,0,0,1-1.824-.6,2.187,2.187,0,0,1-.661-1.706q0-2.37,3.788-2.484l1.329-.043v-.485a1.984,1.984,0,0,0-.4-1.36,1.629,1.629,0,0,0-1.262-.446,5.163,5.163,0,0,0-2.213.6l-.364-.906a5.568,5.568,0,0,1,1.267-.492,5.488,5.488,0,0,1,1.382-.179,2.981,2.981,0,0,1,2.074.621A2.592,2.592,0,0,1,155.934-11v5.342Zm-2.677-.835a2.4,2.4,0,0,0,1.738-.607,2.245,2.245,0,0,0,.632-1.7V-9.5l-1.185.05a4.31,4.31,0,0,0-2.038.439A1.324,1.324,0,0,0,150.9-7.8a1.221,1.221,0,0,0,.389.978A1.615,1.615,0,0,0,152.377-6.489ZM163.7-6.7h-.066a2.784,2.784,0,0,1-2.459,1.192,2.9,2.9,0,0,1-2.388-1.049,4.619,4.619,0,0,1-.853-2.984,4.7,4.7,0,0,1,.857-3.005,2.883,2.883,0,0,1,2.384-1.071,2.845,2.845,0,0,1,2.442,1.156h.093l-.05-.564-.029-.55v-3.184h1.185V-5.654h-.964Zm-2.37.2a2.158,2.158,0,0,0,1.76-.661,3.337,3.337,0,0,0,.546-2.131v-.25a3.926,3.926,0,0,0-.554-2.374,2.1,2.1,0,0,0-1.767-.71,1.814,1.814,0,0,0-1.595.81,4.029,4.029,0,0,0-.554,2.288,3.862,3.862,0,0,0,.55,2.263,1.861,1.861,0,0,0,1.614.766Zm7.188.85h-1.183v-7.824h1.185ZM167.233-15.6a.787.787,0,0,1,.2-.6.7.7,0,0,1,.5-.189.7.7,0,0,1,.492.193.773.773,0,0,1,.207.593.785.785,0,0,1-.207.6.691.691,0,0,1-.492.2.684.684,0,0,1-.5-.2.8.8,0,0,1-.2-.6Zm10.551,6.024a4.32,4.32,0,0,1-.964,2.99,3.394,3.394,0,0,1-2.663,1.073A3.527,3.527,0,0,1,172.3-6a3.251,3.251,0,0,1-1.257-1.414,4.927,4.927,0,0,1-.443-2.156,4.31,4.31,0,0,1,.956-2.981,3.383,3.383,0,0,1,2.658-1.067,3.31,3.31,0,0,1,2.609,1.093,4.3,4.3,0,0,1,.963,2.953Zm-5.961,0a3.714,3.714,0,0,0,.6,2.285,2.081,2.081,0,0,0,1.763.786,2.1,2.1,0,0,0,1.767-.782,3.7,3.7,0,0,0,.6-2.288,3.635,3.635,0,0,0-.6-2.267,2.119,2.119,0,0,0-1.781-.775,2.086,2.086,0,0,0-1.756.764,3.676,3.676,0,0,0-.59,2.277Z" transform="translate(441.626 2470.939)" fill="#00223d"/>
    <g id="Grupo_7556" data-name="Grupo 7556" transform="translate(401.752 2449.335)">
      <circle id="Elipse_496-10" data-name="Elipse 496" cx="9.968" cy="9.968" r="9.968" transform="translate(0 0)" fill="#7b1fa2"/>
      <text id="_3-2" data-name="3" transform="translate(6.175 13.665)" fill="#fff" font-size="12" font-family="OpenSans-Bold, Open Sans" font-weight="700"><tspan x="0" y="0">3</tspan></text>
    </g>
    <path id="Trazado_13364" data-name="Trazado 13364" d="M3.372-9.947v4.34H2.159V-16.044H5.022a4.5,4.5,0,0,1,2.838.735A2.666,2.666,0,0,1,8.777-13.1a2.772,2.772,0,0,1-2.1,2.8l2.834,4.69H8.077L5.552-9.947Zm0-1.042H5.034a2.872,2.872,0,0,0,1.885-.51,1.9,1.9,0,0,0,.6-1.528,1.742,1.742,0,0,0-.61-1.492,3.307,3.307,0,0,0-1.956-.457H3.372Zm14.4,1.461a4.32,4.32,0,0,1-.965,2.99,3.394,3.394,0,0,1-2.658,1.073,3.527,3.527,0,0,1-1.861-.492A3.251,3.251,0,0,1,11.025-7.37a4.926,4.926,0,0,1-.442-2.158,4.31,4.31,0,0,1,.956-2.981A3.383,3.383,0,0,1,14.2-13.576a3.31,3.31,0,0,1,2.609,1.094,4.3,4.3,0,0,1,.965,2.954Zm-5.961,0a3.714,3.714,0,0,0,.6,2.285,2.081,2.081,0,0,0,1.763.786,2.1,2.1,0,0,0,1.771-.781,3.7,3.7,0,0,0,.6-2.289,3.635,3.635,0,0,0-.6-2.265,2.119,2.119,0,0,0-1.781-.775,2.086,2.086,0,0,0-1.756.764,3.676,3.676,0,0,0-.594,2.276ZM22.377-6.444a3.871,3.871,0,0,0,.607-.047,3.927,3.927,0,0,0,.465-.1v.908a2.166,2.166,0,0,1-.568.154,4.262,4.262,0,0,1-.675.06q-2.27,0-2.27-2.392v-4.652H18.814v-.571l1.121-.492.5-1.671h.684v1.814h2.27v.921h-2.27v4.6a1.584,1.584,0,0,0,.332,1.085,1.168,1.168,0,0,0,.924.375Zm3.748-6.989v5.076a2.042,2.042,0,0,0,.435,1.427,1.774,1.774,0,0,0,1.364.471,2.225,2.225,0,0,0,1.794-.671,3.385,3.385,0,0,0,.568-2.193v-4.112h1.185v7.827h-.978l-.171-1.049h-.066a2.362,2.362,0,0,1-1.008.885,3.4,3.4,0,0,1-1.475.307,2.99,2.99,0,0,1-2.137-.679,2.887,2.887,0,0,1-.71-2.17V-13.43Zm9.044,7.826H33.984V-16.715h1.185Zm7.325,0-.235-1.114H42.2a3.292,3.292,0,0,1-1.167,1,3.557,3.557,0,0,1-1.454.26,2.613,2.613,0,0,1-1.824-.6A2.187,2.187,0,0,1,37.1-7.768q0-2.37,3.788-2.484l1.329-.043v-.485a1.984,1.984,0,0,0-.4-1.36,1.629,1.629,0,0,0-1.267-.439,5.163,5.163,0,0,0-2.213.6l-.364-.906a5.568,5.568,0,0,1,1.267-.492,5.488,5.488,0,0,1,1.382-.179,2.981,2.981,0,0,1,2.074.621,2.592,2.592,0,0,1,.675,1.994v5.336Zm-2.677-.835a2.4,2.4,0,0,0,1.738-.607,2.245,2.245,0,0,0,.632-1.7v-.706L41-9.4a4.31,4.31,0,0,0-2.038.439,1.324,1.324,0,0,0-.625,1.21,1.221,1.221,0,0,0,.389.978A1.615,1.615,0,0,0,39.816-6.442Z" transform="translate(440.901 2501.461)" fill="#00223d"/>
    <g id="Grupo_7557" data-name="Grupo 7557" transform="translate(401.752 2480.57)">
      <circle id="Elipse_496-11" data-name="Elipse 496" cx="9.968" cy="9.968" r="9.968" transform="translate(0)" fill="#7b1fa2"/>
      <text id="_4-2" data-name="4" transform="translate(6.175 13.665)" fill="#fff" font-size="12" font-family="OpenSans-Bold, Open Sans" font-weight="700"><tspan x="0" y="0">4</tspan></text>
    </g>
    <path id="Trazado_13365" data-name="Trazado 13365" d="M3.372-5.654H2.159V-16.091H7.977v1.078h-4.6v3.819H7.7v1.078H3.372ZM16.279-9.575a4.32,4.32,0,0,1-.964,2.99,3.394,3.394,0,0,1-2.663,1.073A3.527,3.527,0,0,1,10.792-6,3.251,3.251,0,0,1,9.536-7.417a4.926,4.926,0,0,1-.445-2.158,4.31,4.31,0,0,1,.956-2.981,3.383,3.383,0,0,1,2.658-1.067,3.31,3.31,0,0,1,2.609,1.093,4.3,4.3,0,0,1,.965,2.955Zm-5.961,0a3.714,3.714,0,0,0,.6,2.285A2.081,2.081,0,0,0,12.68-6.5a2.1,2.1,0,0,0,1.767-.782,3.7,3.7,0,0,0,.605-2.289,3.635,3.635,0,0,0-.6-2.267,2.119,2.119,0,0,0-1.781-.775,2.086,2.086,0,0,0-1.756.764,3.676,3.676,0,0,0-.592,2.278ZM23.4-7.79A1.96,1.96,0,0,1,22.588-6.1a3.825,3.825,0,0,1-2.284.593A4.968,4.968,0,0,1,17.877-6V-7.1a5.87,5.87,0,0,0,1.21.45,5.051,5.051,0,0,0,1.246.164,2.825,2.825,0,0,0,1.429-.294.98.98,0,0,0,.5-.9.98.98,0,0,0-.4-.782,6.232,6.232,0,0,0-1.546-.768,8.381,8.381,0,0,1-1.552-.71,2.121,2.121,0,0,1-.682-.692,1.794,1.794,0,0,1-.225-.921,1.756,1.756,0,0,1,.778-1.51,3.626,3.626,0,0,1,2.135-.554,6.247,6.247,0,0,1,2.47.514l-.421.964a5.67,5.67,0,0,0-2.135-.485,2.459,2.459,0,0,0-1.271.266.817.817,0,0,0-.429.73.887.887,0,0,0,.161.536,1.585,1.585,0,0,0,.518.421,11.563,11.563,0,0,0,1.371.578,5.12,5.12,0,0,1,1.881,1.021A1.8,1.8,0,0,1,23.4-7.788Zm6.74,2.136-.235-1.114h-.057a3.292,3.292,0,0,1-1.167,1,3.557,3.557,0,0,1-1.453.261,2.613,2.613,0,0,1-1.824-.6,2.187,2.187,0,0,1-.661-1.706q0-2.37,3.788-2.484l1.329-.043v-.485a1.984,1.984,0,0,0-.4-1.36,1.629,1.629,0,0,0-1.267-.439,5.163,5.163,0,0,0-2.213.6l-.364-.906a5.568,5.568,0,0,1,1.267-.492,5.488,5.488,0,0,1,1.382-.179,2.981,2.981,0,0,1,2.074.621,2.592,2.592,0,0,1,.675,1.994v5.336Zm-2.677-.835A2.4,2.4,0,0,0,29.2-7.1a2.245,2.245,0,0,0,.632-1.7V-9.5l-1.185.05a4.31,4.31,0,0,0-2.038.439,1.324,1.324,0,0,0-.625,1.21,1.221,1.221,0,0,0,.387.978,1.615,1.615,0,0,0,1.09.336ZM40.9-5.511a3.389,3.389,0,0,1-1.4-.282,2.624,2.624,0,0,1-1.063-.867h-.086a10.5,10.5,0,0,1,.089,1.3v3.22H37.261V-13.478h.964l.164,1.071h.057a2.752,2.752,0,0,1,1.063-.93,3.234,3.234,0,0,1,1.392-.286,2.891,2.891,0,0,1,2.4,1.063,4.683,4.683,0,0,1,.846,2.985,4.656,4.656,0,0,1-.861,3A2.9,2.9,0,0,1,40.9-5.511Zm-.171-7.1A2.1,2.1,0,0,0,39-11.95a3.416,3.416,0,0,0-.55,2.113v.266A3.916,3.916,0,0,0,39-7.212a2.091,2.091,0,0,0,1.763.71,1.834,1.834,0,0,0,1.588-.821,3.893,3.893,0,0,0,.576-2.265,3.747,3.747,0,0,0-.577-2.247A1.89,1.89,0,0,0,40.73-12.614Zm12.242,3.04a4.32,4.32,0,0,1-.964,2.99,3.394,3.394,0,0,1-2.663,1.073A3.527,3.527,0,0,1,47.486-6a3.251,3.251,0,0,1-1.257-1.414,4.926,4.926,0,0,1-.448-2.158,4.31,4.31,0,0,1,.956-2.981A3.383,3.383,0,0,1,49.4-13.623,3.31,3.31,0,0,1,52-12.53,4.3,4.3,0,0,1,52.973-9.575Zm-5.961,0a3.714,3.714,0,0,0,.6,2.285,2.081,2.081,0,0,0,1.763.786,2.1,2.1,0,0,0,1.767-.782,3.7,3.7,0,0,0,.6-2.289,3.635,3.635,0,0,0-.6-2.267,2.119,2.119,0,0,0-1.781-.775,2.086,2.086,0,0,0-1.756.764,3.676,3.676,0,0,0-.592,2.278Zm11.68,4.064a3.389,3.389,0,0,1-1.4-.282,2.624,2.624,0,0,1-1.063-.867h-.084a10.5,10.5,0,0,1,.087,1.3v3.22H55.05V-13.478h.965l.164,1.071h.057a2.752,2.752,0,0,1,1.063-.93,3.234,3.234,0,0,1,1.392-.286,2.891,2.891,0,0,1,2.4,1.063,4.683,4.683,0,0,1,.845,2.985,4.656,4.656,0,0,1-.86,3A2.9,2.9,0,0,1,58.691-5.511Zm-.171-7.1a2.1,2.1,0,0,0-1.734.665,3.416,3.416,0,0,0-.55,2.113v.266a3.916,3.916,0,0,0,.55,2.359,2.091,2.091,0,0,0,1.763.71,1.834,1.834,0,0,0,1.587-.824,3.893,3.893,0,0,0,.575-2.263,3.747,3.747,0,0,0-.575-2.247,1.89,1.89,0,0,0-1.616-.78Zm6.675,6.96H64.009v-7.824h1.185Zm-1.235-9.038q.343-.443.739-1.071a12.253,12.253,0,0,0,.625-1.093h1.442v.15a10.552,10.552,0,0,1-.935,1.142,10.617,10.617,0,0,1-1.078,1.049h-.793Zm6.277,8.2a3.871,3.871,0,0,0,.607-.047,3.928,3.928,0,0,0,.465-.1v.907a2.166,2.166,0,0,1-.568.154,4.262,4.262,0,0,1-.675.06q-2.27,0-2.27-2.392v-4.652H66.672v-.571l1.121-.492.5-1.671h.685v1.814h2.27v.921h-2.27v4.6a1.584,1.584,0,0,0,.332,1.085A1.168,1.168,0,0,0,70.237-6.489Zm6.2-7.131a4.637,4.637,0,0,1,.935.086l-.164,1.1a4.036,4.036,0,0,0-.857-.107,2.085,2.085,0,0,0-1.624.771,2.811,2.811,0,0,0-.675,1.921v4.2H72.871v-7.824h.978l.133,1.449h.057a3.439,3.439,0,0,1,1.049-1.178,2.362,2.362,0,0,1,1.35-.415Zm5.7,8.108A3.6,3.6,0,0,1,79.406-6.57a4.09,4.09,0,0,1-1-2.934,4.536,4.536,0,0,1,.93-3.005,3.1,3.1,0,0,1,2.5-1.114,2.951,2.951,0,0,1,2.326.968,3.708,3.708,0,0,1,.857,2.552v.75h-5.39a3.1,3.1,0,0,0,.7,2.091,2.407,2.407,0,0,0,1.861.714,6.3,6.3,0,0,0,2.5-.528V-6.02a6.271,6.271,0,0,1-1.189.389,6.679,6.679,0,0,1-1.353.12Zm-.321-7.117a1.935,1.935,0,0,0-1.5.614,2.83,2.83,0,0,0-.661,1.7h4.09a2.606,2.606,0,0,0-.5-1.717,1.759,1.759,0,0,0-1.428-.6ZM91.851-5.654l-.235-1.114h-.057a3.292,3.292,0,0,1-1.167,1,3.557,3.557,0,0,1-1.453.261,2.613,2.613,0,0,1-1.822-.6,2.187,2.187,0,0,1-.665-1.707q0-2.37,3.788-2.484l1.329-.043v-.485a1.984,1.984,0,0,0-.4-1.36,1.629,1.629,0,0,0-1.263-.443,5.163,5.163,0,0,0-2.213.6l-.364-.906a5.568,5.568,0,0,1,1.267-.492,5.488,5.488,0,0,1,1.382-.179,2.981,2.981,0,0,1,2.074.621A2.592,2.592,0,0,1,92.728-11v5.342Zm-2.674-.835A2.4,2.4,0,0,0,90.915-7.1a2.245,2.245,0,0,0,.632-1.7V-9.5l-1.185.05a4.31,4.31,0,0,0-2.038.439A1.324,1.324,0,0,0,87.7-7.8a1.221,1.221,0,0,0,.389.978,1.615,1.615,0,0,0,1.089.335Z" transform="translate(440.901 2532.078)" fill="#00223d"/>
    <g id="Grupo_7558" data-name="Grupo 7558" transform="translate(401.752 2510.475)">
      <circle id="Elipse_496-12" data-name="Elipse 496" cx="9.968" cy="9.968" r="9.968" transform="translate(0 0)" fill="#7b1fa2"/>
      <text id="_5-2" data-name="5" transform="translate(6.175 13.665)" fill="#fff" font-size="12" font-family="OpenSans-Bold, Open Sans" font-weight="700"><tspan x="0" y="0">5</tspan></text>
    </g>
    <path id="Trazado_13366" data-name="Trazado 13366" d="M7.977-5.417H2.159V-15.854H7.977v1.078h-4.6v3.363H7.7v1.071H3.372V-6.5h4.6Zm12.108,0v-5.09a2.113,2.113,0,0,0-.4-1.4,1.546,1.546,0,0,0-1.242-.465,2.006,2.006,0,0,0-1.635.635,3.02,3.02,0,0,0-.528,1.956v4.367H15.095v-5.09a2.113,2.113,0,0,0-.4-1.4,1.556,1.556,0,0,0-1.249-.465,1.935,1.935,0,0,0-1.631.665A3.613,3.613,0,0,0,11.3-9.523v4.106H10.112v-7.824h.964l.193,1.071h.057a2.326,2.326,0,0,1,.946-.889,2.889,2.889,0,0,1,1.367-.321,2.323,2.323,0,0,1,2.4,1.329h.057a2.5,2.5,0,0,1,1.013-.971,3.145,3.145,0,0,1,1.513-.357,2.65,2.65,0,0,1,1.988.682,3.05,3.05,0,0,1,.661,2.181v5.1Zm7.267.143a3.389,3.389,0,0,1-1.4-.282,2.624,2.624,0,0,1-1.063-.867h-.086a10.5,10.5,0,0,1,.089,1.3v3.22H23.711V-13.241h.964l.164,1.071H24.9a2.752,2.752,0,0,1,1.063-.93,3.234,3.234,0,0,1,1.392-.286,2.891,2.891,0,0,1,2.4,1.063A4.683,4.683,0,0,1,30.6-9.338a4.656,4.656,0,0,1-.86,2.994,2.9,2.9,0,0,1-2.388,1.069Zm-.171-7.1a2.1,2.1,0,0,0-1.734.665A3.416,3.416,0,0,0,24.9-9.6v.266a3.916,3.916,0,0,0,.55,2.359,2.091,2.091,0,0,0,1.763.71A1.834,1.834,0,0,0,28.8-7.085a3.893,3.893,0,0,0,.575-2.263A3.747,3.747,0,0,0,28.8-11.6a1.89,1.89,0,0,0-1.617-.78Zm8.8,7.1a3.6,3.6,0,0,1-2.738-1.057,4.09,4.09,0,0,1-1-2.934,4.536,4.536,0,0,1,.93-3.005,3.1,3.1,0,0,1,2.5-1.114,2.951,2.951,0,0,1,2.326.968,3.708,3.708,0,0,1,.857,2.552v.75H33.46a3.1,3.1,0,0,0,.7,2.091,2.407,2.407,0,0,0,1.861.714,6.3,6.3,0,0,0,2.5-.528v1.057a6.271,6.271,0,0,1-1.189.389,6.679,6.679,0,0,1-1.351.118ZM35.655-12.4a1.935,1.935,0,0,0-1.5.614,2.83,2.83,0,0,0-.661,1.7h4.09a2.606,2.606,0,0,0-.5-1.715A1.759,1.759,0,0,0,35.655-12.4Zm6.4,6.978H40.873v-7.824H42.06Zm-1.287-9.944a.787.787,0,0,1,.2-.6.7.7,0,0,1,.5-.189.7.7,0,0,1,.492.193.773.773,0,0,1,.207.593.785.785,0,0,1-.207.6.691.691,0,0,1-.492.2.685.685,0,0,1-.5-.2A.8.8,0,0,1,40.773-15.362Zm9.152,9.944v-5.061a2.042,2.042,0,0,0-.435-1.427,1.774,1.774,0,0,0-1.364-.471,2.249,2.249,0,0,0-1.8.665,3.352,3.352,0,0,0-.571,2.193v4.1H44.571v-7.824h.964l.193,1.071h.054a2.42,2.42,0,0,1,1.021-.9,3.317,3.317,0,0,1,1.462-.318,2.972,2.972,0,0,1,2.127.682,2.9,2.9,0,0,1,.714,2.181v5.1Zm6.925.143a3.6,3.6,0,0,1-2.738-1.057,4.09,4.09,0,0,1-1-2.934,4.536,4.536,0,0,1,.93-3.005,3.1,3.1,0,0,1,2.5-1.114,2.951,2.951,0,0,1,2.326.968,3.708,3.708,0,0,1,.857,2.552v.75h-5.39a3.1,3.1,0,0,0,.7,2.091,2.407,2.407,0,0,0,1.861.714,6.3,6.3,0,0,0,2.5-.528v1.057a6.271,6.271,0,0,1-1.189.389A6.679,6.679,0,0,1,56.849-5.274ZM56.528-12.4a1.935,1.935,0,0,0-1.5.614,2.83,2.83,0,0,0-.661,1.7h4.09a2.606,2.606,0,0,0-.5-1.715A1.759,1.759,0,0,0,56.528-12.4Z" transform="translate(440.901 2562.411)" fill="#00223d"/>
    <g id="Grupo_7559" data-name="Grupo 7559" transform="translate(401.752 2541.044)">
      <circle id="Elipse_496-13" data-name="Elipse 496" cx="9.968" cy="9.968" r="9.968" transform="translate(0 0)" fill="#7b1fa2"/>
      <text id="_6-2" data-name="6" transform="translate(6.175 13.665)" fill="#fff" font-size="12" font-family="OpenSans-Bold, Open Sans" font-weight="700"><tspan x="0" y="0">6</tspan></text>
    </g>
    <path id="Trazado_13367" data-name="Trazado 13367" d="M4.712-5.654H3.5v-9.359H.193v-1.078H8.017v1.078H4.712Zm9.508,0-.235-1.114h-.057a3.292,3.292,0,0,1-1.17,1,3.557,3.557,0,0,1-1.453.261,2.613,2.613,0,0,1-1.824-.6A2.187,2.187,0,0,1,8.82-7.815q0-2.37,3.788-2.484l1.329-.043v-.485a1.984,1.984,0,0,0-.4-1.36,1.629,1.629,0,0,0-1.259-.445,5.163,5.163,0,0,0-2.213.6l-.366-.9a5.568,5.568,0,0,1,1.267-.492,5.488,5.488,0,0,1,1.382-.179,2.981,2.981,0,0,1,2.074.621,2.592,2.592,0,0,1,.675,1.994v5.338Zm-2.676-.835A2.4,2.4,0,0,0,13.282-7.1a2.245,2.245,0,0,0,.632-1.7V-9.5l-1.185.05a4.31,4.31,0,0,0-2.038.439,1.324,1.324,0,0,0-.625,1.21,1.221,1.221,0,0,0,.389.978,1.615,1.615,0,0,0,1.089.335Zm7.182.835H17.543V-16.762h1.183Zm9.266-3.921a4.32,4.32,0,0,1-.964,2.99,3.394,3.394,0,0,1-2.663,1.073A3.527,3.527,0,0,1,22.5-6a3.251,3.251,0,0,1-1.257-1.414A4.926,4.926,0,0,1,20.8-9.575a4.31,4.31,0,0,1,.956-2.981,3.383,3.383,0,0,1,2.658-1.067,3.31,3.31,0,0,1,2.609,1.093,4.3,4.3,0,0,1,.965,2.955Zm-5.961,0a3.714,3.714,0,0,0,.6,2.285,2.081,2.081,0,0,0,1.763.786,2.1,2.1,0,0,0,1.767-.782,3.7,3.7,0,0,0,.605-2.289,3.635,3.635,0,0,0-.6-2.267,2.119,2.119,0,0,0-1.781-.775,2.086,2.086,0,0,0-1.756.764,3.676,3.676,0,0,0-.592,2.278ZM23.4-14.692q.343-.443.739-1.071a12.255,12.255,0,0,0,.625-1.093h1.442v.15a10.554,10.554,0,0,1-.935,1.142,10.618,10.618,0,0,1-1.078,1.049H23.4ZM35.423-5.654v-5.061a2.042,2.042,0,0,0-.435-1.427,1.774,1.774,0,0,0-1.364-.471,2.249,2.249,0,0,0-1.8.665,3.352,3.352,0,0,0-.571,2.193v4.1H30.069v-7.824h.964l.193,1.071h.057a2.42,2.42,0,0,1,1.021-.9,3.317,3.317,0,0,1,1.462-.318,2.972,2.972,0,0,1,2.127.682,2.9,2.9,0,0,1,.714,2.181v5.1Z" transform="translate(441.561 2593.217)" fill="#00223d"/>
    <g id="Grupo_7560" data-name="Grupo 7560" transform="translate(401.752 2571.614)">
      <circle id="Elipse_496-14" data-name="Elipse 496" cx="9.968" cy="9.968" r="9.968" transform="translate(0 0)" fill="#7b1fa2"/>
      <text id="_7-2" data-name="7" transform="translate(6.175 13.665)" fill="#fff" font-size="12" font-family="OpenSans-Bold, Open Sans" font-weight="700"><tspan x="0" y="0">7</tspan></text>
    </g>
    <rect id="Rect치ngulo_2106" data-name="Rect치ngulo 2106" width="5.316" height="5.316" transform="translate(270.822 2703.86)" fill="#895cd8"/>
    <rect id="Rect치ngulo_2107" data-name="Rect치ngulo 2107" width="5.316" height="5.316" transform="translate(230.949 2729.778)" fill="#895cd8"/>
    <rect id="Rect치ngulo_2108" data-name="Rect치ngulo 2108" width="5.316" height="5.316" transform="translate(230.949 2882.625)" fill="#895cd8"/>
    <rect id="Rect치ngulo_2109" data-name="Rect치ngulo 2109" width="5.316" height="5.316" transform="translate(280.126 2895.252)" fill="#895cd8"/>
    <rect id="Rect치ngulo_2110" data-name="Rect치ngulo 2110" width="5.316" height="5.316" transform="translate(272.816 2577.594)" fill="#895cd8"/>
    <rect id="Rect치ngulo_2111" data-name="Rect치ngulo 2111" width="5.316" height="5.316" transform="translate(232.278 2416.772)" fill="#895cd8"/>
    <rect id="Rect치ngulo_2112" data-name="Rect치ngulo 2112" width="5.316" height="5.316" transform="translate(232.278 2515.126)" fill="#895cd8"/>
    <path id="Trazado_13443" data-name="Trazado 13443" d="M3469,1212v96" transform="translate(-3234.064 1207.43)" fill="none" stroke="#895cd8" stroke-width="2"/>
    <path id="Trazado_100265" data-name="Trazado 100265" d="M7.664-5.031h-4.8V0H1.328V-11.375H8.461v1.211H2.867v3.922h4.8ZM9.422-4.3a4.654,4.654,0,0,1,1.016-3.09A3.406,3.406,0,0,1,13.2-8.609,3.439,3.439,0,0,1,15.973-7.4,4.639,4.639,0,0,1,16.992-4.3v.172a4.631,4.631,0,0,1-1.016,3.094,3.429,3.429,0,0,1-2.766,1.2,3.436,3.436,0,0,1-2.77-1.207,4.623,4.623,0,0,1-1.02-3.09Zm1.539.172a4.009,4.009,0,0,0,.566,2.219,1.875,1.875,0,0,0,1.684.875,1.87,1.87,0,0,0,1.672-.875,3.988,3.988,0,0,0,.57-2.219V-4.3a3.976,3.976,0,0,0-.574-2.211A1.882,1.882,0,0,0,13.2-7.4a1.856,1.856,0,0,0-1.668.883A4.018,4.018,0,0,0,10.961-4.3ZM23.789-2.273A1.026,1.026,0,0,0,23.4-3.1a3.732,3.732,0,0,0-1.465-.562,6.146,6.146,0,0,1-2.293-.9,1.814,1.814,0,0,1-.8-1.547,2.229,2.229,0,0,1,.879-1.766A3.433,3.433,0,0,1,22-8.609a3.4,3.4,0,0,1,2.328.781,2.239,2.239,0,0,1,.852,1.82l-.016.047H23.7a1.331,1.331,0,0,0-.48-.992A1.717,1.717,0,0,0,22-7.4a1.751,1.751,0,0,0-1.215.367,1.146,1.146,0,0,0-.4.875.927.927,0,0,0,.348.773,3.848,3.848,0,0,0,1.434.5,6.058,6.058,0,0,1,2.359.93,1.872,1.872,0,0,1,.8,1.57,2.226,2.226,0,0,1-.91,1.836,3.754,3.754,0,0,1-2.379.711,3.715,3.715,0,0,1-2.547-.82,2.341,2.341,0,0,1-.883-1.914l.016-.047h1.469a1.424,1.424,0,0,0,.609,1.2,2.358,2.358,0,0,0,1.336.379,2.1,2.1,0,0,0,1.285-.348A1.063,1.063,0,0,0,23.789-2.273ZM32.438,0q-.078-.383-.121-.676a4.96,4.96,0,0,1-.051-.59,3.589,3.589,0,0,1-1.121,1.02,2.867,2.867,0,0,1-1.488.41,2.763,2.763,0,0,1-2.012-.676,2.486,2.486,0,0,1-.691-1.863,2.183,2.183,0,0,1,.98-1.895,4.579,4.579,0,0,1,2.66-.684h1.672v-.836a1.551,1.551,0,0,0-.453-1.176A1.779,1.779,0,0,0,30.531-7.4a1.859,1.859,0,0,0-1.211.375,1.125,1.125,0,0,0-.461.9L27.4-6.109l-.016-.047a2.023,2.023,0,0,1,.863-1.687,3.578,3.578,0,0,1,2.371-.766,3.49,3.49,0,0,1,2.313.73A2.588,2.588,0,0,1,33.8-5.773V-1.7a7.923,7.923,0,0,0,.047.875A4.5,4.5,0,0,0,34.023,0ZM29.883-1.125a2.739,2.739,0,0,0,1.508-.43,2.042,2.042,0,0,0,.875-.984V-3.914H30.539a2.24,2.24,0,0,0-1.488.469,1.4,1.4,0,0,0-.559,1.1,1.159,1.159,0,0,0,.352.891A1.472,1.472,0,0,0,29.883-1.125ZM45.211,0q-.078-.383-.121-.676a4.96,4.96,0,0,1-.051-.59,3.589,3.589,0,0,1-1.121,1.02,2.867,2.867,0,0,1-1.488.41,2.763,2.763,0,0,1-2.012-.676,2.486,2.486,0,0,1-.691-1.863,2.183,2.183,0,0,1,.98-1.895,4.579,4.579,0,0,1,2.66-.684h1.672v-.836a1.551,1.551,0,0,0-.453-1.176A1.779,1.779,0,0,0,43.3-7.4a1.859,1.859,0,0,0-1.211.375,1.125,1.125,0,0,0-.461.9l-1.461.016-.016-.047a2.023,2.023,0,0,1,.863-1.687,3.578,3.578,0,0,1,2.371-.766,3.49,3.49,0,0,1,2.313.73,2.588,2.588,0,0,1,.875,2.105V-1.7a7.923,7.923,0,0,0,.047.875A4.5,4.5,0,0,0,46.8,0ZM42.656-1.125a2.739,2.739,0,0,0,1.508-.43,2.042,2.042,0,0,0,.875-.984V-3.914H43.313a2.24,2.24,0,0,0-1.488.469,1.4,1.4,0,0,0-.559,1.1,1.159,1.159,0,0,0,.352.891A1.472,1.472,0,0,0,42.656-1.125ZM51.68-5.336l1.8-3.117h1.8l-2.742,4.18L55.352,0H53.586L51.711-3.2,49.836,0H48.055l2.82-4.273-2.742-4.18h1.773ZM58.523,0H56.984V-8.453h1.539Zm0-10.617H56.984v-1.57h1.539ZM62.555,0H61.016V-12.187h1.539Zm4.031,0H65.047V-8.453h1.539Zm0-10.617H65.047v-1.57h1.539ZM74.148,0q-.078-.383-.121-.676a4.96,4.96,0,0,1-.051-.59,3.589,3.589,0,0,1-1.121,1.02,2.867,2.867,0,0,1-1.488.41,2.763,2.763,0,0,1-2.012-.676,2.486,2.486,0,0,1-.691-1.863,2.183,2.183,0,0,1,.98-1.895,4.579,4.579,0,0,1,2.66-.684h1.672v-.836a1.551,1.551,0,0,0-.453-1.176A1.779,1.779,0,0,0,72.242-7.4a1.859,1.859,0,0,0-1.211.375,1.125,1.125,0,0,0-.461.9l-1.461.016-.016-.047a2.023,2.023,0,0,1,.863-1.687,3.578,3.578,0,0,1,2.371-.766,3.49,3.49,0,0,1,2.313.73,2.588,2.588,0,0,1,.875,2.105V-1.7a7.923,7.923,0,0,0,.047.875A4.5,4.5,0,0,0,75.734,0ZM71.594-1.125a2.739,2.739,0,0,0,1.508-.43,2.042,2.042,0,0,0,.875-.984V-3.914H72.25a2.24,2.24,0,0,0-1.488.469,1.4,1.4,0,0,0-.559,1.1,1.159,1.159,0,0,0,.352.891A1.472,1.472,0,0,0,71.594-1.125ZM81.75-7.094l-.789-.047a1.762,1.762,0,0,0-1.027.289,1.854,1.854,0,0,0-.645.813V0H77.75V-8.453h1.375l.148,1.234a2.934,2.934,0,0,1,.887-1.023,2.073,2.073,0,0,1,1.215-.367,1.9,1.9,0,0,1,.328.027,2.175,2.175,0,0,1,.258.059Z" transform="translate(442 2405.857)" fill="#12263f"/>
  </g>
</svg>
