<svg xmlns="http://www.w3.org/2000/svg" width="170.47" height="229.365" viewBox="0 0 170.47 229.365">
  <g id="Grupo_53634" data-name="Grupo 53634" transform="translate(-392 -1965.5)">
    <g id="Grupo_53633" data-name="Grupo 53633" transform="translate(34.245 1756.073)">
      <path id="Trazado_100243" data-name="Trazado 100243" d="M495.074,353.847v.009c.218,3.088,1.38,5.916,2.021,8.918.612,2.863.62,5.821,1.055,8.714a45.085,45.085,0,0,0,2.084,8c.991,2.891,1.516,5.885,2.28,8.837a48.3,48.3,0,0,0,3.732,9.4c1.184,2.371,2.507,5.551,3.959,8.2,3.556-.036,15.517-6.04,17.383-7.492a11.611,11.611,0,0,0,.54-5.216c-.6-4.859-1.341-9.7-2.117-14.539q-4.139-25.768-8.36-51.522c-.728-4.421-1.823-8.77-.1-13.24a6.16,6.16,0,0,0-.027-3.685c-2.546-8.636-2.1-17.485-2.39-26.332A169.546,169.546,0,0,0,512.489,261c-.874-5.1-3.3-9.769-7.9-12.671-4.662-2.943-9.607-5.435-14.284-8.356-10.353-6.466-11.171-3.21-11.469-17.633a9.788,9.788,0,0,0-.7-2.89c-.227-1.329-.325-1.324-1.025-1.547-5.689-1.807-9.01-3.458-14.6-5.553-3.846-1.442-8.65-4.412-12.657-2.038-.022.014-.039.03-.06.044-.12-.076-.249-.161-.393-.262-.173,1.482-.376,2.625-.426,3.774-.154,3.525-.056,7.073-.419,10.574-.4,3.856-1.662,4.87-5.5,4.794a89.892,89.892,0,0,0-24.8,2.5c-9.969,2.621-18.2,7.61-22.1,17.589-4.735,12.124-9.419,24.3-13.338,36.7-7.7,24.372-14.676,48.966-15.063,74.812a11.865,11.865,0,0,0,2.636,7.392,55.639,55.639,0,0,0,9.546,8c4.289,3.078,8.809,5.836,13.348,8.81-.37.558-.683.964-.926,1.408-4.839,8.861-9.724,17.7-14.448,26.62-.735,1.388-.734,3.167-1.073,4.765l.994.295c.052-.087.111-.172.167-.258,16.987-.941,51.755-.037,51.755-.037s36.55.313,41,0c1.8,2.636,9.763,13.141,12.46,14.706a73.832,73.832,0,0,0,13.267,5.485,12.018,12.018,0,0,0,6.365.523c2.98-.723,5.726-2.365,8.622-3.486,3.144-1.216,6.261-2.924,9.772-.962a4.482,4.482,0,0,0,2.436.463,18.193,18.193,0,0,0,3.059-.77,8.308,8.308,0,0,0-1.562-2.462c-2.086-1.55-4.321-2.9-6.524-4.29-3.4-2.141-6.812-4.249-10.221-6.37,2.8.16,5.166,1.026,7.607,1.443,1.148.2,2.444-.47,3.672-.745a12.045,12.045,0,0,0-1.776-3.039c-1.284-1.18-2.6-2.288-3.941-3.359-4.612-.681-8.9-3.865-11.995-7.218-3.888-4.216-4.807-10.5-6.3-15.832-1.931-6.875-3.7-13.8-5.813-20.618-2.1-6.784-.591-12.161,1.707-18.68.788-2.235,4.362-1.266,3.569.984C495.128,353.7,495.1,353.773,495.074,353.847Zm-81.412,2.9a3.026,3.026,0,0,1-2.713.242c-3.971-2.259-7.88-4.64-11.677-7.178-.7-.467-1.376-2.124-1.072-2.751,2.691-5.547,5.605-10.986,8.852-17.221,2.229,4.812,4.151,8.889,6.006,13,.9,1.987,1.66,4.034,2.5,6.048C416.853,352.014,416.314,354.7,413.662,356.752Z" fill="#fff"/>
      <path id="Trazado_100244" data-name="Trazado 100244" d="M525.173,431.765c-2.085-1.55-4.321-2.9-6.523-4.29-3.4-2.141-6.813-4.249-10.221-6.37,2.8.16,5.166,1.026,7.606,1.443,1.148.2,2.444-.47,3.672-.745a12.024,12.024,0,0,0-1.775-3.039c-11.016-10.125-24.053-16.259-38.558-19.586a29.961,29.961,0,0,1-8.952-3.407c-11.356-7-22.556-14.257-33.771-21.482-7.262-4.678-14.452-9.467-21.991-14.414a22.174,22.174,0,0,1,1.866-2.937c2.5-2.771,2.492-5.418.78-8.8-3.147-6.222-5.766-12.715-8.481-19.147a4.683,4.683,0,0,1-.112-3.266c4.378-10.594,9.021-21.08,13.289-31.717,2.514-6.267,6.43-12.343,4.128-19.677a36.326,36.326,0,0,1-.925-3.955c-2.4-12.351-6.238-23.832-18.469-30.93,3.644-1.979,7.263-4.339,11.17-5.006,9-1.536,18.131-2.372,27.233-3.218,2.52-.234,4.567-.814,4.775-3.4.441-5.472.485-10.977.651-16.468,0-.159-.442-.33-1.161-.833-.172,1.482-.375,2.625-.426,3.774-.154,3.525-.056,7.073-.42,10.574-.4,3.856-1.662,4.87-5.5,4.794a89.888,89.888,0,0,0-24.8,2.5c-9.969,2.621-18.2,7.61-22.1,17.589-4.735,12.124-9.419,24.3-13.338,36.7-7.7,24.372-14.676,48.966-15.063,74.812a11.865,11.865,0,0,0,2.636,7.392,55.639,55.639,0,0,0,9.546,8c4.289,3.078,8.809,5.836,13.347,8.81-.369.558-.683.964-.925,1.408-4.839,8.861-9.724,17.7-14.448,26.62-.735,1.388-.734,3.167-1.074,4.765l.995.295a10.313,10.313,0,0,0,1.137-1.937c3.16-9.726,8.678-18.223,13.838-26.922,1.664-2.806,3.24-3.261,6.22-1.689,18.851,9.945,38.6,17.89,58.721,24.753,7.682,2.62,13.8,6.2,18.236,13.026a22.722,22.722,0,0,0,7.23,7.179,73.856,73.856,0,0,0,13.267,5.485,12.018,12.018,0,0,0,6.365.523c2.98-.723,5.726-2.365,8.622-3.486,3.144-1.216,6.26-2.924,9.772-.962a4.481,4.481,0,0,0,2.435.463,18.185,18.185,0,0,0,3.059-.77A8.3,8.3,0,0,0,525.173,431.765Zm-111.511-74.6a3.026,3.026,0,0,1-2.713.242c-3.971-2.259-7.88-4.64-11.677-7.178-.7-.467-1.376-2.124-1.072-2.751,2.691-5.547,5.605-10.986,8.852-17.221,2.229,4.812,4.151,8.889,6.006,13,.9,1.987,1.66,4.034,2.5,6.048C416.853,352.432,416.314,355.117,413.662,357.17Z" transform="translate(0 -0.418)" fill="#3b1f10"/>
      <path id="Trazado_100245" data-name="Trazado 100245" d="M522.6,452.124l.527-1.046c-8.145-4.752-16.267-9.533-22.957-16.213l.493-.891,16.766,6.275.555-.793c-1.541-1.181-3.012-2.468-4.636-3.524-5.054-3.285-9.864-7.186-15.332-9.533-6.558-2.814-13.7-4.251-20.579-6.337a16.451,16.451,0,0,1-4.028-1.651Q450.3,403.787,427.243,389.06c-8.88-5.652-17.726-11.36-26.663-16.921-3.2-1.994-3.824-3.016-2.568-6.563a30.533,30.533,0,0,1,1.843-3.611c2.093-4.071,4.414-8.044,6.229-12.235q8.2-18.938,16.031-38.035c1.679-4.107,3.95-8.481,3.87-12.693a57.815,57.815,0,0,0-7.075-26.346c-1.167-2.173-2.753-4.121-4.55-6.767.35-.945-5.446-3.067-6.13-3.743-1.256-1.24-2.917-1-4.031.556-1.446,2.024-3.243,3.942-4.125,6.2-4.382,11.245-8.779,22.5-12.67,33.918-6.068,17.809-12.095,56.113-15.16,76.233a5.443,5.443,0,0,0-.3,1.993c-.006.035-.011.072-.017.107.006-.012-2.625,3.918,14.675,16.109,11.656,8.213,25.144,13.547,38.176,19.279,14.389,6.329,29.327,11.4,43.961,17.188a12.628,12.628,0,0,1,5.083,3.817c5.652,7.262,11,14.767,20.739,17.054,2.071.487,4.063,1.3,6.091,1.968q.146-.338.293-.674l-7.959-4.438.583-1.339c1.773.539,3.566,1.023,5.315,1.632,1.856.647,3.671,1.414,5.5,2.128l.171-.464-7.513-3.627.592-1.259c2.7.907,5.349,2.009,8.107,2.665,2.629.626,5.369.788,8.06,1.154q.059-.438.119-.875c-11.259-5.448-13.862-7.289-14.284-10.786,4.086,2.133,7.781,4.134,11.541,6C514.953,448.569,518.793,450.319,522.6,452.124Z" transform="translate(-1.544 -19.899)" fill="#fff"/>
      <path id="Trazado_100246" data-name="Trazado 100246" d="M590.869,277.506c8.239,12.107,7.631,26,7.513,39.8l-1.016.2q-3.7-19.907-7.392-39.815Z" transform="translate(-85.155 -26.088)" fill="#fff"/>
      <path id="Trazado_100247" data-name="Trazado 100247" d="M594.67,398.8c-.6-4.859-1.341-9.7-2.117-14.539q-4.139-25.768-8.359-51.522c-.728-4.421-1.823-8.77-.1-13.24a6.161,6.161,0,0,0-.027-3.685c-2.547-8.636-2.1-17.485-2.391-26.332a169.447,169.447,0,0,0-2.647-22.891c-.874-5.1-3.3-9.769-7.9-12.671-4.662-2.943-9.607-5.435-14.284-8.356-10.611-6.627-11.207-3.031-11.49-18.736a19.7,19.7,0,0,0-.448-2.813l-.753-.016a5.81,5.81,0,0,0-.6,1.856q.194,5.459.569,10.909c.216,3.087,1.938,5.076,4.618,6.576,5.636,3.154,11.242,6.381,16.684,9.856a9.244,9.244,0,0,1,3.568,4.465,83.667,83.667,0,0,1,2.7,11.235c1.625,8.6,2.861,17.278,4.725,25.822,1.441,6.606,3.795,13.01,5.325,19.6a11.505,11.505,0,0,1-.5,7.2,66.4,66.4,0,0,1-4.193,7.176c-3.263,2.376-6.888,4.491-11.022,4.644-3.876.144-7.511-1.485-10.785-3.4-3.605-2.111-6.388-4.441-8.284-8.217a67.28,67.28,0,0,1-3.737-10.578c-.349-1.135-2.136-.651-1.784.492,1.225,3.986,2.3,8.106,4.324,11.786,2.195,4,5.505,6.446,9.442,8.625,3.439,1.9,7.236,3.357,11.228,3.118a18.269,18.269,0,0,0,7.673-2.384c-.2.254-.39.509-.59.759-4.765,5.979-11.055,10.753-13.688,18.372-1.836,5.312-4.163,10.458-5.931,15.791a10.673,10.673,0,0,0-.173,6.043c2.807,9.383,5.9,18.68,8.923,28a21.143,21.143,0,0,0,1.2,2.536l1.144-.368c-.4-1.584-.714-3.194-1.208-4.748-2.558-8.042-5.184-16.064-7.743-24.106-2.112-6.634,1.738-11.887,3.791-17.546,1.215,5.518,2.241,10.938,3,16.4a112.188,112.188,0,0,0,10.982,34.739,29.476,29.476,0,0,0,2.436,3.531l1.029-.612c-.4-.953-.81-1.9-1.184-2.86-3.086-7.949-6.718-15.741-9.081-23.9-2.106-7.268-2.679-14.969-4.16-22.434-1.691-8.528.056-15.706,6.753-21.725,3.532-3.175,6.323-7.175,9.446-10.805.508-.591,1-1.2,2.137-2.571,4.917,26.252,8.984,51.779,12.932,77.362A14.43,14.43,0,0,0,594.67,398.8ZM579.768,296.8l-1.016.2q-3.7-19.907-7.392-39.815l.895-.189C580.494,269.107,579.886,283,579.768,296.8Z" transform="translate(-66.541 -5.582)" fill="#3b1f10"/>
      <g id="Grupo_53632" data-name="Grupo 53632" transform="translate(417.719 302.678)">
        <path id="Trazado_100248" data-name="Trazado 100248" d="M448.974,366.843a33.362,33.362,0,0,0,25.586,12.838c4.505.061,9.122-.81,12.547-3.922,4.013-3.645,6.426-9.164,9.122-13.766a.926.926,0,0,0-1.6-.934c-2.418,4.126-4.59,8.9-7.865,12.433-3.433,3.7-8.3,4.533-13.139,4.311a31.664,31.664,0,0,1-23.346-12.269c-.732-.938-2.033.38-1.308,1.308Z" transform="translate(-448.761 -360.613)" fill="#3b1f10"/>
      </g>
    </g>
    <path id="Trazado_13405" data-name="Trazado 13405" d="M0,0H109.2V3.027H0Z" transform="translate(392 2172.526)" fill="#895cd8"/>
    <path id="Trazado_11922" data-name="Trazado 11922" d="M6276.742,612.484l-26.333,111.333,87.333,46" transform="translate(-5832.742 1392.183)" fill="none" stroke="#ea3065" stroke-width="2" stroke-dasharray="6"/>
  </g>
</svg>
