<svg xmlns="http://www.w3.org/2000/svg" width="444" height="178" viewBox="0 0 444 178">
  <g id="Grupo_53646" data-name="Grupo 53646" transform="translate(-783 -460)">
    <g id="BACKGROUND" transform="translate(783 495)">
      <rect id="Rectángulo_577" data-name="Rectángulo 577" width="444" height="143" transform="translate(0)" fill="#f3f9ff"/>
    </g>
    <g id="OBJECTS" transform="translate(905.809 460)">
      <g id="Grupo_1043" data-name="Grupo 1043" transform="translate(0)">
        <path id="Trazado_98570" data-name="Trazado 98570" d="M74.445,166.438s9.384-17.1-3.158-32.995-6.622-35.289,5.991-37.691,32.721,3.036,40.654-9.2,21.408-19.032,35.554-12.507,12.318,19.06,19.147,23.125,10.315,6.575,23.662,1.649,31.454,3.9,28.316,31.84,7.726,38.294,7.726,38.294,21.246,22.691,4.1,45.865-38.393.609-52.635,8.493-14.917,25.557-41.258,22.838-23.627-30.308-41.04-31.331S59.725,198.2,74.445,166.438Z" transform="translate(-39.729 -71.519)" fill="#fc611f" opacity="0.09"/>
        <g id="Grupo_1042" data-name="Grupo 1042" transform="translate(0 12.305)">
          <g id="Grupo_976" data-name="Grupo 976" transform="translate(184.958 50.122)">
            <g id="Grupo_966" data-name="Grupo 966" transform="translate(0.133)">
              <path id="Trazado_98571" data-name="Trazado 98571" d="M365.747,221.457c3.225-4.688,6.3-9.5,9.308-14.366,2.919-4.717,6.316-9.426,8.374-14.719.08-.206-.19-.385-.27-.178-1.981,5.094-5.222,9.617-8.028,14.159-3.106,5.029-6.273,10.01-9.605,14.854-.122.177.1.429.221.25Z" transform="translate(-365.49 -192.101)" fill="#184f78"/>
            </g>
            <g id="Grupo_967" data-name="Grupo 967" transform="translate(17.784 0.297)">
              <path id="Trazado_98572" data-name="Trazado 98572" d="M402.823,192.88c.849,5.729,2.132,11.388,3.261,17.053,1.138,5.7,2.3,11.4,3.723,17.026a.159.159,0,1,0,.3-.094c-1.423-5.624-2.586-11.322-3.723-17.026-1.13-5.665-2.412-11.324-3.261-17.053-.033-.223-.335-.129-.3.094Z" transform="translate(-402.821 -192.659)" fill="#184f78"/>
            </g>
            <g id="Grupo_968" data-name="Grupo 968" transform="translate(0 29.398)">
              <path id="Trazado_98573" data-name="Trazado 98573" d="M365.239,247.567c1.124,1.681,3.046,2.574,4.711,3.4a23.163,23.163,0,0,0,6.3,2.243,48.753,48.753,0,0,0,6.62.365,22.718,22.718,0,0,0,7.07-.625c.2-.056.113-.4-.083-.34-3.916,1.124-8.416.76-12.418.393a19.345,19.345,0,0,1-5.781-1.627c-2-.852-4.816-2-6.149-3.989a.162.162,0,1,0-.27.178Z" transform="translate(-365.208 -247.314)" fill="#184f78"/>
            </g>
            <g id="Grupo_969" data-name="Grupo 969" transform="translate(2.216 27.765)">
              <path id="Trazado_98574" data-name="Trazado 98574" d="M370.046,244.648a7.571,7.571,0,0,0,1.262-.048c.2-.024.2-.376,0-.352a7.637,7.637,0,0,1-1.262.047c-.2-.01-.2.343,0,.352Z" transform="translate(-369.895 -244.247)" fill="#184f78"/>
            </g>
            <g id="Grupo_970" data-name="Grupo 970" transform="translate(5.712 27.661)">
              <path id="Trazado_98575" data-name="Trazado 98575" d="M377.439,244.406l2.145.3c.2.028.2-.325,0-.353l-2.145-.3c-.2-.028-.2.324,0,.352Z" transform="translate(-377.29 -244.052)" fill="#184f78"/>
            </g>
            <g id="Grupo_971" data-name="Grupo 971" transform="translate(10.129 27.988)">
              <path id="Trazado_98576" data-name="Trazado 98576" d="M386.743,245.01l2.056.465c.2.045.281-.295.083-.34l-2.056-.465c-.2-.045-.281.295-.083.34Z" transform="translate(-386.631 -244.666)" fill="#184f78"/>
            </g>
            <g id="Grupo_972" data-name="Grupo 972" transform="translate(14.766 28.797)">
              <path id="Trazado_98577" data-name="Trazado 98577" d="M396.542,246.539a10.167,10.167,0,0,0,1.513.534c.2.052.279-.287.083-.34a10.121,10.121,0,0,1-1.513-.533c-.187-.083-.269.258-.083.34Z" transform="translate(-396.438 -246.187)" fill="#184f78"/>
            </g>
            <g id="Grupo_973" data-name="Grupo 973" transform="translate(18.58 30.145)">
              <path id="Trazado_98578" data-name="Trazado 98578" d="M404.586,249.037a12.949,12.949,0,0,0,1.259.535c.192.07.275-.271.083-.34a12,12,0,0,1-1.184-.5c-.183-.089-.343.215-.158.3Z" transform="translate(-404.504 -248.717)" fill="#184f78"/>
            </g>
            <g id="Grupo_974" data-name="Grupo 974" transform="translate(21.951 31.562)">
              <path id="Trazado_98579" data-name="Trazado 98579" d="M411.71,251.71a11.871,11.871,0,0,0,1.27.745c.182.092.341-.211.158-.3a11.762,11.762,0,0,1-1.269-.745c-.173-.117-.331.188-.158.3Z" transform="translate(-411.635 -251.379)" fill="#184f78"/>
            </g>
            <g id="Grupo_975" data-name="Grupo 975" transform="translate(12.056 31.873)">
              <path id="Trazado_98580" data-name="Trazado 98580" d="M390.819,252.307c2.189.509,4.44.5,6.622,1.064a58.44,58.44,0,0,0,6.054,1.611c.2.029.2-.323,0-.353-2.23-.328-4.326-1.229-6.52-1.735-2.006-.462-4.067-.461-6.073-.927-.2-.046-.281.294-.083.34Z" transform="translate(-390.707 -251.963)" fill="#184f78"/>
            </g>
          </g>
          <path id="Trazado_98581" data-name="Trazado 98581" d="M122.218,241.682a1.33,1.33,0,0,1-1.234-1.21c-1.65-12.251-10.956-21.776-22.32-22.016s-20.979,8.888-23.035,21.06a1.314,1.314,0,0,1-1.273,1.156l-5.249-.11a1.357,1.357,0,0,0-1.3,1.41l-.088,5.286a1.372,1.372,0,0,0,1.253,1.465l58.358,1.229a1.357,1.357,0,0,0,1.3-1.41l.088-5.286a1.372,1.372,0,0,0-1.253-1.465ZM98.523,226.974c6.959.146,12.768,5.48,14.576,12.658a1.412,1.412,0,0,1-1.256,1.831l-27.112-.571a1.425,1.425,0,0,1-1.194-1.883C85.583,231.913,91.565,226.828,98.523,226.974Z" transform="translate(-65.652 -152.523)" fill="#184f78" opacity="0.12"/>
          <g id="Grupo_977" data-name="Grupo 977" transform="translate(66.131 2.37)">
            <path id="Trazado_98582" data-name="Trazado 98582" d="M152.162,99.29A474.314,474.314,0,0,1,159,146.677c.023.243.356.185.333-.058a474.316,474.316,0,0,0-6.84-47.387.169.169,0,1,0-.333.058Z" transform="translate(-152.158 -99.08)" fill="#184f78"/>
          </g>
          <g id="Grupo_978" data-name="Grupo 978" transform="translate(43.917 15.789)">
            <path id="Trazado_98583" data-name="Trazado 98583" d="M105.363,139.689c21.046-3.2,42.3-6.489,62.261-15.047.2-.087.065-.433-.138-.346-19.929,8.546-41.158,11.822-62.174,15.019-.215.033-.164.407.051.375Z" transform="translate(-105.174 -124.282)" fill="#184f78"/>
          </g>
          <g id="Grupo_979" data-name="Grupo 979" transform="translate(67.899 0.596)">
            <path id="Trazado_98584" data-name="Trazado 98584" d="M155.934,96.059l.864,1.264c.132.193.394-.045.261-.239L156.2,95.82c-.132-.193-.394.045-.261.239Z" transform="translate(-155.898 -95.749)" fill="#184f78"/>
          </g>
          <g id="Grupo_980" data-name="Grupo 980" transform="translate(68.348)">
            <path id="Trazado_98585" data-name="Trazado 98585" d="M157.425,94.841a5.769,5.769,0,0,1-.555,3.435c-.106.21.164.437.271.225a6.235,6.235,0,0,0,.616-3.717.169.169,0,1,0-.333.057Z" transform="translate(-156.847 -94.629)" fill="#184f78"/>
          </g>
          <g id="Grupo_981" data-name="Grupo 981" transform="translate(104.15 19.45)">
            <path id="Trazado_98586" data-name="Trazado 98586" d="M232.63,131.509a4.792,4.792,0,0,0,2.2,1.22c.212.052.249-.325.039-.376a4.475,4.475,0,0,1-2.04-1.15c-.165-.159-.364.148-.2.306Z" transform="translate(-232.569 -131.159)" fill="#184f78"/>
          </g>
          <g id="Grupo_982" data-name="Grupo 982" transform="translate(104.559 19.16)">
            <path id="Trazado_98587" data-name="Trazado 98587" d="M234.64,130.73a8.828,8.828,0,0,1-1.169,2.226c-.138.19.135.413.271.224a9.172,9.172,0,0,0,1.21-2.31c.081-.227-.232-.366-.313-.14Z" transform="translate(-233.433 -130.614)" fill="#184f78"/>
          </g>
          <g id="Grupo_983" data-name="Grupo 983" transform="translate(104.471 14.712)">
            <path id="Trazado_98588" data-name="Trazado 98588" d="M233.352,122.625a6.9,6.9,0,0,1,1.8,1.031c-.012-.088-.024-.177-.036-.265a4.109,4.109,0,0,0-.653,1.438c-.057.233.256.374.313.14a3.85,3.85,0,0,1,.612-1.353.209.209,0,0,0-.036-.265,7.214,7.214,0,0,0-1.873-1.078c-.2-.08-.329.273-.124.352Z" transform="translate(-233.247 -122.261)" fill="#184f78"/>
          </g>
          <g id="Grupo_984" data-name="Grupo 984" transform="translate(65.571 2.173)">
            <path id="Trazado_98589" data-name="Trazado 98589" d="M151.312,100.345q.069-.317.138-.634c.026-.121.068-.256.083-.38l.027-.127c-.054-.111-.051-.134.01-.07.126.027.321.274.419.366.166.155.325.317.48.486a.177.177,0,0,0,.261-.239c-.214-.233-.434-.457-.666-.666-.144-.129-.362-.406-.57-.368-.172.031-.219.223-.255.383-.091.4-.175.8-.262,1.2-.052.237.283.278.334.044Z" transform="translate(-150.973 -98.709)" fill="#184f78"/>
          </g>
          <g id="Grupo_985" data-name="Grupo 985" transform="translate(60.487 9.029)">
            <path id="Trazado_98590" data-name="Trazado 98590" d="M140.56,135.33c.8-4.337,1.6-8.684,2.789-12.911a56.684,56.684,0,0,1,2-5.945,27.738,27.738,0,0,1,1.479-3.263c.475-.837.8-1.486,1.986-1.126a4.544,4.544,0,0,1,1.445,1.079c5.369,5.039,8.324,12.527,13.461,17.832.16.165.357-.142.2-.306-3.106-3.206-5.427-7.162-7.941-10.934a48,48,0,0,0-3.9-5.215c-.95-1.074-2.341-2.935-3.8-2.954-1.345-.017-1.892,1.706-2.416,2.841a51.122,51.122,0,0,0-2.535,6.841,134.34,134.34,0,0,0-3.1,14.017.169.169,0,1,0,.334.044Z" transform="translate(-140.222 -111.587)" fill="#184f78"/>
          </g>
          <g id="Grupo_1006" data-name="Grupo 1006" transform="translate(146.303 14.712)">
            <g id="Grupo_986" data-name="Grupo 986">
              <path id="Trazado_98591" data-name="Trazado 98591" d="M280.374,131.338q3.353-4.632,6.4-9.526l-.339-.113a37.291,37.291,0,0,1-.616,6.151,12.847,12.847,0,0,0-.335,4.773c.045.261.4.162.357-.1-.329-1.9.2-3.712.525-5.558a36.882,36.882,0,0,0,.436-5.26.183.183,0,0,0-.34-.113q-3.049,4.892-6.4,9.526a.19.19,0,0,0,.312.218Z" transform="translate(-280.023 -121.503)" fill="#fc611f"/>
            </g>
            <g id="Grupo_987" data-name="Grupo 987" transform="translate(2.236 5.739)">
              <path id="Trazado_98592" data-name="Trazado 98592" d="M284.883,132.682a33.688,33.688,0,0,1,3.681.872c.228.068.333-.329.1-.4a33.828,33.828,0,0,0-3.681-.872c-.23-.041-.338.355-.1.4Z" transform="translate(-284.753 -132.281)" fill="#fc611f"/>
            </g>
            <g id="Grupo_988" data-name="Grupo 988" transform="translate(8.477 6.092)">
              <path id="Trazado_98593" data-name="Trazado 98593" d="M298.08,133.35q1.786.559,3.549,1.2c.225.082.329-.315.1-.4q-1.763-.645-3.549-1.2c-.228-.071-.332.325-.1.4Z" transform="translate(-297.952 -132.945)" fill="#fc611f"/>
            </g>
            <g id="Grupo_989" data-name="Grupo 989" transform="translate(8.337 8.199)">
              <path id="Trazado_98594" data-name="Trazado 98594" d="M297.783,137.307l4.043,1.277c.227.072.332-.324.1-.4l-4.043-1.277c-.227-.072-.332.325-.1.4Z" transform="translate(-297.655 -136.902)" fill="#fc611f"/>
            </g>
            <g id="Grupo_990" data-name="Grupo 990" transform="translate(16.329 4.327)">
              <path id="Trazado_98595" data-name="Trazado 98595" d="M314.572,131.687l1.745,5.248c.049.149.253.235.334.06.907-1.962,1.808-3.927,2.721-5.884.331-.71.72-1.223,1.513-1.014.473.124.941.292,1.408.443.937.3,1.87.625,2.8.946,3.66,1.265,7.332,2.417,11.062,3.393,7.469,1.955,15.047,3.579,22.166,6.883.218.1.321-.3.1-.4-5.991-2.78-12.32-4.38-18.622-5.975-3.131-.792-6.262-1.589-9.357-2.545-3.112-.962-6.164-2.16-9.283-3.092-1.258-.375-1.626.1-2.19,1.323l-2.635,5.7.334.06-1.745-5.248a.186.186,0,1,0-.357.1Z" transform="translate(-314.56 -129.629)" fill="#fc611f"/>
            </g>
            <g id="Grupo_991" data-name="Grupo 991" transform="translate(21.025 6.963)">
              <path id="Trazado_98596" data-name="Trazado 98596" d="M326.067,136.05q.006-.958,1.129.083l-.176.485a2.875,2.875,0,0,1-.857.963c-.5.4-1.051.721-1.578,1.069-.123.081-.131.348.036.38.94.182,1.444,1.243,2.467,1.088.234-.035.144-.437-.088-.4-.863.131-1.463-.927-2.275-1.084l.036.38c1.074-.708,3.07-1.672,2.829-3.442-.067-.494-.409-1.04-.9-.987-.58.062-.891.792-.969,1.349-.036.259.315.38.352.117Z" transform="translate(-324.492 -134.58)" fill="#fc611f"/>
            </g>
            <g id="Grupo_992" data-name="Grupo 992" transform="translate(24.966 8.087)">
              <path id="Trazado_98597" data-name="Trazado 98597" d="M335.118,136.748c-.366.388-1.655,1.246-1.312,1.98.164.35.64.351.878.583.659.639.1,1.433-.506,1.676a3.011,3.011,0,0,1-1.171.114c-.236,0-.244.409-.007.414.907.016,2.1-.12,2.328-1.332a1.21,1.21,0,0,0-.251-1.048c-.126-.143-.294-.185-.427-.3a.451.451,0,0,1-.243-.285q-.362-.213-.082-.386c.118-.352.8-.852,1.046-1.11.172-.183-.079-.484-.252-.3Z" transform="translate(-332.826 -136.691)" fill="#fc611f"/>
            </g>
            <g id="Grupo_993" data-name="Grupo 993" transform="translate(27.128 8.052)">
              <path id="Trazado_98598" data-name="Trazado 98598" d="M337.525,137.033a11.858,11.858,0,0,0,2.079.529c.234.037.239-.376.007-.414a11.3,11.3,0,0,1-1.982-.512c-.226-.08-.33.317-.1.4Z" transform="translate(-337.399 -136.626)" fill="#fc611f"/>
            </g>
            <g id="Grupo_994" data-name="Grupo 994" transform="translate(30.942 12.657)">
              <path id="Trazado_98599" data-name="Trazado 98599" d="M345.6,145.677q1.657.431,3.34.694c.234.037.239-.377.007-.414q-1.635-.257-3.242-.677c-.229-.06-.335.336-.1.4Z" transform="translate(-345.466 -145.275)" fill="#fc611f"/>
            </g>
            <g id="Grupo_995" data-name="Grupo 995" transform="translate(32.379 12.076)">
              <path id="Trazado_98600" data-name="Trazado 98600" d="M349.312,144.326l-.8,3.041a.186.186,0,1,0,.352.117l.8-3.041a.186.186,0,1,0-.352-.117Z" transform="translate(-348.506 -144.183)" fill="#fc611f"/>
            </g>
            <g id="Grupo_996" data-name="Grupo 996" transform="translate(37.17 11.603)">
              <path id="Trazado_98601" data-name="Trazado 98601" d="M360.033,143.437q-.692,2.641-1.385,5.282a.186.186,0,1,0,.352.117l1.386-5.282a.186.186,0,1,0-.353-.117Z" transform="translate(-358.639 -143.294)" fill="#fc611f"/>
            </g>
            <g id="Grupo_997" data-name="Grupo 997" transform="translate(40.903 12.566)">
              <path id="Trazado_98602" data-name="Trazado 98602" d="M368.564,145.229c-1.019-.008-1.741,1.007-1.957,2.058-.166.808-.1,2.53.711,2.966.873.472,1.87-1.584,2.11-2.235a2.57,2.57,0,0,0-.574-2.873c-.188-.161-.381.192-.194.351a2.228,2.228,0,0,1,.322,2.627c-.263.584-1.048,2.248-1.775,1.357-.928-1.138-.038-3.848,1.349-3.837.236,0,.244-.412.007-.414Z" transform="translate(-366.534 -145.103)" fill="#fc611f"/>
            </g>
            <g id="Grupo_998" data-name="Grupo 998" transform="translate(45.006 16.785)">
              <path id="Trazado_98603" data-name="Trazado 98603" d="M375.337,153.434c.226.075.331-.321.1-.4s-.331.321-.1.4Z" transform="translate(-375.21 -153.028)" fill="#fc611f"/>
            </g>
            <g id="Grupo_999" data-name="Grupo 999" transform="translate(47.4 14.524)">
              <path id="Trazado_98604" data-name="Trazado 98604" d="M380.28,150.927l.768,3.661c.034.161.263.225.334.06l1.213-2.809c.489-1.132.809-2.731,2.228-2.559a14.606,14.606,0,0,1,2.607.864l2.663.888c.226.076.331-.321.1-.4l-3.5-1.166c-.766-.255-1.885-.906-2.709-.615-.676.239-.971,1.061-1.254,1.712-.559,1.286-1.112,2.575-1.669,3.863l.334.06-.768-3.661a.186.186,0,1,0-.357.1Z" transform="translate(-380.274 -148.781)" fill="#fc611f"/>
            </g>
            <g id="Grupo_1000" data-name="Grupo 1000" transform="translate(51.035 16.908)">
              <path id="Trazado_98605" data-name="Trazado 98605" d="M390.557,153.294c-.521.4-1.068.787-1.572,1.219-.173.149-.351.244-.313.518.026.192.171.272.288.391.245.248.756.8.633,1.262-.158.589-1.024.347-1.4.264-.23-.051-.336.345-.1.4.75.167,1.994.341,1.848-.9a2.648,2.648,0,0,0-.574-1.2c-.039-.062-.2-.113-.212-.179-.041-.252.348-.459.49-.569l1.088-.843c.193-.15.019-.515-.175-.364Z" transform="translate(-387.962 -153.258)" fill="#fc611f"/>
            </g>
            <g id="Grupo_1001" data-name="Grupo 1001" transform="translate(53.457 16.989)">
              <path id="Trazado_98606" data-name="Trazado 98606" d="M393.257,153.827l1.929.319c.233.038.238-.375.007-.414l-1.929-.319c-.233-.038-.238.375-.007.414Z" transform="translate(-393.086 -153.41)" fill="#fc611f"/>
            </g>
            <g id="Grupo_1002" data-name="Grupo 1002" transform="translate(16.058 12.816)">
              <path id="Trazado_98607" data-name="Trazado 98607" d="M314.115,145.977c13.561,3.664,26.615,9.545,40.408,12.133.23.043.337-.353.1-.4-13.793-2.589-26.847-8.47-40.408-12.133-.229-.062-.334.335-.1.4Z" transform="translate(-313.987 -145.574)" fill="#fc611f"/>
            </g>
            <g id="Grupo_1003" data-name="Grupo 1003" transform="translate(33.839 21.114)">
              <path id="Trazado_98608" data-name="Trazado 98608" d="M354.2,161.188l-1.864,1.275c-.256.175-.676.335-.741.7a.228.228,0,0,0,.079.234c.634.435,2.313.652,2.756-.208a.191.191,0,1,0-.312-.219,3.838,3.838,0,0,0-.628,3.095.186.186,0,1,0,.357-.1,3.41,3.41,0,0,1,.583-2.777l-.312-.219c-.24.465-1.032.333-1.413.288-.483-.058-.612-.054-.193-.436a16.62,16.62,0,0,1,1.864-1.275c.2-.138.027-.5-.175-.364Z" transform="translate(-351.592 -161.157)" fill="#fc611f"/>
            </g>
            <g id="Grupo_1004" data-name="Grupo 1004" transform="translate(59.18 24.929)">
              <path id="Trazado_98609" data-name="Trazado 98609" d="M407.293,168.42c-.93-.509-2.572,1.089-1.979,2.181a.98.98,0,0,0,1.3.377,2.738,2.738,0,0,0,1.322-1.945l-.36-.062a3.979,3.979,0,0,0,.668,2.657c.143.212.409-.073.268-.283a3.547,3.547,0,0,1-.568-2.367.183.183,0,0,0-.36-.062c-.173.78-.71,1.854-1.546,1.693-1.094-.21.247-2.283,1.059-1.837.211.115.407-.235.194-.352Z" transform="translate(-405.188 -168.323)" fill="#fc611f"/>
            </g>
            <g id="Grupo_1005" data-name="Grupo 1005" transform="translate(63.706 23.812)">
              <path id="Trazado_98610" data-name="Trazado 98610" d="M415.105,166.854c.34-.569.987.093.556.562-.206.224-.452.342-.611.623a.218.218,0,0,0,.1.308,2.143,2.143,0,0,1,.91.455c.19.158.383-.195.194-.351a2.38,2.38,0,0,0-1-.5l.1.308c.184-.326.551-.439.728-.777a.968.968,0,0,0,0-.831.715.715,0,0,0-1.3-.014c-.132.222.18.439.312.219Z" transform="translate(-414.761 -166.224)" fill="#fc611f"/>
            </g>
          </g>
          <path id="Trazado_98611" data-name="Trazado 98611" d="M201.347,285.158l-50.876,24.894c-1.337.654-.969,2.893.487,2.966l61.671,3.082a1.532,1.532,0,0,0,1.322-2.163l-10.794-27.976A1.32,1.32,0,0,0,201.347,285.158Zm.185,22.168-20.327-2.072a.6.6,0,0,1-.21-1.072l16.3-8.143a.461.461,0,0,1,.608.316l4.024,10.216C202.081,306.954,201.867,307.36,201.532,307.326Z" transform="translate(-82.283 -181.109)" fill="#184f78" opacity="0.12"/>
          <g id="Grupo_1008" data-name="Grupo 1008" transform="translate(78.899 43.241)">
            <g id="Grupo_1007" data-name="Grupo 1007">
              <rect id="Rectángulo_578" data-name="Rectángulo 578" width="62.285" height="10.625" rx="2.713" transform="translate(7.117 21.286)" fill="#184f78"/>
              <rect id="Rectángulo_579" data-name="Rectángulo 579" width="62.285" height="10.625" rx="2.713" transform="translate(10.302 10.661)" fill="#fc611f"/>
              <rect id="Rectángulo_580" data-name="Rectángulo 580" width="62.285" height="10.625" rx="2.713" fill="#16b6c6"/>
              <rect id="Rectángulo_581" data-name="Rectángulo 581" width="6.414" height="10.625" transform="translate(8.857)" fill="#118995"/>
              <rect id="Rectángulo_582" data-name="Rectángulo 582" width="6.414" height="10.625" transform="translate(21.091 10.661)" fill="#fff" opacity="0.3"/>
              <rect id="Rectángulo_583" data-name="Rectángulo 583" width="6.414" height="10.625" transform="translate(15.003 21.286)" fill="#124768"/>
              <path id="Trazado_98612" data-name="Trazado 98612" d="M272.333,195.863H221.775l52.439,5.313v-3.2A2.01,2.01,0,0,0,272.333,195.863Z" transform="translate(-201.627 -185.203)" fill="#ea541f"/>
              <path id="Trazado_98613" data-name="Trazado 98613" d="M265.6,215.819H215.038l52.439,5.312v-3.195A2.01,2.01,0,0,0,265.6,215.819Z" transform="translate(-198.075 -194.533)" fill="#124768"/>
            </g>
            <path id="Trazado_98614" data-name="Trazado 98614" d="M194.938,232.112l-.724,15.474,55.971-13.525" transform="translate(-187.098 -202.151)" fill="#184f78" opacity="0.12"/>
          </g>
          <path id="Trazado_98615" data-name="Trazado 98615" d="M194.024,266.9l-46.356,34.309c-1.218.9-.516,3.037.93,2.829l61.233-8.818a1.588,1.588,0,0,0,.974-2.385l-14.877-25.491A1.284,1.284,0,0,0,194.024,266.9Zm3.543,21.807-20.342,1.866a.593.593,0,0,1-.37-1.016L191.684,278.4a.447.447,0,0,1,.647.2l5.513,9.292C198.051,288.233,197.9,288.675,197.566,288.706Z" transform="translate(-80.912 -172.513)" fill="#fdc00f"/>
          <g id="Grupo_1009" data-name="Grupo 1009" transform="translate(135.413 51.899)">
            <path id="Trazado_98655" data-name="Trazado 98655" d="M2.224,2.98,58.453,0a1.738,1.738,0,0,1,1.8,1.92L60.04,6.25a2.228,2.228,0,0,1-2.005,2.122L1.806,11.348A1.738,1.738,0,0,1,0,9.428L.219,5.1A2.228,2.228,0,0,1,2.224,2.98Z" transform="matrix(0.866, -0.5, 0.5, 0.866, 2.008, 47.331)" fill="#184f78" opacity="0.12"/>
            <path id="Trazado_98656" data-name="Trazado 98656" d="M2.343,3.416,60.7,0a1.706,1.706,0,0,1,1.861,1.833l-.248,4.173a2.266,2.266,0,0,1-2.092,2.064L1.864,11.486A1.706,1.706,0,0,1,0,9.653L.251,5.48A2.266,2.266,0,0,1,2.343,3.416Z" transform="translate(0 46.82) rotate(-48.444)" fill="#16b6c6"/>
          </g>
          <g id="Grupo_1010" data-name="Grupo 1010" transform="translate(172.54 91.747)">
            <path id="Trazado_98657" data-name="Trazado 98657" d="M2.365,0,35.244,1.5a2.877,2.877,0,0,1,2.589,2.8l1.645,39.012a2.328,2.328,0,0,1-2.363,2.569l-32.879-1.5a2.877,2.877,0,0,1-2.589-2.8L0,2.571A2.328,2.328,0,0,1,2.365,0Z" transform="matrix(0.915, 0.404, -0.404, 0.915, 18.535, 0)" fill="#134768"/>
            <path id="Trazado_98658" data-name="Trazado 98658" d="M2.365,0,33.99,1.447a2.877,2.877,0,0,1,2.589,2.8l1.586,37.61A2.328,2.328,0,0,1,35.8,44.42L4.177,42.976a2.877,2.877,0,0,1-2.589-2.8L0,2.571A2.328,2.328,0,0,1,2.365,0Z" transform="matrix(0.915, 0.404, -0.404, 0.915, 18.535, 0)" fill="#25668e"/>
            <path id="Trazado_98616" data-name="Trazado 98616" d="M335.556,284.423a28.408,28.408,0,0,0,18.715,5.083l7.934-20.232a1.693,1.693,0,0,0-.729-2.12l-30.172-15a1.37,1.37,0,0,0-1.883.821L318.979,279.6C322.022,278.858,327.733,278.788,335.556,284.423Z" transform="translate(-311.519 -251.646)" fill="#184f78"/>
            <path id="Trazado_98659" data-name="Trazado 98659" d="M0,0,30.876,1.41l.258,6.123L.258,6.123Z" transform="matrix(0.915, 0.404, -0.404, 0.915, 19.624, 4.721)" fill="#25668e"/>
            <path id="Trazado_98660" data-name="Trazado 98660" d="M.325,0,4.917.21a.4.4,0,0,1,.356.384l.195,4.614a.32.32,0,0,1-.325.353L.551,5.352a.4.4,0,0,1-.356-.384L0,.353A.32.32,0,0,1,.325,0Z" transform="translate(14.059 15.857) rotate(23.827)" fill="#16b6c6"/>
            <path id="Trazado_98661" data-name="Trazado 98661" d="M.325,0,4.917.21a.4.4,0,0,1,.356.384l.195,4.614a.32.32,0,0,1-.325.353L.551,5.352a.4.4,0,0,1-.356-.384L0,.353A.32.32,0,0,1,.325,0Z" transform="matrix(0.915, 0.404, -0.404, 0.915, 20.304, 18.962)" fill="#16b6c6"/>
            <path id="Trazado_98662" data-name="Trazado 98662" d="M.325,0,4.917.21a.4.4,0,0,1,.356.384l.195,4.614a.32.32,0,0,1-.325.353L.551,5.352a.4.4,0,0,1-.356-.384L0,.353A.32.32,0,0,1,.325,0Z" transform="matrix(0.915, 0.404, -0.404, 0.915, 26.549, 22.068)" fill="#16b6c6"/>
            <path id="Trazado_98663" data-name="Trazado 98663" d="M.325,0,4.917.21a.4.4,0,0,1,.356.384l.195,4.614a.32.32,0,0,1-.325.353L.551,5.352a.4.4,0,0,1-.356-.384L0,.353A.32.32,0,0,1,.325,0Z" transform="translate(32.793 25.173) rotate(23.827)" fill="#16b6c6"/>
            <path id="Trazado_98664" data-name="Trazado 98664" d="M.325,0,4.917.21a.4.4,0,0,1,.356.384l.195,4.614a.32.32,0,0,1-.325.353L.551,5.352a.4.4,0,0,1-.356-.384L0,.353A.32.32,0,0,1,.325,0Z" transform="translate(39.038 28.279) rotate(23.827)" fill="#16b6c6"/>
            <path id="Trazado_98665" data-name="Trazado 98665" d="M.325,0,4.917.21a.4.4,0,0,1,.356.384l.195,4.614a.32.32,0,0,1-.325.353L.551,5.352a.4.4,0,0,1-.356-.384L0,.353A.32.32,0,0,1,.325,0Z" transform="matrix(0.915, 0.404, -0.404, 0.915, 10.672, 24.495)" fill="#16b6c6"/>
            <path id="Trazado_98666" data-name="Trazado 98666" d="M.325,0,4.917.21a.4.4,0,0,1,.356.384l.195,4.614a.32.32,0,0,1-.325.353L.551,5.352a.4.4,0,0,1-.356-.384L0,.353A.32.32,0,0,1,.325,0Z" transform="translate(16.917 27.6) rotate(23.827)" fill="#16b6c6"/>
            <path id="Trazado_98667" data-name="Trazado 98667" d="M.325,0,4.917.21a.4.4,0,0,1,.356.384l.195,4.614a.32.32,0,0,1-.325.353L.551,5.352a.4.4,0,0,1-.356-.384L0,.353A.32.32,0,0,1,.325,0Z" transform="translate(23.161 30.706) rotate(23.827)" fill="#16b6c6"/>
            <path id="Trazado_98668" data-name="Trazado 98668" d="M.325,0,4.917.21a.4.4,0,0,1,.356.384l.195,4.614a.32.32,0,0,1-.325.353L.551,5.352a.4.4,0,0,1-.356-.384L0,.353A.32.32,0,0,1,.325,0Z" transform="matrix(0.915, 0.404, -0.404, 0.915, 29.406, 33.811)" fill="#16b6c6"/>
            <path id="Trazado_98669" data-name="Trazado 98669" d="M.325,0,4.917.21a.4.4,0,0,1,.356.384l.195,4.614a.32.32,0,0,1-.325.353L.551,5.352a.4.4,0,0,1-.356-.384L0,.353A.32.32,0,0,1,.325,0Z" transform="matrix(0.915, 0.404, -0.404, 0.915, 35.65, 36.917)" fill="#16b6c6"/>
            <path id="Trazado_98670" data-name="Trazado 98670" d="M.325,0,4.917.21a.4.4,0,0,1,.356.384l.195,4.614a.32.32,0,0,1-.325.353L.551,5.352a.4.4,0,0,1-.356-.384L0,.353A.32.32,0,0,1,.325,0Z" transform="matrix(0.915, 0.404, -0.404, 0.915, 19.884, 39.063)" fill="#16b6c6"/>
            <path id="Trazado_98671" data-name="Trazado 98671" d="M.325,0l10.53.481a.4.4,0,0,1,.356.384l.195,4.614a.32.32,0,0,1-.325.353L.551,5.352a.4.4,0,0,1-.356-.384L0,.353A.32.32,0,0,1,.325,0Z" transform="matrix(0.915, 0.404, -0.404, 0.915, 7.274, 32.792)" fill="#fdc00f"/>
            <path id="Trazado_98672" data-name="Trazado 98672" d="M.325,0,4.917.21a.4.4,0,0,1,.356.384l.195,4.614a.32.32,0,0,1-.325.353L.551,5.352a.4.4,0,0,1-.356-.384L0,.353A.32.32,0,0,1,.325,0Z" transform="translate(26.128 42.169) rotate(23.827)" fill="#16b6c6"/>
            <path id="Trazado_98673" data-name="Trazado 98673" d="M.325,0,4.917.21a.4.4,0,0,1,.356.384l.195,4.614a.32.32,0,0,1-.325.353L.551,5.352a.4.4,0,0,1-.356-.384L0,.353A.32.32,0,0,1,.325,0Z" transform="translate(32.373 45.275) rotate(23.827)" fill="#16b6c6"/>
          </g>
          <path id="Trazado_98617" data-name="Trazado 98617" d="M114.3,210.132a1.209,1.209,0,0,1-1.531-.647c-5.351-10.827-17.027-16.086-27.748-11.834s-16.894,16.589-15.039,28.8a1.457,1.457,0,0,1-.834,1.585L64.2,230a1.49,1.49,0,0,0-.78,1.834l1.559,4.986a1.245,1.245,0,0,0,1.628.879l55.054-21.835a1.49,1.49,0,0,0,.78-1.834l-1.559-4.986a1.246,1.246,0,0,0-1.628-.879Zm-26.766-4.446c6.565-2.6,13.664.105,17.587,6.118a1.519,1.519,0,0,1-.608,2.21L78.937,224.158a1.3,1.3,0,0,1-1.7-1.294C76.946,215.411,80.97,208.29,87.535,205.687Z" transform="translate(-63.346 -142.109)" fill="#fc611f"/>
          <g id="Grupo_1037" data-name="Grupo 1037" transform="translate(22.915 103.494)">
            <g id="Grupo_1011" data-name="Grupo 1011" transform="translate(0.953 11.631)">
              <path id="Trazado_98618" data-name="Trazado 98618" d="M62.772,311a35.355,35.355,0,0,0,.955,5.809c.375,1.335,1.22,2.3,2.522,2.243.151-.006.112-.267-.037-.26-1.7.076-2.217-1.679-2.521-3.223-.3-1.523-.525-3.062-.687-4.61-.017-.169-.249-.127-.232.042Z" transform="translate(-62.771 -310.848)" fill="#184f78"/>
            </g>
            <g id="Grupo_1012" data-name="Grupo 1012" transform="translate(0 14.757)">
              <path id="Trazado_98619" data-name="Trazado 98619" d="M60.856,317.161a11.6,11.6,0,0,0,2.824-.179c.149-.028.112-.289-.037-.261a11.327,11.327,0,0,1-2.761.178c-.15-.008-.177.254-.026.262Z" transform="translate(-60.755 -316.719)" fill="#184f78"/>
            </g>
            <g id="Grupo_1013" data-name="Grupo 1013" transform="translate(4.336 14.478)">
              <path id="Trazado_98620" data-name="Trazado 98620" d="M72.423,316.75a1.386,1.386,0,0,0-2.252.045,2.875,2.875,0,0,0,.739,3.26,1.323,1.323,0,0,0,2.147-.826,4.392,4.392,0,0,0,0-2.044c-.071-.368-.177-.683-.528-.762-.088-.02-.157.1-.12.186a6.423,6.423,0,0,0,1.027,1.781,7.209,7.209,0,0,0,1.546,1.195c.13.083.269-.13.137-.214a7.43,7.43,0,0,1-1.44-1.089A5.943,5.943,0,0,1,72.62,316.5l-.12.186c.552.126.457,1.88.376,2.267-.216,1.033-1.118,1.5-1.909.828a2.58,2.58,0,0,1-.741-2.227,1.046,1.046,0,0,1,.835-1.024,1.018,1.018,0,0,1,1.18.389c.086.14.267-.028.181-.167Z" transform="translate(-69.926 -316.194)" fill="#184f78"/>
            </g>
            <g id="Grupo_1014" data-name="Grupo 1014" transform="translate(9.66 13.658)">
              <path id="Trazado_98621" data-name="Trazado 98621" d="M81.2,314.838a14.292,14.292,0,0,1,1.069,3.857l.231-.042q-.151-.893-.286-1.789c-.1-.645-.323-1.908.63-1.79.66.082.71,1.011.856,1.577a7.7,7.7,0,0,0,.62,1.6.12.12,0,1,0,.213-.109,7.482,7.482,0,0,1-.607-1.57,6.225,6.225,0,0,0-.325-1.18.9.9,0,0,0-1.026-.58,1,1,0,0,0-.714.976,13.33,13.33,0,0,0,.407,2.9.118.118,0,1,0,.231-.042,14.518,14.518,0,0,0-1.087-3.925c-.066-.152-.28-.044-.213.109Z" transform="translate(-81.185 -314.655)" fill="#184f78"/>
            </g>
            <g id="Grupo_1015" data-name="Grupo 1015" transform="translate(14.674 10.312)">
              <path id="Trazado_98622" data-name="Trazado 98622" d="M92.084,308.456c-.557,2.481-.517,5.7,1.859,6.954.137.072.221-.175.085-.246-2.25-1.184-2.249-4.284-1.725-6.613.036-.163-.182-.26-.219-.1Z" transform="translate(-91.789 -308.371)" fill="#184f78"/>
            </g>
            <g id="Grupo_1016" data-name="Grupo 1016" transform="translate(22.051 9.193)">
              <path id="Trazado_98623" data-name="Trazado 98623" d="M107.417,306.487c1.087,1.7,2.326,3.817,1.426,5.961a.119.119,0,1,0,.218.1c.937-2.232-.328-4.444-1.464-6.224-.088-.138-.269.03-.181.168Z" transform="translate(-107.393 -306.268)" fill="#184f78"/>
            </g>
            <g id="Grupo_1017" data-name="Grupo 1017" transform="translate(25.133 10.836)">
              <path id="Trazado_98624" data-name="Trazado 98624" d="M114.043,310.133q1.519-.2,3.02-.515c.148-.031.112-.292-.037-.26q-1.5.319-3.02.515c-.15.02-.113.28.037.261Z" transform="translate(-113.911 -309.355)" fill="#184f78"/>
            </g>
            <g id="Grupo_1018" data-name="Grupo 1018" transform="translate(25.839 12.351)">
              <path id="Trazado_98625" data-name="Trazado 98625" d="M115.538,312.956l2.74-.495c.149-.027.113-.288-.037-.26l-2.741.495c-.149.027-.112.288.037.26Z" transform="translate(-115.405 -312.199)" fill="#184f78"/>
            </g>
            <g id="Grupo_1019" data-name="Grupo 1019" transform="translate(31.069 4.631)">
              <path id="Trazado_98626" data-name="Trazado 98626" d="M127.9,297.708a1.309,1.309,0,0,0-1.36,1.717c.122.345.394.4.7.4.4,0,.661-.149,1.029.133.766.585-.022,1.412-.625,1.584-.145.041-.11.3.037.261a1.345,1.345,0,0,0,1.012-1.837.838.838,0,0,0-.8-.464c-.2,0-.633.148-.8.057l-.366-.64.162-.5a.954.954,0,0,1,.986-.45c.15.018.176-.245.026-.263Z" transform="translate(-126.466 -297.701)" fill="#184f78"/>
            </g>
            <g id="Grupo_1020" data-name="Grupo 1020" transform="translate(34.355 5.121)">
              <path id="Trazado_98627" data-name="Trazado 98627" d="M133.416,298.771a11.4,11.4,0,0,0,.487,2.319c.052.16.265.049.214-.11a10.991,10.991,0,0,1-.469-2.251c-.017-.169-.249-.127-.231.042Z" transform="translate(-133.415 -298.621)" fill="#184f78"/>
            </g>
            <g id="Grupo_1021" data-name="Grupo 1021" transform="translate(34.102 3.818)">
              <path id="Trazado_98628" data-name="Trazado 98628" d="M133.013,296.437c.149-.027.112-.287-.037-.26s-.112.288.037.26Z" transform="translate(-132.88 -296.174)" fill="#184f78"/>
            </g>
            <g id="Grupo_1022" data-name="Grupo 1022" transform="translate(35.473 3.886)">
              <path id="Trazado_98629" data-name="Trazado 98629" d="M135.786,296.46l.755,2.915a.118.118,0,1,0,.232-.042c-.045-.461-.179-.9-.233-1.359-.07-.6.239-1.976,1.067-1.2.541.506.6,1.907.689,2.633a.118.118,0,1,0,.231-.042c-.1-.817-.225-3.119-1.349-3.061-1.374.07-.717,2.254-.637,3.072l.232-.042-.755-2.915c-.042-.161-.274-.121-.232.042Z" transform="translate(-135.781 -296.302)" fill="#184f78"/>
            </g>
            <g id="Grupo_1023" data-name="Grupo 1023" transform="translate(29.453 5.397)">
              <path id="Trazado_98630" data-name="Trazado 98630" d="M123.178,304.656q10.191-2.341,20.27-5.251c.145-.042.109-.3-.037-.26q-10.076,2.91-20.27,5.251c-.148.034-.111.295.037.261Z" transform="translate(-123.047 -299.139)" fill="#184f78"/>
            </g>
            <g id="Grupo_1024" data-name="Grupo 1024" transform="translate(33.709 11.962)">
              <path id="Trazado_98631" data-name="Trazado 98631" d="M133.658,311.487a3.138,3.138,0,0,0-1.527,3.189c.245.818,2,1.241,2.071.156a.118.118,0,1,0-.233-.029c-.013.212-.626.378-.791.362a.919.919,0,0,1-.541-.2,1.348,1.348,0,0,1-.221-1.478,3.1,3.1,0,0,1,1.339-1.765c.131-.081.035-.323-.1-.24Z" transform="translate(-132.049 -311.47)" fill="#184f78"/>
            </g>
            <g id="Grupo_1025" data-name="Grupo 1025" transform="translate(36.568 12.694)">
              <path id="Trazado_98632" data-name="Trazado 98632" d="M138.676,313.044a1.708,1.708,0,0,0-.41,2.025,1.362,1.362,0,0,0,1.73.647,1.74,1.74,0,0,0,.868-1.917,1.268,1.268,0,0,0-.428-.795c-.4-.282-1.194-.108-1.649-.105-.149,0-.176.264-.026.262.545,0,1.545-.236,1.8.447a1.536,1.536,0,0,1-.513,1.785,1.122,1.122,0,0,1-1.575-.452,1.414,1.414,0,0,1,.348-1.694c.122-.1-.026-.3-.149-.2Z" transform="translate(-138.096 -312.844)" fill="#184f78"/>
            </g>
            <g id="Grupo_1026" data-name="Grupo 1026" transform="translate(40.098 11.259)">
              <path id="Trazado_98633" data-name="Trazado 98633" d="M146.3,310.15a.8.8,0,0,0-.635,1.213,1.02,1.02,0,0,0,.665.516c.229.055.561-.034.768.094.524.323.163.88-.1,1.093a.915.915,0,0,1-.491.2c-.15.019-.113.279.037.261a1.2,1.2,0,0,0,1.062-1.262.665.665,0,0,0-.5-.557,2.4,2.4,0,0,0-.509-.06.775.775,0,0,1-.5-.185q-.309-.131-.138-.531-.152-.531.32-.517c.15,0,.177-.262.026-.262Z" transform="translate(-145.561 -310.15)" fill="#184f78"/>
            </g>
            <g id="Grupo_1027" data-name="Grupo 1027" transform="translate(43.524 9.01)">
              <path id="Trazado_98634" data-name="Trazado 98634" d="M153.544,305.983a4.7,4.7,0,0,0-.627,3.351c.3,1.04,1.331,1.343,2.177,1.542.148.035.172-.228.026-.263-.822-.193-1.827-.486-2.024-1.557a4.617,4.617,0,0,1,.638-2.919c.08-.143-.109-.3-.19-.155Z" transform="translate(-152.808 -305.926)" fill="#184f78"/>
            </g>
            <g id="Grupo_1028" data-name="Grupo 1028" transform="translate(46.135 9.105)">
              <path id="Trazado_98635" data-name="Trazado 98635" d="M158.537,306.713a.561.561,0,0,1,.7-.308,1,1,0,0,1,.617.907c.089.68-.057,1.791-.823,1.825-.15.007-.112.267.037.261,1-.045,1.214-1.621.94-2.473-.241-.748-1.246-1.218-1.66-.367-.072.148.117.3.19.155Z" transform="translate(-158.331 -306.103)" fill="#184f78"/>
            </g>
            <g id="Grupo_1029" data-name="Grupo 1029" transform="translate(47.518 8.712)">
              <path id="Trazado_98636" data-name="Trazado 98636" d="M161.6,305.374c-.292.12-.337.437-.34.755a3.793,3.793,0,0,0,.255,1.772c.4.6,1.483.109,1.771-.4.081-.143-.108-.3-.19-.155-.234.411-1.231.862-1.451.216-.122-.359-.34-1.789.053-1.952.142-.059.044-.3-.1-.24Z" transform="translate(-161.257 -305.365)" fill="#184f78"/>
            </g>
            <g id="Grupo_1030" data-name="Grupo 1030" transform="translate(48.841 7.157)">
              <path id="Trazado_98637" data-name="Trazado 98637" d="M164.185,302.716c.458-.071.994.525,1.3.85a4.193,4.193,0,0,1,.771,1.115,2.8,2.8,0,0,1-.1,2.657c-.088.138.1.293.19.155a3.136,3.136,0,0,0,.033-3.105c-.385-.745-1.367-2.068-2.229-1.934-.15.023-.113.284.037.261Z" transform="translate(-164.053 -302.445)" fill="#184f78"/>
            </g>
            <g id="Grupo_1031" data-name="Grupo 1031" transform="translate(40.667 1.853)">
              <path id="Trazado_98638" data-name="Trazado 98638" d="M147.5,292.541a4.7,4.7,0,0,0-.627,3.351c.3,1.04,1.331,1.343,2.177,1.542.148.035.172-.228.026-.263-.822-.193-1.827-.486-2.024-1.557a4.619,4.619,0,0,1,.638-2.919c.08-.143-.109-.3-.19-.155Z" transform="translate(-146.765 -292.484)" fill="#184f78"/>
            </g>
            <g id="Grupo_1032" data-name="Grupo 1032" transform="translate(43.278 1.948)">
              <path id="Trazado_98639" data-name="Trazado 98639" d="M152.494,293.271a.561.561,0,0,1,.7-.308,1,1,0,0,1,.616.907c.089.68-.057,1.791-.822,1.825-.151.007-.112.267.037.261,1-.045,1.214-1.621.94-2.473-.241-.747-1.247-1.218-1.66-.367-.072.148.118.3.19.155Z" transform="translate(-152.288 -292.661)" fill="#184f78"/>
            </g>
            <g id="Grupo_1033" data-name="Grupo 1033" transform="translate(44.661 1.554)">
              <path id="Trazado_98640" data-name="Trazado 98640" d="M155.556,291.932c-.291.12-.337.437-.34.755a3.8,3.8,0,0,0,.255,1.772c.4.6,1.483.109,1.771-.4.081-.143-.108-.3-.19-.155-.234.411-1.232.862-1.452.216-.122-.359-.34-1.79.053-1.952.141-.059.044-.3-.1-.24Z" transform="translate(-155.214 -291.923)" fill="#184f78"/>
            </g>
            <g id="Grupo_1034" data-name="Grupo 1034" transform="translate(17.049 11.069)">
              <path id="Trazado_98641" data-name="Trazado 98641" d="M97.045,310.611a.981.981,0,0,1,1.354-.433,1.784,1.784,0,0,1,.849,1.42c.155,1.079-.075,2.989-1.334,3.024-.148,0-.176.267-.026.263,1.549-.043,1.884-2.415,1.5-3.746-.342-1.2-1.925-2-2.565-.623a.119.119,0,1,0,.218.1Z" transform="translate(-96.813 -309.793)" fill="#184f78"/>
            </g>
            <g id="Grupo_1035" data-name="Grupo 1035" transform="translate(19.269 10.445)">
              <path id="Trazado_98642" data-name="Trazado 98642" d="M102.011,308.627c-.436.151-.5.665-.5,1.119a12.315,12.315,0,0,0,.118,1.585,3.046,3.046,0,0,0,.27,1.193c.286.447.862.376,1.289.306a1.87,1.87,0,0,0,1.424-.928c.079-.143-.11-.3-.19-.155-.417.753-2.071,1.392-2.433.321a6.637,6.637,0,0,1-.2-1.509c-.035-.454-.221-1.5.324-1.693.144-.05.045-.29-.1-.24Z" transform="translate(-101.509 -308.62)" fill="#184f78"/>
            </g>
            <g id="Grupo_1036" data-name="Grupo 1036" transform="translate(45.984)">
              <path id="Trazado_98643" data-name="Trazado 98643" d="M158.143,289.274c.458-.071.995.525,1.3.85a4.189,4.189,0,0,1,.771,1.115,2.8,2.8,0,0,1-.1,2.657c-.088.139.1.293.19.155a3.139,3.139,0,0,0,.034-3.106c-.385-.745-1.368-2.067-2.229-1.933-.149.023-.113.284.037.261Z" transform="translate(-158.01 -289.003)" fill="#184f78"/>
            </g>
          </g>
          <g id="Grupo_1039" data-name="Grupo 1039" transform="translate(40.083 124.505)">
            <path id="Trazado_98644" data-name="Trazado 98644" d="M119.084,347.4l-.788-2.726c-.179-.087-.348-.179-.51-.276-.054-.032-.1-.067-.155-.1-.1-.067-.208-.133-.305-.2-.058-.042-.112-.086-.167-.129-.084-.066-.168-.131-.247-.2-.055-.047-.106-.1-.158-.146-.072-.068-.144-.135-.211-.2-.05-.052-.1-.1-.144-.157-.063-.071-.125-.142-.184-.214-.043-.054-.086-.11-.127-.165-.056-.074-.11-.15-.162-.226-.037-.055-.074-.111-.109-.167q-.075-.12-.143-.242c-.031-.054-.061-.108-.09-.163-.045-.087-.087-.175-.128-.263-.023-.051-.048-.1-.07-.153-.042-.1-.08-.2-.117-.3-.016-.043-.033-.085-.048-.127-.042-.12-.08-.241-.115-.363-.006-.022-.014-.044-.02-.066a8.444,8.444,0,0,1-.285-1.8v0c-.008-.146-.012-.292-.014-.436v-.009c0-.143,0-.285,0-.425h0a12.734,12.734,0,0,1,.581-3.418l-.507-2.218-11.369,3.676.788,2.345c5.741,3.74,2.026,9.952,2.026,9.952l.788,2.852h0l11.988-3.93Z" transform="translate(-100.455 -330.355)" fill="#184f78" opacity="0.12"/>
            <g id="Grupo_1038" data-name="Grupo 1038">
              <path id="Trazado_98645" data-name="Trazado 98645" d="M97.066,332.141l11.369-3.676.507,2.218s-2.533,7.289,2.927,9.951l.788,2.725-11.988,3.93-.788-2.852s3.715-6.211-2.026-9.951Z" transform="translate(-97.066 -328.465)" fill="#184f78"/>
              <ellipse id="Elipse_3947" data-name="Elipse 3947" cx="0.675" cy="0.761" rx="0.675" ry="0.761" transform="translate(7.261 8.493)" fill="#f5f8fb"/>
              <path id="Trazado_98646" data-name="Trazado 98646" d="M115.008,345.585c-2.97-1.448-3.574-4.264-3.507-6.533-1.707,4.212-4.421,8.753-8.48,10.339l.787,2.849,11.988-3.93Z" transform="translate(-100.205 -333.415)" fill="#124768"/>
              <path id="Trazado_98647" data-name="Trazado 98647" d="M107.125,336.465c.169,0,3.293-1.078,3.293-1.078l2.786,10.2-3.528,1.249Z" transform="translate(-102.369 -331.701)" fill="#f5f8fb"/>
              <path id="Trazado_98648" data-name="Trazado 98648" d="M110.529,335.831l1.934-.719,2.744,10.292-2.012.721" transform="translate(-104.163 -331.573)" fill="#e1e8ef"/>
              <path id="Trazado_98649" data-name="Trazado 98649" d="M114.117,346.488a.613.613,0,1,1-.609-.686A.651.651,0,0,1,114.117,346.488Z" transform="translate(-105.413 -336.571)" fill="#184f78"/>
            </g>
          </g>
          <g id="Grupo_1041" data-name="Grupo 1041" transform="translate(86.36 132.451)">
            <path id="Trazado_98650" data-name="Trazado 98650" d="M241.439,362.342s0,0,0-.006a.294.294,0,0,0-.067-.169.273.273,0,0,0-.076-.061l-2.7-1.48h0l-4.934-2.708,0,.019a.905.905,0,0,0-.1-.038l-40.4-9.71a.914.914,0,0,0-.952.363,5.776,5.776,0,0,0-1.02,2.121h0c-.019.089-.035.179-.047.27l0,.032c-.01.083-.018.166-.022.25,0,.021,0,.042,0,.062,0,.076,0,.152,0,.229,0,.03,0,.061.007.092.005.069.012.137.022.206.006.041.015.08.023.121.012.06.024.12.04.18s.032.1.049.151.033.1.053.154.057.124.088.186c.02.04.036.08.058.12a2.916,2.916,0,0,0,.194.3,1.087,1.087,0,0,0,.118.135.959.959,0,0,0,.448.249l20.18,4.7,20.18,4.7a.9.9,0,0,0,.194.023.869.869,0,0,0,.189-.019.949.949,0,0,0,.125-.042h0l5.152-.08h0l2.951-.046a.234.234,0,0,0,.164-.069s.006-.009.009-.013a.29.29,0,0,0,.054-.092A.329.329,0,0,0,241.439,362.342Z" transform="translate(-191.115 -339.314)" fill="#184f78" opacity="0.12"/>
            <g id="Grupo_1040" data-name="Grupo 1040" transform="translate(2.619)">
              <path id="Trazado_98651" data-name="Trazado 98651" d="M237.332,352.323l.949-2.618a1.155,1.155,0,0,0-.558-1.451L199.15,331.616a.892.892,0,0,0-.991.193c-.774.763-2.14,2.474-1.17,4.326a1.037,1.037,0,0,0,.506.479l38.58,16.326A.95.95,0,0,0,237.332,352.323Z" transform="translate(-196.654 -331.543)" fill="#184f78"/>
              <path id="Trazado_98652" data-name="Trazado 98652" d="M237.53,352.734c-.294-.106-32.394-13.609-40.668-17.089a2.868,2.868,0,0,0,.13,2.408,1.037,1.037,0,0,0,.506.479l38.58,16.326a.95.95,0,0,0,1.255-.617l.949-2.618a1.232,1.232,0,0,0,.047-.664Z" transform="translate(-196.656 -333.461)" fill="#124768"/>
              <path id="Trazado_98653" data-name="Trazado 98653" d="M282.347,363l6.962,5.468c.22.173.084.563-.182.521L281.1,367.7Z" transform="translate(-241.176 -346.25)" fill="#efc4a3"/>
              <path id="Trazado_98654" data-name="Trazado 98654" d="M291.823,371.623l2.921.469c.266.043.4-.348.183-.521l-2.46-1.932A2.036,2.036,0,0,0,291.823,371.623Z" transform="translate(-246.793 -349.355)" fill="#184f78"/>
            </g>
          </g>
        </g>
      </g>
    </g>
  </g>
</svg>
