<svg xmlns="http://www.w3.org/2000/svg" width="128.069" height="255.865" viewBox="0 0 128.069 255.865">
  <g id="Grupo_53636" data-name="Grupo 53636" transform="translate(-846.38 -199.276)">
    <path id="Trazado_100249" data-name="Trazado 100249" d="M966.994,446.4c-6.166-5.077-10.638-11.229-10.4-19.7.334-11.866.589-23.743,1.323-35.587.654-10.538.095-21.2,3.042-31.555a26.3,26.3,0,0,0,.538-7.572,6.072,6.072,0,0,0-3.5-5.637q-10.749-5.441-21.429-11.015a4.153,4.153,0,0,1-2.107-2.058c-1.93-7.622-4.764-8.587-12.947-9.647a33.534,33.534,0,0,1-10.563-2.787,170.746,170.746,0,0,1-15.778-9.485c-1.019-.654-2.2-2.138-2.156-3.187a111.034,111.034,0,0,1,1.425-15.428c1.36-7.271,1.953-14.089-2.5-20.767-4.58-6.865-8.346-14.27-12.708-21.289-1.975-3.178-1.718-6.492-1.462-9.839.047-.611,1.538-1.527,2.4-1.573a53.941,53.941,0,0,1,5.994.387c2.921.171,4.648-1.133,4.858-4.151.418-6,1.318-12.016,1.067-17.986-.216-5.124-1.343-10.342-5.7-14.039-5.5-4.67-11.747-5.16-18.226-2.933-6.128,2.107-11.157,6.657-10.206,14.575a45.968,45.968,0,0,0,2.693,10.676c1.357,3.585,1.775,7.136.237,10.5a37.2,37.2,0,0,1-5.8,9.4c-7,7.8-10.248,16.836-8.008,26.977a155.4,155.4,0,0,0,8.507,27.566c3.405,7.96,3.03,15.249.742,23.15-3.374,11.646-5.955,23.435-.051,35.685-5.235-1.047-4.609,2.452-4.619,5.477-.007,2.122,0,4.244,0,6.366q0,37.562,0,75.123c0,5.008.121,5.054,5.2,5.123,6.985.095,13.968.336,20.953.418q28.589.336,57.18.576c4.356.036,4.9-.573,4.9-5q.025-23.078.015-46.156v-4.049a50.009,50.009,0,0,1,2.1,11.449c.66,9.123,3.375,18.232.063,27.406-.912,2.527.227,4.832,2.2,6.56,3.094,2.71,6.408,5.183,9.373,8.024,4.368,4.185,14.343,6.184,20.8,3.564C972.422,450.856,969.737,448.663,966.994,446.4Z" fill="#42210b"/>
    <g id="Grupo_53635" data-name="Grupo 53635" transform="translate(848.548 201.367)">
      <path id="Trazado_100250" data-name="Trazado 100250" d="M942.411,501.862q0,19.571,0,39.142c0,4.656-.025,4.718-4.525,4.687-25.092-.171-50.184-.4-75.277-.509-3-.013-4.05-.992-4.039-4.056q.138-39.938.006-79.876c-.009-2.971.863-4.125,3.97-4.1,18.957.161,37.916.131,56.874.24,6.453.037,12.905.409,19.357.393,2.737-.007,3.709.856,3.686,3.663C942.348,474.917,942.41,488.39,942.411,501.862Z" transform="translate(-853.088 -297.416)" fill="#fff"/>
      <path id="Trazado_100251" data-name="Trazado 100251" d="M898.705,224.421c-.573,3.971-.973,7.98-1.836,11.887a4.084,4.084,0,0,1-2.922,2.412c-5.6.527-10.612-1.485-15.266-4.413-7.53-4.736-11.431-11.456-10.637-20.5a10.284,10.284,0,0,1,1.616-4.7c5.261-7.725,18.792-8.937,24.438-1.6,2.519,3.273,2.966,8.2,4.133,12.433.38,1.379.06,2.95.06,4.433Z" transform="translate(-856.58 -202.609)" fill="#fff"/>
      <path id="Trazado_100252" data-name="Trazado 100252" d="M895.962,326.908c-3.276-1.194-5.175-2.9-5.938-6.069-2.652-11.005-5.379-22-8.319-32.926a68.566,68.566,0,0,0-4.592-12.828c-3.526-7.059-7.947-9.032-15.939-7.663,4.146-5.267,8.265-10.184,8.23-17.579,3.835,2.52,7.318,4.722,10.673,7.106.5.357.646,1.591.548,2.367-.767,6.118,1.979,11.141,4.906,16.1,3.126,5.291,6.043,10.743,9.594,15.738,4.05,5.7,4.309,11.673,3.138,18.185-.914,5.081-1.317,10.255-1.954,15.386C896.235,325.326,896.12,325.926,895.962,326.908Z" transform="translate(-854.059 -220.202)" fill="#fff"/>
      <path id="Trazado_100253" data-name="Trazado 100253" d="M966.991,478.442c-6.371-5.482-11.307-11.882-11.133-20.764.266-13.56.607-27.129,1.4-40.666.573-9.79.283-19.718,3.352-29.263a12.632,12.632,0,0,0,.113-5.365,4.972,4.972,0,0,0-1.6-3.262c-4.176-2.694-8.307-5.643-12.855-7.539C929.9,364.76,913.063,359.545,895.1,359.16c-1.756-.038-2.754-.545-2.876-2.518a3.553,3.553,0,0,0-1.273-2.583c-5-2.742-10.076-5.341-15.176-7.889a6.331,6.331,0,0,0-.8-.33c-.945-2.919-3.069-7.1-3.644-8.515q-6.522-16.039-13-32.1c-.281-.7-.471-1.43-.7-2.146l.953-.523a20.425,20.425,0,0,1,2.684,3.834c4.278,10.609,8.675,21.182,12.514,31.952,1.732,4.858,4.819,7.7,9.222,9.751a185.176,185.176,0,0,0,37.781,12.952c3.965.888,7.969,1.6,11.93,2.392a6.423,6.423,0,0,0,.254-1.165,3.9,3.9,0,0,0-.193-.927c-1.318-3.962-4.784-4.259-8.146-4.963-4.511-.944-9.38-1.367-13.351-3.441-8.144-4.255-15.847-9.376-23.6-14.349a8.308,8.308,0,0,1-3.354-4.336c-3.066-11.341-5.763-22.781-8.791-34.133-1.576-5.912-2.888-12.023-7.4-16.654a9.787,9.787,0,0,0-16.157,3.11,29.827,29.827,0,0,0-.711,20.285c3,10.029,6.919,19.778,10.041,29.774.552,1.768.426,6.616.8,10.319a5.986,5.986,0,0,0-.909,1.612,40.764,40.764,0,0,0-1.958,7.037c-1.143,6.875-2.455,13.752-3,20.684-.338,4.311.525,8.809,4.426,11.719a5.491,5.491,0,0,0,3.693.932c.513-.069,13.754.817,13.79-.211,2.623-.042,5.247-.035,7.87-.009,18.207.181,36.414.343,54.618.646,4.169.07,4.677,1.276,3.933,5.547-.868,4.982-2.186,10.073-1.893,15.033.678,11.517,2.265,22.978,3.37,34.473.626,6.505,2.169,13.077-.078,19.529-1.5,4.3.2,7.131,3.5,9.538,2.127,1.552,4.728,2.788,6.212,4.825,4.222,5.8,10.118,4.337,15.641,4.713l.373-.93C970.127,480.883,968.495,479.737,966.991,478.442Z" transform="translate(-849.835 -231.599)" fill="#fff"/>
    </g>
  </g>
</svg>
