<svg xmlns="http://www.w3.org/2000/svg" width="193" height="249.639" viewBox="0 0 193 249.639">
  <g id="Grupo_21065" data-name="Grupo 21065" transform="translate(-490 -5420.203)">
    <g id="Grupo_7726" data-name="Grupo 7726" transform="translate(524.633 5421.717)">
      <g id="Grupo_7725" data-name="Grupo 7725" transform="translate(0 0)">
        <g id="Grupo_7724" data-name="Grupo 7724" transform="translate(0 0)">
          <path id="Trazado_12205" data-name="Trazado 12205" d="M249.713,484.33c-.124-1.535.568-3.424.445-4.53a29.212,29.212,0,0,0-1.426-4.306,6.461,6.461,0,0,1-.236-1.19s-.294-3.564-.467-5.593c-.571-6.625-1.142-15.762-1.256-17.382-.166-2.327-.924-10.514-1.19-12.987a39.446,39.446,0,0,0-1.7-7.785h-7.774c-.1-.312-.178-.526-.178-.526s-.846.2-.715.526H225.149c1.535,6.907,4.9,16.11,6.8,21.6,1.356,3.931,3.012,7.769,4.375,11.708.379,1.091,2.7,8.523,3.2,10.135.062.2.1.312.1.312s0,.07-.008.17c-.077,1.221-.642,8.616-.7,10.653a38.077,38.077,0,0,0,.955,8.16,60.005,60.005,0,0,1,.642,9.76c-.027,2.493,1.059,3.884,2.184,3.943.727.035,1.457-1.506,1.851-2.756a18.265,18.265,0,0,0-.29-3.947,21.587,21.587,0,0,1-.052-3.506q.006-.122.011-.232a4.015,4.015,0,0,1,.108-.653,20.611,20.611,0,0,1,.939-2.74c.062-.147.1-.232.1-.232s.2.506.415,1.128a8.637,8.637,0,0,1,.383,1.506,19.849,19.849,0,0,1,.185,4.726,48.9,48.9,0,0,1-1.415,5.786c-.634,1.859-1.639,5.041-2.068,6.242-.379,1.067-1.125,2.98-.966,3.672a.907.907,0,0,0,1.542.4,3.739,3.739,0,0,0,.843-1.411c.147-.367.239-.68.274-.785-.016.1-.066.4-.12.788a6.865,6.865,0,0,0-.031,2.478,1.012,1.012,0,0,0,1.449.56c.611-.244,1.044-1.229,1.044-1.229s.433-.17,1.039-.429c1.194-.5,1.6-2.636,2.025-4.294s1.372-3.475,1.666-4.607c.344-1.318.665-2.8,1.094-4.58a33.523,33.523,0,0,0,.862-4.924C253.7,496.482,249.785,485.215,249.713,484.33Zm-31.591-53.774H165.311c-1.894,8.413-6.258,12.744-9.76,21.147-.1.22-.2.464-.3.738-.043.108-.087.22-.131.337-.241.613-.479,1.246-.708,1.9-3.359,9.671-5.871,33.6,3.042,61.69.731,2.307,1.55,5.643,2.381,9.458,2.64,12.152,5.373,29.179,5.686,33.377.278,3.8-.278,6.625-.623,15.338-.156,3.938.661,9.244.742,14.074a104.946,104.946,0,0,1-.715,12.187c-.883,10.123,2.377,20.509,3.324,23.462,1.87,5.837,3.168,10.56,4.031,14.081.8,3.251,1.476,6.142,1.782,7.894,1.438,8.309,2.632,11.746,1.9,13.706a10.8,10.8,0,0,0-.607,2.5,8.659,8.659,0,0,0-.052,1.96.885.885,0,0,0-.239-.131.77.77,0,0,0-.549-.023,1.454,1.454,0,0,0-1.044.765c-.093.052-.406-.185-.883-.023a4.057,4.057,0,0,0-.883.487c-.305.158-.445.17-.665.3a.289.289,0,0,1-.046.027,2.521,2.521,0,0,0-.208.158,1.506,1.506,0,0,0-.495,1.569,1.142,1.142,0,0,0,.538.7,3.012,3.012,0,0,0,.19,1.334,8.587,8.587,0,0,0,2.536,2.609c1.322.847,3.862,2.9,4.65,3.487,1.94,1.43,3.376,2.223,6.232,1.569,2.767-.63,3.544-3.189,3.51-5.106s-.51-4.83-.29-6.142c.591-3.479-.124-4.256-.538-6.6-.267-1.481-.97-11.124-1.329-19.04h.07c.019-.4.038-.769.052-1.079a140.048,140.048,0,0,1,1.616-14.452c.962-6.293,1.731-11.623,1.91-14.36a59.711,59.711,0,0,0-.4-12.964c-.858-6.617-1.77-9.37-1.774-11.982-.008-3.363.135-4.008,1.391-9.006.731-2.908.53-6.443.445-9.98-.124-5.056-.611-11.786-.379-14.275.151-1.62.858-12.464,1.334-19.838.251-3.947.441-6.9.441-6.9.232-4.712.383-8.517.472-11.673V501.473c-.085-2.045-.208-3.8-.337-5.771a42.186,42.186,0,0,0-.979-6.693c-.073-.325-.143-.6-.2-.819.081,0,.2-.12.337-.312.429-.576,1.1-1.793,1.774-2.03a.659.659,0,0,1,.224-.043.611.611,0,0,1,.147.019c.675.166,1.3,1.411,1.714,2.022.143.208.26.344.344.34-.052.193-.108.429-.17.7a42.168,42.168,0,0,0-1.009,6.81c-.128,1.973-.255,3.726-.34,5.771v12.373c.093,3.158.244,6.959.475,11.673,0,0,.185,2.949.44,6.9.472,7.371,1.179,18.217,1.329,19.838.232,2.489-.255,9.218-.379,14.275-.085,3.537-.286,7.07.448,9.98,1.256,5,1.4,5.643,1.391,9.006-.008,2.613-.92,5.365-1.778,11.982a59.711,59.711,0,0,0-.4,12.964c.182,2.737.951,8.067,1.91,14.36a138.916,138.916,0,0,1,1.616,14.452c.019.312.038.68.058,1.079h.07c-.364,7.916-1.067,17.56-1.329,19.04-.415,2.337-1.128,3.116-.541,6.6.224,1.314-.251,4.229-.286,6.142s.742,4.476,3.506,5.106c2.86.653,4.294-.139,6.232-1.569.788-.584,3.332-2.64,4.65-3.487a8.645,8.645,0,0,0,2.539-2.609,3.045,3.045,0,0,0,.185-1.334,1.132,1.132,0,0,0,.537-.7,1.5,1.5,0,0,0-.495-1.569c-.081-.066-.151-.116-.208-.158-.016-.008-.031-.019-.046-.027l0,0c-.217-.128-.356-.139-.661-.3a4.008,4.008,0,0,0-.878-.487c-.475-.163-.788.077-.883.023a1.442,1.442,0,0,0-1.044-.766.76.76,0,0,0-.545.023.888.888,0,0,0-.239.131,8.765,8.765,0,0,0-.052-1.973,11.111,11.111,0,0,0-.611-2.485c-.727-1.96.464-5.4,1.905-13.706.305-1.751.974-4.642,1.782-7.894.866-3.521,2.161-8.245,4.028-14.081.947-2.953,4.206-13.339,3.328-23.462a103.764,103.764,0,0,1-.715-12.187c.081-4.83.893-10.135.738-14.074-.344-8.712-.9-11.538-.618-15.338.312-4.2,3.046-21.224,5.686-33.377.827-3.815,1.647-7.15,2.381-9.458,8.909-28.085,6.4-52.019,3.038-61.69C225.385,444.216,220.221,439.91,218.122,430.556Zm-74.211,43.438c.5-1.61,2.821-9.045,3.2-10.135,1.361-3.939,3.015-7.777,4.375-11.708,1.894-5.485,5.257-14.688,6.8-21.6H148.215c.131-.329-.785-.312-.889,0h-7.773a39.451,39.451,0,0,0-1.7,7.785c-.267,2.474-1.024,10.661-1.187,12.987-.116,1.62-.688,10.757-1.256,17.382-.178,2.029-.472,5.593-.472,5.593a6.49,6.49,0,0,1-.232,1.19,29.376,29.376,0,0,0-1.43,4.306c-.124,1.105.571,3,.448,4.53a57.546,57.546,0,0,1-2.273,6.873c-.665,1.848-1.714,5.28-1.592,6.751a33.018,33.018,0,0,0,.862,4.924c.429,1.778.746,3.262,1.091,4.58.3,1.133,1.237,2.949,1.666,4.607s.835,3.8,2.025,4.294c.611.26,1.044.429,1.044.429s.429.987,1.044,1.229a1.013,1.013,0,0,0,1.449-.56,6.784,6.784,0,0,0-.035-2.478c-.052-.386-.1-.688-.12-.788.035.1.128.415.274.785a3.748,3.748,0,0,0,.846,1.411.9.9,0,0,0,1.538-.4c.163-.692-.587-2.605-.966-3.672-.425-1.2-1.43-4.383-2.064-6.242a48.144,48.144,0,0,1-1.415-5.786,19.651,19.651,0,0,1,.185-4.726,8.634,8.634,0,0,1,.383-1.506c.2-.623.415-1.128.415-1.128s.035.085.1.228a21.132,21.132,0,0,1,.935,2.744,4.015,4.015,0,0,1,.108.653q.006.11.011.232a21.124,21.124,0,0,1-.046,3.506,18.032,18.032,0,0,0-.29,3.947c.394,1.252,1.125,2.791,1.848,2.756,1.128-.058,2.211-1.449,2.184-3.943a60.5,60.5,0,0,1,.646-9.76,38.051,38.051,0,0,0,.951-8.16c-.058-2.037-.623-9.435-.7-10.653-.008-.1-.008-.158-.008-.17s.035-.108.1-.305Z" transform="translate(-129.845 -430.031)" fill="#fff" stroke="#3b1f10" stroke-linecap="round" stroke-linejoin="round" stroke-width="1.5"/>
          <path id="Trazado_12206" data-name="Trazado 12206" d="M423.566,594.714a6.432,6.432,0,0,1-1.26.588c-.672.126-.918-.156-.918-.156a6.73,6.73,0,0,0,1.275-.474,4.254,4.254,0,0,0,1.029-1.24l.028.854Z" transform="translate(-308.699 -530.273)" fill="#3b1f10"/>
          <path id="Trazado_12207" data-name="Trazado 12207" d="M421.861,600.544a2.392,2.392,0,0,1-1.225.982,1.721,1.721,0,0,1-1.473-.306,2.661,2.661,0,0,0,1.6-.246,16.332,16.332,0,0,0,1.35-1.411Z" transform="translate(-307.334 -534.035)" fill="#3b1f10"/>
          <path id="Trazado_12208" data-name="Trazado 12208" d="M422.626,612.051a1.614,1.614,0,0,1-1.366.924,1.362,1.362,0,0,1-.72-.3,1.376,1.376,0,0,0,1.267-.415,3.641,3.641,0,0,0,.571-1.426Z" transform="translate(-308.179 -540.949)" fill="#3b1f10"/>
          <path id="Trazado_12209" data-name="Trazado 12209" d="M436,610.042s-.024,2.35-.024,3.272a17.281,17.281,0,0,1-.609,4.054,37.691,37.691,0,0,0-1.085,4.029c.061.246-.049.976.492,1.1,1.119.265,1.718-1.411,1.718-1.411s-.139,1.858-1.167,2.034c-1.6.273-1.617-.76-1.617-1.681a26.428,26.428,0,0,1,1.218-4.243,18.374,18.374,0,0,0,.546-2.92C435.556,613.522,436,610.042,436,610.042Z" transform="translate(-316.257 -540.463)" fill="#3b1f10"/>
          <path id="Trazado_12210" data-name="Trazado 12210" d="M428.665,616.869s-.883,4.221-1.19,5.693-1.434,6.088-1.617,6.7-.9.208-.9.208.779-2.3,1.05-3.192c.378-1.239,1.139-3.827,1.323-4.748.1-.516.4-2.332.735-3.465A2.8,2.8,0,0,1,428.665,616.869Z" transform="translate(-310.887 -544.651)" fill="#3b1f10"/>
          <path id="Trazado_12211" data-name="Trazado 12211" d="M432.273,642.6a1.066,1.066,0,0,1-1.386-.946,27.567,27.567,0,0,1,.987-4.054,2.671,2.671,0,0,0,.021-1.218s-2.143,4.81-1.449,6.112a1.336,1.336,0,0,0,1.015.705Z" transform="translate(-314.171 -556.621)" fill="#3b1f10"/>
          <path id="Trazado_12212" data-name="Trazado 12212" d="M413.554,543.335a4.131,4.131,0,0,0,2.252,1.087,7.071,7.071,0,0,0,2.8,0,4.907,4.907,0,0,1-3.654.357c-1.255-.269-1.474-1.049-1.474-1.049Z" transform="translate(-303.846 -499.54)" fill="#3b1f10"/>
          <path id="Trazado_12213" data-name="Trazado 12213" d="M378.386,545.13s.81,3.149-.935,8.38a23.464,23.464,0,0,1-3.895,6.313,58.968,58.968,0,0,0,3.24-7.022A46.54,46.54,0,0,0,378.386,545.13Z" transform="translate(-279.355 -500.641)" fill="#3b1f10"/>
          <path id="Trazado_12214" data-name="Trazado 12214" d="M317.01,459.2s-4.013,1.066-5.636,4.428c-1.143,2.363,0-2.025,1.623-3.151A14.211,14.211,0,0,1,317.01,459.2Z" transform="translate(-240.926 -447.926)" fill="#3b1f10"/>
          <path id="Trazado_12215" data-name="Trazado 12215" d="M298.046,715.415c1.1,4.648,1.087,4.751,2.153,8.372,1.006,3.422,1.872,5.517,1.872,5.517a14.789,14.789,0,0,1-3.288-6.932C298.438,720.785,298.046,715.415,298.046,715.415Z" transform="translate(-233.032 -605.107)" fill="#3b1f10"/>
          <path id="Trazado_12216" data-name="Trazado 12216" d="M348.05,762.8a84.847,84.847,0,0,0-1.833,10.278c-.2,3.423,1.833,11.46,1.833,11.46s-2.636-6.409-2.617-11.07C345.446,770.249,348.05,762.8,348.05,762.8Z" transform="translate(-262.102 -634.176)" fill="#3b1f10"/>
          <path id="Trazado_12217" data-name="Trazado 12217" d="M323.755,795.091s.536,3.8-.467,6.013a4.382,4.382,0,0,1-2.691,2.6s1.875-2.461,2.03-2.833A21.485,21.485,0,0,0,323.755,795.091Z" transform="translate(-246.865 -653.985)" fill="#3b1f10"/>
          <path id="Trazado_12218" data-name="Trazado 12218" d="M304.016,802.382a28.89,28.89,0,0,0,1.207,8.252c.8,2.013-1.152-1.422-1.577-3.783A8.792,8.792,0,0,1,304.016,802.382Z" transform="translate(-236.385 -658.459)" fill="#3b1f10"/>
          <path id="Trazado_12219" data-name="Trazado 12219" d="M348.585,886.222a12.864,12.864,0,0,1-1.536,3.872,6.63,6.63,0,0,1-2.712,2.4,13.824,13.824,0,0,0,2.26-2.875C347.461,888.251,348.585,886.222,348.585,886.222Z" transform="translate(-261.43 -709.892)" fill="#3b1f10"/>
          <path id="Trazado_12221" data-name="Trazado 12221" d="M298.527,439.531a8.666,8.666,0,0,0,.138,2.745,14.89,14.89,0,0,0,.894,2.25s-.9-.3-1.431-2.117A10.056,10.056,0,0,1,298.527,439.531Z" transform="translate(-233.06 -435.859)" fill="#3b1f10"/>
          <path id="Trazado_12223" data-name="Trazado 12223" d="M416.046,560.383c.193-.515.823-1.857,1.006-2.348a5.843,5.843,0,0,0,.159-1.566,3.66,3.66,0,0,1,.307,1.411c-.061.553-.946,2.563-.993,3.293a4.677,4.677,0,0,0,.587,2.767c.156.329,3.109,4.86,4.04,6.34.243.387,2.248,4.409,3.048,4.636a6.719,6.719,0,0,0,2.059.084,3.074,3.074,0,0,1-1.6.462,1.772,1.772,0,0,1-1.772-.931c-.463-.587-3.007-5.343-3.437-5.834a40.786,40.786,0,0,1-2.977-4.5A4.412,4.412,0,0,1,416.046,560.383Z" transform="translate(-305.259 -507.597)" fill="#3b1f10"/>
          <path id="Trazado_12224" data-name="Trazado 12224" d="M291.678,614.864v12.373C291.512,621.438,291.552,617.839,291.678,614.864Z" transform="translate(-229.058 -543.421)" fill="#fff" stroke="#411906" stroke-linecap="round" stroke-linejoin="round" stroke-width="1.5"/>
          <g id="Grupo_7722" data-name="Grupo 7722" transform="translate(67.369 220.029)">
            <path id="Trazado_12225" data-name="Trazado 12225" d="M306.37,999.278s-.675,8.718-.709,10.854-1.633,9.518-1.516,11.266a19.394,19.394,0,0,0,.534,3.3,30.827,30.827,0,0,1,.028-4.443c.19-2.525,1.246-5.741,1.532-9.83C306.39,1008.289,306.37,999.278,306.37,999.278Z" transform="translate(-304.139 -999.278)" fill="#3b1f10"/>
            <path id="Trazado_12226" data-name="Trazado 12226" d="M326.028,1034.089a5.872,5.872,0,0,0,1.77-2.165,7.841,7.841,0,0,0,.733-3.26s.734,2.42-.184,3.807A4.155,4.155,0,0,1,326.028,1034.089Z" transform="translate(-317.567 -1017.305)" fill="#3b1f10"/>
            <path id="Trazado_12227" data-name="Trazado 12227" d="M321.47,1031.682s.024-.219.064-.571a39.544,39.544,0,0,0,.65-4.056c-.017-2.511-1.039-4.307-.983-7.61a54.178,54.178,0,0,1,1.084-8.158s-.831,8.161-.533,10.1c.475,3.085,1.013,4.463.962,5.453A12.539,12.539,0,0,1,321.47,1031.682Z" transform="translate(-314.605 -1006.644)" fill="#3b1f10"/>
            <path id="Trazado_12228" data-name="Trazado 12228" d="M340.957,1040.629a1.606,1.606,0,0,1,.326-.687,2.506,2.506,0,0,1,.678-.289l-.67-.224a.462.462,0,0,0-.291.336A3.076,3.076,0,0,0,340.957,1040.629Z" transform="translate(-326.717 -1023.91)" fill="#3b1f10"/>
            <path id="Trazado_12229" data-name="Trazado 12229" d="M336.423,1039.468a2.277,2.277,0,0,1,.286-.747,2.874,2.874,0,0,1,.535-.422l-.7-.075a.489.489,0,0,0-.231.391A3.062,3.062,0,0,0,336.423,1039.468Z" transform="translate(-323.876 -1023.17)" fill="#3b1f10"/>
          </g>
          <path id="Trazado_12230" data-name="Trazado 12230" d="M152.558,594.714a6.435,6.435,0,0,0,1.261.588c.672.126.918-.156.918-.156a6.706,6.706,0,0,1-1.275-.474,4.255,4.255,0,0,1-1.03-1.24l-.028.854Z" transform="translate(-143.685 -530.273)" fill="#3b1f10"/>
          <path id="Trazado_12231" data-name="Trazado 12231" d="M153.29,600.544a2.394,2.394,0,0,0,1.228.982,1.719,1.719,0,0,0,1.473-.306,2.659,2.659,0,0,1-1.6-.246,16.432,16.432,0,0,1-1.35-1.411Z" transform="translate(-144.078 -534.035)" fill="#3b1f10"/>
          <path id="Trazado_12232" data-name="Trazado 12232" d="M153.89,612.051a1.61,1.61,0,0,0,1.365.924,1.364,1.364,0,0,0,.721-.3,1.375,1.375,0,0,1-1.267-.415,3.642,3.642,0,0,1-.574-1.426Z" transform="translate(-144.596 -540.949)" fill="#3b1f10"/>
          <path id="Trazado_12233" data-name="Trazado 12233" d="M139.406,610.042s.025,2.35.025,3.272a17.3,17.3,0,0,0,.609,4.054,37.667,37.667,0,0,1,1.084,4.029c-.062.246.052.976-.491,1.1-1.119.265-1.718-1.411-1.718-1.411s.138,1.858,1.166,2.034c1.6.273,1.618-.76,1.618-1.681a26.428,26.428,0,0,0-1.218-4.243,18.372,18.372,0,0,1-.546-2.92C139.851,613.522,139.406,610.042,139.406,610.042Z" transform="translate(-135.41 -540.463)" fill="#3b1f10"/>
          <path id="Trazado_12234" data-name="Trazado 12234" d="M145.265,616.869s.883,4.221,1.19,5.693,1.434,6.088,1.618,6.7.9.208.9.208-.779-2.3-1.05-3.192c-.379-1.239-1.139-3.827-1.323-4.748-.1-.516-.4-2.332-.735-3.465A2.784,2.784,0,0,0,145.265,616.869Z" transform="translate(-139.305 -544.651)" fill="#3b1f10"/>
          <path id="Trazado_12235" data-name="Trazado 12235" d="M144.433,642.6a1.067,1.067,0,0,0,1.387-.946,27.769,27.769,0,0,0-.987-4.054,2.658,2.658,0,0,1-.021-1.218s2.143,4.81,1.449,6.112a1.337,1.337,0,0,1-1.015.706Z" transform="translate(-138.795 -556.621)" fill="#3b1f10"/>
          <path id="Trazado_12236" data-name="Trazado 12236" d="M158.13,543.335a4.126,4.126,0,0,1-2.252,1.087,7.074,7.074,0,0,1-2.8,0,4.91,4.91,0,0,0,3.656.357c1.254-.269,1.474-1.049,1.474-1.049Z" transform="translate(-144.097 -499.54)" fill="#3b1f10"/>
          <path id="Trazado_12237" data-name="Trazado 12237" d="M246.7,488.888a20.423,20.423,0,0,1,2.922,6.364,49.554,49.554,0,0,1,1.043,12.511c-.169,2.812.407,9.962-1.1,13.693-1.078,2.672-2.517,4.944-7.962,6.18a24.943,24.943,0,0,1-9.184.233,48.119,48.119,0,0,1-6.18-1.714,22.934,22.934,0,0,0,6.654,2.48,23.328,23.328,0,0,0,9.5-.208c2.28-.557,6.2-1.154,8.438-6.813,1.434-3.635.8-11.4.8-14.672,0-2.223-.267-9.263-.968-11.244C248.956,490.858,246.7,488.888,246.7,488.888Z" transform="translate(-188.984 -466.138)" fill="#3b1f10"/>
          <path id="Trazado_12238" data-name="Trazado 12238" d="M193.475,545.13s-.81,3.149.935,8.38a23.479,23.479,0,0,0,3.895,6.313,58.841,58.841,0,0,1-3.238-7.022A46.534,46.534,0,0,1,193.475,545.13Z" transform="translate(-168.766 -500.641)" fill="#3b1f10"/>
          <path id="Trazado_12239" data-name="Trazado 12239" d="M253.14,459.2s4.013,1.066,5.636,4.428c1.143,2.363,0-2.025-1.623-3.151A14.215,14.215,0,0,0,253.14,459.2Z" transform="translate(-205.484 -447.926)" fill="#3b1f10"/>
          <path id="Trazado_12240" data-name="Trazado 12240" d="M275.393,715.415c-1.1,4.648-1.091,4.751-2.154,8.372-1.006,3.422-1.87,5.517-1.87,5.517a14.784,14.784,0,0,0,3.288-6.932C275,720.785,275.393,715.415,275.393,715.415Z" transform="translate(-216.666 -605.107)" fill="#3b1f10"/>
          <path id="Trazado_12241" data-name="Trazado 12241" d="M227.622,762.8a84.846,84.846,0,0,1,1.833,10.278c.2,3.423-1.833,11.46-1.833,11.46s2.636-6.409,2.617-11.07C230.226,770.249,227.622,762.8,227.622,762.8Z" transform="translate(-189.829 -634.176)" fill="#3b1f10"/>
          <path id="Trazado_12242" data-name="Trazado 12242" d="M250.829,795.091s-.537,3.8.47,6.013a4.391,4.391,0,0,0,2.691,2.6s-1.875-2.461-2.03-2.833A21.4,21.4,0,0,1,250.829,795.091Z" transform="translate(-203.978 -653.985)" fill="#3b1f10"/>
          <path id="Trazado_12243" data-name="Trazado 12243" d="M272.789,802.382a28.861,28.861,0,0,1-1.208,8.252c-.805,2.013,1.152-1.422,1.577-3.783A8.792,8.792,0,0,0,272.789,802.382Z" transform="translate(-216.679 -658.458)" fill="#3b1f10"/>
          <path id="Trazado_12244" data-name="Trazado 12244" d="M224.5,886.222a12.894,12.894,0,0,0,1.537,3.872,6.628,6.628,0,0,0,2.712,2.4,13.833,13.833,0,0,1-2.26-2.875C225.622,888.251,224.5,886.222,224.5,886.222Z" transform="translate(-187.913 -709.892)" fill="#3b1f10"/>
          <path id="Trazado_12246" data-name="Trazado 12246" d="M278.969,439.531a8.657,8.657,0,0,1-.138,2.745,14.838,14.838,0,0,1-.894,2.25s.9-.3,1.431-2.117A10.089,10.089,0,0,0,278.969,439.531Z" transform="translate(-220.696 -435.859)" fill="#3b1f10"/>
          <path id="Trazado_12248" data-name="Trazado 12248" d="M147.147,560.383c-.193-.515-.822-1.857-1.006-2.348a5.877,5.877,0,0,1-.159-1.566,3.674,3.674,0,0,0-.306,1.411c.061.553.945,2.563.993,3.293a4.68,4.68,0,0,1-.587,2.767c-.156.329-3.109,4.86-4.039,6.34-.244.387-2.249,4.409-3.049,4.636a6.719,6.719,0,0,1-2.059.084,3.077,3.077,0,0,0,1.6.462,1.772,1.772,0,0,0,1.772-.931c.463-.587,3.007-5.343,3.436-5.834a40.857,40.857,0,0,0,2.978-4.5A4.419,4.419,0,0,0,147.147,560.383Z" transform="translate(-134.194 -507.597)" fill="#3b1f10"/>
          <path id="Trazado_12249" data-name="Trazado 12249" d="M287.974,614.864v12.373C288.14,621.438,288.1,617.839,287.974,614.864Z" transform="translate(-226.853 -543.421)" fill="#fff" stroke="#411906" stroke-linecap="round" stroke-linejoin="round" stroke-width="1.5"/>
          <g id="Grupo_7723" data-name="Grupo 7723" transform="translate(41.128 220.029)">
            <path id="Trazado_12250" data-name="Trazado 12250" d="M269.911,999.278s.675,8.718.71,10.854,1.634,9.518,1.515,11.266a19.438,19.438,0,0,1-.533,3.3,30.986,30.986,0,0,0-.027-4.443c-.19-2.525-1.246-5.741-1.534-9.83C269.893,1008.289,269.911,999.278,269.911,999.278Z" transform="translate(-256.9 -999.278)" fill="#3b1f10"/>
            <path id="Trazado_12251" data-name="Trazado 12251" d="M249.384,1034.089a5.868,5.868,0,0,1-1.769-2.165,7.837,7.837,0,0,1-.734-3.26s-.734,2.42.184,3.807A4.158,4.158,0,0,0,249.384,1034.089Z" transform="translate(-242.602 -1017.305)" fill="#3b1f10"/>
            <path id="Trazado_12252" data-name="Trazado 12252" d="M255.945,1031.682s-.025-.219-.064-.571a39.408,39.408,0,0,1-.65-4.056c.017-2.511,1.039-4.307.982-7.61a54.354,54.354,0,0,0-1.084-8.158s.831,8.161.533,10.1c-.475,3.085-1.014,4.463-.962,5.453a12.537,12.537,0,0,0,1.245,4.843Z" transform="translate(-247.567 -1006.644)" fill="#3b1f10"/>
            <path id="Trazado_12253" data-name="Trazado 12253" d="M237.254,1040.629a1.614,1.614,0,0,0-.326-.687,2.5,2.5,0,0,0-.678-.289l.67-.224a.463.463,0,0,1,.292.336A3.054,3.054,0,0,1,237.254,1040.629Z" transform="translate(-236.251 -1023.91)" fill="#3b1f10"/>
            <path id="Trazado_12254" data-name="Trazado 12254" d="M241.925,1039.468a2.288,2.288,0,0,0-.287-.747,2.871,2.871,0,0,0-.535-.422l.7-.075a.489.489,0,0,1,.231.391A3.06,3.06,0,0,1,241.925,1039.468Z" transform="translate(-239.228 -1023.17)" fill="#3b1f10"/>
          </g>
          <path id="Trazado_12259" data-name="Trazado 12259" d="M307.333,575.219a20.433,20.433,0,0,1-8.66.124c-4.258-1.024-7.4-3.9-8.477-6.576a12.648,12.648,0,0,1-.694-2.694h-1.233a12.321,12.321,0,0,0,.66,2.773,11.249,11.249,0,0,0,8.437,7.13,19.766,19.766,0,0,0,9.495.01,22.933,22.933,0,0,0,6.654-2.48A48.07,48.07,0,0,1,307.333,575.219Z" transform="translate(-227.034 -513.489)" fill="#3b1f10"/>
          <path id="Trazado_12260" data-name="Trazado 12260" d="M290.54,495.615a24.723,24.723,0,0,1,2.941-6.727s-2.252,1.97-3.965,6.811a16.475,16.475,0,0,0-.554,3.217l.892,2.187A30.8,30.8,0,0,1,290.54,495.615Z" transform="translate(-227.459 -466.138)" fill="#3b1f10"/>
        </g>
        <path id="Trazado_12261" data-name="Trazado 12261" d="M267.313,485.453a11.2,11.2,0,0,0-1.686-3.651s-7.921,1.86-16.905,2.969a156.22,156.22,0,0,1-17.288.8v-.018s-.385.007-1.057.012-1.057-.012-1.057-.012v.018a156.224,156.224,0,0,1-17.288-.8c-8.984-1.109-16.9-2.969-16.9-2.969a14.907,14.907,0,0,0-1.674,3.815,12.77,12.77,0,0,0-.5,2.365,42.127,42.127,0,0,1,14.562,1.943c6.214,1.861,10.478,3.5,14.7,7.469,2.59,2.437,5.681,5.421,6.374,10.275a28.551,28.551,0,0,1-.564,11.8,5.135,5.135,0,0,0,2.54.348c1.914-.043,2.356-.45,2.356-.45s-1.086-7.678.663-12.32c2.76-7.326,5.166-9.485,8.088-11.512,5.28-3.663,6.586-4.02,12.749-6.041,6.09-2,13.606-1.57,13.606-1.57S267.685,486.567,267.313,485.453Z" transform="translate(-168.561 -461.791)" fill="#3b1f10"/>
      </g>
    </g>
    <path id="Trazado_13405" data-name="Trazado 13405" d="M0,0H193V3.027H0Z" transform="translate(490 5420.203)" fill="#895cd8"/>
    <path id="Trazado_11922" data-name="Trazado 11922" d="M6276.742,612.484V853.317" transform="translate(-5649.742 4813.859)" fill="none" stroke="#ea3065" stroke-width="2" stroke-dasharray="6"/>
    <path id="Trazado_11922-2" data-name="Trazado 11922" d="M6276.742,612.484v56.333" transform="translate(-5719.742 4813.859)" fill="none" stroke="#ea3065" stroke-width="2" stroke-dasharray="6"/>
    <path id="Trazado_12263" data-name="Trazado 12263" d="M6297,5844.19h96.13" transform="translate(-5758.63 -359.112)" fill="none" stroke="#ea3065" stroke-width="2"/>
    <path id="Trazado_12263-2" data-name="Trazado 12263" d="M6297,5844.19h96.13" transform="translate(-5758.63 -419.112)" fill="none" stroke="#ea3065" stroke-width="2"/>
  </g>
</svg>
