<svg xmlns="http://www.w3.org/2000/svg" width="193" height="242.498" viewBox="0 0 193 242.498">
  <g id="Grupo_21093" data-name="Grupo 21093" transform="translate(-490 -5378.732)">
    <g id="Grupo_7696" data-name="Grupo 7696" transform="translate(501.194 5379.23)">
      <path id="Trazado_11906" data-name="Trazado 11906" d="M378.229,267.453c.193,2.059.368,3.725.519,4.745,1.389,9.633,6.7,24.706,10.23,34.773H412.77c-.41-4.958-1.322-14.73-1.674-18a55.619,55.619,0,0,0-5.072-17.977c-3.2-6.067-4.821-10.745-5.214-15.784-.193-2.494-.083-10.7.109-19.349.2-8.8.477-18.077.6-22.328.276-8.98.15-19.24-.937-25.793-1.163-6.988-4.5-12.562-10.236-15.266a52.567,52.567,0,0,0-11.961-3.548c-4.16-.737-8.3-3.172-13.449-5.791q-1.67-.866-3.507-1.724H294.974c-1.213.569-2.369,1.138-3.481,1.708-5.155,2.628-9.306,5.072-13.482,5.808a52.351,52.351,0,0,0-11.951,3.548c-5.733,2.7-9.072,8.277-10.236,15.266-1.088,6.553-1.213,16.813-.944,25.793.134,4.249.41,13.524.6,22.328.193,8.656.31,16.855.109,19.349-.393,5.036-2.008,9.716-5.206,15.784a55.482,55.482,0,0,0-5.072,17.977c-.352,3.272-1.272,13.047-1.682,18h23.8c3.523-10.068,8.838-25.141,10.23-34.773.142-1.023.327-2.687.519-4.745.645-6.938,1.389-18.437,1.314-25.374-.017-1.724.142-4.407.142-7.34,0-1.322,0-2.326.009-3.1,0-.678.009-1.172.017-1.531.276.493.569.988.9,1.456a.564.564,0,0,0,.058.092c.058.142.109.293.168.452.343.887.745,1.983,1.188,3.247,3.189,9.08,8.4,26.748,6.009,39.652-2.477,13.357-8.862,20.052-14.311,31.961H382.74c-5.448-11.909-11.834-18.6-14.311-31.961-2.469-13.315,3.155-31.693,6.3-40.489q.551-1.531.979-2.636v-.009c.025-.079.058-.15.083-.217a15.647,15.647,0,0,0,.944-1.548c.017.762.034,2.143.034,4.628,0,2.929.15,5.616.134,7.34C376.833,249.016,377.584,260.515,378.229,267.453Z" transform="translate(-243.631 -66.972)" fill="#fff" stroke="#3b1f10" stroke-linecap="round" stroke-linejoin="round" stroke-width="1.942"/>
      <path id="Trazado_11907" data-name="Trazado 11907" d="M368.252,319.284s-6.176,1.64-8.674,6.815c-1.755,3.637.008-3.116,2.5-4.85C363.782,320.063,368.252,319.284,368.252,319.284Z" transform="translate(-261.807 -92.722)" fill="#3b1f10"/>
      <path id="Trazado_11908" data-name="Trazado 11908" d="M386.938,246.689s-3.647-.462-5.029-1.462c-3.139-2.271-3.088-3.955-3.088-3.955a5.272,5.272,0,0,0,2.105,4.686,5.7,5.7,0,0,0,6.012.731Z" transform="translate(-265.059 -79.998)" fill="#3b1f10"/>
      <path id="Trazado_11909" data-name="Trazado 11909" d="M352.386,260.286a86.431,86.431,0,0,0-3.205,10.681c-1.1,5.122-.453,17.852-.453,17.852s-2.478-6.264-.3-18.808C349.232,265.389,352.386,260.286,352.386,260.286Z" transform="translate(-259.958 -83.099)" fill="#3b1f10"/>
      <path id="Trazado_11910" data-name="Trazado 11910" d="M350.426,305.3a13.332,13.332,0,0,0,.213,4.225,22.936,22.936,0,0,0,1.375,3.462s-1.383-.463-2.2-3.257C349.524,308.745,350.426,305.3,350.426,305.3Z" transform="translate(-260.321 -90.441)" fill="#3b1f10"/>
      <path id="Trazado_11911" data-name="Trazado 11911" d="M430.41,291.523a17.232,17.232,0,0,1-2.211,3.529,22.9,22.9,0,0,1-3.213,2.355s1.054,3.017,1.317,4.176a30.335,30.335,0,0,1,.42,3.318s-1.486-3.917-1.859-4.689c-.651-1.338-1.457-2.631-1.089-3.157s2.552-1.4,3.73-2.533C428.284,293.768,430.41,291.523,430.41,291.523Z" transform="translate(-272.379 -88.194)" fill="#3b1f10"/>
      <path id="Trazado_11912" data-name="Trazado 11912" d="M317.808,319.284s6.174,1.64,8.673,6.815c1.755,3.637-.005-3.116-2.5-4.85C322.277,320.063,317.808,319.284,317.808,319.284Z" transform="translate(-255.111 -92.722)" fill="#3b1f10"/>
      <path id="Trazado_11913" data-name="Trazado 11913" d="M299.365,246.689s3.647-.462,5.029-1.462c3.138-2.271,3.087-3.955,3.087-3.955a5.272,5.272,0,0,1-2.1,4.686,5.7,5.7,0,0,1-6.012.731Z" transform="translate(-252.102 -79.998)" fill="#3b1f10"/>
      <path id="Trazado_11914" data-name="Trazado 11914" d="M334.557,260.286a86.452,86.452,0,0,1,3.207,10.681c1.1,5.122.452,17.852.452,17.852s2.479-6.264.3-18.808C337.709,265.389,334.557,260.286,334.557,260.286Z" transform="translate(-257.842 -83.099)" fill="#3b1f10"/>
      <path id="Trazado_11915" data-name="Trazado 11915" d="M337.021,305.3a13.315,13.315,0,0,1-.212,4.225,22.9,22.9,0,0,1-1.376,3.462s1.383-.463,2.2-3.257C337.925,308.745,337.021,305.3,337.021,305.3Z" transform="translate(-257.985 -90.441)" fill="#3b1f10"/>
      <path id="Trazado_11916" data-name="Trazado 11916" d="M256.166,291.523a17.169,17.169,0,0,0,2.212,3.529,22.839,22.839,0,0,0,3.214,2.355s-1.055,3.017-1.318,4.176a30.045,30.045,0,0,0-.422,3.318s1.487-3.917,1.861-4.689c.651-1.338,1.456-2.631,1.088-3.157s-2.552-1.4-3.731-2.533C258.293,293.768,256.166,291.523,256.166,291.523Z" transform="translate(-245.056 -88.194)" fill="#3b1f10"/>
      <path id="Trazado_11917" data-name="Trazado 11917" d="M274.16,215.455a82.839,82.839,0,0,1,6.21,11.636,69.524,69.524,0,0,1,3.178,13.4l1.955-.146s-2.979-11.136-4.6-14.863C279,221.078,274.16,215.455,274.16,215.455Z" transform="translate(-247.991 -75.787)" fill="#3b1f10"/>
      <path id="Trazado_11921" data-name="Trazado 11921" d="M324.987,178.808s-2.051,14.8-2.96,24.133-.683,16.848-.227,19.353a11.047,11.047,0,0,0,1.594,4.1s-1.512-7.734-.274-20.806C323.486,201.708,324.987,178.808,324.987,178.808Z" transform="translate(-255.696 -69.81)" fill="#fff"/>
      <path id="Trazado_11849" data-name="Trazado 11849" d="M3448.115,2323.06s-13.812-16.512-13.9-38.178,15.967-36.03,15.967-36.03l9.093-8.692s22.978-3.709,26.309,10.06,16.046,19.17,16.046,19.17-7.676,38.658-11.161,53.668S3448.115,2323.06,3448.115,2323.06Z" transform="translate(-3384.643 -2230.7)" fill="#fff"/>
      <g id="head_back" data-name="head back" transform="translate(48.012 0)">
        <g id="Grupo_7563" data-name="Grupo 7563" transform="translate(45.013 79.603)">
          <path id="Trazado_11681" data-name="Trazado 11681" d="M341.541,140.965c1.619,4.722,5.8,8.053,9.454,11.2.141.121-.085.708-.018.755-3.881-2.856-8.049-6.584-9.469-11.35-.05-.169.063-.513.032-.6Z" transform="translate(-341.494 -140.964)" stroke="#3b1f10" stroke-width="1"/>
        </g>
        <g id="Grupo_7564" data-name="Grupo 7564" transform="translate(12.201 79.604)">
          <path id="Trazado_11682" data-name="Trazado 11682" d="M306.4,141.568c-1.433,4.762-5.594,8.488-9.473,11.35.075-.056-.127-.63.018-.755,3.66-3.136,7.846-6.474,9.451-11.2-.031.1.055.432,0,.6Z" transform="translate(-296.893 -140.965)" stroke="#3b1f10" stroke-width="1"/>
        </g>
        <path id="Trazado_11683" data-name="Trazado 11683" d="M308.752,138.168h-.376a57.885,57.885,0,0,0,1.369,6.674c-.024-.085.079-.445.046-.615C309.384,142.206,309.042,140.189,308.752,138.168Z" transform="translate(-287.548 -60.787)" stroke="#3b1f10" stroke-width="1"/>
        <path id="Trazado_11684" data-name="Trazado 11684" d="M341.4,137.335q-.463,3.364-1.151,6.721a1.984,1.984,0,0,0,.026.58,61.468,61.468,0,0,0,1.449-7.3Z" transform="translate(-295.768 -60.616)" stroke="#3b1f10" stroke-width="1"/>
        <g id="Grupo_7565" data-name="Grupo 7565" transform="translate(10.919 7.478)">
          <path id="Trazado_11685" data-name="Trazado 11685" d="M302.784,50.356c1.8,11.089-1.751,17.019-8.71,24.452-.079.083.053.368.009.411,3.4-3.416,6.439-6.763,8.121-11.375,1.586-4.345,1.346-9.133.59-13.614-.011-.067-.015.1-.011.122Z" transform="translate(-294.048 -50.214)" stroke="#3b1f10" stroke-width="1"/>
        </g>
        <g id="Grupo_7566" data-name="Grupo 7566" transform="translate(3.571 4.454)">
          <path id="Trazado_11686" data-name="Trazado 11686" d="M302.737,46.409c-1.895,3.407-5.115,5.6-7.987,8.117a28.085,28.085,0,0,0-5.951,7.532c-3.109,5.541-3.918,12.126-3.994,18.374-.073,6.1,1.549,12.06,3.318,17.848,2.493,8.153,4.774,16.8,9.46,24.008-.065-.1.178-.866.01-1.137-3.148-5.036-5.1-10.545-6.925-16.16-3.1-9.534-6.394-18.729-5.494-29.043a32.155,32.155,0,0,1,7.115-17.863c3.261-3.935,8.149-6.3,10.482-11,.083-.168-.079-.6-.035-.673Z" transform="translate(-284.803 -46.409)" stroke="#3b1f10" stroke-width="1"/>
        </g>
        <g id="Grupo_7567" data-name="Grupo 7567" transform="translate(4.596 32.06)">
          <path id="Trazado_11687" data-name="Trazado 11687" d="M292.441,81.144c-5.458,5.541-6.593,15.458-6.308,22.934.386,10.088,4.318,19.962,7.948,29.239-.023-.059.046-.3,0-.412-2.766-7.419-5.575-14.863-7.11-22.654-1.712-8.692-1.034-21.646,5.483-28.673.079-.087-.061-.385-.011-.434Z" transform="translate(-286.093 -81.144)" stroke="#3b1f10" stroke-width="1"/>
        </g>
        <g id="Grupo_7568" data-name="Grupo 7568" transform="translate(7.932 29.282)">
          <path id="Trazado_11688" data-name="Trazado 11688" d="M295.758,77.649c-2.82,7.593-5.762,14.615-5.446,22.892a89.4,89.4,0,0,0,3.013,18.039c1.863,7.555,3.514,14.768,7.876,21.345-.074-.113.209-1.023.013-1.333a54.926,54.926,0,0,1-6.6-16.064c-2.027-7.984-4.356-16.109-4.161-24.414.157-6.917,3.082-13.166,5.351-19.581.087-.246-.1-.753-.048-.883Z" transform="translate(-290.289 -77.649)" stroke="#3b1f10" stroke-width="1"/>
        </g>
        <g id="Grupo_7569" data-name="Grupo 7569" transform="translate(17.746 0)">
          <path id="Trazado_11689" data-name="Trazado 11689" d="M306.651,47.518c1.676-4.837,7.185-4.894,11.489-5.533a26.633,26.633,0,0,1,14.2,1.84c8.814,3.69,14.173,12.638,17.606,21.1-.053-.13.079-.551,0-.764-3.43-8.854-8.714-17.262-17.627-21.353-4.808-2.2-10.219-2.336-15.364-1.583-4.073.6-8.788.9-10.342,5.369-.09.261.1.764.042.928Z" transform="translate(-306.587 -40.805)" stroke="#3b1f10" stroke-width="1"/>
        </g>
        <g id="Grupo_7570" data-name="Grupo 7570" transform="translate(50.718 8.823)">
          <path id="Trazado_11690" data-name="Trazado 11690" d="M350.391,51.991c5.57,8.2,12.532,15.33,15.259,25.079,3.437,12.285.061,25.54-3.8,37.318-.046.142.054.419.025.5,3.388-10.044,5.759-20.46,5-31.108-.93-13.068-9.144-21.773-16.487-31.875.011.016-.013.065,0,.085Z" transform="translate(-350.385 -51.906)" stroke="#3b1f10" stroke-width="1"/>
        </g>
        <g id="Grupo_7571" data-name="Grupo 7571" transform="translate(55.46 23.401)">
          <path id="Trazado_11691" data-name="Trazado 11691" d="M360.068,70.451c8.918,21.6,5.723,46.174-3.7,67.016-.065.142.061.482.029.546,9.911-20.436,12.629-46.467,3.669-67.764.015.033-.021.146,0,.2Z" transform="translate(-356.351 -70.25)" stroke="#3b1f10" stroke-width="1"/>
        </g>
        <g id="Grupo_7572" data-name="Grupo 7572" transform="translate(55.382 14.912)">
          <path id="Trazado_11692" data-name="Trazado 11692" d="M356.29,60.19c2.6,3.728,5.988,6.838,8.941,10.28,6.044,7.042,7.388,16.049,6.934,25.134-.677,13.547-6.469,24.359-15.817,34.027-.22.227.157,1.1.029,1.211,11.287-10.119,15.9-23.765,16-38.591a40.362,40.362,0,0,0-3.3-16.99c-2.815-6.225-8.892-10.247-12.806-15.693.087.121-.09.472.016.621Z" transform="translate(-356.253 -59.568)" stroke="#3b1f10" stroke-width="1"/>
        </g>
        <g id="Grupo_7573" data-name="Grupo 7573" transform="translate(0 19.908)">
          <path id="Trazado_11693" data-name="Trazado 11693" d="M288.109,65.854c-2.138,4.975-4.937,9.63-6.476,14.849a35.476,35.476,0,0,0-1.2,12.584c1.023,13.167,7.937,24.473,15.434,34.994-.079-.108.187-.906,0-1.168-5.614-8.027-10.938-16.289-13.807-25.732A36.1,36.1,0,0,1,283.135,77.5c1.5-3.758,3.541-7.266,5-11.046.063-.162-.067-.508-.028-.6Z" transform="translate(-280.31 -65.854)" stroke="#3b1f10" stroke-width="1"/>
        </g>
        <g id="Grupo_7574" data-name="Grupo 7574" transform="translate(18.167 6.076)">
          <path id="Trazado_11694" data-name="Trazado 11694" d="M306.338,49.111c11.295,2.385,21.109,7.956,27.332,17.876,4.977,7.935,6.779,17.453,7.847,26.615.024.212.035-.315.026-.386-1.034-9.09-2.857-18.128-7.439-26.157-5.922-10.378-16.354-16.2-27.779-18.608.013,0-.068.641.016.659Z" transform="translate(-306.303 -48.451)" stroke="#3b1f10" stroke-width="1"/>
        </g>
        <g id="Grupo_7575" data-name="Grupo 7575" transform="translate(20.511 6.08)">
          <path id="Trazado_11695" data-name="Trazado 11695" d="M309.826,49.993c2.346-1.977,6.3-.607,8.963.021a34.94,34.94,0,0,1,8.984,3.541,31.977,31.977,0,0,1,12.371,13.2c9.057,17.025,6.513,38.9,3.784,57.179a1.576,1.576,0,0,0,.032.393c2.587-16.694,4.165-34.848-.972-51.242a36.239,36.239,0,0,0-11.455-17.518,31.7,31.7,0,0,0-9.546-5.128c-3.117-1.1-9.431-3.4-12.17-.76-.057.054.047.286.008.315Z" transform="translate(-309.801 -48.455)" stroke="#3b1f10" stroke-width="1"/>
        </g>
        <g id="Grupo_7576" data-name="Grupo 7576" transform="translate(3.979 8.296)">
          <path id="Trazado_11696" data-name="Trazado 11696" d="M300.667,51.244c-.922,4.145-4.34,8.022-6.532,11.587A74.655,74.655,0,0,0,287.6,75.875a39.556,39.556,0,0,0-1.662,20.269,2.084,2.084,0,0,0,.028-.507c-1.593-10.3.958-18.955,5.683-27.8,2.754-5.147,7.858-10.545,9.026-16.334.016-.079-.027-.216-.017-.261Z" transform="translate(-285.316 -51.244)" stroke="#3b1f10" stroke-width="1"/>
        </g>
        <g id="Grupo_7577" data-name="Grupo 7577" transform="translate(17.333 2.253)">
          <path id="Trazado_11697" data-name="Trazado 11697" d="M308.389,48.336c10.73-8.184,29.982-3.967,36.132,7.889,3.8,7.327,5.641,16.235,7.271,24.229a84.981,84.981,0,0,1,1.617,24.8c-.508,5.452-1.636,10.835-2.324,16.266a1.941,1.941,0,0,0,.042.461c1.313-9.582,3.049-18.8,2.5-28.51-.577-10.271-3.08-20.4-6.167-30.175-2.439-7.712-5.666-14.357-13.65-17.364-7.905-2.978-18.8-3.826-25.426,2.267-.025.023.017.129,0,.14Z" transform="translate(-308.379 -43.64)" stroke="#3b1f10" stroke-width="1"/>
        </g>
        <g id="Grupo_7578" data-name="Grupo 7578" transform="translate(49.751 50.812)">
          <path id="Trazado_11698" data-name="Trazado 11698" d="M347.69,132.057c-.245.787.551-.98.649-1.218.294-.708.556-1.424.8-2.148a29.038,29.038,0,0,0,1.231-5.837c.726-5.952.192-12.077-.374-18.015-.028-.3-.045.167-.037.247.91,9.695.936,18.222-2.476,27.262-.015.042-.028.4.017.407l.1.007a.034.034,0,0,0,.009-.027q.048-.25.093-.5c.008-.048-.02-.157-.012-.177Z" transform="translate(-347.47 -104.739)" stroke="#3b1f10" stroke-width="1"/>
        </g>
        <g id="Grupo_7580" data-name="Grupo 7580" transform="translate(17.699 6.958)">
          <path id="Trazado_11700" data-name="Trazado 11700" d="M305.418,50.26a29.682,29.682,0,0,1,5.458,4.273c2.256,1.948,4.726,3.514,6.88,5.616,4.727,4.615,8.114,10.569,11.111,16.393,3.1,6.016,5.89,12.1,7.184,18.778,1.214,6.262,2.181,17.741-2.477,23.148-.253.294.131,1.391.1,1.435,3-3.8,3.032-9.239,3.19-13.86A49.226,49.226,0,0,0,334,87.069a100.029,100.029,0,0,0-11.985-22.624,44.059,44.059,0,0,0-7.155-7.712c-2.818-2.423-6.151-5.5-9.465-7.173.046.023-.12.63.017.7Z" transform="translate(-305.361 -49.56)" stroke="#3b1f10" stroke-width="1"/>
        </g>
        <g id="Grupo_7581" data-name="Grupo 7581" transform="translate(15.747 6.514)">
          <path id="Trazado_11701" data-name="Trazado 11701" d="M309.533,118.879c-2.013-5.84-4.155-11.623-5.737-17.6-2.694-10.188-2.071-20.093.411-30.2,1.481-6.031,5.084-16.237.8-22.081.075.1-.172.926,0,1.2,3.839,6.254-.014,16.132-1.57,22.742a56.7,56.7,0,0,0-1.76,14.906c.385,11.048,3.978,21.463,7.83,31.728-.028-.079.089-.508.025-.7Z" transform="translate(-301.671 -49.001)" stroke="#3b1f10" stroke-width="1"/>
        </g>
        <g id="Grupo_7582" data-name="Grupo 7582" transform="translate(19.171 7.859)">
          <path id="Trazado_11702" data-name="Trazado 11702" d="M306.735,51.722c5.644,7.466,9.472,16.8,13.01,25.418a59.619,59.619,0,0,1,4.919,22.9c-.02,5.651-.228,11.3-.288,16.951-.009.744.225,1.225.221.182-.042-11.781,1-22.985-2.417-34.415a118.338,118.338,0,0,0-6.951-16.833c-2.5-5.253-4.864-10.631-8.487-15.231.061.079-.172.813-.006,1.032Z" transform="translate(-306.675 -50.693)" stroke="#3b1f10" stroke-width="1"/>
        </g>
        <g id="Grupo_7583" data-name="Grupo 7583" transform="translate(29.828 28.629)">
          <path id="Trazado_11703" data-name="Trazado 11703" d="M323.382,122.369c-4.1-10.425-1.023-22.1-.63-32.982.152-4.161.138-8.92-2.137-12.559.05.079-.14.683-.009.9,4.4,7.326,1.372,19.724.7,27.9-.486,5.932-.226,11.8,2.046,17.369-.024-.061.09-.46.025-.626Z" transform="translate(-320.56 -76.827)" stroke="#3b1f10" stroke-width="1"/>
        </g>
        <g id="Grupo_7584" data-name="Grupo 7584" transform="translate(18.244 23.464)">
          <path id="Trazado_11704" data-name="Trazado 11704" d="M306.053,70.329c-3.685,18.335,4.97,35.087,10.5,52.086.05.153.135-.829.064-1.061-5.061-16.491-14.022-32.222-10.481-50.089a3,3,0,0,0-.087-.936Z" transform="translate(-305.167 -70.329)" stroke="#3b1f10" stroke-width="1"/>
        </g>
      </g>
    </g>
    <path id="Trazado_11928" data-name="Trazado 11928" d="M6292.083,723.061h-95.25" transform="translate(-5658.583 4820.669)" fill="none" stroke="#ea3065" stroke-width="2" stroke-dasharray="3"/>
    <path id="Trazado_13405" data-name="Trazado 13405" d="M0,0H193V3.027H0Z" transform="translate(490 5618.203)" fill="#895cd8"/>
  </g>
</svg>
