<svg xmlns="http://www.w3.org/2000/svg" width="226" height="116" viewBox="0 0 226 116">
  <g id="Grupo_53652" data-name="Grupo 53652" transform="translate(-383 -757)">
    <rect id="Rectángulo_4974" data-name="Rectángulo 4974" width="226" height="116" transform="translate(383 757)" fill="#fffae9"/>
    <line id="Línea_143" data-name="Línea 143" x2="159" transform="translate(417 841)" fill="none" stroke="#895cd8" stroke-linecap="round" stroke-width="5"/>
    <line id="Línea_144" data-name="Línea 144" y1="73" transform="translate(493.5 768)" fill="none" stroke="#895cd8" stroke-linecap="round" stroke-width="5"/>
    <path id="Trazado_100271" data-name="Trazado 100271" d="M3.885-2.425l.209.768h.038l.209-.768L6.729-9.242H8.081L4.646,0H3.574L.14-9.242H1.5ZM11.692.133A2.906,2.906,0,0,1,9.385-.812,3.64,3.64,0,0,1,8.557-3.3V-3.58A3.563,3.563,0,0,1,9.41-6.027,2.677,2.677,0,0,1,11.5-7a2.492,2.492,0,0,1,2.066.857,3.53,3.53,0,0,1,.689,2.279v.66H9.858l-.019.032A2.839,2.839,0,0,0,10.3-1.489a1.6,1.6,0,0,0,1.4.644,3.146,3.146,0,0,0,1.114-.181,2.487,2.487,0,0,0,.822-.5l.489.813a3.006,3.006,0,0,1-.971.6A3.869,3.869,0,0,1,11.692.133Zm-.2-6.145a1.359,1.359,0,0,0-1.082.5A2.387,2.387,0,0,0,9.89-4.215l.013.032H13v-.1a2,2,0,0,0-.368-1.238A1.331,1.331,0,0,0,11.5-6.011Zm7.408.248L18.262-5.8a1.432,1.432,0,0,0-.835.235,1.507,1.507,0,0,0-.524.66V0h-1.25V-6.868h1.117l.121,1a2.384,2.384,0,0,1,.72-.832A1.685,1.685,0,0,1,18.6-7a1.545,1.545,0,0,1,.267.022,1.767,1.767,0,0,1,.209.048Zm3.148-2.761v1.657h1.3v.927h-1.3v4.17a.934.934,0,0,0,.2.679.723.723,0,0,0,.53.2,1.161,1.161,0,0,0,.241-.029,1.789,1.789,0,0,0,.222-.06l.171.857A1.105,1.105,0,0,1,23,.06a2.082,2.082,0,0,1-.54.073,1.619,1.619,0,0,1-1.212-.46A2,2,0,0,1,20.8-1.771v-4.17H19.709v-.927H20.8V-8.525ZM26.044,0h-1.25V-6.868h1.25Zm0-8.626h-1.25V-9.9h1.25ZM30.7-.844a1.471,1.471,0,0,0,1.009-.384,1.213,1.213,0,0,0,.432-.943h1.13l.019.038a1.972,1.972,0,0,1-.762,1.577A2.691,2.691,0,0,1,30.7.133a2.7,2.7,0,0,1-2.234-.984,3.8,3.8,0,0,1-.787-2.45v-.267a3.781,3.781,0,0,1,.79-2.441A2.7,2.7,0,0,1,30.7-7a2.591,2.591,0,0,1,1.882.711,2.254,2.254,0,0,1,.708,1.746l-.013.038H32.138a1.516,1.516,0,0,0-.409-1.07A1.347,1.347,0,0,0,30.7-6.011a1.444,1.444,0,0,0-1.343.714,3.342,3.342,0,0,0-.422,1.73V-3.3a3.406,3.406,0,0,0,.416,1.746A1.443,1.443,0,0,0,30.7-.844Zm8.3.844q-.063-.311-.1-.549a4.03,4.03,0,0,1-.041-.479,2.916,2.916,0,0,1-.911.828,2.329,2.329,0,0,1-1.209.333A2.245,2.245,0,0,1,35.1-.416a2.02,2.02,0,0,1-.562-1.514,1.774,1.774,0,0,1,.8-1.539A3.72,3.72,0,0,1,37.5-4.024h1.358V-4.7a1.26,1.26,0,0,0-.368-.955,1.446,1.446,0,0,0-1.041-.352,1.51,1.51,0,0,0-.984.3.914.914,0,0,0-.375.73L34.9-4.964,34.887-5a1.644,1.644,0,0,1,.7-1.371A2.907,2.907,0,0,1,37.515-7a2.836,2.836,0,0,1,1.879.594A2.1,2.1,0,0,1,40.1-4.691v3.307a6.437,6.437,0,0,0,.038.711,3.656,3.656,0,0,0,.14.673ZM36.918-.914a2.226,2.226,0,0,0,1.225-.349,1.659,1.659,0,0,0,.711-.8V-3.18h-1.4a1.82,1.82,0,0,0-1.209.381,1.139,1.139,0,0,0-.454.9.942.942,0,0,0,.286.724A1.2,1.2,0,0,0,36.918-.914ZM43.272,0h-1.25V-9.9h1.25Zm4.767.133a2.906,2.906,0,0,1-2.307-.946A3.64,3.64,0,0,1,44.9-3.3V-3.58a3.563,3.563,0,0,1,.854-2.447A2.677,2.677,0,0,1,47.842-7a2.492,2.492,0,0,1,2.066.857A3.53,3.53,0,0,1,50.6-3.859v.66H46.2l-.019.032a2.839,2.839,0,0,0,.457,1.679,1.6,1.6,0,0,0,1.4.644,3.146,3.146,0,0,0,1.114-.181,2.487,2.487,0,0,0,.822-.5l.489.813a3.006,3.006,0,0,1-.971.6A3.869,3.869,0,0,1,48.039.133Zm-.2-6.145a1.359,1.359,0,0,0-1.082.5,2.387,2.387,0,0,0-.524,1.292l.013.032h3.1v-.1a2,2,0,0,0-.368-1.238A1.331,1.331,0,0,0,47.842-6.011Zm8.15,4.164a.833.833,0,0,0-.314-.673,3.033,3.033,0,0,0-1.19-.457,4.994,4.994,0,0,1-1.863-.73,1.474,1.474,0,0,1-.651-1.257A1.811,1.811,0,0,1,52.689-6.4a2.789,2.789,0,0,1,1.85-.6,2.764,2.764,0,0,1,1.892.635,1.819,1.819,0,0,1,.692,1.479l-.013.038H55.917a1.081,1.081,0,0,0-.39-.806,1.4,1.4,0,0,0-.987-.362,1.423,1.423,0,0,0-.987.3A.931.931,0,0,0,53.225-5a.753.753,0,0,0,.282.628,3.127,3.127,0,0,0,1.165.406,4.922,4.922,0,0,1,1.917.755,1.521,1.521,0,0,1,.654,1.276A1.808,1.808,0,0,1,56.5-.444a3.05,3.05,0,0,1-1.933.578A3.018,3.018,0,0,1,52.5-.533a1.9,1.9,0,0,1-.717-1.555l.013-.038H52.99a1.157,1.157,0,0,0,.5.974,1.916,1.916,0,0,0,1.085.308,1.71,1.71,0,0,0,1.044-.282A.864.864,0,0,0,55.993-1.847Z" transform="translate(427.5 783.5)" fill="#12263f"/>
    <path id="Trazado_100272" data-name="Trazado 100272" d="M8.068,0H6.817V-4.082H2.33V0H1.079V-9.242H2.33v4.177H6.817V-9.242h1.25ZM9.763-3.5a3.781,3.781,0,0,1,.825-2.51A2.767,2.767,0,0,1,12.829-7a2.794,2.794,0,0,1,2.257.984A3.769,3.769,0,0,1,15.914-3.5v.14a3.763,3.763,0,0,1-.825,2.514,2.786,2.786,0,0,1-2.247.978,2.791,2.791,0,0,1-2.25-.981,3.756,3.756,0,0,1-.828-2.51Zm1.25.14a3.258,3.258,0,0,0,.46,1.8,1.523,1.523,0,0,0,1.368.711A1.519,1.519,0,0,0,14.2-1.555a3.24,3.24,0,0,0,.463-1.8V-3.5a3.231,3.231,0,0,0-.467-1.8,1.529,1.529,0,0,0-1.368-.717,1.508,1.508,0,0,0-1.355.717,3.265,3.265,0,0,0-.46,1.8Zm9.68-2.406L20.052-5.8a1.432,1.432,0,0,0-.835.235,1.507,1.507,0,0,0-.524.66V0h-1.25V-6.868h1.117l.121,1A2.384,2.384,0,0,1,19.4-6.7a1.685,1.685,0,0,1,.987-.3,1.545,1.545,0,0,1,.267.022,1.767,1.767,0,0,1,.209.048ZM23.347,0H22.1V-6.868h1.25Zm0-8.626H22.1V-9.9h1.25Zm3.1,7.649h3.967V0H24.959V-.876l3.713-5H25v-.99h5.2v.851ZM31.415-3.5a3.781,3.781,0,0,1,.825-2.51A2.767,2.767,0,0,1,34.48-7a2.794,2.794,0,0,1,2.257.984A3.769,3.769,0,0,1,37.565-3.5v.14A3.763,3.763,0,0,1,36.74-.844a2.786,2.786,0,0,1-2.247.978,2.791,2.791,0,0,1-2.25-.981,3.756,3.756,0,0,1-.828-2.51Zm1.25.14a3.258,3.258,0,0,0,.46,1.8,1.523,1.523,0,0,0,1.368.711,1.519,1.519,0,0,0,1.358-.711,3.24,3.24,0,0,0,.463-1.8V-3.5a3.231,3.231,0,0,0-.467-1.8,1.529,1.529,0,0,0-1.368-.717,1.508,1.508,0,0,0-1.355.717,3.265,3.265,0,0,0-.46,1.8Zm7.547-3.51L40.3-5.846a2.494,2.494,0,0,1,.86-.847A2.3,2.3,0,0,1,42.339-7a2.242,2.242,0,0,1,1.72.651,2.856,2.856,0,0,1,.609,2.009V0h-1.25V-4.31A1.858,1.858,0,0,0,43.059-5.6a1.437,1.437,0,0,0-1.095-.381,1.939,1.939,0,0,0-.981.232,1.684,1.684,0,0,0-.638.651V0H39.1V-6.868Zm8.011-1.657v1.657h1.3v.927h-1.3v4.17a.934.934,0,0,0,.2.679.723.723,0,0,0,.53.2,1.161,1.161,0,0,0,.241-.029,1.789,1.789,0,0,0,.222-.06l.171.857a1.105,1.105,0,0,1-.413.187,2.082,2.082,0,0,1-.54.073,1.619,1.619,0,0,1-1.212-.46,2,2,0,0,1-.451-1.444v-4.17H45.881v-.927h1.092V-8.525ZM55.085,0q-.063-.311-.1-.549a4.03,4.03,0,0,1-.041-.479,2.916,2.916,0,0,1-.911.828,2.329,2.329,0,0,1-1.209.333,2.245,2.245,0,0,1-1.635-.549,2.02,2.02,0,0,1-.562-1.514,1.774,1.774,0,0,1,.8-1.539,3.72,3.72,0,0,1,2.161-.555h1.358V-4.7a1.26,1.26,0,0,0-.368-.955,1.446,1.446,0,0,0-1.041-.352,1.51,1.51,0,0,0-.984.3.914.914,0,0,0-.375.73l-1.187.013L50.978-5a1.644,1.644,0,0,1,.7-1.371A2.907,2.907,0,0,1,53.606-7a2.836,2.836,0,0,1,1.879.594A2.1,2.1,0,0,1,56.2-4.691v3.307a6.437,6.437,0,0,0,.038.711,3.656,3.656,0,0,0,.14.673ZM53.009-.914a2.226,2.226,0,0,0,1.225-.349,1.659,1.659,0,0,0,.711-.8V-3.18h-1.4a1.82,1.82,0,0,0-1.209.381,1.139,1.139,0,0,0-.454.9.942.942,0,0,0,.286.724A1.2,1.2,0,0,0,53.009-.914ZM59.363,0h-1.25V-9.9h1.25ZM64.13.133a2.906,2.906,0,0,1-2.307-.946A3.64,3.64,0,0,1,60.995-3.3V-3.58a3.563,3.563,0,0,1,.854-2.447A2.677,2.677,0,0,1,63.934-7,2.492,2.492,0,0,1,66-6.138a3.53,3.53,0,0,1,.689,2.279v.66H62.3l-.019.032a2.839,2.839,0,0,0,.457,1.679,1.6,1.6,0,0,0,1.4.644,3.146,3.146,0,0,0,1.114-.181,2.487,2.487,0,0,0,.822-.5l.489.813a3.006,3.006,0,0,1-.971.6A3.869,3.869,0,0,1,64.13.133Zm-.2-6.145a1.359,1.359,0,0,0-1.082.5,2.387,2.387,0,0,0-.524,1.292l.013.032h3.1v-.1a2,2,0,0,0-.368-1.238A1.331,1.331,0,0,0,63.934-6.011Zm8.15,4.164a.833.833,0,0,0-.314-.673,3.033,3.033,0,0,0-1.19-.457,4.994,4.994,0,0,1-1.863-.73,1.474,1.474,0,0,1-.651-1.257A1.811,1.811,0,0,1,68.78-6.4,2.789,2.789,0,0,1,70.63-7a2.764,2.764,0,0,1,1.892.635,1.819,1.819,0,0,1,.692,1.479l-.013.038H72.008a1.081,1.081,0,0,0-.39-.806,1.4,1.4,0,0,0-.987-.362,1.423,1.423,0,0,0-.987.3A.931.931,0,0,0,69.316-5a.753.753,0,0,0,.282.628,3.127,3.127,0,0,0,1.165.406,4.922,4.922,0,0,1,1.917.755,1.521,1.521,0,0,1,.654,1.276,1.808,1.808,0,0,1-.74,1.492,3.05,3.05,0,0,1-1.933.578,3.018,3.018,0,0,1-2.069-.667,1.9,1.9,0,0,1-.717-1.555l.013-.038h1.193a1.157,1.157,0,0,0,.5.974,1.916,1.916,0,0,0,1.085.308,1.71,1.71,0,0,0,1.044-.282A.864.864,0,0,0,72.084-1.847Z" transform="translate(456.5 859.5)" fill="#12263f"/>
  </g>
</svg>
