<svg xmlns="http://www.w3.org/2000/svg" width="628" height="472" viewBox="0 0 628 472">
  <g id="Grupo_53649" data-name="Grupo 53649" transform="translate(-139 -1663)">
    <g id="Grupo_20632" data-name="Grupo 20632" transform="translate(139 1663)">
      <g id="BACKGROUND" transform="translate(0)">
        <rect id="Rectángulo_577" data-name="Rectángulo 577" width="628" height="472" transform="translate(0)" fill="#fcf6ff"/>
      </g>
    </g>
    <path id="Trazado_100262" data-name="Trazado 100262" d="M116,0A116,116,0,1,1,0,116,116,116,0,0,1,116,0Z" transform="translate(200 1795)" fill="#fff"/>
    <path id="Trazado_100266" data-name="Trazado 100266" d="M0,0H263V67H0Z" transform="translate(465 1878)" fill="#fff"/>
    <path id="Trazado_100267" data-name="Trazado 100267" d="M0,0H66V67H0Z" transform="translate(465 1878)" fill="#895cd8"/>
    <path id="Trazado_98675" data-name="Trazado 98675" d="M116,0V116H0A116,116,0,0,1,116,0Z" transform="translate(200 1795)" fill="#895cd8"/>
    <path id="Trazado_100264" data-name="Trazado 100264" d="M9.832,0H5.871V-13.676H2.438V-16.7l7.395-.609Zm7.723,1.465h-4l5.824-18.527h4ZM34.945-6.668h1.723V-3.6H34.945V0H30.984V-3.6H24.2l-.234-2.437,7.02-10.992v-.035h3.961Zm-7.582,0h3.621v-5.309l-.07-.012-.434.879Z" transform="translate(253 1876)" fill="#fff"/>
    <path id="Trazado_100265" data-name="Trazado 100265" d="M9.832,0H5.871V-13.676H2.438V-16.7l7.395-.609Zm7.723,1.465h-4l5.824-18.527h4ZM34.945-6.668h1.723V-3.6H34.945V0H30.984V-3.6H24.2l-.234-2.437,7.02-10.992v-.035h3.961Zm-7.582,0h3.621v-5.309l-.07-.012-.434.879Z" transform="translate(343 1876)" fill="#12263f"/>
    <path id="Trazado_100275" data-name="Trazado 100275" d="M9.832,0H5.871V-13.676H2.438V-16.7l7.395-.609Zm7.723,1.465h-4l5.824-18.527h4ZM34.945-6.668h1.723V-3.6H34.945V0H30.984V-3.6H24.2l-.234-2.437,7.02-10.992v-.035h3.961Zm-7.582,0h3.621v-5.309l-.07-.012-.434.879Z" transform="translate(343 1968)" fill="#12263f"/>
    <path id="Trazado_100276" data-name="Trazado 100276" d="M9.832,0H5.871V-13.676H2.438V-16.7l7.395-.609Zm7.723,1.465h-4l5.824-18.527h4ZM34.945-6.668h1.723V-3.6H34.945V0H30.984V-3.6H24.2l-.234-2.437,7.02-10.992v-.035h3.961Zm-7.582,0h3.621v-5.309l-.07-.012-.434.879Z" transform="translate(253 1968)" fill="#12263f"/>
    <path id="Trazado_100270" data-name="Trazado 100270" d="M9.832,0H5.871V-13.676H2.438V-16.7l7.395-.609Zm7.723,1.465h-4l5.824-18.527h4ZM34.945-6.668h1.723V-3.6H34.945V0H30.984V-3.6H24.2l-.234-2.437,7.02-10.992v-.035h3.961Zm-7.582,0h3.621v-5.309l-.07-.012-.434.879Z" transform="translate(543 1916)" fill="#12263f"/>
    <path id="Trazado_100271" data-name="Trazado 100271" d="M9.832,0H5.871V-13.676H2.438V-16.7l7.395-.609Zm7.723,1.465h-4l5.824-18.527h4ZM34.945-6.668h1.723V-3.6H34.945V0H30.984V-3.6H24.2l-.234-2.437,7.02-10.992v-.035h3.961Zm-7.582,0h3.621v-5.309l-.07-.012-.434.879Z" transform="translate(611 1916)" fill="#12263f"/>
    <path id="Trazado_100272" data-name="Trazado 100272" d="M9.832,0H5.871V-13.676H2.438V-16.7l7.395-.609Zm7.723,1.465h-4l5.824-18.527h4ZM34.945-6.668h1.723V-3.6H34.945V0H30.984V-3.6H24.2l-.234-2.437,7.02-10.992v-.035h3.961Zm-7.582,0h3.621v-5.309l-.07-.012-.434.879Z" transform="translate(679 1916)" fill="#12263f"/>
    <path id="Trazado_100273" data-name="Trazado 100273" d="M9.832,0H5.871V-13.676H2.438V-16.7l7.395-.609Zm7.723,1.465h-4l5.824-18.527h4ZM34.945-6.668h1.723V-3.6H34.945V0H30.984V-3.6H24.2l-.234-2.437,7.02-10.992v-.035h3.961Zm-7.582,0h3.621v-5.309l-.07-.012-.434.879Z" transform="translate(482 1916)" fill="#fff"/>
    <path id="Trazado_100263" data-name="Trazado 100263" d="M0,232V0" transform="translate(316.5 1795.5)" fill="none" stroke="#12263f" stroke-width="1"/>
    <path id="Trazado_100274" data-name="Trazado 100274" d="M0,0H232" transform="translate(200.5 1911.5)" fill="none" stroke="#12263f" stroke-width="1"/>
    <path id="Trazado_100268" data-name="Trazado 100268" d="M0,0V67" transform="translate(662.5 1878.5)" fill="none" stroke="#12263f" stroke-width="1"/>
    <path id="Trazado_100269" data-name="Trazado 100269" d="M0,0V67" transform="translate(596.5 1878.5)" fill="none" stroke="#12263f" stroke-width="1"/>
  </g>
</svg>
