<svg xmlns="http://www.w3.org/2000/svg" width="720" height="346.316" viewBox="0 0 720 346.316">
  <g id="Grupo_53663" data-name="Grupo 53663" transform="translate(-471 -2271)">
    <path id="dylan-shaw-UxyWwU6n_ts-unsplash" d="M0,0H720V346.316H0Z" transform="translate(471 2271)" fill="#7b1fa2"/>
    <path id="Trazado_100282" data-name="Trazado 100282" d="M6.773-10.184a2.22,2.22,0,0,0,1.641-.574,2.154,2.154,0,0,0,.574-1.594A1.8,1.8,0,0,0,8.4-13.705a2.2,2.2,0,0,0-1.582-.557,1.907,1.907,0,0,0-1.271.439,1.436,1.436,0,0,0-.521,1.154H1.184l-.023-.07a3.779,3.779,0,0,1,1.6-3.3A6.527,6.527,0,0,1,6.82-17.309a7.157,7.157,0,0,1,4.447,1.271,4.263,4.263,0,0,1,1.67,3.6,3.562,3.562,0,0,1-.7,2.133,4.8,4.8,0,0,1-1.91,1.535,4.47,4.47,0,0,1,2.133,1.518,4.032,4.032,0,0,1,.75,2.467,4.347,4.347,0,0,1-1.8,3.686A7.467,7.467,0,0,1,6.82.246a7.078,7.078,0,0,1-4.2-1.26A4.061,4.061,0,0,1,.9-4.664l.023-.07H4.781a1.836,1.836,0,0,0,.574,1.383A2.03,2.03,0,0,0,6.82-2.8a2.585,2.585,0,0,0,1.752-.592,1.865,1.865,0,0,0,.686-1.471,2.285,2.285,0,0,0-.65-1.811,2.7,2.7,0,0,0-1.834-.568H4.9v-2.941ZM21.9-17.309a8.231,8.231,0,0,1,1.758.17,11.425,11.425,0,0,1,1.723.545l-.668,2.883q-.82-.246-1.418-.369a6.846,6.846,0,0,0-1.371-.123,2.9,2.9,0,0,0-2.332,1.037,4.653,4.653,0,0,0-.879,3.076v.164a4.5,4.5,0,0,1,1.588-1,5.96,5.96,0,0,1,2.115-.352A4,4,0,0,1,25.811-9.68a6.712,6.712,0,0,1,1.2,4.148,5.537,5.537,0,0,1-1.676,4.148,5.913,5.913,0,0,1-4.3,1.629,5.941,5.941,0,0,1-4.541-1.84,7.065,7.065,0,0,1-1.729-5.039v-3.434a7.043,7.043,0,0,1,2-5.309A7.082,7.082,0,0,1,21.9-17.309ZM21.094-8.25a4.14,4.14,0,0,0-1.441.223,2.167,2.167,0,0,0-.937.633v.762a5.458,5.458,0,0,0,.609,2.842,1.908,1.908,0,0,0,1.711.99,1.712,1.712,0,0,0,1.453-.791,3.26,3.26,0,0,0,.563-1.939,3.268,3.268,0,0,0-.539-2A1.692,1.692,0,0,0,21.094-8.25ZM40.688-6.27a6.7,6.7,0,0,1-1.629,4.787,5.634,5.634,0,0,1-4.3,1.729,5.663,5.663,0,0,1-4.324-1.729A6.7,6.7,0,0,1,28.8-6.27v-4.523a6.733,6.733,0,0,1,1.617-4.787,5.625,5.625,0,0,1,4.313-1.729,5.662,5.662,0,0,1,4.313,1.734,6.678,6.678,0,0,1,1.641,4.781Zm-3.949-4.793a4.38,4.38,0,0,0-.533-2.379,1.666,1.666,0,0,0-1.471-.82,1.635,1.635,0,0,0-1.465.82,4.5,4.5,0,0,0-.516,2.379v5.039a4.509,4.509,0,0,0,.521,2.408,1.661,1.661,0,0,0,1.482.814,1.642,1.642,0,0,0,1.459-.814,4.509,4.509,0,0,0,.521-2.408Zm6.422-2.965a3.177,3.177,0,0,1,.967-2.32,3.162,3.162,0,0,1,2.326-.973,3.065,3.065,0,0,1,2.273.973,3.207,3.207,0,0,1,.949,2.32,3.123,3.123,0,0,1-.949,2.3,3.111,3.111,0,0,1-2.273.943,3.211,3.211,0,0,1-2.326-.943A3.1,3.1,0,0,1,43.16-14.027Zm1.816,0a1.378,1.378,0,0,0,.434,1.037,1.453,1.453,0,0,0,1.043.416,1.37,1.37,0,0,0,1.008-.41,1.413,1.413,0,0,0,.41-1.043,1.493,1.493,0,0,0-.41-1.066,1.333,1.333,0,0,0-1.008-.434,1.422,1.422,0,0,0-1.043.434A1.449,1.449,0,0,0,44.977-14.027Z" transform="translate(806 2453)" fill="#fff"/>
    <g id="Grupo_21039" data-name="Grupo 21039" transform="translate(560.999 1864.26)">
      <path id="Trazado_99604" data-name="Trazado 99604" d="M270.5,673.739A94.5,94.5,0,1,1,348.863,526.4" transform="translate(0 0)" fill="none" stroke="#fff" stroke-linecap="round" stroke-linejoin="round" stroke-width="10"/>
      <path id="Trazado_99605" data-name="Trazado 99605" d="M310.349,516.379a94.564,94.564,0,0,1-74.869,131.81" transform="translate(46.692 24.838)" fill="none" stroke="#fff" stroke-linecap="round" stroke-linejoin="round" stroke-width="10" stroke-dasharray="18"/>
      <path id="Trazado_99606" data-name="Trazado 99606" d="M285.413,495.235l-.6,22.928-27.228-.878" transform="translate(64.047 8.24)" fill="none" stroke="#fff" stroke-linecap="round" stroke-linejoin="round" stroke-width="10"/>
    </g>
  </g>
</svg>
