<svg xmlns="http://www.w3.org/2000/svg" width="720" height="346.316" viewBox="0 0 720 346.316">
  <g id="Grupo_53657" data-name="Grupo 53657" transform="translate(-507 -5684)">
    <path id="dylan-shaw-UxyWwU6n_ts-unsplash" d="M0,0H720V346.316H0Z" transform="translate(507 5684)" fill="#7b1fa2"/>
    <g id="Grupo_21014" data-name="Grupo 21014" transform="translate(574.589 5547.021)">
      <path id="Trazado_99591" data-name="Trazado 99591" d="M203.412,207.979V410.944H413.378" transform="translate(0 0)" fill="none" stroke="#fff" stroke-linecap="round" stroke-linejoin="round" stroke-width="10"/>
      <path id="Trazado_99592" data-name="Trazado 99592" d="M203.412,239.907A136.551,136.551,0,0,1,339.963,376.458" transform="translate(0 34.485)" fill="none" stroke="#fff" stroke-miterlimit="10" stroke-width="10"/>
    </g>
    <path id="Trazado_100273" data-name="Trazado 100273" d="M6.422-2.8a2.181,2.181,0,0,0,1.77-.85A3.622,3.622,0,0,0,8.883-6v-.984A3.8,3.8,0,0,1,7.547-5.924a3.787,3.787,0,0,1-1.629.357,4.537,4.537,0,0,1-3.65-1.564,6.271,6.271,0,0,1-1.33-4.2A5.886,5.886,0,0,1,2.6-15.586a5.714,5.714,0,0,1,4.3-1.723,5.556,5.556,0,0,1,4.26,1.8,7,7,0,0,1,1.67,4.951V-6.27A6.32,6.32,0,0,1,11.01-1.535,6.3,6.3,0,0,1,6.422.246,9.018,9.018,0,0,1,4.611.053a10.007,10.007,0,0,1-1.8-.545l.68-2.824a9.074,9.074,0,0,0,1.418.393A8.394,8.394,0,0,0,6.422-2.8Zm.363-5.613A2.752,2.752,0,0,0,8-8.672a2.49,2.49,0,0,0,.885-.7v-1.91A3.722,3.722,0,0,0,8.326-13.5a1.705,1.705,0,0,0-1.436-.762,1.649,1.649,0,0,0-1.465.879,3.843,3.843,0,0,0-.539,2.051,4.047,4.047,0,0,0,.486,2.115A1.556,1.556,0,0,0,6.785-8.414Zm20,2.145A6.7,6.7,0,0,1,25.16-1.482a5.634,5.634,0,0,1-4.3,1.729,5.663,5.663,0,0,1-4.324-1.729A6.7,6.7,0,0,1,14.906-6.27v-4.523a6.733,6.733,0,0,1,1.617-4.787,5.625,5.625,0,0,1,4.313-1.729,5.662,5.662,0,0,1,4.313,1.734,6.678,6.678,0,0,1,1.641,4.781ZM22.84-11.062a4.38,4.38,0,0,0-.533-2.379,1.666,1.666,0,0,0-1.471-.82,1.635,1.635,0,0,0-1.465.82,4.5,4.5,0,0,0-.516,2.379v5.039a4.509,4.509,0,0,0,.521,2.408,1.661,1.661,0,0,0,1.482.814,1.642,1.642,0,0,0,1.459-.814,4.509,4.509,0,0,0,.521-2.408Zm6.422-2.965a3.177,3.177,0,0,1,.967-2.32,3.162,3.162,0,0,1,2.326-.973,3.065,3.065,0,0,1,2.273.973,3.207,3.207,0,0,1,.949,2.32,3.123,3.123,0,0,1-.949,2.3,3.111,3.111,0,0,1-2.273.943,3.211,3.211,0,0,1-2.326-.943A3.1,3.1,0,0,1,29.262-14.027Zm1.816,0a1.378,1.378,0,0,0,.434,1.037,1.453,1.453,0,0,0,1.043.416,1.37,1.37,0,0,0,1.008-.41,1.413,1.413,0,0,0,.41-1.043,1.493,1.493,0,0,0-.41-1.066,1.333,1.333,0,0,0-1.008-.434,1.422,1.422,0,0,0-1.043.434A1.449,1.449,0,0,0,31.078-14.027Z" transform="translate(911 5850.482)" fill="#fff"/>
  </g>
</svg>
