<svg xmlns="http://www.w3.org/2000/svg" width="720" height="346.316" viewBox="0 0 720 346.316">
  <g id="Grupo_53662" data-name="Grupo 53662" transform="translate(-471 -1853.869)">
    <path id="dylan-shaw-UxyWwU6n_ts-unsplash" d="M0,0H720V346.316H0Z" transform="translate(471 1853.869)" fill="#7b1fa2"/>
    <g id="Grupo_21038" data-name="Grupo 21038" transform="translate(595.146 1656.752)">
      <line id="Línea_146" data-name="Línea 146" x2="307.849" transform="translate(82.353 432.233)" fill="none" stroke="#fff" stroke-linecap="round" stroke-linejoin="round" stroke-width="10"/>
      <line id="Línea_147" data-name="Línea 147" x2="119.738" y2="121.911" transform="translate(120.197 308.317)" fill="none" stroke="#fff" stroke-linecap="round" stroke-linejoin="round" stroke-width="10"/>
    </g>
    <path id="Trazado_100278" data-name="Trazado 100278" d="M8.574-2.764H4.346L3.525,0H.049L4.688-14.219H6.455v.01l.01-.01H8.232L12.881,0H9.4ZM5.107-5.3H7.813L6.484-9.717H6.426Z" transform="translate(691.5 1952.439)" fill="#fff"/>
    <path id="Trazado_100279" data-name="Trazado 100279" d="M1.133,0V-14.219H5.791a7.415,7.415,0,0,1,4.126.981A3.279,3.279,0,0,1,11.4-10.312a3.45,3.45,0,0,1-.469,1.8A2.887,2.887,0,0,1,9.463-7.324a2.956,2.956,0,0,1,1.88,1.133,3.337,3.337,0,0,1,.61,1.982,3.708,3.708,0,0,1-1.4,3.145A6.5,6.5,0,0,1,6.553,0Zm3.3-6.1v3.564H6.553a2.529,2.529,0,0,0,1.582-.415,1.522,1.522,0,0,0,.527-1.274A1.878,1.878,0,0,0,8.2-5.605,2.178,2.178,0,0,0,6.67-6.1H4.434Zm0-2.187h1.3A3.088,3.088,0,0,0,7.51-8.706,1.415,1.415,0,0,0,8.1-9.941a1.53,1.53,0,0,0-.566-1.323,2.949,2.949,0,0,0-1.738-.415H4.434Z" transform="translate(846.5 2073.439)" fill="#fff"/>
    <path id="Trazado_100281" data-name="Trazado 100281" d="M12.051-4.795l.02.059A4.57,4.57,0,0,1,10.7-1.05,5.82,5.82,0,0,1,6.7.205,5.694,5.694,0,0,1,2.466-1.406a5.734,5.734,0,0,1-1.6-4.219V-8.594a5.861,5.861,0,0,1,1.538-4.214,5.354,5.354,0,0,1,4.067-1.616,6.268,6.268,0,0,1,4.185,1.26A4.441,4.441,0,0,1,12.1-9.5l-.029.059H8.857A2.613,2.613,0,0,0,8.3-11.318a2.484,2.484,0,0,0-1.826-.566,1.931,1.931,0,0,0-1.709.894,4.225,4.225,0,0,0-.6,2.378v2.988a3.977,3.977,0,0,0,.654,2.393,2.179,2.179,0,0,0,1.875.9A2.088,2.088,0,0,0,8.335-2.9a2.84,2.84,0,0,0,.5-1.895Z" transform="translate(650.5 2095.985)" fill="#fff"/>
    <path id="Trazado_100280" data-name="Trazado 100280" d="M1.133,0V-14.219H6.338a5.8,5.8,0,0,1,4.2,1.636,5.583,5.583,0,0,1,1.689,4.194V-5.83a5.579,5.579,0,0,1-1.689,4.2A5.809,5.809,0,0,1,6.338,0Zm3.3-11.68v9.141h1.9a2.262,2.262,0,0,0,1.851-.918A3.705,3.705,0,0,0,8.916-5.83V-8.408a3.673,3.673,0,0,0-.728-2.354,2.262,2.262,0,0,0-1.851-.918Z" transform="translate(999.5 2095.985)" fill="#fff"/>
  </g>
</svg>
