<svg xmlns="http://www.w3.org/2000/svg" width="720" height="346.316" viewBox="0 0 720 346.316">
  <g id="Grupo_53660" data-name="Grupo 53660" transform="translate(-471 -1019.691)">
    <path id="dylan-shaw-UxyWwU6n_ts-unsplash" d="M0,0H720V346.316H0Z" transform="translate(471 1019.691)" fill="#7b1fa2"/>
    <path id="Trazado_100277" data-name="Trazado 100277" d="M9.832,0H5.871V-13.676H2.438V-16.7l7.395-.609ZM26.543-12.6a3.948,3.948,0,0,1-.621,2.191,4.47,4.47,0,0,1-1.711,1.535,5.207,5.207,0,0,1,2.156,1.646,3.923,3.923,0,0,1,.8,2.42,4.444,4.444,0,0,1-1.711,3.721A6.912,6.912,0,0,1,21.082.246,7.4,7.4,0,0,1,16.529-1.09,4.376,4.376,0,0,1,14.742-4.8a3.849,3.849,0,0,1,.82-2.42,5.318,5.318,0,0,1,2.25-1.646A4.48,4.48,0,0,1,16-10.4a3.845,3.845,0,0,1-.65-2.2,4.149,4.149,0,0,1,1.582-3.486,6.55,6.55,0,0,1,4.125-1.225,6.137,6.137,0,0,1,3.973,1.219A4.226,4.226,0,0,1,26.543-12.6ZM23.2-5.016a2.311,2.311,0,0,0-.615-1.664,2.028,2.028,0,0,0-1.529-.645,2.317,2.317,0,0,0-1.676.645,2.21,2.21,0,0,0-.668,1.664A2.065,2.065,0,0,0,19.383-3.4a2.438,2.438,0,0,0,1.7.6A2.069,2.069,0,0,0,22.6-3.4,2.173,2.173,0,0,0,23.2-5.016Zm-.609-7.371a2.1,2.1,0,0,0-.41-1.383,1.386,1.386,0,0,0-1.125-.492,1.672,1.672,0,0,0-1.271.486,1.936,1.936,0,0,0-.463,1.389,2.161,2.161,0,0,0,.475,1.471,1.615,1.615,0,0,0,1.283.545,1.3,1.3,0,0,0,1.107-.545A2.415,2.415,0,0,0,22.594-12.387ZM40.688-6.27a6.7,6.7,0,0,1-1.629,4.787,5.634,5.634,0,0,1-4.3,1.729,5.663,5.663,0,0,1-4.324-1.729A6.7,6.7,0,0,1,28.8-6.27v-4.523a6.733,6.733,0,0,1,1.617-4.787,5.625,5.625,0,0,1,4.313-1.729,5.662,5.662,0,0,1,4.313,1.734,6.678,6.678,0,0,1,1.641,4.781Zm-3.949-4.793a4.38,4.38,0,0,0-.533-2.379,1.666,1.666,0,0,0-1.471-.82,1.635,1.635,0,0,0-1.465.82,4.5,4.5,0,0,0-.516,2.379v5.039a4.509,4.509,0,0,0,.521,2.408,1.661,1.661,0,0,0,1.482.814,1.642,1.642,0,0,0,1.459-.814,4.509,4.509,0,0,0,.521-2.408Zm6.422-2.965a3.177,3.177,0,0,1,.967-2.32,3.162,3.162,0,0,1,2.326-.973,3.065,3.065,0,0,1,2.273.973,3.207,3.207,0,0,1,.949,2.32,3.123,3.123,0,0,1-.949,2.3,3.111,3.111,0,0,1-2.273.943,3.211,3.211,0,0,1-2.326-.943A3.1,3.1,0,0,1,43.16-14.027Zm1.816,0a1.378,1.378,0,0,0,.434,1.037,1.453,1.453,0,0,0,1.043.416,1.37,1.37,0,0,0,1.008-.41,1.413,1.413,0,0,0,.41-1.043,1.493,1.493,0,0,0-.41-1.066,1.333,1.333,0,0,0-1.008-.434,1.422,1.422,0,0,0-1.043.434A1.449,1.449,0,0,0,44.977-14.027Z" transform="translate(805.924 1096.173)" fill="#fff"/>
    <g id="Grupo_21026" data-name="Grupo 21026" transform="translate(548.156 529.597)">
      <path id="Trazado_99599" data-name="Trazado 99599" d="M121.882,620.475H444.653" transform="translate(0 20.229)" fill="none" stroke="#fff" stroke-linecap="round" stroke-linejoin="round" stroke-width="10"/>
      <path id="Trazado_99600" data-name="Trazado 99600" d="M189.183,640.7a55.634,55.634,0,1,1,111.268,0" transform="translate(38.451)" fill="none" stroke="#fff" stroke-linecap="round" stroke-linejoin="round" stroke-width="10"/>
      <g id="Grupo_21025" data-name="Grupo 21025" transform="translate(130.669 661.131)">
        <path id="Trazado_99601" data-name="Trazado 99601" d="M423.7,633.475c0,34.953-66.312,63.289-148.112,63.289-75.239,0-135.873-25.954-148.111-63.289" transform="translate(-127.474 -633.475)" fill="none" stroke="#fff" stroke-linecap="round" stroke-linejoin="round" stroke-width="10"/>
        <path id="Trazado_99602" data-name="Trazado 99602" d="M310.056,639.615l9.326-6.14,8.975,8.22" transform="translate(-23.159 -633.475)" fill="none" stroke="#fff" stroke-linecap="round" stroke-linejoin="round" stroke-width="10"/>
      </g>
    </g>
  </g>
</svg>
