<svg xmlns="http://www.w3.org/2000/svg" width="75.4" height="87" viewBox="0 0 75.4 87">
  <g id="delgado" transform="translate(-0.5)">
    <path id="Trazado_100208" data-name="Trazado 100208" d="M118.13,92.1H99.28V86.3a13.76,13.76,0,0,1-8.7,0v5.8H71.73a27.141,27.141,0,0,1-1.5-14.935l1.5-8.265.047-.074A39.284,39.284,0,0,0,73.56,30.508l-.1-.2a16.176,16.176,0,0,1-1.727-7.285V8h46.4l.08,14.879a15.752,15.752,0,0,1-1.662,7.137l-.137.273A39.751,39.751,0,0,0,118.13,68.9l1.5,8.265a27.141,27.141,0,0,1-1.5,14.935Zm0,0" transform="translate(-56.73 -6.55)" fill="#fdc9a6"/>
    <path id="Trazado_100209" data-name="Trazado 100209" d="M82.2,30.253a39.826,39.826,0,0,1,2.172,5.3h38.652a39.8,39.8,0,0,1,2.175-5.3,16.112,16.112,0,0,0,1.7-7.208V8H80.5V23.045A16.115,16.115,0,0,0,82.2,30.253Zm0,0" transform="translate(-65.5 -6.55)" fill="#ffb1b5"/>
    <path id="Trazado_100210" data-name="Trazado 100210" d="M127.248,102.47a8.962,8.962,0,0,1-3,1.354,24.405,24.405,0,0,1-18.045-2.513,1.449,1.449,0,0,0-1.439,0,24.49,24.49,0,0,1-17.375,2.671,13.371,13.371,0,0,1-4.325-1.85l-.392.615c.1.474.239.941.389,1.4.016.05.028.1.043.145q.249.735.56,1.45a15.222,15.222,0,0,0,3.109,1.068,27.374,27.374,0,0,0,18.7-2.588,27.3,27.3,0,0,0,19.466,2.414,11.971,11.971,0,0,0,2.336-.852,16.155,16.155,0,0,0,1.243-4.364Zm0,0" transform="translate(-67.281 -82.793)" fill="#f9adb1"/>
    <path id="Trazado_100211" data-name="Trazado 100211" d="M80.5,344h46.4l-18.85,18.144a27.131,27.131,0,0,1-8.7,0Zm0,0" transform="translate(-65.5 -281.65)" fill="#ffb1b5"/>
    <path id="Trazado_100212" data-name="Trazado 100212" d="M200.5,296h2.9v2.9h-2.9Zm0,0" transform="translate(-163.75 -242.35)" fill="#f6bb92"/>
    <path id="Trazado_100213" data-name="Trazado 100213" d="M341.277,213.094l-4.35-4.35a1.451,1.451,0,0,1,0-2.05l4.35-4.35,2.05,2.05L340,207.719l3.325,3.325Zm0,0" transform="translate(-275.103 -165.669)" fill="#c0f5f9"/>
    <path id="Trazado_100214" data-name="Trazado 100214" d="M344.5,224h13.05v2.9H344.5Zm0,0" transform="translate(-281.65 -183.4)" fill="#c0f5f9"/>
    <path id="Trazado_100215" data-name="Trazado 100215" d="M14.575,206.694l-4.35-4.35-2.05,2.05,1.875,1.875H.5v2.9h9.55l-1.875,1.875,2.05,2.05,4.35-4.35a1.451,1.451,0,0,0,0-2.05Zm0,0" transform="translate(0 -165.669)" fill="#c0f5f9"/>
    <path id="Trazado_100216" data-name="Trazado 100216" d="M104.5,208h37.7v11.6H104.5Zm0,0" transform="translate(-85.15 -170.3)" fill="#fbb540"/>
    <g id="Grupo_53630" data-name="Grupo 53630" transform="translate(25.15 37.7)">
      <path id="Trazado_100217" data-name="Trazado 100217" d="M136.5,208h2.9v5.8h-2.9Zm0,0" transform="translate(-136.5 -208)" fill="#ea9d2d"/>
      <path id="Trazado_100218" data-name="Trazado 100218" d="M168.5,208h2.9v4.35h-2.9Zm0,0" transform="translate(-162.7 -208)" fill="#ea9d2d"/>
      <path id="Trazado_100219" data-name="Trazado 100219" d="M200.5,208h2.9v7.25h-2.9Zm0,0" transform="translate(-188.9 -208)" fill="#ea9d2d"/>
      <path id="Trazado_100220" data-name="Trazado 100220" d="M232.5,208h2.9v4.35h-2.9Zm0,0" transform="translate(-215.1 -208)" fill="#ea9d2d"/>
      <path id="Trazado_100221" data-name="Trazado 100221" d="M264.5,208h2.9v7.25h-2.9Zm0,0" transform="translate(-241.3 -208)" fill="#ea9d2d"/>
    </g>
    <path id="Trazado_100222" data-name="Trazado 100222" d="M175.75,21.05l-.421-1.175a38.569,38.569,0,0,0-6.218-11.111L168.5,8h15.95l-.26.26a38.6,38.6,0,0,0-8.44,12.79Zm0,0" transform="translate(-137.55 -6.55)" fill="#fdc9a6"/>
    <path id="Trazado_100223" data-name="Trazado 100223" d="M112.958,1.117a1.541,1.541,0,0,0-.05-.234,1.383,1.383,0,0,0-.168-.251A1.528,1.528,0,0,0,112.6.423a1.492,1.492,0,0,0-.238-.161,1.523,1.523,0,0,0-.223-.145,1.451,1.451,0,0,0-.56-.118h-46.4a1.45,1.45,0,0,0-1.45,1.45V16.5c0,.343.014.668.03,1a14.368,14.368,0,0,0,.231,1.992c.049.335.126.67.205,1.007l.013.057a17.134,17.134,0,0,0,.558,1.885c.064.176.145.342.217.516.181.469.364.941.594,1.4l.039.072a38.721,38.721,0,0,1,2.061,5.03,1.236,1.236,0,0,0,.1.2,38.122,38.122,0,0,1,1.546,6.64,1.431,1.431,0,0,0-1.245,1.4V49.3a1.431,1.431,0,0,0,.526,1.095,37.722,37.722,0,0,1-4.664,11.2.877.877,0,0,0-.033.087c-.027.04-.052.082-.074.125a1.616,1.616,0,0,0-.043.184c-.008.033-.03.064-.036.1l-1.509,8.265a28.866,28.866,0,0,0-.458,5.1,28.484,28.484,0,0,0,2.045,10.631A1.45,1.45,0,0,0,65.174,87h18.85a1.45,1.45,0,0,0,1.45-1.45V82.106a10.748,10.748,0,0,0,1.18.29,10.526,10.526,0,0,0,1.72.144,9.451,9.451,0,0,0,2.9-.423V85.55A1.45,1.45,0,0,0,92.724,87h18.85a1.45,1.45,0,0,0,1.347-.91,28.523,28.523,0,0,0,1.586-15.734L113,62.09c0-.033-.028-.062-.036-.1a1.531,1.531,0,0,0-.043-.185c-.021-.047-.054-.086-.077-.13s-.018-.061-.033-.087A38.2,38.2,0,0,1,108.2,50.363a1.431,1.431,0,0,0,.479-1.063V37.7a1.43,1.43,0,0,0-1.182-1.4,37.58,37.58,0,0,1,1.557-6.8.432.432,0,0,0,.026-.051c.28-.844.589-1.667.914-2.465.02-.045.032-.082.05-.129.033-.084.079-.174.112-.258.322-.77.657-1.524,1.015-2.245.018-.039.032-.081.052-.122l.021-.043a7.022,7.022,0,0,0,.346-.735c.145-.329.28-.66.38-.947a17.037,17.037,0,0,0,1.143-6.187l-.084-14.882a1.374,1.374,0,0,0-.067-.325Zm-5.51,24.412c-.029.074-.069.155-.1.228-.2.461-.384.937-.526,1.331-.061.144-.1.29-.155.435l0,.028H70.1a39.409,39.409,0,0,0-1.6-3.82,27.469,27.469,0,0,0,6.993.92,27.431,27.431,0,0,0,12.889-3.216,27.408,27.408,0,0,0,19.888,2.272c-.108.232-.224.469-.32.69-.077.164-.134.316-.206.478-.094.218-.19.434-.281.654ZM105.305,50.75a41.087,41.087,0,0,0,3.8,10.15H67.655A40.357,40.357,0,0,0,71.5,50.75Zm.469-2.9h-34.8v-8.7h4.35V43.5h2.9V39.15h2.9v2.9h2.9v-2.9h2.9v5.8h2.9v-5.8h2.9v2.9h2.9v-2.9h2.9v5.8h2.9v-5.8h4.35ZM72.236,36.25a40.763,40.763,0,0,0-1.188-5.8h34.69a40.532,40.532,0,0,0-1.16,5.8ZM93.739,2.9A39.622,39.622,0,0,0,88.5,10.73,40.1,40.1,0,0,0,84.082,2.9Zm-27.115,0h13.8l.178.22a37.094,37.094,0,0,1,5.983,10.7l.421,1.173a1.45,1.45,0,0,0,1.335.961h.029a1.451,1.451,0,0,0,1.346-.908A36.912,36.912,0,0,1,97.691,2.9h12.433V16.5a14.728,14.728,0,0,1-.625,4.144l-.1-.28-.274.093A24.522,24.522,0,0,1,89.1,18.519a1.449,1.449,0,0,0-1.439,0,24.538,24.538,0,0,1-20.034,1.934l-.275-.094-.094.278c-.077-.258-.164-.494-.232-.774v-.018c-.1-.406-.156-.818-.217-1.23-.043-.28-.075-.562-.1-.848-.036-.423-.074-.848-.074-1.273Zm15.95,81.2h-16.4a25.585,25.585,0,0,1-1.493-8.642,25.967,25.967,0,0,1,.41-4.582l1.024-5.607L80.929,79.528A10.806,10.806,0,0,0,82.574,80.8Zm7.055-4.572a7.851,7.851,0,0,1-6.689-2.09L68.77,63.8h39.208L93.809,77.437a7.82,7.82,0,0,1-4.18,2.091ZM110.574,84.1h-16.4V80.845H94.1a10.845,10.845,0,0,0,1.719-1.316l14.814-14.259,1.024,5.605A25.651,25.651,0,0,1,110.574,84.1Zm0,0" transform="translate(-50.174)"/>
    <path id="Trazado_100224" data-name="Trazado 100224" d="M200.5,296h2.9v2.9h-2.9Zm0,0" transform="translate(-163.75 -242.35)"/>
    <path id="Trazado_100225" data-name="Trazado 100225" d="M341.277,202.344l-4.35,4.35a1.451,1.451,0,0,0,0,2.05l4.35,4.35,2.05-2.05-1.875-1.875H351v-2.9h-9.55l1.875-1.875Zm0,0" transform="translate(-275.103 -165.669)"/>
    <path id="Trazado_100226" data-name="Trazado 100226" d="M.5,209.169h9.55l-1.875,1.875,2.05,2.05,4.35-4.35a1.451,1.451,0,0,0,0-2.05l-4.35-4.35-2.05,2.05,1.875,1.875H.5Zm0,0" transform="translate(0 -165.669)"/>
  </g>
</svg>
