<svg xmlns="http://www.w3.org/2000/svg" width="904" height="569.389" viewBox="0 0 904 569.389">
  <g id="Grupo_53646" data-name="Grupo 53646" transform="translate(-231 -4892)">
    <g id="Grupo_8385" data-name="Grupo 8385" transform="translate(-162.21 829.721)">
      <path id="Trazado_13303" data-name="Trazado 13303" d="M8.317,1.021H-7.358v-3.3l5.629-5.69q2.5-2.561,3.267-3.55a7.809,7.809,0,0,0,1.1-1.832A4.667,4.667,0,0,0,2.979-15.1a2.547,2.547,0,0,0-.743-2.009,2.885,2.885,0,0,0-1.989-.66,5.711,5.711,0,0,0-2.531.6,13.059,13.059,0,0,0-2.561,1.7l-2.577-3.052a16.81,16.81,0,0,1,2.745-1.989A10.077,10.077,0,0,1-2.3-21.4a12.181,12.181,0,0,1,2.883-.314,8.537,8.537,0,0,1,3.712.766,5.921,5.921,0,0,1,2.5,2.143,5.7,5.7,0,0,1,.89,3.16,7.733,7.733,0,0,1-.544,2.906A11.159,11.159,0,0,1,5.457-9.959,41.244,41.244,0,0,1,1.43-5.9L-1.453-3.182v.215h9.77Z" transform="translate(573.773 4084)" fill="#895cd8"/>
      <g id="Grupo_8337" data-name="Grupo 8337" transform="translate(393.21 4097.093)">
        <path id="Trazado_13302" data-name="Trazado 13302" d="M101.036,0A101.036,101.036,0,1,1,0,101.036,101.036,101.036,0,0,1,101.036,0Z" transform="translate(84.588 135.556)" fill="#ffeaa7" opacity="0.571"/>
        <path id="Trazado_11413" data-name="Trazado 11413" d="M0,46.079,112,0" transform="translate(247.729 202.051) rotate(45)" fill="none" stroke="#e55858" stroke-linecap="round" stroke-width="4"/>
        <path id="Trazado_11412" data-name="Trazado 11412" d="M0,46.079,112,0" transform="translate(62.409 135.043) rotate(45)" fill="none" stroke="#e55858" stroke-width="4"/>
        <path id="Trazado_11410" data-name="Trazado 11410" d="M-294.59,2165.959l112-46.079" transform="translate(318.033 -1879.749)" fill="none" stroke="#e55858" stroke-linecap="round" stroke-width="4"/>
        <g id="Grupo_7436" data-name="Grupo 7436" transform="translate(125.421 25.657)">
          <g id="Grupo_7433" data-name="Grupo 7433" transform="translate(0 0)">
            <path id="Trazado_11362" data-name="Trazado 11362" d="M2817.639,2386.677s4.491-.336,2.356-7.264l.78-4.369a6.521,6.521,0,0,1,2.139,2.068c.245.465,3.6,10.365,3.6,10.365l.71,3.929a20.482,20.482,0,0,0,.131,4.1c.258.848,2.078,3.35,3.4-1l1.885-1.817s1.84-4.095,2.794-5.774a5.223,5.223,0,0,0,.115-1.744,7.84,7.84,0,0,0,.9-1.525,8.554,8.554,0,0,0-.123-1.943,7.155,7.155,0,0,0,1.1-1.764c.249-1.451-1.062-4.816-.561-5.863a6.783,6.783,0,0,0,.019-2.075c-.2-.663-3.331-6.1-3.331-6.1l-2.651-9.59a30.241,30.241,0,0,1-.572-4.2,8.859,8.859,0,0,0-1.053-4.051s-1.43-8.873-1.65-11.857c-.5-6.723-.445-16.038-1.047-23.144a193.064,193.064,0,0,0-3.91-26.358,20.219,20.219,0,0,0-5.531-9.022c-3-2.586-9.794-1.552-11.785,2.317-2.015,3.918-.692,12.631.116,16.708,1.1,5.542,3.874,16.26,5.42,21.7,2.121,7.457,4.856,14.868,6.073,22.532.512,3.224,2,16.906,1.743,18.252-.3,1.543-1.6,3.885-2.077,5.382-.652,2.041-1.66,8.585-1.66,8.585l1.106,7.5Zm12.86,2.408.221-2.352-1.374-6.127.892.276s.656,4.666,1.1,5.254-.843,2.948-.843,2.948Z" transform="translate(-2710.825 -2114.534)" fill="#fff" stroke="#3b1f10" stroke-width="2" fill-rule="evenodd"/>
            <path id="Trazado_11361" data-name="Trazado 11361" d="M1952.311,1405.491c1.152-3.719-.733-6.513-1.516-8.993-1.87-5.95,1.763-56.262-2.4-74.188-2.435-10.488-9.365-19.693-11.864-30.307-1.764-7.5-4.17-29.615-4.534-54.92-.2-14.185-.479-38.134-1.152-45.754a106.858,106.858,0,0,0-15-46.522c-5.744-9.565-14.8-25.093-.272-52.312,0,0,8.108-12.669,9.122-18.75-.08,3.945-.1,7.9-.224,11.845-.2,6.491-.713,13.012-.335,19.494.314,5.311,1.6,18,3.066,19.563a16.461,16.461,0,0,0,6.884,3.865c2.9.6,7.105-2.231,9.058-4.711s.845-7.341.3-10.279c-2.8-15.182-.016-57.078.337-61.751.371-4.921,3.21-18.821-9.205-23.635s-24.186-1.9-29.212-16.489c-4.425-12.848-1.385-27.472-.569-30.27-1.166,2.47-11.923,16.062-29.859,25.031,0,0,2.519,2.663,2.367,11.1-.08,4.433.152,4.551-13.422,9.1-5.4,1.808-17.333,6.621-16.468,17.182a88.381,88.381,0,0,0,1.546,14.084c-4.39,6.947-4.979,7.643-6.821,11.037a15.928,15.928,0,0,0-2.213,7.022c-.314,5.615,1.073,11.021,10.826,15.518a3.069,3.069,0,0,0,.746.243c.573,6.835,1.635,29.516-1.8,39.568-8.224,24.044-9.626,36.039-7.6,61.823.964,12.242,2.932,59.439,10.679,83.992,1.139,3.609,3.35,9.785,2.84,15.138-.314,3.319.483,7.754,2.864,13.026,0,0,4.089,59.98-1.179,80.67-1.5,5.886-10.951,14.266-14.6,16.793-2.872,1.989-9,5-10.5,8.917-2.026,5.328,13.165,4.85,17.856,1.937,1.891-1.174,5.142-4.089,8.983-4.833,3.537-.686,11.9.245,13.925-3.276s-.925-11.083-.99-13.025c-.487-14.4,4.567-29.981,8.679-46.156,3.769-14.813,6.124-20.873-.733-46.613,0,0-1.11-9.379-.693-12.481,1.718-12.792,4.5-83.905,4.5-83.905l3.045-.511s17.324,71.133,21.907,83.5a60.032,60.032,0,0,0,7.413,15.292c4.647,7.12,2.827,21.217,7.073,33.267,3.9,11.054,11.261,38.728,13.072,47.025,1.652,7.569,3.608,16.043,1.586,23.26s-2.508,8.795-3.495,11.622c-1.272,3.635-4.712,9.236-3.918,11.8.667,2.166,1.113,3.988,4.651,4.341s15.193,1.791,18.092-3.989C1954.918,1425.363,1951.274,1408.863,1952.311,1405.491Z" transform="translate(-1832.02 -944.14)" fill="#fff" stroke="#3b1f10" stroke-width="2"/>
            <path id="Trazado_11363" data-name="Trazado 11363" d="M2317.132,1144.9c-.009-.232-.017.978-.023.748-6.811,5.278-18.031,8.624-26.985,10.594a24.019,24.019,0,0,1,1.248,9.038,11.716,11.716,0,0,1-.639,4.188A81.91,81.91,0,0,0,2317.132,1144.9Z" transform="translate(-2246.084 -1091.916)" fill="#e6e6e6"/>
            <path id="Trazado_11364" data-name="Trazado 11364" d="M2014.632,2833.586a105.917,105.917,0,0,0-5.34-15.74c-41.8,16.333-75.408,7.78-80.782,5.905a93.789,93.789,0,0,0-.481,14.313,111.1,111.1,0,0,1,14.958,7.52c5.243,3.113,10.734,8.646,15.182,12.327,6.926,5.738,11.137,5.281,11.137,5.281l4.2-.511C1971.286,2841.439,2006.434,2834.833,2014.632,2833.586Z" transform="translate(-1918.748 -2604.065)" fill="#3b1f10" fill-rule="evenodd"/>
            <path id="Trazado_11365" data-name="Trazado 11365" d="M1981.171,1500.059a20.64,20.64,0,0,1,7.685.821q.77-1.6,1.651-3.251s2.827-4.418,5.353-9.29c-.908-.6-8.923-2.078-9.812-6.845-.3-1.6-.428-8.428-.9-11.369-.707-4.449-1.738-8.845-.2-14.575,2.266-8.448,6.963-15.583,14.019-23.027-1.275-.3-2.319-.621-3.693-.826-3.131,2.7-7.093,8.044-12.507,15.729-2.448,3.475-6.25,11.936-12.08,13.506-18.584,5.032-22.438,15.068-23.662,15.182-.517.047-3.415-9.285-11.763-15.248a7.12,7.12,0,0,1-2.513-3.157c-.885-2.69-.486-5.3.922-11.037,1.1-4.482,2.451-9.528,3.365-12.754-.942.332-2.025.742-3.17,1.241-2.05,6.04-8.585,26.28-10.917,29.735-4.39,6.947-4.936,7.577-6.82,11.037a15.889,15.889,0,0,0-2.214,7.022c-.314,5.614,1.073,11.021,10.826,15.518a3.064,3.064,0,0,0,.746.243c0,.052,2.827.023,2.827.023s14.867-5.092,16.8-5.173c1.016-.043,7.869,3.818,17.13,6.963C1966.366,1501.933,1974.585,1501.305,1981.171,1500.059Z" transform="translate(-1906.005 -1351.169)" fill="#3b1f10"/>
            <g id="Grupo_7432" data-name="Grupo 7432" transform="translate(25.145 0)">
              <g id="Grupo_7421" data-name="Grupo 7421" transform="translate(0 3.091)">
                <path id="Trazado_11366" data-name="Trazado 11366" d="M2096.028,670.882s-.82,2.167-1.87,2.561c0,0-.887-1.989.523-8.618a35.924,35.924,0,0,0,.368-11.013,34.966,34.966,0,0,1,1.033-13.82c.48-2.139,2.789-4.577,6.685-6.459,3.587-1.733,7.1-5.139,11.714-7.39,4.067,2.381,5.854,6.073,8.292,10.03,2.353,3.82,3.544,8.187,4.675,12.486.6,2.287,1.308,4.53,2.035,6.78.711,2.2,1.317,4.408,1.819,6.664a44.264,44.264,0,0,1,1.444,12.274,19.972,19.972,0,0,1-1.242,5.949,18.3,18.3,0,0,1-1.432,2.932c-.574.942-1.256,1.791-1.9,2.682-1.659,2.3-19.795,5.162-19.795,5.162s-4.935-2.123-8.563-11.2a11.672,11.672,0,0,1-.619-4.246c-.069.454-.427,1.04-2.211,1.416-1.675.354-3.1.126-3.361-.531C2093.63,676.538,2096.279,675.831,2096.028,670.882Z" transform="translate(-2093.623 -626.142)" fill="#3b1f10"/>
                <path id="Trazado_11367" data-name="Trazado 11367" d="M2159.442,738.238a1.233,1.233,0,0,1,1.205-.275,2.411,2.411,0,0,1,1.077.889,8.7,8.7,0,0,0-.584,2.6,15.657,15.657,0,0,1-.962,2.949,10.438,10.438,0,0,0-.628,3.158,10.33,10.33,0,0,1-.505,3.327c-.1-.3-.188-.6-.268-.907a22.53,22.53,0,0,1-.668-4.5q-.059-1.116-.05-2.235a16.911,16.911,0,0,1,.074-2.063A4.608,4.608,0,0,1,2159.442,738.238Z" transform="translate(-2151.864 -727.157)" fill="#3b1f10"/>
                <path id="Trazado_11368" data-name="Trazado 11368" d="M2131.049,1077.623c.209-.643,3.056,3.658,4,3.7,3.737.156,6.54,4.9,8.562,7.488a16.589,16.589,0,0,1,3.246,5.842c.308,1.166,1.1,2.384,1.047,3.588-.04.805.334,1.312.174,2.1-4.208-.637-7-1.224-7-1.224s-4.883-1.536-9.281-11.064a18.322,18.322,0,0,1-.75-10.431Z" transform="translate(-2127.053 -1034.161)" fill="#3b1f10"/>
              </g>
              <g id="Grupo_7430" data-name="Grupo 7430" transform="translate(2.901 4.083)">
                <path id="Trazado_11369" data-name="Trazado 11369" d="M2140.656,642.392c-9.834,5.215-10.352,12.706-13.151,21.812-.607,1.974,1.256,4.038,1.525,5.4.248,1.274-1.914,4.846-.966,10.825.739,4.668,1.839,6.9,3.079,10.8a48.13,48.13,0,0,0,2.532,5.45c1.919,4.057,2.553,4.584,3.825,5.007,1.766.588,5.54.223,6.858-.1,2.856-.713,12.466-4.293,15.774-7.446,3.344-3.192,5.572-6.282,5.241-15.914,0,0,10.421-3.018,12.445-11.562,1.8-7.6-2.513-26.718-14.809-29.227C2150.843,634.947,2149.964,637.458,2140.656,642.392Z" transform="translate(-2127.04 -636.462)" fill="#fff" stroke="#3b1f10" stroke-width="1"/>
                <g id="Grupo_7429" data-name="Grupo 7429" transform="translate(0 26.986)">
                  <g id="Grupo_7423" data-name="Grupo 7423" transform="translate(5.832 15.287)">
                    <path id="Trazado_11370" data-name="Trazado 11370" d="M2185.058,1077.687c.146-.348.233-.62.586-1.485-.167.733-.4,1.683-.793,3.129a2.657,2.657,0,0,0,.875.891c.96.674,1.174.508,2.408.057a2.312,2.312,0,0,1,1.256,0c.76.186,2.064.36,2.847.479a1.82,1.82,0,0,0,2.146-1.244,2.472,2.472,0,0,1-.1,1.041,1.572,1.572,0,0,1-.584.76,2.477,2.477,0,0,1-1.257.594,8.935,8.935,0,0,1-2.905.427,6.274,6.274,0,0,1-1.047.187,3.834,3.834,0,0,1-1.257-.07s-1.57-1.311-2.4-2.177C2184.293,1079.7,2184.262,1079.6,2185.058,1077.687Z" transform="translate(-2184.442 -1076.202)" fill="#3b1f10"/>
                    <path id="Trazado_11371" data-name="Trazado 11371" d="M2194.52,1122.774a13.687,13.687,0,0,1-1.548-1.313C2192.97,1121.036,2194.195,1121.79,2194.52,1122.774Z" transform="translate(-2192.147 -1116.999)" fill="#c47e5b" opacity="0.298"/>
                    <g id="Grupo_7422" data-name="Grupo 7422" transform="translate(4.16 4.846)">
                      <path id="Trazado_11372" data-name="Trazado 11372" d="M2231.183,1127.09a4.916,4.916,0,0,0-2.378-.442c-.642.067-1.068.2-1.034.539s.719.344,1.352.215C2229.864,1127.258,2231.445,1127.321,2231.183,1127.09Z" transform="translate(-2227.769 -1126.638)" fill="#2e2e2e"/>
                    </g>
                  </g>
                  <g id="Grupo_7426" data-name="Grupo 7426" transform="translate(0 4.213)">
                    <g id="Grupo_7424" data-name="Grupo 7424" transform="translate(18.245 0.325)">
                      <path id="Trazado_11374" data-name="Trazado 11374" d="M2314.882,966.934a3.284,3.284,0,0,1,2.747-1.068,10.261,10.261,0,0,1,4.817,1.938,5.557,5.557,0,0,1-5.305,1.571c-2.438-.269-2.991-1.31-2.991-1.31A3.389,3.389,0,0,1,2314.882,966.934Zm.189,2.19a7.845,7.845,0,0,0,3.979.8c4.57-.018,5.235-3.169,5.235-3.169a21.374,21.374,0,0,1-2.257-1.4,7.064,7.064,0,0,0-6.341-.33,3.029,3.029,0,0,0-1.78,3.043c-.124.442-.4.482-.4.482a4.63,4.63,0,0,1,1.566.577Z" transform="translate(-2313.504 -964.426)" fill="#3b1f10"/>
                      <path id="Trazado_11375" data-name="Trazado 11375" d="M2341,972.262a2.326,2.326,0,0,1-2.4,2.5,2.254,2.254,0,0,1-.143-4.494,2.394,2.394,0,0,1,2.541,1.991Z" transform="translate(-2334.243 -969.705)" fill="#3b1f10"/>
                    </g>
                    <g id="Grupo_7425" data-name="Grupo 7425" transform="translate(0 0)">
                      <path id="Trazado_11376" data-name="Trazado 11376" d="M2123.73,963.449a4.928,4.928,0,0,0,1.562-1.41c.354-1.4,2.124-1.007,2.794-.838a7.1,7.1,0,0,1,3.036,1.5,3.481,3.481,0,0,1,1.047,2.07c.03.344-.1.585.054.891-.491-.62-.724-1.466-1.49-1.865-1.825-.962-4.333-1.634-4.732-.838a9.056,9.056,0,0,0-.039,2.02c.25.64,1.106,1.14,2.408,1.222.777.049,2.53-.23,3.622-.329a.67.67,0,0,0,.076.11c-3.171.587-4.371.721-4.371.721-3.057.007-2.661-2.6-2.661-2.6-.007-.157-.009-.3-.007-.447a1.549,1.549,0,0,1-1.3-.211Z" transform="translate(-2123.73 -961.019)" fill="#3b1f10"/>
                      <path id="Trazado_11377" data-name="Trazado 11377" d="M2156.545,975.076a1.931,1.931,0,0,1-1.836,1.98,2.005,2.005,0,0,1-1.835-2.08c.025-1.1.476-1.918,1.735-1.948a2.034,2.034,0,0,1,1.937,2.049Z" transform="translate(-2150.076 -971.872)" fill="#3b1f10"/>
                    </g>
                  </g>
                  <g id="Grupo_7427" data-name="Grupo 7427" transform="translate(6.844 24.836)">
                    <path id="Trazado_11378" data-name="Trazado 11378" d="M2194.93,1177.436s.1.714.588.712a11.954,11.954,0,0,0,1.248-.091c.333-.038.419.581,2.231.653.577.023,3.084-.915,4.042-.655s2.5.149,2.65.264c0,0-4.164-2.433-5.8-2.709a2.453,2.453,0,0,0-1.51.27c-.606.37-1.047-.355-1.982-.353a1.821,1.821,0,0,0-1.466,1.909Z" transform="translate(-2194.926 -1175.527)" fill="none" stroke="#3b1f10" stroke-width="1"/>
                    <path id="Trazado_11379" data-name="Trazado 11379" d="M2199.953,1201.517c.838-.524,2.164.4,2.164.4s.852.369,1.287.152a6.442,6.442,0,0,1,3.536-.554c.538.278,3.224,0,2.92.169a5.014,5.014,0,0,0-1.536,1.129,9.277,9.277,0,0,1-2.408,1.853,8.489,8.489,0,0,1-2.462.721,4.21,4.21,0,0,1-1.743-.185,3.039,3.039,0,0,1-1.221-.711,2.873,2.873,0,0,1-.837-2.094A1.445,1.445,0,0,1,2199.953,1201.517Z" transform="translate(-2199.197 -1198.871)" fill="none" stroke="#3b1f10" stroke-width="1"/>
                  </g>
                  <g id="Grupo_7428" data-name="Grupo 7428" transform="translate(15.262 0.558)">
                    <path id="Trazado_11381" data-name="Trazado 11381" d="M2282.531,926.012a2.58,2.58,0,0,0,2.762.063,10.227,10.227,0,0,1,2.283-1.256c4.091-1.134,5.274-.628,9.33,1.152a10.615,10.615,0,0,0-7.605-3.155C2285.829,922.982,2282.165,925.805,2282.531,926.012Z" transform="translate(-2282.506 -922.816)" fill="#3b1f10"/>
                  </g>
                  <path id="Trazado_11382" data-name="Trazado 11382" d="M2127.142,917.5c.513-.859,2.789.3,5.667,1.761a3.864,3.864,0,0,1,2.136,2.567,5.977,5.977,0,0,1,.673,3,20.1,20.1,0,0,1-.875,3.305,29.1,29.1,0,0,0,.188-3.769,4.77,4.77,0,0,0-.766-2.235,6.973,6.973,0,0,0-2.844-1.924c-1.024-.559-1.812-1.165-2.663-1.52-1.229-.512-1.8.186-1.792.388A4.021,4.021,0,0,1,2127.142,917.5Z" transform="translate(-2126.572 -917.204)" fill="#3b1f10"/>
                </g>
              </g>
              <g id="Grupo_7431" data-name="Grupo 7431" transform="translate(9.231)">
                <path id="Trazado_11383" data-name="Trazado 11383" d="M2447.35,726.843a17.912,17.912,0,0,0,5.541-9.7c.988-6.1-.678-9.205-2.094-13.519-.925-2.827,1.752-10.959,1.752-10.959l9.619-22.869a15.9,15.9,0,0,1,11.128,10.748c2.387,7.27,1.047,30.529,1.047,30.529l2.131,2.359a30.224,30.224,0,0,1-3.5,10.339c-2.274,4.188-6.26,5.043-5.856,4.6,1.874-2.077,2.243-4.245,1.859-3.56a10.5,10.5,0,0,1-4.167,4.125c-4.5,2.6-5.375.437-10.921-1.425a12.386,12.386,0,0,0,3.629-2.978S2454.511,729.492,2447.35,726.843Z" transform="translate(-2422.578 -662.509)" fill="#3b1f10"/>
                <path id="Trazado_11384" data-name="Trazado 11384" d="M2202.782,596.04c4.41-1.171,10.332-3.132,19.854-1.288,12.939,2.5,20.152,15.978,21.723,22.415a33.718,33.718,0,0,1,.1,12.136c-.156,1.7-.492,5.279-.827,7.083-.323,3.208,4.1,5.331,4.1,5.331s-3.088.377-4.648-.913a6.058,6.058,0,0,0,3.979,5.039,9.866,9.866,0,0,0,2.82.221,6.1,6.1,0,0,1-3.578,1.625,7.65,7.65,0,0,1-1.947-.01c-.131-.015-1.688-.051-2.147-1.213a20.621,20.621,0,0,0,2.956,3.525c-10.753-.234-18.194-11.9-18.194-11.9,1.891,6.6,6.525,8.26,6.525,8.26-3.226-.114-4.309-1.438-5.654-1.78.246,2.07-.685,4.284-3.687,6.562,0,0,1.949-2.689.5-7.817-6.7-3.949-12.262-12.629-12.262-12.629s-.246-.15-5.006-3.68c-5.152-3.822-7.24-9.04-9.466-15.782-1.649-4.993-5.007-7.066-7.748-3.99-.889,1-1.1-4.059,1.9-6.741C2194.008,598.777,2198.248,597.246,2202.782,596.04Z" transform="translate(-2189.6 -593.996)" fill="#3b1f10"/>
                <path id="Trazado_11385" data-name="Trazado 11385" d="M2201.269,703.179c3.79,1.115,4.807,4.058,5.955,8.481-.548-.752-1.666-2.482-2.3-3.27-3.92-4.883-7.555-3.3-9.423-1.3a5.741,5.741,0,0,1,1.04-2.992C2198.243,702.492,2199.614,702.694,2201.269,703.179Z" transform="translate(-2194.931 -692.366)" fill="#3b1f10"/>
              </g>
            </g>
          </g>
          <path id="Trazado_11386" data-name="Trazado 11386" d="M143.4,2943.9l2.139,13.591h16.242l-.733-10.933-11.673-7.612Z" transform="translate(-48.793 -2769.285)" fill="#fff"/>
          <path id="Trazado_11388" data-name="Trazado 11388" d="M-189.452,581.206s.236-12.012.549-14.434c.66-5.08,1.512-3.747,1.2-1.712C-188.068,567.427-189.452,581.206-189.452,581.206Z" transform="translate(295.419 -195.254)" fill="#3b1f10"/>
          <path id="Trazado_11389" data-name="Trazado 11389" d="M-187.884,641.562c.259,5.633.942,18.421.942,18.421s-2.228-18.783-2.331-22.466c-.069-2.479-.327-17.39-.365-26.124C-189.678,601.889-188.049,638-187.884,641.562Z" transform="translate(295.518 -220.268)" fill="#3b1f10"/>
          <path id="Trazado_11390" data-name="Trazado 11390" d="M-138.425,534.643a9.778,9.778,0,0,0,3.318,5.69,9.646,9.646,0,0,0,4.429,1.713,26.249,26.249,0,0,1-4-2.875C-135.775,538.053-138.425,534.643-138.425,534.643Z" transform="translate(225.099 -184.076)" fill="#3b1f10"/>
          <path id="Trazado_11391" data-name="Trazado 11391" d="M-112.1,541.589a11.78,11.78,0,0,0,3.543-5.622c.47-1.466.948-2.421,1.074-2.009a7.853,7.853,0,0,1-1.189,4.782,10.321,10.321,0,0,1-3.428,2.85Z" transform="translate(210.956 -183.657)" fill="#3b1f10"/>
          <path id="Trazado_11392" data-name="Trazado 11392" d="M-136.37,581.206s-.235-12.012-.549-14.434c-.66-5.08-1.512-3.747-1.2-1.712C-137.754,567.427-136.37,581.206-136.37,581.206Z" transform="translate(235.436 -202.58)" fill="#3b1f10"/>
          <path id="Trazado_11393" data-name="Trazado 11393" d="M-138.425,534.643a9.778,9.778,0,0,0,3.318,5.69,9.646,9.646,0,0,0,4.429,1.713,26.249,26.249,0,0,1-4-2.875C-135.775,538.053-138.425,534.643-138.425,534.643Z" transform="translate(166.492 -180.936)" fill="#3b1f10"/>
          <path id="Trazado_11394" data-name="Trazado 11394" d="M-112.1,541.589a11.78,11.78,0,0,0,3.543-5.622c.47-1.466.948-2.421,1.074-2.009a7.853,7.853,0,0,1-1.189,4.782,10.321,10.321,0,0,1-3.428,2.85Z" transform="translate(151.303 -187.842)" fill="#3b1f10"/>
          <path id="Trazado_11395" data-name="Trazado 11395" d="M-189.452,594.98s.236-21.228.549-25.506c.66-8.976,1.512-6.622,1.2-3.025C-188.068,570.638-189.452,594.98-189.452,594.98Z" transform="translate(233.673 -198.566)" fill="#3b1f10"/>
          <g id="Grupo_7434" data-name="Grupo 7434" transform="translate(38.015 199.995)">
            <path id="Trazado_11396" data-name="Trazado 11396" d="M-162.68,177.991a2.925,2.925,0,0,1-1.54.706,1.3,1.3,0,0,1-1.3-1.067,3.413,3.413,0,0,0,1.561.517C-163.489,178.112-162.68,177.991-162.68,177.991Z" transform="translate(167.101 -177.63)" fill="#3b1f10"/>
            <path id="Trazado_11397" data-name="Trazado 11397" d="M-162.811,180.62a3.97,3.97,0,0,1-3.246,1.733,2.668,2.668,0,0,1-2.468-1.3,4.384,4.384,0,0,1-.413-.876,6.759,6.759,0,0,0,1.914,1.264,4.3,4.3,0,0,0,1.584.018,17.634,17.634,0,0,0,2.628-.842Z" transform="translate(168.937 -179.002)" fill="#3b1f10"/>
          </g>
          <path id="Trazado_11399" data-name="Trazado 11399" d="M-150.1-52.067a35.763,35.763,0,0,1-2.542,4.7s1.851-5.28,2.542-7.813,2.408-8.143,2.408-8.143S-148.335-56.4-150.1-52.067Z" transform="translate(210.761 130.877)" fill="#3b1f10"/>
          <path id="Trazado_11400" data-name="Trazado 11400" d="M-135.218-62.319c-1.858,4.787-2.215,5.172-2.707,8.771-.425,3.113,1.25,8.62,1.25,8.62s-.832-6.763-.419-8.616a35.489,35.489,0,0,1,2.177-6.5Z" transform="translate(210.216 132.429)" fill="#3b1f10"/>
          <path id="Trazado_11401" data-name="Trazado 11401" d="M-179.361-52.067a35.7,35.7,0,0,0,2.542,4.7s-1.851-5.28-2.542-7.813-2.408-8.143-2.408-8.143S-181.13-56.4-179.361-52.067Z" transform="translate(232.688 132.97)" fill="#3b1f10"/>
          <g id="Grupo_7435" data-name="Grupo 7435" transform="translate(106.79 179.469) rotate(-164.991)">
            <path id="Trazado_11402" data-name="Trazado 11402" d="M0,0A16.711,16.711,0,0,1,1.932,5.427c.267,2,.342,4,.342,4a8.717,8.717,0,0,0,.059-5.69A10.977,10.977,0,0,0,0,0Z" transform="translate(0 0.528)" fill="#3b1f10"/>
            <path id="Trazado_11403" data-name="Trazado 11403" d="M0,0A8.866,8.866,0,0,1,1.047,2.881a17.9,17.9,0,0,1,.092,1.83A5.3,5.3,0,0,0,1.53,2.178,3.036,3.036,0,0,0,0,0Z" transform="translate(6.566 0)" fill="#3b1f10"/>
          </g>
          <path id="Trazado_11404" data-name="Trazado 11404" d="M-224.816-21.469a49.924,49.924,0,0,1,6.98-.181c6.387.553,7.524,2.139,9.02,3.059s-2.687-1.25-7.211-1.9C-218.9-20.909-224.816-21.469-224.816-21.469Z" transform="translate(255.81 159.807)" fill="#3b1f10"/>
          <path id="Trazado_11405" data-name="Trazado 11405" d="M-168.8-17.25s1.381-2.38,3.521-2.235a2.536,2.536,0,0,1,2.222,1.134,2.019,2.019,0,0,1,.474,1.145s-2.158-1.5-3.192-1.373A11.564,11.564,0,0,0-168.8-17.25Z" transform="translate(225.719 158.61)" fill="#3b1f10"/>
          <path id="Trazado_11406" data-name="Trazado 11406" d="M-133.989-14.786a6.753,6.753,0,0,1,3.628-3.066,9.737,9.737,0,0,1,4.672.115s-2.408.2-3.316.376a8.449,8.449,0,0,0-2.914,1.1C-132.489-15.791-133.989-14.786-133.989-14.786Z" transform="translate(207.017 157.859)" fill="#3b1f10"/>
          <path id="Trazado_11408" data-name="Trazado 11408" d="M-168.8-17.25s1.381-2.38,3.521-2.235a2.536,2.536,0,0,1,2.222,1.134,2.019,2.019,0,0,1,.474,1.145s-2.158-1.5-3.192-1.373A11.564,11.564,0,0,0-168.8-17.25Z" transform="translate(220.486 109.422)" fill="#3b1f10"/>
          <path id="Trazado_11409" data-name="Trazado 11409" d="M-133.989-14.786a6.753,6.753,0,0,1,3.628-3.066,9.737,9.737,0,0,1,4.672.115s-2.408.2-3.316.376a8.449,8.449,0,0,0-2.914,1.1C-132.489-15.791-133.989-14.786-133.989-14.786Z" transform="translate(207.017 107.625)" fill="#3b1f10"/>
        </g>
        <path id="Trazado_11411" data-name="Trazado 11411" d="M-294.59,2165.959l112-46.079" transform="translate(498.119 -1951.992)" fill="none" stroke="#e55858" stroke-linecap="round" stroke-width="4"/>
        <path id="Trazado_13304" data-name="Trazado 13304" d="M4.33,1.007H-.414V-11.969L-.368-14.1l.076-2.332q-1.181,1.181-1.641,1.549L-4.5-12.814-6.79-15.665.434-21.416h3.9Z" transform="translate(6.79 302.07)" fill="#895cd8"/>
        <path id="Trazado_11414" data-name="Trazado 11414" d="M105.473,2734.53V3269.1" transform="translate(74.888 -2734.53)" fill="none" stroke="#d53030" stroke-width="4"/>
        <path id="Trazado_13305" data-name="Trazado 13305" d="M7.442-16.386a5.277,5.277,0,0,1-1.273,3.573A6.6,6.6,0,0,1,2.6-10.787v.092A7.142,7.142,0,0,1,6.706-9.047,4.618,4.618,0,0,1,8.1-5.512,5.99,5.99,0,0,1,5.755-.473a10.817,10.817,0,0,1-6.7,1.8A16.275,16.275,0,0,1-7.419.117V-3.917A14.628,14.628,0,0,0-4.551-2.843a12.069,12.069,0,0,0,3.1.419,6.024,6.024,0,0,0,3.467-.8A2.932,2.932,0,0,0,3.133-5.784a2.313,2.313,0,0,0-1.288-2.24,9.528,9.528,0,0,0-4.114-.663h-1.7v-3.635h1.733A8.062,8.062,0,0,0,1.575-13a2.465,2.465,0,0,0,1.2-2.339q0-2.546-3.19-2.546a7.3,7.3,0,0,0-2.247.369A10.976,10.976,0,0,0-5.2-16.248l-2.193-3.267A12.186,12.186,0,0,1-.07-21.723a9.446,9.446,0,0,1,5.5,1.411,4.525,4.525,0,0,1,2.014,3.926Z" transform="translate(343.897 304.149)" fill="#895cd8"/>
      </g>
    </g>
    <g id="Grupo_20790" data-name="Grupo 20790" transform="translate(0 -44)">
      <path id="Trazado_13292" data-name="Trazado 13292" d="M0,0H444V84.734H0Z" transform="translate(691 5024)" fill="#f3f9ff"/>
      <path id="Trazado_13293" data-name="Trazado 13293" d="M20.5,0A20.5,20.5,0,1,1,0,20.5,20.5,20.5,0,0,1,20.5,0Z" transform="translate(704 5042.5)" fill="#7b1fa2"/>
      <path id="Trazado_13294" data-name="Trazado 13294" d="M3.831,0H-.7V-12.393l.044-2.036.073-2.227q-1.128,1.128-1.567,1.479L-4.607-13.2-6.79-15.923l6.9-5.493H3.831Z" transform="translate(724 5074.5)" fill="#fff"/>
      <rect id="Rect치ngulo_1807" data-name="Rect치ngulo 1807" width="444" height="5" transform="translate(691 5103.734)" fill="#895cd8"/>
      <path id="Trazado_100255" data-name="Trazado 100255" d="M9.923-10.512H6.539V0H3.568V-10.512H.246V-12.8H9.923Zm5.713,3.533-.967-.009a1.646,1.646,0,0,0-.835.189,1.166,1.166,0,0,0-.483.532V0H10.38V-9.51h2.795l.105,1.4a2.867,2.867,0,0,1,.791-1.16,1.736,1.736,0,0,1,1.151-.413,2.209,2.209,0,0,1,.36.026,2.726,2.726,0,0,1,.334.079Zm6.583,6.97a3.588,3.588,0,0,1-.286-.677,5.189,5.189,0,0,1-.18-.791A3.634,3.634,0,0,1,20.8-.268a2.3,2.3,0,0,1-1.481.453,3.293,3.293,0,0,1-2.325-.769,2.717,2.717,0,0,1-.831-2.1,2.535,2.535,0,0,1,1.063-2.184,5.513,5.513,0,0,1,3.226-.769h1.222v-.677a1.355,1.355,0,0,0-.29-.932,1.13,1.13,0,0,0-.888-.325,1.071,1.071,0,0,0-.769.242,1,1,0,0,0-.25.751l-2.883-.009-.018-.053a2.481,2.481,0,0,1,1.085-2.175,4.864,4.864,0,0,1,3.028-.875,4.429,4.429,0,0,1,2.861.879,3.037,3.037,0,0,1,1.094,2.514v3.586A7.315,7.315,0,0,0,24.772-1.3,7.531,7.531,0,0,0,25.154,0ZM20.127-1.934a1.81,1.81,0,0,0,.962-.255,1.459,1.459,0,0,0,.584-.606V-4.052h-1.2a1.343,1.343,0,0,0-1.028.343,1.233,1.233,0,0,0-.316.87.841.841,0,0,0,.277.655A1.027,1.027,0,0,0,20.127-1.934ZM29-9.51l.114,1.336A3.443,3.443,0,0,1,30.27-9.286a2.979,2.979,0,0,1,1.529-.4,2.681,2.681,0,0,1,2.184.949,4.7,4.7,0,0,1,.787,3.015V0H31.8V-5.73a2.179,2.179,0,0,0-.29-1.288.994.994,0,0,0-.844-.382,2.088,2.088,0,0,0-.853.167,1.7,1.7,0,0,0-.633.475V0H26.218V-9.51Zm12.34,6.838a.775.775,0,0,0-.4-.628,4.313,4.313,0,0,0-1.455-.5,5.742,5.742,0,0,1-2.5-1.006,2.28,2.28,0,0,1-.844-1.876A2.674,2.674,0,0,1,37.2-8.811a4.338,4.338,0,0,1,2.856-.875,4.905,4.905,0,0,1,3.023.848,2.494,2.494,0,0,1,1.072,2.193l-.018.053H41.247a1.178,1.178,0,0,0-.281-.853,1.244,1.244,0,0,0-.923-.29,1.207,1.207,0,0,0-.782.255.8.8,0,0,0-.316.65.774.774,0,0,0,.365.642,4.126,4.126,0,0,0,1.472.475,5.914,5.914,0,0,1,2.584,1.024A2.348,2.348,0,0,1,44.2-2.76,2.519,2.519,0,0,1,43.062-.646a4.992,4.992,0,0,1-3.01.831A4.514,4.514,0,0,1,36.98-.8,2.712,2.712,0,0,1,35.9-3l.018-.053H38.61a1.192,1.192,0,0,0,.409.976,1.8,1.8,0,0,0,1.112.3,1.484,1.484,0,0,0,.905-.233A.783.783,0,0,0,41.344-2.672ZM49.157-3.92l.176,1.011.053.009.193-1.02,1.257-5.59h3.12L50.862,0H47.848L44.754-9.51h3.129Zm9.8,4.1a4.415,4.415,0,0,1-3.388-1.31,4.657,4.657,0,0,1-1.226-3.313v-.334A5.321,5.321,0,0,1,55.5-8.323a4.106,4.106,0,0,1,3.344-1.362,3.851,3.851,0,0,1,2.984,1.151,4.482,4.482,0,0,1,1.059,3.155v1.556H57.437l-.018.053a1.847,1.847,0,0,0,.554,1.208,1.934,1.934,0,0,0,1.389.461,6.019,6.019,0,0,0,1.419-.141,8.948,8.948,0,0,0,1.3-.448l.712,1.811a5.436,5.436,0,0,1-1.652.756A7.626,7.626,0,0,1,58.957.185ZM58.843-7.4a1.226,1.226,0,0,0-1.05.453A2.271,2.271,0,0,0,57.4-5.722l.018.044h2.566v-.229a1.976,1.976,0,0,0-.259-1.116A.994.994,0,0,0,58.843-7.4ZM69.4-6.979l-.967-.009A1.646,1.646,0,0,0,67.6-6.8a1.166,1.166,0,0,0-.483.532V0H64.143V-9.51h2.795l.105,1.4a2.867,2.867,0,0,1,.791-1.16,1.736,1.736,0,0,1,1.151-.413,2.209,2.209,0,0,1,.36.026,2.726,2.726,0,0,1,.334.079Zm6.047,4.307a.775.775,0,0,0-.4-.628,4.313,4.313,0,0,0-1.455-.5,5.742,5.742,0,0,1-2.5-1.006,2.28,2.28,0,0,1-.844-1.876A2.674,2.674,0,0,1,71.3-8.811a4.338,4.338,0,0,1,2.856-.875,4.905,4.905,0,0,1,3.023.848,2.494,2.494,0,0,1,1.072,2.193l-.018.053H75.349a1.178,1.178,0,0,0-.281-.853,1.244,1.244,0,0,0-.923-.29,1.207,1.207,0,0,0-.782.255.8.8,0,0,0-.316.65.774.774,0,0,0,.365.642,4.126,4.126,0,0,0,1.472.475,5.914,5.914,0,0,1,2.584,1.024A2.348,2.348,0,0,1,78.3-2.76,2.519,2.519,0,0,1,77.164-.646a4.992,4.992,0,0,1-3.01.831A4.514,4.514,0,0,1,71.082-.8,2.712,2.712,0,0,1,70-3l.018-.053h2.689a1.192,1.192,0,0,0,.409.976,1.8,1.8,0,0,0,1.112.3,1.484,1.484,0,0,0,.905-.233A.783.783,0,0,0,75.445-2.672ZM85.192-.009a3.588,3.588,0,0,1-.286-.677,5.189,5.189,0,0,1-.18-.791,3.634,3.634,0,0,1-.954,1.208,2.3,2.3,0,0,1-1.481.453,3.293,3.293,0,0,1-2.325-.769,2.717,2.717,0,0,1-.831-2.1A2.535,2.535,0,0,1,80.2-4.865a5.513,5.513,0,0,1,3.226-.769h1.222v-.677a1.355,1.355,0,0,0-.29-.932,1.13,1.13,0,0,0-.888-.325,1.071,1.071,0,0,0-.769.242,1,1,0,0,0-.25.751l-2.883-.009-.018-.053a2.481,2.481,0,0,1,1.085-2.175,4.864,4.864,0,0,1,3.028-.875,4.429,4.429,0,0,1,2.861.879,3.037,3.037,0,0,1,1.094,2.514v3.586A7.315,7.315,0,0,0,87.746-1.3,7.531,7.531,0,0,0,88.128,0ZM83.1-1.934a1.81,1.81,0,0,0,.962-.255,1.459,1.459,0,0,0,.584-.606V-4.052h-1.2a1.343,1.343,0,0,0-1.028.343,1.233,1.233,0,0,0-.316.87.841.841,0,0,0,.277.655A1.027,1.027,0,0,0,83.1-1.934ZM92.355,0H89.376V-13.711h2.979Z" transform="translate(776 5055)" fill="#12263f"/>
      <path id="Trazado_100256" data-name="Trazado 100256" d="M1.758,0V-7.312H.438V-8.453h1.32v-1.07a2.9,2.9,0,0,1,.707-2.09,2.6,2.6,0,0,1,1.973-.738,3.4,3.4,0,0,1,.535.043q.27.043.6.121l-.187,1.172q-.141-.031-.34-.055a3.579,3.579,0,0,0-.418-.023,1.215,1.215,0,0,0-1,.4A1.809,1.809,0,0,0,3.3-9.523v1.07H4.828v1.141H3.3V0ZM8.047,0H6.508V-12.187H8.047Zm5.867.164A3.576,3.576,0,0,1,11.074-1a4.48,4.48,0,0,1-1.02-3.062v-.344a4.386,4.386,0,0,1,1.051-3.012,3.3,3.3,0,0,1,2.566-1.191,3.067,3.067,0,0,1,2.543,1.055,4.345,4.345,0,0,1,.848,2.8v.813H11.656l-.023.039A3.494,3.494,0,0,0,12.2-1.832a1.965,1.965,0,0,0,1.719.793,3.872,3.872,0,0,0,1.371-.223A3.061,3.061,0,0,0,16.3-1.875l.6,1a3.7,3.7,0,0,1-1.2.738A4.762,4.762,0,0,1,13.914.164ZM13.672-7.4a1.673,1.673,0,0,0-1.332.621,2.938,2.938,0,0,0-.645,1.59l.016.039h3.813v-.125A2.462,2.462,0,0,0,15.07-6.8,1.638,1.638,0,0,0,13.672-7.4Zm7.984,2.063,1.8-3.117h1.8l-2.742,4.18L25.328,0H23.563L21.688-3.2,19.813,0H18.031l2.82-4.273-2.742-4.18h1.773ZM28.5,0H26.961V-8.453H28.5Zm0-10.617H26.961v-1.57H28.5ZM30.508-4.3a4.654,4.654,0,0,1,1.016-3.09,3.406,3.406,0,0,1,2.758-1.215A3.439,3.439,0,0,1,37.059-7.4,4.639,4.639,0,0,1,38.078-4.3v.172a4.631,4.631,0,0,1-1.016,3.094A3.429,3.429,0,0,1,34.3.164a3.436,3.436,0,0,1-2.77-1.207,4.623,4.623,0,0,1-1.02-3.09Zm1.539.172a4.009,4.009,0,0,0,.566,2.219,1.875,1.875,0,0,0,1.684.875,1.87,1.87,0,0,0,1.672-.875,3.988,3.988,0,0,0,.57-2.219V-4.3a3.976,3.976,0,0,0-.574-2.211A1.882,1.882,0,0,0,34.281-7.4a1.856,1.856,0,0,0-1.668.883A4.018,4.018,0,0,0,32.047-4.3Zm2.992-7.906h1.8l.016.047-2.1,2.031H33.594Zm6.3,3.586L41.445-7.2A3.069,3.069,0,0,1,42.5-8.238a2.824,2.824,0,0,1,1.449-.371,2.759,2.759,0,0,1,2.117.8,3.515,3.515,0,0,1,.75,2.473V0H45.281V-5.3a2.287,2.287,0,0,0-.441-1.586,1.768,1.768,0,0,0-1.348-.469,2.386,2.386,0,0,0-1.207.285,2.072,2.072,0,0,0-.785.8V0H39.961V-8.453ZM50.4-.375,49.227,2.016h-.914l.547-2.469V-1.727H50.4Zm9.289.539A3.576,3.576,0,0,1,56.848-1a4.48,4.48,0,0,1-1.02-3.062v-.344a4.386,4.386,0,0,1,1.051-3.012,3.3,3.3,0,0,1,2.566-1.191,3.067,3.067,0,0,1,2.543,1.055,4.345,4.345,0,0,1,.848,2.8v.813H57.43l-.023.039a3.494,3.494,0,0,0,.563,2.066,1.965,1.965,0,0,0,1.719.793,3.872,3.872,0,0,0,1.371-.223,3.061,3.061,0,0,0,1.012-.613l.6,1a3.7,3.7,0,0,1-1.2.738A4.762,4.762,0,0,1,59.688.164ZM59.445-7.4a1.673,1.673,0,0,0-1.332.621,2.938,2.938,0,0,0-.645,1.59l.016.039H61.3v-.125A2.462,2.462,0,0,0,60.844-6.8,1.638,1.638,0,0,0,59.445-7.4ZM67.43-5.336l1.8-3.117h1.8l-2.742,4.18L71.1,0H69.336L67.461-3.2,65.586,0H63.8l2.82-4.273-2.742-4.18h1.773Zm7.32-5.156v2.039h1.6v1.141h-1.6V-2.18A1.149,1.149,0,0,0,75-1.344a.89.89,0,0,0,.652.242,1.43,1.43,0,0,0,.3-.035,2.2,2.2,0,0,0,.273-.074L76.43-.156a1.36,1.36,0,0,1-.508.23,2.562,2.562,0,0,1-.664.09A1.993,1.993,0,0,1,73.766-.4a2.46,2.46,0,0,1-.555-1.777V-7.312H71.867V-8.453h1.344v-2.039ZM81.5.164A3.576,3.576,0,0,1,78.66-1a4.48,4.48,0,0,1-1.02-3.062v-.344a4.386,4.386,0,0,1,1.051-3.012,3.3,3.3,0,0,1,2.566-1.191A3.067,3.067,0,0,1,83.8-7.555a4.345,4.345,0,0,1,.848,2.8v.813H79.242l-.023.039a3.494,3.494,0,0,0,.563,2.066,1.965,1.965,0,0,0,1.719.793,3.872,3.872,0,0,0,1.371-.223,3.061,3.061,0,0,0,1.012-.613l.6,1a3.7,3.7,0,0,1-1.2.738A4.762,4.762,0,0,1,81.5.164ZM81.258-7.4a1.673,1.673,0,0,0-1.332.621,2.938,2.938,0,0,0-.645,1.59l.016.039h3.813v-.125A2.462,2.462,0,0,0,82.656-6.8,1.638,1.638,0,0,0,81.258-7.4ZM87.75-8.453,87.859-7.2a3.069,3.069,0,0,1,1.059-1.043,2.824,2.824,0,0,1,1.449-.371,2.759,2.759,0,0,1,2.117.8,3.515,3.515,0,0,1,.75,2.473V0H91.7V-5.3a2.287,2.287,0,0,0-.441-1.586,1.768,1.768,0,0,0-1.348-.469,2.386,2.386,0,0,0-1.207.285,2.072,2.072,0,0,0-.785.8V0H86.375V-8.453Zm12.633,6.18A1.026,1.026,0,0,0,100-3.1a3.732,3.732,0,0,0-1.465-.562,6.146,6.146,0,0,1-2.293-.9,1.814,1.814,0,0,1-.8-1.547,2.229,2.229,0,0,1,.879-1.766,3.433,3.433,0,0,1,2.277-.734,3.4,3.4,0,0,1,2.328.781,2.239,2.239,0,0,1,.852,1.82l-.016.047h-1.469a1.331,1.331,0,0,0-.48-.992A1.717,1.717,0,0,0,98.594-7.4a1.751,1.751,0,0,0-1.215.367,1.146,1.146,0,0,0-.4.875.927.927,0,0,0,.348.773,3.848,3.848,0,0,0,1.434.5,6.058,6.058,0,0,1,2.359.93,1.872,1.872,0,0,1,.8,1.57,2.226,2.226,0,0,1-.91,1.836,3.754,3.754,0,0,1-2.379.711,3.715,3.715,0,0,1-2.547-.82A2.341,2.341,0,0,1,95.2-2.57l.016-.047h1.469a1.424,1.424,0,0,0,.609,1.2,2.358,2.358,0,0,0,1.336.379,2.1,2.1,0,0,0,1.285-.348A1.063,1.063,0,0,0,100.383-2.273ZM105.5,0h-1.539V-8.453H105.5Zm0-10.617h-1.539v-1.57H105.5ZM107.508-4.3a4.654,4.654,0,0,1,1.016-3.09,3.406,3.406,0,0,1,2.758-1.215A3.439,3.439,0,0,1,114.059-7.4a4.639,4.639,0,0,1,1.02,3.094v.172a4.631,4.631,0,0,1-1.016,3.094A3.429,3.429,0,0,1,111.3.164a3.436,3.436,0,0,1-2.77-1.207,4.623,4.623,0,0,1-1.02-3.09Zm1.539.172a4.009,4.009,0,0,0,.566,2.219,1.875,1.875,0,0,0,1.684.875,1.87,1.87,0,0,0,1.672-.875,3.988,3.988,0,0,0,.57-2.219V-4.3a3.976,3.976,0,0,0-.574-2.211,1.882,1.882,0,0,0-1.684-.883,1.856,1.856,0,0,0-1.668.883,4.018,4.018,0,0,0-.566,2.211Zm2.992-7.906h1.8l.016.047-2.1,2.031h-1.156Zm6.3,3.586.109,1.258A3.069,3.069,0,0,1,119.5-8.238a2.824,2.824,0,0,1,1.449-.371,2.759,2.759,0,0,1,2.117.8,3.515,3.515,0,0,1,.75,2.473V0h-1.539V-5.3a2.287,2.287,0,0,0-.441-1.586,1.768,1.768,0,0,0-1.348-.469,2.386,2.386,0,0,0-1.207.285,2.072,2.072,0,0,0-.785.8V0h-1.539V-8.453Z" transform="translate(776 5085)" fill="#12263f"/>
    </g>
    <g id="Grupo_20791" data-name="Grupo 20791" transform="translate(0 3)">
      <path id="Trazado_13292-2" data-name="Trazado 13292" d="M0,0H444V84.734H0Z" transform="translate(691 5139)" fill="#f3f9ff"/>
      <path id="Trazado_13293-2" data-name="Trazado 13293" d="M20.5,0A20.5,20.5,0,1,1,0,20.5,20.5,20.5,0,0,1,20.5,0Z" transform="translate(704 5157.5)" fill="#7b1fa2"/>
      <rect id="Rect치ngulo_1807-2" data-name="Rect치ngulo 1807" width="444" height="5" transform="translate(691 5218.734)" fill="#895cd8"/>
      <path id="Trazado_100258" data-name="Trazado 100258" d="M5.607-3.472l.088.466h.053l.088-.431,2.54-9.36h3.111L7.339,0H4.131L0-12.8H3.1ZM16.163.185a4.415,4.415,0,0,1-3.388-1.31,4.657,4.657,0,0,1-1.226-3.313v-.334A5.321,5.321,0,0,1,12.7-8.323a4.106,4.106,0,0,1,3.344-1.362,3.851,3.851,0,0,1,2.984,1.151,4.482,4.482,0,0,1,1.059,3.155v1.556H14.643l-.018.053a1.847,1.847,0,0,0,.554,1.208,1.934,1.934,0,0,0,1.389.461,6.019,6.019,0,0,0,1.419-.141,8.948,8.948,0,0,0,1.3-.448L20-.879a5.436,5.436,0,0,1-1.652.756A7.626,7.626,0,0,1,16.163.185ZM16.049-7.4A1.226,1.226,0,0,0,15-6.948a2.271,2.271,0,0,0-.391,1.226l.018.044h2.566v-.229a1.976,1.976,0,0,0-.259-1.116A.994.994,0,0,0,16.049-7.4ZM26.6-6.979l-.967-.009A1.646,1.646,0,0,0,24.8-6.8a1.166,1.166,0,0,0-.483.532V0H21.349V-9.51h2.795l.105,1.4a2.867,2.867,0,0,1,.791-1.16,1.736,1.736,0,0,1,1.151-.413,2.209,2.209,0,0,1,.36.026,2.726,2.726,0,0,1,.334.079Zm4.649-4.9V-9.51h1.5v2.057h-1.5v4.359a1.066,1.066,0,0,0,.207.734.722.722,0,0,0,.558.224,2.986,2.986,0,0,0,.365-.018,3.158,3.158,0,0,0,.347-.07l.2,2.2a7.171,7.171,0,0,1-.809.163,6.512,6.512,0,0,1-.853.048A2.969,2.969,0,0,1,29.043-.6a3.453,3.453,0,0,1-.76-2.479V-7.453H26.956V-9.51h1.327v-2.364ZM37.31,0H34.33V-9.51H37.31Zm0-11.716H34.33v-2H37.31ZM43.2-2.1a1.162,1.162,0,0,0,.905-.33,1.373,1.373,0,0,0,.3-.954h2.707l.018.053A3.122,3.122,0,0,1,46.05-.8,4.154,4.154,0,0,1,43.2.185a4.207,4.207,0,0,1-3.344-1.34,5.111,5.111,0,0,1-1.173-3.494v-.2A5.127,5.127,0,0,1,39.85-8.341a4.176,4.176,0,0,1,3.331-1.345,4.09,4.09,0,0,1,2.9,1.006,3.471,3.471,0,0,1,1.05,2.755l-.018.053H44.4a1.84,1.84,0,0,0-.308-1.1,1.054,1.054,0,0,0-.914-.426,1.221,1.221,0,0,0-1.2.69,4.266,4.266,0,0,0-.338,1.859v.2a4.251,4.251,0,0,0,.338,1.872A1.24,1.24,0,0,0,43.2-2.1ZM53.833-.009a3.588,3.588,0,0,1-.286-.677,5.189,5.189,0,0,1-.18-.791,3.634,3.634,0,0,1-.954,1.208,2.3,2.3,0,0,1-1.481.453,3.293,3.293,0,0,1-2.325-.769,2.717,2.717,0,0,1-.831-2.1,2.535,2.535,0,0,1,1.063-2.184,5.513,5.513,0,0,1,3.226-.769h1.222v-.677A1.355,1.355,0,0,0,53-7.242a1.13,1.13,0,0,0-.888-.325,1.071,1.071,0,0,0-.769.242,1,1,0,0,0-.25.751l-2.883-.009-.018-.053a2.481,2.481,0,0,1,1.085-2.175A4.864,4.864,0,0,1,52.3-9.686a4.429,4.429,0,0,1,2.861.879,3.037,3.037,0,0,1,1.094,2.514v3.586A7.315,7.315,0,0,0,56.386-1.3,7.531,7.531,0,0,0,56.769,0ZM51.741-1.934a1.81,1.81,0,0,0,.962-.255,1.459,1.459,0,0,0,.584-.606V-4.052h-1.2a1.343,1.343,0,0,0-1.028.343,1.233,1.233,0,0,0-.316.87.841.841,0,0,0,.277.655A1.027,1.027,0,0,0,51.741-1.934ZM61,0H58.017V-13.711H61Zm9.413,0H67.43V-13.711h2.979Zm1.424-4.843a5.027,5.027,0,0,1,1.213-3.494A4.317,4.317,0,0,1,76.43-9.686a4.327,4.327,0,0,1,3.393,1.349,5.027,5.027,0,0,1,1.213,3.494v.185a5.023,5.023,0,0,1-1.213,3.5A4.313,4.313,0,0,1,76.447.185a4.346,4.346,0,0,1-3.4-1.345,5.023,5.023,0,0,1-1.213-3.5Zm2.971.185a3.932,3.932,0,0,0,.374,1.876,1.329,1.329,0,0,0,1.27.681A1.313,1.313,0,0,0,77.7-2.786a3.9,3.9,0,0,0,.378-1.872v-.185A3.912,3.912,0,0,0,77.7-6.7a1.324,1.324,0,0,0-1.266-.7,1.305,1.305,0,0,0-1.252.7A3.956,3.956,0,0,0,74.8-4.843ZM85.078-9.51l.114,1.336a3.443,3.443,0,0,1,1.151-1.112,2.979,2.979,0,0,1,1.529-.4,2.681,2.681,0,0,1,2.184.949,4.7,4.7,0,0,1,.787,3.015V0H87.873V-5.73a2.179,2.179,0,0,0-.29-1.288.994.994,0,0,0-.844-.382,2.088,2.088,0,0,0-.853.167,1.7,1.7,0,0,0-.633.475V0H82.292V-9.51Zm6.979,4.772a6.047,6.047,0,0,1,.971-3.586,3.167,3.167,0,0,1,2.738-1.362,2.441,2.441,0,0,1,1.318.356,3.142,3.142,0,0,1,.984,1.006l.193-1.187h2.619v9.4a3.522,3.522,0,0,1-1.288,2.914,5.52,5.52,0,0,1-3.546,1.033,6.378,6.378,0,0,1-1.547-.2,8.64,8.64,0,0,1-1.547-.545l.51-2.2a7.061,7.061,0,0,0,1.226.417,5.936,5.936,0,0,0,1.34.136,2.2,2.2,0,0,0,1.411-.378,1.457,1.457,0,0,0,.461-1.2V-.861a2.716,2.716,0,0,1-.936.782,2.7,2.7,0,0,1-1.217.264,3.2,3.2,0,0,1-2.725-1.3,5.623,5.623,0,0,1-.967-3.437Zm2.962.185a3.949,3.949,0,0,0,.338,1.806A1.19,1.19,0,0,0,96.5-2.1a2.093,2.093,0,0,0,.831-.149A1.355,1.355,0,0,0,97.9-2.7v-4a1.479,1.479,0,0,0-.562-.523,1.735,1.735,0,0,0-.817-.18,1.194,1.194,0,0,0-1.147.734,4.448,4.448,0,0,0-.356,1.929ZM105.688,0h-2.979V-9.51h2.979Zm0-11.716h-2.979v-2h2.979Zm5.229-.158V-9.51h1.5v2.057h-1.5v4.359a1.066,1.066,0,0,0,.207.734.722.722,0,0,0,.558.224,2.986,2.986,0,0,0,.365-.018,3.158,3.158,0,0,0,.347-.07l.2,2.2a7.171,7.171,0,0,1-.809.163,6.512,6.512,0,0,1-.853.048A2.969,2.969,0,0,1,108.708-.6a3.453,3.453,0,0,1-.76-2.479V-7.453H106.62V-9.51h1.327v-2.364Zm8.675,10.45A3.126,3.126,0,0,1,118.5-.233a2.88,2.88,0,0,1-1.551.417,2.816,2.816,0,0,1-2.316-1.037,5.056,5.056,0,0,1-.839-3.208V-9.51h2.962v5.467a2.884,2.884,0,0,0,.286,1.529,1,1,0,0,0,.883.413,2.425,2.425,0,0,0,.835-.132,1.614,1.614,0,0,0,.615-.4V-9.51h2.971V0h-2.391Zm3.99-3.313a6.047,6.047,0,0,1,.971-3.586,3.167,3.167,0,0,1,2.738-1.362,2.361,2.361,0,0,1,1.191.3,3.15,3.15,0,0,1,.954.866v-5.194h2.971V0h-2.6l-.2-1.16a3.2,3.2,0,0,1-1.006,1,2.511,2.511,0,0,1-1.323.347,3.2,3.2,0,0,1-2.725-1.3,5.623,5.623,0,0,1-.967-3.437Zm2.971.185a3.949,3.949,0,0,0,.338,1.806,1.182,1.182,0,0,0,1.138.646,1.873,1.873,0,0,0,.822-.171,1.472,1.472,0,0,0,.584-.505V-6.618a1.618,1.618,0,0,0-.58-.58,1.593,1.593,0,0,0-.809-.2,1.186,1.186,0,0,0-1.143.729,4.49,4.49,0,0,0-.352,1.934ZM137.206,0h-2.979V-9.51h2.979Zm0-11.716h-2.979v-2h2.979Zm4.553,2.206.114,1.336a3.443,3.443,0,0,1,1.151-1.112,2.979,2.979,0,0,1,1.529-.4,2.681,2.681,0,0,1,2.184.949,4.7,4.7,0,0,1,.787,3.015V0h-2.971V-5.73a2.179,2.179,0,0,0-.29-1.288.994.994,0,0,0-.844-.382,2.088,2.088,0,0,0-.853.167,1.7,1.7,0,0,0-.633.475V0h-2.962V-9.51Zm12.876,9.5a3.588,3.588,0,0,1-.286-.677,5.189,5.189,0,0,1-.18-.791,3.634,3.634,0,0,1-.954,1.208,2.3,2.3,0,0,1-1.481.453,3.293,3.293,0,0,1-2.325-.769,2.717,2.717,0,0,1-.831-2.1,2.535,2.535,0,0,1,1.063-2.184,5.513,5.513,0,0,1,3.226-.769h1.222v-.677a1.355,1.355,0,0,0-.29-.932,1.13,1.13,0,0,0-.888-.325,1.071,1.071,0,0,0-.769.242,1,1,0,0,0-.25.751l-2.883-.009-.018-.053a2.481,2.481,0,0,1,1.085-2.175,4.864,4.864,0,0,1,3.028-.875,4.429,4.429,0,0,1,2.861.879,3.037,3.037,0,0,1,1.094,2.514v3.586a7.315,7.315,0,0,0,.127,1.406A7.531,7.531,0,0,0,157.57,0Zm-2.092-1.925a1.81,1.81,0,0,0,.962-.255,1.459,1.459,0,0,0,.584-.606V-4.052h-1.2a1.343,1.343,0,0,0-1.028.343,1.233,1.233,0,0,0-.316.87.841.841,0,0,0,.277.655A1.027,1.027,0,0,0,152.543-1.934ZM161.8,0h-2.979V-13.711H161.8Z" transform="translate(776 5170)" fill="#12263f"/>
      <path id="Trazado_100259" data-name="Trazado 100259" d="M16.3,0H1.479V-3.223L8.042-10.43A14.172,14.172,0,0,0,9.976-13.1a4.533,4.533,0,0,0,.615-2.036,3.159,3.159,0,0,0-.557-1.97,2.111,2.111,0,0,0-1.787-.725,2.042,2.042,0,0,0-1.794.945,4.223,4.223,0,0,0-.637,2.41H.967l-.029-.088a6.64,6.64,0,0,1,1.948-5.017,7.176,7.176,0,0,1,5.361-2.058,7.784,7.784,0,0,1,5.405,1.721,6.064,6.064,0,0,1,1.9,4.739A6.243,6.243,0,0,1,14.5-11.594a44.738,44.738,0,0,1-3.867,4.607L8.042-3.882l.029.073H16.3Z" transform="translate(716 5188)" fill="#fff"/>
      <path id="Trazado_100257" data-name="Trazado 100257" d="M5.117-7.094l-.789-.047A1.762,1.762,0,0,0,3.3-6.852a1.854,1.854,0,0,0-.645.813V0H1.117V-8.453H2.492l.148,1.234a2.934,2.934,0,0,1,.887-1.023,2.073,2.073,0,0,1,1.215-.367,1.9,1.9,0,0,1,.328.027,2.175,2.175,0,0,1,.258.059ZM6.2-4.3a4.654,4.654,0,0,1,1.016-3.09A3.406,3.406,0,0,1,9.977-8.609,3.439,3.439,0,0,1,12.754-7.4,4.639,4.639,0,0,1,13.773-4.3v.172a4.631,4.631,0,0,1-1.016,3.094A3.429,3.429,0,0,1,9.992.164a3.436,3.436,0,0,1-2.77-1.207A4.623,4.623,0,0,1,6.2-4.133Zm1.539.172a4.009,4.009,0,0,0,.566,2.219,1.875,1.875,0,0,0,1.684.875,1.87,1.87,0,0,0,1.672-.875,3.988,3.988,0,0,0,.57-2.219V-4.3a3.976,3.976,0,0,0-.574-2.211A1.882,1.882,0,0,0,9.977-7.4a1.856,1.856,0,0,0-1.668.883A4.018,4.018,0,0,0,7.742-4.3ZM17.8-10.492v2.039h1.6v1.141H17.8V-2.18a1.149,1.149,0,0,0,.246.836A.89.89,0,0,0,18.7-1.1a1.429,1.429,0,0,0,.3-.035,2.2,2.2,0,0,0,.273-.074l.211,1.055a1.36,1.36,0,0,1-.508.23,2.562,2.562,0,0,1-.664.09A1.993,1.993,0,0,1,16.813-.4a2.46,2.46,0,0,1-.555-1.777V-7.312H14.914V-8.453h1.344v-2.039ZM26.242,0q-.078-.383-.121-.676a4.96,4.96,0,0,1-.051-.59,3.589,3.589,0,0,1-1.121,1.02,2.867,2.867,0,0,1-1.488.41,2.763,2.763,0,0,1-2.012-.676,2.486,2.486,0,0,1-.691-1.863,2.183,2.183,0,0,1,.98-1.895,4.579,4.579,0,0,1,2.66-.684H26.07v-.836a1.551,1.551,0,0,0-.453-1.176A1.779,1.779,0,0,0,24.336-7.4a1.859,1.859,0,0,0-1.211.375,1.125,1.125,0,0,0-.461.9L21.2-6.109l-.016-.047a2.023,2.023,0,0,1,.863-1.687,3.578,3.578,0,0,1,2.371-.766,3.49,3.49,0,0,1,2.313.73,2.588,2.588,0,0,1,.875,2.105V-1.7a7.923,7.923,0,0,0,.047.875A4.5,4.5,0,0,0,27.828,0ZM23.688-1.125a2.739,2.739,0,0,0,1.508-.43,2.042,2.042,0,0,0,.875-.984V-3.914H24.344a2.24,2.24,0,0,0-1.488.469,1.4,1.4,0,0,0-.559,1.1,1.159,1.159,0,0,0,.352.891A1.472,1.472,0,0,0,23.688-1.125Zm9.516.086a1.81,1.81,0,0,0,1.242-.473,1.494,1.494,0,0,0,.531-1.16h1.391l.023.047a2.428,2.428,0,0,1-.937,1.941A3.312,3.312,0,0,1,33.2.164a3.319,3.319,0,0,1-2.75-1.211,4.674,4.674,0,0,1-.969-3.016v-.328a4.654,4.654,0,0,1,.973-3A3.317,3.317,0,0,1,33.2-8.609a3.189,3.189,0,0,1,2.316.875,2.775,2.775,0,0,1,.871,2.148l-.016.047h-1.4a1.865,1.865,0,0,0-.5-1.316A1.658,1.658,0,0,0,33.2-7.4a1.777,1.777,0,0,0-1.652.879,4.114,4.114,0,0,0-.52,2.129v.328a4.192,4.192,0,0,0,.512,2.148A1.776,1.776,0,0,0,33.2-1.039ZM39.883,0H38.344V-8.453h1.539Zm0-10.617H38.344v-1.57h1.539ZM41.891-4.3a4.654,4.654,0,0,1,1.016-3.09,3.406,3.406,0,0,1,2.758-1.215A3.439,3.439,0,0,1,48.441-7.4,4.639,4.639,0,0,1,49.461-4.3v.172a4.631,4.631,0,0,1-1.016,3.094A3.429,3.429,0,0,1,45.68.164a3.436,3.436,0,0,1-2.77-1.207,4.623,4.623,0,0,1-1.02-3.09Zm1.539.172A4.009,4.009,0,0,0,44-1.914a1.875,1.875,0,0,0,1.684.875,1.87,1.87,0,0,0,1.672-.875,3.988,3.988,0,0,0,.57-2.219V-4.3a3.976,3.976,0,0,0-.574-2.211A1.882,1.882,0,0,0,45.664-7.4,1.856,1.856,0,0,0,44-6.516,4.018,4.018,0,0,0,43.43-4.3Zm2.992-7.906h1.8l.016.047-2.1,2.031H44.977Zm6.3,3.586L52.828-7.2a3.069,3.069,0,0,1,1.059-1.043,2.824,2.824,0,0,1,1.449-.371,2.759,2.759,0,0,1,2.117.8,3.515,3.515,0,0,1,.75,2.473V0H56.664V-5.3a2.287,2.287,0,0,0-.441-1.586,1.768,1.768,0,0,0-1.348-.469,2.386,2.386,0,0,0-1.207.285,2.072,2.072,0,0,0-.785.8V0H51.344V-8.453ZM66.078,0H64.539V-8.453h1.539Zm0-10.617H64.539v-1.57h1.539ZM69.82-8.453,69.93-7.2a3.069,3.069,0,0,1,1.059-1.043,2.824,2.824,0,0,1,1.449-.371,2.759,2.759,0,0,1,2.117.8,3.515,3.515,0,0,1,.75,2.473V0H73.766V-5.3a2.287,2.287,0,0,0-.441-1.586,1.768,1.768,0,0,0-1.348-.469,2.386,2.386,0,0,0-1.207.285,2.072,2.072,0,0,0-.785.8V0H68.445V-8.453Zm9.859-2.039v2.039h1.6v1.141h-1.6V-2.18a1.149,1.149,0,0,0,.246.836.89.89,0,0,0,.652.242,1.43,1.43,0,0,0,.3-.035,2.2,2.2,0,0,0,.273-.074l.211,1.055a1.36,1.36,0,0,1-.508.23,2.562,2.562,0,0,1-.664.09A1.993,1.993,0,0,1,78.7-.4a2.46,2.46,0,0,1-.555-1.777V-7.312H76.8V-8.453h1.344v-2.039ZM86.43.164A3.576,3.576,0,0,1,83.59-1a4.48,4.48,0,0,1-1.02-3.062v-.344a4.386,4.386,0,0,1,1.051-3.012,3.3,3.3,0,0,1,2.566-1.191A3.067,3.067,0,0,1,88.73-7.555a4.345,4.345,0,0,1,.848,2.8v.813H84.172l-.023.039a3.494,3.494,0,0,0,.563,2.066,1.965,1.965,0,0,0,1.719.793A3.872,3.872,0,0,0,87.8-1.262a3.061,3.061,0,0,0,1.012-.613l.6,1a3.7,3.7,0,0,1-1.2.738A4.762,4.762,0,0,1,86.43.164ZM86.188-7.4a1.673,1.673,0,0,0-1.332.621,2.938,2.938,0,0,0-.645,1.59l.016.039h3.813v-.125A2.462,2.462,0,0,0,87.586-6.8,1.638,1.638,0,0,0,86.188-7.4Zm9.117.3-.789-.047a1.762,1.762,0,0,0-1.027.289,1.854,1.854,0,0,0-.645.813V0H91.3V-8.453H92.68l.148,1.234a2.934,2.934,0,0,1,.887-1.023,2.073,2.073,0,0,1,1.215-.367,1.9,1.9,0,0,1,.328.027,2.175,2.175,0,0,1,.258.059Zm2.977-1.359L98.391-7.2a3.069,3.069,0,0,1,1.059-1.043,2.824,2.824,0,0,1,1.449-.371,2.759,2.759,0,0,1,2.117.8,3.515,3.515,0,0,1,.75,2.473V0h-1.539V-5.3a2.287,2.287,0,0,0-.441-1.586,1.768,1.768,0,0,0-1.348-.469,2.386,2.386,0,0,0-1.207.285,2.072,2.072,0,0,0-.785.8V0H96.906V-8.453ZM111.2,0q-.078-.383-.121-.676a4.96,4.96,0,0,1-.051-.59A3.589,3.589,0,0,1,109.9-.246a2.867,2.867,0,0,1-1.488.41A2.763,2.763,0,0,1,106.4-.512a2.486,2.486,0,0,1-.691-1.863,2.183,2.183,0,0,1,.98-1.895,4.579,4.579,0,0,1,2.66-.684h1.672v-.836a1.551,1.551,0,0,0-.453-1.176,1.779,1.779,0,0,0-1.281-.434,1.859,1.859,0,0,0-1.211.375,1.125,1.125,0,0,0-.461.9l-1.461.016-.016-.047A2.023,2.023,0,0,1,107-7.844a3.578,3.578,0,0,1,2.371-.766,3.49,3.49,0,0,1,2.313.73,2.588,2.588,0,0,1,.875,2.105V-1.7a7.923,7.923,0,0,0,.047.875,4.5,4.5,0,0,0,.172.828Zm-2.555-1.125a2.739,2.739,0,0,0,1.508-.43,2.042,2.042,0,0,0,.875-.984V-3.914H109.3a2.24,2.24,0,0,0-1.488.469,1.4,1.4,0,0,0-.559,1.1,1.159,1.159,0,0,0,.352.891A1.472,1.472,0,0,0,108.641-1.125Zm12.719-2.008.273,1.063h.047l2.078-6.383h1.711L121.914,1.3A4.383,4.383,0,0,1,121,2.781a2.113,2.113,0,0,1-1.613.633,3.363,3.363,0,0,1-.477-.043q-.289-.043-.445-.082l.156-1.211a2.062,2.062,0,0,1,.277.016q.324.023.41.023a.95.95,0,0,0,.8-.437,4.542,4.542,0,0,0,.523-.969L121-.172l-3.141-8.281h1.719ZM134.3.164A3.576,3.576,0,0,1,131.457-1a4.48,4.48,0,0,1-1.02-3.062v-.344a4.386,4.386,0,0,1,1.051-3.012,3.3,3.3,0,0,1,2.566-1.191A3.067,3.067,0,0,1,136.6-7.555a4.345,4.345,0,0,1,.848,2.8v.813h-5.406l-.023.039a3.494,3.494,0,0,0,.563,2.066,1.965,1.965,0,0,0,1.719.793,3.872,3.872,0,0,0,1.371-.223,3.061,3.061,0,0,0,1.012-.613l.6,1a3.7,3.7,0,0,1-1.2.738A4.762,4.762,0,0,1,134.3.164ZM134.055-7.4a1.673,1.673,0,0,0-1.332.621,2.938,2.938,0,0,0-.645,1.59l.016.039h3.813v-.125a2.462,2.462,0,0,0-.453-1.523A1.638,1.638,0,0,0,134.055-7.4Zm7.984,2.063,1.8-3.117h1.8l-2.742,4.18L145.711,0h-1.766L142.07-3.2,140.2,0h-1.781l2.82-4.273-2.742-4.18h1.773Zm7.32-5.156v2.039h1.6v1.141h-1.6V-2.18a1.149,1.149,0,0,0,.246.836.89.89,0,0,0,.652.242,1.429,1.429,0,0,0,.3-.035,2.2,2.2,0,0,0,.273-.074l.211,1.055a1.36,1.36,0,0,1-.508.23,2.562,2.562,0,0,1-.664.09A1.993,1.993,0,0,1,148.375-.4a2.46,2.46,0,0,1-.555-1.777V-7.312h-1.344V-8.453h1.344v-2.039ZM156.109.164A3.576,3.576,0,0,1,153.27-1a4.48,4.48,0,0,1-1.02-3.062v-.344A4.386,4.386,0,0,1,153.3-7.418a3.3,3.3,0,0,1,2.566-1.191,3.067,3.067,0,0,1,2.543,1.055,4.345,4.345,0,0,1,.848,2.8v.813h-5.406l-.023.039a3.494,3.494,0,0,0,.563,2.066,1.965,1.965,0,0,0,1.719.793,3.872,3.872,0,0,0,1.371-.223,3.061,3.061,0,0,0,1.012-.613l.6,1a3.7,3.7,0,0,1-1.2.738A4.762,4.762,0,0,1,156.109.164ZM155.867-7.4a1.673,1.673,0,0,0-1.332.621,2.938,2.938,0,0,0-.645,1.59l.016.039h3.813v-.125a2.462,2.462,0,0,0-.453-1.523A1.638,1.638,0,0,0,155.867-7.4Zm9.117.3-.789-.047a1.762,1.762,0,0,0-1.027.289,1.855,1.855,0,0,0-.645.813V0h-1.539V-8.453h1.375l.148,1.234a2.934,2.934,0,0,1,.887-1.023,2.073,2.073,0,0,1,1.215-.367,1.9,1.9,0,0,1,.328.027,2.174,2.174,0,0,1,.258.059Zm2.977-1.359L168.07-7.2a3.069,3.069,0,0,1,1.059-1.043,2.824,2.824,0,0,1,1.449-.371,2.759,2.759,0,0,1,2.117.8,3.515,3.515,0,0,1,.75,2.473V0h-1.539V-5.3a2.287,2.287,0,0,0-.441-1.586,1.768,1.768,0,0,0-1.348-.469,2.386,2.386,0,0,0-1.207.285,2.072,2.072,0,0,0-.785.8V0h-1.539V-8.453ZM180.875,0q-.078-.383-.121-.676a4.96,4.96,0,0,1-.051-.59,3.588,3.588,0,0,1-1.121,1.02,2.867,2.867,0,0,1-1.488.41,2.763,2.763,0,0,1-2.012-.676,2.486,2.486,0,0,1-.691-1.863,2.183,2.183,0,0,1,.98-1.895,4.579,4.579,0,0,1,2.66-.684H180.7v-.836a1.551,1.551,0,0,0-.453-1.176,1.779,1.779,0,0,0-1.281-.434,1.859,1.859,0,0,0-1.211.375,1.125,1.125,0,0,0-.461.9l-1.461.016-.016-.047a2.023,2.023,0,0,1,.863-1.687,3.578,3.578,0,0,1,2.371-.766,3.49,3.49,0,0,1,2.313.73,2.588,2.588,0,0,1,.875,2.105V-1.7a7.923,7.923,0,0,0,.047.875,4.5,4.5,0,0,0,.172.828ZM178.32-1.125a2.739,2.739,0,0,0,1.508-.43,2.042,2.042,0,0,0,.875-.984V-3.914h-1.727a2.24,2.24,0,0,0-1.488.469,1.4,1.4,0,0,0-.559,1.1,1.159,1.159,0,0,0,.352.891A1.472,1.472,0,0,0,178.32-1.125Z" transform="translate(776 5200)" fill="#12263f"/>
    </g>
    <g id="Grupo_20792" data-name="Grupo 20792" transform="translate(0 49)">
      <path id="Trazado_13292-3" data-name="Trazado 13292" d="M0,0H444V84.734H0Z" transform="translate(691 5254)" fill="#f3f9ff"/>
      <path id="Trazado_13293-3" data-name="Trazado 13293" d="M20.5,0A20.5,20.5,0,1,1,0,20.5,20.5,20.5,0,0,1,20.5,0Z" transform="translate(704 5272.5)" fill="#7b1fa2"/>
      <rect id="Rect치ngulo_1807-3" data-name="Rect치ngulo 1807" width="444" height="5" transform="translate(691 5333.734)" fill="#895cd8"/>
      <path id="Trazado_100262" data-name="Trazado 100262" d="M8.467-12.729a2.775,2.775,0,0,0,2.051-.718,2.693,2.693,0,0,0,.718-1.992,2.246,2.246,0,0,0-.732-1.692,2.753,2.753,0,0,0-1.978-.7,2.383,2.383,0,0,0-1.589.549,1.8,1.8,0,0,0-.652,1.443h-4.8l-.029-.088a4.723,4.723,0,0,1,2-4.131,8.159,8.159,0,0,1,5.076-1.582,8.946,8.946,0,0,1,5.559,1.589,5.329,5.329,0,0,1,2.087,4.5,4.452,4.452,0,0,1-.879,2.666,6,6,0,0,1-2.388,1.919,5.588,5.588,0,0,1,2.666,1.9,5.039,5.039,0,0,1,.938,3.083A5.433,5.433,0,0,1,14.26-1.37,9.334,9.334,0,0,1,8.525.308,8.847,8.847,0,0,1,3.281-1.267,5.076,5.076,0,0,1,1.128-5.83l.029-.088H5.977a2.3,2.3,0,0,0,.718,1.729A2.537,2.537,0,0,0,8.525-3.5a3.232,3.232,0,0,0,2.19-.74,2.332,2.332,0,0,0,.857-1.838,2.856,2.856,0,0,0-.813-2.263,3.373,3.373,0,0,0-2.292-.71H6.123v-3.677Z" transform="translate(716 5303)" fill="#fff"/>
      <path id="Trazado_100260" data-name="Trazado 100260" d="M7.717-2.487H3.911L3.173,0H.044L4.219-12.8H5.81v.009l.009-.009H7.409L11.593,0H8.464ZM4.6-4.772H7.031l-1.2-3.973H5.783ZM14.643-9.51l.114,1.336a3.443,3.443,0,0,1,1.151-1.112,2.979,2.979,0,0,1,1.529-.4,2.681,2.681,0,0,1,2.184.949,4.7,4.7,0,0,1,.787,3.015V0H17.438V-5.73a2.179,2.179,0,0,0-.29-1.288A.994.994,0,0,0,16.3-7.4a2.088,2.088,0,0,0-.853.167,1.7,1.7,0,0,0-.633.475V0H11.856V-9.51Zm10.793-2.364V-9.51h1.5v2.057h-1.5v4.359a1.066,1.066,0,0,0,.207.734.722.722,0,0,0,.558.224,2.986,2.986,0,0,0,.365-.018,3.158,3.158,0,0,0,.347-.07l.2,2.2a7.171,7.171,0,0,1-.809.163,6.512,6.512,0,0,1-.853.048A2.969,2.969,0,0,1,23.225-.6a3.453,3.453,0,0,1-.76-2.479V-7.453H21.138V-9.51h1.327v-2.364ZM32.6.185a4.415,4.415,0,0,1-3.388-1.31,4.657,4.657,0,0,1-1.226-3.313v-.334A5.321,5.321,0,0,1,29.14-8.323a4.106,4.106,0,0,1,3.344-1.362,3.851,3.851,0,0,1,2.984,1.151,4.482,4.482,0,0,1,1.059,3.155v1.556H31.078l-.018.053a1.847,1.847,0,0,0,.554,1.208A1.934,1.934,0,0,0,33-2.1a6.019,6.019,0,0,0,1.419-.141,8.948,8.948,0,0,0,1.3-.448l.712,1.811a5.436,5.436,0,0,1-1.652.756A7.626,7.626,0,0,1,32.6.185ZM32.484-7.4a1.226,1.226,0,0,0-1.05.453,2.271,2.271,0,0,0-.391,1.226l.018.044h2.566v-.229a1.976,1.976,0,0,0-.259-1.116A.994.994,0,0,0,32.484-7.4Zm10.556.422-.967-.009a1.646,1.646,0,0,0-.835.189,1.166,1.166,0,0,0-.483.532V0H37.784V-9.51h2.795l.105,1.4a2.867,2.867,0,0,1,.791-1.16,1.736,1.736,0,0,1,1.151-.413,2.209,2.209,0,0,1,.36.026,2.726,2.726,0,0,1,.334.079Zm.519,2.136a5.027,5.027,0,0,1,1.213-3.494,4.317,4.317,0,0,1,3.384-1.349,4.327,4.327,0,0,1,3.393,1.349,5.027,5.027,0,0,1,1.213,3.494v.185a5.023,5.023,0,0,1-1.213,3.5A4.313,4.313,0,0,1,48.173.185a4.346,4.346,0,0,1-3.4-1.345,5.023,5.023,0,0,1-1.213-3.5Zm2.971.185A3.932,3.932,0,0,0,46.9-2.782a1.329,1.329,0,0,0,1.27.681,1.313,1.313,0,0,0,1.248-.686A3.9,3.9,0,0,0,49.8-4.658v-.185A3.912,3.912,0,0,0,49.421-6.7a1.324,1.324,0,0,0-1.266-.7,1.305,1.305,0,0,0-1.252.7,3.956,3.956,0,0,0-.374,1.854Zm16.348.105a5.619,5.619,0,0,1-.967,3.441,3.2,3.2,0,0,1-2.725,1.3,2.7,2.7,0,0,1-1.217-.264,2.71,2.71,0,0,1-.927-.765v4.5H54.07V-9.51h2.8l.088,1.037a2.89,2.89,0,0,1,.945-.9,2.481,2.481,0,0,1,1.261-.316,3.167,3.167,0,0,1,2.738,1.362,6.047,6.047,0,0,1,.971,3.586Zm-2.962-.185a4.49,4.49,0,0,0-.352-1.934A1.173,1.173,0,0,0,58.438-7.4a1.788,1.788,0,0,0-.848.185,1.362,1.362,0,0,0-.549.536v3.973a1.273,1.273,0,0,0,.558.457,2.17,2.17,0,0,0,.857.149,1.168,1.168,0,0,0,1.121-.646,3.949,3.949,0,0,0,.338-1.806Zm3.876-.105A5.027,5.027,0,0,1,65-8.336a4.317,4.317,0,0,1,3.384-1.349A4.327,4.327,0,0,1,71.78-8.336a5.027,5.027,0,0,1,1.213,3.494v.185a5.023,5.023,0,0,1-1.213,3.5A4.313,4.313,0,0,1,68.405.185,4.346,4.346,0,0,1,65-1.16a5.023,5.023,0,0,1-1.213-3.5Zm2.971.185a3.932,3.932,0,0,0,.374,1.876,1.329,1.329,0,0,0,1.27.681,1.313,1.313,0,0,0,1.248-.686,3.9,3.9,0,0,0,.378-1.872v-.185A3.912,3.912,0,0,0,69.653-6.7a1.324,1.324,0,0,0-1.266-.7,1.305,1.305,0,0,0-1.252.7,3.956,3.956,0,0,0-.374,1.854Zm12.5,1.986a.775.775,0,0,0-.4-.628,4.313,4.313,0,0,0-1.455-.5A5.742,5.742,0,0,1,74.9-4.8a2.28,2.28,0,0,1-.844-1.876,2.674,2.674,0,0,1,1.055-2.131,4.338,4.338,0,0,1,2.856-.875,4.905,4.905,0,0,1,3.023.848,2.494,2.494,0,0,1,1.072,2.193l-.018.053H79.163a1.178,1.178,0,0,0-.281-.853,1.244,1.244,0,0,0-.923-.29,1.207,1.207,0,0,0-.782.255.8.8,0,0,0-.316.65.774.774,0,0,0,.365.642,4.126,4.126,0,0,0,1.472.475,5.914,5.914,0,0,1,2.584,1.024,2.348,2.348,0,0,1,.835,1.929A2.519,2.519,0,0,1,80.978-.646a4.992,4.992,0,0,1-3.01.831A4.514,4.514,0,0,1,74.9-.8,2.712,2.712,0,0,1,73.819-3l.018-.053h2.689a1.192,1.192,0,0,0,.409.976,1.8,1.8,0,0,0,1.112.3,1.484,1.484,0,0,0,.905-.233A.783.783,0,0,0,79.26-2.672Zm7.664-9.2V-9.51h1.5v2.057h-1.5v4.359a1.066,1.066,0,0,0,.207.734.722.722,0,0,0,.558.224,2.986,2.986,0,0,0,.365-.018,3.158,3.158,0,0,0,.347-.07l.2,2.2a7.171,7.171,0,0,1-.809.163,6.512,6.512,0,0,1-.853.048A2.969,2.969,0,0,1,84.713-.6a3.453,3.453,0,0,1-.76-2.479V-7.453H82.626V-9.51h1.327v-2.364ZM94.087.185A4.415,4.415,0,0,1,90.7-1.125a4.657,4.657,0,0,1-1.226-3.313v-.334a5.321,5.321,0,0,1,1.156-3.551,4.106,4.106,0,0,1,3.344-1.362,3.851,3.851,0,0,1,2.984,1.151,4.482,4.482,0,0,1,1.059,3.155v1.556H92.566l-.018.053A1.847,1.847,0,0,0,93.1-2.562a1.934,1.934,0,0,0,1.389.461,6.019,6.019,0,0,0,1.419-.141,8.948,8.948,0,0,0,1.3-.448l.712,1.811a5.436,5.436,0,0,1-1.652.756A7.626,7.626,0,0,1,94.087.185ZM93.973-7.4a1.226,1.226,0,0,0-1.05.453,2.271,2.271,0,0,0-.391,1.226l.018.044h2.566v-.229a1.976,1.976,0,0,0-.259-1.116A.994.994,0,0,0,93.973-7.4Zm10.556.422-.967-.009a1.646,1.646,0,0,0-.835.189,1.166,1.166,0,0,0-.483.532V0H99.272V-9.51h2.795l.105,1.4a2.867,2.867,0,0,1,.791-1.16,1.736,1.736,0,0,1,1.151-.413,2.209,2.209,0,0,1,.36.026,2.726,2.726,0,0,1,.334.079ZM108.729,0H105.75V-9.51h2.979Zm0-11.716H105.75v-2h2.979Zm1.424,6.873a5.027,5.027,0,0,1,1.213-3.494,4.317,4.317,0,0,1,3.384-1.349,4.327,4.327,0,0,1,3.393,1.349,5.027,5.027,0,0,1,1.213,3.494v.185a5.023,5.023,0,0,1-1.213,3.5A4.313,4.313,0,0,1,114.768.185a4.346,4.346,0,0,1-3.4-1.345,5.023,5.023,0,0,1-1.213-3.5Zm2.971.185a3.932,3.932,0,0,0,.374,1.876,1.329,1.329,0,0,0,1.27.681,1.313,1.313,0,0,0,1.248-.686,3.9,3.9,0,0,0,.378-1.872v-.185a3.912,3.912,0,0,0-.378-1.859,1.324,1.324,0,0,0-1.266-.7,1.305,1.305,0,0,0-1.252.7,3.956,3.956,0,0,0-.374,1.854Zm12.8-2.32-.967-.009a1.646,1.646,0,0,0-.835.189,1.166,1.166,0,0,0-.483.532V0h-2.971V-9.51h2.795l.105,1.4a2.867,2.867,0,0,1,.791-1.16,1.736,1.736,0,0,1,1.151-.413,2.209,2.209,0,0,1,.36.026,2.726,2.726,0,0,1,.334.079Z" transform="translate(776 5285)" fill="#12263f"/>
      <path id="Trazado_100261" data-name="Trazado 100261" d="M6.313,0q-.078-.383-.121-.676a4.96,4.96,0,0,1-.051-.59A3.589,3.589,0,0,1,5.02-.246a2.867,2.867,0,0,1-1.488.41A2.763,2.763,0,0,1,1.52-.512,2.486,2.486,0,0,1,.828-2.375a2.183,2.183,0,0,1,.98-1.895,4.579,4.579,0,0,1,2.66-.684H6.141v-.836a1.551,1.551,0,0,0-.453-1.176A1.779,1.779,0,0,0,4.406-7.4,1.859,1.859,0,0,0,3.2-7.023a1.125,1.125,0,0,0-.461.9l-1.461.016-.016-.047a2.023,2.023,0,0,1,.863-1.687,3.578,3.578,0,0,1,2.371-.766,3.49,3.49,0,0,1,2.313.73A2.588,2.588,0,0,1,7.68-5.773V-1.7a7.923,7.923,0,0,0,.047.875A4.5,4.5,0,0,0,7.9,0ZM3.758-1.125a2.739,2.739,0,0,0,1.508-.43,2.042,2.042,0,0,0,.875-.984V-3.914H4.414a2.24,2.24,0,0,0-1.488.469,1.4,1.4,0,0,0-.559,1.1,1.159,1.159,0,0,0,.352.891A1.472,1.472,0,0,0,3.758-1.125Zm5.8-2.945a5.641,5.641,0,0,1,.871-3.289,2.807,2.807,0,0,1,2.441-1.25,3.027,3.027,0,0,1,1.316.273,2.7,2.7,0,0,1,.98.8v-4.648h1.539V0h-1.18L15.3-1.07a2.743,2.743,0,0,1-1.023.922,3.058,3.058,0,0,1-1.414.313A2.9,2.9,0,0,1,10.438-.957a4.659,4.659,0,0,1-.875-2.949Zm1.539.164a3.588,3.588,0,0,0,.523,2.051,1.828,1.828,0,0,0,1.625.77A2.039,2.039,0,0,0,14.406-1.4a2.334,2.334,0,0,0,.766-.875V-6.219a2.37,2.37,0,0,0-.77-.832,2.033,2.033,0,0,0-1.137-.309,1.759,1.759,0,0,0-1.637.914A4.718,4.718,0,0,0,11.1-4.07ZM24.375-1.25A2.863,2.863,0,0,1,23.352-.2a2.8,2.8,0,0,1-1.445.367A2.716,2.716,0,0,1,19.75-.719a4.1,4.1,0,0,1-.773-2.75V-8.453h1.539v5a3.147,3.147,0,0,0,.4,1.859,1.481,1.481,0,0,0,1.242.508,2.531,2.531,0,0,0,1.355-.332,2.077,2.077,0,0,0,.809-.941V-8.453h1.539V0H24.477Zm7.086.211A1.81,1.81,0,0,0,32.7-1.512a1.494,1.494,0,0,0,.531-1.16h1.391l.023.047a2.428,2.428,0,0,1-.937,1.941,3.312,3.312,0,0,1-2.25.848,3.319,3.319,0,0,1-2.75-1.211,4.674,4.674,0,0,1-.969-3.016v-.328a4.654,4.654,0,0,1,.973-3,3.317,3.317,0,0,1,2.746-1.215,3.189,3.189,0,0,1,2.316.875,2.775,2.775,0,0,1,.871,2.148l-.016.047h-1.4a1.865,1.865,0,0,0-.5-1.316,1.658,1.658,0,0,0-1.27-.543,1.777,1.777,0,0,0-1.652.879,4.114,4.114,0,0,0-.52,2.129v.328A4.192,4.192,0,0,0,29.8-1.914,1.776,1.776,0,0,0,31.461-1.039Zm8.375,0a1.81,1.81,0,0,0,1.242-.473,1.494,1.494,0,0,0,.531-1.16H43l.023.047a2.428,2.428,0,0,1-.937,1.941,3.312,3.312,0,0,1-2.25.848,3.319,3.319,0,0,1-2.75-1.211,4.674,4.674,0,0,1-.969-3.016v-.328a4.654,4.654,0,0,1,.973-3,3.317,3.317,0,0,1,2.746-1.215,3.189,3.189,0,0,1,2.316.875,2.775,2.775,0,0,1,.871,2.148l-.016.047h-1.4a1.865,1.865,0,0,0-.5-1.316,1.658,1.658,0,0,0-1.27-.543,1.777,1.777,0,0,0-1.652.879,4.114,4.114,0,0,0-.52,2.129v.328a4.192,4.192,0,0,0,.512,2.148A1.776,1.776,0,0,0,39.836-1.039ZM46.516,0H44.977V-8.453h1.539Zm0-10.617H44.977v-1.57h1.539ZM48.523-4.3a4.654,4.654,0,0,1,1.016-3.09A3.406,3.406,0,0,1,52.3-8.609,3.439,3.439,0,0,1,55.074-7.4,4.639,4.639,0,0,1,56.094-4.3v.172a4.631,4.631,0,0,1-1.016,3.094,3.429,3.429,0,0,1-2.766,1.2,3.436,3.436,0,0,1-2.77-1.207,4.623,4.623,0,0,1-1.02-3.09Zm1.539.172a4.009,4.009,0,0,0,.566,2.219,1.875,1.875,0,0,0,1.684.875,1.87,1.87,0,0,0,1.672-.875,3.988,3.988,0,0,0,.57-2.219V-4.3a3.976,3.976,0,0,0-.574-2.211A1.882,1.882,0,0,0,52.3-7.4a1.856,1.856,0,0,0-1.668.883A4.018,4.018,0,0,0,50.063-4.3Zm2.992-7.906h1.8l.016.047-2.1,2.031H51.609Zm6.3,3.586L59.461-7.2A3.069,3.069,0,0,1,60.52-8.238a2.824,2.824,0,0,1,1.449-.371,2.759,2.759,0,0,1,2.117.8,3.515,3.515,0,0,1,.75,2.473V0H63.3V-5.3a2.287,2.287,0,0,0-.441-1.586,1.768,1.768,0,0,0-1.348-.469,2.386,2.386,0,0,0-1.207.285,2.072,2.072,0,0,0-.785.8V0H57.977V-8.453ZM68.414-.375,67.242,2.016h-.914l.547-2.469V-1.727h1.539ZM79.4,0q-.078-.383-.121-.676a4.96,4.96,0,0,1-.051-.59,3.589,3.589,0,0,1-1.121,1.02,2.867,2.867,0,0,1-1.488.41,2.763,2.763,0,0,1-2.012-.676,2.486,2.486,0,0,1-.691-1.863,2.183,2.183,0,0,1,.98-1.895,4.579,4.579,0,0,1,2.66-.684h1.672v-.836a1.551,1.551,0,0,0-.453-1.176A1.779,1.779,0,0,0,77.492-7.4a1.859,1.859,0,0,0-1.211.375,1.125,1.125,0,0,0-.461.9l-1.461.016-.016-.047a2.023,2.023,0,0,1,.863-1.687,3.578,3.578,0,0,1,2.371-.766,3.49,3.49,0,0,1,2.313.73,2.588,2.588,0,0,1,.875,2.105V-1.7a7.923,7.923,0,0,0,.047.875A4.5,4.5,0,0,0,80.984,0ZM76.844-1.125a2.739,2.739,0,0,0,1.508-.43,2.042,2.042,0,0,0,.875-.984V-3.914H77.5a2.24,2.24,0,0,0-1.488.469,1.4,1.4,0,0,0-.559,1.1,1.159,1.159,0,0,0,.352.891A1.472,1.472,0,0,0,76.844-1.125ZM90.219-3.906A4.645,4.645,0,0,1,89.34-.957,2.9,2.9,0,0,1,86.922.164a3.064,3.064,0,0,1-1.465-.332,2.719,2.719,0,0,1-1.027-.98L84.18,0H83V-12.187h1.539v4.734a2.671,2.671,0,0,1,.988-.859,3.03,3.03,0,0,1,1.379-.3,2.809,2.809,0,0,1,2.438,1.25,5.622,5.622,0,0,1,.875,3.289ZM88.68-4.07a4.666,4.666,0,0,0-.535-2.371,1.762,1.762,0,0,0-1.629-.918,2.014,2.014,0,0,0-1.2.348,2.452,2.452,0,0,0-.777.934v3.664a2.517,2.517,0,0,0,.777.977,2,2,0,0,0,1.215.352,1.829,1.829,0,0,0,1.617-.773,3.552,3.552,0,0,0,.531-2.047Zm3.063,0a5.641,5.641,0,0,1,.871-3.289,2.807,2.807,0,0,1,2.441-1.25,3.027,3.027,0,0,1,1.316.273,2.7,2.7,0,0,1,.98.8v-4.648h1.539V0h-1.18l-.234-1.07a2.743,2.743,0,0,1-1.023.922,3.058,3.058,0,0,1-1.414.313A2.9,2.9,0,0,1,92.617-.957a4.659,4.659,0,0,1-.875-2.949Zm1.539.164A3.588,3.588,0,0,0,93.8-1.855a1.828,1.828,0,0,0,1.625.77A2.039,2.039,0,0,0,96.586-1.4a2.334,2.334,0,0,0,.766-.875V-6.219a2.37,2.37,0,0,0-.77-.832,2.033,2.033,0,0,0-1.137-.309,1.759,1.759,0,0,0-1.637.914,4.718,4.718,0,0,0-.527,2.375ZM106.555-1.25A2.863,2.863,0,0,1,105.531-.2a2.8,2.8,0,0,1-1.445.367,2.716,2.716,0,0,1-2.156-.883,4.1,4.1,0,0,1-.773-2.75V-8.453H102.7v5a3.147,3.147,0,0,0,.4,1.859,1.481,1.481,0,0,0,1.242.508,2.531,2.531,0,0,0,1.355-.332,2.077,2.077,0,0,0,.809-.941V-8.453h1.539V0h-1.383Zm7.086.211a1.81,1.81,0,0,0,1.242-.473,1.494,1.494,0,0,0,.531-1.16H116.8l.023.047a2.428,2.428,0,0,1-.937,1.941,3.313,3.313,0,0,1-2.25.848,3.319,3.319,0,0,1-2.75-1.211,4.674,4.674,0,0,1-.969-3.016v-.328a4.654,4.654,0,0,1,.973-3,3.317,3.317,0,0,1,2.746-1.215,3.189,3.189,0,0,1,2.316.875,2.775,2.775,0,0,1,.871,2.148l-.016.047h-1.4a1.865,1.865,0,0,0-.5-1.316,1.658,1.658,0,0,0-1.27-.543,1.777,1.777,0,0,0-1.652.879,4.114,4.114,0,0,0-.52,2.129v.328a4.192,4.192,0,0,0,.512,2.148A1.776,1.776,0,0,0,113.641-1.039Zm8.375,0a1.81,1.81,0,0,0,1.242-.473,1.494,1.494,0,0,0,.531-1.16h1.391l.023.047a2.428,2.428,0,0,1-.937,1.941,3.313,3.313,0,0,1-2.25.848,3.319,3.319,0,0,1-2.75-1.211,4.674,4.674,0,0,1-.969-3.016v-.328a4.654,4.654,0,0,1,.973-3,3.317,3.317,0,0,1,2.746-1.215,3.189,3.189,0,0,1,2.316.875,2.775,2.775,0,0,1,.871,2.148l-.016.047h-1.4a1.865,1.865,0,0,0-.5-1.316,1.658,1.658,0,0,0-1.27-.543,1.777,1.777,0,0,0-1.652.879,4.114,4.114,0,0,0-.52,2.129v.328a4.192,4.192,0,0,0,.512,2.148A1.776,1.776,0,0,0,122.016-1.039ZM128.7,0h-1.539V-8.453H128.7Zm0-10.617h-1.539v-1.57H128.7ZM130.7-4.3a4.654,4.654,0,0,1,1.016-3.09,3.406,3.406,0,0,1,2.758-1.215A3.439,3.439,0,0,1,137.254-7.4a4.639,4.639,0,0,1,1.02,3.094v.172a4.631,4.631,0,0,1-1.016,3.094,3.429,3.429,0,0,1-2.766,1.2,3.436,3.436,0,0,1-2.77-1.207,4.623,4.623,0,0,1-1.02-3.09Zm1.539.172a4.009,4.009,0,0,0,.566,2.219,1.875,1.875,0,0,0,1.684.875,1.87,1.87,0,0,0,1.672-.875,3.988,3.988,0,0,0,.57-2.219V-4.3a3.976,3.976,0,0,0-.574-2.211,1.882,1.882,0,0,0-1.684-.883,1.856,1.856,0,0,0-1.668.883,4.018,4.018,0,0,0-.566,2.211Zm2.992-7.906h1.8l.016.047-2.1,2.031h-1.156Zm6.3,3.586.109,1.258A3.069,3.069,0,0,1,142.7-8.238a2.824,2.824,0,0,1,1.449-.371,2.759,2.759,0,0,1,2.117.8,3.515,3.515,0,0,1,.75,2.473V0h-1.539V-5.3a2.287,2.287,0,0,0-.441-1.586,1.768,1.768,0,0,0-1.348-.469,2.386,2.386,0,0,0-1.207.285,2.072,2.072,0,0,0-.785.8V0h-1.539V-8.453Z" transform="translate(776 5315)" fill="#12263f"/>
    </g>
  </g>
</svg>
