<svg xmlns="http://www.w3.org/2000/svg" width="85" height="95.655" viewBox="0 0 85 95.655">
  <g id="captura-de-movimiento" transform="translate(0)">
    <path id="Trazado_100227" data-name="Trazado 100227" d="M81.972,62.152H11.348a6.232,6.232,0,0,0-6.232,6.232v70.623a6.233,6.233,0,0,0,6.232,6.232H81.972a6.232,6.232,0,0,0,6.232-6.232V68.384a6.232,6.232,0,0,0-6.232-6.232Zm0,0" transform="translate(-4.161 -50.541)" fill="#83e1e5"/>
    <path id="Trazado_100228" data-name="Trazado 100228" d="M128.032,168.453H106.51a12.137,12.137,0,0,1-16.284,0H68.7a3.51,3.51,0,0,1,0,7.02H87.967a1.872,1.872,0,0,1,1.873,1.873v11.707a10.081,10.081,0,0,1-1.128,4.635L76.68,216.931a3.51,3.51,0,0,1,6.235,3.226l12.353-23.864a1.159,1.159,0,0,1,.106-.163,3.51,3.51,0,1,1,5.989,0,1.1,1.1,0,0,1,.106.163l12.354,23.864a3.509,3.509,0,1,1,6.234-3.226l-12.031-23.243a10.083,10.083,0,0,1-1.128-4.635V177.345a1.873,1.873,0,0,1,1.873-1.873h19.262a3.51,3.51,0,0,1,0-7.02Zm0,0" transform="translate(-55.868 -136.982)" fill="#aab1ba"/>
    <g id="Grupo_53631" data-name="Grupo 53631" transform="translate(9.326 31.471)">
      <path id="Trazado_100229" data-name="Trazado 100229" d="M56.938,171.963a3.51,3.51,0,1,1-3.51-3.51A3.509,3.509,0,0,1,56.938,171.963Zm0,0" transform="translate(-49.918 -168.453)" fill="#ecf4f7"/>
      <path id="Trazado_100230" data-name="Trazado 100230" d="M374.5,171.963a3.51,3.51,0,1,1-3.51-3.51A3.509,3.509,0,0,1,374.5,171.963Zm0,0" transform="translate(-308.149 -168.453)" fill="#ecf4f7"/>
      <path id="Trazado_100231" data-name="Trazado 100231" d="M121.462,171.963a3.51,3.51,0,1,1-3.51-3.51A3.509,3.509,0,0,1,121.462,171.963Zm0,0" transform="translate(-102.387 -168.453)" fill="#ecf4f7"/>
      <path id="Trazado_100232" data-name="Trazado 100232" d="M215.719,216.592a3.51,3.51,0,1,1-3.51-3.51A3.509,3.509,0,0,1,215.719,216.592Zm0,0" transform="translate(-179.035 -204.744)" fill="#ecf4f7"/>
      <path id="Trazado_100233" data-name="Trazado 100233" d="M309.972,171.963a3.51,3.51,0,1,1-3.51-3.51A3.509,3.509,0,0,1,309.972,171.963Zm0,0" transform="translate(-255.679 -168.453)" fill="#ecf4f7"/>
      <path id="Trazado_100234" data-name="Trazado 100234" d="M315.121,421.29a3.51,3.51,0,1,1-3.51-3.51A3.51,3.51,0,0,1,315.121,421.29Zm0,0" transform="translate(-259.866 -371.2)" fill="#ecf4f7"/>
      <path id="Trazado_100235" data-name="Trazado 100235" d="M279.535,352.548a3.51,3.51,0,1,1-3.51-3.51A3.51,3.51,0,0,1,279.535,352.548Zm0,0" transform="translate(-230.929 -315.301)" fill="#ecf4f7"/>
      <path id="Trazado_100236" data-name="Trazado 100236" d="M116.313,421.29a3.51,3.51,0,1,1-3.51-3.51A3.51,3.51,0,0,1,116.313,421.29Zm0,0" transform="translate(-98.2 -371.2)" fill="#ecf4f7"/>
      <path id="Trazado_100237" data-name="Trazado 100237" d="M151.9,352.548a3.51,3.51,0,1,1-3.51-3.51A3.51,3.51,0,0,1,151.9,352.548Zm0,0" transform="translate(-127.138 -315.301)" fill="#ecf4f7"/>
    </g>
    <path id="Trazado_100238" data-name="Trazado 100238" d="M190.492,109.07H170.065v7.556h-.632a12.149,12.149,0,0,0,21.691,0h-.632Zm0,0" transform="translate(-137.779 -88.693)" fill="#fddf7f"/>
    <path id="Trazado_100239" data-name="Trazado 100239" d="M175.215,60.206h-1.393a12.144,12.144,0,0,0-19.7,0h-1.393a3.347,3.347,0,0,0-3.348,3.348v7.9a1.341,1.341,0,0,0,1.341,1.341h3.037V65.234h20.427v7.557h3.037a1.341,1.341,0,0,0,1.341-1.341v-7.9a3.348,3.348,0,0,0-3.348-3.348Zm0,0" transform="translate(-121.471 -44.858)" fill="#aab1ba"/>
    <path id="Trazado_100240" data-name="Trazado 100240" d="M231.023,144.178h-4.709a.81.81,0,0,1-.81-.81v-1.562a.81.81,0,0,1,.81-.811h4.709a.81.81,0,0,1,.811.811v1.562A.81.81,0,0,1,231.023,144.178Zm0,0" transform="translate(-183.374 -114.654)" fill="#aab1ba"/>
    <path id="Trazado_100241" data-name="Trazado 100241" d="M215.719,291.549a3.51,3.51,0,1,1-3.51-3.51A3.51,3.51,0,0,1,215.719,291.549Zm0,0" transform="translate(-169.709 -234.226)" fill="#ecf4f7"/>
    <path id="Trazado_100242" data-name="Trazado 100242" d="M85,17.843V88.466a7.2,7.2,0,0,1-7.188,7.188H7.187A7.2,7.2,0,0,1,0,88.466V17.843a7.2,7.2,0,0,1,7.188-7.188H30.111a.957.957,0,1,1,0,1.913H7.187a5.281,5.281,0,0,0-5.275,5.275V88.466a5.282,5.282,0,0,0,5.275,5.276H77.811a5.281,5.281,0,0,0,5.275-5.276V17.843a5.28,5.28,0,0,0-5.275-5.275H54.741a.957.957,0,1,1,0-1.913h23.07A7.2,7.2,0,0,1,85,17.843ZM40.293,4.12h1.25V5.37a.957.957,0,1,0,1.913,0V4.12h1.249a.956.956,0,1,0,0-1.913H43.456V.957a.957.957,0,1,0-1.913,0v1.25h-1.25a.956.956,0,0,0,0,1.913Zm-22.429.16h1v1a.956.956,0,0,0,1.913,0v-1h1a.957.957,0,1,0,0-1.913h-1v-1a.956.956,0,1,0-1.913,0v1h-1a.957.957,0,0,0,0,1.913Zm45.361,0h1v1a.956.956,0,0,0,1.913,0v-1h1a.957.957,0,0,0,0-1.913h-1v-1a.956.956,0,1,0-1.913,0v1h-1a.957.957,0,0,0,0,1.913ZM46.966,43.319A4.466,4.466,0,1,1,42.5,38.853,4.472,4.472,0,0,1,46.966,43.319Zm-1.914,0A2.553,2.553,0,1,0,42.5,45.872,2.556,2.556,0,0,0,45.052,43.319ZM76.63,34.982a4.471,4.471,0,0,1-4.466,4.466H52.9a.917.917,0,0,0-.917.917V52.071A9.171,9.171,0,0,0,53,56.267L65.036,79.507h0a4.47,4.47,0,0,1-.3,4.607H70.42a.956.956,0,1,1,0,1.913H14.579a.956.956,0,1,1,0-1.913h5.687a4.47,4.47,0,0,1-.3-4.607L31.994,56.267a9.172,9.172,0,0,0,1.022-4.195V40.365a.918.918,0,0,0-.917-.917H12.836a4.466,4.466,0,1,1,0-8.933H34.358a.955.955,0,0,1,.641.247,11.181,11.181,0,0,0,15,0,.955.955,0,0,1,.641-.247H72.163a4.471,4.471,0,0,1,4.466,4.466Zm-61.241,0a2.553,2.553,0,1,0-2.554,2.553h0a2.54,2.54,0,0,0,1.622-.584c.023-.019.045-.04.066-.061.039-.034.079-.068.115-.1a2.544,2.544,0,0,0,.749-1.8Zm5.035,0a4.435,4.435,0,0,1,.806-2.554H16.5c.005.008.009.016.015.024.053.077.1.156.153.237l.032.057q.061.1.116.212l.031.061c.042.085.081.172.117.259.009.023.018.046.028.069.03.076.058.153.084.231.006.02.013.039.019.058.029.092.055.185.078.278l.018.078c.02.085.036.17.051.257,0,.015.006.029.008.045.015.1.026.2.034.295,0,.028,0,.055.007.084.007.1.012.2.012.294,0,.005,0,.009,0,.015s0,.009,0,.013c0,.1-.005.2-.012.3,0,.028,0,.055-.007.082-.008.1-.02.2-.034.3,0,.015-.006.028-.008.042-.014.088-.031.174-.051.26l-.018.076c-.023.094-.049.188-.078.28l-.018.055c-.026.08-.055.158-.085.236l-.026.066c-.036.088-.076.176-.118.261L16.817,37c-.038.074-.077.147-.119.218l-.03.053c-.05.082-.1.162-.155.24l-.015.023h4.73a4.443,4.443,0,0,1-.8-2.554Zm7.02,0a2.553,2.553,0,1,0-2.555,2.553h0a2.556,2.556,0,0,0,2.551-2.553Zm.7,34.511a2.554,2.554,0,1,0,.166-1.946A2.537,2.537,0,0,0,28.143,69.493Zm-2.6,10.092-.009-.009c-.053-.043-.11-.083-.168-.122-.014-.009-.026-.02-.04-.029-.061-.039-.123-.075-.188-.109l-.036-.021a2.576,2.576,0,0,0-.48-.19c-.06-.017-.12-.029-.18-.042-.022,0-.043-.011-.065-.015a2.566,2.566,0,0,0-1.87.394l-.011.007c-.058.039-.114.082-.169.126-.009.008-.02.014-.03.022-.048.041-.094.085-.14.128-.015.014-.03.026-.044.04-.041.042-.079.086-.117.131-.017.02-.036.037-.052.058-.036.044-.068.09-.1.137-.016.024-.034.045-.05.069-.034.051-.063.105-.093.16-.012.023-.027.044-.039.067h0A2.553,2.553,0,0,0,26.2,82.736h0c.005-.01.009-.02.014-.03.034-.069.066-.136.093-.207.007-.015.01-.032.017-.047.024-.066.047-.131.066-.2,0-.007,0-.013,0-.019a2.558,2.558,0,0,0-.847-2.651Zm2-.639c.047.065.091.131.134.2.025.038.048.077.072.116.042.069.082.137.12.208l.007.013,3.28-6.337A4.457,4.457,0,0,1,26.626,70.8l-3.281,6.338.028,0c.094-.012.188-.021.282-.027l.063,0c.082,0,.164-.006.247-.005h.065c.1,0,.191.007.287.016l.069.007c.084.009.167.02.251.033l.054.008c.1.017.191.036.287.06l.072.018c.087.023.174.048.261.076l.035.011c.095.032.19.068.283.107l.071.03c.093.041.185.083.277.13l.006,0c.12.063.236.131.348.2.039.025.076.052.114.077.071.048.141.1.208.15.045.034.089.069.133.105s.109.095.163.144.093.083.136.127.084.09.126.135q.135.146.255.3c.027.036.055.071.082.107Zm29.861,5.17a4.421,4.421,0,0,1-.3-.5l0,0L45.295,60.8a4.453,4.453,0,0,1-5.591,0L27.9,83.61l0,0a4.421,4.421,0,0,1-.3.5ZM39.958,57.548c0,.025.005.05.008.075.006.051.014.1.023.151s.022.107.035.159c.007.03.015.06.023.09.014.046.028.092.045.137,0,.012.009.025.014.037a2.547,2.547,0,0,0,4.573.451,2.59,2.59,0,0,0,.217-.451l.014-.037c.016-.045.031-.091.044-.137.009-.03.016-.06.023-.09.013-.053.025-.106.034-.159s.018-.1.023-.151c0-.026.006-.05.008-.075.007-.074.011-.149.011-.225a2.553,2.553,0,1,0-5.106,0c0,.076.005.15.012.225ZM61.808,79.12c-.056-.017-.112-.032-.17-.045l-.044-.01c-.07-.015-.14-.026-.211-.035l-.059-.006c-.055-.006-.112-.009-.168-.012l-.061,0-.091,0c-.064,0-.128,0-.193.011l-.1.012c-.061.009-.122.02-.182.033l-.1.022c-.063.017-.127.036-.19.058-.027.009-.055.018-.082.028a2.584,2.584,0,0,0-.266.117l-.036.02c-.063.035-.127.07-.188.109l-.04.029c-.058.039-.115.08-.168.123l-.009.008a2.559,2.559,0,0,0-.847,2.651c0,.006,0,.012,0,.019.018.066.042.131.066.2.006.015.01.031.017.047.028.07.059.138.093.207.005.009.009.02.013.029h0a2.553,2.553,0,0,0,4.536-2.347h0l0,0a2.217,2.217,0,0,0-.118-.2c-.01-.016-.02-.032-.031-.047-.038-.057-.077-.112-.119-.163l-.019-.024c-.047-.059-.1-.115-.151-.169-.012-.012-.024-.024-.037-.036-.043-.043-.088-.084-.135-.124l-.038-.033c-.057-.046-.116-.09-.177-.131l-.033-.021c-.052-.034-.1-.066-.158-.1l-.052-.028c-.064-.034-.129-.066-.2-.095h-.005c-.066-.028-.132-.052-.2-.074l-.06-.018Zm-5.332-6.435a4.353,4.353,0,0,1-2.637.461l3.28,6.337s.005-.008.007-.013c.037-.071.078-.139.119-.208.023-.039.047-.078.072-.116.044-.068.088-.134.135-.2.026-.036.054-.072.082-.107q.12-.158.255-.3c.042-.045.082-.091.126-.135s.09-.085.136-.127.107-.1.163-.144.088-.071.133-.105c.067-.052.137-.1.208-.15.038-.026.075-.053.114-.077.112-.072.228-.139.348-.2l.006,0c.092-.047.185-.09.279-.131l.067-.028c.095-.039.191-.076.288-.108l.023-.007c.093-.03.185-.057.279-.081l.058-.015c.1-.024.2-.045.3-.063l.032,0c.093-.015.187-.028.28-.036l.05-.005c.1-.009.2-.014.3-.016h.045c.091,0,.182,0,.272.005l.045,0c.1.006.2.015.292.028l.023,0L58.373,70.8a4.437,4.437,0,0,1-1.9,1.888Zm-2.058-6.519a2.554,2.554,0,1,0,2.272,1.379A2.532,2.532,0,0,0,54.418,66.166Zm1.225-31.185a4.44,4.44,0,0,1,.8-2.554H51a13.093,13.093,0,0,1-17,0H28.552a4.452,4.452,0,0,1,0,5.106H32.1a2.833,2.833,0,0,1,2.829,2.83V52.071a11.083,11.083,0,0,1-1.236,5.075l-3.7,7.148a4.453,4.453,0,0,1,4.536,2.347l3.888-7.512a4.429,4.429,0,0,1-.382-1.8v0A4.473,4.473,0,0,1,41.385,53a4.267,4.267,0,0,1,.436-.09,4.341,4.341,0,0,1,.45-.045c.076,0,.153-.006.23-.006s.153,0,.229.006a4.341,4.341,0,0,1,.45.045,4.267,4.267,0,0,1,.436.09,4.474,4.474,0,0,1,3.352,4.325v0a4.442,4.442,0,0,1-.383,1.8l3.889,7.512a4.453,4.453,0,0,1,4.535-2.347l-3.7-7.148a11.083,11.083,0,0,1-1.236-5.075V40.365a2.833,2.833,0,0,1,2.829-2.83h3.547a4.435,4.435,0,0,1-.806-2.553Zm7.02,0a2.553,2.553,0,1,0-2.556,2.553h0a2.556,2.556,0,0,0,2.551-2.553Zm5.035,0c0-.005,0-.009,0-.014,0-.1,0-.2.012-.3,0-.028,0-.055.006-.082.009-.1.02-.2.035-.3,0-.015.006-.03.008-.045.015-.087.031-.172.05-.257.007-.026.012-.052.018-.078.023-.093.049-.186.077-.278l.02-.058c.026-.078.054-.155.084-.231.009-.023.018-.046.027-.069.036-.088.075-.174.117-.259l.032-.061c.036-.072.075-.143.115-.212l.033-.057c.048-.081.1-.16.153-.237a.271.271,0,0,1,.015-.024H63.77a4.452,4.452,0,0,1,0,5.106H68.5l-.015-.023c-.054-.079-.106-.158-.155-.24-.01-.018-.02-.035-.031-.053-.041-.072-.081-.145-.118-.218-.01-.019-.02-.038-.03-.058-.042-.085-.081-.173-.118-.261l-.026-.066c-.031-.077-.059-.156-.085-.236-.006-.018-.013-.036-.019-.055-.028-.092-.054-.185-.077-.28-.007-.026-.012-.05-.018-.076-.02-.086-.037-.172-.052-.26,0-.014-.005-.028-.007-.042-.015-.1-.026-.2-.035-.3,0-.028,0-.055-.006-.082-.007-.1-.012-.2-.012-.3,0,0,0-.008,0-.012Zm7.02,0a2.553,2.553,0,1,0-4.358,1.8c.037.036.077.07.115.1.022.02.043.042.066.061a2.543,2.543,0,0,0,1.622.584h0a2.557,2.557,0,0,0,2.554-2.553ZM31.256,14.392h.917a13.1,13.1,0,0,1,20.654,0h.917a4.309,4.309,0,0,1,4.3,4.3v7.9a2.3,2.3,0,0,1-2.3,2.3H49.406a1.769,1.769,0,0,1-1.758,1.592H42.94a1.769,1.769,0,0,1-1.767-1.767V27.152a1.769,1.769,0,0,1,1.767-1.767h4.709a1.769,1.769,0,0,1,1.758,1.592h2.35V21.333H33.242v6.6a.956.956,0,0,1-.956.957H29.249a2.3,2.3,0,0,1-2.3-2.3V18.7a4.309,4.309,0,0,1,4.3-4.3ZM47.5,27.3H43.086v1.269H47.5ZM43.456,14.392h6.8a11.242,11.242,0,0,0-6.8-3.085Zm-8.713,0h6.8V11.307A11.24,11.24,0,0,0,34.743,14.392Zm-5.879,12.2a.386.386,0,0,0,.385.385h2.08v-6.6a.957.957,0,0,1,.957-.956H52.713a.957.957,0,0,1,.957.956v6.6h2.08a.386.386,0,0,0,.385-.385V18.7a2.394,2.394,0,0,0-2.392-2.391H31.256A2.394,2.394,0,0,0,28.864,18.7ZM9.975,84.116a.956.956,0,1,0,0,1.913h.76a.956.956,0,1,0,0-1.913Zm64.289,0a.956.956,0,1,0,0,1.913h.76a.956.956,0,1,0,0-1.913Zm0,0" fill="#1c1d21"/>
  </g>
</svg>
