<svg xmlns="http://www.w3.org/2000/svg" width="904" height="380.383" viewBox="0 0 904 380.383">
  <g id="Grupo_53647" data-name="Grupo 53647" transform="translate(-231 -5651.779)">
    <g id="Grupo_8342" data-name="Grupo 8342" transform="translate(111 446.718)">
      <g id="Grupo_8338" data-name="Grupo 8338" transform="translate(120 5208.117)">
        <circle id="Elipse_499" data-name="Elipse 499" cx="97.942" cy="97.942" r="97.942" transform="translate(0 81.706)" fill="#ffeaa7"/>
        <g id="Grupo_7464" data-name="Grupo 7464" transform="translate(10.98 0)">
          <g id="Grupo_7462" data-name="Grupo 7462" transform="translate(0 0)">
            <path id="Trazado_11415" data-name="Trazado 11415" d="M163.085,75.5c-23.5-.987-29.656-27.026-29.656-27.026s-23.5,10.475-41.937,10.294h-.167C72.89,58.954,49.39,48.475,49.39,48.475S43.235,74.514,19.733,75.5l13.478,76.267c-11.466,14.665-21.33,98.74-28.226,162.806,0,0,38.555,17.623,86.645,17.643s86.815-17.292,86.815-17.292c-6.861-63.742-16.847-148.49-25.8-163.189Z" transform="translate(-4.985 -1.252)" fill="#fff" stroke="#231f20" stroke-miterlimit="10" stroke-width="0.736"/>
            <path id="Trazado_11416" data-name="Trazado 11416" d="M177.821,255.641s-38.016,17.3-87.227,17.284S5.373,255.641,5.373,255.641" transform="translate(-4.885 52.199)" fill="none" stroke="#231f20" stroke-miterlimit="10" stroke-width="0.741" stroke-dasharray="1.482"/>
            <path id="Trazado_11417" data-name="Trazado 11417" d="M124.339,46.477s-14.665,9.768-42.02,9.768S40.3,46.477,40.3,46.477l-.084,4.295s14.665,9.77,42.02,9.77,42.019-9.77,42.019-9.77Z" transform="translate(4.105 -1.768)" fill="#fff" stroke="#231f20" stroke-miterlimit="10" stroke-width="0.736"/>
            <path id="Trazado_11418" data-name="Trazado 11418" d="M40.3,49.6l-.084,4.295s14.665,9.77,42.02,9.77,42.019-9.77,42.019-9.77l.084-4.295" transform="translate(4.105 -0.962)" fill="none" stroke="#231f20" stroke-miterlimit="10" stroke-width="0.741" stroke-dasharray="1.482"/>
            <path id="Trazado_11419" data-name="Trazado 11419" d="M49.478,10.938l-4.245,1.4s9.9,71.56-28.34,72.843c.07.838.419,2.9.506,3.915C60.814,88.5,49.478,10.938,49.478,10.938Z" transform="translate(-1.913 -10.938)" fill="#fff" stroke="#231f20" stroke-miterlimit="10" stroke-width="0.736"/>
            <path id="Trazado_11420" data-name="Trazado 11420" d="M104.72,10.939l4.245,1.4S99.061,83.9,137.3,85.18c-.069.838-.419,2.9-.506,3.917C93.379,88.5,104.72,10.939,104.72,10.939Z" transform="translate(20.403 -10.938)" fill="#fff" stroke="#231f20" stroke-miterlimit="10" stroke-width="0.736"/>
            <path id="Trazado_11421" data-name="Trazado 11421" d="M18.308,81.693c17.509-.68,29.08-13.432,32.826-29.625" transform="translate(-1.548 -0.326)" fill="none" stroke="#231f20" stroke-miterlimit="10" stroke-width="0.741" stroke-dasharray="1.482"/>
            <path id="Trazado_11422" data-name="Trazado 11422" d="M136.21,81.693c-17.508-.682-29.079-13.433-32.826-29.625" transform="translate(20.403 -0.326)" fill="none" stroke="#231f20" stroke-miterlimit="10" stroke-width="0.741" stroke-dasharray="1.482"/>
            <g id="Grupo_7460" data-name="Grupo 7460" transform="translate(27.046 115.769)">
              <g id="Grupo_7447" data-name="Grupo 7447" transform="translate(20.572 9.723)">
                <g id="Grupo_7446" data-name="Grupo 7446" transform="translate(0 0)">
                  <path id="Trazado_11423" data-name="Trazado 11423" d="M42.837,160.683a30.521,30.521,0,0,0,1.276-6.124,61.548,61.548,0,0,0,.426-6.239c.1-4.171-.049-8.347-.314-12.524-.164-4.173-.653-8.336-.854-12.535a53.4,53.4,0,0,1,.513-12.57,45.944,45.944,0,0,0-.17,6.266c.051,2.089.193,4.173.379,6.255.353,4.164.828,8.333,1.075,12.532a118.327,118.327,0,0,1,.1,12.606,37.528,37.528,0,0,1-2.431,12.332Z" transform="translate(-42.837 -110.692)" fill="#231f20"/>
                </g>
              </g>
              <g id="Grupo_7449" data-name="Grupo 7449" transform="translate(88.174 10.387)">
                <g id="Grupo_7448" data-name="Grupo 7448" transform="translate(0 0)">
                  <path id="Trazado_11424" data-name="Trazado 11424" d="M99.124,161.211A37.5,37.5,0,0,1,96.7,148.879a118.324,118.324,0,0,1,.1-12.606c.246-4.2.721-8.369,1.076-12.532.185-2.082.326-4.168.377-6.255a45.929,45.929,0,0,0-.17-6.266,53.4,53.4,0,0,1,.513,12.57c-.2,4.2-.689,8.362-.854,12.534-.269,4.175-.419,8.352-.314,12.524a61.492,61.492,0,0,0,.426,6.237,30.449,30.449,0,0,0,1.273,6.126Z" transform="translate(-96.575 -111.22)" fill="#231f20"/>
                </g>
              </g>
              <g id="Grupo_7451" data-name="Grupo 7451" transform="translate(102.351 14.48)">
                <g id="Grupo_7450" data-name="Grupo 7450" transform="translate(0 0)">
                  <path id="Trazado_11425" data-name="Trazado 11425" d="M110.222,151.806a38.2,38.2,0,0,0,.08-9.271c-.286-3.107-.749-6.208-1.184-9.311-.857-6.195-1.728-12.495-1-18.75-.566,6.27.459,12.511,1.467,18.678.513,3.091,1.056,6.18,1.423,9.31a38.959,38.959,0,0,1,.147,9.488Z" transform="translate(-107.844 -114.473)" fill="#231f20"/>
                </g>
              </g>
              <g id="Grupo_7453" data-name="Grupo 7453" transform="translate(35.891 18.19)">
                <g id="Grupo_7452" data-name="Grupo 7452" transform="translate(0)">
                  <path id="Trazado_11426" data-name="Trazado 11426" d="M57.506,153.03a20.585,20.585,0,0,1-2.373-8.784,61.628,61.628,0,0,1,.1-8.978c.24-2.991.7-5.959,1.048-8.926.181-1.483.319-2.969.37-4.456a23.758,23.758,0,0,0-.167-4.462,27.836,27.836,0,0,1,.5,8.953c-.2,2.991-.675,5.955-.838,8.928a73.408,73.408,0,0,0-.314,8.92,31.984,31.984,0,0,0,.419,4.444,16.735,16.735,0,0,0,1.255,4.363Z" transform="translate(-55.015 -117.423)" fill="#231f20"/>
                </g>
              </g>
              <g id="Grupo_7455" data-name="Grupo 7455" transform="translate(0 15.414)">
                <g id="Grupo_7454" data-name="Grupo 7454" transform="translate(0 0)">
                  <path id="Trazado_11427" data-name="Trazado 11427" d="M26.484,150.823a20.566,20.566,0,0,0,2.372-8.784,61.278,61.278,0,0,0-.1-8.978c-.24-2.991-.7-5.959-1.048-8.926-.181-1.483-.319-2.968-.37-4.455a23.877,23.877,0,0,1,.168-4.463,27.836,27.836,0,0,0-.5,8.953c.2,2.991.675,5.955.838,8.928a73.931,73.931,0,0,1,.314,8.92,31.982,31.982,0,0,1-.419,4.444,16.735,16.735,0,0,1-1.255,4.363Z" transform="translate(-26.484 -115.216)" fill="#231f20"/>
                </g>
              </g>
              <g id="Grupo_7457" data-name="Grupo 7457" transform="translate(119.033 12.326)">
                <g id="Grupo_7456" data-name="Grupo 7456" transform="translate(0 0)">
                  <path id="Trazado_11428" data-name="Trazado 11428" d="M123.6,148.368a20.54,20.54,0,0,1-2.373-8.783,61.452,61.452,0,0,1,.1-8.978c.24-2.992.7-5.96,1.048-8.926.181-1.483.319-2.969.37-4.456a23.986,23.986,0,0,0-.167-4.463,27.836,27.836,0,0,1,.5,8.953c-.2,2.992-.675,5.955-.838,8.928a73.425,73.425,0,0,0-.314,8.921,32.205,32.205,0,0,0,.419,4.444,16.729,16.729,0,0,0,1.255,4.362Z" transform="translate(-121.106 -112.761)" fill="#231f20"/>
                </g>
              </g>
              <g id="Grupo_7459" data-name="Grupo 7459" transform="translate(74.765 0)">
                <g id="Grupo_7458" data-name="Grupo 7458" transform="translate(0)">
                  <path id="Trazado_11429" data-name="Trazado 11429" d="M86.957,170.66a79.446,79.446,0,0,0,1.97-16.791,150.587,150.587,0,0,0-.764-16.97c-.519-5.647-1.308-11.269-1.843-16.927a83.383,83.383,0,0,1,.058-17.01,83.311,83.311,0,0,0,.2,16.985c.616,5.637,1.5,11.249,2.09,16.9a151.41,151.41,0,0,1,.985,17.026C89.614,159.567,86.957,170.66,86.957,170.66Z" transform="translate(-85.915 -102.963)" fill="#231f20"/>
                </g>
              </g>
            </g>
            <path id="Trazado_11430" data-name="Trazado 11430" d="M146.787,131.744c.983-.607,1.221-6.472,1.221-6.472A273.385,273.385,0,0,1,86.2,131.8c-41.812-.39-59.714-6.529-59.714-6.529s.6,5.86,1.582,6.466c1.7,1.048,14.225,6.7,58.1,6.838C128.769,138.71,145.087,132.791,146.787,131.744Z" transform="translate(0.562 18.561)" fill="#fff" stroke="#231f20" stroke-miterlimit="10" stroke-width="0.75"/>
            <g id="Grupo_7461" data-name="Grupo 7461" transform="translate(113.172 145.448)">
              <path id="Trazado_11431" data-name="Trazado 11431" d="M107.389,133.109a3.233,3.233,0,0,0,.169,1.169q-.144-.86-.288-1.721c.764,5.761,1.279,24.059,1.362,29.868-1.808-.524-3.705-2.041-5.511-2.562a3.679,3.679,0,0,1-1.362-.6c-.8-.656-.989-10.2-1.11-11.274-.972-8.572,1.383-13.867,4.571-17.861Z" transform="translate(-93.532 -125.634)" fill="#fff" stroke="#231f20" stroke-miterlimit="10" stroke-width="0.75"/>
              <path id="Trazado_11432" data-name="Trazado 11432" d="M104.509,132.264c.233-.175,1.183,1.263,1.319,1.467a12.77,12.77,0,0,1,2.124,5.535c.477,2.185.512,3.921.964,6.486.283,1.609,2.079,10.161,2.912,11.545a44.234,44.234,0,0,1,2.034-4.215,8.717,8.717,0,0,1,1.379-1.683c.392-.38,1.284-1.078,1.191-1.754-.113-.816-2.1-11.779-2.96-13.865-1.145-2.747-3.276-5.222-6-5.78Z" transform="translate(-92.479 -125.668)" fill="#fff" stroke="#231f20" stroke-miterlimit="10" stroke-width="0.75"/>
              <path id="Trazado_11433" data-name="Trazado 11433" d="M108.133,127.357a4.6,4.6,0,0,0-5.275.511l-7.194,4.688a1.641,1.641,0,0,0-.6.561,1.362,1.362,0,0,0-.1.771,6.93,6.93,0,0,0,2.43,4.085c.9.851,2.086,1.676,3.273,1.333a3.067,3.067,0,0,0,1.054-.6,20.757,20.757,0,0,0,2.734-3.057,7.333,7.333,0,0,1,3.2-2.48l.082-.027Z" transform="translate(-94.945 -126.499)" fill="#fff" stroke="#231f20" stroke-miterlimit="10" stroke-width="0.75"/>
              <path id="Trazado_11434" data-name="Trazado 11434" d="M105.854,133.746a5.072,5.072,0,0,1,3.727,1.924,15.389,15.389,0,0,0,3.578,3.169,2.354,2.354,0,0,0,2.947-.433c1.027-.876,2.12-1.649,3.212-2.429,1.048-.745.164-1.781-.5-2.463-1.8-1.851-3.143-4.118-5.3-5.6s-5.151-2.179-6.928.18Z" transform="translate(-92.132 -126.555)" fill="#fff" stroke="#231f20" stroke-miterlimit="10" stroke-width="0.75"/>
              <path id="Trazado_11435" data-name="Trazado 11435" d="M105.94,130.7c-3.2.859-6.754,4.345-7.341,7.6a2.644,2.644,0,0,0,1.071,0,4.53,4.53,0,0,0,1.321-.659A16.438,16.438,0,0,0,103.5,135a7.333,7.333,0,0,1,3.205-2.48l.082-.026Z" transform="translate(-94.004 -125.486)" fill="#e6e7e8" stroke="#231f20" stroke-miterlimit="10" stroke-width="0.75"/>
              <path id="Trazado_11436" data-name="Trazado 11436" d="M107.569,130.316c2.542.943,5.12,2.134,6.575,4.162a6.543,6.543,0,0,1,.851,3.352l.058.14a2.2,2.2,0,0,1-1.982-.182,15.408,15.408,0,0,1-3.576-3.169c-.952-.991-2.268-2.033-3.727-1.924Z" transform="translate(-92.154 -125.586)" fill="#e6e7e8" stroke="#231f20" stroke-miterlimit="10" stroke-width="0.75"/>
              <path id="Trazado_11437" data-name="Trazado 11437" d="M105.95,126.916a2.11,2.11,0,0,0-1.647,1.068,3.05,3.05,0,0,0-.325,1.211,11.319,11.319,0,0,0,.476,3.606,2.709,2.709,0,0,0,.457,1.112,2.737,2.737,0,0,0,2.18.653,1.124,1.124,0,0,0,1.333-1.362q.075-1.27.15-2.541a6.614,6.614,0,0,0-.042-1.654,2.233,2.233,0,0,0-.814-1.4,3.826,3.826,0,0,0-1.768-.691Z" transform="translate(-92.62 -126.462)" fill="#fff" stroke="#231f20" stroke-miterlimit="10" stroke-width="0.75"/>
            </g>
          </g>
          <g id="Grupo_7463" data-name="Grupo 7463" transform="translate(0.02 50.775)">
            <path id="Trazado_11438" data-name="Trazado 11438" d="M45.384,52.266c1.325-5.5-4.867,14.181-3.324,16.263C40.756,83.081,28.478,88.549,27.9,103.41c-.249,6.464,5.774,28.216,8.926,33.666,2.39,4.132,5.917,8.615,6.267,9.862a28.476,28.476,0,0,0-3.47,2.473c-1.628,1.808-2.142,4.373-2.836,6.622-2.417,7.849-3.153,16.29-7.312,23.52-.72,1.25-1.814,3.2-.933,4.626a19.021,19.021,0,0,0,6.715,5.939c2.866,1.72,14.875,7.738,14.875,7.738.306,1.628-21.586-2.361-21.586-2.361-3.714,46.255,33.49,46.574,34.232,49.059.5,1.668-31.261-.543-34.211,1a6.3,6.3,0,0,0-2.79,2.469c-.821,1.526-2.1,14.594-.822,18.142,5.588,15.462,34.1,16.595,33.095,16.813A72.01,72.01,0,0,1,22.477,281.2c-13.574,28.031,7.961,41.134,7.961,41.134C28.31,322.092,8.644,315.63,5,314c5.551-56.066,17.141-155.366,28.607-163.181L19.729,74.775s10.37.083,16.157-6.529C39.124,64.544,43.844,58.655,45.384,52.266Z" transform="translate(-5.001 -51.299)" fill="#f3f4f5"/>
            <path id="Trazado_11439" data-name="Trazado 11439" d="M87.131,136.237c-3.73-5.285-9.446-7.362-14.351-11.9-4.383-4.053-10.112-15.575-16.132-16.522a24.616,24.616,0,0,0,4.245,12.758c1.868,6.857,5.768,10.919,11,15.548Z" transform="translate(8.325 -36.716)" fill="#f3f4f5"/>
            <path id="Trazado_11440" data-name="Trazado 11440" d="M75.023,135.85c3.749,3.487,8.171,8.043,10.36,12.736,2.155,4.609,2.211,11.326,6.929,14.3,4-2.3-5.317-23.431-6.484-27.039Z" transform="translate(13.066 -29.484)" fill="#f3f4f5"/>
            <path id="Trazado_11441" data-name="Trazado 11441" d="M106.7,117.522c-5.041-8.237-15.8-9.709-22.156-17.016-1.257-1.451-3.666-6.695-5.469-3.075-1.094,2.2,3.075,7.462,4.295,9.176,2.409,7.092,10.648,8.914,16.227,12.57,5.935,3.891,8.328,10.587,13.722,14.932C113.083,128.093,109.844,122.66,106.7,117.522Z" transform="translate(14.065 -39.719)" fill="#f3f4f5"/>
            <path id="Trazado_11442" data-name="Trazado 11442" d="M35.2,89.071c-2.021-4.59-6.609-2.766-9.9-6.093-2.971-3-3.319-8.768-7.967-10.078.073,4.565,3.182,9.878,3.182,9.878.081,6.763,7.01,6.249,11.155,9.039,4.295,2.887,6.1,8.5,11.029,10.642C44.01,96.881,37.12,93.447,35.2,89.071Z" transform="translate(-1.82 -45.727)" fill="#f3f4f5"/>
            <path id="Trazado_11443" data-name="Trazado 11443" d="M79.865,201.3c-1.736-3.944-4.272-2.467-7.5-4.151-2.341-1.22-3.889-4.295-5.178-6.412-2.514-4.139-5.595-13.855-10.789-15.326.073,4.565,3.182,9.878,3.182,9.878.04,3.4,2.4,7.36,3.905,10.31,2.468,4.836,3.645,5.651,7.972,7.995,8.089,4.383,11.079,15.956,19.318,19.532C92.529,215.619,82.72,207.788,79.865,201.3Z" transform="translate(8.258 -19.278)" fill="#f3f4f5"/>
            <path id="Trazado_11444" data-name="Trazado 11444" d="M113.879,53.048c-2.468-5.094,5.409,13.979,3.866,16.059,1.3,14.554,13.5,19.213,14.071,34.074.249,6.463-5.774,28.216-8.926,33.666-2.39,4.132-6.721,9.009-7.07,10.254.042-.151,5.586,5.028,6.285,7.28,2.417,7.849,3.981,17.714,8.14,24.944.719,1.25,1.814,3.2.933,4.626a19.021,19.021,0,0,1-6.713,5.939c-2.866,1.72-14.875,7.738-14.875,7.738-.306,1.628,21.585-2.361,21.585-2.361,3.717,46.255-33.488,46.574-34.232,49.059-.5,1.668,31.262-.543,34.211,1a6.306,6.306,0,0,1,2.791,2.469c.821,1.526,2.1,14.594.822,18.142-5.588,15.462-34.1,16.595-33.095,16.813a72.013,72.013,0,0,0,35.578-1.781c13.574,28.031-7.961,41.134-7.961,41.134,2.126-.243,21.788-6.7,25.437-8.33-5.547-56.07-18.524-157.775-25.8-163l10.042-76.24A25.835,25.835,0,0,1,123.8,69.045C118.486,64.708,114.768,54.879,113.879,53.048Z" transform="translate(18.719 -51.069)" fill="#f3f4f5"/>
          </g>
        </g>
        <path id="Trazado_13306" data-name="Trazado 13306" d="M-31.308.722h-3.121V-14.233h8.573v2.6h-5.452v3.857h5.074V-5.19h-5.074Zm14.515-11.651a5.028,5.028,0,0,1,1.054.092l-.236,2.926a3.574,3.574,0,0,0-.921-.1,3.309,3.309,0,0,0-2.328.767A2.774,2.774,0,0,0-20.061-5.1V.722h-3.121V-10.715h2.363l.46,1.923h.153a4.3,4.3,0,0,1,1.437-1.549,3.544,3.544,0,0,1,1.976-.589Zm5.616,5.913a4.8,4.8,0,0,0,.557,2.567A1.99,1.99,0,0,0-8.8-1.579a1.962,1.962,0,0,0,1.8-.864,4.869,4.869,0,0,0,.547-2.573,4.724,4.724,0,0,0-.551-2.548,2,2,0,0,0-1.811-.85,1.99,1.99,0,0,0-1.8.844,4.72,4.72,0,0,0-.551,2.552Zm7.908,0A6.146,6.146,0,0,1-4.743-.648a5.342,5.342,0,0,1-4.1,1.58,5.738,5.738,0,0,1-2.9-.721,4.8,4.8,0,0,1-1.934-2.072,6.961,6.961,0,0,1-.676-3.151A6.112,6.112,0,0,1-12.887-9.37a5.372,5.372,0,0,1,4.113-1.555,5.771,5.771,0,0,1,2.9.716,4.78,4.78,0,0,1,1.925,2.05,6.9,6.9,0,0,1,.675,3.14ZM9.865.722H6.745v-6.68a3.209,3.209,0,0,0-.44-1.856,1.6,1.6,0,0,0-1.4-.619,2.107,2.107,0,0,0-1.893.875,5.424,5.424,0,0,0-.582,2.9V.722H-.692V-10.715H1.692l.419,1.467h.174a3.3,3.3,0,0,1,1.437-1.257A4.894,4.894,0,0,1,5.8-10.929,4,4,0,0,1,8.832-9.85,4.33,4.33,0,0,1,9.865-6.735ZM17.9-1.559a6.764,6.764,0,0,0,1.967-.358V.408A7,7,0,0,1,17,.932a3.506,3.506,0,0,1-2.724-.943,4.119,4.119,0,0,1-.854-2.839V-8.372h-1.5v-1.32L13.64-10.74l.9-2.409h1.99v2.434h3.206v2.342h-3.2v5.514a1.218,1.218,0,0,0,.373.983A1.473,1.473,0,0,0,17.9-1.559ZM29.434.722l-.6-1.555h-.082A4.609,4.609,0,0,1,27.128.543a5.238,5.238,0,0,1-2.174.389,3.515,3.515,0,0,1-2.594-.943,3.614,3.614,0,0,1-.943-2.681A3.018,3.018,0,0,1,22.691-5.38a7.38,7.38,0,0,1,3.841-.956L28.514-6.4v-.5a1.556,1.556,0,0,0-.456-1.315,1.556,1.556,0,0,0-1.325-.424,8.111,8.111,0,0,0-3.222.829l-1.03-2.1a9.3,9.3,0,0,1,4.379-1.033,5.453,5.453,0,0,1,3.529,1A3.705,3.705,0,0,1,31.616-6.9V.722Zm-.921-5.3-1.207.041a3.865,3.865,0,0,0-2.026.491,1.542,1.542,0,0,0-.665,1.371q0,1.32,1.514,1.32a2.4,2.4,0,0,0,1.734-.629,2.191,2.191,0,0,0,.649-1.657Zm9.428,5.3H34.826V-15.2h3.121Z" transform="translate(96.83 376.381)" fill="#12263f"/>
      </g>
      <g id="Grupo_8339" data-name="Grupo 8339" transform="translate(354.642 5205.547)">
        <circle id="Elipse_500" data-name="Elipse 500" cx="97.942" cy="97.942" r="97.942" transform="translate(0 84.275)" fill="#ffeaa7"/>
        <g id="Grupo_7484" data-name="Grupo 7484" transform="translate(9.429 0)">
          <g id="Grupo_7482" data-name="Grupo 7482" transform="translate(0 0)">
            <path id="Trazado_11445" data-name="Trazado 11445" d="M258.625,58.481l-.085,4.413s15.054,10.03,43.137,10.03,43.135-10.03,43.135-10.03l.085-4.413" transform="translate(-213.04 -8.502)" fill="none" stroke="#231f20" stroke-miterlimit="10" stroke-width="0.741" stroke-dasharray="1.482"/>
            <path id="Trazado_11446" data-name="Trazado 11446" d="M236.632,91.359c17.974-.7,29.854-13.791,33.7-30.413" transform="translate(-219.427 -7.784)" fill="none" stroke="#231f20" stroke-miterlimit="10" stroke-width="0.741" stroke-dasharray="1.482"/>
            <path id="Trazado_11447" data-name="Trazado 11447" d="M355.407,91.359c-17.975-.7-29.854-13.791-33.7-30.413" transform="translate(-194.626 -7.784)" fill="none" stroke="#231f20" stroke-miterlimit="10" stroke-width="0.741" stroke-dasharray="1.482"/>
            <path id="Trazado_11448" data-name="Trazado 11448" d="M344.9,55.354s-15.054,10.03-43.137,10.03-43.138-10.03-43.138-10.03l-.085,4.414S273.595,69.8,301.678,69.8s43.134-10.029,43.134-10.029Z" transform="translate(-213.04 -9.413)" fill="#fff" stroke="#231f20" stroke-miterlimit="10" stroke-width="0.736"/>
            <path id="Trazado_11449" data-name="Trazado 11449" d="M323.078,19.816l4.358,1.437s-10.167,73.465,29.091,74.782c-.072.859-.426,2.979-.524,4.019C311.434,99.438,323.078,19.816,323.078,19.816Z" transform="translate(-194.626 -19.773)" fill="#fff" stroke="#231f20" stroke-miterlimit="10" stroke-width="0.736"/>
            <path id="Trazado_11450" data-name="Trazado 11450" d="M268.664,19.816l-4.358,1.437s10.167,73.463-29.09,74.781c.071.86.425,2.981.524,4.02C280.307,99.438,268.664,19.816,268.664,19.816Z" transform="translate(-219.839 -19.773)" fill="#fff" stroke="#231f20" stroke-miterlimit="10" stroke-width="0.736"/>
            <g id="Grupo_7466" data-name="Grupo 7466" transform="translate(15.098)">
              <g id="Grupo_7465" data-name="Grupo 7465" transform="translate(0)">
                <path id="Trazado_11451" data-name="Trazado 11451" d="M382.169,85.064c-24.13-1.011-30.447-27.743-30.447-27.743S327.6,68.079,308.669,67.889H308.5c-18.925.19-43.053-10.568-43.053-10.568S259.128,84.052,235,85.064c0,0,21.5,29.7,73.455,29.7S382.169,85.064,382.169,85.064Z" transform="translate(-235 -8.84)" fill="#edeced" stroke="#231f20" stroke-linecap="round" stroke-linejoin="round" stroke-width="0.75"/>
                <path id="Trazado_11452" data-name="Trazado 11452" d="M344.869,55.321s-15.054,10.034-43.14,10.034-43.137-10.03-43.137-10.03l-.085,4.414s15.054,10.029,43.137,10.029,43.139-10.029,43.139-10.029Z" transform="translate(-228.147 -9.423)" fill="#fff" stroke="#231f20" stroke-miterlimit="10" stroke-width="0.736"/>
                <path id="Trazado_11453" data-name="Trazado 11453" d="M258.592,58.448l-.085,4.413s15.054,10.03,43.137,10.03,43.139-10.03,43.139-10.03l.085-4.413" transform="translate(-228.147 -8.512)" fill="none" stroke="#231f20" stroke-miterlimit="10" stroke-width="0.741" stroke-dasharray="1.482"/>
                <path id="Trazado_11454" data-name="Trazado 11454" d="M268.632,19.783l-4.358,1.437S274.441,94.684,235.183,96c.072.86.426,2.981.524,4.02C280.273,99.405,268.632,19.783,268.632,19.783Z" transform="translate(-234.946 -19.783)" fill="#fff" stroke="#231f20" stroke-miterlimit="10" stroke-width="0.736"/>
                <path id="Trazado_11455" data-name="Trazado 11455" d="M323.045,19.783,327.4,21.22S317.236,94.685,356.494,96c-.072.859-.426,2.979-.524,4.019C311.4,99.405,323.045,19.783,323.045,19.783Z" transform="translate(-209.733 -19.783)" fill="#fff" stroke="#231f20" stroke-miterlimit="10" stroke-width="0.736"/>
                <path id="Trazado_11456" data-name="Trazado 11456" d="M236.6,91.326c17.974-.7,29.854-13.792,33.7-30.413" transform="translate(-234.533 -7.794)" fill="none" stroke="#231f20" stroke-miterlimit="10" stroke-width="0.741" stroke-dasharray="1.482"/>
                <path id="Trazado_11457" data-name="Trazado 11457" d="M355.373,91.326c-17.974-.7-29.854-13.792-33.7-30.413" transform="translate(-209.734 -7.794)" fill="none" stroke="#231f20" stroke-miterlimit="10" stroke-width="0.741" stroke-dasharray="1.482"/>
              </g>
            </g>
            <path id="Trazado_11458" data-name="Trazado 11458" d="M385.576,78.8s-16.655,11.184-72.455,11.184S238.406,78.8,238.406,78.8l13.882,78.34c-11.771,15.058-21.9,101.368-28.977,167.142,0,0,39.579,18.093,88.951,18.114s89.125-17.754,89.125-17.754C394.344,259.2,384.092,172.2,374.9,157.107Z" transform="translate(-223.31 -2.579)" fill="#fff" stroke="#231f20" stroke-miterlimit="10" stroke-width="0.736"/>
            <path id="Trazado_11459" data-name="Trazado 11459" d="M380.522,85.57s-16.4,11.183-72.2,11.183S235.874,85.57,235.874,85.57" transform="translate(-219.647 -0.606)" fill="none" stroke="#231f20" stroke-miterlimit="10" stroke-width="0.741" stroke-dasharray="1.482"/>
            <path id="Trazado_11460" data-name="Trazado 11460" d="M359.417,102.133c.145-2.195.435-6.6.576-8.8,3.562-55.686-5.984-71.875-5.984-71.875L348.3,19.985S358.4,37.315,354.837,93c-.174,2.732-.573,7.711-.766,10.07a284.933,284.933,0,0,1-44.39,3.027,291.452,291.452,0,0,1-46.824-3.321c-.177-2.232-.553-7.03-.733-9.776-3.555-55.686,6.543-73.019,6.543-73.019l-5.713,1.474s-9.532,16.189-5.977,71.871c.142,2.21.406,6.415.537,8.492-16.181-3.158-22.549-6.908-22.549-6.908l1.112,5.737s17.808,10.613,73.6,10.613,71.343-10.551,71.343-10.551l1.105-5.8S376.161,98.917,359.417,102.133Z" transform="translate(-219.912 -19.725)" fill="#fff" stroke="#231f20" stroke-linejoin="round" stroke-width="0.736"/>
            <path id="Trazado_11461" data-name="Trazado 11461" d="M400.735,264.519s-39.028,17.758-89.55,17.737S223.7,264.519,223.7,264.519" transform="translate(-223.197 51.558)" fill="none" stroke="#231f20" stroke-miterlimit="10" stroke-width="0.741" stroke-dasharray="1.482"/>
            <g id="Grupo_7481" data-name="Grupo 7481" transform="translate(27.764 118.894)">
              <g id="Grupo_7468" data-name="Grupo 7468" transform="translate(21.12 9.983)">
                <g id="Grupo_7467" data-name="Grupo 7467" transform="translate(0 0)">
                  <path id="Trazado_11462" data-name="Trazado 11462" d="M261.16,170.891a31.223,31.223,0,0,0,1.309-6.285,62.821,62.821,0,0,0,.438-6.4c.1-4.281-.05-8.569-.326-12.856-.169-4.285-.67-8.559-.877-12.869a54.753,54.753,0,0,1,.524-12.9,47.159,47.159,0,0,0-.176,6.433c.053,2.142.2,4.284.389,6.421.362,4.275.852,8.554,1.1,12.864a121.494,121.494,0,0,1,.1,12.941C263.362,162.523,262.867,166.906,261.16,170.891Z" transform="translate(-261.16 -119.572)" fill="#231f20"/>
                </g>
              </g>
              <g id="Grupo_7470" data-name="Grupo 7470" transform="translate(90.526 10.663)">
                <g id="Grupo_7469" data-name="Grupo 7469" transform="translate(0 0)">
                  <path id="Trazado_11463" data-name="Trazado 11463" d="M317.519,171.419c-1.707-3.981-2.2-8.369-2.491-12.66a121.5,121.5,0,0,1,.1-12.941c.251-4.312.741-8.59,1.1-12.864.19-2.139.336-4.279.389-6.422a46.949,46.949,0,0,0-.176-6.433A54.769,54.769,0,0,1,316.972,133c-.21,4.309-.709,8.583-.878,12.869-.275,4.286-.431,8.574-.326,12.856a63.156,63.156,0,0,0,.438,6.4,31.22,31.22,0,0,0,1.313,6.285Z" transform="translate(-314.904 -120.098)" fill="#231f20"/>
                </g>
              </g>
              <g id="Grupo_7472" data-name="Grupo 7472" transform="translate(105.078 14.863)">
                <g id="Grupo_7471" data-name="Grupo 7471" transform="translate(0)">
                  <path id="Trazado_11464" data-name="Trazado 11464" d="M328.69,152.16c-.294-3.192-.77-6.374-1.216-9.561-.88-6.358-1.773-12.827-1.03-19.249-.581,6.437.471,12.843,1.508,19.175.524,3.175,1.082,6.348,1.459,9.56a39.986,39.986,0,0,1,.154,9.742S328.976,155.343,328.69,152.16Z" transform="translate(-326.167 -123.35)" fill="#231f20"/>
                </g>
              </g>
              <g id="Grupo_7474" data-name="Grupo 7474" transform="translate(36.849 18.676)">
                <g id="Grupo_7473" data-name="Grupo 7473" transform="translate(0 0)">
                  <path id="Trazado_11465" data-name="Trazado 11465" d="M275.9,162.858a21.085,21.085,0,0,1-2.435-9.017,63.085,63.085,0,0,1,.1-9.218c.246-3.071.723-6.12,1.079-9.165.186-1.523.328-3.046.379-4.573a24.516,24.516,0,0,0-.172-4.582,28.541,28.541,0,0,1,.516,9.192c-.2,3.07-.692,6.114-.858,9.166a75.364,75.364,0,0,0-.314,9.156,33.042,33.042,0,0,0,.427,4.562A17.173,17.173,0,0,0,275.9,162.858Z" transform="translate(-273.341 -126.303)" fill="#231f20"/>
                </g>
              </g>
              <g id="Grupo_7476" data-name="Grupo 7476" transform="translate(0 15.823)">
                <g id="Grupo_7475" data-name="Grupo 7475">
                  <path id="Trazado_11466" data-name="Trazado 11466" d="M244.807,160.648a21.085,21.085,0,0,0,2.435-9.017,63.094,63.094,0,0,0-.1-9.218c-.246-3.071-.723-6.12-1.078-9.165-.186-1.523-.328-3.046-.379-4.573a24.519,24.519,0,0,1,.171-4.582,28.577,28.577,0,0,0-.515,9.192c.2,3.07.692,6.114.858,9.166a75.381,75.381,0,0,1,.314,9.158,33.03,33.03,0,0,1-.427,4.56A17.171,17.171,0,0,1,244.807,160.648Z" transform="translate(-244.807 -124.093)" fill="#231f20"/>
                </g>
              </g>
              <g id="Grupo_7478" data-name="Grupo 7478" transform="translate(122.206 12.653)">
                <g id="Grupo_7477" data-name="Grupo 7477" transform="translate(0 0)">
                  <path id="Trazado_11467" data-name="Trazado 11467" d="M341.987,158.193a21.123,21.123,0,0,1-2.435-9.017,63.261,63.261,0,0,1,.1-9.218c.246-3.07.723-6.12,1.08-9.164.184-1.523.327-3.048.379-4.574a24.505,24.505,0,0,0-.172-4.581,28.575,28.575,0,0,1,.515,9.192c-.2,3.07-.692,6.114-.858,9.166a75.364,75.364,0,0,0-.314,9.156,32.844,32.844,0,0,0,.428,4.562,17.157,17.157,0,0,0,1.272,4.478Z" transform="translate(-339.432 -121.639)" fill="#231f20"/>
                </g>
              </g>
              <g id="Grupo_7480" data-name="Grupo 7480" transform="translate(76.755 0)">
                <g id="Grupo_7479" data-name="Grupo 7479" transform="translate(0)">
                  <path id="Trazado_11468" data-name="Trazado 11468" d="M305.309,181.339A81.559,81.559,0,0,0,307.33,164.1a154.569,154.569,0,0,0-.784-17.417c-.531-5.8-1.342-11.57-1.892-17.377a85.7,85.7,0,0,1,.06-17.465,85.542,85.542,0,0,0,.2,17.439c.628,5.787,1.543,11.548,2.144,17.35a155.194,155.194,0,0,1,1.011,17.481C308.035,169.955,305.309,181.339,305.309,181.339Z" transform="translate(-304.238 -111.842)" fill="#231f20"/>
                </g>
              </g>
            </g>
            <path id="Trazado_11469" data-name="Trazado 11469" d="M368.313,140.792c1.01-.622,1.257-6.642,1.257-6.642a280.627,280.627,0,0,1-63.456,6.7c-42.927-.4-61.305-6.7-61.305-6.7s.614,6.015,1.625,6.637c1.745,1.076,14.6,6.882,59.649,7.018C349.816,147.944,366.568,141.868,368.313,140.792Z" transform="translate(-217.043 13.555)" fill="#fff" stroke="#231f20" stroke-miterlimit="10" stroke-width="0.75"/>
          </g>
          <g id="Grupo_7483" data-name="Grupo 7483" transform="translate(0.015 64.38)">
            <path id="Trazado_11470" data-name="Trazado 11470" d="M260.9,87.34c-3.589,8.46-13.48,8.315-14.068,23.569-.256,6.636,5.927,28.967,9.164,34.561,2.454,4.241,6.076,8.843,6.434,10.125a29.2,29.2,0,0,0-3.562,2.539c-1.67,1.854-2.2,4.488-2.91,6.8-2.483,8.057-3.237,16.722-7.507,24.145-.733,1.282-1.862,3.289-.957,4.75a19.5,19.5,0,0,0,6.893,6.1c2.94,1.765,15.272,7.945,15.272,7.945.314,1.676-22.161-2.425-22.161-2.425-3.814,47.488,34.38,47.815,35.143,50.366.511,1.712-32.094-.556-35.121,1.03a6.464,6.464,0,0,0-2.863,2.535c-.844,1.571-2.161,14.979-.844,18.625,5.737,15.875,35,17.038,33.974,17.26a73.938,73.938,0,0,1-36.525-1.824c-13.932,28.776,8.171,42.228,8.171,42.228-2.183-.25-22.373-6.884-26.114-8.551,5.7-57.563,17.6-159.507,29.371-167.53L238.446,81.506s14.542-.043,21.008-11.844C259.453,69.664,260.787,84.234,260.9,87.34Z" transform="translate(-223.321 -69.622)" fill="#f3f4f5"/>
            <path id="Trazado_11471" data-name="Trazado 11471" d="M306.265,145.87c-3.83-5.426-9.7-7.557-14.734-12.214-4.5-4.161-10.38-15.991-16.561-16.962a25.263,25.263,0,0,0,4.359,13.094c1.918,7.041,5.923,11.208,11.289,15.963Z" transform="translate(-208.266 -55.913)" fill="#f3f4f5"/>
            <path id="Trazado_11472" data-name="Trazado 11472" d="M293.347,144.728c3.848,3.578,8.38,8.256,10.634,13.075,2.212,4.736,2.272,11.627,7.114,14.684,4.105-2.358-5.458-24.054-6.655-27.759Z" transform="translate(-202.908 -47.741)" fill="#f3f4f5"/>
            <path id="Trazado_11473" data-name="Trazado 11473" d="M325.763,126.967c-5.175-8.454-16.218-9.968-22.745-17.467-1.3-1.49-3.771-6.875-5.615-3.158-1.122,2.258,3.156,7.661,4.407,9.419,2.472,7.28,10.932,9.153,16.655,12.907,6.093,3.994,8.55,10.871,14.093,15.331C332.316,137.82,328.992,132.242,325.763,126.967Z" transform="translate(-201.781 -59.305)" fill="#f3f4f5"/>
            <path id="Trazado_11474" data-name="Trazado 11474" d="M253.994,98.38c-2.074-4.714-6.783-2.84-10.161-6.256-3.049-3.084-3.405-9-8.178-10.35.073,4.686,3.267,10.14,3.267,10.14.082,6.943,7.2,6.416,11.451,9.281,4.4,2.964,6.261,8.728,11.323,10.924C263.042,106.4,255.969,102.871,253.994,98.38Z" transform="translate(-219.727 -66.093)" fill="#f3f4f5"/>
            <path id="Trazado_11475" data-name="Trazado 11475" d="M298.812,210.861c-1.781-4.049-4.386-2.533-7.7-4.26-2.4-1.257-3.992-4.407-5.314-6.584-2.58-4.249-5.745-14.224-11.079-15.734.073,4.687,3.266,10.14,3.266,10.14.041,3.489,2.464,7.557,4.009,10.585,2.534,4.963,3.743,5.8,8.185,8.207,8.3,4.5,11.373,16.379,19.832,20.05C311.815,225.565,301.745,217.528,298.812,210.861Z" transform="translate(-208.341 -36.21)" fill="#f3f4f5"/>
            <path id="Trazado_11476" data-name="Trazado 11476" d="M336.011,87.661c4.944,8.457,14.469,8,15.056,23.26.256,6.636-5.927,28.967-9.164,34.562-2.454,4.241-6.9,9.246-7.258,10.527.044-.156,5.737,5.163,6.447,7.474,2.481,8.056,4.085,18.185,8.357,25.606.738,1.282,1.862,3.289.958,4.75a19.522,19.522,0,0,1-6.893,6.1c-2.94,1.765-15.272,7.945-15.272,7.945-.314,1.676,22.161-2.425,22.161-2.425,3.814,47.488-34.38,47.815-35.143,50.366-.511,1.712,32.094-.556,35.121,1.03a6.463,6.463,0,0,1,2.863,2.535c.843,1.571,2.161,14.979.844,18.625-5.737,15.875-35,17.038-33.976,17.26a73.942,73.942,0,0,0,36.527-1.824c13.932,28.776-8.171,42.228-8.171,42.228,2.183-.25,22.373-6.884,26.113-8.551-5.694-57.563-19.016-161.976-26.486-167.343l10.312-78.268S342.592,80,337.078,69.632C337.076,69.631,337.6,85.521,336.011,87.661Z" transform="translate(-196.522 -69.632)" fill="#f3f4f5"/>
          </g>
        </g>
        <path id="Trazado_13307" data-name="Trazado 13307" d="M-41.047-7.2H-40a3.475,3.475,0,0,0,2.189-.578,2.023,2.023,0,0,0,.726-1.682,2.074,2.074,0,0,0-.609-1.647,2.852,2.852,0,0,0-1.908-.532h-1.442Zm7.161-2.374A4.571,4.571,0,0,1-35.4-5.877,6.454,6.454,0,0,1-39.694-4.6h-1.362V.722h-3.171V-14.233h4.778a6.354,6.354,0,0,1,4.138,1.171,4.271,4.271,0,0,1,1.426,3.493Zm5.064,4.552a4.8,4.8,0,0,0,.557,2.567,1.99,1.99,0,0,0,1.815.869,1.962,1.962,0,0,0,1.8-.864,4.869,4.869,0,0,0,.547-2.573,4.724,4.724,0,0,0-.552-2.548,2,2,0,0,0-1.811-.85,1.99,1.99,0,0,0-1.8.844,4.72,4.72,0,0,0-.551,2.553Zm7.908,0A6.146,6.146,0,0,1-22.387-.649a5.342,5.342,0,0,1-4.1,1.581A5.738,5.738,0,0,1-29.4.211a4.8,4.8,0,0,1-1.934-2.072A6.961,6.961,0,0,1-32-5.012,6.112,6.112,0,0,1-30.538-9.37a5.372,5.372,0,0,1,4.113-1.555,5.771,5.771,0,0,1,2.9.716,4.78,4.78,0,0,1,1.934,2.056,6.9,6.9,0,0,1,.671,3.134Zm10.557,2.342A3.149,3.149,0,0,1-11.581.005a6.04,6.04,0,0,1-3.657.926A11.486,11.486,0,0,1-17.366.758a8.048,8.048,0,0,1-1.647-.5V-2.316a10.876,10.876,0,0,0,1.959.685,7.932,7.932,0,0,0,1.918.277q1.7,0,1.7-.982a.819.819,0,0,0-.225-.6,3.263,3.263,0,0,0-.777-.524q-.552-.291-1.473-.68a9.254,9.254,0,0,1-1.939-1.023,2.88,2.88,0,0,1-.9-1.079,3.562,3.562,0,0,1-.282-1.5A2.717,2.717,0,0,1-17.852-10.1a5.755,5.755,0,0,1,3.352-.838,9.509,9.509,0,0,1,4.02.9l-.943,2.25a17.068,17.068,0,0,0-1.606-.6,5.044,5.044,0,0,0-1.526-.229q-1.381,0-1.381.747a.878.878,0,0,0,.445.726,12.1,12.1,0,0,0,1.948.91,9.054,9.054,0,0,1,1.964,1.013,3,3,0,0,1,.921,1.084,3.332,3.332,0,0,1,.3,1.463ZM-3.1-1.561a6.764,6.764,0,0,0,1.959-.357V.408a7,7,0,0,1-2.86.524A3.506,3.506,0,0,1-6.729-.011,4.119,4.119,0,0,1-7.583-2.85V-8.373H-9.077v-1.32l1.719-1.048.9-2.409h1.99v2.434h3.2v2.342h-3.2v5.514a1.218,1.218,0,0,0,.373.983,1.473,1.473,0,0,0,.988.316ZM5.907-8.706a1.979,1.979,0,0,0-1.555.629A2.912,2.912,0,0,0,3.708-6.3H8.087a2.6,2.6,0,0,0-.6-1.781A2.044,2.044,0,0,0,5.907-8.706ZM6.347.931A5.9,5.9,0,0,1,2.03-.6,5.771,5.771,0,0,1,.474-4.915,6.348,6.348,0,0,1,1.912-9.359a5.118,5.118,0,0,1,3.974-1.571A5.037,5.037,0,0,1,9.661-9.544a5.225,5.225,0,0,1,1.35,3.811v1.514H3.636a3,3,0,0,0,.788,2.076A2.772,2.772,0,0,0,6.49-1.4a8.578,8.578,0,0,0,1.954-.215A9.776,9.776,0,0,0,10.367-2.3V.113A7.326,7.326,0,0,1,8.618.722a11.029,11.029,0,0,1-2.271.21ZM19.931-10.93a5.028,5.028,0,0,1,1.054.092l-.238,2.926a3.574,3.574,0,0,0-.921-.1A3.309,3.309,0,0,0,17.5-7.25,2.774,2.774,0,0,0,16.66-5.1V.722H13.548V-10.715h2.363l.46,1.923h.153a4.3,4.3,0,0,1,1.437-1.549,3.544,3.544,0,0,1,1.969-.589Zm3-2.741q0-1.524,1.7-1.524t1.7,1.524a1.486,1.486,0,0,1-.424,1.13,1.781,1.781,0,0,1-1.274.4q-1.7,0-1.7-1.535ZM26.181.722H23.062V-10.715h3.121Zm5.761-5.739A4.8,4.8,0,0,0,32.5-2.45a1.99,1.99,0,0,0,1.815.869,1.962,1.962,0,0,0,1.8-.864,4.869,4.869,0,0,0,.547-2.573,4.724,4.724,0,0,0-.552-2.548,2,2,0,0,0-1.811-.85,1.99,1.99,0,0,0-1.8.844,4.72,4.72,0,0,0-.553,2.553Zm7.908,0A6.146,6.146,0,0,1,38.377-.649a5.342,5.342,0,0,1-4.1,1.581,5.738,5.738,0,0,1-2.9-.721,4.8,4.8,0,0,1-1.934-2.072,6.961,6.961,0,0,1-.676-3.151A6.112,6.112,0,0,1,30.226-9.37a5.372,5.372,0,0,1,4.113-1.555,5.771,5.771,0,0,1,2.9.716,4.78,4.78,0,0,1,1.934,2.056,6.9,6.9,0,0,1,.671,3.134Zm8.961-5.913a5.028,5.028,0,0,1,1.054.092L49.63-7.913a3.574,3.574,0,0,0-.921-.1,3.309,3.309,0,0,0-2.328.767A2.774,2.774,0,0,0,45.543-5.1V.722H42.43V-10.715h2.363l.46,1.923h.153a4.3,4.3,0,0,1,1.437-1.549,3.544,3.544,0,0,1,1.966-.589Z" transform="translate(96.365 378.95)" fill="#12263f"/>
      </g>
      <g id="Grupo_8340" data-name="Grupo 8340" transform="translate(592.426 5208.117)">
        <circle id="Elipse_501" data-name="Elipse 501" cx="97.942" cy="97.942" r="97.942" transform="translate(0 81.706)" fill="#ffeaa7"/>
        <g id="Grupo_7485" data-name="Grupo 7485" transform="translate(12.028 0)">
          <g id="Grupo_7462-2" data-name="Grupo 7462" transform="translate(0 0)">
            <path id="Trazado_11415-2" data-name="Trazado 11415" d="M163.085,75.5c-23.5-.987-29.656-27.026-29.656-27.026s-23.5,10.475-41.937,10.294h-.167C72.89,58.954,49.39,48.475,49.39,48.475S43.235,74.514,19.733,75.5l13.478,76.267c-11.466,14.665-21.33,98.74-28.226,162.806,0,0,38.555,17.623,86.645,17.643s86.815-17.292,86.815-17.292c-6.861-63.742-16.847-148.49-25.8-163.189Z" transform="translate(-4.985 -1.252)" fill="#fff" stroke="#231f20" stroke-miterlimit="10" stroke-width="0.736"/>
            <path id="Trazado_11416-2" data-name="Trazado 11416" d="M177.821,255.641s-38.016,17.3-87.227,17.284S5.373,255.641,5.373,255.641" transform="translate(-4.885 52.199)" fill="none" stroke="#231f20" stroke-miterlimit="10" stroke-width="0.741" stroke-dasharray="1.482"/>
            <path id="Trazado_11417-2" data-name="Trazado 11417" d="M124.339,46.477s-14.665,9.768-42.02,9.768S40.3,46.477,40.3,46.477l-.084,4.295s14.665,9.77,42.02,9.77,42.019-9.77,42.019-9.77Z" transform="translate(4.105 -1.768)" fill="#fff" stroke="#231f20" stroke-miterlimit="10" stroke-width="0.736"/>
            <path id="Trazado_11418-2" data-name="Trazado 11418" d="M40.3,49.6l-.084,4.295s14.665,9.77,42.02,9.77,42.019-9.77,42.019-9.77l.084-4.295" transform="translate(4.105 -0.962)" fill="none" stroke="#231f20" stroke-miterlimit="10" stroke-width="0.741" stroke-dasharray="1.482"/>
            <path id="Trazado_11419-2" data-name="Trazado 11419" d="M49.478,10.938l-4.245,1.4s9.9,71.56-28.34,72.843c.07.838.419,2.9.506,3.915C60.814,88.5,49.478,10.938,49.478,10.938Z" transform="translate(-1.913 -10.938)" fill="#fff" stroke="#231f20" stroke-miterlimit="10" stroke-width="0.736"/>
            <path id="Trazado_11420-2" data-name="Trazado 11420" d="M104.72,10.939l4.245,1.4S99.061,83.9,137.3,85.18c-.069.838-.419,2.9-.506,3.917C93.379,88.5,104.72,10.939,104.72,10.939Z" transform="translate(20.403 -10.938)" fill="#fff" stroke="#231f20" stroke-miterlimit="10" stroke-width="0.736"/>
            <path id="Trazado_11421-2" data-name="Trazado 11421" d="M18.308,81.693c17.509-.68,29.08-13.432,32.826-29.625" transform="translate(-1.548 -0.326)" fill="none" stroke="#231f20" stroke-miterlimit="10" stroke-width="0.741" stroke-dasharray="1.482"/>
            <path id="Trazado_11422-2" data-name="Trazado 11422" d="M136.21,81.693c-17.508-.682-29.079-13.433-32.826-29.625" transform="translate(20.403 -0.326)" fill="none" stroke="#231f20" stroke-miterlimit="10" stroke-width="0.741" stroke-dasharray="1.482"/>
            <g id="Grupo_7460-2" data-name="Grupo 7460" transform="translate(27.046 115.769)">
              <g id="Grupo_7447-2" data-name="Grupo 7447" transform="translate(20.572 9.723)">
                <g id="Grupo_7446-2" data-name="Grupo 7446" transform="translate(0 0)">
                  <path id="Trazado_11423-2" data-name="Trazado 11423" d="M42.837,160.683a30.521,30.521,0,0,0,1.276-6.124,61.548,61.548,0,0,0,.426-6.239c.1-4.171-.049-8.347-.314-12.524-.164-4.173-.653-8.336-.854-12.535a53.4,53.4,0,0,1,.513-12.57,45.944,45.944,0,0,0-.17,6.266c.051,2.089.193,4.173.379,6.255.353,4.164.828,8.333,1.075,12.532a118.327,118.327,0,0,1,.1,12.606,37.528,37.528,0,0,1-2.431,12.332Z" transform="translate(-42.837 -110.692)" fill="#231f20"/>
                </g>
              </g>
              <g id="Grupo_7449-2" data-name="Grupo 7449" transform="translate(88.174 10.387)">
                <g id="Grupo_7448-2" data-name="Grupo 7448" transform="translate(0 0)">
                  <path id="Trazado_11424-2" data-name="Trazado 11424" d="M99.124,161.211A37.5,37.5,0,0,1,96.7,148.879a118.324,118.324,0,0,1,.1-12.606c.246-4.2.721-8.369,1.076-12.532.185-2.082.326-4.168.377-6.255a45.929,45.929,0,0,0-.17-6.266,53.4,53.4,0,0,1,.513,12.57c-.2,4.2-.689,8.362-.854,12.534-.269,4.175-.419,8.352-.314,12.524a61.492,61.492,0,0,0,.426,6.237,30.449,30.449,0,0,0,1.273,6.126Z" transform="translate(-96.575 -111.22)" fill="#231f20"/>
                </g>
              </g>
              <g id="Grupo_7451-2" data-name="Grupo 7451" transform="translate(102.351 14.48)">
                <g id="Grupo_7450-2" data-name="Grupo 7450" transform="translate(0 0)">
                  <path id="Trazado_11425-2" data-name="Trazado 11425" d="M110.222,151.806a38.2,38.2,0,0,0,.08-9.271c-.286-3.107-.749-6.208-1.184-9.311-.857-6.195-1.728-12.495-1-18.75-.566,6.27.459,12.511,1.467,18.678.513,3.091,1.056,6.18,1.423,9.31a38.959,38.959,0,0,1,.147,9.488Z" transform="translate(-107.844 -114.473)" fill="#231f20"/>
                </g>
              </g>
              <g id="Grupo_7453-2" data-name="Grupo 7453" transform="translate(35.891 18.19)">
                <g id="Grupo_7452-2" data-name="Grupo 7452" transform="translate(0)">
                  <path id="Trazado_11426-2" data-name="Trazado 11426" d="M57.506,153.03a20.585,20.585,0,0,1-2.373-8.784,61.628,61.628,0,0,1,.1-8.978c.24-2.991.7-5.959,1.048-8.926.181-1.483.319-2.969.37-4.456a23.758,23.758,0,0,0-.167-4.462,27.836,27.836,0,0,1,.5,8.953c-.2,2.991-.675,5.955-.838,8.928a73.408,73.408,0,0,0-.314,8.92,31.984,31.984,0,0,0,.419,4.444,16.735,16.735,0,0,0,1.255,4.363Z" transform="translate(-55.015 -117.423)" fill="#231f20"/>
                </g>
              </g>
              <g id="Grupo_7455-2" data-name="Grupo 7455" transform="translate(0 15.414)">
                <g id="Grupo_7454-2" data-name="Grupo 7454" transform="translate(0 0)">
                  <path id="Trazado_11427-2" data-name="Trazado 11427" d="M26.484,150.823a20.566,20.566,0,0,0,2.372-8.784,61.278,61.278,0,0,0-.1-8.978c-.24-2.991-.7-5.959-1.048-8.926-.181-1.483-.319-2.968-.37-4.455a23.877,23.877,0,0,1,.168-4.463,27.836,27.836,0,0,0-.5,8.953c.2,2.991.675,5.955.838,8.928a73.931,73.931,0,0,1,.314,8.92,31.982,31.982,0,0,1-.419,4.444,16.735,16.735,0,0,1-1.255,4.363Z" transform="translate(-26.484 -115.216)" fill="#231f20"/>
                </g>
              </g>
              <g id="Grupo_7457-2" data-name="Grupo 7457" transform="translate(119.033 12.326)">
                <g id="Grupo_7456-2" data-name="Grupo 7456" transform="translate(0 0)">
                  <path id="Trazado_11428-2" data-name="Trazado 11428" d="M123.6,148.368a20.54,20.54,0,0,1-2.373-8.783,61.452,61.452,0,0,1,.1-8.978c.24-2.992.7-5.96,1.048-8.926.181-1.483.319-2.969.37-4.456a23.986,23.986,0,0,0-.167-4.463,27.836,27.836,0,0,1,.5,8.953c-.2,2.992-.675,5.955-.838,8.928a73.425,73.425,0,0,0-.314,8.921,32.205,32.205,0,0,0,.419,4.444,16.729,16.729,0,0,0,1.255,4.362Z" transform="translate(-121.106 -112.761)" fill="#231f20"/>
                </g>
              </g>
              <g id="Grupo_7459-2" data-name="Grupo 7459" transform="translate(74.765 0)">
                <g id="Grupo_7458-2" data-name="Grupo 7458" transform="translate(0)">
                  <path id="Trazado_11429-2" data-name="Trazado 11429" d="M86.957,170.66a79.446,79.446,0,0,0,1.97-16.791,150.587,150.587,0,0,0-.764-16.97c-.519-5.647-1.308-11.269-1.843-16.927a83.383,83.383,0,0,1,.058-17.01,83.311,83.311,0,0,0,.2,16.985c.616,5.637,1.5,11.249,2.09,16.9a151.41,151.41,0,0,1,.985,17.026C89.614,159.567,86.957,170.66,86.957,170.66Z" transform="translate(-85.915 -102.963)" fill="#231f20"/>
                </g>
              </g>
            </g>
            <path id="Trazado_11430-2" data-name="Trazado 11430" d="M146.787,131.744c.983-.607,1.221-6.472,1.221-6.472A273.385,273.385,0,0,1,86.2,131.8c-41.812-.39-59.714-6.529-59.714-6.529s.6,5.86,1.582,6.466c1.7,1.048,14.225,6.7,58.1,6.838C128.769,138.71,145.087,132.791,146.787,131.744Z" transform="translate(0.562 18.561)" fill="#fff" stroke="#231f20" stroke-miterlimit="10" stroke-width="0.75"/>
            <g id="Grupo_7461-2" data-name="Grupo 7461" transform="translate(113.172 145.448)">
              <path id="Trazado_11431-2" data-name="Trazado 11431" d="M107.389,133.109a3.233,3.233,0,0,0,.169,1.169q-.144-.86-.288-1.721c.764,5.761,1.279,24.059,1.362,29.868-1.808-.524-3.705-2.041-5.511-2.562a3.679,3.679,0,0,1-1.362-.6c-.8-.656-.989-10.2-1.11-11.274-.972-8.572,1.383-13.867,4.571-17.861Z" transform="translate(-93.532 -125.634)" fill="#fff" stroke="#231f20" stroke-miterlimit="10" stroke-width="0.75"/>
              <path id="Trazado_11432-2" data-name="Trazado 11432" d="M104.509,132.264c.233-.175,1.183,1.263,1.319,1.467a12.77,12.77,0,0,1,2.124,5.535c.477,2.185.512,3.921.964,6.486.283,1.609,2.079,10.161,2.912,11.545a44.234,44.234,0,0,1,2.034-4.215,8.717,8.717,0,0,1,1.379-1.683c.392-.38,1.284-1.078,1.191-1.754-.113-.816-2.1-11.779-2.96-13.865-1.145-2.747-3.276-5.222-6-5.78Z" transform="translate(-92.479 -125.668)" fill="#fff" stroke="#231f20" stroke-miterlimit="10" stroke-width="0.75"/>
              <path id="Trazado_11433-2" data-name="Trazado 11433" d="M108.133,127.357a4.6,4.6,0,0,0-5.275.511l-7.194,4.688a1.641,1.641,0,0,0-.6.561,1.362,1.362,0,0,0-.1.771,6.93,6.93,0,0,0,2.43,4.085c.9.851,2.086,1.676,3.273,1.333a3.067,3.067,0,0,0,1.054-.6,20.757,20.757,0,0,0,2.734-3.057,7.333,7.333,0,0,1,3.2-2.48l.082-.027Z" transform="translate(-94.945 -126.499)" fill="#fff" stroke="#231f20" stroke-miterlimit="10" stroke-width="0.75"/>
              <path id="Trazado_11434-2" data-name="Trazado 11434" d="M105.854,133.746a5.072,5.072,0,0,1,3.727,1.924,15.389,15.389,0,0,0,3.578,3.169,2.354,2.354,0,0,0,2.947-.433c1.027-.876,2.12-1.649,3.212-2.429,1.048-.745.164-1.781-.5-2.463-1.8-1.851-3.143-4.118-5.3-5.6s-5.151-2.179-6.928.18Z" transform="translate(-92.132 -126.555)" fill="#fff" stroke="#231f20" stroke-miterlimit="10" stroke-width="0.75"/>
              <path id="Trazado_11435-2" data-name="Trazado 11435" d="M105.94,130.7c-3.2.859-6.754,4.345-7.341,7.6a2.644,2.644,0,0,0,1.071,0,4.53,4.53,0,0,0,1.321-.659A16.438,16.438,0,0,0,103.5,135a7.333,7.333,0,0,1,3.205-2.48l.082-.026Z" transform="translate(-94.004 -125.486)" fill="#e6e7e8" stroke="#231f20" stroke-miterlimit="10" stroke-width="0.75"/>
              <path id="Trazado_11436-2" data-name="Trazado 11436" d="M107.569,130.316c2.542.943,5.12,2.134,6.575,4.162a6.543,6.543,0,0,1,.851,3.352l.058.14a2.2,2.2,0,0,1-1.982-.182,15.408,15.408,0,0,1-3.576-3.169c-.952-.991-2.268-2.033-3.727-1.924Z" transform="translate(-92.154 -125.586)" fill="#e6e7e8" stroke="#231f20" stroke-miterlimit="10" stroke-width="0.75"/>
              <path id="Trazado_11437-2" data-name="Trazado 11437" d="M105.95,126.916a2.11,2.11,0,0,0-1.647,1.068,3.05,3.05,0,0,0-.325,1.211,11.319,11.319,0,0,0,.476,3.606,2.709,2.709,0,0,0,.457,1.112,2.737,2.737,0,0,0,2.18.653,1.124,1.124,0,0,0,1.333-1.362q.075-1.27.15-2.541a6.614,6.614,0,0,0-.042-1.654,2.233,2.233,0,0,0-.814-1.4,3.826,3.826,0,0,0-1.768-.691Z" transform="translate(-92.62 -126.462)" fill="#fff" stroke="#231f20" stroke-miterlimit="10" stroke-width="0.75"/>
            </g>
          </g>
          <g id="Grupo_7463-2" data-name="Grupo 7463" transform="translate(0.02 50.775)">
            <path id="Trazado_11438-2" data-name="Trazado 11438" d="M45.384,52.266c1.325-5.5-4.867,14.181-3.324,16.263C40.756,83.081,28.478,88.549,27.9,103.41c-.249,6.464,5.774,28.216,8.926,33.666,2.39,4.132,5.917,8.615,6.267,9.862a28.476,28.476,0,0,0-3.47,2.473c-1.628,1.808-2.142,4.373-2.836,6.622-2.417,7.849-3.153,16.29-7.312,23.52-.72,1.25-1.814,3.2-.933,4.626a19.021,19.021,0,0,0,6.715,5.939c2.866,1.72,14.875,7.738,14.875,7.738.306,1.628-21.586-2.361-21.586-2.361-3.714,46.255,33.49,46.574,34.232,49.059.5,1.668-31.261-.543-34.211,1a6.3,6.3,0,0,0-2.79,2.469c-.821,1.526-2.1,14.594-.822,18.142,5.588,15.462,34.1,16.595,33.095,16.813A72.01,72.01,0,0,1,22.477,281.2c-13.574,28.031,7.961,41.134,7.961,41.134C28.31,322.092,8.644,315.63,5,314c5.551-56.066,17.141-155.366,28.607-163.181L19.729,74.775s10.37.083,16.157-6.529C39.124,64.544,43.844,58.655,45.384,52.266Z" transform="translate(-5.001 -51.299)" fill="#f3f4f5"/>
            <path id="Trazado_11439-2" data-name="Trazado 11439" d="M87.131,136.237c-3.73-5.285-9.446-7.362-14.351-11.9-4.383-4.053-10.112-15.575-16.132-16.522a24.616,24.616,0,0,0,4.245,12.758c1.868,6.857,5.768,10.919,11,15.548Z" transform="translate(8.325 -36.716)" fill="#f3f4f5"/>
            <path id="Trazado_11440-2" data-name="Trazado 11440" d="M75.023,135.85c3.749,3.487,8.171,8.043,10.36,12.736,2.155,4.609,2.211,11.326,6.929,14.3,4-2.3-5.317-23.431-6.484-27.039Z" transform="translate(13.066 -29.484)" fill="#f3f4f5"/>
            <path id="Trazado_11441-2" data-name="Trazado 11441" d="M106.7,117.522c-5.041-8.237-15.8-9.709-22.156-17.016-1.257-1.451-3.666-6.695-5.469-3.075-1.094,2.2,3.075,7.462,4.295,9.176,2.409,7.092,10.648,8.914,16.227,12.57,5.935,3.891,8.328,10.587,13.722,14.932C113.083,128.093,109.844,122.66,106.7,117.522Z" transform="translate(14.065 -39.719)" fill="#f3f4f5"/>
            <path id="Trazado_11442-2" data-name="Trazado 11442" d="M35.2,89.071c-2.021-4.59-6.609-2.766-9.9-6.093-2.971-3-3.319-8.768-7.967-10.078.073,4.565,3.182,9.878,3.182,9.878.081,6.763,7.01,6.249,11.155,9.039,4.295,2.887,6.1,8.5,11.029,10.642C44.01,96.881,37.12,93.447,35.2,89.071Z" transform="translate(-1.82 -45.727)" fill="#f3f4f5"/>
            <path id="Trazado_11443-2" data-name="Trazado 11443" d="M79.865,201.3c-1.736-3.944-4.272-2.467-7.5-4.151-2.341-1.22-3.889-4.295-5.178-6.412-2.514-4.139-5.595-13.855-10.789-15.326.073,4.565,3.182,9.878,3.182,9.878.04,3.4,2.4,7.36,3.905,10.31,2.468,4.836,3.645,5.651,7.972,7.995,8.089,4.383,11.079,15.956,19.318,19.532C92.529,215.619,82.72,207.788,79.865,201.3Z" transform="translate(8.258 -19.278)" fill="#f3f4f5"/>
            <path id="Trazado_11444-2" data-name="Trazado 11444" d="M113.879,53.048c-2.468-5.094,5.409,13.979,3.866,16.059,1.3,14.554,13.5,19.213,14.071,34.074.249,6.463-5.774,28.216-8.926,33.666-2.39,4.132-6.721,9.009-7.07,10.254.042-.151,5.586,5.028,6.285,7.28,2.417,7.849,3.981,17.714,8.14,24.944.719,1.25,1.814,3.2.933,4.626a19.021,19.021,0,0,1-6.713,5.939c-2.866,1.72-14.875,7.738-14.875,7.738-.306,1.628,21.585-2.361,21.585-2.361,3.717,46.255-33.488,46.574-34.232,49.059-.5,1.668,31.262-.543,34.211,1a6.306,6.306,0,0,1,2.791,2.469c.821,1.526,2.1,14.594.822,18.142-5.588,15.462-34.1,16.595-33.095,16.813a72.013,72.013,0,0,0,35.578-1.781c13.574,28.031-7.961,41.134-7.961,41.134,2.126-.243,21.788-6.7,25.437-8.33-5.547-56.07-18.524-157.775-25.8-163l10.042-76.24A25.835,25.835,0,0,1,123.8,69.045C118.486,64.708,114.768,54.879,113.879,53.048Z" transform="translate(18.719 -51.069)" fill="#f3f4f5"/>
          </g>
        </g>
        <rect id="Rectángulo_1815" data-name="Rectángulo 1815" width="15.713" height="307.968" transform="translate(92.181 31.425)" fill="#f3f7fa"/>
        <path id="Trazado_11477" data-name="Trazado 11477" d="M202,3963.3v276.006" transform="translate(-109.819 -3909.563)" fill="none" stroke="#707070" stroke-width="1"/>
        <path id="Trazado_11478" data-name="Trazado 11478" d="M217,3963.3v276.663" transform="translate(-109.107 -3909.563)" fill="none" stroke="#707070" stroke-width="1"/>
        <path id="Trazado_13308" data-name="Trazado 13308" d="M-31.308.722h-3.121V-14.233h8.573v2.6h-5.452v3.857h5.074V-5.19h-5.074Zm14.515-11.651a5.028,5.028,0,0,1,1.054.092l-.236,2.926a3.574,3.574,0,0,0-.921-.1,3.309,3.309,0,0,0-2.328.767A2.774,2.774,0,0,0-20.061-5.1V.722h-3.121V-10.715h2.363l.46,1.923h.153a4.3,4.3,0,0,1,1.437-1.549,3.544,3.544,0,0,1,1.976-.589Zm5.616,5.913a4.8,4.8,0,0,0,.557,2.567A1.99,1.99,0,0,0-8.8-1.579a1.962,1.962,0,0,0,1.8-.864,4.869,4.869,0,0,0,.547-2.573,4.724,4.724,0,0,0-.551-2.548,2,2,0,0,0-1.811-.85,1.99,1.99,0,0,0-1.8.844,4.72,4.72,0,0,0-.551,2.552Zm7.908,0A6.146,6.146,0,0,1-4.743-.648a5.342,5.342,0,0,1-4.1,1.58,5.738,5.738,0,0,1-2.9-.721,4.8,4.8,0,0,1-1.934-2.072,6.961,6.961,0,0,1-.676-3.151A6.112,6.112,0,0,1-12.887-9.37a5.372,5.372,0,0,1,4.113-1.555,5.771,5.771,0,0,1,2.9.716,4.78,4.78,0,0,1,1.925,2.05,6.9,6.9,0,0,1,.675,3.14ZM9.865.722H6.745v-6.68a3.209,3.209,0,0,0-.44-1.856,1.6,1.6,0,0,0-1.4-.619,2.107,2.107,0,0,0-1.893.875,5.424,5.424,0,0,0-.582,2.9V.722H-.692V-10.715H1.692l.419,1.467h.174a3.3,3.3,0,0,1,1.437-1.257A4.894,4.894,0,0,1,5.8-10.929,4,4,0,0,1,8.832-9.85,4.33,4.33,0,0,1,9.865-6.735ZM17.9-1.559a6.764,6.764,0,0,0,1.967-.358V.408A7,7,0,0,1,17,.932a3.506,3.506,0,0,1-2.724-.943,4.119,4.119,0,0,1-.854-2.839V-8.372h-1.5v-1.32L13.64-10.74l.9-2.409h1.99v2.434h3.206v2.342h-3.2v5.514a1.218,1.218,0,0,0,.373.983A1.473,1.473,0,0,0,17.9-1.559ZM29.434.722l-.6-1.555h-.082A4.609,4.609,0,0,1,27.128.543a5.238,5.238,0,0,1-2.174.389,3.515,3.515,0,0,1-2.594-.943,3.614,3.614,0,0,1-.943-2.681A3.018,3.018,0,0,1,22.691-5.38a7.38,7.38,0,0,1,3.841-.956L28.514-6.4v-.5a1.556,1.556,0,0,0-.456-1.315,1.556,1.556,0,0,0-1.325-.424,8.111,8.111,0,0,0-3.222.829l-1.03-2.1a9.3,9.3,0,0,1,4.379-1.033,5.453,5.453,0,0,1,3.529,1A3.705,3.705,0,0,1,31.616-6.9V.722Zm-.921-5.3-1.207.041a3.865,3.865,0,0,0-2.026.491,1.542,1.542,0,0,0-.665,1.371q0,1.32,1.514,1.32a2.4,2.4,0,0,0,1.734-.629,2.191,2.191,0,0,0,.649-1.657Zm9.428,5.3H34.826V-15.2h3.121Z" transform="translate(98.925 376.381)" fill="#12263f"/>
      </g>
      <g id="Grupo_8341" data-name="Grupo 8341" transform="translate(828.116 5205.547)">
        <circle id="Elipse_502" data-name="Elipse 502" cx="97.942" cy="97.942" r="97.942" transform="translate(0 84.275)" fill="#ffeaa7"/>
        <g id="Grupo_7486" data-name="Grupo 7486" transform="translate(9.429 0)">
          <g id="Grupo_7482-2" data-name="Grupo 7482" transform="translate(0 0)">
            <path id="Trazado_11445-2" data-name="Trazado 11445" d="M258.625,58.481l-.085,4.413s15.054,10.03,43.137,10.03,43.135-10.03,43.135-10.03l.085-4.413" transform="translate(-213.04 -8.502)" fill="none" stroke="#231f20" stroke-miterlimit="10" stroke-width="0.741" stroke-dasharray="1.482"/>
            <path id="Trazado_11446-2" data-name="Trazado 11446" d="M236.632,91.359c17.974-.7,29.854-13.791,33.7-30.413" transform="translate(-219.427 -7.784)" fill="none" stroke="#231f20" stroke-miterlimit="10" stroke-width="0.741" stroke-dasharray="1.482"/>
            <path id="Trazado_11447-2" data-name="Trazado 11447" d="M355.407,91.359c-17.975-.7-29.854-13.791-33.7-30.413" transform="translate(-194.626 -7.784)" fill="none" stroke="#231f20" stroke-miterlimit="10" stroke-width="0.741" stroke-dasharray="1.482"/>
            <path id="Trazado_11448-2" data-name="Trazado 11448" d="M344.9,55.354s-15.054,10.03-43.137,10.03-43.138-10.03-43.138-10.03l-.085,4.414S273.595,69.8,301.678,69.8s43.134-10.029,43.134-10.029Z" transform="translate(-213.04 -9.413)" fill="#fff" stroke="#231f20" stroke-miterlimit="10" stroke-width="0.736"/>
            <path id="Trazado_11449-2" data-name="Trazado 11449" d="M323.078,19.816l4.358,1.437s-10.167,73.465,29.091,74.782c-.072.859-.426,2.979-.524,4.019C311.434,99.438,323.078,19.816,323.078,19.816Z" transform="translate(-194.626 -19.773)" fill="#fff" stroke="#231f20" stroke-miterlimit="10" stroke-width="0.736"/>
            <path id="Trazado_11450-2" data-name="Trazado 11450" d="M268.664,19.816l-4.358,1.437s10.167,73.463-29.09,74.781c.071.86.425,2.981.524,4.02C280.307,99.438,268.664,19.816,268.664,19.816Z" transform="translate(-219.839 -19.773)" fill="#fff" stroke="#231f20" stroke-miterlimit="10" stroke-width="0.736"/>
            <g id="Grupo_7466-2" data-name="Grupo 7466" transform="translate(15.098)">
              <g id="Grupo_7465-2" data-name="Grupo 7465" transform="translate(0)">
                <path id="Trazado_11451-2" data-name="Trazado 11451" d="M382.169,85.064c-24.13-1.011-30.447-27.743-30.447-27.743S327.6,68.079,308.669,67.889H308.5c-18.925.19-43.053-10.568-43.053-10.568S259.128,84.052,235,85.064c0,0,21.5,29.7,73.455,29.7S382.169,85.064,382.169,85.064Z" transform="translate(-235 -8.84)" fill="#edeced" stroke="#231f20" stroke-linecap="round" stroke-linejoin="round" stroke-width="0.75"/>
                <path id="Trazado_11452-2" data-name="Trazado 11452" d="M344.869,55.321s-15.054,10.034-43.14,10.034-43.137-10.03-43.137-10.03l-.085,4.414s15.054,10.029,43.137,10.029,43.139-10.029,43.139-10.029Z" transform="translate(-228.147 -9.423)" fill="#fff" stroke="#231f20" stroke-miterlimit="10" stroke-width="0.736"/>
                <path id="Trazado_11453-2" data-name="Trazado 11453" d="M258.592,58.448l-.085,4.413s15.054,10.03,43.137,10.03,43.139-10.03,43.139-10.03l.085-4.413" transform="translate(-228.147 -8.512)" fill="none" stroke="#231f20" stroke-miterlimit="10" stroke-width="0.741" stroke-dasharray="1.482"/>
                <path id="Trazado_11454-2" data-name="Trazado 11454" d="M268.632,19.783l-4.358,1.437S274.441,94.684,235.183,96c.072.86.426,2.981.524,4.02C280.273,99.405,268.632,19.783,268.632,19.783Z" transform="translate(-234.946 -19.783)" fill="#fff" stroke="#231f20" stroke-miterlimit="10" stroke-width="0.736"/>
                <path id="Trazado_11455-2" data-name="Trazado 11455" d="M323.045,19.783,327.4,21.22S317.236,94.685,356.494,96c-.072.859-.426,2.979-.524,4.019C311.4,99.405,323.045,19.783,323.045,19.783Z" transform="translate(-209.733 -19.783)" fill="#fff" stroke="#231f20" stroke-miterlimit="10" stroke-width="0.736"/>
                <path id="Trazado_11456-2" data-name="Trazado 11456" d="M236.6,91.326c17.974-.7,29.854-13.792,33.7-30.413" transform="translate(-234.533 -7.794)" fill="none" stroke="#231f20" stroke-miterlimit="10" stroke-width="0.741" stroke-dasharray="1.482"/>
                <path id="Trazado_11457-2" data-name="Trazado 11457" d="M355.373,91.326c-17.974-.7-29.854-13.792-33.7-30.413" transform="translate(-209.734 -7.794)" fill="none" stroke="#231f20" stroke-miterlimit="10" stroke-width="0.741" stroke-dasharray="1.482"/>
              </g>
            </g>
            <path id="Trazado_11458-2" data-name="Trazado 11458" d="M385.576,78.8s-16.655,11.184-72.455,11.184S238.406,78.8,238.406,78.8l13.882,78.34c-11.771,15.058-21.9,101.368-28.977,167.142,0,0,39.579,18.093,88.951,18.114s89.125-17.754,89.125-17.754C394.344,259.2,384.092,172.2,374.9,157.107Z" transform="translate(-223.31 -2.579)" fill="#fff" stroke="#231f20" stroke-miterlimit="10" stroke-width="0.736"/>
            <path id="Trazado_11459-2" data-name="Trazado 11459" d="M380.522,85.57s-16.4,11.183-72.2,11.183S235.874,85.57,235.874,85.57" transform="translate(-219.647 -0.606)" fill="none" stroke="#231f20" stroke-miterlimit="10" stroke-width="0.741" stroke-dasharray="1.482"/>
            <path id="Trazado_11460-2" data-name="Trazado 11460" d="M359.417,102.133c.145-2.195.435-6.6.576-8.8,3.562-55.686-5.984-71.875-5.984-71.875L348.3,19.985S358.4,37.315,354.837,93c-.174,2.732-.573,7.711-.766,10.07a284.933,284.933,0,0,1-44.39,3.027,291.452,291.452,0,0,1-46.824-3.321c-.177-2.232-.553-7.03-.733-9.776-3.555-55.686,6.543-73.019,6.543-73.019l-5.713,1.474s-9.532,16.189-5.977,71.871c.142,2.21.406,6.415.537,8.492-16.181-3.158-22.549-6.908-22.549-6.908l1.112,5.737s17.808,10.613,73.6,10.613,71.343-10.551,71.343-10.551l1.105-5.8S376.161,98.917,359.417,102.133Z" transform="translate(-219.912 -19.725)" fill="#fff" stroke="#231f20" stroke-linejoin="round" stroke-width="0.736"/>
            <path id="Trazado_11461-2" data-name="Trazado 11461" d="M400.735,264.519s-39.028,17.758-89.55,17.737S223.7,264.519,223.7,264.519" transform="translate(-223.197 51.558)" fill="none" stroke="#231f20" stroke-miterlimit="10" stroke-width="0.741" stroke-dasharray="1.482"/>
            <g id="Grupo_7481-2" data-name="Grupo 7481" transform="translate(27.764 118.894)">
              <g id="Grupo_7468-2" data-name="Grupo 7468" transform="translate(21.12 9.983)">
                <g id="Grupo_7467-2" data-name="Grupo 7467" transform="translate(0 0)">
                  <path id="Trazado_11462-2" data-name="Trazado 11462" d="M261.16,170.891a31.223,31.223,0,0,0,1.309-6.285,62.821,62.821,0,0,0,.438-6.4c.1-4.281-.05-8.569-.326-12.856-.169-4.285-.67-8.559-.877-12.869a54.753,54.753,0,0,1,.524-12.9,47.159,47.159,0,0,0-.176,6.433c.053,2.142.2,4.284.389,6.421.362,4.275.852,8.554,1.1,12.864a121.494,121.494,0,0,1,.1,12.941C263.362,162.523,262.867,166.906,261.16,170.891Z" transform="translate(-261.16 -119.572)" fill="#231f20"/>
                </g>
              </g>
              <g id="Grupo_7470-2" data-name="Grupo 7470" transform="translate(90.526 10.663)">
                <g id="Grupo_7469-2" data-name="Grupo 7469" transform="translate(0 0)">
                  <path id="Trazado_11463-2" data-name="Trazado 11463" d="M317.519,171.419c-1.707-3.981-2.2-8.369-2.491-12.66a121.5,121.5,0,0,1,.1-12.941c.251-4.312.741-8.59,1.1-12.864.19-2.139.336-4.279.389-6.422a46.949,46.949,0,0,0-.176-6.433A54.769,54.769,0,0,1,316.972,133c-.21,4.309-.709,8.583-.878,12.869-.275,4.286-.431,8.574-.326,12.856a63.156,63.156,0,0,0,.438,6.4,31.22,31.22,0,0,0,1.313,6.285Z" transform="translate(-314.904 -120.098)" fill="#231f20"/>
                </g>
              </g>
              <g id="Grupo_7472-2" data-name="Grupo 7472" transform="translate(105.078 14.863)">
                <g id="Grupo_7471-2" data-name="Grupo 7471" transform="translate(0)">
                  <path id="Trazado_11464-2" data-name="Trazado 11464" d="M328.69,152.16c-.294-3.192-.77-6.374-1.216-9.561-.88-6.358-1.773-12.827-1.03-19.249-.581,6.437.471,12.843,1.508,19.175.524,3.175,1.082,6.348,1.459,9.56a39.986,39.986,0,0,1,.154,9.742S328.976,155.343,328.69,152.16Z" transform="translate(-326.167 -123.35)" fill="#231f20"/>
                </g>
              </g>
              <g id="Grupo_7474-2" data-name="Grupo 7474" transform="translate(36.849 18.676)">
                <g id="Grupo_7473-2" data-name="Grupo 7473" transform="translate(0 0)">
                  <path id="Trazado_11465-2" data-name="Trazado 11465" d="M275.9,162.858a21.085,21.085,0,0,1-2.435-9.017,63.085,63.085,0,0,1,.1-9.218c.246-3.071.723-6.12,1.079-9.165.186-1.523.328-3.046.379-4.573a24.516,24.516,0,0,0-.172-4.582,28.541,28.541,0,0,1,.516,9.192c-.2,3.07-.692,6.114-.858,9.166a75.364,75.364,0,0,0-.314,9.156,33.042,33.042,0,0,0,.427,4.562A17.173,17.173,0,0,0,275.9,162.858Z" transform="translate(-273.341 -126.303)" fill="#231f20"/>
                </g>
              </g>
              <g id="Grupo_7476-2" data-name="Grupo 7476" transform="translate(0 15.823)">
                <g id="Grupo_7475-2" data-name="Grupo 7475">
                  <path id="Trazado_11466-2" data-name="Trazado 11466" d="M244.807,160.648a21.085,21.085,0,0,0,2.435-9.017,63.094,63.094,0,0,0-.1-9.218c-.246-3.071-.723-6.12-1.078-9.165-.186-1.523-.328-3.046-.379-4.573a24.519,24.519,0,0,1,.171-4.582,28.577,28.577,0,0,0-.515,9.192c.2,3.07.692,6.114.858,9.166a75.381,75.381,0,0,1,.314,9.158,33.03,33.03,0,0,1-.427,4.56A17.171,17.171,0,0,1,244.807,160.648Z" transform="translate(-244.807 -124.093)" fill="#231f20"/>
                </g>
              </g>
              <g id="Grupo_7478-2" data-name="Grupo 7478" transform="translate(122.206 12.653)">
                <g id="Grupo_7477-2" data-name="Grupo 7477" transform="translate(0 0)">
                  <path id="Trazado_11467-2" data-name="Trazado 11467" d="M341.987,158.193a21.123,21.123,0,0,1-2.435-9.017,63.261,63.261,0,0,1,.1-9.218c.246-3.07.723-6.12,1.08-9.164.184-1.523.327-3.048.379-4.574a24.505,24.505,0,0,0-.172-4.581,28.575,28.575,0,0,1,.515,9.192c-.2,3.07-.692,6.114-.858,9.166a75.364,75.364,0,0,0-.314,9.156,32.844,32.844,0,0,0,.428,4.562,17.157,17.157,0,0,0,1.272,4.478Z" transform="translate(-339.432 -121.639)" fill="#231f20"/>
                </g>
              </g>
              <g id="Grupo_7480-2" data-name="Grupo 7480" transform="translate(76.755 0)">
                <g id="Grupo_7479-2" data-name="Grupo 7479" transform="translate(0)">
                  <path id="Trazado_11468-2" data-name="Trazado 11468" d="M305.309,181.339A81.559,81.559,0,0,0,307.33,164.1a154.569,154.569,0,0,0-.784-17.417c-.531-5.8-1.342-11.57-1.892-17.377a85.7,85.7,0,0,1,.06-17.465,85.542,85.542,0,0,0,.2,17.439c.628,5.787,1.543,11.548,2.144,17.35a155.194,155.194,0,0,1,1.011,17.481C308.035,169.955,305.309,181.339,305.309,181.339Z" transform="translate(-304.238 -111.842)" fill="#231f20"/>
                </g>
              </g>
            </g>
            <path id="Trazado_11469-2" data-name="Trazado 11469" d="M368.313,140.792c1.01-.622,1.257-6.642,1.257-6.642a280.627,280.627,0,0,1-63.456,6.7c-42.927-.4-61.305-6.7-61.305-6.7s.614,6.015,1.625,6.637c1.745,1.076,14.6,6.882,59.649,7.018C349.816,147.944,366.568,141.868,368.313,140.792Z" transform="translate(-217.043 13.555)" fill="#fff" stroke="#231f20" stroke-miterlimit="10" stroke-width="0.75"/>
          </g>
          <g id="Grupo_7483-2" data-name="Grupo 7483" transform="translate(0.015 64.38)">
            <path id="Trazado_11470-2" data-name="Trazado 11470" d="M260.9,87.34c-3.589,8.46-13.48,8.315-14.068,23.569-.256,6.636,5.927,28.967,9.164,34.561,2.454,4.241,6.076,8.843,6.434,10.125a29.2,29.2,0,0,0-3.562,2.539c-1.67,1.854-2.2,4.488-2.91,6.8-2.483,8.057-3.237,16.722-7.507,24.145-.733,1.282-1.862,3.289-.957,4.75a19.5,19.5,0,0,0,6.893,6.1c2.94,1.765,15.272,7.945,15.272,7.945.314,1.676-22.161-2.425-22.161-2.425-3.814,47.488,34.38,47.815,35.143,50.366.511,1.712-32.094-.556-35.121,1.03a6.464,6.464,0,0,0-2.863,2.535c-.844,1.571-2.161,14.979-.844,18.625,5.737,15.875,35,17.038,33.974,17.26a73.938,73.938,0,0,1-36.525-1.824c-13.932,28.776,8.171,42.228,8.171,42.228-2.183-.25-22.373-6.884-26.114-8.551,5.7-57.563,17.6-159.507,29.371-167.53L238.446,81.506s14.542-.043,21.008-11.844C259.453,69.664,260.787,84.234,260.9,87.34Z" transform="translate(-223.321 -69.622)" fill="#f3f4f5"/>
            <path id="Trazado_11471-2" data-name="Trazado 11471" d="M306.265,145.87c-3.83-5.426-9.7-7.557-14.734-12.214-4.5-4.161-10.38-15.991-16.561-16.962a25.263,25.263,0,0,0,4.359,13.094c1.918,7.041,5.923,11.208,11.289,15.963Z" transform="translate(-208.266 -55.913)" fill="#f3f4f5"/>
            <path id="Trazado_11472-2" data-name="Trazado 11472" d="M293.347,144.728c3.848,3.578,8.38,8.256,10.634,13.075,2.212,4.736,2.272,11.627,7.114,14.684,4.105-2.358-5.458-24.054-6.655-27.759Z" transform="translate(-202.908 -47.741)" fill="#f3f4f5"/>
            <path id="Trazado_11473-2" data-name="Trazado 11473" d="M325.763,126.967c-5.175-8.454-16.218-9.968-22.745-17.467-1.3-1.49-3.771-6.875-5.615-3.158-1.122,2.258,3.156,7.661,4.407,9.419,2.472,7.28,10.932,9.153,16.655,12.907,6.093,3.994,8.55,10.871,14.093,15.331C332.316,137.82,328.992,132.242,325.763,126.967Z" transform="translate(-201.781 -59.305)" fill="#f3f4f5"/>
            <path id="Trazado_11474-2" data-name="Trazado 11474" d="M253.994,98.38c-2.074-4.714-6.783-2.84-10.161-6.256-3.049-3.084-3.405-9-8.178-10.35.073,4.686,3.267,10.14,3.267,10.14.082,6.943,7.2,6.416,11.451,9.281,4.4,2.964,6.261,8.728,11.323,10.924C263.042,106.4,255.969,102.871,253.994,98.38Z" transform="translate(-219.727 -66.093)" fill="#f3f4f5"/>
            <path id="Trazado_11475-2" data-name="Trazado 11475" d="M298.812,210.861c-1.781-4.049-4.386-2.533-7.7-4.26-2.4-1.257-3.992-4.407-5.314-6.584-2.58-4.249-5.745-14.224-11.079-15.734.073,4.687,3.266,10.14,3.266,10.14.041,3.489,2.464,7.557,4.009,10.585,2.534,4.963,3.743,5.8,8.185,8.207,8.3,4.5,11.373,16.379,19.832,20.05C311.815,225.565,301.745,217.528,298.812,210.861Z" transform="translate(-208.341 -36.21)" fill="#f3f4f5"/>
            <path id="Trazado_11476-2" data-name="Trazado 11476" d="M336.011,87.661c4.944,8.457,14.469,8,15.056,23.26.256,6.636-5.927,28.967-9.164,34.562-2.454,4.241-6.9,9.246-7.258,10.527.044-.156,5.737,5.163,6.447,7.474,2.481,8.056,4.085,18.185,8.357,25.606.738,1.282,1.862,3.289.958,4.75a19.522,19.522,0,0,1-6.893,6.1c-2.94,1.765-15.272,7.945-15.272,7.945-.314,1.676,22.161-2.425,22.161-2.425,3.814,47.488-34.38,47.815-35.143,50.366-.511,1.712,32.094-.556,35.121,1.03a6.463,6.463,0,0,1,2.863,2.535c.843,1.571,2.161,14.979.844,18.625-5.737,15.875-35,17.038-33.976,17.26a73.942,73.942,0,0,0,36.527-1.824c13.932,28.776-8.171,42.228-8.171,42.228,2.183-.25,22.373-6.884,26.113-8.551-5.694-57.563-19.016-161.976-26.486-167.343l10.312-78.268S342.592,80,337.078,69.632C337.076,69.631,337.6,85.521,336.011,87.661Z" transform="translate(-196.522 -69.632)" fill="#f3f4f5"/>
          </g>
        </g>
        <path id="Trazado_13309" data-name="Trazado 13309" d="M-41.047-7.2H-40a3.475,3.475,0,0,0,2.189-.578,2.023,2.023,0,0,0,.726-1.682,2.074,2.074,0,0,0-.609-1.647,2.852,2.852,0,0,0-1.908-.532h-1.442Zm7.161-2.374A4.571,4.571,0,0,1-35.4-5.877,6.454,6.454,0,0,1-39.694-4.6h-1.362V.722h-3.171V-14.233h4.778a6.354,6.354,0,0,1,4.138,1.171,4.271,4.271,0,0,1,1.426,3.493Zm5.064,4.552a4.8,4.8,0,0,0,.557,2.567,1.99,1.99,0,0,0,1.815.869,1.962,1.962,0,0,0,1.8-.864,4.869,4.869,0,0,0,.547-2.573,4.724,4.724,0,0,0-.552-2.548,2,2,0,0,0-1.811-.85,1.99,1.99,0,0,0-1.8.844,4.72,4.72,0,0,0-.551,2.553Zm7.908,0A6.146,6.146,0,0,1-22.387-.649a5.342,5.342,0,0,1-4.1,1.581A5.738,5.738,0,0,1-29.4.211a4.8,4.8,0,0,1-1.934-2.072A6.961,6.961,0,0,1-32-5.012,6.112,6.112,0,0,1-30.538-9.37a5.372,5.372,0,0,1,4.113-1.555,5.771,5.771,0,0,1,2.9.716,4.78,4.78,0,0,1,1.934,2.056,6.9,6.9,0,0,1,.671,3.134Zm10.557,2.342A3.149,3.149,0,0,1-11.581.005a6.04,6.04,0,0,1-3.657.926A11.486,11.486,0,0,1-17.366.758a8.048,8.048,0,0,1-1.647-.5V-2.316a10.876,10.876,0,0,0,1.959.685,7.932,7.932,0,0,0,1.918.277q1.7,0,1.7-.982a.819.819,0,0,0-.225-.6,3.263,3.263,0,0,0-.777-.524q-.552-.291-1.473-.68a9.254,9.254,0,0,1-1.939-1.023,2.88,2.88,0,0,1-.9-1.079,3.562,3.562,0,0,1-.282-1.5A2.717,2.717,0,0,1-17.852-10.1a5.755,5.755,0,0,1,3.352-.838,9.509,9.509,0,0,1,4.02.9l-.943,2.25a17.068,17.068,0,0,0-1.606-.6,5.044,5.044,0,0,0-1.526-.229q-1.381,0-1.381.747a.878.878,0,0,0,.445.726,12.1,12.1,0,0,0,1.948.91,9.054,9.054,0,0,1,1.964,1.013,3,3,0,0,1,.921,1.084,3.332,3.332,0,0,1,.3,1.463ZM-3.1-1.561a6.764,6.764,0,0,0,1.959-.357V.408a7,7,0,0,1-2.86.524A3.506,3.506,0,0,1-6.729-.011,4.119,4.119,0,0,1-7.583-2.85V-8.373H-9.077v-1.32l1.719-1.048.9-2.409h1.99v2.434h3.2v2.342h-3.2v5.514a1.218,1.218,0,0,0,.373.983,1.473,1.473,0,0,0,.988.316ZM5.907-8.706a1.979,1.979,0,0,0-1.555.629A2.912,2.912,0,0,0,3.708-6.3H8.087a2.6,2.6,0,0,0-.6-1.781A2.044,2.044,0,0,0,5.907-8.706ZM6.347.931A5.9,5.9,0,0,1,2.03-.6,5.771,5.771,0,0,1,.474-4.915,6.348,6.348,0,0,1,1.912-9.359a5.118,5.118,0,0,1,3.974-1.571A5.037,5.037,0,0,1,9.661-9.544a5.225,5.225,0,0,1,1.35,3.811v1.514H3.636a3,3,0,0,0,.788,2.076A2.772,2.772,0,0,0,6.49-1.4a8.578,8.578,0,0,0,1.954-.215A9.776,9.776,0,0,0,10.367-2.3V.113A7.326,7.326,0,0,1,8.618.722a11.029,11.029,0,0,1-2.271.21ZM19.931-10.93a5.028,5.028,0,0,1,1.054.092l-.238,2.926a3.574,3.574,0,0,0-.921-.1A3.309,3.309,0,0,0,17.5-7.25,2.774,2.774,0,0,0,16.66-5.1V.722H13.548V-10.715h2.363l.46,1.923h.153a4.3,4.3,0,0,1,1.437-1.549,3.544,3.544,0,0,1,1.969-.589Zm3-2.741q0-1.524,1.7-1.524t1.7,1.524a1.486,1.486,0,0,1-.424,1.13,1.781,1.781,0,0,1-1.274.4q-1.7,0-1.7-1.535ZM26.181.722H23.062V-10.715h3.121Zm5.761-5.739A4.8,4.8,0,0,0,32.5-2.45a1.99,1.99,0,0,0,1.815.869,1.962,1.962,0,0,0,1.8-.864,4.869,4.869,0,0,0,.547-2.573,4.724,4.724,0,0,0-.552-2.548,2,2,0,0,0-1.811-.85,1.99,1.99,0,0,0-1.8.844,4.72,4.72,0,0,0-.553,2.553Zm7.908,0A6.146,6.146,0,0,1,38.377-.649a5.342,5.342,0,0,1-4.1,1.581,5.738,5.738,0,0,1-2.9-.721,4.8,4.8,0,0,1-1.934-2.072,6.961,6.961,0,0,1-.676-3.151A6.112,6.112,0,0,1,30.226-9.37a5.372,5.372,0,0,1,4.113-1.555,5.771,5.771,0,0,1,2.9.716,4.78,4.78,0,0,1,1.934,2.056,6.9,6.9,0,0,1,.671,3.134Zm8.961-5.913a5.028,5.028,0,0,1,1.054.092L49.63-7.913a3.574,3.574,0,0,0-.921-.1,3.309,3.309,0,0,0-2.328.767A2.774,2.774,0,0,0,45.543-5.1V.722H42.43V-10.715h2.363l.46,1.923h.153a4.3,4.3,0,0,1,1.437-1.549,3.544,3.544,0,0,1,1.966-.589Z" transform="translate(102.65 378.95)" fill="#12263f"/>
        <rect id="Rectángulo_1816" data-name="Rectángulo 1816" width="15.713" height="307.968" transform="translate(91.133 33.994)" fill="#f3f7fa"/>
        <path id="Trazado_11479" data-name="Trazado 11479" d="M426,3963.3v282.723" transform="translate(-334.867 -3906.994)" fill="none" stroke="#707070" stroke-width="1"/>
        <path id="Trazado_11480" data-name="Trazado 11480" d="M441,3960.53v285.12" transform="translate(-334.154 -3905.378)" fill="none" stroke="#707070" stroke-width="1"/>
      </g>
    </g>
  </g>
</svg>
