<svg xmlns="http://www.w3.org/2000/svg" width="193" height="249.919" viewBox="0 0 193 249.919">
  <g id="Grupo_21064" data-name="Grupo 21064" transform="translate(-490 -5420.203)">
    <g id="Grupo_7720" data-name="Grupo 7720" transform="translate(527.87 5421.717)">
      <path id="Trazado_12082" data-name="Trazado 12082" d="M161.051,349.334c-.317,2.558,1.417,6.966,2.042,9.551a61.533,61.533,0,0,1,1.339,10.874c.037,1.662.271,3.778.417,5.695.161,2.042.693,5.142.427,6.133a1.56,1.56,0,0,1-.469.8v.005a1.957,1.957,0,0,1-1.27.437,1.84,1.84,0,0,1-1.016-.24,2.233,2.233,0,0,1-.781-.907c-.854-1.6-.927-4.236-1.355-6.6-.167-.922-.448-2.275-.609-3.043-.073-.354-.125-.582-.125-.582s-.234.161-.529.354l-.005.005c-.437.3-1.011.672-1.136.745a2.475,2.475,0,0,0-.37,1.094v.053a8.594,8.594,0,0,0-.125.964,7.735,7.735,0,0,0-.005,1.3,1.135,1.135,0,0,0,.167.5c.276.406,1.058,1.011,1.481,1.688a1.491,1.491,0,0,1,.135,1.36,4.454,4.454,0,0,1-.364.547,23.072,23.072,0,0,0,1.714,2.006,1.852,1.852,0,0,1,.651,1.344c-.011.212-.13.865-.13.865a7.3,7.3,0,0,1,1.042,1.688,1.3,1.3,0,0,1-.344,1.4,1.485,1.485,0,0,1-1.626-.047,22.258,22.258,0,0,1-2.652-1.725c-.672-.49-2.173-1.725-2.866-2.287a17.8,17.8,0,0,1-2.36-2.24,4.761,4.761,0,0,1-.917-1.693,21.842,21.842,0,0,1-.771-3.194,16.677,16.677,0,0,0-.547-2.595,10.715,10.715,0,0,1-.677-4.043c.047-.828,1.9-7.049,2.251-8.993a36.282,36.282,0,0,0,1.016-7.316c-.088-2.4-.159-5.846-.078-8.154.021-.7.208-2.975.459-5.872.578-6.68,1.5-16.664,1.615-18.3.167-2.345.933-10.6,1.2-13.1a38.8,38.8,0,0,1,1.2-6.146h19c-1.677,6.718-4.694,14.985-6.451,20.076C168.378,325.361,162.349,338.846,161.051,349.334Z" transform="translate(-149.414 -301.666)" fill="#fff" stroke="#3b1f10" stroke-linecap="round" stroke-linejoin="round" stroke-width="1.942"/>
      <path id="Trazado_12097" data-name="Trazado 12097" d="M265.615,375.332c-.292,1.308-1.852,8.252-3.736,16.777-3.35,15.157-7.946,30.835-7.909,37.6.021,3.845.281,6.685.625,15.464.159,3.975-.662,9.321-.745,14.2a105.642,105.642,0,0,0,.719,12.286c.891,10.21-2.4,20.684-3.35,23.665a183.852,183.852,0,0,0-5.7,21.545,41.4,41.4,0,0,0-.453,7.044c.062,3.7,1.167,6.727,1.167,8.748a9.834,9.834,0,0,1-.568,2.275,4.455,4.455,0,0,0-.026,1.47.221.221,0,0,0,.011.057,9.228,9.228,0,0,0,2.511,4.059,37.27,37.27,0,0,1,3.4,3.476l0,0a.005.005,0,0,1,0,0,8.583,8.583,0,0,1,.547.755c.042.057.078.115.115.172a1.658,1.658,0,0,1-.4,1.985,2.525,2.525,0,0,1-1.9.646h-.026a2.614,2.614,0,0,1-1.657.714,3.675,3.675,0,0,1-1.891-.224,3.608,3.608,0,0,1-1.37.464c-1.329.042-1.662-.292-1.9-.547a1.619,1.619,0,0,1-.193.159l-.005.005a.091.091,0,0,1-.026.021,3.3,3.3,0,0,1-2.1.609,4.9,4.9,0,0,1-2.251-.849c-.005.005-.005.005-.011,0s-.016-.005-.021-.011c-.005.011-.011.016-.016.026-.37.667-1.777,1.157-3.015,1.111a4.775,4.775,0,0,1-3.231-1.164,4.02,4.02,0,0,1-1.49-3.105c-.094-1.407.794-3.314.917-6.289.062-1.5-.582-7.451-.552-7.795.13-1.563.985-2.923,1.417-5.278.084-.437.62-2.668,1-5.559.088-1.709.159-3.407.159-3.407s-.161-4.1-.271-5.992a142.553,142.553,0,0,0-1.631-14.574c-.969-6.348-1.746-11.723-1.928-14.485a60.234,60.234,0,0,1,.406-13.073c.865-6.674,1.787-9.446,1.792-12.083.005-3.392-.135-4.043-1.407-9.082-.735-2.933-.529-6.5-.448-10.066.125-5.1.615-11.885.38-14.389-.172-1.851-1.438-50.712-1.021-57.168.224-3.544.656-6.362.849-7.524.062-.375.106-.578.106-.578a8.615,8.615,0,0,1-2.169.281,6.379,6.379,0,0,1-2.169-.276c.005.036.068.234.159.573a42.45,42.45,0,0,1,1.214,7.659c.412,6.454.823,10.572-.135,30.069,0,0-.193,2.975-.448,6.956-.479,7.43-1.188,18.372-1.344,20.008-.229,2.506.26,9.29.386,14.389.084,3.569.287,7.133-.448,10.066-1.27,5.038-1.412,5.69-1.407,9.082.005,2.637.927,5.409,1.792,12.083a59.867,59.867,0,0,1,.4,13.073c-.177,2.761-.952,8.139-1.922,14.485a142.556,142.556,0,0,0-1.631,14.573c-.11,1.9-.271,5.992-.271,5.992s.073,1.761.159,3.5c.386,2.845.912,5.033.99,5.466.433,2.355,1.287,3.715,1.417,5.278.031.344-.615,6.3-.552,7.795.125,2.975.886,4.82.787,6.226a5.026,5.026,0,0,1-1.164,3.037,3.941,3.941,0,0,1-3.428,1.355c-1.256,0-2.678-.521-3.032-1.2-.005,0-.011.005-.016.011a.3.3,0,0,0-.042.021,4.941,4.941,0,0,1-2.225.828,3.289,3.289,0,0,1-2.121-.631,1.757,1.757,0,0,1-.2-.161.084.084,0,0,1-.021.021c-.229.25-.582.568-1.876.526a3.568,3.568,0,0,1-1.37-.464,3.706,3.706,0,0,1-1.9.224,2.61,2.61,0,0,1-1.652-.714.416.416,0,0,1-.115.005v.005a2.573,2.573,0,0,1-1.808-.656,1.644,1.644,0,0,1-.4-1.985,2.094,2.094,0,0,1,.13-.193c.151-.24.329-.479.51-.719a.005.005,0,0,1,.005-.005,36.239,36.239,0,0,1,3.423-3.491,9.115,9.115,0,0,0,2.516-4.116c.005-.047.011-.088.016-.135v-.005a7.051,7.051,0,0,0,0-1.407c-.115-1.37-.49-2.611-.224-3.58a27.266,27.266,0,0,0,.339-14.412,177.079,177.079,0,0,0-5.7-21.545c-.952-2.98-4.241-13.453-3.35-23.665a105.655,105.655,0,0,0,.719-12.286c-.084-4.877-.9-10.223-.745-14.2.344-8.781.907-11.63.625-15.464-.317-4.236-3.074-21.4-5.736-33.659-.834-3.845-1.662-7.211-2.4-9.54-8.847-27.865-6.534-51.676-3.231-61.727.005-.021.011-.042.016-.068.053-.146.094-.281.146-.417.521-1.5,1.068-2.871,1.64-4.153,0-.005.005-.011.005-.016,3.189-7.164,6.935-11.426,8.91-18.462H255.1c1.954,6.956,5.638,11.2,8.806,18.22.609,1.355,1.2,2.809,1.756,4.408.12.344.234.7.354,1.084a.019.019,0,0,0,.005.016C268.77,334.327,270.661,352.917,265.615,375.332Z" transform="translate(-167.853 -301.664)" fill="#fff" stroke="#3b1f10" stroke-linecap="round" stroke-linejoin="round" stroke-width="1.942"/>
      <path id="Trazado_12098" data-name="Trazado 12098" d="M356.509,374.309a16.632,16.632,0,0,0-.542,2.592,21.217,21.217,0,0,1-.777,3.2,4.854,4.854,0,0,1-.912,1.688c-.135.182-.927.985-.927.985-.5.464-1.053.943-1.438,1.256-.693.558-2.194,1.8-2.866,2.287a22.258,22.258,0,0,1-2.652,1.724,1.475,1.475,0,0,1-1.626.042,1.3,1.3,0,0,1-.344-1.4,5.216,5.216,0,0,1,.771-1.329l.005-.005c.151-.212.264-.354.264-.354s-.021-.109-.042-.256a6.141,6.141,0,0,1-.084-.609,1.808,1.808,0,0,1,.646-1.339,20.451,20.451,0,0,0,1.657-1.933l-.078-.245a.016.016,0,0,0,.011-.005,4.111,4.111,0,0,1-.24-.37,1.5,1.5,0,0,1,.141-1.36c.423-.682,1.2-1.282,1.481-1.688a2.212,2.212,0,0,0,.193-1.164,4.916,4.916,0,0,1-.042-.714c-.042-.573-.13-1.813-.485-2.032-.13-.078-.735-.476-1.183-.777l-.563.005c-.146.682-.476,2.256-.662,3.293-.427,2.36-.505,4.992-1.355,6.6a2.118,2.118,0,0,1-.917.974,1.9,1.9,0,0,1-.886.167,1.983,1.983,0,0,1-1.172-.36,1.593,1.593,0,0,1-.568-.876c-.26-.99.271-4.09.427-6.136.151-1.918.386-4.028.423-5.69a61.963,61.963,0,0,1,1.339-10.874c.631-2.592,2.36-6.992,2.048-9.551-1.3-10.494-7.19-24.02-8.57-27.594a166.965,166.965,0,0,1-6.654-20.795h19a39.05,39.05,0,0,1,1.407,6.867c.271,2.5,1.032,10.754,1.2,13.1.115,1.636,1.037,11.619,1.61,18.293.25,2.9.437,5.179.459,5.877.078,2.308.005,5.752-.084,8.154a36.254,36.254,0,0,0,1.016,7.316c.354,1.944,2.2,8.165,2.251,8.993A10.637,10.637,0,0,1,356.509,374.309Z" transform="translate(-236.068 -301.662)" fill="#fff" stroke="#3b1f10" stroke-linecap="round" stroke-linejoin="round" stroke-width="1.942"/>
      <path id="Trazado_12099" data-name="Trazado 12099" d="M264.865,314.172a2.471,2.471,0,0,1-1.3.595,1.1,1.1,0,0,1-1.094-.9,2.873,2.873,0,0,0,1.315.435C264.181,314.273,264.865,314.172,264.865,314.172Z" transform="translate(-203.565 -307.508)" fill="#3b1f10"/>
      <path id="Trazado_12100" data-name="Trazado 12100" d="M265.075,316.147a3.345,3.345,0,0,1-2.732,1.459,2.245,2.245,0,0,1-2.078-1.091,3.685,3.685,0,0,1-.348-.741,5.68,5.68,0,0,0,1.612,1.064,3.618,3.618,0,0,0,1.334.015A14.8,14.8,0,0,0,265.075,316.147Z" transform="translate(-202.341 -308.421)" fill="#3b1f10"/>
      <path id="Trazado_12101" data-name="Trazado 12101" d="M176.122,450.818c-.086-.18-.287-.337-.712-.356a2.18,2.18,0,0,0-1.221.24c-.367.218-.4.753-.3,1.474a7.44,7.44,0,0,0,.464,1.963,1.5,1.5,0,0,0,1.3.2c.427-.121.776-.235.856-.688A7.782,7.782,0,0,0,176.122,450.818Z" transform="translate(-161.112 -372.927)" fill="#fff" stroke="#411906" stroke-linecap="round" stroke-linejoin="round" stroke-width="1"/>
      <path id="Trazado_12102" data-name="Trazado 12102" d="M352.684,451.8c.086-.18.287-.337.712-.355a2.176,2.176,0,0,1,1.221.24c.367.218.4.752.3,1.473a7.445,7.445,0,0,1-.463,1.963,1.492,1.492,0,0,1-1.3.2c-.427-.121-.776-.234-.856-.688a7.786,7.786,0,0,1,.386-2.831Z" transform="translate(-246.583 -373.399)" fill="#fff" stroke="#411906" stroke-linecap="round" stroke-linejoin="round" stroke-width="1"/>
      <path id="Trazado_12108" data-name="Trazado 12108" d="M250.39,558.406a9.453,9.453,0,0,1,.112,2.61c-.468,1.811-.626,1.428-1.315,2.5a26.954,26.954,0,0,0,.817-2.582C250.127,560.263,250.39,558.406,250.39,558.406Z" transform="translate(-197.202 -424.633)" fill="#3b1f10"/>
      <path id="Trazado_12109" data-name="Trazado 12109" d="M226.923,549.814a10.781,10.781,0,0,1-2.466-1.864,12.52,12.52,0,0,1-1.331-1.881c-.718-.919-.772.764.669,2.238A4.9,4.9,0,0,0,226.923,549.814Z" transform="translate(-184.484 -418.598)"/>
      <path id="Trazado_12110" data-name="Trazado 12110" d="M241.683,580.961a8.237,8.237,0,0,1-2.794,4.793,8.128,8.128,0,0,1-3.73,1.443,22.085,22.085,0,0,0,3.37-2.422C239.451,583.831,241.683,580.961,241.683,580.961Z" transform="translate(-190.483 -435.436)" fill="#3b1f10"/>
      <path id="Trazado_12111" data-name="Trazado 12111" d="M224.363,586.886a9.925,9.925,0,0,1-2.984-4.736c-.4-1.234-.8-2.039-.905-1.693a6.614,6.614,0,0,0,1,4.027A8.69,8.69,0,0,0,224.363,586.886Z" transform="translate(-183.425 -435.156)" fill="#3b1f10"/>
      <path id="Trazado_12112" data-name="Trazado 12112" d="M244.567,617.485s.2-10.118.463-12.157c.556-4.279,1.273-3.157,1.01-1.442C245.732,605.883,244.567,617.485,244.567,617.485Z" transform="translate(-194.989 -445.684)" fill="#3b1f10"/>
      <path id="Trazado_12115" data-name="Trazado 12115" d="M205.328,335.935s3.231,1.88,3.85,4.332c.794,3.131.353-1.283-1.087-2.722A9.412,9.412,0,0,0,205.328,335.935Z" transform="translate(-176.195 -318.077)" fill="#3b1f10"/>
      <path id="Trazado_12116" data-name="Trazado 12116" d="M245.9,663.942c.218,4.745.794,15.517.794,15.517s-1.877-15.822-1.963-18.922c-.058-2.089-.275-14.648-.307-22C244.392,630.526,245.764,660.939,245.9,663.942Z" transform="translate(-194.921 -462.369)" fill="#3b1f10"/>
      <path id="Trazado_12125" data-name="Trazado 12125" d="M319.4,336.889a2.93,2.93,0,0,1,1.074-1.27,4.457,4.457,0,0,1,1.722-.607,7.635,7.635,0,0,0-1.913,1.839,12.632,12.632,0,0,0-1.022,2.676A4.546,4.546,0,0,1,319.4,336.889Z" transform="translate(-230.701 -317.636)" fill="#3b1f10"/>
      <path id="Trazado_12126" data-name="Trazado 12126" d="M278.764,558.406a9.454,9.454,0,0,0-.112,2.61c.468,1.811.626,1.428,1.315,2.5a26.941,26.941,0,0,1-.817-2.582C279.028,560.263,278.764,558.406,278.764,558.406Z" transform="translate(-211.283 -424.633)" fill="#3b1f10"/>
      <path id="Trazado_12127" data-name="Trazado 12127" d="M299.559,549.814a10.772,10.772,0,0,0,2.465-1.864,12.54,12.54,0,0,0,1.331-1.881c.718-.919.771.764-.669,2.238a4.9,4.9,0,0,1-3.128,1.507Z" transform="translate(-221.328 -418.598)"/>
      <path id="Trazado_12128" data-name="Trazado 12128" d="M282.743,580.961a8.237,8.237,0,0,0,2.794,4.793,8.126,8.126,0,0,0,3.729,1.443,22.1,22.1,0,0,1-3.369-2.422C284.975,583.831,282.743,580.961,282.743,580.961Z" transform="translate(-213.273 -435.436)" fill="#3b1f10"/>
      <path id="Trazado_12129" data-name="Trazado 12129" d="M302.439,586.886a9.921,9.921,0,0,0,2.984-4.736c.4-1.234.8-2.039.906-1.693a6.614,6.614,0,0,1-1,4.027,8.69,8.69,0,0,1-2.888,2.4Z" transform="translate(-222.707 -435.156)" fill="#3b1f10"/>
      <path id="Trazado_12130" data-name="Trazado 12130" d="M284.451,617.485s-.2-10.118-.463-12.157c-.556-4.279-1.273-3.157-1.01-1.442C283.285,605.883,284.451,617.485,284.451,617.485Z" transform="translate(-213.359 -445.684)" fill="#3b1f10"/>
      <g id="Grupo_7720-2" data-name="Grupo 7720" transform="translate(5.028 67.173)">
        <path id="Trazado_12132" data-name="Trazado 12132" d="M168.276,433.819s-.076-1.233-.154-1.759c-.068-.455-.121-1.476-.121-1.476s-.116,1.024-.143,1.784a2.5,2.5,0,0,1-.764,1.422l.786-.366Z" transform="translate(-162.91 -430.584)" fill="#3b1f10"/>
        <path id="Trazado_12133" data-name="Trazado 12133" d="M165.683,449.736a.814.814,0,0,1-.44-.154,18.154,18.154,0,0,1-1.781-1.693c-.4-.457-1.3-1.319-1.3-1.319s-.019-1.019-.075-1.8a6.078,6.078,0,0,1,.69.483c.485.42,1.363,1.208,1.363,1.208l-.615-.793a6.142,6.142,0,0,0-.7-.747c-.462-.373-.6-.515-.77-.638a6.972,6.972,0,0,0-.375-1.5s.126-.374.279-.776a8.457,8.457,0,0,0,.279-1.291l-.007-1.927s-.24,1.089-.374,2a12.6,12.6,0,0,1-.529,1.752s.252,1.117.416,1.874c.083.386.028,1.242.067,1.827a32.026,32.026,0,0,1-1.033-3.495c-.306-1.111-.484-1.5-.747-2.243a10.19,10.19,0,0,0-.968-2.067s.55,1.737.77,2.374c.159.46.66,2.155.66,2.155l.967,3.341s.663.671.666.656c.25.224.744.673,1.054.985.428.432,1.351,1.343,1.732,1.635s1.23.769,1.23.769Z" transform="translate(-159.064 -434.343)" fill="#3b1f10"/>
      </g>
      <g id="Grupo_7721" data-name="Grupo 7721" transform="translate(108.962 67.429)">
        <path id="Trazado_12134" data-name="Trazado 12134" d="M361.349,434.309s.076-1.233.154-1.758c.068-.455.121-1.477.121-1.477s.115,1.024.143,1.784a2.154,2.154,0,0,0,.8,1.34h-.78Z" transform="translate(-359.885 -431.074)" fill="#3b1f10"/>
        <path id="Trazado_12135" data-name="Trazado 12135" d="M358.928,450.579a3.539,3.539,0,0,0,.878-.3,18.106,18.106,0,0,0,1.781-1.693c.4-.457,1.3-1.319,1.3-1.319s.019-1.019.075-1.8a6.14,6.14,0,0,0-.688.482c-.485.423-1.364,1.209-1.364,1.209l.616-.793a6.062,6.062,0,0,1,.7-.747c.462-.373.6-.515.769-.635a6.984,6.984,0,0,1,.375-1.5s-.126-.373-.279-.775a8.486,8.486,0,0,1-.279-1.291l-.212-2.292a20.007,20.007,0,0,1,.593,2.366,12.618,12.618,0,0,0,.529,1.753s-.252,1.116-.416,1.874c-.083.385-.027,1.242-.067,1.826a32.148,32.148,0,0,0,1.033-3.5c.306-1.111.484-1.5.747-2.242a10.237,10.237,0,0,1,.967-2.068s-.55,1.738-.77,2.375c-.159.459-.659,2.155-.659,2.155L363.591,447s-.663.672-.666.657c-.249.223-.745.672-1.054.984-.427.433-1.351,1.343-1.731,1.635s-1.6,1.392-1.6,1.392Z" transform="translate(-358.539 -434.927)" fill="#3b1f10"/>
      </g>
      <path id="Trazado_12165" data-name="Trazado 12165" d="M243.952,768.428a3.9,3.9,0,0,1,.577-2.439,3.2,3.2,0,0,0-.94,1.519,3.288,3.288,0,0,0,.144,2.284,2.715,2.715,0,0,0,.267.535.284.284,0,0,1,.267.02s-.041-.205.295.033a2.6,2.6,0,0,0,.379.053,3.6,3.6,0,0,1-.988-2Z" transform="translate(-194.453 -524.058)" fill="#3b1f10"/>
      <path id="Trazado_12166" data-name="Trazado 12166" d="M235.454,768.362a3.154,3.154,0,0,1,.771-1.611,2.813,2.813,0,0,0,.555-.926,6.21,6.21,0,0,0-.617.638,6.959,6.959,0,0,0-.833,1.111,2.785,2.785,0,0,0-.124,1.991c.166.606,1.276,1.519.485.846.278.146.555-.185.555-.185A2.334,2.334,0,0,1,235.454,768.362Z" transform="translate(-190.444 -523.979)" fill="#3b1f10"/>
      <path id="Trazado_12167" data-name="Trazado 12167" d="M229.095,768.938c0-.642.1-.966.824-2a1.915,1.915,0,0,0,.41-.794,9.531,9.531,0,0,0-.905,1.09,5.507,5.507,0,0,0-.514.864,2.368,2.368,0,0,0,.1,2.242c.007.011.312.338.205-.02.119.021.013-.285.15-.187a2.806,2.806,0,0,0,.272.171,2,2,0,0,0,.2.041A1.466,1.466,0,0,1,229.095,768.938Z" transform="translate(-187.387 -524.13)" fill="#3b1f10"/>
      <path id="Trazado_12168" data-name="Trazado 12168" d="M223.94,769.788a1.893,1.893,0,0,1-1.317-1.769,2.763,2.763,0,0,1,.714-1.785c.42-.539,1.015-1.2,1.015-1.2s-.885.781-1.358,1.255a2.507,2.507,0,0,0-.6.967,2.62,2.62,0,0,0-.061,1.892c.02,0,.394.619.165.227-.121-.207.212.058.514.268a7.3,7.3,0,0,1,.926.143Z" transform="translate(-184.27 -523.601)" fill="#3b1f10"/>
      <path id="Trazado_12169" data-name="Trazado 12169" d="M250.532,762.929c1.425.132,2.611,1.207,2.473.928-.507-1.027-2.045-1.352-3.158-1.352a2.642,2.642,0,0,0-1.7.539A7,7,0,0,1,250.532,762.929Z" transform="translate(-196.701 -522.388)" fill="#3b1f10"/>
      <path id="Trazado_12170" data-name="Trazado 12170" d="M230.386,750.228a9.018,9.018,0,0,1,1.679-2.61c1.164-1.079,1.419-1.379,1.419-1.379a7.371,7.371,0,0,0-1.6.884,15.673,15.673,0,0,1-1.354.892Z" transform="translate(-188.196 -514.598)" fill="#3b1f10"/>
      <path id="Trazado_12171" data-name="Trazado 12171" d="M255.007,742.5c.123.164.628.814.993,1.283.016-.493.028-.952.034-1.372a5.169,5.169,0,0,0-2.414-1.366S254.809,742.239,255.007,742.5Z" transform="translate(-199.325 -512.112)" fill="#3b1f10"/>
      <path id="Trazado_12172" data-name="Trazado 12172" d="M284.561,768.428a3.9,3.9,0,0,0-.577-2.439,3.2,3.2,0,0,1,.941,1.519,3.288,3.288,0,0,1-.144,2.284,2.685,2.685,0,0,1-.268.535.284.284,0,0,0-.267.02s.041-.205-.294.033a2.607,2.607,0,0,1-.379.053A3.6,3.6,0,0,0,284.561,768.428Z" transform="translate(-213.671 -524.058)" fill="#3b1f10"/>
      <path id="Trazado_12173" data-name="Trazado 12173" d="M292.863,768.362a3.162,3.162,0,0,0-.771-1.611,2.812,2.812,0,0,1-.555-.926,6.17,6.17,0,0,1,.617.638,6.969,6.969,0,0,1,.834,1.111,2.788,2.788,0,0,1,.124,1.991c-.166.606-1.276,1.519-.485.846-.277.146-.555-.185-.555-.185A2.333,2.333,0,0,0,292.863,768.362Z" transform="translate(-217.486 -523.979)" fill="#3b1f10"/>
      <path id="Trazado_12174" data-name="Trazado 12174" d="M299.286,768.938c0-.642-.1-.966-.824-2a1.915,1.915,0,0,1-.41-.793,9.533,9.533,0,0,1,.905,1.09,5.5,5.5,0,0,1,.514.864,2.368,2.368,0,0,1-.1,2.242c-.008.011-.312.338-.206-.02-.118.021-.012-.285-.149-.187a2.9,2.9,0,0,1-.272.171q-.1.026-.2.041A1.466,1.466,0,0,0,299.286,768.938Z" transform="translate(-220.606 -524.13)" fill="#3b1f10"/>
      <path id="Trazado_12175" data-name="Trazado 12175" d="M303.952,769.788a1.893,1.893,0,0,0,1.317-1.769,2.764,2.764,0,0,0-.714-1.785c-.42-.539-1.014-1.2-1.014-1.2s.884.781,1.358,1.255a2.507,2.507,0,0,1,.6.967,2.62,2.62,0,0,1,.061,1.892c-.02,0-.394.619-.164.227.121-.207-.212.058-.514.268A7.3,7.3,0,0,0,303.952,769.788Z" transform="translate(-223.235 -523.601)" fill="#3b1f10"/>
      <path id="Trazado_12176" data-name="Trazado 12176" d="M274.869,762.93c-1.425.132-2.611,1.207-2.473.928.507-1.027,2.045-1.352,3.158-1.352a2.645,2.645,0,0,1,1.7.539,7,7,0,0,0-2.39-.115Z" transform="translate(-208.313 -522.388)" fill="#3b1f10"/>
      <path id="Trazado_12177" data-name="Trazado 12177" d="M296.647,750.228a9.029,9.029,0,0,0-1.679-2.61c-1.164-1.079-1.42-1.379-1.42-1.379a7.385,7.385,0,0,1,1.606.884,15.572,15.572,0,0,0,1.354.892Z" transform="translate(-218.449 -514.598)" fill="#3b1f10"/>
      <path id="Trazado_12178" data-name="Trazado 12178" d="M272.656,742.5c-.123.164-.629.814-.993,1.283-.016-.493-.028-.952-.034-1.372a5.169,5.169,0,0,1,2.414-1.366S272.855,742.239,272.656,742.5Z" transform="translate(-207.95 -512.112)" fill="#3b1f10"/>
      <path id="Trazado_12179" data-name="Trazado 12179" d="M237.7,768.379c-.412.117-.7.782-.7.782s-.205.554.061.576a8.23,8.23,0,0,1,1.749.288c.37.087.823-1.009.576-1.358S238.112,768.263,237.7,768.379Z" transform="translate(-191.328 -525.176)" fill="#fff" stroke="#411906" stroke-linecap="round" stroke-linejoin="round" stroke-width="0.4"/>
      <path id="Trazado_12180" data-name="Trazado 12180" d="M231.363,768.666c-.36.106-.535.617-.535.617s-.3.533,0,.6a4.952,4.952,0,0,0,1.554.212c.325-.069.555-.806.339-1.118A1.553,1.553,0,0,0,231.363,768.666Z" transform="translate(-188.345 -525.318)" fill="#fff" stroke="#411906" stroke-linecap="round" stroke-linejoin="round" stroke-width="0.4"/>
      <path id="Trazado_12181" data-name="Trazado 12181" d="M225.183,768.572a.988.988,0,0,0-.576.4.364.364,0,0,0,.007.476,2.175,2.175,0,0,0,1.439.406c.329-.043.476-.518.287-.846a1.242,1.242,0,0,0-1.157-.441Z" transform="translate(-185.388 -525.287)" fill="#fff" stroke="#411906" stroke-linecap="round" stroke-linejoin="round" stroke-width="0.4"/>
      <path id="Trazado_12182" data-name="Trazado 12182" d="M219.568,766.724a.921.921,0,0,0-.563.339s-.3.352-.039.456a5.01,5.01,0,0,0,1.275.506c.3-.014.483-.454.34-.782A1.106,1.106,0,0,0,219.568,766.724Z" transform="translate(-182.675 -524.408)" fill="#fff" stroke="#411906" stroke-linecap="round" stroke-linejoin="round" stroke-width="0.4"/>
      <path id="Trazado_12183" data-name="Trazado 12183" d="M248.856,767.252c.906.114,1.337.39,1.678.034.2-.215,1.064-1.3-.114-1.968a3.8,3.8,0,0,0-2.942-.226,2.465,2.465,0,0,0-1.164,1.179c-.256.517-.161.835.053.9C246.964,767.345,247.21,767.047,248.856,767.252Z" transform="translate(-195.752 -523.534)" fill="#fff" stroke="#411906" stroke-linecap="round" stroke-linejoin="round" stroke-width="0.4"/>
      <path id="Trazado_12184" data-name="Trazado 12184" d="M290.119,768.379c.412.117.7.782.7.782s.206.554-.061.576a8.23,8.23,0,0,0-1.749.288c-.37.087-.823-1.009-.576-1.358S289.708,768.263,290.119,768.379Z" transform="translate(-215.965 -525.176)" fill="#fff" stroke="#411906" stroke-linecap="round" stroke-linejoin="round" stroke-width="0.4"/>
      <path id="Trazado_12185" data-name="Trazado 12185" d="M296.844,768.666c.36.106.535.617.535.617s.3.533,0,.6a4.952,4.952,0,0,1-1.554.212c-.324-.069-.555-.806-.339-1.118A1.553,1.553,0,0,1,296.844,768.666Z" transform="translate(-219.337 -525.318)" fill="#fff" stroke="#411906" stroke-linecap="round" stroke-linejoin="round" stroke-width="0.4"/>
      <path id="Trazado_12186" data-name="Trazado 12186" d="M303.214,768.572a.987.987,0,0,1,.576.4.364.364,0,0,1-.007.476,2.176,2.176,0,0,1-1.439.406c-.329-.043-.476-.518-.287-.846A1.243,1.243,0,0,1,303.214,768.572Z" transform="translate(-222.484 -525.287)" fill="#fff" stroke="#411906" stroke-linecap="round" stroke-linejoin="round" stroke-width="0.4"/>
      <path id="Trazado_12187" data-name="Trazado 12187" d="M308.948,766.724a.921.921,0,0,1,.563.339s.3.352.039.456a5.01,5.01,0,0,1-1.275.506c-.3-.014-.483-.454-.34-.782A1.106,1.106,0,0,1,308.948,766.724Z" transform="translate(-225.315 -524.408)" fill="#fff" stroke="#411906" stroke-linecap="round" stroke-linejoin="round" stroke-width="0.4"/>
      <path id="Trazado_12188" data-name="Trazado 12188" d="M276.55,767.252c-.907.114-1.337.39-1.678.034-.205-.215-1.064-1.3.114-1.968a3.794,3.794,0,0,1,2.942-.226,2.465,2.465,0,0,1,1.164,1.179c.256.517.161.835-.053.9C278.442,767.345,278.2,767.047,276.55,767.252Z" transform="translate(-209.267 -523.534)" fill="#fff" stroke="#411906" stroke-linecap="round" stroke-linejoin="round" stroke-width="0.4"/>
      <path id="Trazado_12204" data-name="Trazado 12204" d="M268.116,340.474a15.021,15.021,0,0,0-1.688-3.847s-7.988,1.876-17.048,2.995a157.49,157.49,0,0,1-17.434.807v-.017s-.388.007-1.066.012-1.066-.012-1.066-.012v.017a157.364,157.364,0,0,1-17.434-.807c-9.061-1.119-17.048-2.995-17.048-2.995a15.021,15.021,0,0,0-1.688,3.847,12.876,12.876,0,0,0-.5,2.385,32.894,32.894,0,0,1,7.954,2.849,60.558,60.558,0,0,1,15.375,10.568c2.612,2.458,5.009,4.612,9.686,12.228a29.447,29.447,0,0,1,2.355,6.115,5.175,5.175,0,0,0,2.562.351c1.93-.044,2.376-.454,2.376-.454a27.206,27.206,0,0,1,2.269-5.769c4.678-7.618,6.965-10.013,9.575-12.471a60.558,60.558,0,0,1,15.375-10.568,32.9,32.9,0,0,1,7.954-2.849,12.88,12.88,0,0,0-.505-2.385Z" transform="translate(-170.357 -318.409)" fill="#3b1f10"/>
    </g>
    <path id="Trazado_13405" data-name="Trazado 13405" d="M0,0H193V3.027H0Z" transform="translate(490 5420.203)" fill="#895cd8"/>
    <path id="Trazado_11922" data-name="Trazado 11922" d="M6276.742,612.484v145" transform="translate(-5670.742 4813.859)" fill="none" stroke="#ea3065" stroke-width="2" stroke-dasharray="6"/>
    <path id="Trazado_12263" data-name="Trazado 12263" d="M6297,5844.19h76.286" transform="translate(-5746.708 -269.112)" fill="none" stroke="#ea3065" stroke-width="2"/>
  </g>
</svg>
