<svg xmlns="http://www.w3.org/2000/svg" width="193" height="242.089" viewBox="0 0 193 242.089">
  <g id="Grupo_21075" data-name="Grupo 21075" transform="translate(-490 -5379.141)">
    <g id="Grupo_7693" data-name="Grupo 7693" transform="translate(505.137 5379.141)">
      <path id="Trazado_11850" data-name="Trazado 11850" d="M327.158,148.971c-2.739-10.76-4.5-13.695-7.825-32.085-1.775-9.814-1.424-19.164-1.491-29.073-.1-15.474-.008-33.244-12.553-36.2-4.434-1.046-3.435-6.474-14.666-7.4a39.531,39.531,0,0,0-12.817.925c-6.624,1.987-9.144,3.4-13.147,6.736-3.339,2.785-5.285,5.483-7.333,11.628-1.056,3.167-2.23,11.862-2.312,13.809-.146,3.486-1.423,28.026-3.9,44.837-1.032,7.02-3.574,22.886,1.381,27.429s13.72.469,16.562-1.827c6.332-5.114,6.65-12.269,6.03-18.05s-6.667-18.579-6.732-19.817c-.331-6.409-7.266-20.877-.926-30.191,2.255-3.313,9.047-5.315,15.724-7.266,6.323-1.849,12.424-4.8,14.8-4.559,8.391.33,11.472,15.414,11.628,16.318.727,4.229-.116,5.854.462,8.259l-8.057,16.173.038,28.671c.643,5.352-3.023,10.833,10.747,16.189C316.493,154.916,329.5,158.152,327.158,148.971Z" transform="translate(-205.811 -44.069)" fill="#3b1f10"/>
      <path id="Trazado_11851" data-name="Trazado 11851" d="M320.084,231.472c.008-.1.008-.156.008-.156s-.062.151-.171.428c-.21.521-.584,1.487-1.066,2.819-2.679,7.417-8.587,26.011-6.049,39.69,2.32,12.564,8.245,19.02,13.4,29.989H222.674c5.154-10.969,11.071-17.424,13.4-29.989,2.359-12.745-2.959-30.293-6.01-38.849-.412-1.168-.786-2.172-1.1-2.966-.521-1.37-.848-2.141-.848-2.141s-.039-.708-.062.677c-.008.42-.016,1.035-.016,1.931v.008c-.008.67-.008,1.479-.008,2.492,0,2.826-.156,5.427-.14,7.085.076,6.7-.646,17.782-1.269,24.477-.187,1.985-.358,3.589-.5,4.57-1.308,9.038-6.181,23.013-9.576,32.706H193.37c.42-4.967,1.23-13.548,1.549-16.521a53.553,53.553,0,0,1,4.889-17.338c3.083-5.854,4.648-10.369,5.029-15.228.187-2.405.076-10.315-.109-18.67-.187-8.486-.454-17.439-.576-21.542-.265-8.657-.151-18.552.9-24.867,1.121-6.75,4.344-12.122,9.872-14.73a50.376,50.376,0,0,1,11.538-3.426c3.753-.661,7.474-2.756,12-5.091.9-.459,1.829-.934,2.8-1.409.218-.109.436-.21.661-.319l.062-.031c1.424-.685,2.935-1.362,4.546-2.009,7.295-2.928,9.568-7.256,10.277-9.688a7.706,7.706,0,0,0,.311-1.665V151.7c.008-.093.008-.151.008-.156s-.07-.576-.179-1.518c0,0-.646-5.854-.879-9.038-.076-1.106-.615-8.284-.615-8.284h.748l.864.008,12.916.055h1.043l2.649.016h1.3l1.845-.008h.008l1.514-.008,11.227-.047,3.379-.016h.483s-.53,7.178-.605,8.284c-.234,3.184-.879,9.038-.879,9.038-.117.942-.187,1.518-.187,1.518,0,.109.039,7.279,10.6,11.514,4.928,1.968,8.907,4.259,12.5,6.049a28.749,28.749,0,0,0,7.575,2.81,50.418,50.418,0,0,1,11.53,3.426c5.525,2.608,8.751,7.98,9.872,14.73,1.051,6.314,1.175,16.209.908,24.867-.062,1.947-.151,4.982-.249,8.533,0,0-.483,28.907-.187,32.745.378,4.858,1.938,9.374,5.022,15.22a53.665,53.665,0,0,1,4.889,17.338c.3,2.779,1.012,10.417,1.456,15.462h-23.6c-3.721-10.16-7.785-22.811-9.054-31.647-1.611-11.164-2.943-15.734-3.192-29.319-.039-2.18.125-7.536.218-10.277.031-.724.047-1.261.055-1.518C320.092,231.472,320.084,231.472,320.084,231.472Z" transform="translate(-193.37 -63.698)" fill="#fff" stroke="#3b1f10" stroke-linecap="round" stroke-linejoin="round" stroke-width="1.942"/>
      <path id="Trazado_11852" data-name="Trazado 11852" d="M298.035,332.656a3.625,3.625,0,0,1-1.909.875,1.614,1.614,0,0,1-1.611-1.323,4.239,4.239,0,0,0,1.935.641C297.033,332.807,298.035,332.656,298.035,332.656Z" transform="translate(-215.77 -107.882)" fill="#3b1f10"/>
      <path id="Trazado_11853" data-name="Trazado 11853" d="M299.591,334.642a4.925,4.925,0,0,1-4.021,2.148,3.307,3.307,0,0,1-3.06-1.607A5.425,5.425,0,0,1,292,334.1a8.36,8.36,0,0,0,2.373,1.567,5.3,5.3,0,0,0,1.968.023,21.817,21.817,0,0,0,3.25-1.048Z" transform="translate(-215.213 -108.301)" fill="#3b1f10"/>
      <path id="Trazado_11854" data-name="Trazado 11854" d="M220.394,298.5a10.989,10.989,0,0,0-1.27,3.566c-.174,1.312-.227,2.626-.227,2.626a5.728,5.728,0,0,1-.038-3.74A7.214,7.214,0,0,1,220.394,298.5Z" transform="translate(-198.949 -100.417)" fill="#3b1f10"/>
      <path id="Trazado_11855" data-name="Trazado 11855" d="M215.084,298.054a5.817,5.817,0,0,0-.685,1.892,11.7,11.7,0,0,0-.064,1.2,3.482,3.482,0,0,1-.256-1.665,2,2,0,0,1,1-1.429Z" transform="translate(-197.954 -100.318)" fill="#3b1f10"/>
      <path id="Trazado_11856" data-name="Trazado 11856" d="M372.5,298.5a10.988,10.988,0,0,1,1.27,3.566c.174,1.312.227,2.626.227,2.626a5.729,5.729,0,0,0,.038-3.74A7.213,7.213,0,0,0,372.5,298.5Z" transform="translate(-233.041 -100.417)" fill="#3b1f10"/>
      <path id="Trazado_11857" data-name="Trazado 11857" d="M378.042,298.054a5.827,5.827,0,0,1,.686,1.892,11.852,11.852,0,0,1,.063,1.2,3.482,3.482,0,0,0,.256-1.665,2,2,0,0,0-1-1.429Z" transform="translate(-234.268 -100.318)" fill="#3b1f10"/>
      <path id="Trazado_11858" data-name="Trazado 11858" d="M228.816,217.539a38.141,38.141,0,0,0,.978,4.218c.548,1.711,1.175,4.087,1.794,4.92,1.877,2.526,3.027,2.13,3.027,2.13l-.1,1.623a8.455,8.455,0,0,1-3.207-2.776,17.458,17.458,0,0,1-1.95-5.63C229.126,220.723,228.816,217.539,228.816,217.539Z" transform="translate(-201.22 -82.486)" fill="#3b1f10"/>
      <path id="Trazado_11859" data-name="Trazado 11859" d="M275.844,243.5a22.147,22.147,0,0,1-8.729,12.662,23.348,23.348,0,0,1-15.233,3.5c-3.911-.52-9.764-2.119-13.191-6.233-3.759-4.509-4.307-11.05-4.515-14.591a28.958,28.958,0,0,1,2.142-11.084,22.825,22.825,0,0,1,2.3-4.3,35.65,35.65,0,0,0-2.257,5.5,41.909,41.909,0,0,0-1.438,7.951A31.961,31.961,0,0,0,237,248.562a13.439,13.439,0,0,0,5.518,6.642,21.988,21.988,0,0,0,9.839,3.388,23.186,23.186,0,0,0,12.218-2.126,20.3,20.3,0,0,0,6.628-5.249A45.8,45.8,0,0,0,275.844,243.5Z" transform="translate(-202.407 -83.797)" fill="#3b1f10"/>
      <path id="Trazado_11860" data-name="Trazado 11860" d="M248.7,240.925a4.852,4.852,0,0,0-2.365,3.1,4.612,4.612,0,0,0,1.287,4.375,5.287,5.287,0,0,0,4.022.942,4.261,4.261,0,0,0,2.968-2.109,9.493,9.493,0,0,0,.558-2.28,7.165,7.165,0,0,1-1.157,2.258,3.8,3.8,0,0,1-2.9,1.359,4.5,4.5,0,0,1-2.74-.605,4.029,4.029,0,0,1-1.348-3.868,5.776,5.776,0,0,1,1.68-3.167Z" transform="translate(-205.082 -87.665)" fill="#3b1f10"/>
      <path id="Trazado_11861" data-name="Trazado 11861" d="M275.39,155.964s2.545,6.555,3.071,10.414-.518,2.3-1.028,0a44,44,0,0,0-2.7-8.055Z" transform="translate(-211.389 -68.85)" fill="#3b1f10"/>
      <path id="Trazado_11862" data-name="Trazado 11862" d="M252.506,245.752a1.06,1.06,0,0,0-.81-.74.934.934,0,0,0-1.1.521,1.368,1.368,0,0,1,.966-.249,2,2,0,0,1,.943.468Z" transform="translate(-206.044 -88.563)" fill="#3b1f10"/>
      <path id="Trazado_11863" data-name="Trazado 11863" d="M252.256,246.444a1.486,1.486,0,0,1-.792.21c-.378-.042-.611-.5-.611-.5s-.017.746.61.855a.539.539,0,0,0,.548-.169,1.368,1.368,0,0,0,.244-.393Z" transform="translate(-206.101 -88.823)" fill="#3b1f10"/>
      <path id="Trazado_11864" data-name="Trazado 11864" d="M307.153,168.589A44.272,44.272,0,0,1,304,174.411s2.295-6.546,3.151-9.688,2.992-10.1,2.992-10.1S309.346,163.217,307.153,168.589Z" transform="translate(-217.871 -68.554)" fill="#3b1f10"/>
      <path id="Trazado_11865" data-name="Trazado 11865" d="M250.814,185.615a61.971,61.971,0,0,1,8.654-.227c7.915.686,9.328,2.649,11.183,3.793s-3.33-1.549-8.94-2.36C258.155,186.31,250.814,185.615,250.814,185.615Z" transform="translate(-206.092 -75.354)" fill="#3b1f10"/>
      <path id="Trazado_11866" data-name="Trazado 11866" d="M292.1,189.716s1.713-2.952,4.366-2.772a3.144,3.144,0,0,1,2.755,1.406,2.5,2.5,0,0,1,.587,1.42s-2.674-1.86-3.958-1.7A14.294,14.294,0,0,0,292.1,189.716Z" transform="translate(-215.235 -75.709)" fill="#3b1f10"/>
      <path id="Trazado_11867" data-name="Trazado 11867" d="M363.963,217.539a38.131,38.131,0,0,1-.978,4.218c-.549,1.711-1.175,4.087-1.795,4.92-1.877,2.526-3.027,2.13-3.027,2.13l.1,1.623a8.461,8.461,0,0,0,3.208-2.776,17.457,17.457,0,0,0,1.95-5.63C363.652,220.723,363.963,217.539,363.963,217.539Z" transform="translate(-229.866 -82.486)" fill="#3b1f10"/>
      <path id="Trazado_11868" data-name="Trazado 11868" d="M306.732,243.5a22.148,22.148,0,0,0,8.728,12.662,23.35,23.35,0,0,0,15.234,3.5c3.911-.52,9.764-2.119,13.191-6.233,3.76-4.509,4.307-11.05,4.515-14.591a28.945,28.945,0,0,0-2.143-11.083,22.771,22.771,0,0,0-2.3-4.3,35.563,35.563,0,0,1,2.257,5.5,41.786,41.786,0,0,1,1.438,7.951,31.956,31.956,0,0,1-2.082,11.656,14.036,14.036,0,0,1-5.671,6.767,24.656,24.656,0,0,1-9.788,3.157,21.921,21.921,0,0,1-12-2.056,20.4,20.4,0,0,1-6.749-5.213,45.772,45.772,0,0,1-4.636-7.719Z" transform="translate(-218.476 -83.797)" fill="#3b1f10"/>
      <path id="Trazado_11869" data-name="Trazado 11869" d="M343.662,240.337a4.852,4.852,0,0,1,2.364,3.1,4.61,4.61,0,0,1-1.287,4.375,5.287,5.287,0,0,1-4.022.943,4.266,4.266,0,0,1-2.968-2.109,9.51,9.51,0,0,1-.556-2.28,7.148,7.148,0,0,0,1.156,2.258,3.805,3.805,0,0,0,2.9,1.362,4.5,4.5,0,0,0,2.74-.605,4.03,4.03,0,0,0,1.349-3.868,5.782,5.782,0,0,0-1.68-3.171Z" transform="translate(-225.222 -87.535)" fill="#3b1f10"/>
      <path id="Trazado_11870" data-name="Trazado 11870" d="M317.753,192.072s1.651-3.055,4.5-3.8a12.079,12.079,0,0,1,5.792.143s-2.991.242-4.111.465a10.457,10.457,0,0,0-3.612,1.367C319.613,190.826,317.753,192.072,317.753,192.072Z" transform="translate(-220.917 -75.942)" fill="#3b1f10"/>
      <path id="Trazado_11871" data-name="Trazado 11871" d="M329.932,193.441a45.651,45.651,0,0,1,6.148-2.47,71.117,71.117,0,0,1,10.968-1.633,103.508,103.508,0,0,1-10.672,2.486C334.805,192.109,329.932,193.441,329.932,193.441Z" transform="translate(-223.614 -76.241)" fill="#3b1f10"/>
      <path id="Trazado_11872" data-name="Trazado 11872" d="M318.242,155.374c-2.3,5.934-2.747,6.412-3.355,10.874-.53,3.86,1.55,10.686,1.55,10.686s-1.032-8.383-.522-10.682a44.034,44.034,0,0,1,2.7-8.055Z" transform="translate(-220.263 -68.719)" fill="#3b1f10"/>
      <path id="Trazado_11873" data-name="Trazado 11873" d="M341.555,245a1.334,1.334,0,0,1,1.019-.932,1.175,1.175,0,0,1,1.384.655,1.726,1.726,0,0,0-1.216-.313,2.516,2.516,0,0,0-1.188.59Z" transform="translate(-226.188 -88.352)" fill="#3b1f10"/>
      <path id="Trazado_11874" data-name="Trazado 11874" d="M341.975,245.616a2.006,2.006,0,0,0,1.069.284c.513-.055.827-.681.827-.681s.023,1.009-.825,1.156a.726.726,0,0,1-.74-.227,1.831,1.831,0,0,1-.331-.532Z" transform="translate(-226.281 -88.616)" fill="#3b1f10"/>
      <path id="Trazado_11875" data-name="Trazado 11875" d="M285.527,168.589a44.241,44.241,0,0,0,3.152,5.822s-2.295-6.546-3.152-9.688-2.991-10.1-2.991-10.1S283.334,163.217,285.527,168.589Z" transform="translate(-213.117 -68.554)" fill="#3b1f10"/>
      <path id="Trazado_11876" data-name="Trazado 11876" d="M311.148,84.355c-1.615-3.687-3.078-8-6.526-9.852-3.544-1.9-5.779,0-14.74,3.016-10.193,3.431-18.871,6.221-20.435,9.906S267.6,98.383,267.8,101.472s2.835,12.835,2.835,12.835a28.141,28.141,0,0,0,4.629,9.533c2.247,2.935,7.034,7.856,8.855,9.021,5.57,3.564,10.928,1.449,14.1-.724a51.547,51.547,0,0,0,7.389-6.526c2.591-2.734,5.518-9.291,6.034-11.453.841-3.519,2.792-9.565,3.048-12.649C315.023,97.5,312.766,88.041,311.148,84.355Z" transform="translate(-209.841 -50.64)" fill="#fff" stroke="#411906" stroke-linecap="round" stroke-linejoin="round" stroke-width="1.866"/>
      <path id="Trazado_11877" data-name="Trazado 11877" d="M277.377,125.1c-1.239-.658-.82-.269.317.8a6.693,6.693,0,0,1,1.248,1.287,8.994,8.994,0,0,1,1.257,2.554,7.176,7.176,0,0,0-1.43-3.693,6.126,6.126,0,0,0-1.392-.948Z" transform="translate(-211.808 -61.942)" fill="#3b1f10"/>
      <path id="Trazado_11878" data-name="Trazado 11878" d="M293.282,123.867c-.261.088-.555.107-.707-.144a.339.339,0,0,1,.086-.292,1.679,1.679,0,0,1,1.315-.2c.724.212,1.216.89,1.117,1.009s-.74-.356-1.068-.436a1.192,1.192,0,0,0-.57,0Z" transform="translate(-215.34 -61.589)" fill="#3b1f10"/>
      <path id="Trazado_11879" data-name="Trazado 11879" d="M301.1,123.82a.588.588,0,0,0,.627-.143c.053-.11.049-.107-.076-.256a1.52,1.52,0,0,0-1.608-.03c-.5.246-.961.774-.861.9s.573-.236.992-.454a1.211,1.211,0,0,1,.681-.054A.379.379,0,0,0,301.1,123.82Z" transform="translate(-216.8 -61.588)" fill="#3b1f10"/>
      <path id="Trazado_11880" data-name="Trazado 11880" d="M291.485,120.715c-.114.028-.186.024-.582.656a1.983,1.983,0,0,0-.262.943,1.58,1.58,0,0,0,.353,1.287c.349.4.462.394,1.044.534.4.1.388-.06.388-.06-.179-.174-.588-.192-.971-.583a1.6,1.6,0,0,1-.328-.53,2.623,2.623,0,0,1-.024-.892,2.139,2.139,0,0,1,.266-.872c.171-.335.3-.43.2-.475A.188.188,0,0,0,291.485,120.715Z" transform="translate(-214.907 -61.043)" fill="#3b1f10"/>
      <path id="Trazado_11881" data-name="Trazado 11881" d="M302.986,120.743c.114.028.186.024.581.657a1.977,1.977,0,0,1,.263.942,1.574,1.574,0,0,1-.353,1.287c-.347.4-.46.394-1.043.53-.406.1-.389-.059-.389-.059.179-.174.588-.192.973-.583a1.615,1.615,0,0,0,.327-.53,2.623,2.623,0,0,0,.023-.892,2.12,2.12,0,0,0-.266-.873c-.17-.335-.3-.43-.2-.475a.185.185,0,0,1,.083,0Z" transform="translate(-217.437 -61.049)" fill="#3b1f10"/>
      <path id="Trazado_11882" data-name="Trazado 11882" d="M301.816,103.89a11.349,11.349,0,0,0-.739,2.43,19.619,19.619,0,0,0,.263,3.33s.265-3.011.265-3.539S301.816,103.89,301.816,103.89Z" transform="translate(-217.224 -57.317)" fill="#3b1f10"/>
      <path id="Trazado_11883" data-name="Trazado 11883" d="M296.8,127.1a5.768,5.768,0,0,1-.289,2.377c-.227.522.422.289.422.289a10.07,10.07,0,0,0,.134-1.689A3.531,3.531,0,0,0,296.8,127.1Z" transform="translate(-216.203 -62.457)" fill="#3b1f10"/>
      <path id="Trazado_11884" data-name="Trazado 11884" d="M304.448,98.254s.089-.537,1.9-1.142a26.6,26.6,0,0,1,6.159-1.5,23.387,23.387,0,0,1,4.223-.144,12.042,12.042,0,0,1,3.255.574c.227.157.112.358-.045.358s-3.665-.476-4.962-.409a17.265,17.265,0,0,0-3.687.623c-.873.269-3.193,1.42-4.111,1.711a4.919,4.919,0,0,1-1.88.4C304.535,98.725,304.112,98.612,304.448,98.254Z" transform="translate(-217.944 -55.443)" fill="#3b1f10"/>
      <path id="Trazado_11885" data-name="Trazado 11885" d="M285.356,98.254s-.089-.537-1.9-1.142a26.6,26.6,0,0,0-6.157-1.5,23.4,23.4,0,0,0-4.224-.144,12.034,12.034,0,0,0-3.255.574c-.227.157-.112.358.045.358s3.9-.291,5.194-.227a15.887,15.887,0,0,1,3.456.438c.873.269,3.192,1.42,4.111,1.711a4.919,4.919,0,0,0,1.88.4C285.266,98.725,285.691,98.612,285.356,98.254Z" transform="translate(-210.273 -55.443)" fill="#3b1f10"/>
      <g id="Grupo_7692" data-name="Grupo 7692" transform="translate(88.069 43.95)">
        <path id="Trazado_11886" data-name="Trazado 11886" d="M310.491,104.206a2.434,2.434,0,0,0,.811,1.063,2.558,2.558,0,0,0,1.685.369,1.935,1.935,0,0,0,1.6-1.116,4.243,4.243,0,0,0,.126-1.527,13.347,13.347,0,0,0-2.422-.185,16.164,16.164,0,0,0-2.053.681S310.419,104.052,310.491,104.206Z" transform="translate(-307.322 -101.028)" fill="#3b1f10"/>
        <path id="Trazado_11887" data-name="Trazado 11887" d="M313.011,103.75s-.126-.431.439-.475.942-.054.851.081-.52.179-.609.288a.53.53,0,0,1-.359.206A.971.971,0,0,1,313.011,103.75Z" transform="translate(-307.933 -101.124)" fill="#fff"/>
        <path id="Trazado_11888" data-name="Trazado 11888" d="M311.667,104.508s.151-.3.3-.207.359.278.278.359a.5.5,0,0,1-.385.107C311.757,104.742,311.667,104.508,311.667,104.508Z" transform="translate(-307.638 -101.354)" fill="#fff"/>
        <path id="Trazado_11889" data-name="Trazado 11889" d="M313.061,105.439a.559.559,0,0,1,.4-.2,2.92,2.92,0,0,0,.8-.17c.072-.045.331-.188.331-.188a5.155,5.155,0,0,1-.663.592,1.362,1.362,0,0,1-.762.179C313.052,105.61,313.061,105.439,313.061,105.439Z" transform="translate(-307.947 -101.487)" fill="#fff"/>
        <path id="Trazado_11890" data-name="Trazado 11890" d="M316.3,104.194a5.346,5.346,0,0,1,1.211.221,1.763,1.763,0,0,0-.663-.442,2.487,2.487,0,0,0-.53-.076c.209-.17.4-.333.559-.481a2.176,2.176,0,0,1,.3-.02,10.343,10.343,0,0,1,1.25.191,2.479,2.479,0,0,0-.438-.275,3.207,3.207,0,0,0-.816-.186c.062-.066.116-.124.151-.168a4.038,4.038,0,0,0,.536-.31,1.527,1.527,0,0,0,.358-.558s-.4.359-.5.439a3.762,3.762,0,0,1-.486.241,1.46,1.46,0,0,1-.294,0,4.385,4.385,0,0,0,.522-.42c.172-.171.67-.864.67-.864s-.564.515-.69.611a6.353,6.353,0,0,1-.97.556l-.36-.117c.117-.135.351-.4.454-.512a5.654,5.654,0,0,0,.614-.995s-.7.69-.908.851c-.143.113-.52.341-.737.469-.17-.053-.352-.105-.54-.151.1-.086.231-.2.334-.288.334.1.548.162.548.162l-.513-.192c.043-.039.081-.076.1-.095a3.163,3.163,0,0,0,.67-.931s-.735.636-.959.789a2.018,2.018,0,0,1-.179.1c-.233-.085-.495-.179-.77-.275a4.443,4.443,0,0,0,.454-.8s-.515.515-.711.708c-.282-.1-.569-.191-.842-.277.13-.275.25-.585.25-.585s-.227.272-.442.525c-.277-.085-.535-.157-.746-.206l.107-.2-.2.182c-.039-.008-.082-.018-.118-.024a4.1,4.1,0,0,0-2.5.146,5.228,5.228,0,0,0-2.413,1.882l-.082.1a13.165,13.165,0,0,1,2.212-1.539,4.588,4.588,0,0,1,2.443-.41c.066.006.151.02.25.037-.119.111-.227.216-.275.264a4.947,4.947,0,0,1-.749.649,6.476,6.476,0,0,0-1.047.282,6.763,6.763,0,0,0-2.739,1.968c-.142.151-.587.582-.587.582s1.083-.547,1.776-.973c.311-.191.716-.406,1.1-.6a7.967,7.967,0,0,1,1.877-.611,8.108,8.108,0,0,1,3.254.076c.936.142,1.434.269,1.434.269a8.671,8.671,0,0,1-1.411,1.679,7.879,7.879,0,0,1-2.933.984,11.53,11.53,0,0,1-3.068-.581,4.693,4.693,0,0,0-1.211-.045,13.018,13.018,0,0,0,3.424.9,6.736,6.736,0,0,0,1.145.027,1.874,1.874,0,0,1,.307.194,3.027,3.027,0,0,1,.338.328c-.6.044-1.127.037-1.127.037a6.089,6.089,0,0,0,1.287.134c.135.151.244.279.244.279s-.049-.129-.114-.282c.083,0,.166-.005.251-.013a5.085,5.085,0,0,0,.976-.2c.136.131.235.232.235.232s-.043-.112-.12-.268a6.159,6.159,0,0,0,.827-.322c.036-.017.076-.045.108-.065.125.14.218.257.218.257s-.069-.127-.16-.292a4.081,4.081,0,0,0,.846-.757c.235.131.441.26.441.26s-.151-.2-.33-.387c.281-.334.472-.617.472-.617s-.241.252-.549.535a2.158,2.158,0,0,0-.227-.206,3.4,3.4,0,0,0-.331-.193c.132-.1.263-.2.394-.3A2.768,2.768,0,0,1,316.3,104.194Zm-4.094-2.383c-.227,0-.469.017-.714.037a1.816,1.816,0,0,0,.368-.406c.034-.051.129-.227.222-.4.2.043.448.1.711.166l-.117.13c-.144.154-.335.343-.47.472Zm.433.015a3.984,3.984,0,0,0,.332-.423c.023-.036.049-.081.076-.129.263.067.537.142.808.216a2.5,2.5,0,0,1-.57.387c-.207-.023-.422-.039-.646-.05Zm1.732.22c-.184-.037-.378-.076-.584-.105.109-.109.129-.112.278-.274.028-.031.055-.064.081-.1.273.076.53.151.767.217-.184.094-.4.195-.542.259Zm-.705,4.2a6.11,6.11,0,0,1-.921.144,2.072,2.072,0,0,0-.163-.312,1.748,1.748,0,0,0-.212-.235,7.5,7.5,0,0,0,.837-.146,1.967,1.967,0,0,1,.248.151,4.979,4.979,0,0,1,.411.344c-.067.017-.129.036-.2.054Zm.4-.114a2.766,2.766,0,0,0-.3-.434,1.522,1.522,0,0,0-.122-.123c.2-.061.363-.121.491-.173a2,2,0,0,0,.187-.094c.126.076.262.159.368.232a1.926,1.926,0,0,1,.254.227,4.842,4.842,0,0,1-.876.364Zm1.678-1.129.141.076q-.067.06-.135.117a4.973,4.973,0,0,1-.7.51,3.2,3.2,0,0,0-.361-.549l-.045-.035c.167-.106.351-.227.549-.369.151.064.341.145.552.251Z" transform="translate(-306.492 -100.521)" fill="#3b1f10"/>
      </g>
      <path id="Trazado_11891" data-name="Trazado 11891" d="M279.254,104.171a2.44,2.44,0,0,0,.811,1.063,2.56,2.56,0,0,0,1.686.369,2.242,2.242,0,0,0,1.6-1.116c.487-.851.388-1.245.388-1.245a13.153,13.153,0,0,0-2.881-.59c-.592.1-2.292.3-2.292.3S279.182,104.018,279.254,104.171Z" transform="translate(-212.239 -57.043)" fill="#3b1f10"/>
      <path id="Trazado_11892" data-name="Trazado 11892" d="M281.9,103.75s-.126-.431.439-.475.942-.054.851.081-.52.179-.609.288a.53.53,0,0,1-.358.206.971.971,0,0,1-.323-.1Z" transform="translate(-212.972 -57.174)" fill="#fff"/>
      <path id="Trazado_11893" data-name="Trazado 11893" d="M280.556,104.508s.151-.3.3-.207.359.278.278.359a.5.5,0,0,1-.385.107C280.645,104.742,280.556,104.508,280.556,104.508Z" transform="translate(-212.679 -57.405)" fill="#fff"/>
      <path id="Trazado_11894" data-name="Trazado 11894" d="M281.949,105.439a.558.558,0,0,1,.4-.2,2.92,2.92,0,0,0,.8-.17c.072-.045.331-.188.331-.188a5.155,5.155,0,0,1-.663.592,1.362,1.362,0,0,1-.762.179C281.941,105.61,281.949,105.439,281.949,105.439Z" transform="translate(-212.987 -57.537)" fill="#fff"/>
      <path id="Trazado_11895" data-name="Trazado 11895" d="M275.872,104.241c.132.1.263.2.394.3a3.438,3.438,0,0,0-.331.193,2.147,2.147,0,0,0-.227.206c-.309-.282-.549-.535-.549-.535s.191.282.472.617c-.176.191-.33.387-.33.387s.207-.129.441-.26a4.1,4.1,0,0,0,.845.757c-.092.165-.16.292-.16.292s.092-.117.218-.257a1.24,1.24,0,0,0,.108.065,6.151,6.151,0,0,0,.826.322c-.076.156-.12.268-.12.268s.1-.1.236-.232a5.077,5.077,0,0,0,.976.2c.085.008.168.01.251.013-.065.151-.114.282-.114.282s.109-.127.244-.279a6.1,6.1,0,0,0,1.287-.134s-.53.006-1.127-.037a3.038,3.038,0,0,1,.337-.328,1.908,1.908,0,0,1,.308-.194,6.722,6.722,0,0,0,1.144-.027,13,13,0,0,0,3.424-.9,4.693,4.693,0,0,0-1.211.045,11.506,11.506,0,0,1-3.068.581,7.883,7.883,0,0,1-2.933-.984,8.689,8.689,0,0,1-1.41-1.679s.5-.127,1.433-.269a8.108,8.108,0,0,1,3.254-.076,7.942,7.942,0,0,1,1.877.611c.388.194.793.409,1.1.6.695.425,1.776.973,1.776.973s-.444-.431-.587-.582a6.763,6.763,0,0,0-2.739-1.968,6.488,6.488,0,0,0-1.047-.282,4.985,4.985,0,0,1-.749-.649c-.045-.048-.156-.151-.275-.264.1-.017.183-.031.249-.037a4.59,4.59,0,0,1,2.444.41,13.177,13.177,0,0,1,2.211,1.539l-.082-.1a4.293,4.293,0,0,0-2.184-1.984,4.919,4.919,0,0,0-2.725-.045c-.036.006-.076.016-.119.024l-.2-.182s.045.087.107.2c-.212.048-.469.12-.746.206-.218-.253-.442-.525-.442-.525s.12.31.25.585c-.272.086-.559.181-.842.277-.2-.192-.71-.708-.71-.708a4.407,4.407,0,0,0,.454.8c-.276.1-.538.19-.771.275-.071-.038-.136-.076-.179-.1-.227-.151-.959-.789-.959-.789a3.161,3.161,0,0,0,.67.931c.023.022.06.056.1.095-.311.115-.513.192-.513.192s.214-.064.548-.162l.334.288c-.187.05-.369.1-.539.151-.218-.129-.594-.356-.737-.469-.207-.161-.908-.851-.908-.851a5.607,5.607,0,0,0,.614.995c.1.109.338.378.454.512l-.36.117a6.317,6.317,0,0,1-.97-.556c-.127-.1-.689-.611-.689-.611s.5.692.669.864a4.379,4.379,0,0,0,.522.42,1.454,1.454,0,0,1-.293,0,3.761,3.761,0,0,1-.486-.241c-.108-.08-.5-.439-.5-.439a1.514,1.514,0,0,0,.358.558,4.042,4.042,0,0,0,.536.31c.038.045.091.1.151.168a3.207,3.207,0,0,0-.816.186,2.481,2.481,0,0,0-.438.276,10.349,10.349,0,0,1,1.249-.191,2.183,2.183,0,0,1,.3.02c.16.151.35.31.559.481a2.473,2.473,0,0,0-.53.076,1.755,1.755,0,0,0-.663.442,5.334,5.334,0,0,1,1.211-.221A2.767,2.767,0,0,1,275.872,104.241Zm3.2-2.9c-.034-.037-.076-.082-.117-.13.263-.065.507-.123.711-.166.093.173.188.347.222.4a1.818,1.818,0,0,0,.368.406c-.245-.02-.486-.036-.714-.037-.135-.129-.327-.318-.471-.474Zm-.605.537a2.523,2.523,0,0,1-.57-.387c.272-.076.546-.151.808-.216.026.048.051.092.076.129a4.087,4.087,0,0,0,.331.423c-.227.01-.441.026-.648.05Zm-1.63-.089.767-.217c.026.033.052.065.08.1.151.162.17.165.278.274-.2.032-.4.068-.583.105-.146-.065-.362-.166-.545-.259Zm1.048,4.4a4.967,4.967,0,0,1,.41-.344,1.962,1.962,0,0,1,.248-.151,7.505,7.505,0,0,0,.837.146,1.743,1.743,0,0,0-.211.235,2.072,2.072,0,0,0-.163.312,6.1,6.1,0,0,1-.921-.144c-.076-.016-.137-.036-.2-.054Zm-1.073-.425a1.966,1.966,0,0,1,.254-.227c.106-.076.243-.157.369-.232a1.913,1.913,0,0,0,.187.094c.127.051.3.112.49.173a1.386,1.386,0,0,0-.121.123,2.772,2.772,0,0,0-.3.434,4.845,4.845,0,0,1-.88-.364Zm-.25-1.014c.2.14.378.263.549.369l-.045.035a3.157,3.157,0,0,0-.36.549,4.98,4.98,0,0,1-.7-.51c-.046-.038-.09-.076-.135-.117l.14-.076c.208-.1.4-.184.547-.251Z" transform="translate(-211.076 -56.572)" fill="#3b1f10"/>
      <path id="Trazado_11896" data-name="Trazado 11896" d="M302.579,133.236a2.359,2.359,0,0,1-1.315.13,16.774,16.774,0,0,1-2.518-.958,5.807,5.807,0,0,0-2.7-.438,9.622,9.622,0,0,1-.908.341,4.8,4.8,0,0,1-.893-.221,3.121,3.121,0,0,0-2.433.089,18.34,18.34,0,0,1-2.994,1.093,3.355,3.355,0,0,1-.929.046c-.222-.037-.432.241-.328.423a12.054,12.054,0,0,0,3.5,3.771,7.329,7.329,0,0,0,3.756.6h.637a7.328,7.328,0,0,0,3.756-.6,12.053,12.053,0,0,0,3.5-3.771C302.826,133.558,302.763,133.107,302.579,133.236Zm-13.222.406c.671-.22,1.851-.84,2.659-1.1a3.15,3.15,0,0,1,1.462-.242,16.818,16.818,0,0,0,1.7.422c.69-.011.965-.359,1.508-.313a7.56,7.56,0,0,1,1.91.465c.8.273,1.753.674,2.422.894.122.039.354.3-.106.339-.546.052-1.359.086-2.626.113-1.135.024-2.072.418-3.1.409-.969-.008-2.22-.388-3.185-.409-1.267-.027-2.078-.061-2.626-.113-.457-.043-.137-.429-.015-.468Zm12.167.984a5.439,5.439,0,0,1-.542.788,7.72,7.72,0,0,1-1.913,1.711,8.05,8.05,0,0,1-3.883.56H295.1a8.055,8.055,0,0,1-3.883-.56,7.7,7.7,0,0,1-1.913-1.711,5.371,5.371,0,0,1-.543-.788c-.066-.123-.009-.325.217-.27a12.05,12.05,0,0,0,2.324.269,29.863,29.863,0,0,1,3.426.56,2.2,2.2,0,0,0,.371.017v0h.081v0a2.195,2.195,0,0,0,.371-.017,29.868,29.868,0,0,1,3.426-.56,12.051,12.051,0,0,0,2.324-.269c.228-.058.281.145.218.265Z" transform="translate(-214.225 -63.517)" fill="#3b1f10"/>
      <path id="Trazado_11897" data-name="Trazado 11897" d="M263.105,110.04a8.687,8.687,0,0,0,.551,4.257,19.522,19.522,0,0,0,2.48,4.226,1.226,1.226,0,0,0,1.975-.627c.164-.462-.324-1.783-.781-3.644a44.682,44.682,0,0,0-1.378-5.343,1.589,1.589,0,0,0-2.847,1.133Z" transform="translate(-208.811 -58.289)" fill="#fff" stroke="#411906" stroke-linecap="round" stroke-linejoin="round" stroke-width="1.866"/>
      <path id="Trazado_11898" data-name="Trazado 11898" d="M331.04,110.04a8.687,8.687,0,0,1-.551,4.257,19.523,19.523,0,0,1-2.48,4.226,1.226,1.226,0,0,1-1.975-.627c-.165-.462.324-1.783.781-3.644a44.682,44.682,0,0,1,1.378-5.343,1.589,1.589,0,0,1,2.847,1.133Z" transform="translate(-222.743 -58.289)" fill="#fff" stroke="#411906" stroke-linecap="round" stroke-linejoin="round" stroke-width="1.866"/>
      <path id="Trazado_11899" data-name="Trazado 11899" d="M265.341,130.571c.908,6.736.485,20.408-.243,23.867s-2.66,4.671-2.66,4.671a41.932,41.932,0,0,0,1.821-5.645c1.16-5.612.988-20.139.6-22.651C263.943,124.988,264.431,123.834,265.341,130.571Z" transform="translate(-208.666 -62.206)" fill="#fff"/>
      <path id="Trazado_11900" data-name="Trazado 11900" d="M332.492,122.7s.71,15.018,1.984,19.934c2.252,8.684,2.071,10.107,5.48,19.393a91.111,91.111,0,0,1-6.454-20.732C331.188,126.681,332.492,122.7,332.492,122.7Z" transform="translate(-224.1 -61.483)" fill="#fff"/>
      <path id="Trazado_11901" data-name="Trazado 11901" d="M256.712,113.894s-2.314,20.457-3.166,27.033,0,18.631,0,18.631.366-13.029.731-18.266S256.712,113.894,256.712,113.894Z" transform="translate(-206.613 -59.533)" fill="#fff"/>
      <path id="Trazado_11902" data-name="Trazado 11902" d="M318.4,67.577s5.758,8.708,7.591,14.829c1.153,3.851,2.207,13.682,2.207,13.682s-.976-11.126-1.8-14.2a33.887,33.887,0,0,0-8-14.306Z" transform="translate(-221.06 -49.275)" fill="#fff"/>
      <path id="Trazado_11903" data-name="Trazado 11903" d="M329.043,173.444s1.524,11.883-.045,20.328c-2.237,12.041-6.046,17.275-11.261,26.993-5.449,10.153-14.216,20.637-14.216,20.637,10.407,5.676,16.182,8.174,21.344,8.92a20.732,20.732,0,0,0,18.883-7.332c2.822-3.671,4.192-9.5,2.573-17.339-1.8-8.735-9.191-16.116-12.92-30.173-1.712-6.451-2.134-21.064-2.134-21.064Z" transform="translate(-217.765 -72.721)" fill="#3b1f10"/>
      <path id="Trazado_11904" data-name="Trazado 11904" d="M252.822,173.444s-1.524,11.883.045,20.328c2.238,12.041,6.046,17.275,11.262,26.993,5.449,10.153,15.634,20.637,15.634,20.637-10.407,5.676-17.6,8.174-22.758,8.92a20.733,20.733,0,0,1-18.884-7.332c-2.821-3.671-3.162-7.2-1.822-16.014s8.438-17.44,12.168-31.5c1.712-6.451,2.133-21.064,2.133-21.064Z" transform="translate(-202.71 -72.721)" fill="#3b1f10"/>
      <path id="Trazado_11905" data-name="Trazado 11905" d="M287.261,259.65a29.2,29.2,0,0,1,4.88-.833,24.789,24.789,0,0,1,8.039.676c2,.605,3.13,1.073,3.13,1.073l-.491,1.287a37.887,37.887,0,0,0-4.91-1.075,31.521,31.521,0,0,0-7.211-.03c-1.449.165-5.278.984-5.278.984l-.46-1.5Z" transform="translate(-213.654 -91.611)" fill="#3b1f10"/>
    </g>
    <path id="Trazado_13405" data-name="Trazado 13405" d="M0,0H193V3.027H0Z" transform="translate(490 5618.203)" fill="#895cd8"/>
    <path id="Trazado_12060" data-name="Trazado 12060" d="M6541.919,2684.67s36.661,15.353,86,0" transform="translate(-5998.586 2870.474)" fill="none" stroke="#ea3065" stroke-width="2" stroke-dasharray="3"/>
  </g>
</svg>
