<svg xmlns="http://www.w3.org/2000/svg" width="193" height="216.279" viewBox="0 0 193 216.279">
  <g id="Grupo_21080" data-name="Grupo 21080" transform="translate(-490 -5404.951)">
    <g id="Grupo_21087" data-name="Grupo 21087" transform="translate(388.593 5278.104)">
      <g id="Grupo_21086" data-name="Grupo 21086" transform="translate(142.407 126.848)">
        <path id="Trazado_99608" data-name="Trazado 99608" d="M147.456,194.535c0,7.789,2.272,18.5,8.439,29.858s6.813,9.737,6.813,14.605,2.052,3.512,1.623,10.062c-.8,12.242-.571,15.014.077,28.322.415,8.5.665,38.134-1.236,65.208h65.2c-4.027-17.814-7.524-39.661-7.24-61.075-.325-21.1.649-34.4,2.921-37.972s6.491-12.658,13.307-24.991,14.928-31.805,16.551-38.621c1.3-4.442-.145-10.646-6.764-15.4a9.2,9.2,0,0,1-3.1-2.9c.076-.18.15-.366.223-.554,1.489-3.908,2.045-9.441,1.846-15.164-.205-6-.205-15.72-11.788-16.339-2.689-.208-7.032-.829-11.788,3.516-1.656-2.069-7.24-6.619-15.1-2.9a40.038,40.038,0,0,0-7.859,6.827c-3.724-1.034-12.825-4.345-22.544,8.272a30.131,30.131,0,0,0-6.554.162c-3.763.664-8.326,2.8-12.31,9.162,0,0-2.921,2.272-2.921,5.193s-2.921,5.193-4.869,6.816-5.193,10.384-3.895,14.279S147.456,186.745,147.456,194.535Z" transform="translate(-144.32 -127.824)" fill="#fff"/>
        <path id="Trazado_99609" data-name="Trazado 99609" d="M298.047,137.931c.334.413-.288.425-.039.887a15.933,15.933,0,0,1,1.73,3.494,30.4,30.4,0,0,1,.648,6.723c-.031,1.142-.089,2.285-.168,3.429a1,1,0,0,1,.47-.048.629.629,0,0,1,.248.081c.157-1.131.294-2.265.4-3.4.064-.577.094-1.16.141-1.741.032-.583.061-1.167.077-1.754a23.947,23.947,0,0,0-.162-3.555,12.614,12.614,0,0,0-.951-3.555,10.08,10.08,0,0,0-.934-1.643c-.353-.513-.741-.979-1.046-1.4l0,0c-.014-.019-.029-.038-.044-.057a.975.975,0,1,0-1.491,1.255C297.333,137.12,297.715,137.515,298.047,137.931Z" transform="translate(-220.559 -130.994)" fill="#3c2415"/>
        <g id="Grupo_21083" data-name="Grupo 21083" transform="translate(25.969 44.584)">
          <g id="Grupo_21082" data-name="Grupo 21082">
            <path id="Trazado_99610" data-name="Trazado 99610" d="M258.416,222.6a17.593,17.593,0,0,1-4.913-1.036,5.2,5.2,0,0,1-2.844-4.369c-6.12,8.4-16.36,13.672-27.318,11.588a60.3,60.3,0,0,1-8.087-2.117c-1.329-.45-2.8-2.51-3.272-3.83a11.831,11.831,0,0,1-6.427,9.388c-2.593,1.235-8.047.352-10.523-.516l.174.394c-.412.04,1.748,2.309,1.974,2.656a19.258,19.258,0,0,0,9.41,7.065,57.365,57.365,0,0,0,11.634,2.683,10.207,10.207,0,0,0,4.244.069c-.274.4-.537.818-.783,1.241a23.011,23.011,0,0,0-1.522,3.166c-.21.547-.406,1.1-.579,1.66-.091.278-.172.56-.245.844s-.157.565-.223.849a29.269,29.269,0,0,0-.59,3.454,28.336,28.336,0,0,0-.14,3.487,25.644,25.644,0,0,0,1.032,6.84c.143-2.3.253-4.554.5-6.776.11-1.111.271-2.211.441-3.305.105-.544.179-1.093.3-1.631.056-.27.1-.543.164-.811l.187-.806c.058-.269.133-.534.2-.8l.1-.4.114-.4v0a1.424,1.424,0,0,1,.187-.417,41.118,41.118,0,0,1,9.3-10.07,7.219,7.219,0,0,1,3.177-1.409,7.827,7.827,0,0,0,4.81-2.16c.9-1.008,1.343-2.366,2.287-3.329,1.68-1.715,4.418-1.74,6.532-2.879,2.434-1.311,3.987-4.074,6.632-4.878a31.1,31.1,0,0,1,3.213-.5c1.065-.2,2.1-2.334,2.54-3.327A3.648,3.648,0,0,1,258.416,222.6Z" transform="translate(-195.033 -217.195)" fill="#e9eaea"/>
          </g>
        </g>
        <path id="Trazado_99611" data-name="Trazado 99611" d="M147.456,211.654c0,7.789,2.272,18.5,8.439,29.858s6.813,9.737,6.813,14.605,2.6,3.57,1.623,10.062a135.017,135.017,0,0,0-1.18,28.182c.415,8.5,1.178,38.221-.355,65.348h7.175c-.127-2.75-.252-5.491-.334-8.212-.471-15.67-1.008-31.338-1.434-47.008-.21-7.734-.736-15.554-.549-23.288.161-6.635,1.282-13.8,5.669-19.054,1.36-1.627,3.335-2.579,5.072-3.793s7.11-4.108,7.165-6.226a18.246,18.246,0,0,1-9.138,1.765c-3.958-.245-7.506-2.753-9.886-5.925s-3.756-6.967-4.994-10.735c-3.971-12.111-6.816-25.219-3.479-37.518.364-1.337.937-2.811,2.222-3.33,1.9-.768,3.787,1.028,5.159,2.56a47.058,47.058,0,0,0,21.168,13.528,17.683,17.683,0,0,0,13.729-.459,48.753,48.753,0,0,0,21.082-16.124c-4.805,1.082-8.432,4.006-13.839,5.065-1.151.226-2.108,1.13-3.28,1.205a7.907,7.907,0,0,1-3.246-.72q-6.079-2.285-12.161-4.568a2.761,2.761,0,0,0-1.516-.262c-1.167.251-1.465,1.731-2.076,2.759-1.121,1.891-3.778,2.4-5.851,1.668a11.907,11.907,0,0,1-5.035-4.124,43.433,43.433,0,0,1-9.333-30.622l5.39-3.718c-3.763.664-8.326,2.8-12.31,9.162,0,0-2.921,2.272-2.921,5.193s-2.921,5.193-4.869,6.816-5.193,10.384-3.895,14.279S147.456,203.864,147.456,211.654Z" transform="translate(-144.32 -144.944)" fill="#e9eaea"/>
        <g id="Grupo_21084" data-name="Grupo 21084" transform="translate(44.088 32.956)">
          <path id="Trazado_99612" data-name="Trazado 99612" d="M239.976,210.281l-.042,0c-3.549-.3-5.987-1.448-7.249-3.426a7.075,7.075,0,0,1-.593-5.689c0-.417.453-.8,6.061-3.593a84.247,84.247,0,0,1,8.811-3.907l.1-.031h.1c2.745,0,5.542,3.508,6.651,6,.792,1.777.853,3.172.172,3.928-1.566,1.74-10.291,6.546-13.967,6.722Zm-6.657-8.687a5.822,5.822,0,0,0,.466,4.568c1.03,1.605,3.12,2.553,6.213,2.818,3.289-.191,11.639-4.753,13.023-6.291.237-.263.215-1.167-.392-2.532-1.106-2.482-3.507-5.137-5.37-5.226A112.357,112.357,0,0,0,233.319,201.594Z" transform="translate(-231.75 -193.631)" fill="#3c2415"/>
        </g>
        <path id="Trazado_99613" data-name="Trazado 99613" d="M230.659,210.163c-.711,1.464.7,2.635,1.873,3.762a7.654,7.654,0,0,0,3.526,2.336c5.834,1.625,12.138,2.46,17.982.87s11.955-5.078,15.01-10.308c-.64,2.34-.624,4.823,1.141,6.487,2.534,2.388,6.323,2.556,9.8,2.483-2.148,1.273-4.494,2.5-6.929,1.943-.995-.226-1.9-.756-2.9-.98-2.119-.477-4.271.48-6.233,1.413-4.554,2.165-7.006,2.943-11.561,5.108-2.4,1.14-6.818-.049-9.458.247-3.982.446-9.533-1.125-12.055-4.239s-2.072-3.938-.806-7.74" transform="translate(-186.288 -167.357)" fill="#e9eaea"/>
        <path id="Trazado_99614" data-name="Trazado 99614" d="M278.524,357.116c-.6-.038-1.146-.1-1.713-.158s-1.122-.14-1.68-.225q-1.674-.251-3.325-.609a43.466,43.466,0,0,1-6.47-1.911,30.3,30.3,0,0,1-3.08-1.375,23.874,23.874,0,0,1-2.888-1.733,18.921,18.921,0,0,1-2.572-2.157,15.9,15.9,0,0,1-2.072-2.614,15.789,15.789,0,0,0,2.238,2.437,18.526,18.526,0,0,0,2.671,1.926,23.226,23.226,0,0,0,2.933,1.48,29.415,29.415,0,0,0,3.088,1.116,42.352,42.352,0,0,0,6.41,1.393q1.624.231,3.259.353c.544.042,1.089.073,1.632.1s1.1.038,1.608.032Z" transform="translate(-199.299 -238.023)" fill="#3c2415"/>
        <path id="Trazado_99615" data-name="Trazado 99615" d="M178.852,345.158c.175.138.4.3.614.442s.437.291.66.432c.447.281.907.544,1.372.8a23.224,23.224,0,0,0,2.9,1.313,19.687,19.687,0,0,0,3.06.87,15.607,15.607,0,0,0,3.164.288,13.129,13.129,0,0,0,3.159-.408,13.651,13.651,0,0,0,2.988-1.174,17.051,17.051,0,0,0,4.934-4.224,17.294,17.294,0,0,1-4.686,4.643,14.247,14.247,0,0,1-3.028,1.456,13.969,13.969,0,0,1-3.317.68,16.683,16.683,0,0,1-3.4-.057,21.08,21.08,0,0,1-3.329-.685,24.784,24.784,0,0,1-3.192-1.17c-.518-.233-1.03-.479-1.534-.746-.252-.134-.5-.271-.751-.416s-.487-.284-.758-.465Z" transform="translate(-160.287 -236.585)" fill="#3c2415"/>
        <path id="Trazado_99616" data-name="Trazado 99616" d="M170.241,226.146c-.115-.2-.274-.444-.423-.663s-.312-.448-.478-.666c-.329-.438-.679-.864-1.048-1.273a14.7,14.7,0,0,0-2.454-2.2,10.78,10.78,0,0,0-1.419-.843,9.053,9.053,0,0,0-1.552-.58,7.692,7.692,0,0,0-1.657-.232,7.775,7.775,0,0,0-1.693.166,7.88,7.88,0,0,1,1.681-.409,8.045,8.045,0,0,1,1.757,0,9.662,9.662,0,0,1,1.735.38,11.562,11.562,0,0,1,1.647.685,15.928,15.928,0,0,1,2.965,1.982q.687.572,1.321,1.207c.212.21.418.428.622.649s.4.439.607.707Z" transform="translate(-151.074 -173.725)" fill="#3c2415"/>
        <path id="Trazado_99617" data-name="Trazado 99617" d="M170.9,232.592c-.087-.065-.219-.152-.335-.227s-.243-.153-.368-.228c-.248-.15-.5-.293-.763-.431q-.779-.412-1.6-.751a15.9,15.9,0,0,0-3.408-.99,12.456,12.456,0,0,0-1.777-.18,11.394,11.394,0,0,0-5.288,1.087,11.432,11.432,0,0,1,3.4-1.489,11.748,11.748,0,0,1,1.86-.328,13.193,13.193,0,0,1,1.9-.059,17.1,17.1,0,0,1,3.773.573q.927.244,1.832.58c.3.113.6.231.9.361.15.065.3.131.447.2s.289.137.463.232Z" transform="translate(-149.981 -178.583)" fill="#3c2415"/>
        <path id="Trazado_99618" data-name="Trazado 99618" d="M225.454,144.78a11.709,11.709,0,0,0-5.6,3.186,5.511,5.511,0,0,0-1.01,6.046,25.082,25.082,0,0,0,1.48,2.026c2.344,3.434.883,8.083,1.47,12.2.326,2.285,1.307,4.473,1.823,6.707.232,1-2.2,1.409-2.258,2.446-.1,1.872.193,1.8-1.076,3.18-.334.364.66,3.231.223,3a1.227,1.227,0,0,1-.491-.8,107.044,107.044,0,0,1-3.685-18.841,12.436,12.436,0,0,0-1.195-5c-1.044-1.814-3.082-3.146-3.342-5.223-.282-2.251,1.661-4.105,3.473-5.47a34.25,34.25,0,0,1,5.733-3.649,9.161,9.161,0,0,1,5-1.1" transform="translate(-177.542 -135.254)" fill="#e9eaea" opacity="0.9" style="mix-blend-mode: multiply;isolation: isolate"/>
        <path id="Trazado_99619" data-name="Trazado 99619" d="M297.428,223.755s4.72-3.621,5.6-4.4c.227-1.255-.381-1.69-.381-1.69l-5.131,5.435" transform="translate(-220.93 -172.851)" fill="#3c2415"/>
        <path id="Trazado_99620" data-name="Trazado 99620" d="M306,221.463s6.184,5.733,12.669,1.361a18.166,18.166,0,0,1-3.48,1.07,10.539,10.539,0,0,1-1.128.147,7.136,7.136,0,0,1-2.79-.3,6.328,6.328,0,0,1-3.121-2.285,8.173,8.173,0,0,1-.708-1.155,3.878,3.878,0,0,0-1.453,1.038Z" transform="translate(-225.265 -174.182)" fill="#3c2415"/>
        <path id="Trazado_99621" data-name="Trazado 99621" d="M212.951,157.432c-1.047,1.935-.934,2.689-.29,4.793-1-.469-1.507-.964-2.541-1.456a.3.3,0,0,1-.146-.11.292.292,0,0,1,.034-.26,9.943,9.943,0,0,1,2.582-3.3" transform="translate(-176.622 -142.169)" fill="#3c2415"/>
        <path id="Trazado_99622" data-name="Trazado 99622" d="M261.343,136.884c-2.723,1.915-4.523,4.09-3.349,7.146-.463-.854-1.246-.449-2.078-.951-.376-.227-.825-.47-.891-.9a1.348,1.348,0,0,1,.508-1.036,21.386,21.386,0,0,1,4.613-4.034" transform="translate(-199.447 -131.931)" fill="#6d010c"/>
        <path id="Trazado_99623" data-name="Trazado 99623" d="M307.161,133.7c-1.887.431-4.153,2.127-3.711,4.011a23.451,23.451,0,0,1,.53,2.551c-.41-.664-1.273-1.315-1.529-2.052a3.606,3.606,0,0,1-.1-2.3,3.694,3.694,0,0,1,1.878-2,13.133,13.133,0,0,1,2.663-.9" transform="translate(-223.35 -129.969)" fill="#6d010c"/>
        <path id="Trazado_99624" data-name="Trazado 99624" d="M317.894,175.684l10.427,8.9-.484.863s-11.172-11.7-17.264-12.93C311.1,171.994,317.894,175.684,317.894,175.684Z" transform="translate(-227.587 -149.956)" fill="#3f1200"/>
        <path id="Trazado_99625" data-name="Trazado 99625" d="M274.95,132.285a10.342,10.342,0,0,0-9.746,3.786,6.472,6.472,0,0,0-1.332,2.8,3.783,3.783,0,0,0,.657,2.968c.424.538,1.049.978,1.181,1.65a2.981,2.981,0,0,1-.146,1.254c-.545,2.268-.211,4.64-.168,6.972a27.622,27.622,0,0,1-.533,5.923,4.793,4.793,0,0,1-.46,1.427c-.655,1.164-2.055,1.644-3.333,2.03a53.755,53.755,0,0,1,.078-9.024c.272-2.928.7-6.178-1.039-8.545-.6-.814-1.421-1.456-1.945-2.32-1.135-1.869-.586-4.4.776-6.111a13.809,13.809,0,0,1,5.368-3.657,15.524,15.524,0,0,1,5.451-1.584,6.308,6.308,0,0,1,5.154,1.949" transform="translate(-200.731 -128.365)" fill="#e9eaea" opacity="0.9" style="mix-blend-mode: multiply;isolation: isolate"/>
        <path id="Trazado_99626" data-name="Trazado 99626" d="M319,133.1a12.907,12.907,0,0,0-4.5,1.374,4.12,4.12,0,0,0-1.41,1.068,4.908,4.908,0,0,0-.719,2.823q-.34,7.427-.5,14.86c-.42-.2-.831-.415-1.248-.617a18.959,18.959,0,0,0-5.948-1.754,1.03,1.03,0,0,1-.785-.336.959.959,0,0,1-.1-.545c.07-3.356,1.408-6.788.377-9.983-.431-1.338-1.273-2.6-1.215-4.006a4.228,4.228,0,0,1,2.246-3.322,9.573,9.573,0,0,1,4.02-1.036,27.285,27.285,0,0,1,9.607.943" transform="translate(-223.723 -129.222)" fill="#e9eaea" opacity="0.9" style="mix-blend-mode: multiply;isolation: isolate"/>
        <path id="Trazado_99627" data-name="Trazado 99627" d="M274.7,277.728a3.833,3.833,0,0,1,2.261,1.147,3.438,3.438,0,0,1,.413,2.054c-.251,24.738-2.458,49.542-.123,74.172.116,1.235.6,2.819,1.841,2.835l2.257,17.356h7.463c-4.027-17.814-7.524-39.661-7.24-61.075-.325-21.1.649-34.4,2.921-37.972s6.491-12.658,13.307-24.991,14.928-31.805,16.551-38.621c1.3-4.442-.145-10.646-6.764-15.4a9.2,9.2,0,0,1-3.1-2.9c.076-.18.15-.366.223-.554l-1.679-.442a30.441,30.441,0,0,1,6.476,10.694c2.348,6.654-.3,15.038-4.914,25.926-4,9.436-8.583,18.436-13.407,27.478-7.208,13.512-14.85,20-25.667,16.107C267.81,276.794,270.863,276.677,274.7,277.728Z" transform="translate(-204.767 -160.526)" fill="#e9eaea" opacity="0.9" style="mix-blend-mode: multiply;isolation: isolate"/>
        <g id="Grupo_21085" data-name="Grupo 21085">
          <path id="Trazado_99628" data-name="Trazado 99628" d="M143.688,190.478c-.01,1.1-.022,2.361-.022,3.824,0,5.507,1.123,16.814,8.644,30.667,2.205,4.062,3.73,6.51,4.739,8.13,1.8,2.891,1.871,3,1.871,5.666a9.162,9.162,0,0,0,1.141,4.752c.543,1.067.972,1.909.5,5.058-.191,1.275-.419,4.343-.442,5.823-.149,9.52-.529,16.089,0,26.925.54,11.065.807,36.525-.725,60.29H162.7a619.266,619.266,0,0,0,.541-62.075,220.1,220.1,0,0,1,.1-24.642c.073-1.5.37-4.5.568-5.819.587-3.911,0-5.469-.831-7.1a5.851,5.851,0,0,1-.773-3.214c0-3.519-.377-4.237-2.383-7.457-.987-1.586-2.48-3.982-4.637-7.956-7.163-13.2-8.233-23.864-8.233-29.05,0-1.451.011-2.7.021-3.794.044-4.907.063-6.938-1.082-10.372-1.086-3.26,2.048-11.34,3.372-12.443l.292-.242c2.065-1.713,5.186-4.3,5.186-7.875,0-1.692,1.64-3.36,2.272-3.86l.231-.18.159-.254c5.716-9.123,12.515-8.769,16.169-8.575.483.025.906.046,1.26.046h.833l.509-.66c8.593-11.153,16.445-8.906,20.217-7.825l1.646.46.694-.926a34.286,34.286,0,0,1,5.9-5.325,11.083,11.083,0,0,1,5.174-2.154,10.444,10.444,0,0,1,9.2,3.592l1.13,1.412,1.335-1.219c3.962-3.617,7.492-3.327,10.07-3.114l.486.038c8.987.481,9.923,6.72,10.17,14.21l.016.5c.214,6.2-.284,11.224-1.747,14.7l.071.141.529.812a15.6,15.6,0,0,0,3.423,3.494c6.087,4.479,6.659,10.69,5.59,14.338l-.022.084c-1.575,6.615-9.606,25.924-16.387,38.194-3.489,6.315-6.276,11.733-8.514,16.086-2.049,3.985-3.668,7.131-4.738,8.814-.914,1.436-3.7,5.807-3.185,38.859-.278,21.029,3.108,42.589,7.066,60.354h3.467c-3.98-17.692-7.423-39.3-7.144-60.357-.446-28.96,1.708-35.548,2.656-37.037,1.154-1.814,2.722-4.863,4.893-9.083,2.229-4.334,5-9.726,8.467-16,7.007-12.679,15.029-32.013,16.707-39.006,1.378-4.765.152-11.776-7.413-17.213l-.049-.034a11.721,11.721,0,0,1-2.122-1.747c1.4-3.883,2.054-9.338,1.841-15.516l-.017-.491c-.193-5.869-.554-16.794-13.335-17.479l-.429-.035a14.989,14.989,0,0,0-11.366,2.929,13.707,13.707,0,0,0-11.083-3.583,14.467,14.467,0,0,0-6.768,2.8,44.112,44.112,0,0,0-5.822,5.1c-4.315-1.21-13.359-3.2-22.754,8.48l-.282-.015c-3.694-.193-12.316-.645-19.068,9.925-.848.726-3.328,3.124-3.328,6.327,0,1.981-2.29,3.88-3.962,5.267l-.3.247c-2.6,2.164-5.91,11.639-4.417,16.117C143.745,184.105,143.731,185.711,143.688,190.478Z" transform="translate(-142.407 -126.848)" fill="#3c2415"/>
        </g>
        <path id="Trazado_99629" data-name="Trazado 99629" d="M172.712,179.051a43.114,43.114,0,0,0,1.869,5.392c.183.433.391.852.6,1.263.113.2.215.409.329.608l.356.582.389.544c.135.174.284.328.423.493l.053.061.079.087c.051.059.1.119.148.182a3.049,3.049,0,0,1,.25.394,3.382,3.382,0,0,1,.32.866c.016.075.03.15.042.226l.029.176.059.346.124.691c.087.46.189.918.292,1.375.209.913.459,1.814.74,2.7a24.89,24.89,0,0,0,2.212,5.05,12.982,12.982,0,0,0,1.6,2.184,8.966,8.966,0,0,0,2.081,1.7,7.937,7.937,0,0,0,2.543.947,9.672,9.672,0,0,0,1.377.15c.469,0,.94,0,1.408-.038a12.145,12.145,0,0,0,5.322-1.671,11.779,11.779,0,0,0,1.149-.794,11.118,11.118,0,0,0,1.018-.944,8.7,8.7,0,0,0,1.54-2.249,6.87,6.87,0,0,0,.649-2.553c.016-.219,0-.426,0-.652l-.041-.7c-.032-.469-.066-.938-.116-1.4a41.191,41.191,0,0,0-.932-5.547c-.221-.908-.474-1.811-.773-2.68l-.115-.34-.118-.358c-.077-.238-.149-.478-.219-.717-.138-.479-.262-.959-.376-1.439-.232-.96-.411-1.921-.579-2.872-.086-.476-.16-.949-.241-1.422s-.161-.958-.225-1.45-.119-.993-.151-1.5l-.019-.384-.013-.357c-.006-.234-.017-.466-.029-.7a21.274,21.274,0,0,0-.307-2.723,13.3,13.3,0,0,0-2.628-5,9.757,9.757,0,0,0-1.861-1.911,8.849,8.849,0,0,0-1.129-.725c-.193-.116.136-.09-.066-.192-.209-.08-.414-.181-.631-.246a10.221,10.221,0,0,0-5.512-.181.1.1,0,0,1-.056-.187,11.411,11.411,0,0,1,2.836-.743,10.309,10.309,0,0,1,1.5-.057,8.684,8.684,0,0,1,1.5.209,9.617,9.617,0,0,1,5.149,3.183,12.713,12.713,0,0,1,1.7,2.555,13.774,13.774,0,0,1,1.035,2.9,19.568,19.568,0,0,1,.465,2.978c.022.247.042.494.058.739l.023.363.023.335c.037.448.095.9.164,1.358.137.911.312,1.87.466,2.811s.319,1.869.5,2.784c.095.457.2.91.311,1.357.058.223.117.446.182.666l.1.329.105.344c.294.957.519,1.916.717,2.881a35.022,35.022,0,0,1,.695,5.845c.017.49.017.981.015,1.472l-.023.736a7.76,7.76,0,0,1-.071.785,8.068,8.068,0,0,1-1.027,2.918,11.181,11.181,0,0,1-4.32,4.064,14.365,14.365,0,0,1-2.715,1.138,16.829,16.829,0,0,1-2.876.586q-.731.084-1.467.109c-.246.005-.5,0-.745,0l-.187,0-.187-.017-.374-.033a9.44,9.44,0,0,1-2.919-.781,10.125,10.125,0,0,1-2.555-1.672,13.016,13.016,0,0,1-2-2.289,19.133,19.133,0,0,1-2.5-5.419,29.355,29.355,0,0,1-.705-2.872q-.138-.725-.243-1.454c-.034-.244-.069-.487-.1-.731l-.075-.678a1.887,1.887,0,0,0-.146-.492,1.922,1.922,0,0,0-.12-.222c-.022-.036-.046-.07-.071-.1l-.1-.129c-.156-.213-.324-.422-.465-.639s-.269-.44-.4-.662a15.047,15.047,0,0,1-1.137-2.761,26.024,26.024,0,0,1-1.091-5.724.1.1,0,0,1,.191-.034Z" transform="translate(-157.66 -144.817)" fill="#3c2415"/>
        <path id="Trazado_99630" data-name="Trazado 99630" d="M258.176,155.182a15.831,15.831,0,0,1,.071,1.733l.009,1.8.051,10.644c.089-.066.179-.132.267-.2l.655-10.41.113-1.795.028-.449.021-.468c.009-.157.012-.314.007-.472s0-.316-.009-.473a11.914,11.914,0,0,0-.766-3.718,13.18,13.18,0,0,0-1.866-3.328,14.147,14.147,0,0,0-1.262-1.44q-.339-.341-.705-.658-.184-.159-.376-.313l-.2-.153c-.071-.053-.129-.1-.224-.161l-1.039,1.647c.031.017.1.058.148.092l.166.111c.111.077.223.158.333.241.221.166-.011.2.2.385a12.387,12.387,0,0,1,1.19,1.186,11.593,11.593,0,0,1,1.837,2.81A12.4,12.4,0,0,1,258.176,155.182Z" transform="translate(-198.402 -136.204)" fill="#3c2415"/>
        <path id="Trazado_99631" data-name="Trazado 99631" d="M308.211,205.109c-.033.887-.1,1.77-.171,2.655-.063.707-.13,1.406-.217,2.116-.022.18-.045.361-.069.543l-.456-.106a5.756,5.756,0,0,1-.424-.937q-.272.36-.556.712l-.458-.106c.106-.325.21-.656.309-.989.151-.493.3-1,.435-1.491.231-.837.45-1.679.643-2.525s.372-1.7.5-2.56a18.986,18.986,0,0,0,.249-2.6,19.371,19.371,0,0,1,.238,2.633C308.265,203.338,308.243,204.223,308.211,205.109Z" transform="translate(-225.2 -163.809)" fill="#3c2415"/>
        <path id="Trazado_99632" data-name="Trazado 99632" d="M285.82,182.994c-.9-.842.1,2.592-.517,1.523-1.812-3.153-5.961-5.376-6.9-6.182-1.869-1.6-2.6-3.111-4.588-4.518-.5-.344-1.267-1.044-1.782-1.329-.13-.067-.258-.145-.387-.2a3.037,3.037,0,0,0-.381-.169c-.116-.048-.275-.1-.426-.156l-.442-.164c-.582-.221-1.142-.442-1.709-.614a9.666,9.666,0,0,0-1.707-.373,9.568,9.568,0,0,0-3.449.232,16.741,16.741,0,0,0-3.324,1.231,27.948,27.948,0,0,0-3.122,1.8c-.509.324-1,.68-1.5,1.027-.487.364-.978.717-1.454,1.1-.967.74-1.9,1.523-2.821,2.307a28.863,28.863,0,0,1-3.038,2.311,91.638,91.638,0,0,1-13.3,6.8l-.844.377-.42.186q-.195.087-.383.182a9.667,9.667,0,0,0-1.433.878,7.427,7.427,0,0,0-2.133,2.439,7.172,7.172,0,0,0-.831,3.12,7.591,7.591,0,0,0,.614,3.2,7.316,7.316,0,0,0,1.922,2.62,6.943,6.943,0,0,0,1.353.924,3.546,3.546,0,0,0,.368.184c.13.056.242.117.383.171.277.108.547.227.831.327a29.472,29.472,0,0,0,6.972,1.64,28.4,28.4,0,0,0,3.59.176,30.153,30.153,0,0,0,3.586-.26,26.033,26.033,0,0,0,6.915-1.93,27.4,27.4,0,0,0,6.18-3.733,33.752,33.752,0,0,0,4.581-4.472q.289-.338.565-.681l.543-.673.125.844a5.085,5.085,0,0,0,.422,1.394,5.355,5.355,0,0,0,.734,1.164,6.543,6.543,0,0,0,2.272,1.789,8.438,8.438,0,0,0,2.854.762,12.424,12.424,0,0,0,3.006-.158,12.516,12.516,0,0,1-3.017.377,8.375,8.375,0,0,1-3.012-.6,7.076,7.076,0,0,1-2.558-1.781,5.946,5.946,0,0,1-.8-1.114,5.756,5.756,0,0,1-.424-.937q-.272.36-.556.712a31.831,31.831,0,0,1-4.038,4.213l-.355.311-.37.292-.738.589-.768.552-.383.275c-.13.089-.264.171-.4.258l-.8.513-.823.474-.411.234-.422.216c-.283.141-.563.288-.85.422a29.67,29.67,0,0,1-3.54,1.372,30.1,30.1,0,0,1-3.7.87,29.586,29.586,0,0,1-7.586.249,31.235,31.235,0,0,1-7.431-1.619c-.3-.1-.6-.225-.9-.338-.147-.054-.309-.134-.463-.2a4.593,4.593,0,0,1-.461-.228,8.845,8.845,0,0,1-1.7-1.149,9.207,9.207,0,0,1-2.436-3.285,9.468,9.468,0,0,1-.794-4.012,8.918,8.918,0,0,1,3.737-7.06,11.532,11.532,0,0,1,1.725-1.045c.15-.074.3-.145.454-.212l.426-.188.85-.373c2.259-.984,4.5-1.973,6.7-3.046q1.648-.8,3.261-1.658c1.071-.578,2.12-1.181,3.139-1.828a26.68,26.68,0,0,0,2.884-2.117c.974-.8,1.941-1.588,2.951-2.328.5-.376,1.019-.729,1.532-1.088s1.043-.7,1.582-1.025a29.878,29.878,0,0,1,3.338-1.8,17.9,17.9,0,0,1,3.644-1.229,10.849,10.849,0,0,1,3.9-.109,11.03,11.03,0,0,1,1.887.487c.606.214,1.186.467,1.748.705l.42.175c.138.054.268.1.437.178a4.62,4.62,0,0,1,.456.223c.15.076.284.162.424.244.547.342,1.054.714,1.552,1.1.986.77,1.928,1.58,2.847,2.41s1.822,1.679,2.7,2.545C281.4,179.425,284.14,181.185,285.82,182.994Z" transform="translate(-185.266 -148.458)" fill="#3c2415"/>
      </g>
      <path id="Trazado_99633" data-name="Trazado 99633" d="M264.559,387.105s1.976,49.412.565,66.071c-.565-8.471-.847-48.283-.847-48.283Z" transform="translate(-61.73 -131.827)" fill="#3c2415"/>
      <path id="Trazado_99634" data-name="Trazado 99634" d="M255.118,376.949s1.976,30.566.565,40.871c-.565-5.24-.847-29.867-.847-29.867Z" transform="translate(-56.948 -126.683)" fill="#3c2415"/>
      <path id="Trazado_99635" data-name="Trazado 99635" d="M260.39,239a75.684,75.684,0,0,0-7.65,7.845,50.969,50.969,0,0,0-6.074,8.849,35.39,35.39,0,0,0-2.186,4.854c-.334.824-.562,1.682-.836,2.528-.219.86-.464,1.717-.621,2.595-.209.87-.292,1.758-.447,2.645-.071.891-.208,1.789-.207,2.693a46.6,46.6,0,0,0,.093,5.5,24.41,24.41,0,0,1-1.3-5.448,12.735,12.735,0,0,1-.127-1.409l-.07-1.419a27.711,27.711,0,0,1,.143-2.844,26.375,26.375,0,0,1,1.162-5.591c.269-.918.638-1.8.982-2.688.4-.866.786-1.737,1.243-2.572a36.8,36.8,0,0,1,6.835-9A35.564,35.564,0,0,1,260.39,239Z" transform="translate(-49.92 -56.808)" fill="#3c2415"/>
    </g>
    <path id="Trazado_13405" data-name="Trazado 13405" d="M0,0H193V3.027H0Z" transform="translate(490 5618.203)" fill="#895cd8"/>
    <path id="Trazado_12060" data-name="Trazado 12060" d="M6541.919,2684.67s49.983,15.353,117.25,0" transform="translate(-6014.169 2777.474)" fill="none" stroke="#ea3065" stroke-width="2" stroke-dasharray="3"/>
  </g>
</svg>
