<svg xmlns="http://www.w3.org/2000/svg" xmlns:xlink="http://www.w3.org/1999/xlink" width="193" height="242.558" viewBox="0 0 193 242.558">
  <defs>
    <clipPath id="clip-path">
      <rect id="Rectángulo_5050" data-name="Rectángulo 5050" width="192" height="240" transform="translate(279 1145)" fill="#fff" stroke="#707070" stroke-width="1"/>
    </clipPath>
  </defs>
  <g id="Grupo_21077" data-name="Grupo 21077" transform="translate(-490 -5378.672)">
    <g id="Enmascarar_grupo_1" data-name="Enmascarar grupo 1" transform="translate(211 4235.186)" clip-path="url(#clip-path)">
      <g id="Grupo_7709" data-name="Grupo 7709" transform="translate(-133.992 -2751.045)">
        <path id="Trazado_11929" data-name="Trazado 11929" d="M293.4,124.865c-2.7-10.616-4.44-13.512-7.718-31.657-1.751-9.686-1.405-18.907-1.47-28.685-.1-15.268-.009-32.8-12.385-35.721-4.376-1.032-3.389-6.388-14.47-7.3a39.131,39.131,0,0,0-12.646.908c-6.536,1.961-9.023,3.355-12.971,6.649-3.295,2.748-5.215,5.41-7.235,11.472-1.042,3.124-2.2,11.7-2.281,13.624-.145,3.44-1.4,27.651-3.844,44.238-1.018,6.927-3.526,22.58,1.362,27.062s13.536.462,16.345-1.8c6.247-5.046,6.561-12.107,5.949-17.809s-6.579-18.332-6.641-19.552c-.326-6.323-7.17-20.6-.913-29.789,2.225-3.268,8.925-5.244,15.512-7.171,6.237-1.825,12.258-4.735,14.6-4.5,8.279.325,11.319,15.209,11.472,16.1.717,4.172-.114,5.776.454,8.148l-7.959,15.961.038,28.287c.634,5.28-2.983,10.689,10.606,15.974C282.878,130.733,295.705,133.924,293.4,124.865Z" transform="translate(255.201 3766.637)" fill="#3b1f10"/>
        <path id="Trazado_11962" data-name="Trazado 11962" d="M324.325,360.859a24.148,24.148,0,0,0-.787,3.768,30.82,30.82,0,0,1-1.127,4.646,7.052,7.052,0,0,1-1.324,2.452c-.2.265-1.347,1.43-1.347,1.43-.719.673-1.529,1.37-2.088,1.824-1.006.81-3.186,2.611-4.162,3.322a32.324,32.324,0,0,1-3.852,2.5,2.141,2.141,0,0,1-2.361.061,1.886,1.886,0,0,1-.5-2.036,7.653,7.653,0,0,1,1.127-1.937c.219-.31.386-.515.386-.515s-.03-.159-.061-.371a8.9,8.9,0,0,1-.121-.885,2.625,2.625,0,0,1,.938-1.945,29.7,29.7,0,0,0,2.406-2.807l-.113-.356a.024.024,0,0,0,.015-.008,5.987,5.987,0,0,1-.348-.537,2.171,2.171,0,0,1,.2-1.975c.613-.991,1.748-1.861,2.149-2.452a3.212,3.212,0,0,0,.28-1.687,7.144,7.144,0,0,1-.061-1.037c-.061-.832-.189-2.633-.7-2.951-.189-.113-1.067-.689-1.718-1.127l-.817.008c-.212.991-.689,3.276-.961,4.782-.62,3.428-.734,7.249-1.967,9.58a3.078,3.078,0,0,1-1.332,1.415,2.763,2.763,0,0,1-1.286.242,2.881,2.881,0,0,1-1.7-.522,2.315,2.315,0,0,1-.825-1.271c-.378-1.438.393-5.94.62-8.914.219-2.785.56-5.849.613-8.263a89.983,89.983,0,0,1,1.945-15.792c.916-3.761,3.428-10.155,2.974-13.87-1.884-15.24-10.442-34.883-12.448-40.074-4.063-10.541-9.33-25.97-10.806-36.192-1.589-11.017-2.9-15.527-3.14-28.928-.038-2.157.121-7.453.212-10.155.023-.7.045-1.226.053-1.483.008-.106.008-.166.008-.166s-.061.151-.174.439c-.2.515-.575,1.468-1.044,2.769-2.648,7.317-8.475,25.667-5.978,39.159,2.384,12.856,8.581,19.235,13.8,30.82.885,1.967,1.748,4.079,2.55,6.4.174.507.348,1.037.522,1.6,4,12.97,6.742,39.968-.583,72.521-.424,1.9-2.686,11.986-5.425,24.365-.341,1.529-.681,3.065-1.037,4.593H239.417c-.4-19-.7-38.576-.4-43.2.325-5.145.953-9.239,1.233-10.927.091-.545.151-.84.151-.84a12.507,12.507,0,0,1-3.148.409,9.224,9.224,0,0,1-3.148-.4c.008.053.1.341.227.832a61.65,61.65,0,0,1,1.763,11.123c.59,9.3,1.188,15.255-.166,43H190.739c-1.127-5.115-2.24-9.572-3.231-12.728-12.849-40.468-9.489-75.049-4.691-89.645a.1.1,0,0,0,.008-.045q.113-.341.227-.658c.757-2.187,1.559-4.184,2.391-6.053C190.7,270.359,196.989,263.987,199.4,251c2.331-12.569-2.913-29.874-5.925-38.326-.409-1.165-.787-2.157-1.09-2.951-.515-1.339-.832-2.1-.832-2.1s-.038-.7-.061.673c-.008.416-.015,1.022-.015,1.9-.008.658-.008,1.468-.008,2.467,0,2.792-.151,5.35-.136,6.992.076,6.606-.643,17.548-1.256,24.154-.182,1.96-.356,3.541-.492,4.51-1.476,10.223-7.6,26.87-10.813,36.193-1.816,5.251-10.571,24.835-12.455,40.067-.462,3.715,2.058,10.117,2.966,13.87a89.357,89.357,0,0,1,1.945,15.792c.053,2.414.393,5.486.605,8.271.235,2.966,1.006,7.469.62,8.906a2.266,2.266,0,0,1-.681,1.158v.008a2.841,2.841,0,0,1-1.846.636,2.674,2.674,0,0,1-1.476-.348,3.243,3.243,0,0,1-1.135-1.317c-1.241-2.331-1.347-6.152-1.967-9.58-.242-1.339-.651-3.307-.885-4.419-.106-.515-.182-.848-.182-.848s-.348.235-.779.522c-.636.431-1.468.976-1.65,1.082a3.839,3.839,0,0,0-.537,1.665,12.487,12.487,0,0,0-.182,1.4,11.228,11.228,0,0,0-.008,1.892,1.648,1.648,0,0,0,.242.719c.4.59,1.536,1.468,2.149,2.452a2.166,2.166,0,0,1,.2,1.975,6.469,6.469,0,0,1-.53.795,33.51,33.51,0,0,0,2.49,2.913,2.685,2.685,0,0,1,.946,1.952c-.015.31-.189,1.256-.189,1.256a10.594,10.594,0,0,1,1.513,2.452,1.881,1.881,0,0,1-.5,2.035,2.157,2.157,0,0,1-2.361-.068,32.324,32.324,0,0,1-3.852-2.5c-.976-.711-3.155-2.5-4.162-3.322a25.853,25.853,0,0,1-3.428-3.254,6.91,6.91,0,0,1-1.332-2.459,31.718,31.718,0,0,1-1.12-4.638,24.217,24.217,0,0,0-.795-3.768,15.562,15.562,0,0,1-.984-5.872c.068-1.2,2.754-10.238,3.269-13.06s1.6-7.136,1.476-10.624-.227-8.49-.113-11.842c.03-1.014.3-4.321.666-8.528.84-9.7,2.179-24.2,2.346-26.575.242-3.405,1.354-15.4,1.74-19.023a53.038,53.038,0,0,1,4.828-17.1c3.042-5.774,4.586-10.23,4.964-15.02.182-2.376.076-10.177-.106-18.425-.182-8.369-.454-17.2-.575-21.248-.257-8.551-.144-18.312.9-24.539,1.1-6.659,4.283-11.963,9.739-14.536a50.5,50.5,0,0,1,11.373-3.382c3.708-.651,7.385-2.717,11.842-5.017.885-.454,1.808-.923,2.762-1.392.159-.083.325-.159.484-.242,1.476-.711,3.042-1.415,4.714-2.088,7.189-2.883,9.436-7.143,10.14-9.542a7.812,7.812,0,0,0,.31-1.665c.008-.091.008-.144.008-.151s-.076-.568-.182-1.491c0,0-.636-5.789-.87-8.921-.076-1.09-.605-8.18-.605-8.18h.734l.863.008,12.773.053H233.9l2.588.015H237.8l1.793-.008,1.491-.008,11.078-.045,3.337-.015h.477s-.522,7.09-.605,8.18c-.227,3.133-.863,8.921-.863,8.921-.114.923-.182,1.491-.182,1.491,0,.106.038,7.181,10.45,11.358,4.866,1.952,8.793,4.207,12.326,5.97a28.179,28.179,0,0,0,7.476,2.77,50.448,50.448,0,0,1,11.381,3.382c5.456,2.573,8.634,7.877,9.739,14.536,1.037,6.228,1.158,15.989.9,24.539-.061,1.914-.151,4.911-.25,8.414,0,0-.477,28.52-.182,32.311.371,4.79,1.914,9.247,4.956,15.02a52.855,52.855,0,0,1,4.82,17.1c.393,3.625,1.5,15.618,1.74,19.023.166,2.376,1.506,16.874,2.338,26.567.363,4.215.636,7.521.666,8.535.113,3.352.008,8.354-.121,11.842s.961,7.8,1.476,10.624,3.2,11.857,3.269,13.06a15.449,15.449,0,0,1-.991,5.872Z" transform="translate(271.605 3744.745)" fill="#fff" stroke="#3b1f10" stroke-linecap="round" stroke-linejoin="round" stroke-width="1.942"/>
        <path id="Trazado_11963" data-name="Trazado 11963" d="M265.946,314.31a3.589,3.589,0,0,1-1.884.863,1.589,1.589,0,0,1-1.589-1.305,4.173,4.173,0,0,0,1.912.63C264.955,314.457,265.946,314.31,265.946,314.31Z" transform="translate(244.094 3695.468)" fill="#3b1f10"/>
        <path id="Trazado_11964" data-name="Trazado 11964" d="M267.407,316.316a4.858,4.858,0,0,1-3.967,2.119,3.26,3.26,0,0,1-3.018-1.589,5.349,5.349,0,0,1-.5-1.072,8.248,8.248,0,0,0,2.341,1.546,5.255,5.255,0,0,0,1.938.022,21.494,21.494,0,0,0,3.211-1.025Z" transform="translate(244.716 3695.004)" fill="#3b1f10"/>
        <path id="Trazado_11965" data-name="Trazado 11965" d="M177.155,450.983c-.125-.261-.416-.49-1.034-.517a3.166,3.166,0,0,0-1.773.349c-.53.317-.587,1.093-.437,2.141a10.807,10.807,0,0,0,.673,2.85,2.176,2.176,0,0,0,1.888.288c.62-.176,1.127-.342,1.243-1a11.3,11.3,0,0,0-.56-4.114Z" transform="translate(265.66 3662.235)" fill="#fff" stroke="#411906" stroke-linecap="round" stroke-linejoin="round" stroke-width="1"/>
        <path id="Trazado_11966" data-name="Trazado 11966" d="M352.864,451.969c.125-.261.416-.49,1.034-.516a3.159,3.159,0,0,1,1.773.348c.53.316.587,1.093.437,2.139a10.814,10.814,0,0,1-.673,2.85,2.167,2.167,0,0,1-1.888.289c-.62-.175-1.127-.341-1.244-1a11.31,11.31,0,0,1,.56-4.113Z" transform="translate(222.241 3661.995)" fill="#fff" stroke="#411906" stroke-linecap="round" stroke-linejoin="round" stroke-width="1"/>
        <path id="Trazado_11967" data-name="Trazado 11967" d="M187.179,279.644a10.834,10.834,0,0,0-1.252,3.519c-.172,1.3-.222,2.591-.222,2.591a5.653,5.653,0,0,1-.038-3.69,7.122,7.122,0,0,1,1.513-2.419Z" transform="translate(262.853 3703.795)" fill="#3b1f10"/>
        <path id="Trazado_11968" data-name="Trazado 11968" d="M181.809,279.192a5.751,5.751,0,0,0-.676,1.868,11.566,11.566,0,0,0-.063,1.186,3.442,3.442,0,0,1-.253-1.642A1.967,1.967,0,0,1,181.809,279.192Z" transform="translate(263.965 3703.905)" fill="#3b1f10"/>
        <path id="Trazado_11969" data-name="Trazado 11969" d="M341.636,279.644a10.833,10.833,0,0,1,1.252,3.519c.173,1.3.222,2.591.222,2.591a5.653,5.653,0,0,0,.038-3.69A7.122,7.122,0,0,0,341.636,279.644Z" transform="translate(224.833 3703.795)" fill="#3b1f10"/>
        <path id="Trazado_11970" data-name="Trazado 11970" d="M347.263,279.192a5.751,5.751,0,0,1,.676,1.868,11.553,11.553,0,0,1,.063,1.186,3.438,3.438,0,0,0,.253-1.642,1.967,1.967,0,0,0-.992-1.412Z" transform="translate(223.464 3703.905)" fill="#3b1f10"/>
        <path id="Trazado_11971" data-name="Trazado 11971" d="M195.778,197.459a37.743,37.743,0,0,0,.965,4.162c.542,1.688,1.159,4.032,1.771,4.856,1.852,2.493,2.984,2.1,2.984,2.1l-.1,1.6a8.346,8.346,0,0,1-3.165-2.738,17.213,17.213,0,0,1-1.923-5.556C196.085,200.6,195.778,197.459,195.778,197.459Z" transform="translate(260.321 3723.791)" fill="#3b1f10"/>
        <path id="Trazado_11972" data-name="Trazado 11972" d="M242.331,223.242a21.851,21.851,0,0,1-8.612,12.493,23.035,23.035,0,0,1-15.03,3.457c-3.859-.513-9.631-2.091-13.015-6.15-3.708-4.449-4.25-10.9-4.455-14.4a28.549,28.549,0,0,1,2.113-10.935,22.453,22.453,0,0,1,2.27-4.244,35.074,35.074,0,0,0-2.227,5.426,41.225,41.225,0,0,0-1.42,7.841,31.516,31.516,0,0,0,2.054,11.5,13.257,13.257,0,0,0,5.448,6.554,21.692,21.692,0,0,0,9.708,3.343,22.873,22.873,0,0,0,12.054-2.1,20.025,20.025,0,0,0,6.54-5.179,45.176,45.176,0,0,0,4.57-7.614Z" transform="translate(258.998 3722.329)" fill="#3b1f10"/>
        <path id="Trazado_11973" data-name="Trazado 11973" d="M215.9,221.2a4.788,4.788,0,0,0-2.333,3.055,4.544,4.544,0,0,0,1.272,4.317,5.22,5.22,0,0,0,3.969.929,4.2,4.2,0,0,0,2.928-2.08,9.383,9.383,0,0,0,.55-2.25,7.061,7.061,0,0,1-1.141,2.227,3.751,3.751,0,0,1-2.866,1.341,4.439,4.439,0,0,1-2.7-.6,3.975,3.975,0,0,1-1.329-3.817A5.7,5.7,0,0,1,215.9,221.2Z" transform="translate(256.014 3718.015)" fill="#3b1f10"/>
        <path id="Trazado_11974" data-name="Trazado 11974" d="M243.035,134.952s2.51,6.467,3.027,10.275-.512,2.27-1.014.005a43.426,43.426,0,0,0-2.662-7.945Z" transform="translate(248.981 3739)" fill="#3b1f10"/>
        <path id="Trazado_11975" data-name="Trazado 11975" d="M219.773,226.078a1.047,1.047,0,0,0-.8-.731.922.922,0,0,0-1.085.514,1.355,1.355,0,0,1,.953-.246,1.981,1.981,0,0,1,.931.463Z" transform="translate(254.942 3717.013)" fill="#3b1f10"/>
        <path id="Trazado_11980" data-name="Trazado 11980" d="M219.532,226.792a1.461,1.461,0,0,1-.78.207c-.378-.041-.605-.5-.605-.5s-.017.736.605.844a.53.53,0,0,0,.541-.166A1.342,1.342,0,0,0,219.532,226.792Z" transform="translate(254.879 3716.724)" fill="#3b1f10"/>
        <path id="Trazado_11981" data-name="Trazado 11981" d="M275.212,147.372a43.7,43.7,0,0,1-3.109,5.745s2.265-6.459,3.109-9.557,2.951-9.96,2.951-9.96S277.376,142.071,275.212,147.372Z" transform="translate(241.751 3739.329)" fill="#3b1f10"/>
        <path id="Trazado_11982" data-name="Trazado 11982" d="M218.11,165.044a61.107,61.107,0,0,1,8.538-.222c7.808.676,9.2,2.616,11.034,3.743s-3.286-1.529-8.82-2.328C225.353,165.728,218.11,165.044,218.11,165.044Z" transform="translate(254.888 3731.747)" fill="#3b1f10"/>
        <path id="Trazado_11983" data-name="Trazado 11983" d="M205.328,335.935s4.691,2.729,5.591,6.291c1.149,4.546.512-1.863-1.578-3.953A13.667,13.667,0,0,0,205.328,335.935Z" transform="translate(257.998 3690.098)" fill="#3b1f10"/>
        <path id="Trazado_11984" data-name="Trazado 11984" d="M260.017,169.135s1.69-2.911,4.308-2.735a3.1,3.1,0,0,1,2.718,1.387,2.464,2.464,0,0,1,.579,1.4s-2.639-1.836-3.9-1.68A14.166,14.166,0,0,0,260.017,169.135Z" transform="translate(244.691 3731.35)" fill="#3b1f10"/>
        <path id="Trazado_11985" data-name="Trazado 11985" d="M332.806,197.459a37.551,37.551,0,0,1-.965,4.162c-.541,1.688-1.159,4.032-1.771,4.856-1.852,2.493-2.984,2.1-2.984,2.1l.1,1.6a8.346,8.346,0,0,0,3.164-2.738,17.252,17.252,0,0,0,1.923-5.556C332.5,200.6,332.806,197.459,332.806,197.459Z" transform="translate(228.373 3723.791)" fill="#3b1f10"/>
        <path id="Trazado_11986" data-name="Trazado 11986" d="M274.873,223.242a21.854,21.854,0,0,0,8.613,12.493,23.035,23.035,0,0,0,15.03,3.457c3.859-.513,9.631-2.091,13.015-6.15,3.708-4.449,4.25-10.9,4.455-14.4a28.564,28.564,0,0,0-2.113-10.935,22.452,22.452,0,0,0-2.27-4.244,35.074,35.074,0,0,1,2.227,5.426,41.229,41.229,0,0,1,1.42,7.841,31.517,31.517,0,0,1-2.054,11.5,13.848,13.848,0,0,1-5.594,6.676,24.326,24.326,0,0,1-9.658,3.115A21.626,21.626,0,0,1,286.107,236a20.123,20.123,0,0,1-6.659-5.145,45.211,45.211,0,0,1-4.575-7.612Z" transform="translate(241.077 3722.329)" fill="#3b1f10"/>
        <path id="Trazado_11987" data-name="Trazado 11987" d="M312.176,220.6a4.786,4.786,0,0,1,2.333,3.055,4.534,4.534,0,0,1-1.272,4.313,5.233,5.233,0,0,1-3.969.93,4.205,4.205,0,0,1-2.928-2.081,9.383,9.383,0,0,1-.55-2.25,7.07,7.07,0,0,0,1.141,2.228,3.755,3.755,0,0,0,2.866,1.341,4.44,4.44,0,0,0,2.7-.6,3.973,3.973,0,0,0,1.329-3.816,5.7,5.7,0,0,0-1.653-3.124Z" transform="translate(233.554 3718.161)" fill="#3b1f10"/>
        <path id="Trazado_11988" data-name="Trazado 11988" d="M286.061,171.49s1.629-3.014,4.438-3.751a11.914,11.914,0,0,1,5.715.141s-2.951.24-4.057.46a10.336,10.336,0,0,0-3.563,1.348C287.9,170.26,286.061,171.49,286.061,171.49Z" transform="translate(238.355 3731.091)" fill="#3b1f10"/>
        <path id="Trazado_11989" data-name="Trazado 11989" d="M298.425,172.879a45.118,45.118,0,0,1,6.066-2.438,70.25,70.25,0,0,1,10.821-1.611,102.117,102.117,0,0,1-10.531,2.452C303.234,171.562,298.425,172.879,298.425,172.879Z" transform="translate(235.346 3730.757)" fill="#3b1f10"/>
        <path id="Trazado_11990" data-name="Trazado 11990" d="M286.46,134.353c-2.27,5.855-2.711,6.327-3.311,10.728-.52,3.808,1.529,10.544,1.529,10.544s-1.019-8.271-.515-10.538a43.457,43.457,0,0,1,2.661-7.945Z" transform="translate(239.084 3739.145)" fill="#3b1f10"/>
        <path id="Trazado_11991" data-name="Trazado 11991" d="M310.224,225.3a1.315,1.315,0,0,1,1.006-.92,1.161,1.161,0,0,1,1.367.647,1.706,1.706,0,0,0-1.2-.309A2.482,2.482,0,0,0,310.224,225.3Z" transform="translate(232.476 3717.25)" fill="#3b1f10"/>
        <path id="Trazado_11992" data-name="Trazado 11992" d="M319.524,337.737a4.256,4.256,0,0,1,1.56-1.845,6.471,6.471,0,0,1,2.5-.882,11.087,11.087,0,0,0-2.779,2.67,18.348,18.348,0,0,0-1.485,3.886,6.6,6.6,0,0,1,.207-3.83Z" transform="translate(230.309 3690.323)" fill="#3b1f10"/>
        <path id="Trazado_11997" data-name="Trazado 11997" d="M310.65,225.949a1.98,1.98,0,0,0,1.059.281c.505-.055.816-.671.816-.671s.022,1-.815,1.141a.718.718,0,0,1-.73-.227,1.81,1.81,0,0,1-.33-.524Z" transform="translate(232.372 3716.954)" fill="#3b1f10"/>
        <path id="Trazado_11998" data-name="Trazado 11998" d="M253.263,147.372a43.694,43.694,0,0,0,3.109,5.745s-2.265-6.459-3.109-9.557-2.951-9.96-2.951-9.96S251.1,142.071,253.263,147.372Z" transform="translate(247.053 3739.329)" fill="#3b1f10"/>
        <g id="Grupo_7706" data-name="Grupo 7706" transform="translate(428.322 4097.652)">
          <path id="Trazado_11999" data-name="Trazado 11999" d="M168.81,435.281s-.11-1.791-.227-2.555c-.1-.661-.176-2.144-.176-2.144s-.168,1.487-.207,2.592a3.625,3.625,0,0,1-1.11,2.065l1.142-.53Z" transform="translate(-161.021 -430.582)" fill="#3b1f10"/>
          <path id="Trazado_12000" data-name="Trazado 12000" d="M168.677,454.848a1.183,1.183,0,0,1-.639-.227,26.37,26.37,0,0,1-2.586-2.458c-.58-.663-1.883-1.915-1.883-1.915s-.027-1.479-.109-2.617a8.837,8.837,0,0,1,1,.7c.7.61,1.979,1.755,1.979,1.755l-.894-1.149a8.927,8.927,0,0,0-1.022-1.085c-.671-.543-.866-.748-1.118-.926a10.125,10.125,0,0,0-.545-2.183s.183-.543.406-1.126a12.283,12.283,0,0,0,.4-1.874l-.01-2.8s-.348,1.581-.543,2.9a18.3,18.3,0,0,1-.766,2.545s.366,1.622.605,2.724c.12.56.04,1.8.1,2.653a46.513,46.513,0,0,1-1.5-5.075c-.445-1.616-.7-2.172-1.086-3.258a14.8,14.8,0,0,0-1.405-3s.8,2.522,1.118,3.448c.227.667.958,3.13.958,3.13l1.4,4.853s.963.974.967.953c.362.325,1.081.977,1.531,1.431.621.627,1.962,1.951,2.515,2.374s1.787,1.117,1.787,1.117Z" transform="translate(-159.069 -432.493)" fill="#3b1f10"/>
        </g>
        <g id="Grupo_7707" data-name="Grupo 7707" transform="translate(579.254 4098.024)">
          <path id="Trazado_12001" data-name="Trazado 12001" d="M361.349,435.773s.11-1.791.227-2.554c.1-.661.176-2.145.176-2.145s.167,1.487.207,2.592a3.128,3.128,0,0,0,1.162,1.947l-1.135,0Z" transform="translate(-359.217 -431.074)" fill="#3b1f10"/>
          <path id="Trazado_12002" data-name="Trazado 12002" d="M359.1,455.761a5.138,5.138,0,0,0,1.275-.435,26.278,26.278,0,0,0,2.586-2.458c.58-.663,1.884-1.916,1.884-1.916s.027-1.479.108-2.617a8.916,8.916,0,0,0-1,.7c-.7.611-1.98,1.756-1.98,1.756l.894-1.149a8.8,8.8,0,0,1,1.022-1.085c.67-.543.865-.748,1.117-.925a10.141,10.141,0,0,1,.545-2.184s-.183-.543-.4-1.125a12.32,12.32,0,0,1-.406-1.875l-.308-3.329a29.048,29.048,0,0,1,.861,3.435,18.323,18.323,0,0,0,.766,2.546s-.366,1.621-.605,2.724c-.12.559-.04,1.8-.1,2.652a46.693,46.693,0,0,0,1.5-5.076c.444-1.616.7-2.172,1.086-3.254a14.87,14.87,0,0,1,1.4-3s-.8,2.524-1.118,3.449c-.227.667-.957,3.129-.957,3.129l-1.405,4.853s-.962.975-.967.954c-.362.324-1.081.976-1.531,1.429-.62.628-1.961,1.951-2.514,2.375s-2.324,2.022-2.324,2.022Z" transform="translate(-358.532 -433.031)" fill="#3b1f10"/>
        </g>
        <path id="Trazado_12003" data-name="Trazado 12003" d="M278.121,61.957c-1.594-3.637-3.038-7.9-6.44-9.72-3.5-1.874-5.7,0-14.543,2.975-10.056,3.385-18.619,6.138-20.165,9.774s-1.816,10.812-1.624,13.86,2.8,12.664,2.8,12.664a27.771,27.771,0,0,0,4.567,9.4c2.218,2.9,6.94,7.752,8.736,8.9,5.5,3.517,10.781,1.429,13.913-.714a50.9,50.9,0,0,0,7.291-6.439c2.556-2.7,5.444-9.167,5.954-11.3.832-3.472,2.754-9.437,3.007-12.48C281.943,74.925,279.716,65.594,278.121,61.957Z" transform="translate(250.707 3759.308)" fill="#fff" stroke="#411906" stroke-linecap="round" stroke-linejoin="round" stroke-width="1.866"/>
        <path id="Trazado_12004" data-name="Trazado 12004" d="M245.053,103.609c-1.222-.649-.809-.266.313.792a6.583,6.583,0,0,1,1.232,1.269,8.91,8.91,0,0,1,1.24,2.519,7.088,7.088,0,0,0-1.411-3.643,6.035,6.035,0,0,0-1.373-.936Z" transform="translate(248.513 3746.703)" fill="#3b1f10"/>
        <path id="Trazado_12005" data-name="Trazado 12005" d="M261.2,102.35c-.257.087-.547.106-.7-.142a.334.334,0,0,1,.084-.288,1.656,1.656,0,0,1,1.3-.194c.714.209,1.2.878,1.1,1s-.73-.352-1.053-.431a1.184,1.184,0,0,0-.562,0Z" transform="translate(244.574 3747.097)" fill="#3b1f10"/>
        <path id="Trazado_12006" data-name="Trazado 12006" d="M269.1,102.3a.583.583,0,0,0,.619-.142c.052-.108.048-.105-.076-.252a1.5,1.5,0,0,0-1.589-.03c-.489.242-.948.764-.85.891s.566-.233.979-.446a1.2,1.2,0,0,1,.67-.054A.372.372,0,0,0,269.1,102.3Z" transform="translate(242.947 3747.098)" fill="#3b1f10"/>
        <path id="Trazado_12007" data-name="Trazado 12007" d="M259.371,99.17c-.112.027-.183.023-.574.648a1.955,1.955,0,0,0-.258.93,1.556,1.556,0,0,0,.347,1.273c.344.392.454.389,1.031.53.4.1.384-.059.384-.059-.177-.173-.58-.19-.958-.575a1.564,1.564,0,0,1-.323-.52,2.582,2.582,0,0,1-.023-.88,2.11,2.11,0,0,1,.263-.861c.169-.331.3-.424.2-.468a.181.181,0,0,0-.083-.017Z" transform="translate(245.056 3747.706)" fill="#3b1f10"/>
        <path id="Trazado_12008" data-name="Trazado 12008" d="M271.044,99.2c.112.027.184.023.574.647a1.967,1.967,0,0,1,.259.93,1.554,1.554,0,0,1-.349,1.273c-.343.392-.454.389-1.03.53-.4.1-.384-.059-.384-.059.176-.172.58-.189.959-.575a1.6,1.6,0,0,0,.323-.52,2.6,2.6,0,0,0,.023-.88,2.105,2.105,0,0,0-.263-.86c-.168-.331-.3-.424-.194-.469a.171.171,0,0,1,.082-.016Z" transform="translate(242.235 3747.698)" fill="#3b1f10"/>
        <path id="Trazado_12009" data-name="Trazado 12009" d="M269.865,82.09a11.2,11.2,0,0,0-.729,2.4,19.424,19.424,0,0,0,.26,3.283s.261-2.971.261-3.492S269.865,82.09,269.865,82.09Z" transform="translate(242.473 3751.862)" fill="#3b1f10"/>
        <path id="Trazado_12010" data-name="Trazado 12010" d="M264.787,105.656A5.675,5.675,0,0,1,264.5,108c-.222.515.417.285.417.285a10,10,0,0,0,.132-1.665A3.476,3.476,0,0,0,264.787,105.656Z" transform="translate(243.612 3746.128)" fill="#3b1f10"/>
        <path id="Trazado_12011" data-name="Trazado 12011" d="M272.552,76.289s.087-.53,1.876-1.127a26.271,26.271,0,0,1,6.076-1.484,23.086,23.086,0,0,1,4.168-.142,11.837,11.837,0,0,1,3.208.566c.221.151.11.353-.044.353s-3.615-.469-4.9-.4a17.044,17.044,0,0,0-3.637.614c-.861.266-3.151,1.4-4.056,1.688a4.854,4.854,0,0,1-1.855.4C272.641,76.754,272.221,76.643,272.552,76.289Z" transform="translate(241.669 3753.951)" fill="#3b1f10"/>
        <path id="Trazado_12012" data-name="Trazado 12012" d="M252.731,76.289s-.088-.53-1.877-1.127a26.264,26.264,0,0,0-6.075-1.484,23.089,23.089,0,0,0-4.168-.142,11.845,11.845,0,0,0-3.209.566c-.221.151-.11.353.045.353s3.843-.288,5.124-.221a15.663,15.663,0,0,1,3.409.432c.862.266,3.151,1.4,4.057,1.688a4.85,4.85,0,0,0,1.855.4C252.641,76.754,253.06,76.643,252.731,76.289Z" transform="translate(250.224 3753.951)" fill="#3b1f10"/>
        <g id="Grupo_7708" data-name="Grupo 7708" transform="translate(515.767 3831.361)">
          <path id="Trazado_12013" data-name="Trazado 12013" d="M278.683,82.37a2.4,2.4,0,0,0,.8,1.049,2.524,2.524,0,0,0,1.665.364,1.911,1.911,0,0,0,1.581-1.1,4.189,4.189,0,0,0,.124-1.507,13.111,13.111,0,0,0-2.39-.182,15.966,15.966,0,0,0-2.026.673S278.611,82.218,278.683,82.37Z" transform="translate(-275.558 -79.232)" fill="#3b1f10"/>
          <path id="Trazado_12014" data-name="Trazado 12014" d="M281.248,81.933s-.124-.424.433-.469.929-.053.841.08-.513.176-.6.283a.53.53,0,0,1-.354.2.959.959,0,0,1-.318-.1Z" transform="translate(-276.239 -79.34)" fill="#fff"/>
          <path id="Trazado_12015" data-name="Trazado 12015" d="M279.884,82.712s.151-.292.3-.2.354.274.275.353a.5.5,0,0,1-.378.107C279.972,82.942,279.884,82.712,279.884,82.712Z" transform="translate(-275.91 -79.597)" fill="#fff"/>
          <path id="Trazado_12016" data-name="Trazado 12016" d="M281.3,83.647a.551.551,0,0,1,.4-.194,2.911,2.911,0,0,0,.788-.168c.07-.045.327-.186.327-.186a5.13,5.13,0,0,1-.655.584,1.351,1.351,0,0,1-.751.177C281.29,83.815,281.3,83.647,281.3,83.647Z" transform="translate(-276.254 -79.744)" fill="#fff"/>
          <path id="Trazado_12017" data-name="Trazado 12017" d="M284.3,82.294a5.259,5.259,0,0,1,1.195.218,1.74,1.74,0,0,0-.655-.437,2.436,2.436,0,0,0-.526-.076c.206-.168.393-.329.552-.475a2.17,2.17,0,0,1,.3-.019,10.117,10.117,0,0,1,1.232.189,2.428,2.428,0,0,0-.432-.272,3.22,3.22,0,0,0-.805-.184c.062-.064.115-.122.151-.166a4.087,4.087,0,0,0,.53-.3,1.514,1.514,0,0,0,.353-.55s-.39.353-.5.433a3.818,3.818,0,0,1-.479.238,1.413,1.413,0,0,1-.29,0,4.241,4.241,0,0,0,.515-.414c.169-.169.661-.852.661-.852s-.556.508-.681.605a6.229,6.229,0,0,1-.956.548c-.107-.034-.227-.076-.355-.116.115-.133.347-.4.449-.5a5.6,5.6,0,0,0,.605-.984s-.69.681-.894.841c-.141.111-.513.335-.728.462-.168-.052-.347-.1-.53-.151.1-.085.227-.194.329-.284.329.1.541.16.541.16s-.2-.076-.507-.19c.043-.038.08-.076.1-.093a3.131,3.131,0,0,0,.658-.924s-.726.628-.947.779c-.042.029-.106.064-.176.1-.227-.084-.489-.176-.761-.272a4.322,4.322,0,0,0,.454-.785s-.508.508-.7.7c-.278-.1-.561-.189-.832-.274.129-.271.247-.577.247-.577s-.221.268-.436.518c-.274-.083-.53-.155-.736-.2l.1-.2-.2.179c-.039-.008-.082-.018-.117-.024a4.052,4.052,0,0,0-2.464.145A5.164,5.164,0,0,0,275.2,80.94l-.081.1a13,13,0,0,1,2.182-1.518,4.526,4.526,0,0,1,2.412-.4c.065.006.151.02.246.037-.118.109-.227.213-.272.26a4.941,4.941,0,0,1-.739.64,6.34,6.34,0,0,0-1.034.278,6.671,6.671,0,0,0-2.7,1.944c-.14.151-.579.575-.579.575s1.068-.54,1.753-.959c.307-.188.707-.4,1.089-.592a7.864,7.864,0,0,1,1.852-.605,8,8,0,0,1,3.213.076c.923.14,1.414.265,1.414.265a8.539,8.539,0,0,1-1.392,1.656,7.768,7.768,0,0,1-2.894.972,11.324,11.324,0,0,1-3.027-.574,4.624,4.624,0,0,0-1.193-.044,12.827,12.827,0,0,0,3.379.888,6.658,6.658,0,0,0,1.129.028,1.848,1.848,0,0,1,.3.191,2.979,2.979,0,0,1,.333.325c-.592.042-1.112.036-1.112.036a6.007,6.007,0,0,0,1.266.132c.134.151.241.275.241.275s-.049-.126-.113-.278c.082,0,.164-.005.247-.012a5.131,5.131,0,0,0,.963-.2c.135.129.232.227.232.227s-.042-.11-.119-.264a6.236,6.236,0,0,0,.815-.318c.036-.017.071-.045.107-.065.123.138.215.254.215.254s-.067-.126-.158-.288a4.049,4.049,0,0,0,.832-.749c.227.129.435.256.435.256s-.151-.193-.325-.378c.277-.329.466-.605.466-.605s-.238.248-.543.53a2.072,2.072,0,0,0-.222-.2,3.4,3.4,0,0,0-.327-.191c.13-.1.259-.193.389-.293a2.6,2.6,0,0,1,.422-.048Zm-4.038-2.351c-.227,0-.462.017-.7.036a1.8,1.8,0,0,0,.363-.4c.033-.051.127-.222.219-.393.2.042.442.1.7.163-.042.046-.081.091-.116.128C280.586,79.629,280.4,79.815,280.266,79.943Zm.427.014a4.017,4.017,0,0,0,.327-.418c.023-.036.048-.08.076-.127.259.067.53.139.8.213a2.445,2.445,0,0,1-.562.378C281.125,79.983,280.913,79.967,280.693,79.957Zm1.709.217c-.181-.037-.378-.072-.576-.1.107-.107.126-.11.274-.27a.867.867,0,0,0,.076-.095c.27.076.53.148.757.214C282.757,80.011,282.543,80.11,282.4,80.174Zm-.7,4.146a6,6,0,0,1-.908.141,2.043,2.043,0,0,0-.161-.308,1.7,1.7,0,0,0-.209-.232,7.3,7.3,0,0,0,.826-.145,1.969,1.969,0,0,1,.245.151,4.97,4.97,0,0,1,.4.338c-.067.016-.127.036-.2.054Zm.392-.112a2.685,2.685,0,0,0-.3-.428,1.4,1.4,0,0,0-.12-.122c.193-.06.359-.12.484-.17.049-.02.118-.057.185-.092.123.076.258.157.363.227a1.964,1.964,0,0,1,.25.221,4.813,4.813,0,0,1-.863.365Zm1.656-1.115c.045.023.092.048.138.076l-.133.115a4.834,4.834,0,0,1-.692.5,3.093,3.093,0,0,0-.356-.542l-.045-.035c.166-.105.347-.227.542-.364.15.061.337.143.546.247Z" transform="translate(-274.632 -78.666)" fill="#3b1f10"/>
        </g>
        <path id="Trazado_12018" data-name="Trazado 12018" d="M246.961,82.332a2.408,2.408,0,0,0,.8,1.05,2.525,2.525,0,0,0,1.665.364,2.209,2.209,0,0,0,1.58-1.1c.48-.84.383-1.228.383-1.228a13.015,13.015,0,0,0-2.843-.582c-.584.1-2.262.291-2.262.291S246.89,82.18,246.961,82.332Z" transform="translate(248.033 3752.167)" fill="#3b1f10"/>
        <path id="Trazado_12019" data-name="Trazado 12019" d="M249.665,81.933s-.124-.424.434-.469.928-.053.84.08-.513.176-.6.283a.53.53,0,0,1-.354.2.958.958,0,0,1-.319-.1Z" transform="translate(247.213 3752.021)" fill="#fff"/>
        <path id="Trazado_12020" data-name="Trazado 12020" d="M248.3,82.712s.151-.292.3-.2.353.274.274.353a.493.493,0,0,1-.378.107C248.389,82.942,248.3,82.712,248.3,82.712Z" transform="translate(247.542 3751.764)" fill="#fff"/>
        <path id="Trazado_12021" data-name="Trazado 12021" d="M249.716,83.647a.551.551,0,0,1,.4-.194,2.9,2.9,0,0,0,.787-.168c.071-.045.328-.186.328-.186a5.131,5.131,0,0,1-.655.584,1.353,1.353,0,0,1-.752.177C249.7,83.815,249.716,83.647,249.716,83.647Z" transform="translate(247.198 3751.616)" fill="#fff"/>
        <path id="Trazado_12022" data-name="Trazado 12022" d="M243.479,82.342q.194.151.388.293a3.5,3.5,0,0,0-.327.191,2.148,2.148,0,0,0-.222.2c-.3-.279-.542-.53-.542-.53s.189.279.466.605c-.175.188-.326.378-.326.378s.205-.127.436-.256a4.064,4.064,0,0,0,.832.749c-.091.163-.158.288-.158.288s.092-.116.215-.254c.036.02.076.048.107.065a6.2,6.2,0,0,0,.816.318c-.076.151-.119.264-.119.264s.1-.1.232-.227a5.13,5.13,0,0,0,.963.2c.083.007.166.01.247.012-.064.151-.113.278-.113.278s.107-.126.241-.275a6.009,6.009,0,0,0,1.267-.132s-.52.006-1.113-.036a2.979,2.979,0,0,1,.333-.325,1.876,1.876,0,0,1,.3-.191,6.667,6.667,0,0,0,1.13-.028,12.816,12.816,0,0,0,3.378-.888,4.615,4.615,0,0,0-1.192.044,11.337,11.337,0,0,1-3.027.574,7.772,7.772,0,0,1-2.894-.972,8.568,8.568,0,0,1-1.386-1.647s.49-.125,1.414-.265a8,8,0,0,1,3.213-.076,7.87,7.87,0,0,1,1.852.605c.383.191.782.4,1.09.592.681.419,1.752.959,1.752.959s-.438-.426-.578-.575a6.671,6.671,0,0,0-2.7-1.944,6.384,6.384,0,0,0-1.034-.278,4.942,4.942,0,0,1-.739-.64c-.045-.048-.151-.151-.272-.26.095-.017.181-.031.246-.037a4.523,4.523,0,0,1,2.411.4,12.985,12.985,0,0,1,2.182,1.518l-.082-.1a4.229,4.229,0,0,0-2.154-1.958,4.85,4.85,0,0,0-2.69-.045c-.036.006-.076.016-.117.024l-.2-.179s.045.086.105.2c-.208.048-.462.12-.736.2-.215-.25-.437-.518-.437-.518s.119.3.247.577c-.269.085-.552.179-.832.274-.194-.19-.7-.7-.7-.7a4.346,4.346,0,0,0,.454.785c-.272.1-.53.188-.76.272-.07-.038-.135-.076-.176-.1-.221-.151-.947-.779-.947-.779a3.131,3.131,0,0,0,.661.919c.022.021.06.055.1.093-.307.114-.506.19-.506.19s.211-.064.541-.16c.1.089.227.2.329.284-.185.05-.364.1-.53.151-.214-.127-.586-.351-.727-.462-.2-.16-.894-.841-.894-.841a5.6,5.6,0,0,0,.605.984c.1.107.334.372.449.5-.128.042-.247.082-.355.116a6.23,6.23,0,0,1-.957-.548c-.125-.095-.681-.605-.681-.605s.491.681.66.852a4.361,4.361,0,0,0,.515.414,1.407,1.407,0,0,1-.289,0,3.761,3.761,0,0,1-.479-.238c-.107-.079-.5-.433-.5-.433a1.5,1.5,0,0,0,.353.55,4.079,4.079,0,0,0,.53.3c.038.044.09.1.151.166a3.221,3.221,0,0,0-.8.184,2.443,2.443,0,0,0-.433.272,10.111,10.111,0,0,1,1.233-.189,2.177,2.177,0,0,1,.3.019c.159.146.346.307.551.475a2.438,2.438,0,0,0-.525.076,1.74,1.74,0,0,0-.655.437,5.256,5.256,0,0,1,1.194-.218A2.61,2.61,0,0,1,243.479,82.342Zm3.158-2.863c-.034-.037-.076-.082-.115-.128.259-.065.5-.122.7-.163.092.171.185.342.219.393a1.8,1.8,0,0,0,.361.4c-.241-.02-.48-.036-.7-.036-.128-.127-.32-.313-.462-.465Zm-.6.53a2.446,2.446,0,0,1-.562-.378c.268-.076.538-.146.8-.213a1.41,1.41,0,0,0,.076.127,4.023,4.023,0,0,0,.327.418c-.222.006-.434.022-.637.045Zm-1.609-.087c.232-.067.488-.139.757-.214l.076.095c.148.16.167.163.275.27-.2.033-.395.067-.577.1-.137-.065-.35-.163-.53-.256Zm1.034,4.344a5.1,5.1,0,0,1,.406-.338,1.973,1.973,0,0,1,.245-.151,7.3,7.3,0,0,0,.826.145,1.745,1.745,0,0,0-.208.232,2.106,2.106,0,0,0-.162.308,6.028,6.028,0,0,1-.908-.142c-.071-.016-.132-.036-.2-.054Zm-1.059-.418a1.967,1.967,0,0,1,.25-.221c.1-.076.239-.155.363-.227a1.541,1.541,0,0,0,.184.092c.126.051.291.11.484.17a1.515,1.515,0,0,0-.12.122,2.7,2.7,0,0,0-.3.428,4.8,4.8,0,0,1-.858-.365Zm-.247-1c.2.138.378.259.542.364l-.045.035a3.1,3.1,0,0,0-.356.542,4.835,4.835,0,0,1-.692-.5c-.045-.038-.09-.076-.134-.115.048-.025.094-.05.139-.076.21-.1.4-.184.546-.247Z" transform="translate(249.325 3752.692)" fill="#3b1f10"/>
        <path id="Trazado_12048" data-name="Trazado 12048" d="M270.232,111.841a2.325,2.325,0,0,1-1.3.128,16.662,16.662,0,0,1-2.486-.945,5.731,5.731,0,0,0-2.661-.433c-.431.129-.662.314-.892.336a4.752,4.752,0,0,1-.881-.219,3.086,3.086,0,0,0-2.4.089,18.09,18.09,0,0,1-2.951,1.079,3.354,3.354,0,0,1-.916.045.312.312,0,0,0-.324.417,11.9,11.9,0,0,0,3.456,3.721,7.239,7.239,0,0,0,3.708.591h.628a7.253,7.253,0,0,0,3.708-.591,11.906,11.906,0,0,0,3.456-3.721C270.477,112.158,270.415,111.712,270.232,111.841Zm-13.045.4c.662-.216,1.826-.828,2.623-1.082a3.1,3.1,0,0,1,1.438-.238,16.69,16.69,0,0,0,1.677.416c.681-.011.953-.354,1.489-.309a7.426,7.426,0,0,1,1.884.459c.791.269,1.731.664,2.393.882.12.039.349.293-.105.335-.539.051-1.34.084-2.59.111-1.124.024-2.043.412-3.062.4-.956-.008-2.191-.383-3.143-.4-1.25-.027-2.051-.061-2.59-.111-.449-.042-.135-.424-.013-.462Zm12,.969a5.217,5.217,0,0,1-.535.778,7.59,7.59,0,0,1-1.887,1.688,7.939,7.939,0,0,1-3.832.552h-.081a7.936,7.936,0,0,1-3.831-.552,7.6,7.6,0,0,1-1.888-1.688,5.265,5.265,0,0,1-.535-.778c-.065-.121-.009-.321.214-.266a11.945,11.945,0,0,0,2.294.266,29.484,29.484,0,0,1,3.38.552,2.193,2.193,0,0,0,.365.017h.081a2.19,2.19,0,0,0,.365-.017,29.466,29.466,0,0,1,3.381-.552,11.934,11.934,0,0,0,2.294-.266c.225-.055.28.145.215.266Z" transform="translate(245.814 3744.947)" fill="#3b1f10"/>
        <path id="Trazado_12049" data-name="Trazado 12049" d="M230.585,88.285a8.582,8.582,0,0,0,.544,4.2,19.247,19.247,0,0,0,2.448,4.169,1.211,1.211,0,0,0,1.948-.619c.163-.454-.319-1.76-.771-3.6a43.443,43.443,0,0,0-1.362-5.273,1.569,1.569,0,0,0-2.807,1.118Z" transform="translate(251.856 3750.776)" fill="#fff" stroke="#411906" stroke-linecap="round" stroke-linejoin="round" stroke-width="1.866"/>
        <path id="Trazado_12050" data-name="Trazado 12050" d="M299.407,88.285a8.582,8.582,0,0,1-.544,4.2,19.308,19.308,0,0,1-2.448,4.169,1.211,1.211,0,0,1-1.948-.619c-.163-.454.319-1.76.77-3.6a43.581,43.581,0,0,1,1.362-5.273,1.569,1.569,0,0,1,2.808,1.118Z" transform="translate(236.317 3750.777)" fill="#fff" stroke="#411906" stroke-linecap="round" stroke-linejoin="round" stroke-width="1.866"/>
        <path id="Trazado_12051" data-name="Trazado 12051" d="M232.779,109.04c.9,6.647.478,20.136-.24,23.549s-2.625,4.608-2.625,4.608a41.276,41.276,0,0,0,1.8-5.569c1.145-5.537.975-19.87.587-22.347C231.4,103.535,231.878,102.4,232.779,109.04Z" transform="translate(252.016 3746.409)" fill="#fff"/>
        <path id="Trazado_12052" data-name="Trazado 12052" d="M301.013,101.185s.7,14.817,1.958,19.667c2.222,8.569,2.043,9.972,5.407,19.134a89.916,89.916,0,0,1-6.368-20.456C299.727,105.113,301.013,101.185,301.013,101.185Z" transform="translate(234.805 3747.216)" fill="#fff"/>
        <path id="Trazado_12053" data-name="Trazado 12053" d="M224,92.245s-2.284,20.185-3.124,26.673,0,18.382,0,18.382.36-12.855.721-18.022S224,92.245,224,92.245Z" transform="translate(254.307 3749.391)" fill="#fff"/>
        <path id="Trazado_12054" data-name="Trazado 12054" d="M286.722,45.228s5.681,8.591,7.491,14.631c1.135,3.8,2.178,13.5,2.178,13.5s-.963-10.972-1.777-14.015a33.43,33.43,0,0,0-7.892-14.115Z" transform="translate(238.194 3760.83)" fill="#fff"/>
        <path id="Trazado_12055" data-name="Trazado 12055" d="M296.8,152.7s1.5,11.729-.044,20.052c-2.207,11.88-5.965,17.044-11.111,26.635-5.377,10.018-14.025,20.362-14.025,20.362,10.268,5.6,15.966,8.065,21.055,8.8a20.456,20.456,0,0,0,18.631-7.235c2.783-3.621,4.137-9.373,2.541-17.106-1.779-8.619-9.069-15.9-12.749-29.77-1.689-6.366-2.1-20.782-2.1-20.782Z" transform="translate(241.87 3734.681)" fill="#3b1f10"/>
        <path id="Trazado_12056" data-name="Trazado 12056" d="M219.656,152.7s-1.5,11.729.044,20.052c2.207,11.88,5.965,17.044,11.111,26.635,5.377,10.018,15.425,20.362,15.425,20.362-10.268,5.6-17.366,8.065-22.455,8.8a20.456,20.456,0,0,1-18.631-7.235c-2.783-3.621-3.121-7.1-1.8-15.8s8.324-17.208,12.006-31.077c1.689-6.366,2.1-20.782,2.1-20.782Z" transform="translate(258.66 3734.681)" fill="#3b1f10"/>
        <path id="Trazado_12057" data-name="Trazado 12057" d="M302.026,342.214a21.82,21.82,0,0,0-2.451-5.587s-11.6,2.724-24.759,4.349a228.617,228.617,0,0,1-25.32,1.171v-.025s-.563.01-1.548.017c-.984-.008-1.548-.017-1.548-.017v.025a228.618,228.618,0,0,1-25.32-1.171c-13.159-1.625-24.759-4.349-24.759-4.349a21.821,21.821,0,0,0-2.451,5.587,18.7,18.7,0,0,0-.732,3.463s4.244.67,11.551,4.137a87.945,87.945,0,0,1,22.329,15.347c3.793,3.569,7.274,6.7,14.067,17.758,1.877,3.055,3.42,8.881,3.42,8.881s.917.573,3.721.509,3.451-.659,3.451-.659a39.494,39.494,0,0,1,3.3-8.378c6.794-11.06,10.115-14.542,13.907-18.111a87.945,87.945,0,0,1,22.329-15.347c7.307-3.467,11.551-4.137,11.551-4.137A18.706,18.706,0,0,0,302.026,342.214Z" transform="translate(260.964 3689.93)" fill="#3b1f10"/>
        <path id="Trazado_12058" data-name="Trazado 12058" d="M255.041,240.183a28.8,28.8,0,0,1,4.814-.818,24.446,24.446,0,0,1,7.932.666c1.967.6,3.089,1.059,3.089,1.059l-.484,1.271a37.454,37.454,0,0,0-4.843-1.059,31.085,31.085,0,0,0-7.113-.03c-1.429.163-5.208.969-5.208.969l-.454-1.483Z" transform="translate(246.454 3713.614)" fill="#3b1f10"/>
      </g>
    </g>
    <path id="Trazado_13405" data-name="Trazado 13405" d="M0,0H193V3.027H0Z" transform="translate(490 5618.203)" fill="#895cd8"/>
    <path id="Trazado_13405-2" data-name="Trazado 13405" d="M0,0H193V3.027H0Z" transform="translate(490 5378.672)" fill="#895cd8"/>
    <path id="Trazado_12060" data-name="Trazado 12060" d="M6541.919,2684.67s33.393,15.353,78.333,0" transform="translate(-5995.252 2798.474)" fill="none" stroke="#ea3065" stroke-width="2" stroke-dasharray="3"/>
  </g>
</svg>
