<svg xmlns="http://www.w3.org/2000/svg" width="226" height="116" viewBox="0 0 226 116">
  <g id="Grupo_53651" data-name="Grupo 53651" transform="translate(-383 -513)">
    <rect id="Rectángulo_4963" data-name="Rectángulo 4963" width="226" height="116" transform="translate(383 513)" fill="#fffae9"/>
    <path id="Trazado_100270" data-name="Trazado 100270" d="M0,0H159" transform="translate(416.5 598.5)" fill="none" stroke="#895cd8" stroke-linecap="round" stroke-width="5"/>
    <path id="Trazado_100268" data-name="Trazado 100268" d="M0,0H159" transform="translate(416.5 554)" fill="none" stroke="#895cd8" stroke-linecap="round" stroke-width="5"/>
    <path id="Trazado_100267" data-name="Trazado 100267" d="M13.169,0h-2.4V-2.344h-.059A5.029,5.029,0,0,1,6.094.352,4.931,4.931,0,0,1,2.585-.835,4.111,4.111,0,0,1,1.318-3.984q0-4.2,4.951-4.893l4.5-.63q0-3.823-3.091-3.823a7.384,7.384,0,0,0-4.893,1.846v-2.461a9.3,9.3,0,0,1,5.1-1.406q5.288,0,5.288,5.6Zm-2.4-7.588-3.618.5a5.874,5.874,0,0,0-2.52.828,2.387,2.387,0,0,0-.85,2.1,2.289,2.289,0,0,0,.784,1.794,3.028,3.028,0,0,0,2.087.7A3.856,3.856,0,0,0,9.6-2.922a4.475,4.475,0,0,0,1.165-3.171Z" transform="translate(488 542)" fill="#12263f"/>
    <path id="Trazado_100269" data-name="Trazado 100269" d="M4.893-2.168H4.834V0h-2.4V-22.207h2.4v9.844h.059a5.681,5.681,0,0,1,5.186-2.988A5.5,5.5,0,0,1,14.6-13.337a8.317,8.317,0,0,1,1.633,5.4A9.3,9.3,0,0,1,14.4-1.912,6.1,6.1,0,0,1,9.39.352,4.934,4.934,0,0,1,4.893-2.168Zm-.059-6.05v2.095A4.46,4.46,0,0,0,6.042-2.966a4.013,4.013,0,0,0,3.069,1.3,4.021,4.021,0,0,0,3.42-1.67A7.661,7.661,0,0,0,13.77-7.983a6.048,6.048,0,0,0-1.157-3.926A3.83,3.83,0,0,0,9.478-13.33a4.256,4.256,0,0,0-3.369,1.458A5.352,5.352,0,0,0,4.834-8.218Z" transform="translate(488 587)" fill="#12263f"/>
  </g>
</svg>
