<svg xmlns="http://www.w3.org/2000/svg" width="628" height="316" viewBox="0 0 628 316">
  <g id="Grupo_53648" data-name="Grupo 53648" transform="translate(-139 -1190)">
    <g id="Grupo_20630" data-name="Grupo 20630" transform="translate(139 1190)">
      <g id="BACKGROUND" transform="translate(0)">
        <rect id="Rectángulo_577" data-name="Rectángulo 577" width="628" height="316" transform="translate(0)" fill="#fcf6ff"/>
      </g>
    </g>
    <path id="Trazado_100255" data-name="Trazado 100255" d="M116,0A116,116,0,1,1,0,116,116,116,0,0,1,116,0Z" transform="translate(200 1232)" fill="#fff"/>
    <path id="Trazado_100256" data-name="Trazado 100256" d="M0,0H263V67H0Z" transform="translate(465 1315)" fill="#fff"/>
    <path id="Trazado_100257" data-name="Trazado 100257" d="M0,0H141V67H0Z" transform="translate(465 1315)" fill="#895cd8"/>
    <path id="Trazado_98674" data-name="Trazado 98674" d="M116,0V232A116,116,0,0,1,116,0Z" transform="translate(200 1232)" fill="#895cd8"/>
    <path id="Trazado_100258" data-name="Trazado 100258" d="M9.832,0H5.871V-13.676H2.438V-16.7l7.395-.609Zm7.723,1.465h-4l5.824-18.527h4ZM36.445,0H24.586V-2.578l5.25-5.766a11.337,11.337,0,0,0,1.547-2.133,3.626,3.626,0,0,0,.492-1.629,2.527,2.527,0,0,0-.445-1.576,1.689,1.689,0,0,0-1.43-.58,1.633,1.633,0,0,0-1.436.756,3.378,3.378,0,0,0-.51,1.928H24.176l-.023-.07a5.312,5.312,0,0,1,1.559-4.014A5.741,5.741,0,0,1,30-17.309a6.227,6.227,0,0,1,4.324,1.377,4.851,4.851,0,0,1,1.523,3.791A5,5,0,0,1,35-9.275,35.79,35.79,0,0,1,31.91-5.59L29.836-3.105l.023.059h6.586Z" transform="translate(240 1353)" fill="#fff"/>
    <path id="Trazado_100259" data-name="Trazado 100259" d="M9.832,0H5.871V-13.676H2.438V-16.7l7.395-.609Zm7.723,1.465h-4l5.824-18.527h4ZM36.445,0H24.586V-2.578l5.25-5.766a11.337,11.337,0,0,0,1.547-2.133,3.626,3.626,0,0,0,.492-1.629,2.527,2.527,0,0,0-.445-1.576,1.689,1.689,0,0,0-1.43-.58,1.633,1.633,0,0,0-1.436.756,3.378,3.378,0,0,0-.51,1.928H24.176l-.023-.07a5.312,5.312,0,0,1,1.559-4.014A5.741,5.741,0,0,1,30-17.309a6.227,6.227,0,0,1,4.324,1.377,4.851,4.851,0,0,1,1.523,3.791A5,5,0,0,1,35-9.275,35.79,35.79,0,0,1,31.91-5.59L29.836-3.105l.023.059h6.586Z" transform="translate(344 1353)" fill="#12263f"/>
    <path id="Trazado_100261" data-name="Trazado 100261" d="M9.832,0H5.871V-13.676H2.438V-16.7l7.395-.609Zm7.723,1.465h-4l5.824-18.527h4ZM36.445,0H24.586V-2.578l5.25-5.766a11.337,11.337,0,0,0,1.547-2.133,3.626,3.626,0,0,0,.492-1.629,2.527,2.527,0,0,0-.445-1.576,1.689,1.689,0,0,0-1.43-.58,1.633,1.633,0,0,0-1.436.756,3.378,3.378,0,0,0-.51,1.928H24.176l-.023-.07a5.312,5.312,0,0,1,1.559-4.014A5.741,5.741,0,0,1,30-17.309a6.227,6.227,0,0,1,4.324,1.377,4.851,4.851,0,0,1,1.523,3.791A5,5,0,0,1,35-9.275,35.79,35.79,0,0,1,31.91-5.59L29.836-3.105l.023.059h6.586Z" transform="translate(654 1353)" fill="#12263f"/>
    <path id="Trazado_100260" data-name="Trazado 100260" d="M9.832,0H5.871V-13.676H2.438V-16.7l7.395-.609Zm7.723,1.465h-4l5.824-18.527h4ZM36.445,0H24.586V-2.578l5.25-5.766a11.337,11.337,0,0,0,1.547-2.133,3.626,3.626,0,0,0,.492-1.629,2.527,2.527,0,0,0-.445-1.576,1.689,1.689,0,0,0-1.43-.58,1.633,1.633,0,0,0-1.436.756,3.378,3.378,0,0,0-.51,1.928H24.176l-.023-.07a5.312,5.312,0,0,1,1.559-4.014A5.741,5.741,0,0,1,30-17.309a6.227,6.227,0,0,1,4.324,1.377,4.851,4.851,0,0,1,1.523,3.791A5,5,0,0,1,35-9.275,35.79,35.79,0,0,1,31.91-5.59L29.836-3.105l.023.059h6.586Z" transform="translate(517 1353)" fill="#fff"/>
  </g>
</svg>
