<svg xmlns="http://www.w3.org/2000/svg" width="720" height="346.316" viewBox="0 0 720 346.316">
  <g id="Grupo_53658" data-name="Grupo 53658" transform="translate(-471 -229)">
    <path id="dylan-shaw-UxyWwU6n_ts-unsplash" d="M0,0H720V346.316H0Z" transform="translate(471 229)" fill="#7b1fa2"/>
    <g id="Grupo_21018" data-name="Grupo 21018" transform="translate(512.438 89.021)">
      <path id="Trazado_99593" data-name="Trazado 99593" d="M427.508,207.979,210.563,417.69H427.508" transform="translate(0 0)" fill="none" stroke="#fff" stroke-linecap="round" stroke-linejoin="round" stroke-width="10"/>
      <path id="Trazado_99594" data-name="Trazado 99594" d="M257.763,259.928a140.629,140.629,0,0,1,39.647,98.06" transform="translate(54.244 59.701)" fill="none" stroke="#fff" stroke-miterlimit="10" stroke-width="10"/>
    </g>
    <path id="Trazado_100274" data-name="Trazado 100274" d="M11.543-6.668h1.723V-3.6H11.543V0H7.582V-3.6H.8L.563-6.035l7.02-10.992v-.035h3.961Zm-7.582,0H7.582v-5.309l-.07-.012-.434.879ZM15.316-7.5l.984-9.562h10v3.07H19.512l-.434,3.551a4,4,0,0,1,1.225-.551,6.583,6.583,0,0,1,1.623-.234,4.424,4.424,0,0,1,3.662,1.459A6.4,6.4,0,0,1,26.871-5.5a6.013,6.013,0,0,1-1.43,4.107,5.676,5.676,0,0,1-4.5,1.635,7.1,7.1,0,0,1-4.236-1.283A3.807,3.807,0,0,1,14.977-4.43l.012-.07,3.879-.234a1.818,1.818,0,0,0,.568,1.418,2.155,2.155,0,0,0,1.506.516,1.689,1.689,0,0,0,1.535-.668,3.723,3.723,0,0,0,.434-2,4.17,4.17,0,0,0-.5-2.215A1.74,1.74,0,0,0,20.813-8.5a2.175,2.175,0,0,0-1.271.34,1.768,1.768,0,0,0-.674.855Zm13.945-6.527a3.177,3.177,0,0,1,.967-2.32,3.162,3.162,0,0,1,2.326-.973,3.065,3.065,0,0,1,2.273.973,3.207,3.207,0,0,1,.949,2.32,3.123,3.123,0,0,1-.949,2.3,3.111,3.111,0,0,1-2.273.943,3.211,3.211,0,0,1-2.326-.943A3.1,3.1,0,0,1,29.262-14.027Zm1.816,0a1.378,1.378,0,0,0,.434,1.037,1.453,1.453,0,0,0,1.043.416,1.37,1.37,0,0,0,1.008-.41,1.413,1.413,0,0,0,.41-1.043,1.493,1.493,0,0,0-.41-1.066,1.333,1.333,0,0,0-1.008-.434,1.422,1.422,0,0,0-1.043.434A1.449,1.449,0,0,0,31.078-14.027Z" transform="translate(902.945 441.482)" fill="#fff"/>
  </g>
</svg>
