<svg xmlns="http://www.w3.org/2000/svg" width="720" height="346.316" viewBox="0 0 720 346.316">
  <g id="Grupo_53659" data-name="Grupo 53659" transform="translate(-471 -624)">
    <path id="dylan-shaw-UxyWwU6n_ts-unsplash" d="M0,0H720V346.316H0Z" transform="translate(471 624)" fill="#7b1fa2"/>
    <path id="Trazado_100276" data-name="Trazado 100276" d="M9.832,0H5.871V-13.676H2.438V-16.7l7.395-.609ZM25.441-6.668h1.723V-3.6H25.441V0H21.48V-3.6H14.7l-.234-2.437,7.02-10.992v-.035h3.961Zm-7.582,0H21.48v-5.309l-.07-.012-.434.879Zm22.828.4a6.7,6.7,0,0,1-1.629,4.787,5.634,5.634,0,0,1-4.3,1.729,5.663,5.663,0,0,1-4.324-1.729A6.7,6.7,0,0,1,28.8-6.27v-4.523a6.733,6.733,0,0,1,1.617-4.787,5.625,5.625,0,0,1,4.313-1.729,5.662,5.662,0,0,1,4.313,1.734,6.678,6.678,0,0,1,1.641,4.781Zm-3.949-4.793a4.38,4.38,0,0,0-.533-2.379,1.666,1.666,0,0,0-1.471-.82,1.635,1.635,0,0,0-1.465.82,4.5,4.5,0,0,0-.516,2.379v5.039a4.509,4.509,0,0,0,.521,2.408,1.661,1.661,0,0,0,1.482.814,1.642,1.642,0,0,0,1.459-.814,4.509,4.509,0,0,0,.521-2.408Zm6.422-2.965a3.177,3.177,0,0,1,.967-2.32,3.162,3.162,0,0,1,2.326-.973,3.065,3.065,0,0,1,2.273.973,3.207,3.207,0,0,1,.949,2.32,3.123,3.123,0,0,1-.949,2.3,3.111,3.111,0,0,1-2.273.943,3.211,3.211,0,0,1-2.326-.943A3.1,3.1,0,0,1,43.16-14.027Zm1.816,0a1.378,1.378,0,0,0,.434,1.037,1.453,1.453,0,0,0,1.043.416,1.37,1.37,0,0,0,1.008-.41,1.413,1.413,0,0,0,.41-1.043,1.493,1.493,0,0,0-.41-1.066,1.333,1.333,0,0,0-1.008-.434,1.422,1.422,0,0,0-1.043.434A1.449,1.449,0,0,0,44.977-14.027Z" transform="translate(877.445 889.482)" fill="#fff"/>
    <path id="Trazado_100275" data-name="Trazado 100275" d="M9.832,0H5.871V-13.676H2.438V-16.7l7.395-.609Zm10.84-10.184a2.22,2.22,0,0,0,1.641-.574,2.154,2.154,0,0,0,.574-1.594,1.8,1.8,0,0,0-.586-1.354,2.2,2.2,0,0,0-1.582-.557,1.907,1.907,0,0,0-1.271.439,1.436,1.436,0,0,0-.521,1.154H15.082l-.023-.07a3.779,3.779,0,0,1,1.6-3.3,6.527,6.527,0,0,1,4.061-1.266,7.157,7.157,0,0,1,4.447,1.271,4.263,4.263,0,0,1,1.67,3.6,3.562,3.562,0,0,1-.7,2.133,4.8,4.8,0,0,1-1.91,1.535,4.47,4.47,0,0,1,2.133,1.518,4.032,4.032,0,0,1,.75,2.467,4.347,4.347,0,0,1-1.8,3.686A7.467,7.467,0,0,1,20.719.246a7.078,7.078,0,0,1-4.2-1.26A4.061,4.061,0,0,1,14.8-4.664l.023-.07H18.68a1.836,1.836,0,0,0,.574,1.383,2.03,2.03,0,0,0,1.465.551,2.585,2.585,0,0,0,1.752-.592,1.865,1.865,0,0,0,.686-1.471,2.285,2.285,0,0,0-.65-1.811,2.7,2.7,0,0,0-1.834-.568H18.8v-2.941ZM40.688-6.27a6.7,6.7,0,0,1-1.629,4.787,5.634,5.634,0,0,1-4.3,1.729,5.663,5.663,0,0,1-4.324-1.729A6.7,6.7,0,0,1,28.8-6.27v-4.523a6.733,6.733,0,0,1,1.617-4.787,5.625,5.625,0,0,1,4.313-1.729,5.662,5.662,0,0,1,4.313,1.734,6.678,6.678,0,0,1,1.641,4.781Zm-3.949-4.793a4.38,4.38,0,0,0-.533-2.379,1.666,1.666,0,0,0-1.471-.82,1.635,1.635,0,0,0-1.465.82,4.5,4.5,0,0,0-.516,2.379v5.039a4.509,4.509,0,0,0,.521,2.408,1.661,1.661,0,0,0,1.482.814,1.642,1.642,0,0,0,1.459-.814,4.509,4.509,0,0,0,.521-2.408Zm6.422-2.965a3.177,3.177,0,0,1,.967-2.32,3.162,3.162,0,0,1,2.326-.973,3.065,3.065,0,0,1,2.273.973,3.207,3.207,0,0,1,.949,2.32,3.123,3.123,0,0,1-.949,2.3,3.111,3.111,0,0,1-2.273.943,3.211,3.211,0,0,1-2.326-.943A3.1,3.1,0,0,1,43.16-14.027Zm1.816,0a1.378,1.378,0,0,0,.434,1.037,1.453,1.453,0,0,0,1.043.416,1.37,1.37,0,0,0,1.008-.41,1.413,1.413,0,0,0,.41-1.043,1.493,1.493,0,0,0-.41-1.066,1.333,1.333,0,0,0-1.008-.434,1.422,1.422,0,0,0-1.043.434A1.449,1.449,0,0,0,44.977-14.027Z" transform="translate(877.445 751.01)" fill="#fff"/>
    <g id="Grupo_21022" data-name="Grupo 21022" transform="translate(531.798 235.823)">
      <path id="Trazado_99595" data-name="Trazado 99595" d="M163.942,355.177l97.073,117.98H437.963" transform="translate(8.087 75)" fill="none" stroke="#fff" stroke-linecap="round" stroke-linejoin="round" stroke-width="10"/>
      <path id="Trazado_99596" data-name="Trazado 99596" d="M153.2,483.849,269.1,583H446.05" transform="translate(0 108.763)" fill="none" stroke="#fff" stroke-linecap="round" stroke-linejoin="round" stroke-width="10"/>
      <path id="Trazado_99597" data-name="Trazado 99597" d="M196.175,400.78a64.269,64.269,0,0,1,105.491,49.306" transform="translate(32.358 98.072)" fill="none" stroke="#fff" stroke-linecap="round" stroke-linejoin="round" stroke-width="10"/>
      <path id="Trazado_99598" data-name="Trazado 99598" d="M189,524.136c15.772-15.787,33.92-22.486,53.8-22.486a64.267,64.267,0,0,1,64.266,64.266" transform="translate(26.958 122.167)" fill="none" stroke="#fff" stroke-linecap="round" stroke-linejoin="round" stroke-width="10"/>
    </g>
  </g>
</svg>
