<svg xmlns="http://www.w3.org/2000/svg" width="1088" height="466.235" viewBox="0 0 1088 466.235">
  <g id="Grupo_53650" data-name="Grupo 53650" transform="translate(-84.471 -142.294)">
    <rect id="Rectángulo_592" data-name="Rectángulo 592" width="1088" height="466.235" transform="translate(84.471 142.294)" fill="#fff4d3"/>
    <g id="Trazado_98676" data-name="Trazado 98676" fill="#fcf6ff" stroke-linecap="round" stroke-miterlimit="10">
      <path d="M 892.0910034179688 580.323974609375 L 346.9349975585938 580.323974609375 C 342.0464172363281 580.323974609375 337.450439453125 578.420166015625 333.9935607910156 574.96337890625 C 330.5367736816406 571.5065307617188 328.6329956054688 566.9105224609375 328.6329956054688 562.02197265625 L 328.6329956054688 260.3349609375 L 410.0270080566406 260.3349609375 L 410.0270080566406 305.3340454101563 L 410.0270080566406 306.3340454101563 L 411.0270080566406 306.3340454101563 L 493.4209899902344 306.3340454101563 L 493.4209899902344 351.3319702148438 L 493.4209899902344 352.3319702148438 L 494.4209899902344 352.3319702148438 L 576.8159790039063 352.3319702148438 L 576.8159790039063 397.3309631347656 L 576.8159790039063 398.3309631347656 L 577.8159790039063 398.3309631347656 L 660.2100219726563 398.3309631347656 L 660.2100219726563 443.3290405273438 L 660.2100219726563 444.3290405273438 L 661.2100219726563 444.3290405273438 L 743.60498046875 444.3290405273438 L 743.60498046875 489.3280334472656 L 743.60498046875 490.3280334472656 L 744.60498046875 490.3280334472656 L 826.9990234375 490.3280334472656 L 826.9990234375 535.3259887695313 L 826.9990234375 536.3259887695313 L 827.9990234375 536.3259887695313 L 910.3930053710938 536.3259887695313 L 910.3930053710938 562.02197265625 C 910.3930053710938 566.9105224609375 908.4891967773438 571.5065307617188 905.0324096679688 574.96337890625 C 901.5755615234375 578.420166015625 896.9795532226563 580.323974609375 892.0910034179688 580.323974609375 Z" stroke="none"/>
      <path d="M 892.0910034179688 579.3240356445313 C 896.7124633789063 579.3240356445313 901.0573120117188 577.5242309570313 904.3253173828125 574.2562866210938 C 907.59326171875 570.9883422851563 909.3930053710938 566.6434936523438 909.3930053710938 562.0220336914063 L 909.3930053710938 537.3259887695313 L 827.9990234375 537.3259887695313 L 825.9990234375 537.3259887695313 L 825.9990234375 535.3259887695313 L 825.9990234375 491.3280029296875 L 744.60498046875 491.3280029296875 L 742.60498046875 491.3280029296875 L 742.60498046875 489.3280029296875 L 742.60498046875 445.3290100097656 L 661.2100219726563 445.3290100097656 L 659.2100219726563 445.3290100097656 L 659.2100219726563 443.3290100097656 L 659.2100219726563 399.3309936523438 L 577.8159790039063 399.3309936523438 L 575.8159790039063 399.3309936523438 L 575.8159790039063 397.3309936523438 L 575.8159790039063 353.3320007324219 L 494.4209899902344 353.3320007324219 L 492.4209899902344 353.3320007324219 L 492.4209899902344 351.3320007324219 L 492.4209899902344 307.3340148925781 L 411.0270080566406 307.3340148925781 L 409.0270080566406 307.3340148925781 L 409.0270080566406 305.3340148925781 L 409.0270080566406 261.3349914550781 L 329.6329956054688 261.3349914550781 L 329.6329956054688 562.0220336914063 C 329.6329956054688 566.6434936523438 331.4327697753906 570.9883422851563 334.70068359375 574.2562866210938 C 337.9686889648438 577.5242309570313 342.3135375976563 579.3240356445313 346.9349975585938 579.3240356445313 L 892.0910034179688 579.3240356445313 M 892.0910034179688 581.3240356445313 L 346.9349975585938 581.3240356445313 C 336.2749938964844 581.3240356445313 327.6329956054688 572.6820068359375 327.6329956054688 562.0220336914063 L 327.6329956054688 259.3349914550781 L 411.0270080566406 259.3349914550781 L 411.0270080566406 305.3340148925781 L 494.4209899902344 305.3340148925781 L 494.4209899902344 351.3320007324219 L 577.8159790039063 351.3320007324219 L 577.8159790039063 397.3309936523438 L 661.2100219726563 397.3309936523438 L 661.2100219726563 443.3290100097656 L 744.60498046875 443.3290100097656 L 744.60498046875 489.3280029296875 L 827.9990234375 489.3280029296875 L 827.9990234375 535.3259887695313 L 911.3930053710938 535.3259887695313 L 911.3930053710938 562.0220336914063 C 911.3930053710938 572.6820068359375 902.7509765625 581.3240356445313 892.0910034179688 581.3240356445313 Z" stroke="none" fill="#ffd54f"/>
    </g>
    <g id="Elipse_3950" data-name="Elipse 3950" transform="translate(337.103 203.467)" fill="#d8ffeb" stroke="#1f8551" stroke-miterlimit="10" stroke-width="2">
      <ellipse cx="34.552" cy="25.594" rx="34.552" ry="25.594" stroke="none"/>
      <ellipse cx="34.552" cy="25.594" rx="35.552" ry="26.594" fill="none"/>
    </g>
    <g id="Elipse_3951" data-name="Elipse 3951" transform="translate(417.562 250.001)" fill="#d8ffeb" stroke="#1f8551" stroke-miterlimit="10" stroke-width="2">
      <ellipse cx="34.552" cy="25.594" rx="34.552" ry="25.594" stroke="none"/>
      <ellipse cx="34.552" cy="25.594" rx="33.552" ry="24.594" fill="none"/>
    </g>
    <g id="Elipse_3952" data-name="Elipse 3952" transform="translate(501.646 296.535)" fill="#d8ffeb" stroke="#1f8551" stroke-miterlimit="10" stroke-width="2">
      <ellipse cx="34.552" cy="25.594" rx="34.552" ry="25.594" stroke="none"/>
      <ellipse cx="34.552" cy="25.594" rx="33.552" ry="24.594" fill="none"/>
    </g>
    <g id="Elipse_3953" data-name="Elipse 3953" transform="translate(584.522 343.069)" fill="#cbeaff" stroke="#2898e2" stroke-miterlimit="10" stroke-width="2">
      <ellipse cx="34.552" cy="25.594" rx="34.552" ry="25.594" stroke="none"/>
      <ellipse cx="34.552" cy="25.594" rx="33.552" ry="24.594" fill="none"/>
    </g>
    <g id="Elipse_3954" data-name="Elipse 3954" transform="translate(675.858 387.186)" fill="#ffe8e8" stroke="#e863c9" stroke-miterlimit="10" stroke-width="2">
      <ellipse cx="34.552" cy="25.594" rx="34.552" ry="25.594" stroke="none"/>
      <ellipse cx="34.552" cy="25.594" rx="33.552" ry="24.594" fill="none"/>
    </g>
    <g id="Elipse_3955" data-name="Elipse 3955" transform="translate(756.316 433.719)" fill="#ffe8e8" stroke="#e863c9" stroke-miterlimit="10" stroke-width="2">
      <ellipse cx="34.552" cy="25.594" rx="34.552" ry="25.594" stroke="none"/>
      <ellipse cx="34.552" cy="25.594" rx="33.552" ry="24.594" fill="none"/>
    </g>
    <g id="Elipse_3956" data-name="Elipse 3956" transform="translate(836.775 480.253)" fill="#ffe8e8" stroke="#e863c9" stroke-miterlimit="10" stroke-width="2">
      <ellipse cx="34.552" cy="25.594" rx="34.552" ry="25.594" stroke="none"/>
      <ellipse cx="34.552" cy="25.594" rx="33.552" ry="24.594" fill="none"/>
    </g>
    <g id="Grupo_20637" data-name="Grupo 20637">
      <g id="Grupo_20635" data-name="Grupo 20635">
        <path id="Trazado_98677" data-name="Trazado 98677" d="M837.115,562.295a45.72,45.72,0,0,1-29.68-10.414c-10.443-8.83-16.29-22.268-17.382-39.94a1,1,0,0,1,2-.123c2.267,36.713,25.532,49.135,46.6,48.453,14.3-.442,26.387-7.242,26.387-14.849a1,1,0,0,1,2,0c0,8.807-12.706,16.366-28.325,16.848C838.178,562.286,837.645,562.295,837.115,562.295Z" fill="#afafaf"/>
      </g>
      <g id="Grupo_20636" data-name="Grupo 20636">
        <path id="Trazado_98678" data-name="Trazado 98678" d="M790.868,505.848a30.262,30.262,0,0,0,5.036,8.385l-4.81-1.562-4.7,1.876A30.173,30.173,0,0,0,790.868,505.848Z" fill="#afafaf"/>
      </g>
    </g>
    <g id="Grupo_20640" data-name="Grupo 20640">
      <g id="Grupo_20638" data-name="Grupo 20638">
        <path id="Trazado_98679" data-name="Trazado 98679" d="M750.671,513.632a45.72,45.72,0,0,1-29.68-10.414c-10.442-8.83-16.291-22.268-17.383-39.94a1,1,0,0,1,2-.123c2.269,36.715,25.536,49.122,46.6,48.452,14.3-.441,26.386-7.241,26.386-14.848a1,1,0,0,1,2,0c0,8.807-12.706,16.366-28.324,16.847Q751.466,513.631,750.671,513.632Z" fill="#afafaf"/>
      </g>
      <g id="Grupo_20639" data-name="Grupo 20639">
        <path id="Trazado_98680" data-name="Trazado 98680" d="M704.425,457.184a30.226,30.226,0,0,0,5.035,8.386l-4.81-1.562-4.7,1.876A30.193,30.193,0,0,0,704.425,457.184Z" fill="#afafaf"/>
      </g>
    </g>
    <g id="Grupo_20643" data-name="Grupo 20643">
      <g id="Grupo_20641" data-name="Grupo 20641">
        <path id="Trazado_98681" data-name="Trazado 98681" d="M665.759,467.1a45.715,45.715,0,0,1-29.68-10.414c-10.442-8.83-16.29-22.267-17.382-39.939a1,1,0,0,1,2-.123c2.268,36.713,25.561,49.075,46.6,48.452,14.3-.441,26.387-7.242,26.387-14.849a1,1,0,0,1,2,0c0,8.808-12.706,16.366-28.325,16.848Q666.554,467.1,665.759,467.1Z" fill="#afafaf"/>
      </g>
      <g id="Grupo_20642" data-name="Grupo 20642">
        <path id="Trazado_98682" data-name="Trazado 98682" d="M619.513,410.651a30.213,30.213,0,0,0,5.036,8.385l-4.81-1.562-4.7,1.876A30.176,30.176,0,0,0,619.513,410.651Z" fill="#afafaf"/>
      </g>
    </g>
    <g id="Grupo_20646" data-name="Grupo 20646">
      <g id="Grupo_20644" data-name="Grupo 20644">
        <path id="Trazado_98683" data-name="Trazado 98683" d="M582.444,418.842a45.722,45.722,0,0,1-29.68-10.413c-10.442-8.83-16.29-22.268-17.382-39.94a1,1,0,0,1,2-.123c2.268,36.714,25.544,49.119,46.6,48.452,14.3-.441,26.386-7.241,26.386-14.849a1,1,0,0,1,2,0c0,8.808-12.706,16.367-28.324,16.848C583.507,418.834,582.974,418.842,582.444,418.842Z" fill="#afafaf"/>
      </g>
      <g id="Grupo_20645" data-name="Grupo 20645">
        <path id="Trazado_98684" data-name="Trazado 98684" d="M536.2,362.395a30.241,30.241,0,0,0,5.036,8.386l-4.81-1.563-4.7,1.877A30.192,30.192,0,0,0,536.2,362.395Z" fill="#afafaf"/>
      </g>
    </g>
    <g id="Grupo_20649" data-name="Grupo 20649">
      <g id="Grupo_20647" data-name="Grupo 20647">
        <path id="Trazado_98685" data-name="Trazado 98685" d="M819.23,419.985a1,1,0,0,1-.9-1.422c25.665-54.933-1.906-99.38-40.616-119.061-43.6-22.167-106.289-16.049-136.6,38.949a1,1,0,0,1-1.752-.965c18.117-32.874,44.947-45.066,64.265-49.505,24.436-5.615,51.771-2.067,74.989,9.738,21.453,10.907,37.737,27.917,45.849,47.894,9.173,22.587,7.677,48.106-4.326,73.795A1,1,0,0,1,819.23,419.985Z" fill="#ffd54f"/>
      </g>
      <g id="Grupo_20648" data-name="Grupo 20648">
        <path id="Trazado_98686" data-name="Trazado 98686" d="M816.553,424.394a30.212,30.212,0,0,0-.5-9.769l3.511,3.641,5.026.551A30.184,30.184,0,0,0,816.553,424.394Z" fill="#ffd54f"/>
      </g>
    </g>
    <g id="Grupo_20652" data-name="Grupo 20652">
      <g id="Grupo_20650" data-name="Grupo 20650">
        <path id="Trazado_98687" data-name="Trazado 98687" d="M500.122,373.843a45.722,45.722,0,0,1-29.68-10.414C460,354.6,454.151,341.162,453.06,323.49a1,1,0,1,1,2-.123c2.269,36.714,25.527,49.1,46.6,48.452,14.3-.442,26.386-7.242,26.386-14.849a1,1,0,0,1,2,0c0,8.808-12.706,16.366-28.324,16.848C501.185,373.834,500.652,373.843,500.122,373.843Z" fill="#afafaf"/>
      </g>
      <g id="Grupo_20651" data-name="Grupo 20651">
        <path id="Trazado_98688" data-name="Trazado 98688" d="M453.876,317.4a30.214,30.214,0,0,0,5.036,8.385l-4.81-1.562-4.7,1.877A30.194,30.194,0,0,0,453.876,317.4Z" fill="#afafaf"/>
      </g>
    </g>
    <g id="Grupo_20655" data-name="Grupo 20655">
      <g id="Grupo_20653" data-name="Grupo 20653">
        <path id="Trazado_98689" data-name="Trazado 98689" d="M417.9,327.684a45.724,45.724,0,0,1-29.68-10.414c-10.442-8.831-16.29-22.268-17.382-39.939a1,1,0,0,1,.937-1.06.988.988,0,0,1,1.059.937c2.269,36.713,25.557,49.107,46.6,48.452,14.3-.442,26.387-7.242,26.387-14.85a1,1,0,1,1,2,0c0,8.809-12.707,16.367-28.325,16.849C418.964,327.675,418.431,327.684,417.9,327.684Z" fill="#afafaf"/>
      </g>
      <g id="Grupo_20654" data-name="Grupo 20654">
        <path id="Trazado_98690" data-name="Trazado 98690" d="M371.655,271.236a30.228,30.228,0,0,0,5.036,8.386l-4.81-1.562-4.7,1.876A30.192,30.192,0,0,0,371.655,271.236Z" fill="#afafaf"/>
      </g>
    </g>
    <g id="Grupo_20658" data-name="Grupo 20658">
      <g id="Grupo_20656" data-name="Grupo 20656">
        <path id="Trazado_98691" data-name="Trazado 98691" d="M460.182,233.334a1.031,1.031,0,0,1-.111-.005,1,1,0,0,1-.885-1.1c2.278-20.681-9.421-36.55-31.294-42.449-18.789-5.068-38.459-.786-42.951,9.349a1,1,0,1,1-1.828-.811c4.868-10.983,25.614-15.777,45.3-10.468,22.909,6.178,35.156,22.85,32.761,44.6A1,1,0,0,1,460.182,233.334Z" fill="#afafaf"/>
      </g>
      <g id="Grupo_20657" data-name="Grupo 20657">
        <path id="Trazado_98692" data-name="Trazado 98692" d="M459.194,238.294a30.22,30.22,0,0,0-3.408-9.169l4.441,2.42,4.96-.981A30.187,30.187,0,0,0,459.194,238.294Z" fill="#afafaf"/>
      </g>
    </g>
    <g id="Grupo_20661" data-name="Grupo 20661">
      <g id="Grupo_20659" data-name="Grupo 20659">
        <path id="Trazado_98693" data-name="Trazado 98693" d="M551.431,284.953a1.047,1.047,0,0,1-.111-.006,1,1,0,0,1-.884-1.1c2.277-20.681-9.421-36.549-31.293-42.448-18.791-5.069-38.46-.787-42.952,9.348a1,1,0,0,1-1.828-.81c4.868-10.984,25.614-15.778,45.3-10.469,22.908,6.178,35.155,22.85,32.76,44.6A1,1,0,0,1,551.431,284.953Z" fill="#afafaf"/>
      </g>
      <g id="Grupo_20660" data-name="Grupo 20660">
        <path id="Trazado_98694" data-name="Trazado 98694" d="M550.443,289.912a30.218,30.218,0,0,0-3.407-9.169l4.44,2.42,4.961-.98A30.19,30.19,0,0,0,550.443,289.912Z" fill="#afafaf"/>
      </g>
    </g>
    <g id="Grupo_20664" data-name="Grupo 20664">
      <g id="Grupo_20662" data-name="Grupo 20662">
        <path id="Trazado_98695" data-name="Trazado 98695" d="M632.289,333.009a1.034,1.034,0,0,1-.111-.006,1,1,0,0,1-.885-1.1c2.278-20.681-9.42-36.549-31.293-42.448-18.792-5.068-38.459-.787-42.951,9.348a1,1,0,1,1-1.828-.81c4.868-10.984,25.614-15.778,45.3-10.469,22.909,6.178,35.156,22.851,32.761,44.6A1,1,0,0,1,632.289,333.009Z" fill="#afafaf"/>
      </g>
      <g id="Grupo_20663" data-name="Grupo 20663">
        <path id="Trazado_98696" data-name="Trazado 98696" d="M631.3,337.968a30.244,30.244,0,0,0-3.407-9.169l4.44,2.421,4.961-.981A30.167,30.167,0,0,0,631.3,337.968Z" fill="#afafaf"/>
      </g>
    </g>
    <g id="Grupo_20667" data-name="Grupo 20667">
      <g id="Grupo_20665" data-name="Grupo 20665">
        <path id="Trazado_98697" data-name="Trazado 98697" d="M725.076,378.486a1.027,1.027,0,0,1-.11-.006,1,1,0,0,1-.885-1.1c2.277-20.681-9.421-36.55-31.293-42.448-18.794-5.069-38.46-.786-42.952,9.348a1,1,0,0,1-1.828-.81c4.867-10.984,25.612-15.779,45.3-10.469,22.908,6.178,35.155,22.85,32.76,44.6A1,1,0,0,1,725.076,378.486Z" fill="#afafaf"/>
      </g>
      <g id="Grupo_20666" data-name="Grupo 20666">
        <path id="Trazado_98698" data-name="Trazado 98698" d="M724.088,383.446a30.194,30.194,0,0,0-3.407-9.169l4.441,2.42,4.96-.98A30.191,30.191,0,0,0,724.088,383.446Z" fill="#afafaf"/>
      </g>
    </g>
    <g id="Grupo_20670" data-name="Grupo 20670">
      <g id="Grupo_20668" data-name="Grupo 20668">
        <path id="Trazado_98699" data-name="Trazado 98699" d="M807.753,421.968a.944.944,0,0,1-.24-.03,1,1,0,0,1-.732-1.209c4.324-17.562-5.676-32.346-26.752-39.549-20.705-7.076-43.761-4.038-48.376,6.373a1,1,0,1,1-1.828-.811c5.631-12.709,31.32-14.128,50.851-7.454,22.161,7.573,32.646,23.243,28.047,41.919A1,1,0,0,1,807.753,421.968Z" fill="#afafaf"/>
      </g>
      <g id="Grupo_20669" data-name="Grupo 20669">
        <path id="Trazado_98700" data-name="Trazado 98700" d="M805.905,426.721a30.2,30.2,0,0,0-2.063-9.561l4.05,3.029,5.049-.262A30.2,30.2,0,0,0,805.905,426.721Z" fill="#afafaf"/>
      </g>
    </g>
    <g id="Grupo_20673" data-name="Grupo 20673">
      <g id="Grupo_20671" data-name="Grupo 20671">
        <path id="Trazado_98701" data-name="Trazado 98701" d="M892.147,471.471a1,1,0,0,1-.959-1.284c5.136-17.341-4.167-32.574-24.884-40.747-20.357-8.028-43.529-6.065-48.621,4.12a1,1,0,0,1-1.789-.895c6.214-12.434,31.94-12.66,51.143-5.085,21.785,8.594,31.53,24.733,26.069,43.175A1,1,0,0,1,892.147,471.471Z" fill="#afafaf"/>
      </g>
      <g id="Grupo_20672" data-name="Grupo 20672">
        <path id="Trazado_98702" data-name="Trazado 98702" d="M890.036,476.133a30.2,30.2,0,0,0-1.617-9.647l3.9,3.214,5.056-.027A30.189,30.189,0,0,0,890.036,476.133Z" fill="#afafaf"/>
      </g>
    </g>
    <path id="Trazado_100299" data-name="Trazado 100299" d="M6.281-2.712h.042l2.649-7.6h2.7V0H9.6V-7.039L9.56-7.046,7.011,0h-1.4L3.059-7.06l-.042.007V0H.949V-10.311H3.661ZM18.108-1.133a2.6,2.6,0,0,1-.9.949,2.384,2.384,0,0,1-1.268.333,2.33,2.33,0,0,1-1.894-.821,3.94,3.94,0,0,1-.683-2.549v-4.44h2.061v4.454A2.474,2.474,0,0,0,15.7-1.831a.98.98,0,0,0,.846.372,2.061,2.061,0,0,0,.85-.159,1.433,1.433,0,0,0,.581-.471V-7.662h2.068V0H18.328Zm-1-9.652h2.3l.014.042L17.464-8.9H15.7ZM23.773,0H21.705V-11.047h2.068Zm4.178-9.539v1.877h1.3v1.452h-1.3v3.9a.89.89,0,0,0,.188.637.659.659,0,0,0,.492.191,1.974,1.974,0,0,0,.283-.018,2.386,2.386,0,0,0,.276-.06l.17,1.494A4.186,4.186,0,0,1,28.755.1a3.61,3.61,0,0,1-.641.053,2.2,2.2,0,0,1-1.647-.588A2.577,2.577,0,0,1,25.891-2.3V-6.211H24.772V-7.662h1.119V-9.539ZM32.7,0H30.628V-7.662H32.7Zm0-9.5H30.628v-1.551H32.7Zm8.611,5.878a4.4,4.4,0,0,1-.786,2.734,2.6,2.6,0,0,1-2.2,1.034,2.454,2.454,0,0,1-1.069-.223,2.2,2.2,0,0,1-.8-.655V2.946H34.4V-7.662h1.862l.12.906a2.455,2.455,0,0,1,.818-.775A2.212,2.212,0,0,1,38.312-7.8a2.55,2.55,0,0,1,2.209,1.112,4.962,4.962,0,0,1,.786,2.925ZM39.24-3.767a3.707,3.707,0,0,0-.361-1.756,1.178,1.178,0,0,0-1.1-.673,1.561,1.561,0,0,0-.8.191,1.364,1.364,0,0,0-.521.545V-2.1a1.268,1.268,0,0,0,.521.5,1.754,1.754,0,0,0,.811.17,1.19,1.19,0,0,0,1.1-.588,3.1,3.1,0,0,0,.351-1.593ZM44.756,0H42.689V-11.047h2.068Zm1.381-3.9a4.112,4.112,0,0,1,.956-2.808A3.332,3.332,0,0,1,49.742-7.8,3.368,3.368,0,0,1,52.4-6.713,4.09,4.09,0,0,1,53.368-3.9v.149a4.1,4.1,0,0,1-.96,2.815A3.354,3.354,0,0,1,49.756.149,3.362,3.362,0,0,1,47.1-.938a4.1,4.1,0,0,1-.96-2.815Zm2.061.149a3.333,3.333,0,0,0,.368,1.682,1.271,1.271,0,0,0,1.19.634,1.259,1.259,0,0,0,1.172-.637A3.311,3.311,0,0,0,51.3-3.753V-3.9a3.278,3.278,0,0,0-.375-1.664,1.27,1.27,0,0,0-1.183-.644,1.254,1.254,0,0,0-1.172.648A3.307,3.307,0,0,0,48.2-3.9Z" transform="translate(391.062 494.253)" fill="#12263f"/>
    <path id="Trazado_100298" data-name="Trazado 100298" d="M6.6-3.263A3.647,3.647,0,0,1,5.8-.781,2.7,2.7,0,0,1,3.663.133,2.71,2.71,0,0,1,1.52-.781a3.629,3.629,0,0,1-.8-2.482V-5.979a3.652,3.652,0,0,1,.8-2.476,2.682,2.682,0,0,1,2.136-.92,2.708,2.708,0,0,1,2.149.92,3.634,3.634,0,0,1,.8,2.476ZM5.351-6.24a2.521,2.521,0,0,0-.444-1.574A1.493,1.493,0,0,0,3.65-8.392a1.469,1.469,0,0,0-1.244.578A2.547,2.547,0,0,0,1.968-6.24v3.231a2.536,2.536,0,0,0,.448,1.581,1.482,1.482,0,0,0,1.247.584,1.473,1.473,0,0,0,1.25-.581,2.573,2.573,0,0,0,.438-1.584ZM9.318-.3,8.366,1.638H7.624L8.068-.368V-1.4h1.25Zm7.167-2.958a3.647,3.647,0,0,1-.8,2.482,2.7,2.7,0,0,1-2.142.914A2.71,2.71,0,0,1,11.4-.781a3.629,3.629,0,0,1-.8-2.482V-5.979a3.652,3.652,0,0,1,.8-2.476,2.682,2.682,0,0,1,2.136-.92,2.708,2.708,0,0,1,2.149.92,3.634,3.634,0,0,1,.8,2.476ZM15.234-6.24a2.521,2.521,0,0,0-.444-1.574,1.493,1.493,0,0,0-1.257-.578,1.469,1.469,0,0,0-1.244.578,2.547,2.547,0,0,0-.438,1.574v3.231A2.536,2.536,0,0,0,12.3-1.428a1.482,1.482,0,0,0,1.247.584,1.473,1.473,0,0,0,1.25-.581,2.573,2.573,0,0,0,.438-1.584ZM23.8-3.263a3.647,3.647,0,0,1-.8,2.482,2.7,2.7,0,0,1-2.142.914,2.71,2.71,0,0,1-2.142-.914,3.629,3.629,0,0,1-.8-2.482V-5.979a3.652,3.652,0,0,1,.8-2.476,2.682,2.682,0,0,1,2.136-.92A2.708,2.708,0,0,1,23-8.455a3.634,3.634,0,0,1,.8,2.476ZM22.553-6.24a2.521,2.521,0,0,0-.444-1.574,1.493,1.493,0,0,0-1.257-.578,1.469,1.469,0,0,0-1.244.578A2.547,2.547,0,0,0,19.17-6.24v3.231a2.536,2.536,0,0,0,.448,1.581,1.482,1.482,0,0,0,1.247.584,1.473,1.473,0,0,0,1.25-.581,2.573,2.573,0,0,0,.438-1.584ZM29.028,0H27.771V-8.087l-2.012.019v-.965l3.269-.343Zm9.185-4.177H37.4V0H36.15V-9.242H37.4v4.088h.686l3.428-4.088h1.409l.013.032L39.19-4.837,43.2-.032,43.189,0H41.672Zm7-2.691.089.9a2.333,2.333,0,0,1,.854-.759A2.565,2.565,0,0,1,47.36-7a2.125,2.125,0,0,1,1.177.317,1.92,1.92,0,0,1,.74.952,2.569,2.569,0,0,1,.86-.93A2.25,2.25,0,0,1,51.378-7a2.056,2.056,0,0,1,1.657.72,3.291,3.291,0,0,1,.609,2.168V0h-1.25V-4.12a2.283,2.283,0,0,0-.349-1.438A1.273,1.273,0,0,0,51-5.979a1.325,1.325,0,0,0-1.038.444A1.934,1.934,0,0,0,49.5-4.412V0H48.242V-4.12a2.252,2.252,0,0,0-.359-1.412,1.245,1.245,0,0,0-1.031-.448,1.718,1.718,0,0,0-.939.235,1.517,1.517,0,0,0-.565.66V0H44.1V-6.868Zm15.6,1.644H55.517V-6.265h5.294Zm0,2.641H55.517V-3.625h5.294ZM71.7-3.263a3.647,3.647,0,0,1-.8,2.482,2.7,2.7,0,0,1-2.142.914,2.71,2.71,0,0,1-2.142-.914,3.629,3.629,0,0,1-.8-2.482V-5.979a3.652,3.652,0,0,1,.8-2.476,2.682,2.682,0,0,1,2.136-.92,2.708,2.708,0,0,1,2.149.92,3.634,3.634,0,0,1,.8,2.476ZM70.453-6.24a2.521,2.521,0,0,0-.444-1.574,1.493,1.493,0,0,0-1.257-.578,1.469,1.469,0,0,0-1.244.578,2.547,2.547,0,0,0-.438,1.574v3.231a2.536,2.536,0,0,0,.448,1.581,1.482,1.482,0,0,0,1.247.584,1.473,1.473,0,0,0,1.25-.581,2.573,2.573,0,0,0,.438-1.584ZM74.42-.3l-.952,1.942h-.743l.444-2.006V-1.4h1.25Zm7.167-2.958a3.647,3.647,0,0,1-.8,2.482,2.7,2.7,0,0,1-2.142.914,2.71,2.71,0,0,1-2.142-.914,3.629,3.629,0,0,1-.8-2.482V-5.979a3.652,3.652,0,0,1,.8-2.476,2.682,2.682,0,0,1,2.136-.92,2.708,2.708,0,0,1,2.149.92,3.634,3.634,0,0,1,.8,2.476ZM80.336-6.24a2.521,2.521,0,0,0-.444-1.574,1.493,1.493,0,0,0-1.257-.578,1.469,1.469,0,0,0-1.244.578,2.547,2.547,0,0,0-.438,1.574v3.231A2.536,2.536,0,0,0,77.4-1.428a1.482,1.482,0,0,0,1.247.584,1.473,1.473,0,0,0,1.25-.581,2.573,2.573,0,0,0,.438-1.584ZM86.811,0H85.554V-8.087l-2.012.019v-.965l3.269-.343Zm14.111,0h-1.25V-4.082H95.183V0h-1.25V-9.242h1.25v4.177h4.488V-9.242h1.25Zm3.1-6.868.089.9a2.333,2.333,0,0,1,.854-.759,2.565,2.565,0,0,1,1.2-.27,2.125,2.125,0,0,1,1.177.317,1.92,1.92,0,0,1,.74.952,2.569,2.569,0,0,1,.86-.93A2.25,2.25,0,0,1,110.189-7a2.056,2.056,0,0,1,1.657.72,3.291,3.291,0,0,1,.609,2.168V0H111.2V-4.12a2.283,2.283,0,0,0-.349-1.438,1.273,1.273,0,0,0-1.041-.422,1.325,1.325,0,0,0-1.038.444,1.934,1.934,0,0,0-.467,1.124V0h-1.257V-4.12a2.252,2.252,0,0,0-.359-1.412,1.245,1.245,0,0,0-1.031-.448,1.718,1.718,0,0,0-.939.235,1.517,1.517,0,0,0-.565.66V0h-1.25V-6.868Zm15.6,1.644h-5.294V-6.265h5.294Zm0,2.641h-5.294V-3.625h5.294Zm10.893-.679a3.647,3.647,0,0,1-.8,2.482,2.7,2.7,0,0,1-2.142.914,2.71,2.71,0,0,1-2.142-.914,3.629,3.629,0,0,1-.8-2.482V-5.979a3.652,3.652,0,0,1,.8-2.476,2.682,2.682,0,0,1,2.136-.92,2.708,2.708,0,0,1,2.149.92,3.634,3.634,0,0,1,.8,2.476Zm-1.25-2.977a2.521,2.521,0,0,0-.444-1.574,1.493,1.493,0,0,0-1.257-.578,1.469,1.469,0,0,0-1.244.578,2.547,2.547,0,0,0-.438,1.574v3.231a2.536,2.536,0,0,0,.448,1.581,1.482,1.482,0,0,0,1.247.584,1.473,1.473,0,0,0,1.25-.581,2.573,2.573,0,0,0,.438-1.584ZM133.231-.3l-.952,1.942h-.743l.444-2.006V-1.4h1.25ZM138.3,0h-1.257V-8.087l-2.012.019v-.965l3.269-.343Zm7.122,0V-9.242h2.907a3.91,3.91,0,0,1,2.91,1.114,3.92,3.92,0,0,1,1.1,2.879v1.263a3.906,3.906,0,0,1-1.1,2.879A3.922,3.922,0,0,1,148.332,0Zm1.25-8.258V-.978h1.657a2.549,2.549,0,0,0,2.022-.844,3.165,3.165,0,0,0,.74-2.165V-5.262a3.147,3.147,0,0,0-.74-2.152,2.549,2.549,0,0,0-2.022-.844ZM158.279,0q-.063-.311-.1-.549a4.03,4.03,0,0,1-.041-.479,2.916,2.916,0,0,1-.911.828,2.329,2.329,0,0,1-1.209.333,2.245,2.245,0,0,1-1.635-.549,2.02,2.02,0,0,1-.562-1.514,1.774,1.774,0,0,1,.8-1.539,3.72,3.72,0,0,1,2.161-.555h1.358V-4.7a1.26,1.26,0,0,0-.368-.955,1.446,1.446,0,0,0-1.041-.352,1.51,1.51,0,0,0-.984.3.914.914,0,0,0-.375.73l-1.187.013L154.172-5a1.644,1.644,0,0,1,.7-1.371A2.907,2.907,0,0,1,156.8-7a2.836,2.836,0,0,1,1.879.594,2.1,2.1,0,0,1,.711,1.711v3.307a6.437,6.437,0,0,0,.038.711,3.656,3.656,0,0,0,.14.673ZM156.2-.914a2.226,2.226,0,0,0,1.225-.349,1.659,1.659,0,0,0,.711-.8V-3.18h-1.4a1.82,1.82,0,0,0-1.209.381,1.139,1.139,0,0,0-.454.9.942.942,0,0,0,.286.724A1.2,1.2,0,0,0,156.2-.914Zm6.119-5.954.089.9a2.333,2.333,0,0,1,.854-.759,2.565,2.565,0,0,1,1.2-.27,2.125,2.125,0,0,1,1.177.317,1.92,1.92,0,0,1,.74.952,2.569,2.569,0,0,1,.86-.93A2.25,2.25,0,0,1,168.486-7a2.056,2.056,0,0,1,1.657.72,3.291,3.291,0,0,1,.609,2.168V0H169.5V-4.12a2.283,2.283,0,0,0-.349-1.438,1.273,1.273,0,0,0-1.041-.422,1.325,1.325,0,0,0-1.038.444,1.934,1.934,0,0,0-.467,1.124V0H165.35V-4.12a2.252,2.252,0,0,0-.359-1.412,1.245,1.245,0,0,0-1.031-.448,1.718,1.718,0,0,0-.939.235,1.517,1.517,0,0,0-.565.66V0h-1.25V-6.868Zm18.827,1.644h-5.294V-6.265h5.294Zm0,2.641h-5.294V-3.625h5.294ZM191.659,0h-2.273V-9.391h-2.352v-1.742l4.625-.406Zm13.875-2.992h.047l2.922-8.383h2.977V0H209.2V-7.766l-.047-.008L206.339,0h-1.547l-2.812-7.789-.047.008V0h-2.281V-11.375h2.992Zm16.482-2.232h-5.294V-6.265h5.294Zm0,2.641h-5.294V-3.625h5.294ZM230.814,0h-1.257V-8.087l-2.012.019v-.965l3.269-.343Zm9.414-3.263a3.647,3.647,0,0,1-.8,2.482,2.7,2.7,0,0,1-2.142.914,2.71,2.71,0,0,1-2.142-.914,3.629,3.629,0,0,1-.8-2.482V-5.979a3.652,3.652,0,0,1,.8-2.476,2.682,2.682,0,0,1,2.136-.92,2.708,2.708,0,0,1,2.149.92,3.634,3.634,0,0,1,.8,2.476Zm-1.25-2.977a2.521,2.521,0,0,0-.444-1.574,1.493,1.493,0,0,0-1.257-.578,1.469,1.469,0,0,0-1.244.578,2.547,2.547,0,0,0-.438,1.574v3.231a2.536,2.536,0,0,0,.448,1.581,1.482,1.482,0,0,0,1.247.584,1.473,1.473,0,0,0,1.25-.581,2.573,2.573,0,0,0,.438-1.584ZM245.255,0V-9.242h2.907a3.91,3.91,0,0,1,2.91,1.114,3.92,3.92,0,0,1,1.1,2.879v1.263a3.906,3.906,0,0,1-1.1,2.879A3.922,3.922,0,0,1,248.162,0Zm1.25-8.258V-.978h1.657a2.549,2.549,0,0,0,2.022-.844,3.165,3.165,0,0,0,.74-2.165V-5.262a3.147,3.147,0,0,0-.74-2.152,2.549,2.549,0,0,0-2.022-.844Zm8.5,1.39.089.9a2.333,2.333,0,0,1,.854-.759,2.565,2.565,0,0,1,1.2-.27,2.125,2.125,0,0,1,1.177.317,1.92,1.92,0,0,1,.74.952,2.569,2.569,0,0,1,.86-.93A2.25,2.25,0,0,1,261.168-7a2.056,2.056,0,0,1,1.657.72,3.291,3.291,0,0,1,.609,2.168V0h-1.25V-4.12a2.283,2.283,0,0,0-.349-1.438,1.273,1.273,0,0,0-1.041-.422,1.325,1.325,0,0,0-1.038.444,1.934,1.934,0,0,0-.467,1.124V0h-1.257V-4.12a2.252,2.252,0,0,0-.359-1.412,1.245,1.245,0,0,0-1.031-.448,1.718,1.718,0,0,0-.939.235,1.517,1.517,0,0,0-.565.66V0h-1.25V-6.868Zm18.827,1.644h-5.294V-6.265h5.294Zm0,2.641h-5.294V-3.625h5.294ZM284.342,0h-2.273V-9.391h-2.352v-1.742l4.625-.406Zm11.4-4.117a4.458,4.458,0,0,1-1.051,3.141A3.606,3.606,0,0,1,291.9.164a3.637,3.637,0,0,1-2.8-1.141,4.448,4.448,0,0,1-1.055-3.141V-7.25a4.476,4.476,0,0,1,1.051-3.141,3.6,3.6,0,0,1,2.793-1.148,3.618,3.618,0,0,1,2.793,1.148A4.455,4.455,0,0,1,295.74-7.25Zm-2.273-3.367a2.944,2.944,0,0,0-.418-1.7,1.335,1.335,0,0,0-1.16-.6,1.323,1.323,0,0,0-1.16.6,2.988,2.988,0,0,0-.41,1.7V-3.9a3,3,0,0,0,.414,1.715,1.342,1.342,0,0,0,1.172.6,1.318,1.318,0,0,0,1.152-.6,3.017,3.017,0,0,0,.41-1.715ZM304.92-4.117a4.458,4.458,0,0,1-1.051,3.141A3.606,3.606,0,0,1,301.084.164a3.637,3.637,0,0,1-2.8-1.141,4.448,4.448,0,0,1-1.055-3.141V-7.25a4.476,4.476,0,0,1,1.051-3.141,3.6,3.6,0,0,1,2.793-1.148,3.618,3.618,0,0,1,2.793,1.148A4.455,4.455,0,0,1,304.92-7.25Zm-2.273-3.367a2.944,2.944,0,0,0-.418-1.7,1.335,1.335,0,0,0-1.16-.6,1.323,1.323,0,0,0-1.16.6,2.988,2.988,0,0,0-.41,1.7V-3.9a3,3,0,0,0,.414,1.715,1.342,1.342,0,0,0,1.172.6,1.318,1.318,0,0,0,1.152-.6,3.017,3.017,0,0,0,.41-1.715Zm16.578,3.719.016.047a3.561,3.561,0,0,1-1.109,2.852A4.523,4.523,0,0,1,314.982.164a4.361,4.361,0,0,1-3.3-1.316,4.722,4.722,0,0,1-1.258-3.4V-6.812a4.809,4.809,0,0,1,1.227-3.4,4.182,4.182,0,0,1,3.219-1.324,4.8,4.8,0,0,1,3.25,1.016,3.5,3.5,0,0,1,1.141,2.859l-.016.047h-2.219a2.236,2.236,0,0,0-.527-1.629,2.2,2.2,0,0,0-1.629-.535,1.839,1.839,0,0,0-1.6.824,3.645,3.645,0,0,0-.574,2.129v2.273a3.538,3.538,0,0,0,.605,2.141,1.968,1.968,0,0,0,1.684.828,2,2,0,0,0,1.527-.535,2.328,2.328,0,0,0,.5-1.645Zm3.594-4.687.094,1.117a2.84,2.84,0,0,1,1.02-.941,2.932,2.932,0,0,1,1.418-.332,2.582,2.582,0,0,1,1.391.359,2.217,2.217,0,0,1,.875,1.086,2.93,2.93,0,0,1,1.016-1.062,2.756,2.756,0,0,1,1.469-.383,2.408,2.408,0,0,1,1.973.887,4.233,4.233,0,0,1,.723,2.707V0h-2.281V-5.023a2.369,2.369,0,0,0-.312-1.414,1.109,1.109,0,0,0-.93-.4,1.592,1.592,0,0,0-.84.215,1.565,1.565,0,0,0-.566.6q0,.148.008.254t.008.215V0h-2.273V-5.023a2.376,2.376,0,0,0-.312-1.4,1.1,1.1,0,0,0-.937-.41,1.769,1.769,0,0,0-.809.176,1.551,1.551,0,0,0-.574.5V0H320.7V-8.453ZM343.16-5.224h-5.294V-6.265h5.294Zm0,2.641h-5.294V-3.625h5.294ZM351.958,0H350.7V-8.087l-2.012.019v-.965l3.269-.343Zm9.414-3.263a3.647,3.647,0,0,1-.8,2.482,2.7,2.7,0,0,1-2.142.914,2.71,2.71,0,0,1-2.142-.914,3.629,3.629,0,0,1-.8-2.482V-5.979a3.652,3.652,0,0,1,.8-2.476,2.682,2.682,0,0,1,2.136-.92,2.708,2.708,0,0,1,2.149.92,3.634,3.634,0,0,1,.8,2.476Zm-1.25-2.977a2.521,2.521,0,0,0-.444-1.574,1.493,1.493,0,0,0-1.257-.578,1.469,1.469,0,0,0-1.244.578,2.547,2.547,0,0,0-.438,1.574v3.231a2.536,2.536,0,0,0,.448,1.581,1.482,1.482,0,0,0,1.247.584,1.473,1.473,0,0,0,1.25-.581,2.573,2.573,0,0,0,.438-1.584Zm8.569,2.977a3.647,3.647,0,0,1-.8,2.482,2.7,2.7,0,0,1-2.142.914,2.71,2.71,0,0,1-2.142-.914,3.629,3.629,0,0,1-.8-2.482V-5.979a3.652,3.652,0,0,1,.8-2.476,2.682,2.682,0,0,1,2.136-.92,2.708,2.708,0,0,1,2.149.92,3.634,3.634,0,0,1,.8,2.476Zm-1.25-2.977A2.521,2.521,0,0,0,367-7.814a1.493,1.493,0,0,0-1.257-.578,1.469,1.469,0,0,0-1.244.578,2.547,2.547,0,0,0-.438,1.574v3.231a2.536,2.536,0,0,0,.448,1.581,1.482,1.482,0,0,0,1.247.584A1.473,1.473,0,0,0,367-1.425a2.573,2.573,0,0,0,.438-1.584Zm8.569,2.977a3.647,3.647,0,0,1-.8,2.482,2.7,2.7,0,0,1-2.142.914,2.71,2.71,0,0,1-2.142-.914,3.629,3.629,0,0,1-.8-2.482V-5.979a3.652,3.652,0,0,1,.8-2.476,2.682,2.682,0,0,1,2.136-.92,2.708,2.708,0,0,1,2.149.92,3.634,3.634,0,0,1,.8,2.476Zm-1.25-2.977a2.521,2.521,0,0,0-.444-1.574,1.493,1.493,0,0,0-1.257-.578,1.469,1.469,0,0,0-1.244.578,2.547,2.547,0,0,0-.438,1.574v3.231a2.536,2.536,0,0,0,.448,1.581,1.482,1.482,0,0,0,1.247.584,1.473,1.473,0,0,0,1.25-.581,2.573,2.573,0,0,0,.438-1.584Zm10.861,4.507h.038l2.952-7.509h1.555V0h-1.25V-6.925l-.038-.006L386.076,0h-.87l-2.882-7.16-.038.006V0h-1.25V-9.242h1.644Zm7.655-5.135.089.9a2.333,2.333,0,0,1,.854-.759,2.565,2.565,0,0,1,1.2-.27,2.125,2.125,0,0,1,1.177.317,1.92,1.92,0,0,1,.74.952,2.569,2.569,0,0,1,.86-.93A2.25,2.25,0,0,1,399.438-7a2.056,2.056,0,0,1,1.657.72,3.291,3.291,0,0,1,.609,2.168V0h-1.25V-4.12a2.283,2.283,0,0,0-.349-1.438,1.273,1.273,0,0,0-1.041-.422,1.325,1.325,0,0,0-1.038.444,1.934,1.934,0,0,0-.467,1.124V0H396.3V-4.12a2.252,2.252,0,0,0-.359-1.412,1.245,1.245,0,0,0-1.031-.448,1.718,1.718,0,0,0-.939.235,1.517,1.517,0,0,0-.565.66V0h-1.25V-6.868Z" transform="translate(343.913 564.045)" fill="#12263f"/>
    <path id="Trazado_100290" data-name="Trazado 100290" d="M6.324-2.691a1.206,1.206,0,0,0-.414-.956,4.163,4.163,0,0,0-1.455-.68A8.27,8.27,0,0,1,1.746-5.595a2.4,2.4,0,0,1-.924-1.99A2.5,2.5,0,0,1,1.862-9.656a4.219,4.219,0,0,1,2.656-.8A4.189,4.189,0,0,1,7.276-9.6,2.7,2.7,0,0,1,8.286-7.33l-.014.042h-2A1.5,1.5,0,0,0,5.8-8.473a1.909,1.909,0,0,0-1.31-.414,1.731,1.731,0,0,0-1.183.368,1.2,1.2,0,0,0-.418.942,1.029,1.029,0,0,0,.453.86,6.063,6.063,0,0,0,1.565.712A6.734,6.734,0,0,1,7.5-4.748a2.575,2.575,0,0,1,.892,2.043A2.459,2.459,0,0,1,7.358-.616,4.488,4.488,0,0,1,4.624.149,4.884,4.884,0,0,1,1.767-.68,2.733,2.733,0,0,1,.609-3.151l.014-.042h2a1.622,1.622,0,0,0,.538,1.346,2.266,2.266,0,0,0,1.459.432,1.991,1.991,0,0,0,1.264-.347A1.126,1.126,0,0,0,6.324-2.691Zm8.13,1.558a2.6,2.6,0,0,1-.9.949,2.384,2.384,0,0,1-1.268.333,2.33,2.33,0,0,1-1.894-.821,3.94,3.94,0,0,1-.683-2.549v-4.44H11.77v4.454a2.474,2.474,0,0,0,.273,1.377.98.98,0,0,0,.846.372,2.061,2.061,0,0,0,.85-.159,1.433,1.433,0,0,0,.581-.471V-7.662h2.068V0H14.673Zm10.4-2.486a4.482,4.482,0,0,1-.765,2.741A2.587,2.587,0,0,1,21.883.149a2.335,2.335,0,0,1-1.172-.283,2.422,2.422,0,0,1-.846-.829L19.694,0H17.945V-11.047h2.061v4.2a2.341,2.341,0,0,1,.8-.708A2.227,2.227,0,0,1,21.868-7.8a2.538,2.538,0,0,1,2.224,1.1,5.055,5.055,0,0,1,.765,2.935ZM22.8-3.767a3.99,3.99,0,0,0-.329-1.774A1.156,1.156,0,0,0,21.344-6.2a1.544,1.544,0,0,0-.814.2,1.4,1.4,0,0,0-.524.577v3.243a1.314,1.314,0,0,0,.528.531,1.7,1.7,0,0,0,.825.184,1.176,1.176,0,0,0,1.119-.563,3.279,3.279,0,0,0,.319-1.6Zm5.255-3.895.085,1.013A2.574,2.574,0,0,1,29.06-7.5a2.658,2.658,0,0,1,1.285-.3,2.341,2.341,0,0,1,1.261.326,2.01,2.01,0,0,1,.793.984,2.656,2.656,0,0,1,.921-.963A2.5,2.5,0,0,1,34.651-7.8a2.183,2.183,0,0,1,1.788.8,3.837,3.837,0,0,1,.655,2.454V0H35.026V-4.554a2.148,2.148,0,0,0-.283-1.282A1.006,1.006,0,0,0,33.9-6.2,1.444,1.444,0,0,0,33.139-6a1.419,1.419,0,0,0-.513.542q0,.135.007.23t.007.195V0H30.579V-4.554A2.154,2.154,0,0,0,30.3-5.825a1,1,0,0,0-.85-.372,1.6,1.6,0,0,0-.733.159,1.406,1.406,0,0,0-.521.45V0H26.132V-7.662ZM43.376-1.133a2.6,2.6,0,0,1-.9.949,2.384,2.384,0,0,1-1.268.333,2.33,2.33,0,0,1-1.894-.821,3.94,3.94,0,0,1-.683-2.549v-4.44h2.061v4.454a2.474,2.474,0,0,0,.273,1.377.98.98,0,0,0,.846.372,2.061,2.061,0,0,0,.85-.159,1.433,1.433,0,0,0,.581-.471V-7.662h2.068V0H43.6Zm-1-9.652h2.3l.014.042L42.731-8.9H40.968ZM49.041,0H46.973V-11.047h2.068Zm4.178-9.539v1.877h1.3v1.452h-1.3v3.9a.89.89,0,0,0,.188.637.659.659,0,0,0,.492.191,1.974,1.974,0,0,0,.283-.018,2.386,2.386,0,0,0,.276-.06l.17,1.494A4.186,4.186,0,0,1,54.023.1a3.61,3.61,0,0,1-.641.053,2.2,2.2,0,0,1-1.646-.588A2.577,2.577,0,0,1,51.158-2.3V-6.211H50.039V-7.662h1.119V-9.539ZM57.964,0H55.9V-7.662h2.068Zm0-9.5H55.9v-1.551h2.068Zm8.611,5.878a4.4,4.4,0,0,1-.786,2.734,2.6,2.6,0,0,1-2.2,1.034,2.454,2.454,0,0,1-1.069-.223,2.2,2.2,0,0,1-.8-.655V2.946H59.664V-7.662h1.862l.12.906a2.455,2.455,0,0,1,.818-.775A2.212,2.212,0,0,1,63.58-7.8a2.55,2.55,0,0,1,2.209,1.112,4.962,4.962,0,0,1,.786,2.925Zm-2.068-.149a3.707,3.707,0,0,0-.361-1.756,1.178,1.178,0,0,0-1.1-.673,1.561,1.561,0,0,0-.8.191,1.364,1.364,0,0,0-.521.545V-2.1a1.268,1.268,0,0,0,.521.5,1.754,1.754,0,0,0,.811.17,1.19,1.19,0,0,0,1.1-.588,3.1,3.1,0,0,0,.351-1.593ZM70.024,0H67.956V-11.047h2.068Zm1.381-3.9a4.112,4.112,0,0,1,.956-2.808A3.332,3.332,0,0,1,75.01-7.8a3.368,3.368,0,0,1,2.663,1.091A4.09,4.09,0,0,1,78.635-3.9v.149a4.1,4.1,0,0,1-.96,2.815A3.354,3.354,0,0,1,75.024.149,3.362,3.362,0,0,1,72.365-.938a4.1,4.1,0,0,1-.96-2.815Zm2.061.149a3.333,3.333,0,0,0,.368,1.682,1.271,1.271,0,0,0,1.19.634A1.259,1.259,0,0,0,76.2-2.075a3.311,3.311,0,0,0,.372-1.678V-3.9a3.278,3.278,0,0,0-.375-1.664,1.27,1.27,0,0,0-1.183-.644,1.254,1.254,0,0,0-1.172.648A3.307,3.307,0,0,0,73.466-3.9Z" transform="translate(816.788 250.001)" fill="#12263f"/>
    <path id="Trazado_100297" data-name="Trazado 100297" d="M2.535,0H1.14V-1.431h1.4Zm0-6.2H1.14V-7.634h1.4ZM8.689,0h-1.4V-9.022L5.042-9v-1.076l3.647-.382Zm10.5-3.64A4.069,4.069,0,0,1,18.3-.871a3.01,3.01,0,0,1-2.39,1.02,3.023,3.023,0,0,1-2.39-1.02,4.048,4.048,0,0,1-.9-2.769V-6.671a4.075,4.075,0,0,1,.889-2.762A2.992,2.992,0,0,1,15.9-10.46a3.022,3.022,0,0,1,2.4,1.027,4.054,4.054,0,0,1,.9,2.762ZM17.8-6.961a2.813,2.813,0,0,0-.5-1.756,1.666,1.666,0,0,0-1.4-.644,1.639,1.639,0,0,0-1.388.644,2.842,2.842,0,0,0-.489,1.756v3.6a2.83,2.83,0,0,0,.5,1.763,1.654,1.654,0,0,0,1.392.652,1.643,1.643,0,0,0,1.4-.648A2.871,2.871,0,0,0,17.8-3.357Z" transform="translate(780.974 563.897)" fill="#12263f"/>
    <path id="Trazado_100286" data-name="Trazado 100286" d="M2.535,0H1.14V-1.431h1.4Zm0-6.2H1.14V-7.634h1.4ZM8.689,0h-1.4V-9.022L5.042-9v-1.076l3.647-.382Zm10.5-3.64A4.069,4.069,0,0,1,18.3-.871a3.01,3.01,0,0,1-2.39,1.02,3.023,3.023,0,0,1-2.39-1.02,4.048,4.048,0,0,1-.9-2.769V-6.671a4.075,4.075,0,0,1,.889-2.762A2.992,2.992,0,0,1,15.9-10.46a3.022,3.022,0,0,1,2.4,1.027,4.054,4.054,0,0,1,.9,2.762ZM17.8-6.961a2.813,2.813,0,0,0-.5-1.756,1.666,1.666,0,0,0-1.4-.644,1.639,1.639,0,0,0-1.388.644,2.842,2.842,0,0,0-.489,1.756v3.6a2.83,2.83,0,0,0,.5,1.763,1.654,1.654,0,0,0,1.392.652,1.643,1.643,0,0,0,1.4-.648A2.871,2.871,0,0,0,17.8-3.357Z" transform="translate(696.426 515.694)" fill="#12263f"/>
    <path id="Trazado_100285" data-name="Trazado 100285" d="M2.535,0H1.14V-1.431h1.4Zm0-6.2H1.14V-7.634h1.4ZM8.689,0h-1.4V-9.022L5.042-9v-1.076l3.647-.382Zm10.5-3.64A4.069,4.069,0,0,1,18.3-.871a3.01,3.01,0,0,1-2.39,1.02,3.023,3.023,0,0,1-2.39-1.02,4.048,4.048,0,0,1-.9-2.769V-6.671a4.075,4.075,0,0,1,.889-2.762A2.992,2.992,0,0,1,15.9-10.46a3.022,3.022,0,0,1,2.4,1.027,4.054,4.054,0,0,1,.9,2.762ZM17.8-6.961a2.813,2.813,0,0,0-.5-1.756,1.666,1.666,0,0,0-1.4-.644,1.639,1.639,0,0,0-1.388.644,2.842,2.842,0,0,0-.489,1.756v3.6a2.83,2.83,0,0,0,.5,1.763,1.654,1.654,0,0,0,1.392.652,1.643,1.643,0,0,0,1.4-.648A2.871,2.871,0,0,0,17.8-3.357Z" transform="translate(614.021 471.757)" fill="#12263f"/>
    <path id="Trazado_100284" data-name="Trazado 100284" d="M2.535,0H1.14V-1.431h1.4Zm0-6.2H1.14V-7.634h1.4ZM8.689,0h-1.4V-9.022L5.042-9v-1.076l3.647-.382Zm10.5-3.64A4.069,4.069,0,0,1,18.3-.871a3.01,3.01,0,0,1-2.39,1.02,3.023,3.023,0,0,1-2.39-1.02,4.048,4.048,0,0,1-.9-2.769V-6.671a4.075,4.075,0,0,1,.889-2.762A2.992,2.992,0,0,1,15.9-10.46a3.022,3.022,0,0,1,2.4,1.027,4.054,4.054,0,0,1,.9,2.762ZM17.8-6.961a2.813,2.813,0,0,0-.5-1.756,1.666,1.666,0,0,0-1.4-.644,1.639,1.639,0,0,0-1.388.644,2.842,2.842,0,0,0-.489,1.756v3.6a2.83,2.83,0,0,0,.5,1.763,1.654,1.654,0,0,0,1.392.652,1.643,1.643,0,0,0,1.4-.648A2.871,2.871,0,0,0,17.8-3.357Z" transform="translate(532.199 424.394)" fill="#12263f"/>
    <path id="Trazado_100283" data-name="Trazado 100283" d="M2.535,0H1.14V-1.431h1.4Zm0-6.2H1.14V-7.634h1.4ZM8.689,0h-1.4V-9.022L5.042-9v-1.076l3.647-.382Zm10.5-3.64A4.069,4.069,0,0,1,18.3-.871a3.01,3.01,0,0,1-2.39,1.02,3.023,3.023,0,0,1-2.39-1.02,4.048,4.048,0,0,1-.9-2.769V-6.671a4.075,4.075,0,0,1,.889-2.762A2.992,2.992,0,0,1,15.9-10.46a3.022,3.022,0,0,1,2.4,1.027,4.054,4.054,0,0,1,.9,2.762ZM17.8-6.961a2.813,2.813,0,0,0-.5-1.756,1.666,1.666,0,0,0-1.4-.644,1.639,1.639,0,0,0-1.388.644,2.842,2.842,0,0,0-.489,1.756v3.6a2.83,2.83,0,0,0,.5,1.763,1.654,1.654,0,0,0,1.392.652,1.643,1.643,0,0,0,1.4-.648A2.871,2.871,0,0,0,17.8-3.357Z" transform="translate(451.813 380.031)" fill="#12263f"/>
    <path id="Trazado_100282" data-name="Trazado 100282" d="M2.535,0H1.14V-1.431h1.4Zm0-6.2H1.14V-7.634h1.4ZM8.689,0h-1.4V-9.022L5.042-9v-1.076l3.647-.382Zm10.5-3.64A4.069,4.069,0,0,1,18.3-.871a3.01,3.01,0,0,1-2.39,1.02,3.023,3.023,0,0,1-2.39-1.02,4.048,4.048,0,0,1-.9-2.769V-6.671a4.075,4.075,0,0,1,.889-2.762A2.992,2.992,0,0,1,15.9-10.46a3.022,3.022,0,0,1,2.4,1.027,4.054,4.054,0,0,1,.9,2.762ZM17.8-6.961a2.813,2.813,0,0,0-.5-1.756,1.666,1.666,0,0,0-1.4-.644,1.639,1.639,0,0,0-1.388.644,2.842,2.842,0,0,0-.489,1.756v3.6a2.83,2.83,0,0,0,.5,1.763,1.654,1.654,0,0,0,1.392.652,1.643,1.643,0,0,0,1.4-.648A2.871,2.871,0,0,0,17.8-3.357Z" transform="translate(366.656 331.828)" fill="#12263f"/>
    <path id="Trazado_100281" data-name="Trazado 100281" d="M3.612-4.837,5.24-7.662H6.869L4.384-3.874,6.94,0H5.34L3.64-2.9,1.94,0H.326L2.882-3.874.4-7.662H2ZM12.322,0h-1.4V-9.022L8.675-9v-1.076l3.647-.382Zm10.5-3.64a4.069,4.069,0,0,1-.889,2.769,3.01,3.01,0,0,1-2.39,1.02,3.023,3.023,0,0,1-2.39-1.02,4.048,4.048,0,0,1-.9-2.769V-6.671a4.075,4.075,0,0,1,.889-2.762,2.992,2.992,0,0,1,2.383-1.027,3.022,3.022,0,0,1,2.4,1.027,4.054,4.054,0,0,1,.9,2.762Zm-1.4-3.321a2.813,2.813,0,0,0-.5-1.756,1.666,1.666,0,0,0-1.4-.644,1.639,1.639,0,0,0-1.388.644,2.842,2.842,0,0,0-.489,1.756v3.6a2.83,2.83,0,0,0,.5,1.763,1.654,1.654,0,0,0,1.392.652,1.643,1.643,0,0,0,1.4-.648,2.871,2.871,0,0,0,.489-1.767Z" transform="translate(441.184 186.676)"/>
    <path id="Trazado_100280" data-name="Trazado 100280" d="M9.055,0H6.094L3.539-3.969H3.508V0H1.039V-11.844H3.508V-4.3h.031L5.922-8h2.93L5.984-4.242ZM22.688,0H20.227V-4.562q0-1.742-1.281-1.742a1.177,1.177,0,0,0-.992.523,2.151,2.151,0,0,0-.383,1.3V0H15.1V-4.609q0-1.7-1.258-1.7a1.206,1.206,0,0,0-1.012.5,2.2,2.2,0,0,0-.379,1.359V0H9.984V-8h2.469v1.25h.031a2.952,2.952,0,0,1,1.074-1.043,2.952,2.952,0,0,1,1.512-.4A2.3,2.3,0,0,1,17.391-6.7,2.959,2.959,0,0,1,20.078-8.2q2.609,0,2.609,3.219Z" transform="translate(359.815 234.731)" fill="#12263f"/>
    <path id="Trazado_100279" data-name="Trazado 100279" d="M8.719,0H6.258V-4.547Q6.258-6.3,4.977-6.3a1.312,1.312,0,0,0-1.062.492,1.9,1.9,0,0,0-.406,1.25V0H1.039V-11.844H3.508v5.031h.031A2.805,2.805,0,0,1,6-8.2q2.719,0,2.719,3.281ZM23.375,0H20.914V-4.562q0-1.742-1.281-1.742a1.177,1.177,0,0,0-.992.523,2.151,2.151,0,0,0-.383,1.3V0H15.789V-4.609q0-1.7-1.258-1.7a1.206,1.206,0,0,0-1.012.5,2.2,2.2,0,0,0-.379,1.359V0H10.672V-8h2.469v1.25h.031a2.952,2.952,0,0,1,1.074-1.043,2.952,2.952,0,0,1,1.512-.4A2.3,2.3,0,0,1,18.078-6.7,2.959,2.959,0,0,1,20.766-8.2q2.609,0,2.609,3.219Z" transform="translate(442.044 283.258)" fill="#12263f"/>
    <path id="Trazado_100278" data-name="Trazado 100278" d="M8.867,0H6.4V-1.1H6.367A2.768,2.768,0,0,1,3.891.2,3.033,3.033,0,0,1,1.477-.863,4.382,4.382,0,0,1,.563-3.82,4.77,4.77,0,0,1,1.57-7,3.287,3.287,0,0,1,4.211-8.2,2.246,2.246,0,0,1,6.367-7.086H6.4v-4.758H8.867ZM6.445-3.891v-.6a1.893,1.893,0,0,0-.453-1.3A1.5,1.5,0,0,0,4.813-6.3a1.487,1.487,0,0,0-1.281.645,2.993,2.993,0,0,0-.461,1.77,2.59,2.59,0,0,0,.445,1.625A1.479,1.479,0,0,0,4.75-1.7a1.485,1.485,0,0,0,1.223-.6A2.507,2.507,0,0,0,6.445-3.891ZM17.6,0H15.266V-1.148h-.031A2.607,2.607,0,0,1,12.852.2a2.492,2.492,0,0,1-1.832-.66,2.366,2.366,0,0,1-.668-1.762q0-2.328,2.758-2.687L15.281-5.2q0-1.312-1.422-1.312a4.853,4.853,0,0,0-2.719.852V-7.523a6.116,6.116,0,0,1,1.41-.469,7.413,7.413,0,0,1,1.629-.2Q17.6-8.2,17.6-4.781Zm-2.32-3.25v-.539L13.828-3.6q-1.2.156-1.2,1.086a.9.9,0,0,0,.293.691,1.126,1.126,0,0,0,.793.27,1.462,1.462,0,0,0,1.133-.48A1.735,1.735,0,0,0,15.281-3.25ZM32.258,0H29.8V-4.562Q29.8-6.3,28.516-6.3a1.177,1.177,0,0,0-.992.523,2.151,2.151,0,0,0-.383,1.3V0H24.672V-4.609q0-1.7-1.258-1.7a1.206,1.206,0,0,0-1.012.5,2.2,2.2,0,0,0-.379,1.359V0H19.555V-8h2.469v1.25h.031a2.952,2.952,0,0,1,1.074-1.043,2.952,2.952,0,0,1,1.512-.4A2.3,2.3,0,0,1,26.961-6.7,2.959,2.959,0,0,1,29.648-8.2q2.609,0,2.609,3.219Z" transform="translate(522.198 327.802)" fill="#12263f"/>
    <path id="Trazado_100277" data-name="Trazado 100277" d="M13.742,0H11.281V-4.562Q11.281-6.3,10-6.3a1.177,1.177,0,0,0-.992.523,2.151,2.151,0,0,0-.383,1.3V0H6.156V-4.609q0-1.7-1.258-1.7a1.206,1.206,0,0,0-1.012.5,2.2,2.2,0,0,0-.379,1.359V0H1.039V-8H3.508v1.25h.031A2.952,2.952,0,0,1,4.613-7.793a2.952,2.952,0,0,1,1.512-.4A2.3,2.3,0,0,1,8.445-6.7,2.959,2.959,0,0,1,11.133-8.2q2.609,0,2.609,3.219Z" transform="translate(613.443 374.336)" fill="#12263f"/>
    <path id="Trazado_100288" data-name="Trazado 100288" d="M8.867,0H6.4V-1.1H6.367A2.768,2.768,0,0,1,3.891.2,3.033,3.033,0,0,1,1.477-.863,4.382,4.382,0,0,1,.563-3.82,4.77,4.77,0,0,1,1.57-7,3.287,3.287,0,0,1,4.211-8.2,2.246,2.246,0,0,1,6.367-7.086H6.4v-4.758H8.867ZM6.445-3.891v-.6a1.893,1.893,0,0,0-.453-1.3A1.5,1.5,0,0,0,4.813-6.3a1.487,1.487,0,0,0-1.281.645,2.993,2.993,0,0,0-.461,1.77,2.59,2.59,0,0,0,.445,1.625A1.479,1.479,0,0,0,4.75-1.7a1.485,1.485,0,0,0,1.223-.6A2.507,2.507,0,0,0,6.445-3.891ZM23.648,0H21.188V-4.562q0-1.742-1.281-1.742a1.177,1.177,0,0,0-.992.523,2.151,2.151,0,0,0-.383,1.3V0H16.063V-4.609q0-1.7-1.258-1.7a1.206,1.206,0,0,0-1.012.5,2.2,2.2,0,0,0-.379,1.359V0H10.945V-8h2.469v1.25h.031A2.952,2.952,0,0,1,14.52-7.793a2.952,2.952,0,0,1,1.512-.4A2.3,2.3,0,0,1,18.352-6.7,2.959,2.959,0,0,1,21.039-8.2q2.609,0,2.609,3.219Z" transform="translate(699.578 417.842)" fill="#12263f"/>
    <path id="Trazado_100287" data-name="Trazado 100287" d="M7.1-.289A4.881,4.881,0,0,1,4.688.2,4.083,4.083,0,0,1,1.7-.922,3.859,3.859,0,0,1,.563-3.8,4.251,4.251,0,0,1,1.785-7.02,4.518,4.518,0,0,1,5.055-8.2,4.2,4.2,0,0,1,7.1-7.82v2.094A2.814,2.814,0,0,0,5.375-6.3a2.275,2.275,0,0,0-1.684.621A2.317,2.317,0,0,0,3.07-3.969,2.28,2.28,0,0,0,3.664-2.3,2.182,2.182,0,0,0,5.3-1.7a3.258,3.258,0,0,0,1.8-.578ZM21.422,0H18.961V-4.562q0-1.742-1.281-1.742a1.177,1.177,0,0,0-.992.523,2.151,2.151,0,0,0-.383,1.3V0H13.836V-4.609q0-1.7-1.258-1.7a1.206,1.206,0,0,0-1.012.5,2.2,2.2,0,0,0-.379,1.359V0H8.719V-8h2.469v1.25h.031a2.952,2.952,0,0,1,1.074-1.043A2.952,2.952,0,0,1,13.8-8.2,2.3,2.3,0,0,1,16.125-6.7,2.959,2.959,0,0,1,18.813-8.2q2.609,0,2.609,3.219Z" transform="translate(784.591 466.097)" fill="#12263f"/>
    <path id="Trazado_100296" data-name="Trazado 100296" d="M13.742,0H11.281V-4.562Q11.281-6.3,10-6.3a1.177,1.177,0,0,0-.992.523,2.151,2.151,0,0,0-.383,1.3V0H6.156V-4.609q0-1.7-1.258-1.7a1.206,1.206,0,0,0-1.012.5,2.2,2.2,0,0,0-.379,1.359V0H1.039V-8H3.508v1.25h.031A2.952,2.952,0,0,1,4.613-7.793a2.952,2.952,0,0,1,1.512-.4A2.3,2.3,0,0,1,8.445-6.7,2.959,2.959,0,0,1,11.133-8.2q2.609,0,2.609,3.219ZM28.4,0H25.938V-4.562q0-1.742-1.281-1.742a1.177,1.177,0,0,0-.992.523,2.151,2.151,0,0,0-.383,1.3V0H20.813V-4.609q0-1.7-1.258-1.7a1.206,1.206,0,0,0-1.012.5,2.2,2.2,0,0,0-.379,1.359V0H15.7V-8h2.469v1.25H18.2A2.952,2.952,0,0,1,19.27-7.793a2.952,2.952,0,0,1,1.512-.4A2.3,2.3,0,0,1,23.1-6.7,2.959,2.959,0,0,1,25.789-8.2Q28.4-8.2,28.4-4.977Z" transform="translate(860.01 512.631)" fill="#12263f"/>
    <path id="Trazado_100292" data-name="Trazado 100292" d="M3.612-4.837,5.24-7.662H6.869L4.384-3.874,6.94,0H5.34L3.64-2.9,1.94,0H.326L2.882-3.874.4-7.662H2ZM12.322,0h-1.4V-9.022L8.675-9v-1.076l3.647-.382Zm10.5-3.64a4.069,4.069,0,0,1-.889,2.769,3.01,3.01,0,0,1-2.39,1.02,3.023,3.023,0,0,1-2.39-1.02,4.048,4.048,0,0,1-.9-2.769V-6.671a4.075,4.075,0,0,1,.889-2.762,2.992,2.992,0,0,1,2.383-1.027,3.022,3.022,0,0,1,2.4,1.027,4.054,4.054,0,0,1,.9,2.762Zm-1.4-3.321a2.813,2.813,0,0,0-.5-1.756,1.666,1.666,0,0,0-1.4-.644,1.639,1.639,0,0,0-1.388.644,2.842,2.842,0,0,0-.489,1.756v3.6a2.83,2.83,0,0,0,.5,1.763,1.654,1.654,0,0,0,1.392.652,1.643,1.643,0,0,0,1.4-.648,2.871,2.871,0,0,0,.489-1.767Z" transform="translate(529.042 238.295)"/>
    <path id="Trazado_100291" data-name="Trazado 100291" d="M3.612-4.837,5.24-7.662H6.869L4.384-3.874,6.94,0H5.34L3.64-2.9,1.94,0H.326L2.882-3.874.4-7.662H2ZM12.322,0h-1.4V-9.022L8.675-9v-1.076l3.647-.382Zm10.5-3.64a4.069,4.069,0,0,1-.889,2.769,3.01,3.01,0,0,1-2.39,1.02,3.023,3.023,0,0,1-2.39-1.02,4.048,4.048,0,0,1-.9-2.769V-6.671a4.075,4.075,0,0,1,.889-2.762,2.992,2.992,0,0,1,2.383-1.027,3.022,3.022,0,0,1,2.4,1.027,4.054,4.054,0,0,1,.9,2.762Zm-1.4-3.321a2.813,2.813,0,0,0-.5-1.756,1.666,1.666,0,0,0-1.4-.644,1.639,1.639,0,0,0-1.388.644,2.842,2.842,0,0,0-.489,1.756v3.6a2.83,2.83,0,0,0,.5,1.763,1.654,1.654,0,0,0,1.392.652,1.643,1.643,0,0,0,1.4-.648,2.871,2.871,0,0,0,.489-1.767Z" transform="translate(607.619 284.933)"/>
    <path id="Trazado_100293" data-name="Trazado 100293" d="M3.612-4.837,5.24-7.662H6.869L4.384-3.874,6.94,0H5.34L3.64-2.9,1.94,0H.326L2.882-3.874.4-7.662H2ZM12.322,0h-1.4V-9.022L8.675-9v-1.076l3.647-.382Zm10.5-3.64a4.069,4.069,0,0,1-.889,2.769,3.01,3.01,0,0,1-2.39,1.02,3.023,3.023,0,0,1-2.39-1.02,4.048,4.048,0,0,1-.9-2.769V-6.671a4.075,4.075,0,0,1,.889-2.762,2.992,2.992,0,0,1,2.383-1.027,3.022,3.022,0,0,1,2.4,1.027,4.054,4.054,0,0,1,.9,2.762Zm-1.4-3.321a2.813,2.813,0,0,0-.5-1.756,1.666,1.666,0,0,0-1.4-.644,1.639,1.639,0,0,0-1.388.644,2.842,2.842,0,0,0-.489,1.756v3.6a2.83,2.83,0,0,0,.5,1.763,1.654,1.654,0,0,0,1.392.652,1.643,1.643,0,0,0,1.4-.648,2.871,2.871,0,0,0,.489-1.767Z" transform="translate(710.41 335.406)"/>
    <path id="Trazado_100289" data-name="Trazado 100289" d="M3.675-5.226h.042L4.893-7.662H7.23L4.922-3.874,7.308,0H4.978L3.725-2.542,2.472,0H.135L2.521-3.874.205-7.662H2.528ZM13.045,0H10.984V-8.512H8.852v-1.579l4.192-.368ZM23.377-3.732a4.041,4.041,0,0,1-.952,2.847A3.269,3.269,0,0,1,19.9.149,3.3,3.3,0,0,1,17.357-.885,4.032,4.032,0,0,1,16.4-3.732v-2.84a4.057,4.057,0,0,1,.952-2.847,3.266,3.266,0,0,1,2.532-1.041,3.28,3.28,0,0,1,2.532,1.041,4.038,4.038,0,0,1,.96,2.847ZM21.316-6.784a2.669,2.669,0,0,0-.379-1.537,1.21,1.21,0,0,0-1.052-.545,1.2,1.2,0,0,0-1.052.545,2.708,2.708,0,0,0-.372,1.537v3.251a2.715,2.715,0,0,0,.375,1.554,1.217,1.217,0,0,0,1.062.542,1.2,1.2,0,0,0,1.045-.542,2.735,2.735,0,0,0,.372-1.554ZM31.7-3.732a4.041,4.041,0,0,1-.952,2.847A3.269,3.269,0,0,1,28.221.149,3.3,3.3,0,0,1,25.678-.885a4.032,4.032,0,0,1-.956-2.847v-2.84a4.057,4.057,0,0,1,.952-2.847,3.266,3.266,0,0,1,2.532-1.041,3.28,3.28,0,0,1,2.532,1.041,4.038,4.038,0,0,1,.96,2.847ZM29.637-6.784a2.669,2.669,0,0,0-.379-1.537,1.21,1.21,0,0,0-1.052-.545,1.2,1.2,0,0,0-1.052.545,2.708,2.708,0,0,0-.372,1.537v3.251a2.715,2.715,0,0,0,.375,1.554,1.217,1.217,0,0,0,1.062.542,1.2,1.2,0,0,0,1.045-.542,2.735,2.735,0,0,0,.372-1.554Z" transform="translate(789.591 293.933)"/>
    <path id="Trazado_100294" data-name="Trazado 100294" d="M3.612-4.837,5.24-7.662H6.869L4.384-3.874,6.94,0H5.34L3.64-2.9,1.94,0H.326L2.882-3.874.4-7.662H2ZM12.322,0h-1.4V-9.022L8.675-9v-1.076l3.647-.382Zm10.5-3.64a4.069,4.069,0,0,1-.889,2.769,3.01,3.01,0,0,1-2.39,1.02,3.023,3.023,0,0,1-2.39-1.02,4.048,4.048,0,0,1-.9-2.769V-6.671a4.075,4.075,0,0,1,.889-2.762,2.992,2.992,0,0,1,2.383-1.027,3.022,3.022,0,0,1,2.4,1.027,4.054,4.054,0,0,1,.9,2.762Zm-1.4-3.321a2.813,2.813,0,0,0-.5-1.756,1.666,1.666,0,0,0-1.4-.644,1.639,1.639,0,0,0-1.388.644,2.842,2.842,0,0,0-.489,1.756v3.6a2.83,2.83,0,0,0,.5,1.763,1.654,1.654,0,0,0,1.392.652,1.643,1.643,0,0,0,1.4-.648,2.871,2.871,0,0,0,.489-1.767Z" transform="translate(781.48 372.843)"/>
    <path id="Trazado_100295" data-name="Trazado 100295" d="M3.612-4.837,5.24-7.662H6.869L4.384-3.874,6.94,0H5.34L3.64-2.9,1.94,0H.326L2.882-3.874.4-7.662H2ZM12.322,0h-1.4V-9.022L8.675-9v-1.076l3.647-.382Zm10.5-3.64a4.069,4.069,0,0,1-.889,2.769,3.01,3.01,0,0,1-2.39,1.02,3.023,3.023,0,0,1-2.39-1.02,4.048,4.048,0,0,1-.9-2.769V-6.671a4.075,4.075,0,0,1,.889-2.762,2.992,2.992,0,0,1,2.383-1.027,3.022,3.022,0,0,1,2.4,1.027,4.054,4.054,0,0,1,.9,2.762Zm-1.4-3.321a2.813,2.813,0,0,0-.5-1.756,1.666,1.666,0,0,0-1.4-.644,1.639,1.639,0,0,0-1.388.644,2.842,2.842,0,0,0-.489,1.756v3.6a2.83,2.83,0,0,0,.5,1.763,1.654,1.654,0,0,0,1.392.652,1.643,1.643,0,0,0,1.4-.648,2.871,2.871,0,0,0,.489-1.767Z" transform="translate(874.171 426.722)"/>
    <g id="Rectángulo_593" data-name="Rectángulo 593" transform="translate(527.471 542.294)" fill="none" stroke="#2898e2" stroke-width="1">
      <rect width="32" height="32" stroke="none"/>
      <rect x="0.5" y="0.5" width="31" height="31" fill="none"/>
    </g>
    <g id="Rectángulo_594" data-name="Rectángulo 594" transform="translate(619.471 542.294)" fill="none" stroke="#e863c9" stroke-width="1">
      <rect width="60" height="32" stroke="none"/>
      <rect x="0.5" y="0.5" width="59" height="31" fill="none"/>
    </g>
  </g>
</svg>
