<svg xmlns="http://www.w3.org/2000/svg" width="60.947" height="61" viewBox="0 0 60.947 61">
  <path id="scissors" d="M60.38,12.768a2.038,2.038,0,0,0-2.438-.188L31.987,29.088,48.494,3.133A2.039,2.039,0,0,0,45.913.19C32.094,6.624,26.3,16.565,23.879,23.771a38.884,38.884,0,0,0-2.035,11.767l-2.261,1.438a5.436,5.436,0,0,0-.548-1.135L18.246,34.6a5.409,5.409,0,0,0-7.458-1.66L2.633,38.13a5.4,5.4,0,0,0-1.66,7.458h0l.788,1.239A5.367,5.367,0,0,0,5.147,49.2a5.453,5.453,0,0,0,1.184.131,5.366,5.366,0,0,0,2.889-.846l9.491-6.124-6.07,9.545A5.409,5.409,0,0,0,14.3,59.366l1.239.788h0A5.365,5.365,0,0,0,18.428,61a5.436,5.436,0,0,0,1.184-.131A5.367,5.367,0,0,0,23,58.494l5.186-8.155a5.409,5.409,0,0,0-1.659-7.458l-1.239-.788a5.445,5.445,0,0,0-1.206-.574l1.456-2.29A38.859,38.859,0,0,0,37.3,37.195C44.509,34.77,54.45,28.98,60.884,15.161a2.039,2.039,0,0,0-.5-2.393ZM27.8,24.9A33.939,33.939,0,0,1,40.6,7.944L26.441,30.209a35.117,35.117,0,0,1,1.36-5.3ZM7.032,45.046A1.325,1.325,0,0,1,5.2,44.639L4.414,43.4a1.325,1.325,0,0,1,.407-1.829l8.155-5.187a1.326,1.326,0,0,1,1.83.407l.788,1.239a1.326,1.326,0,0,1-.407,1.83L7.032,45.046Zm17.711,3.105-5.186,8.155a1.325,1.325,0,0,1-1.829.407h0l-1.239-.788a1.327,1.327,0,0,1-.407-1.83l5.186-8.155a1.325,1.325,0,0,1,1.829-.407l1.239.788A1.327,1.327,0,0,1,24.743,48.151ZM36.171,33.273a35.126,35.126,0,0,1-5.305,1.36L53.13,20.472A33.939,33.939,0,0,1,36.171,33.273Z" transform="translate(-0.128 0)" fill="#895cd8"/>
</svg>
